<svg width="98" height="35" viewBox="0 0 98 35" fill="none" xmlns="http://www.w3.org/2000/svg">
<g clip-path="url(#clip0_864_6398)">
<mask id="mask0_864_6398" style="mask-type:luminance" maskUnits="userSpaceOnUse" x="0" y="0" width="98" height="35">
<path d="M97.1985 0.238281H0.919922V34.6455H97.1985V0.238281Z" fill="white"/>
</mask>
<g mask="url(#mask0_864_6398)">
<path d="M97.1986 24.2741V18.9081C97.1986 18.3767 97.1643 17.8967 97.0786 17.4681C96.9928 17.0566 96.8557 16.6795 96.6328 16.3366C96.2728 15.7537 95.7928 15.3251 95.1756 15.0165C94.5584 14.708 93.8384 14.5708 93.0498 14.5708C92.5184 14.5708 92.0212 14.6222 91.5583 14.7422C91.0954 14.8622 90.684 15.0508 90.2897 15.2908C89.9125 15.5308 89.5182 15.8566 89.1239 16.268V10.5249C89.1239 9.95917 88.9868 9.54772 88.6953 9.25628C88.421 8.96484 88.0267 8.82769 87.5296 8.82769C87.0324 8.82769 86.6552 8.96484 86.3809 9.25628C86.1066 9.54772 85.9695 9.95917 85.9695 10.5421V24.2741C85.9695 25.4056 86.4838 25.9885 87.5296 25.9885C88.0267 25.9885 88.421 25.8342 88.6953 25.5427C88.9696 25.2513 89.1239 24.8227 89.1239 24.2741V20.5711C89.1239 19.5082 89.2096 18.7538 89.3811 18.3424C89.6039 17.8452 89.9468 17.4681 90.3925 17.1766C90.8383 16.8852 91.3526 16.748 91.9012 16.748C92.7412 16.748 93.307 16.9881 93.6155 17.4681C93.907 17.9481 94.0613 18.6338 94.0613 19.5425V24.2741C94.0613 25.4056 94.5756 25.9885 95.6214 25.9885C96.1014 25.9885 96.4785 25.8342 96.77 25.5599C97.0614 25.2684 97.1986 24.8398 97.1986 24.2912M84.4608 22.6283C84.7351 21.9083 84.8723 21.1197 84.8723 20.2453C84.8723 19.0796 84.6323 18.0681 84.1694 17.2109C83.6894 16.3537 83.0551 15.7023 82.2322 15.2566C81.4264 14.8108 80.5178 14.5879 79.5578 14.5879C78.752 14.5879 78.032 14.7422 77.3805 15.0508C76.7462 15.3594 76.129 15.8394 75.529 16.4909V16.148C75.529 15.6337 75.3919 15.2566 75.1176 14.9823C74.8261 14.708 74.4661 14.5708 74.0204 14.5708C73.5746 14.5708 73.2146 14.708 72.9575 14.9651C72.7003 15.2223 72.5632 15.6337 72.5632 16.1652V29.1943C72.5632 29.8115 72.666 30.2572 72.8546 30.583C73.0432 30.9087 73.4375 31.063 74.0375 31.063C75.049 31.063 75.5462 30.4458 75.5462 29.2115V24.0684C76.0948 24.6855 76.6776 25.1656 77.2948 25.4913C77.912 25.817 78.6663 25.9713 79.5749 25.9713C80.3121 25.9713 81.015 25.8342 81.6664 25.577C82.3179 25.3199 82.8836 24.9427 83.3637 24.4455C83.8437 23.9655 84.2208 23.3483 84.4951 22.6283M81.7179 20.2282C81.7179 20.9997 81.5807 21.6511 81.3064 22.1826C81.0321 22.7312 80.6721 23.1255 80.2264 23.3998C79.7806 23.6741 79.3006 23.8112 78.7692 23.8112C77.8948 23.8112 77.1577 23.5026 76.5576 22.8855C75.9576 22.2683 75.6662 21.394 75.6662 20.2796C75.6662 19.0967 75.9576 18.2053 76.5576 17.5881C77.1577 16.9881 77.8777 16.6795 78.752 16.6795C79.3006 16.6795 79.7978 16.8166 80.2435 17.1081C80.6893 17.3995 81.0493 17.7938 81.3064 18.3253C81.5636 18.8567 81.6836 19.491 81.6836 20.2282M71.6546 19.2853C71.6546 18.531 71.4317 17.7767 71.0031 17.0566C70.5574 16.3195 69.9059 15.7194 69.0316 15.2566C68.1401 14.7937 67.0944 14.5708 65.86 14.5708C64.9171 14.5708 64.0428 14.708 63.2713 14.9823C62.4999 15.2566 61.8313 15.6509 61.2998 16.148C60.7684 16.6623 60.3569 17.2624 60.0826 17.9652C59.8083 18.6681 59.6712 19.4396 59.6712 20.2625C59.6712 22.0283 60.2369 23.4169 61.3512 24.4455C62.4656 25.4741 64.0428 25.9885 66.0657 25.9885C66.9572 25.9885 67.7287 25.8856 68.4144 25.6799C69.1002 25.4742 69.6659 25.217 70.1116 24.9084C70.5574 24.5998 70.9002 24.2741 71.1231 23.9312C71.346 23.5884 71.466 23.2969 71.466 23.0398C71.466 22.7483 71.3631 22.5254 71.1745 22.3712C70.9688 22.2169 70.7117 22.1311 70.3859 22.1311C70.0945 22.1311 69.8545 22.1997 69.7002 22.3197C69.3059 22.6455 68.9802 22.9026 68.7401 23.1083C68.5001 23.2969 68.2258 23.4855 67.9344 23.6569C67.643 23.8284 67.3344 23.9484 67.0258 24.0341C66.7172 24.1198 66.3743 24.1541 65.9972 24.1541C65.4314 24.1541 64.9171 24.0341 64.4542 23.7769C63.9914 23.5369 63.6142 23.1598 63.3399 22.6797C63.0485 22.1997 62.9113 21.634 62.9113 20.9997H69.083C69.9059 20.9997 70.5402 20.8968 71.0031 20.6911C71.466 20.4854 71.6888 20.0225 71.6888 19.3196M68.603 19.371H62.8942C62.997 18.4281 63.3056 17.7081 63.8028 17.2281C64.2999 16.748 64.9514 16.508 65.74 16.508C66.5629 16.508 67.2315 16.748 67.7287 17.2281C68.243 17.7081 68.5173 18.4281 68.603 19.3882M57.9225 25.5427C58.214 25.2684 58.3682 24.8398 58.3682 24.257V10.5249C58.3682 9.95917 58.2311 9.53058 57.9225 9.23914C57.6311 8.96484 57.2368 8.81055 56.7739 8.81055C56.311 8.81055 55.9167 8.96484 55.6424 9.23914C55.3681 9.53058 55.2138 9.94203 55.2138 10.5078V24.2398C55.2138 24.7884 55.351 25.217 55.6424 25.5084C55.9339 25.7999 56.311 25.9542 56.7739 25.9542C57.2368 25.9542 57.6311 25.817 57.9225 25.5256M53.9623 24.8398C53.9623 24.6684 53.8595 24.3084 53.6709 23.7426C53.4823 23.1769 53.3795 22.6283 53.3795 22.0969C53.3795 21.5311 53.3795 21.034 53.3966 20.5711C53.3966 20.1082 53.3966 19.5596 53.3966 18.891C53.3966 17.8452 53.2252 17.0052 52.8994 16.388C52.5737 15.7537 52.008 15.2908 51.2194 14.9994C50.4308 14.708 49.3336 14.5708 47.9449 14.5708C46.7106 14.5708 45.6648 14.7251 44.8419 15.0165C44.0019 15.3251 43.4019 15.7023 43.0076 16.1652C42.6133 16.628 42.4247 17.1081 42.4247 17.6052C42.4247 17.9138 42.5447 18.171 42.819 18.3767C43.0761 18.5824 43.3847 18.6853 43.7276 18.6853C44.1219 18.6853 44.3791 18.6167 44.4991 18.4967C44.6191 18.3767 44.8248 18.1024 45.1162 17.7081C45.4077 17.3138 45.7505 17.0052 46.1448 16.8166C46.5563 16.628 47.1563 16.5252 47.9449 16.5252C48.8707 16.5252 49.4879 16.6966 49.7793 17.0395C50.0707 17.3824 50.2422 17.931 50.2765 18.6681C49.6079 18.8396 49.0078 18.9939 48.4421 19.0967C47.8764 19.2167 47.1906 19.3539 46.402 19.491C45.6134 19.6453 45.1162 19.731 44.9105 19.7653C43.9505 19.9539 43.2133 20.3139 42.6647 20.8625C42.1161 21.394 41.8418 22.0626 41.8418 22.8169C41.8418 23.3826 42.0132 23.9141 42.339 24.3941C42.6647 24.8741 43.1447 25.2684 43.7619 25.5427C44.3791 25.8342 45.0819 25.9713 45.8877 25.9713C46.7792 25.9713 47.5678 25.8342 48.2878 25.577C48.9907 25.3199 49.7279 24.9256 50.4993 24.3941C50.8593 24.9084 51.1851 25.3027 51.5108 25.577C51.8194 25.8513 52.1451 25.9885 52.4708 25.9885C52.848 25.9885 53.208 25.8685 53.4995 25.6284C53.808 25.3884 53.9623 25.1313 53.9623 24.8398ZM50.2936 20.7425C50.2936 21.7197 50.1565 22.4054 49.865 22.834C49.6079 23.2112 49.2307 23.5369 48.6992 23.7769C48.1678 24.0169 47.6021 24.1369 46.9677 24.1369C46.3849 24.1369 45.9048 23.9827 45.5448 23.6912C45.1848 23.3998 44.9962 23.0398 44.9962 22.6112C44.9962 22.1826 45.1505 21.874 45.4591 21.6511C45.7677 21.4283 46.0934 21.274 46.4363 21.1882C46.7792 21.1025 47.3792 20.9825 48.2707 20.8111C49.145 20.6396 49.8307 20.4854 50.2936 20.3311V20.7254V20.7425Z" fill="#323E48"/>
<path d="M27.2697 34.6455H8.97743C4.55437 34.6455 0.919922 31.0282 0.919922 26.588V8.29578C0.919922 3.85559 4.55437 0.238281 8.97743 0.238281H27.2697C31.7099 0.238281 35.3272 3.85559 35.3272 8.29578V26.588C35.3272 31.0282 31.6927 34.6455 27.2697 34.6455Z" fill="#323E48"/>
<path d="M23.9095 8.91297C23.3952 9.08441 22.8809 9.25585 22.3837 9.42728C21.698 9.65015 21.2008 10.2673 21.1322 10.9874C21.0294 12.1531 20.8408 13.8675 20.6179 14.8447C19.9493 17.7077 18.835 20.3821 17.052 22.7307C16.6577 23.2622 16.1949 23.7251 15.6806 24.0679C15.2691 24.3422 14.8062 24.5651 14.3091 24.6165C14.0176 24.6508 13.9319 25.028 14.2234 25.1823C15.2863 25.748 16.572 26.0737 17.7892 25.9366C18.9893 25.7994 19.9665 25.1137 20.7379 24.2222C21.5951 23.2279 21.9723 22.285 22.4866 21.0849C23.0352 19.7649 23.3438 18.6506 23.7724 17.2962L23.8752 16.9019L24.0809 16.0447C24.1324 15.839 24.1667 15.6333 24.2009 15.4276C24.5952 13.6275 24.9381 11.8274 25.1953 9.97588C25.2981 9.27299 24.6124 8.70725 23.9438 8.93012" fill="#6E777F"/>
<path d="M23.8242 16.8845L24.0299 16.0273C24.0642 15.8216 24.1157 15.6159 24.1499 15.4102C26.4815 18.2389 28.1101 22.0619 28.7787 25.6449C28.8302 25.8849 28.5387 26.0563 28.3501 25.9192C27.853 25.542 27.3558 25.182 26.8758 24.822C26.3958 24.462 26.07 23.9648 25.9672 23.3819C25.4014 20.6218 24.4414 17.896 23.8242 16.9017" fill="#6AAAE4"/>
<path d="M15.4065 13.318C13.915 13.6437 12.8178 14.5009 12.1835 15.8896C11.5492 17.261 11.292 18.7011 11.3092 20.1583C11.3435 21.8898 12.2349 23.4842 13.6921 24.4271C13.6921 24.4271 13.6921 24.4271 13.7093 24.4271C13.9836 24.5985 13.795 25.0271 13.4864 24.9414C12.4921 24.6842 11.5492 24.4099 11.2749 24.3242C9.2005 23.6213 7.94902 22.1641 7.589 20.0212C7.21184 17.7068 7.64043 15.5295 8.90906 13.558C10.4691 11.1236 12.8864 10.9522 14.0864 11.055C16.8294 11.3293 19.6581 12.6151 20.4467 13.1294C20.8067 13.3694 20.5496 13.9009 20.1724 13.798C19.4524 13.5923 17.3437 12.8894 15.3894 13.318" fill="#708EA0"/>
</g>
</g>
<defs>
<clipPath id="clip0_864_6398">
<rect width="96.2786" height="34.4073" fill="white" transform="translate(0.919922 0.238281)"/>
</clipPath>
</defs>
</svg>
