<svg width="83" height="19" viewBox="0 0 83 19" fill="none" xmlns="http://www.w3.org/2000/svg">
<path d="M80.6894 10.0792L82.1916 7.8259C81.3976 7.22502 79.7022 6.6456 78.1357 6.6456C75.7536 6.6456 73.5218 8.0405 73.5218 10.2938C73.5218 14.0493 79.3374 13.4269 79.3374 15.1867C79.3374 15.7661 78.6722 16.1738 77.7923 16.1738C76.5691 16.1738 75.3244 15.7446 74.5089 15.015L72.9424 17.2468C74.3587 18.2554 76.1184 18.8134 77.7709 18.8134C80.3031 18.8134 82.5564 17.44 82.5564 15.2081C82.5564 11.1522 76.7408 11.7531 76.7408 10.2509C76.7408 9.64999 77.4919 9.30663 78.3717 9.30663C79.2516 9.30663 80.0456 9.67145 80.6679 10.1007M69.6161 13.4913C69.659 13.2338 69.7019 12.9119 69.7019 12.59C69.7019 9.3281 67.3413 6.62414 64.0365 6.62414C60.4741 6.62414 58.1994 9.47831 58.1994 12.7188C58.1994 16.3884 60.9033 18.7919 64.4871 18.7919C66.3542 18.7919 68.2426 18.0408 69.4229 16.6889L67.5988 14.9077C67.0409 15.5086 65.9464 16.2597 64.573 16.2597C62.8562 16.2597 61.5042 15.1223 61.3325 13.4913H69.659H69.6161ZM66.3971 11.1951H61.4398C61.59 10.1436 62.6845 9.13496 64.015 9.13496C65.3455 9.13496 66.2898 10.1436 66.3971 11.1951ZM54.2293 2.71843C54.2293 1.58105 53.285 0.722656 52.1262 0.722656C50.9674 0.722656 50.0231 1.58105 50.0231 2.71843C50.0231 3.85581 50.9674 4.71421 52.1262 4.71421C53.285 4.71421 54.2293 3.85581 54.2293 2.71843ZM41.7181 9.52123H45.6882V6.8602H41.7181V3.59829H38.4991V6.8602H35.1514V9.52123H38.4991V13.6201C38.4991 15.2725 38.7781 16.324 39.379 17.1181C40.1945 18.1696 41.6108 18.8134 43.5422 18.8134C44.1646 18.8134 45.1303 18.7061 45.538 18.5773L45.0444 15.9378C44.8298 15.9807 44.2075 16.0451 43.7354 16.0451C42.9414 16.0451 42.4263 15.8305 42.1044 15.4656C41.8254 15.1437 41.7181 14.7145 41.7181 14.0064V9.5427V9.52123ZM28.5846 9.52123H32.2972V6.8602H28.5846V6.49538C28.5846 5.42238 28.7563 4.97173 29.0353 4.64983C29.4216 4.19917 30.0439 3.98457 30.8379 3.98457C31.1384 3.98457 31.5247 4.02749 31.8036 4.11333L32.2972 1.43083C31.632 1.25915 31.0311 1.21624 30.3873 1.21624C28.7563 1.21624 27.4902 1.79565 26.6533 2.58967C25.8163 3.38369 25.3657 4.52107 25.3657 6.38808V6.8602H22.2754V9.52123H25.3657V18.5559H28.5846V9.52123ZM19.1208 13.4913C19.1637 13.2338 19.1852 12.9119 19.1852 12.59C19.1852 9.3281 16.8246 6.62414 13.5198 6.62414C9.95742 6.62414 7.68266 9.47831 7.68266 12.7188C7.68266 16.3884 10.3866 18.7919 13.9704 18.7919C15.8374 18.7919 17.7259 18.0408 18.9062 16.6889L17.0821 14.9077C16.5242 15.5086 15.4297 16.2597 14.0563 16.2597C12.3395 16.2597 10.9875 15.1223 10.8158 13.4913H19.1423H19.1208ZM15.9018 11.1951H10.9446C11.0948 10.1436 12.1892 9.13496 13.5198 9.13496C14.8503 9.13496 15.7945 10.1436 15.9018 11.1951ZM0 18.5559H3.21899V1.45229H0V18.5559ZM53.7142 6.8602H50.4953V18.5559H53.7142V6.8602Z" fill="#161612"/>
</svg>
