<svg width="92" height="16" viewBox="0 0 92 16" fill="none" xmlns="http://www.w3.org/2000/svg">
<mask id="mask0_1503_3969" style="mask-type:luminance" maskUnits="userSpaceOnUse" x="0" y="0" width="92" height="16">
<path d="M91.8636 0.962891H0.355469V15.493H91.8636V0.962891Z" fill="white"/>
</mask>
<g mask="url(#mask0_1503_3969)">
<path d="M0.355469 1.51214H2.76883L9.11016 12.2308L7.86187 14.1948L2.76883 5.5899V15.2267H0.355469V1.51214ZM12.6553 1.51214L8.89379 8.06984L10.0922 10.1836L12.6553 5.7064V15.2101H15.0687V1.51214H12.6553ZM40.0179 1.52878H41.0165L51.9349 13.8619V15.2267H50.2705L40.9832 4.72441V15.2267H38.7696V1.52878H40.0179ZM49.5548 1.52878V8.35278L51.7685 10.633V1.52878H49.5548ZM83.7913 1.02947C88.2519 1.02947 91.8636 4.2251 91.8636 8.1697C91.8636 11.7481 88.901 14.7108 85.023 15.2267V12.8966C87.453 12.3973 89.2838 10.4832 89.2838 8.1697C89.2838 5.49003 86.8205 3.32632 83.808 3.32632C80.7954 3.32632 78.3321 5.49003 78.3321 8.1697C78.3321 10.4832 80.1463 12.3973 82.593 12.8966V15.2267C78.715 14.7108 75.7357 11.7481 75.7357 8.1697C75.7191 4.2251 79.3308 1.02947 83.7913 1.02947ZM64.6842 0.962891C67.2307 0.962891 69.5109 2.0281 70.9922 3.69249L69.1614 5.39017C68.1627 4.12523 66.5316 3.29304 64.6842 3.29304C61.8547 3.29304 59.5412 5.20709 59.2416 7.67038H56.6451C56.9614 3.90886 60.4399 0.962891 64.7008 0.962891M59.5412 9.83409H56.7949C57.6105 13.0797 60.8228 15.493 64.6675 15.493C67.5968 15.493 70.16 14.0949 71.5747 11.9812V7.40408H64.551V9.86738H69.2945V11.0491C68.2459 12.4305 67.1474 13.1462 64.6675 13.1462C62.6869 13.1462 60.4067 11.7648 59.5412 9.81745M25.8539 1.4955H28.2673L34.7917 15.2267H32.3783L30.3811 11.0158H23.4239L21.4266 15.2267H19.0133L24.5723 3.5427L25.7541 6.1225L24.5058 8.76888H29.3325L25.8539 1.4955Z" fill="#4A4A34"/>
</g>
</svg>
