<svg width="94" height="40" viewBox="0 0 94 40" fill="none" xmlns="http://www.w3.org/2000/svg">
<path d="M36.1317 35.7556C36.1317 38.2522 39.8266 39.85 44.3871 39.85C46.3677 39.85 47.9489 39.5504 49.2637 39.151V38.5185C47.849 38.9679 46.2013 39.2841 44.3871 39.2841C40.509 39.2841 37.4466 37.9027 37.4466 35.739C37.4466 33.5752 40.4591 32.1605 44.3371 32.1605C46.1846 32.1605 47.8657 32.4934 49.2804 32.9594V32.277C47.9655 31.8776 46.3677 31.5946 44.4037 31.5946C39.9099 31.5946 36.1483 33.2424 36.1483 35.7556M18.7222 39.7501H19.9039L15.7596 31.7278L15.6264 31.4781L15.4433 31.7278L10.3669 38.4519L5.3072 31.7111L5.14076 31.4781L5.00761 31.7111L0.863281 39.7501H2.06164L5.39042 33.259L10.2671 39.7668L10.3669 39.9166L10.4668 39.7668L15.3934 33.2757L18.6889 39.7501H18.7222ZM31.3715 36.7709H24.8804L28.126 32.8429L31.3715 36.7709ZM35.1497 39.7501L28.2425 31.6113L28.1426 31.4948L28.0261 31.6113L21.1189 39.7501H22.3838L24.4144 37.3035H31.8043L33.8515 39.7501H35.1331H35.1497ZM62.1295 10.2405L62.0629 10.4735C61.8132 11.3723 61.4138 12.2378 60.8812 13.02C60.3486 12.3709 59.7494 11.805 59.067 11.3224C59.9991 10.7898 61.031 10.4236 62.1128 10.2571M59.4997 10.3737C59.1502 10.5401 58.8173 10.7065 58.4845 10.9229C57.4193 10.2738 56.2375 9.82441 54.9726 9.62468L53.9573 9.47488L54.2236 10.5234C54.5066 11.6219 55.0059 12.6539 55.655 13.5693C54.9892 14.5013 54.4899 15.5666 54.207 16.6983L53.9573 17.697L55.0225 17.5305C55.9712 17.3807 56.87 17.0811 57.7188 16.6484C57.3194 17.3641 56.637 18.4293 55.655 19.4779C54.6231 20.5597 53.458 21.4086 52.1931 22.041C50.6119 22.8066 48.8476 23.2061 46.9835 23.2061C45.1194 23.2061 43.3552 22.8233 41.7573 22.041C40.4924 21.4252 39.3273 20.5597 38.2954 19.4779C37.2968 18.4293 36.631 17.3807 36.2316 16.6484C37.0804 17.0811 37.9958 17.3641 38.9279 17.5305L39.9931 17.697L39.7434 16.6983C39.4605 15.5666 38.9612 14.5013 38.2954 13.5693C38.9445 12.6539 39.4438 11.6053 39.7268 10.5234L39.9931 9.47488L38.9778 9.62468C37.7129 9.82441 36.5312 10.2738 35.466 10.9229C35.1331 10.7232 34.8002 10.5401 34.4507 10.3737V1.7854C35.5991 2.63424 38.4286 4.7813 39.6436 6.52891L39.7934 6.76193L40.043 6.64542C42.2733 5.58021 44.1374 5.18076 46.9502 5.18076C49.7631 5.18076 51.6438 5.58021 53.8575 6.64542L54.1071 6.76193L54.2736 6.52891C55.4886 4.7813 58.3014 2.6176 59.4664 1.7854V10.3737H59.4997ZM34.9001 11.3057C34.2343 11.7884 33.6185 12.3709 33.0859 13.0034C32.5533 12.2211 32.1705 11.3723 31.9042 10.4569L31.8376 10.2239C32.9194 10.3903 33.9514 10.7565 34.8834 11.2891M33.0859 14.1019C33.4021 14.4847 33.7516 14.8509 34.1344 15.1837C34.3841 15.4001 34.6338 15.6165 34.9001 15.8162C34.0179 16.3155 33.0692 16.665 32.0706 16.8481L31.8376 16.8981C32.0872 15.8828 32.52 14.9507 33.0859 14.1019ZM34.5672 14.7011C34.1677 14.3515 33.8016 13.9687 33.4853 13.5526C34.0512 12.837 34.7336 12.2045 35.4992 11.6719C36.2649 12.1878 36.9473 12.8203 37.5131 13.5526C37.2136 13.9188 36.8973 14.2683 36.5478 14.6012C36.2149 14.9008 35.8654 15.1837 35.5159 15.4334C35.183 15.217 34.8834 14.9674 34.5838 14.7011M37.896 13.02C37.3634 12.3709 36.7642 11.805 36.0818 11.3224C36.9972 10.7898 38.0291 10.4236 39.0943 10.2571H39.1276L39.0943 10.3404C38.8447 11.3057 38.4286 12.2045 37.8793 13.02M37.896 14.1019C38.4618 14.9341 38.8779 15.8661 39.1276 16.8481V16.8814H39.0444C37.9958 16.715 36.9972 16.3488 36.0818 15.8162C36.398 15.5832 36.681 15.3502 36.9639 15.0839C37.2968 14.7676 37.613 14.4514 37.896 14.1019ZM57.9019 15.8162C56.9865 16.3488 55.9879 16.6983 54.9393 16.8814H54.8394V16.8648C55.0891 15.8661 55.5218 14.9507 56.0711 14.1185C56.354 14.4681 56.6703 14.7843 57.0032 15.1005C57.2861 15.3668 57.5857 15.5998 57.8853 15.8329M56.0877 13.02C55.5385 12.2045 55.1224 11.3057 54.8727 10.3404V10.2405C55.9546 10.4069 56.9699 10.7731 57.8853 11.3057C57.2195 11.7884 56.6037 12.3709 56.0711 13.0034M58.4845 15.4334C58.1183 15.1837 57.7688 14.9008 57.4359 14.6012C57.0864 14.2683 56.7535 13.9188 56.4706 13.5526C57.0364 12.837 57.7188 12.2045 58.4845 11.6719C59.2501 12.1878 59.9325 12.8203 60.4984 13.5526C60.1821 13.9687 59.816 14.3515 59.4165 14.7011C59.1169 14.9674 58.8173 15.217 58.4845 15.4334ZM59.0836 15.8162C59.3499 15.6165 59.6162 15.4168 59.8493 15.1837C60.2321 14.8509 60.5816 14.4847 60.8978 14.1019C61.4637 14.9341 61.8965 15.8828 62.1461 16.8981L61.9131 16.8481C60.9145 16.665 59.9658 16.3155 59.0836 15.8162ZM62.6787 10.6566L63.0116 9.47488L62.1628 9.59139C61.4637 9.69125 60.7813 9.85769 60.1488 10.1074V0.537109L59.6495 0.886631C59.4831 1.00314 55.655 3.66616 53.9573 5.94638C51.7437 4.91445 49.8296 4.53165 47.0168 4.53165C44.204 4.53165 42.2899 4.91445 40.0597 5.94638C38.362 3.68281 34.5339 1.00314 34.3675 0.886631L33.8348 0.537109V10.1074C33.1857 9.85769 32.52 9.69125 31.8209 9.59139L30.9721 9.47488L31.305 10.6566C31.6046 11.7052 32.0706 12.6872 32.6864 13.5693C31.9874 14.5513 31.4714 15.6664 31.1885 16.8648L30.9887 17.7136L32.1871 17.4972C33.3022 17.2975 34.3675 16.8981 35.3494 16.3155C35.6657 16.9646 36.4313 18.4293 37.8294 19.894C38.9112 21.0424 40.1429 21.9412 41.4744 22.5903C43.1554 23.4058 45.0029 23.8219 46.9835 23.8219C48.9641 23.8219 50.8283 23.4058 52.4927 22.5903C53.8242 21.9412 55.0558 21.0257 56.1377 19.894C57.5358 18.4293 58.318 16.9646 58.6176 16.3155C59.583 16.8981 60.6648 17.2975 61.78 17.4972L62.9783 17.7136L62.7786 16.8648C62.4956 15.6664 61.9797 14.5513 61.2806 13.5693C61.8965 12.6872 62.3791 11.7052 62.6621 10.6566M63.1448 39.7501H64.3431V31.7278H63.1448V35.3894H54.0905V31.7278H52.8921V39.7501H54.0905V35.9387H63.1448V39.7501ZM78.4072 39.7501L70.3349 35.6224L78.1076 31.7278H76.5597L69.1865 35.456V31.7278H67.9881V39.7501H69.1865V35.7889L76.826 39.7501H78.4239H78.4072ZM89.3256 36.7709H82.8345L86.08 32.8429L89.3256 36.7709ZM93.1204 39.7501L86.2132 31.6113L86.1133 31.4948L86.0135 31.6113L79.1063 39.7501H80.3712L82.4017 37.3035H89.7916L91.8388 39.7501H93.1371H93.1204Z" fill="#1C1C19"/>
</svg>
