<svg width="77" height="16" viewBox="0 0 77 16" fill="none" xmlns="http://www.w3.org/2000/svg">
<path d="M76.6154 15.6016V14.4698H71.3227V0.838483H69.8747V15.6016H76.6154ZM67.1284 8.22838C67.1284 3.81774 63.6166 0.605469 59.6387 0.605469C55.6608 0.605469 52.1489 3.83439 52.1489 8.22838C52.1489 12.6224 55.6774 15.8513 59.6387 15.8513C63.5999 15.8513 67.1284 12.639 67.1284 8.22838ZM65.5805 8.22838C65.5805 12.3061 62.6679 14.6696 59.6553 14.6696C56.6428 14.6696 53.6469 12.3061 53.6469 8.22838C53.6469 4.15062 56.6261 1.78719 59.622 1.78719C62.6179 1.78719 65.5639 4.15062 65.5639 8.22838M47.0059 8.87749L51.9325 0.838483H50.2515C48.9533 2.93561 45.9907 7.92879 45.9907 7.92879L41.9129 0.838483H40.2319L44.9587 8.89413C45.1085 9.14379 45.1918 9.46002 45.1918 9.74297C45.2084 11.4906 45.1918 13.3547 45.1918 15.1023V15.6016H46.723V15.069C46.723 13.3547 46.723 11.5239 46.723 9.80955C46.723 9.49331 46.8229 9.14379 46.9893 8.87749M40.1487 15.6016C37.8352 12.8554 35.6049 10.4587 33.3413 7.77899L39.2998 0.838483H37.7686C37.4191 0.838483 37.5023 0.838483 37.2859 0.838483C37.2859 0.838483 31.6936 7.46276 31.4772 7.69577V0.838483H29.9959V15.6016H31.5271V7.81228C31.6436 7.94543 31.7102 8.012 31.7768 8.07858C33.8906 10.5918 36.2207 13.0884 38.3345 15.6016H40.1653H40.1487ZM18.8445 8.41146H25.6019V7.27967H18.8445V1.97027H25.6019V0.838483H17.3798V15.6016H25.6019V14.4532H18.8445V8.41146ZM14.5337 4.71651C14.4838 2.65267 13.352 1.20465 11.3048 0.988278C9.59046 0.805196 7.8262 0.871771 6.09524 0.821839C6.06195 0.821839 6.0453 0.855127 5.99537 0.871771V15.6016H7.46004V9.02728C8.29223 9.02728 9.05785 9.04393 9.82347 9.02728C10.7555 8.99399 11.6876 8.96071 12.5364 8.51132C14.051 7.71241 14.567 6.36426 14.5337 4.73316M12.6196 6.44748C12.3533 6.99673 11.8873 7.39618 11.3048 7.59591C10.0565 8.012 8.7749 7.87885 7.47668 7.8955V1.98691C8.74162 1.97027 9.98991 1.88705 11.2216 2.18664C11.8041 2.31979 12.2868 2.68596 12.5531 3.21856C13.0857 4.26713 13.1356 5.36562 12.6196 6.43083M0.136719 15.6016H1.60138V0.838483H0.136719V15.6016Z" fill="#1C1C19"/>
</svg>
