<svg width="103" height="37" viewBox="0 0 103 37" fill="none" xmlns="http://www.w3.org/2000/svg">
<mask id="mask0_1503_3978" style="mask-type:luminance" maskUnits="userSpaceOnUse" x="0" y="0" width="103" height="37">
<path d="M102.056 0.0761719H0.46875V36.3805H102.056V0.0761719Z" fill="white"/>
</mask>
<g mask="url(#mask0_1503_3978)">
<path d="M102.057 25.4353V19.7735C102.057 19.2127 102.021 18.7062 101.931 18.254C101.84 17.8199 101.696 17.4219 101.46 17.0601C101.08 16.4451 100.574 15.9929 99.9228 15.6673C99.2716 15.3417 98.5119 15.197 97.6798 15.197C97.119 15.197 96.5945 15.2513 96.1061 15.3779C95.6177 15.5045 95.1835 15.7035 94.7675 15.9567C94.3695 16.21 93.9535 16.5537 93.5374 16.9878V10.928C93.5374 10.3311 93.3927 9.89696 93.0852 9.58945C92.7958 9.28194 92.3798 9.13723 91.8552 9.13723C91.3306 9.13723 90.9327 9.28194 90.6432 9.58945C90.3538 9.89696 90.2091 10.3311 90.2091 10.9461V25.4353C90.2091 26.6291 90.7518 27.2442 91.8552 27.2442C92.3798 27.2442 92.7958 27.0814 93.0852 26.7738C93.3746 26.4663 93.5374 26.0141 93.5374 25.4353V21.5281C93.5374 20.4066 93.6279 19.6107 93.8088 19.1765C94.0439 18.652 94.4057 18.254 94.876 17.9465C95.3463 17.639 95.889 17.4943 96.4678 17.4943C97.3542 17.4943 97.9511 17.7475 98.2767 18.254C98.5842 18.7605 98.747 19.484 98.747 20.4428V25.4353C98.747 26.6291 99.2897 27.2442 100.393 27.2442C100.9 27.2442 101.298 27.0814 101.605 26.7919C101.913 26.4844 102.057 26.0322 102.057 25.4534M88.6173 23.6987C88.9067 22.939 89.0514 22.1069 89.0514 21.1844C89.0514 19.9544 88.7982 18.8871 88.3098 17.9827C87.8033 17.0782 87.134 16.3909 86.2657 15.9205C85.4156 15.4502 84.4568 15.2151 83.4439 15.2151C82.5937 15.2151 81.834 15.3779 81.1466 15.7035C80.4773 16.0291 79.8261 16.5356 79.193 17.2229V16.8612C79.193 16.3185 79.0483 15.9205 78.7589 15.6311C78.4514 15.3417 78.0715 15.197 77.6012 15.197C77.1309 15.197 76.751 15.3417 76.4797 15.613C76.2083 15.8844 76.0636 16.3185 76.0636 16.8793V30.6268C76.0636 31.278 76.1722 31.7483 76.3711 32.092C76.5701 32.4357 76.9862 32.5984 77.6193 32.5984C78.6865 32.5984 79.2111 31.9473 79.2111 30.6449V25.2182C79.7899 25.8694 80.4049 26.3759 81.0561 26.7196C81.7073 27.0633 82.5033 27.2261 83.462 27.2261C84.2398 27.2261 84.9814 27.0814 85.6688 26.81C86.3562 26.5387 86.9531 26.1407 87.4596 25.6162C87.9661 25.1097 88.364 24.4585 88.6535 23.6987M85.7231 21.1663C85.7231 21.9803 85.5784 22.6677 85.2889 23.2284C84.9995 23.8073 84.6196 24.2233 84.1493 24.5127C83.679 24.8022 83.1725 24.9469 82.6118 24.9469C81.6893 24.9469 80.9114 24.6213 80.2783 23.9701C79.6452 23.3189 79.3377 22.3963 79.3377 21.2206C79.3377 19.9724 79.6452 19.0318 80.2783 18.3806C80.9114 17.7475 81.6712 17.4219 82.5937 17.4219C83.1725 17.4219 83.6971 17.5666 84.1674 17.8741C84.6377 18.1816 85.0176 18.5977 85.2889 19.1584C85.5603 19.7192 85.6869 20.3885 85.6869 21.1663M75.1049 20.1714C75.1049 19.3755 74.8698 18.5796 74.4175 17.8199C73.9472 17.0421 73.2599 16.4089 72.3373 15.9205C71.3967 15.4321 70.2933 15.197 68.9909 15.197C67.996 15.197 67.0735 15.3417 66.2595 15.6311C65.4455 15.9205 64.74 16.3366 64.1793 16.8612C63.6185 17.4038 63.1844 18.0369 62.895 18.7786C62.6055 19.5202 62.4608 20.3342 62.4608 21.2025C62.4608 23.0656 63.0578 24.5308 64.2335 25.6162C65.4093 26.7015 67.0735 27.2442 69.208 27.2442C70.1486 27.2442 70.9626 27.1356 71.6861 26.9186C72.4097 26.7015 73.0066 26.4302 73.4769 26.1046C73.9472 25.779 74.309 25.4353 74.5442 25.0735C74.7793 24.7117 74.9059 24.4042 74.9059 24.1329C74.9059 23.8254 74.7974 23.5902 74.5984 23.4274C74.3814 23.2646 74.11 23.1742 73.7663 23.1742C73.4588 23.1742 73.2056 23.2465 73.0428 23.3731C72.6268 23.7168 72.2831 23.9882 72.0298 24.2052C71.7766 24.4042 71.4872 24.6032 71.1796 24.7841C70.8721 24.965 70.5465 25.0916 70.2209 25.182C69.8953 25.2725 69.5336 25.3086 69.1356 25.3086C68.5387 25.3086 67.996 25.182 67.5076 24.9107C67.0192 24.6575 66.6213 24.2595 66.3318 23.753C66.0243 23.2465 65.8796 22.6496 65.8796 21.9803H72.3916C73.2599 21.9803 73.9291 21.8718 74.4175 21.6547C74.9059 21.4376 75.1411 20.9492 75.1411 20.2076M71.8851 20.2619H65.8615C65.9701 19.267 66.2957 18.5072 66.8202 18.0008C67.3448 17.4943 68.0322 17.241 68.8643 17.241C69.7325 17.241 70.438 17.4943 70.9626 18.0008C71.5052 18.5072 71.7947 19.267 71.8851 20.28M60.6158 26.7738C60.9233 26.4844 61.0861 26.0322 61.0861 25.4172V10.928C61.0861 10.3311 60.9414 9.87887 60.6158 9.57136C60.3083 9.28194 59.8922 9.11914 59.4038 9.11914C58.9154 9.11914 58.4994 9.28194 58.2099 9.57136C57.9205 9.87887 57.7577 10.313 57.7577 10.9099V25.3991C57.7577 25.9779 57.9024 26.4302 58.2099 26.7377C58.5175 27.0452 58.9154 27.208 59.4038 27.208C59.8922 27.208 60.3083 27.0633 60.6158 26.7558M56.4372 26.0322C56.4372 25.8513 56.3287 25.4714 56.1297 24.8745C55.9308 24.2776 55.8222 23.6987 55.8222 23.138C55.8222 22.5411 55.8222 22.0165 55.8403 21.5281C55.8403 21.0397 55.8403 20.4608 55.8403 19.7554C55.8403 18.652 55.6594 17.7656 55.3157 17.1144C54.972 16.4451 54.3751 15.9567 53.543 15.6492C52.7109 15.3417 51.5533 15.197 50.0881 15.197C48.7857 15.197 47.6822 15.3598 46.814 15.6673C45.9276 15.9929 45.2945 16.3909 44.8785 16.8793C44.4624 17.3677 44.2635 17.8741 44.2635 18.3987C44.2635 18.7243 44.3901 18.9956 44.6795 19.2127C44.9508 19.4298 45.2764 19.5383 45.6382 19.5383C46.0543 19.5383 46.3256 19.466 46.4522 19.3393C46.5788 19.2127 46.7959 18.9233 47.1034 18.5072C47.4109 18.0912 47.7727 17.7656 48.1887 17.5666C48.6229 17.3677 49.256 17.2591 50.0881 17.2591C51.0649 17.2591 51.7161 17.44 52.0236 17.8018C52.3311 18.1636 52.512 18.7424 52.5481 19.5202C51.8427 19.7011 51.2096 19.8639 50.6126 19.9724C50.0157 20.0991 49.2922 20.2438 48.4601 20.3885C47.628 20.5513 47.1034 20.6417 46.8863 20.6779C45.8734 20.8769 45.0955 21.2567 44.5167 21.8356C43.9379 22.3963 43.6484 23.1018 43.6484 23.8977C43.6484 24.4947 43.8293 25.0554 44.173 25.5619C44.5167 26.0684 45.0232 26.4844 45.6744 26.7738C46.3256 27.0814 47.0672 27.2261 47.9174 27.2261C48.858 27.2261 49.6901 27.0814 50.4498 26.81C51.1915 26.5387 51.9693 26.1226 52.7833 25.5619C53.1632 26.1046 53.5069 26.5206 53.8505 26.81C54.1761 27.0994 54.5198 27.2442 54.8635 27.2442C55.2615 27.2442 55.6413 27.1175 55.9488 26.8643C56.2744 26.611 56.4372 26.3397 56.4372 26.0322ZM52.5662 21.709C52.5662 22.74 52.4215 23.4636 52.114 23.9158C51.8427 24.3138 51.4447 24.6575 50.884 24.9107C50.3232 25.1639 49.7263 25.2906 49.057 25.2906C48.442 25.2906 47.9355 25.1278 47.5556 24.8203C47.1758 24.5127 46.9768 24.1329 46.9768 23.6807C46.9768 23.2284 47.1396 22.9028 47.4652 22.6677C47.7908 22.4325 48.1345 22.2697 48.4962 22.1793C48.858 22.0888 49.4911 21.9622 50.4318 21.7813C51.3543 21.6004 52.0778 21.4376 52.5662 21.2748V21.6909V21.709Z" fill="#323E48"/>
<path d="M28.2713 36.3805H8.9705C4.30358 36.3805 0.46875 32.5637 0.46875 27.8787V8.57792C0.46875 3.89292 4.30358 0.0761719 8.9705 0.0761719H28.2713C32.9563 0.0761719 36.773 3.89292 36.773 8.57792V27.8787C36.773 32.5637 32.9382 36.3805 28.2713 36.3805Z" fill="#323E48"/>
<path d="M24.7269 9.2292C24.1843 9.41009 23.6416 9.59098 23.117 9.77186C22.3935 10.007 21.8689 10.6582 21.7965 11.4179C21.688 12.648 21.489 14.4569 21.2539 15.4879C20.5484 18.5088 19.3726 21.3306 17.4914 23.8088C17.0753 24.3696 16.587 24.858 16.0443 25.2197C15.6102 25.5091 15.1218 25.7443 14.5972 25.7986C14.2897 25.8347 14.1992 26.2327 14.5067 26.3955C15.6282 26.9924 16.9849 27.3361 18.2692 27.1914C19.5354 27.0467 20.5665 26.3231 21.3805 25.3825C22.2849 24.3334 22.6829 23.3385 23.2256 22.0723C23.8044 20.6794 24.13 19.5037 24.5822 18.0746L24.6908 17.6586L24.9078 16.7542C24.9621 16.5371 24.9983 16.32 25.0344 16.103C25.4505 14.2036 25.8123 12.3043 26.0836 10.3507C26.1921 9.60906 25.4686 9.01213 24.7631 9.24729" fill="#6E777F"/>
<path d="M24.6367 17.6396L24.8538 16.7352C24.89 16.5181 24.9442 16.3011 24.9804 16.084C27.4405 19.0686 29.1589 23.1025 29.8644 26.883C29.9187 27.1363 29.6111 27.3172 29.4122 27.1724C28.8876 26.7745 28.363 26.3946 27.8565 26.0148C27.35 25.6349 27.0064 25.1103 26.8978 24.4953C26.3009 21.583 25.2879 18.7069 24.6367 17.6577" fill="#6AAAE4"/>
<path d="M15.7549 13.8756C14.1812 14.2193 13.0235 15.1238 12.3542 16.5889C11.685 18.0361 11.4136 19.5555 11.4317 21.0931C11.4679 22.92 12.4085 24.6023 13.9461 25.5972C13.9461 25.5972 13.9461 25.5972 13.9641 25.5972C14.2536 25.7781 14.0546 26.2303 13.729 26.1398C12.6798 25.8685 11.685 25.5791 11.3955 25.4887C9.20678 24.747 7.8863 23.2095 7.50643 20.9484C7.10848 18.5064 7.5607 16.2091 8.89927 14.1289C10.5454 11.5602 13.0959 11.3794 14.3621 11.4879C17.2563 11.7773 20.241 13.134 21.0731 13.6766C21.4529 13.9299 21.1816 14.4906 20.7836 14.3821C20.0239 14.165 17.799 13.4234 15.7369 13.8756" fill="#708EA0"/>
</g>
</svg>
