<svg width="72" height="10" viewBox="0 0 72 10" fill="none" xmlns="http://www.w3.org/2000/svg">
<path d="M71.0161 0.265751H68.5464V9.73551H71.0161V0.265751ZM67.996 9.73551L64.0726 4.54196L67.6149 0.265751H64.6936L61.7298 4.09035H61.6875V0.265751H59.2036V9.73551H61.6875V5.19115H61.7298L64.8488 9.73551H67.996ZM55.6472 9.73551H58.131V0.265751H55.6472V9.73551ZM55.1956 9.73551L51.2722 4.54196L54.8145 0.265751H51.8931L48.9294 4.09035H48.8871V0.265751H46.4032V9.73551H48.8871V5.19115H48.9294L52.0484 9.73551H55.1814H55.1956ZM42.748 9.73551H45.2177V0.265751H42.748V9.73551ZM39.6855 9.73551H41.9294C41.873 9.00164 41.746 8.35245 41.7319 7.63269C41.7177 6.92704 41.6895 6.20728 41.6895 5.24761V4.01978C41.6895 1.21132 40.4899 0.0117188 37.6109 0.0117188C36.5665 0.0117188 35.2823 0.293977 34.3226 0.731477L33.7157 3.03188C34.5484 2.3968 36.2702 1.81817 37.3286 1.81817C38.7823 1.81817 39.4597 2.32624 39.4597 3.86454H38.1048C37.0746 3.86454 35.8609 3.94922 34.9294 4.41494C33.998 4.88067 33.3064 5.71333 33.3064 7.12462C33.3064 8.93108 34.9436 9.9472 36.6089 9.9472C37.4839 9.9472 38.4153 9.59438 39.0504 8.94519V7.12462C39.0504 7.12462 38.9798 7.23753 38.9375 7.29398C38.5564 7.81615 37.9637 8.14075 37.2157 8.14075C36.3407 8.14075 35.6492 7.78793 35.6492 6.98349C35.6492 5.52986 37.2863 5.3464 38.3871 5.3464L39.6573 5.31817V9.63672C39.6573 9.63672 39.6855 9.69317 39.6855 9.7214M31.246 9.73551L33.9698 0.265751H31.5988L29.7359 7.26575L27.8024 0.265751H25.0504L23.2298 7.26575L21.2823 0.265751H18.8266L21.8185 9.73551H24.4718L26.4194 2.43914L28.3669 9.73551H31.2601H31.246ZM14.0988 3.08833L16.4839 3.11656C16.4556 2.97543 16.4133 2.69317 16.3569 2.56615C16.2298 2.24156 16.0323 1.91696 15.7782 1.60648C14.9173 0.562122 13.5625 0.0258317 11.6996 0.0258317C10.3165 0.0258317 9.17339 0.420993 8.27016 1.21132C7.23992 2.11454 6.71774 3.3847 6.71774 5.05003C6.71774 6.58833 7.16935 7.78793 8.08669 8.67704C9.00403 9.55204 10.246 9.98954 11.8266 9.98954C13.1109 9.98954 14.1694 9.66495 14.9879 9.01575C15.8065 8.36656 16.2581 7.67503 16.4698 6.64478L14.1411 6.67301C13.9859 7.16696 13.8589 7.33632 13.6331 7.59035C13.2097 8.04196 12.6028 8.26777 11.7984 8.26777C10.994 8.26777 10.373 7.99962 9.86492 7.47745C9.35685 6.94116 9.10282 6.15083 9.10282 5.07825C9.10282 4.00567 9.34274 3.18712 9.82258 2.60849C10.3024 2.02986 10.9657 1.73349 11.7843 1.73349C12.6028 1.73349 13.2238 1.94519 13.6331 2.35446C13.7177 2.43914 13.8024 2.53793 13.873 2.66494C13.9577 2.79196 14.0282 2.9472 14.0988 3.11656M0 9.74962H6.60484V7.59035H2.49798V0.265751H0V9.74962Z" fill="#0B4E8D"/>
</svg>
