<svg width="111" height="22" viewBox="0 0 111 22" fill="none" xmlns="http://www.w3.org/2000/svg">
<mask id="mask0_1503_3999" style="mask-type:luminance" maskUnits="userSpaceOnUse" x="0" y="0" width="111" height="22">
<path d="M110.24 0.408203H0.695312V21.5917H110.24V0.408203Z" fill="white"/>
</mask>
<g mask="url(#mask0_1503_3999)">
<path d="M110.24 9.31345H108.857V10.7388H110.24V9.31345ZM106.302 1.62191H107.502V0.563445H103.917V1.63603H105.018V7.80336C105.018 8.11385 105.032 8.53724 105.06 8.86183C104.947 8.57957 104.806 8.1703 104.679 7.90215L100.911 0.549332H97.9614V1.62191H99.161V9.68038H97.9614V10.7388H101.617V9.68038H100.417V2.97675C100.417 2.68038 100.403 2.31345 100.375 2.01707C100.474 2.27111 100.615 2.65215 100.742 2.93441L104.722 10.7388H106.316V1.62191H106.302ZM91.032 3.18845C91.032 2.31345 91.526 1.4949 93.1489 1.4949C93.9393 1.4949 94.4756 1.63603 95.1106 1.79127V3.17433H96.409V0.859816C95.3364 0.605784 94.3203 0.408203 93.1489 0.408203C90.7497 0.408203 89.6631 1.76304 89.6631 3.28724C89.6631 5.23482 90.905 5.82756 92.9514 6.0957C94.4332 6.3074 95.4211 6.61788 95.4211 7.94449C95.4211 8.91828 94.7578 9.8074 93.1348 9.8074C92.3445 9.8074 91.6671 9.65215 91.032 9.4828V8.0574H89.7195V10.4001C90.7921 10.6683 91.9635 10.88 93.1066 10.88C95.5622 10.88 96.8042 9.51103 96.8042 7.81748C96.8042 5.78522 95.2659 5.1078 93.1913 4.86788C91.8647 4.68441 91.0038 4.38804 91.0038 3.17433M82.2961 3.18845C82.2961 2.31345 82.7901 1.4949 84.4131 1.4949C85.2034 1.4949 85.7397 1.63603 86.3747 1.79127V3.17433H87.6731V0.859816C86.6006 0.605784 85.5844 0.408203 84.4272 0.408203C82.028 0.408203 80.9413 1.76304 80.9413 3.28724C80.9413 5.23482 82.1832 5.82756 84.2296 6.0957C85.7114 6.3074 86.6993 6.61788 86.6993 7.94449C86.6993 8.91828 86.036 9.8074 84.4272 9.8074C83.6368 9.8074 82.9594 9.65215 82.3243 9.4828V8.0574H80.9977V10.4001C82.0844 10.6683 83.2417 10.88 84.3848 10.88C86.8264 10.88 88.0824 9.51103 88.0824 7.81748C88.0824 5.78522 86.5441 5.1078 84.4695 4.86788C83.1429 4.68441 82.282 4.38804 82.282 3.17433M76.3969 10.7388H79.9534V9.68038H78.9937L76.2558 1.62191H77.3989V0.549332H72.6288V1.62191H73.7719L71.0058 9.68038H70.032V10.7388H73.5885V9.68038H72.3606L73.0663 7.59167H76.8768L77.5683 9.68038H76.3969V10.7388ZM76.5522 6.54732H73.3626L74.6046 2.77917C74.7316 2.38401 74.8586 1.91828 74.9574 1.45256C75.0703 1.90417 75.1973 2.3699 75.2961 2.76506L76.5381 6.54732H76.5522ZM66.151 5.6582C66.151 2.73683 64.528 0.408203 61.7054 0.408203C58.8828 0.408203 57.2457 2.73683 57.2457 5.6582C57.2457 8.57957 58.911 10.8941 61.7054 10.8941C64.4997 10.8941 66.151 8.56546 66.151 5.6582ZM64.7538 5.6582C64.7538 8.01506 63.7518 9.70861 61.7054 9.70861C59.659 9.70861 58.657 8.01506 58.657 5.6582C58.657 3.30135 59.659 1.6078 61.7054 1.6078C63.7518 1.6078 64.7538 3.30135 64.7538 5.6582ZM48.8062 10.7388H56.3707V8.00095H55.0723V9.68038H51.3042V1.62191H52.5885V0.549332H48.8062V1.62191H50.0058V9.68038H48.8062V10.7388ZM47.7054 5.6582C47.7054 2.73683 46.0683 0.408203 43.2598 0.408203C40.4514 0.408203 38.8002 2.73683 38.8002 5.6582C38.8002 8.57957 40.4655 10.8941 43.2598 10.8941C46.0542 10.8941 47.7054 8.56546 47.7054 5.6582ZM46.3082 5.6582C46.3082 8.01506 45.2921 9.70861 43.2598 9.70861C41.2276 9.70861 40.2114 8.01506 40.2114 5.6582C40.2114 3.30135 41.2135 1.6078 43.2598 1.6078C45.3062 1.6078 46.3082 3.30135 46.3082 5.6582ZM37.784 3.58361C37.784 1.91828 36.8808 0.549332 34.9473 0.549332H29.5139V1.62191H30.7135V9.68038H29.5139V10.7388H33.3385V9.68038H32.0118V6.71667H34.8768C36.909 6.71667 37.784 5.30538 37.784 3.56949M36.4433 3.62595C36.4433 4.83965 35.9352 5.72877 34.651 5.72877H32.0118V1.62191H34.651C35.9776 1.62191 36.4433 2.4828 36.4433 3.61183M23.6147 10.7388H24.9977V9.31345H23.6147V10.7388ZM16.1631 3.18845C16.1631 2.31345 16.657 1.4949 18.28 1.4949C19.0562 1.4949 19.6066 1.63603 20.2417 1.79127V3.17433H21.5401V0.859816C20.4534 0.605784 19.4514 0.408203 18.2941 0.408203C15.8949 0.408203 14.8082 1.76304 14.8082 3.28724C14.8082 5.23482 16.0502 5.82756 18.0965 6.0957C19.5643 6.3074 20.5663 6.61788 20.5663 7.94449C20.5663 8.91828 19.903 9.8074 18.2941 9.8074C17.5038 9.8074 16.8264 9.65215 16.1913 9.4828V8.0574H14.8788V10.4001C15.9655 10.6683 17.1227 10.88 18.2659 10.88C20.7074 10.88 21.9493 9.51103 21.9493 7.81748C21.9493 5.78522 20.411 5.1078 18.3364 4.86788C17.0098 4.68441 16.1489 4.38804 16.1489 3.17433M11.5764 10.7388H12.9594V9.31345H11.5764V10.7388ZM9.13483 1.62191H10.3344V0.549332H6.62273V1.62191H7.83644V7.66224C7.83644 9.05941 7.03201 9.75095 5.50781 9.75095C3.98362 9.75095 3.1933 9.07353 3.1933 7.66224V1.62191H4.39289V0.549332H0.695312V1.62191H1.89491V7.93038C1.89491 9.89207 3.50378 10.8941 5.4937 10.8941C7.48362 10.8941 9.14894 9.87796 9.14894 7.93038V1.62191H9.13483Z" fill="#B01F37"/>
<path d="M78.4587 18.4733C78.4587 16.5117 77.6825 15.3544 76.4405 15.3544C75.1986 15.3544 74.4224 16.5117 74.4224 18.4733C74.4224 20.435 75.2127 21.5923 76.4405 21.5923C77.6683 21.5923 78.4587 20.435 78.4587 18.4733ZM77.8942 18.4733C77.8942 19.9834 77.4425 21.0983 76.4405 21.0983C75.4385 21.0983 74.9869 19.9834 74.9869 18.4733C74.9869 16.9633 75.4385 15.8483 76.4405 15.8483C77.4425 15.8483 77.8942 16.9633 77.8942 18.4733ZM73.5191 18.3463C73.5191 16.4693 72.7853 15.3544 71.4728 15.3544C70.1885 15.3544 69.5252 16.3 69.5252 17.4149C69.5252 18.4028 70.0192 19.3625 71.3458 19.3625C72.0796 19.3625 72.6159 18.9955 72.9687 18.5298C72.9687 20.0822 72.4607 21.1548 71.4022 21.1548C71.0071 21.1548 70.6119 21.0842 70.2591 20.9431V20.0963H69.7228V21.2677C70.2591 21.4653 70.8518 21.5923 71.3881 21.5923C72.7853 21.5923 73.5191 20.2657 73.5191 18.3463ZM72.9546 18.0923C72.63 18.558 72.0796 18.925 71.4446 18.925C70.4002 18.925 70.0756 18.1911 70.0756 17.3867C70.0756 16.4834 70.5131 15.8201 71.4587 15.8201C72.4042 15.8201 72.9264 16.7233 72.9687 18.0923M67.126 18.3322C68.001 18.2052 68.4103 17.6125 68.4103 16.9068C68.4103 16.0318 67.7752 15.3544 66.5897 15.3544C65.4042 15.3544 64.7692 16.0177 64.7692 16.9068C64.7692 17.6266 65.2208 18.2052 66.0675 18.3463C65.2208 18.431 64.6139 19.0096 64.6139 19.927C64.6139 20.9431 65.3337 21.6064 66.5897 21.6064C67.8458 21.6064 68.5655 20.9431 68.5655 19.927C68.5655 19.0096 67.9869 18.4169 67.126 18.3322ZM66.6038 18.1346C65.8558 18.1346 65.3054 17.7395 65.3054 16.9492C65.3054 16.2859 65.7571 15.7919 66.6038 15.7919C67.4506 15.7919 67.9022 16.2859 67.9022 16.9492C67.9022 17.7395 67.3518 18.1346 66.6038 18.1346ZM68.0433 19.8564C68.0433 20.6044 67.5494 21.1266 66.5897 21.1266C65.63 21.1266 65.1361 20.6044 65.1361 19.8564C65.1361 18.9108 65.8417 18.558 66.5897 18.558C67.3377 18.558 68.0433 18.8967 68.0433 19.8564ZM60.8458 21.5076H63.5413V21.056H62.5675V15.4532H62.003L60.3236 16.6528L60.5353 17.0621L62.003 15.9895V21.0701H60.8458V21.5217V21.5076ZM52.2651 21.5076H56.8377V20.181H56.2732V21.0419H53.5635V18.5721H55.9627V18.1205H53.5635V15.8766H56.2591V16.7234H56.8095V15.425H52.2651V15.8766H53.0131V21.0419H52.2651V21.4935V21.5076ZM49.6119 21.5923C50.2329 21.5923 50.9385 21.4653 51.5454 21.2959V20.0117H50.995V20.8725C50.5575 20.9996 50.0917 21.0701 49.6119 21.0701C48.2147 21.0701 47.495 19.9693 47.495 18.4592C47.495 16.9492 48.2147 15.8483 49.5978 15.8483C50.0776 15.8483 50.5433 15.933 50.9808 16.0459V16.9068H51.5312V15.6225C50.9244 15.4391 50.2329 15.3403 49.6119 15.3262C47.8337 15.3262 46.8881 16.7375 46.8881 18.4451C46.8881 20.1528 47.876 21.5782 49.5978 21.5782M45.4486 15.8907H46.2107V15.4391H44.2067V15.8907H44.9123V20.0822C44.9123 20.2798 44.9123 20.5056 44.9405 20.7032C44.87 20.5338 44.7853 20.3221 44.7006 20.1669L42.1321 15.4532H40.6079V15.9048H41.3558V21.0701H40.6079V21.5217H42.6542V21.0701H41.8921V16.6104C41.8921 16.4411 41.8921 16.2294 41.878 16.0459C41.9486 16.2012 42.0333 16.4129 42.1179 16.5681L44.7853 21.5217H45.4486V15.9048V15.8907ZM37.9687 21.5076H40.0292V21.056H39.2671V15.8907H40.0292V15.4391H37.9687V15.8907H38.7167V21.056H37.9687V21.5076ZM33.7349 16.9492C33.7349 16.3705 34.0877 15.806 35.1462 15.806C35.6825 15.806 36.0353 15.9048 36.4587 16.0318V16.8786H37.0232V15.6367C36.4022 15.4814 35.8377 15.3544 35.1603 15.3544C33.7631 15.3544 33.1562 16.1306 33.1562 16.9915C33.1562 18.1488 33.9325 18.4451 35.0474 18.6145C35.9506 18.7556 36.6562 18.9532 36.6562 19.8564C36.6562 20.5197 36.2046 21.1266 35.1462 21.1266C34.624 21.1266 34.1724 21.0278 33.749 20.9008V20.0258H33.1845V21.31C33.8054 21.4653 34.4546 21.6064 35.1321 21.6064C36.5433 21.6064 37.2349 20.7879 37.2349 19.8282C37.2349 18.6004 36.3034 18.2617 35.1462 18.0923C34.3276 17.9794 33.7349 17.7959 33.7349 16.9633" fill="#1B2947"/>
</g>
</svg>
