<svg width="60" height="28" viewBox="0 0 60 28" fill="none" xmlns="http://www.w3.org/2000/svg">
<g clip-path="url(#clip0_1503_4013)">
<mask id="mask0_1503_4013" style="mask-type:luminance" maskUnits="userSpaceOnUse" x="0" y="0" width="60" height="28">
<path d="M59.6464 0.574219H0.710938V27.4311H59.6464V0.574219Z" fill="white"/>
</mask>
<g mask="url(#mask0_1503_4013)">
<path d="M7.14642 25.7941C4.57787 25.7941 2.48916 23.8747 2.48916 21.532C2.48916 19.1893 4.57787 17.2417 7.14642 17.2417C9.71497 17.2417 11.8037 19.161 11.8037 21.532C11.8037 23.903 9.71497 25.7941 7.14642 25.7941ZM7.14642 15.6328C3.60408 15.6328 0.710938 18.286 0.710938 21.532C0.710938 24.778 3.60408 27.4312 7.14642 27.4312C10.6888 27.4312 13.5819 24.778 13.5819 21.532C13.5537 18.2578 10.6746 15.6328 7.14642 15.6328Z" fill="#78CCD6"/>
<path d="M23.8008 19.7961C23.2222 20.417 21.8814 20.8545 20.4419 20.8686H20.329C18.2967 20.8686 16.6597 20.1207 16.6455 19.1469C16.6597 18.8646 16.7726 18.6106 16.9842 18.3707C17.5629 17.7497 18.8754 17.3122 20.3431 17.3122H20.456C22.4883 17.3122 24.0972 18.0743 24.1254 19.034C24.1254 19.288 24.0125 19.5279 23.8008 19.7819M24.1113 23.9452C24.1536 24.1852 24.0407 24.4251 23.8149 24.6791C23.2363 25.3001 21.8955 25.7376 20.456 25.7517H20.3431C18.3109 25.7517 16.6738 25.0037 16.6597 24.0299C16.6597 23.7759 16.7726 23.536 16.9842 23.2819C17.5629 22.661 18.8754 22.2235 20.3431 22.2235H20.456C22.4742 22.2235 24.0972 22.9715 24.1113 23.9452ZM25.6355 18.9916C25.5931 17.1005 23.4621 15.7598 20.4701 15.7598H20.3431C18.9601 15.788 17.7322 16.0985 16.8149 16.6207C16.6879 16.2537 16.3633 15.9715 15.954 15.9715C15.4601 15.9715 15.0508 16.3807 15.0508 16.9029V26.3586C15.0508 26.8525 15.4318 27.29 15.954 27.29C16.3915 27.29 16.7726 26.9513 16.8431 26.5138C17.7463 27.0077 18.9601 27.3182 20.3572 27.3182H20.4842C22.3754 27.29 24.0407 26.7114 24.9157 25.7658C25.5367 25.0743 25.6637 24.3828 25.6496 23.917C25.6213 22.9291 25.0427 22.0823 24.083 21.5319C24.4217 21.3344 24.6899 21.1227 24.9157 20.8686C25.5367 20.1771 25.6637 19.4856 25.6496 19.0198" fill="#78CCD6"/>
<path d="M41.6663 13.9254C41.6381 13.3609 41.2147 12.9375 40.6925 12.9375C40.1704 12.9375 39.7188 13.375 39.7188 13.9254C39.7188 14.4758 40.128 14.9133 40.6925 14.9133C41.2147 14.9133 41.6663 14.4758 41.6663 13.9254Z" fill="#78CCD6"/>
<path d="M58.5595 16C58.0655 16 57.6562 16.4093 57.6562 16.9315V26.373C57.6562 26.8669 58.0514 27.3044 58.5595 27.3044C59.0675 27.3044 59.4627 26.8952 59.4627 26.373V16.9315C59.4627 16.4093 59.0534 16 58.5595 16Z" fill="#78CCD6"/>
<path d="M54.0703 19.7961C53.4917 20.417 52.151 20.8545 50.7114 20.8686H50.6268C48.5945 20.8686 46.9574 20.1207 46.9433 19.1469C46.9433 18.8646 47.0562 18.6106 47.2679 18.3707C47.8465 17.7497 49.159 17.3122 50.6268 17.3122H50.7397C52.7719 17.3122 54.3808 18.0743 54.409 19.034C54.409 19.288 54.2961 19.5279 54.0844 19.7819M54.3949 23.9452C54.4231 24.1852 54.282 24.4251 54.0985 24.6791C53.5199 25.3001 52.1792 25.7376 50.7397 25.7517H50.6268C48.5945 25.7517 46.9574 25.0037 46.9433 24.0299C46.9433 23.7759 47.0562 23.536 47.2679 23.2819C47.8465 22.661 49.159 22.2235 50.6268 22.2235H50.7397C52.7719 22.2235 54.3808 22.9715 54.409 23.9452M55.905 18.9916C55.8627 17.1005 53.7316 15.7598 50.7397 15.7598H50.6127C49.2296 15.788 48.0018 16.0985 47.0844 16.6207C46.9574 16.2537 46.6328 15.9715 46.2235 15.9715C45.7296 15.9715 45.3203 16.3807 45.3203 16.9029V26.3586C45.3203 26.8525 45.7014 27.29 46.2235 27.29C46.661 27.29 47.0421 26.9513 47.1127 26.5138C48.0159 27.0077 49.2296 27.3182 50.6268 27.3182H50.7538C52.6308 27.29 54.3102 26.7114 55.1993 25.7658C55.8203 25.0743 55.9473 24.3828 55.9332 23.917C55.905 22.9291 55.3264 22.0823 54.3667 21.5319C54.7054 21.3344 54.9735 21.1227 55.2135 20.8686C55.8344 20.1771 55.9614 19.4856 55.9473 19.0198" fill="#78CCD6"/>
<path d="M58.5324 12.9375C58.0102 12.9375 57.5586 13.375 57.5586 13.9254C57.5586 14.4758 57.9679 14.9133 58.5324 14.9133C59.0546 14.9133 59.4779 14.4758 59.4779 13.9254C59.4779 13.375 59.0405 12.9375 58.5324 12.9375Z" fill="#78CCD6"/>
<path d="M43.798 12.9375C43.2758 12.9375 42.8242 13.375 42.8242 13.9254C42.8242 14.4758 43.2335 14.9133 43.798 14.9133C44.3202 14.9133 44.7718 14.4758 44.7718 13.9254C44.7718 13.375 44.3484 12.9375 43.798 12.9375Z" fill="#78CCD6"/>
<path d="M42.247 16C41.753 16 41.3438 16.4093 41.3438 16.9315V26.373C41.3438 26.8669 41.7248 27.3044 42.247 27.3044C42.7692 27.3044 43.1502 26.8952 43.1502 26.373V16.9315C43.1361 16.4093 42.7409 16 42.247 16Z" fill="#78CCD6"/>
<path d="M32.9888 25.6535C30.5331 25.6535 28.515 23.8189 28.515 21.5326C28.515 19.2463 30.519 17.4257 32.9888 17.4257C35.4585 17.4257 37.4767 19.2604 37.4767 21.5326C37.4767 23.8048 35.4727 25.6535 32.9888 25.6535ZM38.2247 15.9721C37.7307 15.9721 37.3214 16.3814 37.3214 16.9035V17.3975C36.2065 16.4096 34.6682 15.8027 32.9888 15.8027C29.5452 15.8027 26.7227 18.3713 26.7227 21.5467C26.7227 24.7221 29.5452 27.3048 32.9888 27.3048C34.6682 27.3048 36.1783 26.6979 37.3214 25.71V26.3733C37.3214 26.8673 37.7025 27.3048 38.2247 27.3048C38.7468 27.3048 39.1279 26.8955 39.1279 26.3733V16.9177C39.1138 16.3531 38.6904 15.9721 38.2247 15.9721Z" fill="#78CCD6"/>
<path d="M22.6147 10.9752L17.4635 7.53169L22.5018 4.86435C22.8828 4.62443 23.0239 4.13048 22.784 3.74943C22.6288 3.4954 22.3747 3.34016 22.0925 3.34016C21.9372 3.34016 21.8102 3.3825 21.6832 3.45306L15.7135 6.65669V3.98935C15.7135 3.53774 15.3465 3.14258 14.9231 3.14258C14.4997 3.14258 14.1328 3.50951 14.1328 3.98935V11.695C14.1328 12.1466 14.4997 12.5277 14.9231 12.5277C15.3465 12.5277 15.7135 12.1607 15.7135 11.695V9.39459C15.7135 9.09822 15.9675 8.83008 16.2497 8.83008C16.3203 8.83008 16.405 8.8583 16.4614 8.90064L21.7679 12.4289C21.8949 12.4994 22.0219 12.5418 22.1772 12.5418C22.4594 12.5418 22.7417 12.3724 22.8687 12.1325C22.9816 11.9349 23.0239 11.7232 22.9393 11.5115C22.9251 11.2716 22.784 11.1305 22.6147 10.9894" fill="#1A4788"/>
<path d="M9.91293 9.64926C9.91293 10.3549 9.34841 10.9194 8.68511 10.9194H3.66091C2.96938 10.9194 2.43309 10.3549 2.43309 9.64926V6.0928C2.43309 5.38716 2.99761 4.82264 3.66091 4.82264H8.68511C9.37664 4.82264 9.91293 5.38716 9.91293 6.0928V9.64926ZM8.88269 3.18555H3.44922C2.0097 3.18555 0.824219 4.38514 0.824219 5.89522V9.83272C0.824219 11.3146 2.0097 12.5424 3.44922 12.5424H8.88269C10.3222 12.5424 11.5077 11.3287 11.5077 9.83272V5.89522C11.5077 4.38514 10.3504 3.18555 8.88269 3.18555Z" fill="#1A4788"/>
<path d="M45.8448 6.17704C45.8448 5.51373 46.3669 4.97744 47.0302 4.97744H53.1694V7.6589L54.7923 7.96938V1.39277C54.7782 0.941154 54.4113 0.574219 53.9879 0.574219C53.5645 0.574219 53.1976 0.941154 53.1976 1.42099V3.34035H46.8468C45.4355 3.34035 44.2923 4.51172 44.25 5.9089L45.8589 6.21938V6.17704H45.8448Z" fill="#1A4788"/>
<path d="M53.1678 7.6582V9.69046C53.1678 10.3397 52.6316 10.9042 51.9824 10.9042H47.0287C46.3795 10.9042 45.8432 10.3679 45.8432 9.69046V6.21869L44.2344 5.9082C44.2344 5.9082 44.2344 5.96465 44.2344 5.99288V9.87393C44.2344 11.3417 45.3916 12.5413 46.8453 12.5413H52.2082C53.6477 12.5413 54.7908 11.3417 54.7908 9.87393V7.9828L53.182 7.67232L53.1678 7.6582Z" fill="#1A4788"/>
<path d="M33.565 3.32617H31.1094L35.4561 4.17295C34.9763 3.65077 34.313 3.32617 33.565 3.32617Z" fill="#1A4788"/>
<path d="M34.5411 9.69109C34.5411 10.3544 34.0189 10.8907 33.3556 10.8907H28.3596C27.7104 10.8907 27.2588 10.4108 27.2588 9.77577V9.52174C27.2588 8.85843 27.7104 8.40682 28.3596 8.40682H34.5411V9.7052V9.69109ZM31.1116 3.32617H27.5411C27.2588 3.32617 27.0189 3.48141 26.8778 3.72133C26.8072 3.84835 26.7508 4.00359 26.7508 4.15883C26.7508 4.61045 27.1177 4.97738 27.5552 4.97738H33.3697C34.0189 4.97738 34.5552 5.51367 34.5552 6.17698V6.74149H28.2467C27.9645 6.74149 27.6681 6.81206 27.3858 6.89674C26.3133 7.27778 25.6641 8.23746 25.6641 9.33827V9.95924C25.6641 11.3988 26.8072 12.5419 28.275 12.5419H33.6096C35.0491 12.5419 36.2205 11.3282 36.2205 9.87456V5.99351C36.2064 5.30198 35.9241 4.6669 35.4866 4.20117L31.1399 3.3544L31.1116 3.32617Z" fill="#1A4788"/>
<path d="M38.674 2.25365C39.1256 2.25365 39.4926 1.87261 39.4926 1.42099C39.4926 0.96938 39.1256 0.574219 38.674 0.574219C38.2224 0.574219 37.8555 0.96938 37.8555 1.42099C37.8555 1.87261 38.2224 2.25365 38.674 2.25365Z" fill="#1A4788"/>
<path d="M41.342 2.25365C41.7936 2.25365 42.1605 1.87261 42.1605 1.42099C42.1323 0.941154 41.7936 0.574219 41.342 0.574219C40.8904 0.574219 40.5234 0.96938 40.5234 1.42099C40.5234 1.87261 40.8904 2.25365 41.342 2.25365Z" fill="#1A4788"/>
<path d="M40.8168 3.97524C40.7886 3.52363 40.4216 3.14258 39.9982 3.14258C39.5466 3.14258 39.1797 3.52363 39.1797 3.97524V4.90669L40.8168 5.23129V3.97524Z" fill="#1A4788"/>
<path d="M39.1797 4.92036V11.7369C39.1797 12.1885 39.5466 12.5837 39.9982 12.5837C40.4498 12.5837 40.8168 12.2026 40.8168 11.7369V5.23085L39.1797 4.90625V4.92036Z" fill="#1A4788"/>
<path d="M58.8264 2.25365C59.278 2.25365 59.6449 1.87261 59.6449 1.42099C59.6449 0.96938 59.2921 0.574219 58.8264 0.574219C58.3606 0.574219 58.0078 0.96938 58.0078 1.42099C58.0078 1.87261 58.3465 2.25365 58.8264 2.25365Z" fill="#1A4788"/>
<path d="M59.6449 3.97524C59.6167 3.52363 59.2498 3.14258 58.8264 3.14258C58.3748 3.14258 58.0078 3.52363 58.0078 3.97524V8.60427L59.6449 8.92887V3.97524Z" fill="#1A4788"/>
<path d="M58.0078 8.60547V11.7385C58.0078 12.1901 58.3748 12.5853 58.8264 12.5853C59.278 12.5853 59.6449 12.2043 59.6449 11.7385V8.93007L58.0078 8.60547Z" fill="#1A4788"/>
</g>
</g>
<defs>
<clipPath id="clip0_1503_4013">
<rect width="58.9355" height="26.8569" fill="white" transform="translate(0.710938 0.572266)"/>
</clipPath>
</defs>
</svg>
