<svg width="79" height="28" viewBox="0 0 79 28" fill="none" xmlns="http://www.w3.org/2000/svg">
<g clip-path="url(#clip0_1503_4041)">
<mask id="mask0_1503_4041" style="mask-type:luminance" maskUnits="userSpaceOnUse" x="0" y="0" width="79" height="28">
<path d="M78.9941 0.884766H0.644531V27.1097H78.9941V0.884766Z" fill="white"/>
</mask>
<g mask="url(#mask0_1503_4041)">
<path d="M21.9938 10.5912C21.9938 10.5912 22.0281 10.4885 22.0452 10.42C22.2849 9.70106 22.9867 7.81807 23.3462 6.85946L23.8426 8.93075L24.048 10.0092C24.048 10.0092 24.048 10.0434 24.048 10.0777C24.0823 10.1804 24.0994 10.3173 24.0994 10.42C23.6029 10.557 22.4732 10.848 21.9596 10.6083M28.9438 12.5769L28.0023 5.3873C27.9167 4.39445 27.1635 2.47722 24.8183 2.23757C21.9425 1.94656 21.0523 3.82955 21.0181 3.89802L20.3334 5.35306L18.1252 10.3858C16.8242 10.2488 16.1052 11.0705 15.8827 11.6183C15.4547 12.7823 15.9169 13.6553 16.516 14.1689L16.2422 14.905L15.5403 16.3942L14.2565 19.0647C13.4861 20.7251 14.3763 21.9063 15.1637 22.2829C15.2493 22.3171 15.3349 22.3513 15.4376 22.3685C16.9611 22.5054 17.8513 21.5982 18.1423 21.0333C18.1423 21.0161 18.1594 20.999 18.1765 20.9819L18.2792 20.708L18.8099 19.698C18.8099 19.698 18.827 19.6638 18.827 19.6467L19.9397 17.0447L21.2064 14.323C21.9596 13.604 22.9353 13.7067 22.9867 13.7238C23.038 13.7238 23.0894 13.7238 23.1408 13.7238C23.9624 13.6553 24.5273 14.186 24.7327 14.4257L25.8283 20.845C25.8283 20.845 25.8283 20.9134 25.8454 20.9477C26.0337 21.5468 26.4103 22.009 26.941 22.2829C27.3347 22.4883 27.7626 22.5568 28.1735 22.5568C28.8582 22.5568 29.4231 22.3685 29.5087 22.3342C29.5943 22.3 29.6628 22.2658 29.7141 22.2144L29.9538 22.0261C30.1592 21.8549 30.279 21.5981 30.2448 21.3243L29.9195 19.2701L28.978 12.6283L28.9438 12.5769Z" fill="#763880"/>
<path d="M13.417 7.13228C13.417 7.13228 13.3827 7.13228 13.3656 7.13228L12.0304 7.56023L9.97623 8.15936L8.04188 8.65579C8.04188 8.65579 8.00765 8.65579 7.99053 8.65579C7.90494 8.67291 7.80223 8.67291 7.76799 8.65579C7.76799 8.65579 7.73376 8.62155 7.71664 8.53596C7.56258 7.98818 7.80223 7.64582 7.81935 7.6287C7.85358 7.59447 7.8707 7.57735 7.88782 7.52599C7.90494 7.50888 7.99053 7.4404 8.16171 7.37193C8.53831 7.23499 9.49692 7.01245 9.83928 6.94398C9.8564 6.94398 9.87352 6.94398 9.89064 6.94398L13.1602 5.98536C13.28 5.95113 13.5197 5.93401 13.6053 5.98536C13.6737 6.0196 13.708 6.17366 13.708 6.22502C13.708 6.22502 13.8278 6.97822 13.417 7.09804M17.8334 5.24929C17.0974 2.16803 14.2386 1.91125 12.8521 2.20226L10.7979 2.57886C10.7979 2.57886 10.7637 2.57886 10.7465 2.57886L7.30581 3.43477C7.30581 3.43477 7.27157 3.43477 7.25445 3.43477L5.11469 4.13661L2.2902 4.90692C1.43429 5.11234 1.09193 5.48894 0.972105 5.77995C0.783806 6.05384 0.492798 6.68721 0.74957 7.57735C0.903633 8.12513 1.24599 8.3819 1.50277 8.50173C2.06766 8.7585 2.63256 8.5702 2.82086 8.50173L3.55694 8.24496C3.55694 8.24496 3.62541 8.22784 3.67677 8.21072L3.53982 9.10086L3.12899 9.2378C3.12899 9.2378 3.07763 9.25492 3.0434 9.27204C2.30732 9.63152 2.03343 10.1622 1.93072 10.5388C1.65683 11.5145 2.23884 12.456 2.30732 12.5587C2.44426 12.7813 2.68392 12.9182 2.95781 12.9182H3.0434L2.42714 16.9923L2.17037 19.5087C1.99919 20.6042 2.2902 21.0664 2.58121 21.289C2.95781 21.7169 3.43711 21.9908 3.93354 22.0593C4.01913 22.0593 4.10472 22.0764 4.20743 22.0764C4.66962 22.0764 5.1318 21.9052 5.54264 21.5971C6.46702 20.8952 6.62108 19.6627 6.6382 19.56L7.76799 12.3362C8.41848 12.1308 9.82217 11.8226 11.0204 11.6172C11.0376 11.6172 11.0547 11.6172 11.0718 11.6172L14.7693 10.6757C14.7693 10.6757 14.8207 10.6757 14.8549 10.6415C17.6451 9.58017 18.0389 6.67009 17.8677 5.28352C17.8677 5.24929 17.8677 5.23217 17.8677 5.19793" fill="#763880"/>
<path d="M49.3306 1.91223C49.3306 1.91223 49.2621 1.89512 49.245 1.878C48.5602 1.6897 47.9953 1.72393 47.5332 1.99782C47.0881 2.2546 46.9169 2.64831 46.8655 2.83661L42.1238 14.8193L40.5147 10.3172L38.7687 4.82231C38.7344 4.70249 38.6489 4.58266 38.5633 4.49707C37.7929 3.76099 37.1082 3.72675 36.6632 3.81234C35.7045 4.01776 35.2766 4.97637 35.2424 5.07908C35.2424 5.11332 35.2252 5.13044 35.2081 5.16467L34.7802 7.03055L32.3323 16.086L31.562 19.3385C31.5277 19.4754 31.4764 19.6637 31.4593 19.6808C31.1511 20.0403 31.0142 20.8449 31.2881 21.4953C31.4421 21.8719 31.8701 22.4882 32.9656 22.5567C33.017 22.5567 33.0684 22.5567 33.1197 22.5567C33.7873 22.5567 34.2324 22.2828 34.4892 22.0431C35.0541 21.5296 35.191 20.8106 35.2081 20.5196L35.6532 19.1844C35.6532 19.1844 35.6532 19.1502 35.6532 19.133L37.1596 13.2615V13.1931L37.7758 14.785L38.8714 17.5239L39.9669 20.6566C39.9669 20.6566 40.0012 20.7421 40.0354 20.7935C40.4976 21.5638 41.2508 21.8206 41.713 21.8548C42.8428 22.1458 43.5789 21.2899 43.8185 20.7935L44.2465 19.9376C44.2465 19.9376 44.2636 19.9034 44.2636 19.8862L44.8285 18.5168L46.4205 14.8706L47.5503 12.0633L50.2892 4.56554C50.8369 3.12762 50.0153 2.18612 49.3306 1.89512" fill="#763880"/>
<path d="M53.7462 22.6435C53.7462 22.6435 53.6948 22.6435 53.6606 22.6435C52.5137 22.866 51.7947 23.3453 51.4866 24.0643C51.0758 25.04 51.6749 25.9473 51.7434 26.05C51.7776 26.0842 51.7947 26.1185 51.8289 26.1527L51.9145 26.2383C52.0172 26.3924 52.274 26.6149 52.9245 26.9573C52.993 26.9915 53.0614 27.0257 53.147 27.0257C53.438 27.0771 53.7119 27.0942 53.9687 27.0942C55.7148 27.0942 56.4851 25.9473 56.6563 25.2626C56.6563 25.2112 56.6734 25.1427 56.6734 25.0914C56.6734 24.1841 56.3139 23.6192 55.9886 23.3282C55.1499 22.5408 53.9002 22.6093 53.7633 22.6264" fill="#763880"/>
<path d="M70.3177 15.299C69.8042 16.2748 69.1879 16.9766 68.2635 17.6271C68.0067 17.7983 67.613 17.9866 67.1166 17.5244C66.0895 16.5487 65.5589 13.5701 67.6473 10.2663C68.1095 9.53024 68.6915 9.11941 69.2564 9.11941C69.787 9.11941 70.3177 9.46177 70.7114 10.078C70.7799 10.1978 70.9339 10.5573 70.9682 10.66C71.2763 12.3034 71.0538 13.8611 70.3006 15.299M71.8754 3.41908C70.5402 2.81994 69.0681 2.85418 67.6302 3.50467C65.3534 4.54887 63.4191 7.08235 62.4605 10.3006C60.8514 15.6756 62.3749 21.1363 65.9183 22.7283C66.5517 23.0193 67.2193 23.1563 67.904 23.1563C68.6572 23.1563 69.4104 22.9851 70.1636 22.6427C72.4403 21.5985 74.3747 19.065 75.3333 15.8468C76.9253 10.4717 75.4018 5.01106 71.8754 3.41908Z" fill="#763880"/>
<path d="M60.8665 3.72665C58.8979 1.9806 56.7239 2.59686 56.296 2.75092C55.9023 2.83651 54.3445 3.2987 52.5129 5.40423C50.5614 7.62958 49.637 10.4369 49.192 11.7722V11.8235C48.1307 14.9732 49.2433 18.2428 49.2776 18.3798C49.3118 18.4996 50.3389 21.5124 53.0607 22.4025C53.6598 22.5908 54.2247 22.6764 54.7211 22.6764C56.3987 22.6764 57.5456 21.8376 57.8024 21.6493C59.6511 20.4168 60.0449 17.832 60.062 17.695L60.216 16.4112C60.2674 15.9832 60.1304 15.3498 59.7196 14.8534C59.3772 14.4426 58.8979 14.2029 58.3502 14.1687C57.1177 14.0831 56.3645 15.2471 56.1248 15.9661C56.1248 15.9661 56.1248 16.0003 56.1248 16.0175L55.577 18.0203C55.577 18.0203 55.577 18.0716 55.577 18.1059C55.5257 18.3969 54.9265 18.7221 54.5328 18.8248C54.4986 18.8248 54.4644 18.8419 54.4301 18.8591C54.4301 18.8591 54.1391 18.9446 53.8139 18.4311C53.2832 17.5923 53.403 16.531 53.403 16.5139C53.403 16.4796 53.403 16.4454 53.403 16.4283C53.403 14.3056 53.9166 12.7821 53.9166 12.7821C53.9166 12.7479 53.9337 12.7137 53.9508 12.6623C54.0706 11.9433 55.0292 9.51257 55.8167 8.2116C56.3816 7.2701 56.9294 7.15027 56.9122 7.15027C56.9465 7.15027 56.9807 7.15027 57.0149 7.13315C57.2032 7.0818 57.4771 7.06468 57.5798 7.09892C57.6312 7.28722 57.5798 7.81788 57.4429 8.26295C57.3231 8.72514 57.3402 9.66663 58.1961 10.3C59.0862 10.9334 59.9079 10.6766 60.2674 10.4198L60.7125 10.0946C61.4828 9.71799 61.9107 8.91344 62.1333 7.42416C62.4243 5.59252 61.0206 3.91495 60.9692 3.84648C60.9521 3.81224 60.9179 3.79512 60.8836 3.76089" fill="#763880"/>
<path d="M77.2659 2.51044C77.2659 2.51044 77.2146 2.56179 77.1632 2.56179C77.0948 2.57891 77.0434 2.59603 77.0092 2.59603H76.7695V2.21943H77.0263C77.129 2.21943 77.2146 2.21943 77.2488 2.27078C77.2831 2.30502 77.3002 2.35637 77.3002 2.40773C77.3002 2.44196 77.3002 2.49332 77.2659 2.51044ZM77.6768 3.0411C77.6768 3.0411 77.6083 2.95551 77.5912 2.93839C77.5569 2.92127 77.5056 2.88703 77.4371 2.86992C77.5227 2.86992 77.5912 2.83568 77.6425 2.80144C77.711 2.75009 77.7795 2.69874 77.8308 2.61314C77.8822 2.54467 77.8993 2.44196 77.8993 2.33926C77.8993 2.21943 77.8651 2.11672 77.8137 2.03113C77.7624 1.94554 77.6768 1.89418 77.5741 1.85995C77.4885 1.82571 77.3515 1.80859 77.1632 1.80859H76.1875V3.69159H76.7695V2.92127H76.8209C76.8209 2.92127 76.9236 2.92127 76.9578 2.95551C76.9921 2.98974 77.0263 3.02398 77.0605 3.10957L77.3686 3.69159H78.0191L77.7281 3.14381C77.7281 3.14381 77.6939 3.07533 77.6425 3.02398" fill="#763880"/>
<path d="M77.1135 4.27415C76.2747 4.27415 75.5899 3.58943 75.5899 2.75064C75.5899 1.91185 76.2747 1.22713 77.1135 1.22713C77.9522 1.22713 78.637 1.91185 78.637 2.75064C78.637 3.58943 77.9522 4.27415 77.1135 4.27415ZM77.1135 0.884766C76.0693 0.884766 75.2305 1.72355 75.2305 2.76776C75.2305 3.81196 76.0693 4.65075 77.1135 4.65075C78.1577 4.65075 78.9965 3.81196 78.9965 2.76776C78.9965 1.72355 78.1405 0.884766 77.1135 0.884766Z" fill="#763880"/>
<path d="M3.37037 25.3458C3.37037 25.3458 3.28478 25.3458 3.19919 25.3458H2.53158V24.8151H3.19919C3.31901 24.8151 3.38749 24.8151 3.43884 24.8665C3.50731 24.9178 3.54155 24.9863 3.54155 25.0719C3.54155 25.2088 3.4902 25.2944 3.37037 25.3458ZM3.37037 26.2873C3.37037 26.2873 3.28478 26.3044 3.19919 26.3044H2.53158V25.7737H3.19919C3.31901 25.7737 3.38749 25.7737 3.43884 25.8251C3.50731 25.8765 3.54155 25.9449 3.54155 26.0305C3.54155 26.1675 3.4902 26.2531 3.37037 26.2873ZM4.07221 25.0205C4.07221 24.935 4.05509 24.8494 4.02086 24.7467C3.9695 24.6268 3.88391 24.5412 3.7812 24.4728C3.69561 24.4214 3.54155 24.4043 3.33613 24.4043H2.03516V26.6981H3.3019C3.4046 26.6981 3.50731 26.6981 3.57579 26.6981C3.72985 26.681 3.86679 26.6125 3.95238 26.5098C4.03797 26.4071 4.07221 26.2702 4.07221 26.1161C4.07221 25.8593 3.9695 25.671 3.74697 25.5683C3.81544 25.5341 3.86679 25.4999 3.91815 25.4485C4.02086 25.3287 4.07221 25.1917 4.07221 25.0377" fill="#919496"/>
</g>
<path d="M5.45275 24.9716L5.77799 25.7762H5.1275L5.45275 24.9716ZM5.16174 24.4238L4.20312 26.7177H4.78514L5.00768 26.187H5.8807L6.10324 26.7177H6.66813L5.72664 24.4238H5.16174Z" fill="#919496"/>
<path d="M17.7801 24.4238H17.3008V26.7177H17.7801V24.4238Z" fill="#919496"/>
<mask id="mask1_1503_4041" style="mask-type:luminance" maskUnits="userSpaceOnUse" x="0" y="0" width="79" height="28">
<path d="M78.9941 0.884766H0.644531V27.1097H78.9941V0.884766Z" fill="white"/>
</mask>
<g mask="url(#mask1_1503_4041)">
<path d="M19.663 26.1679C19.5774 26.2706 19.4405 26.3049 19.2179 26.3049H18.7386V24.8327H19.2179C19.3377 24.8327 19.4233 24.8327 19.4918 24.8669C19.7143 24.9525 19.8342 25.1922 19.8342 25.5688C19.8342 25.8427 19.7828 26.031 19.663 26.1679ZM19.7828 24.4903C19.6459 24.439 19.4576 24.4219 19.2179 24.4219H18.2422V26.7157H19.2179C19.3377 26.7157 19.4405 26.7157 19.5432 26.7157C19.7143 26.7157 19.8684 26.6643 19.9882 26.5788C20.245 26.4076 20.382 26.0823 20.382 25.5688C20.382 25.3634 20.3477 25.158 20.2792 24.9868C20.1937 24.7471 20.0396 24.5931 19.7828 24.4903Z" fill="#919496"/>
</g>
<path d="M16.4097 24.4238L15.5195 25.5536L16.3583 26.7177H16.9917L16.0844 25.5536L17.043 24.4238H16.4097Z" fill="#919496"/>
<mask id="mask2_1503_4041" style="mask-type:luminance" maskUnits="userSpaceOnUse" x="0" y="0" width="79" height="28">
<path d="M78.9941 0.884766H0.644531V27.1097H78.9941V0.884766Z" fill="white"/>
</mask>
<g mask="url(#mask2_1503_4041)">
<path d="M8.2649 25.3477C8.2649 25.3477 8.17931 25.3477 8.09372 25.3477H7.42611V24.8171H8.11084C8.21355 24.8171 8.29914 24.8171 8.35049 24.8684C8.41896 24.9198 8.4532 24.9883 8.4532 25.0739C8.4532 25.2108 8.38473 25.2964 8.28202 25.3477M8.2649 26.2892C8.2649 26.2892 8.17931 26.3064 8.09372 26.3064H7.42611V25.7757H8.11084C8.21355 25.7757 8.29914 25.7757 8.35049 25.8271C8.41896 25.8784 8.4532 25.9469 8.4532 26.0325C8.4532 26.1694 8.38473 26.255 8.28202 26.2892M8.96674 25.0225C8.96674 24.9369 8.94962 24.8513 8.91539 24.7486C8.86403 24.6288 8.77844 24.5432 8.67573 24.4747C8.59014 24.4234 8.43608 24.4062 8.23066 24.4062H6.92969V26.7001H8.19643C8.29914 26.7001 8.40184 26.7001 8.47032 26.7001C8.62438 26.683 8.76132 26.6145 8.84692 26.5118C8.93251 26.4091 8.96674 26.2721 8.96674 26.1181C8.96674 25.8613 8.84692 25.673 8.6415 25.5703C8.70997 25.536 8.76132 25.5018 8.81268 25.4505C8.91539 25.3306 8.96674 25.1937 8.96674 25.0396" fill="#919496"/>
<path d="M22.353 25.3996C22.2503 25.3653 22.1134 25.3482 21.9251 25.3482H21.5656C21.4286 25.3482 21.3259 25.3482 21.2746 25.314C21.189 25.2797 21.1376 25.1941 21.1376 25.0914C21.1376 24.9545 21.189 24.886 21.2917 24.8518C21.343 24.8518 21.4457 24.8347 21.5998 24.8347H22.6269V24.4238H21.48C21.343 24.4238 21.2403 24.4238 21.1719 24.4238C20.9836 24.4409 20.8466 24.5094 20.7439 24.6292C20.6412 24.7491 20.5898 24.9031 20.5898 25.0914C20.5898 25.314 20.6754 25.4852 20.8124 25.605C20.9322 25.7077 21.1205 25.7419 21.3773 25.7419H21.8052C21.9251 25.7419 22.0106 25.7419 22.062 25.7933C22.1476 25.8446 22.1989 25.9302 22.1989 26.0329C22.1989 26.1356 22.1647 26.2041 22.0791 26.2555C22.0278 26.2897 21.9079 26.3068 21.7368 26.3068H20.6926V26.7177H21.8395C22.0106 26.7177 22.1476 26.7177 22.2332 26.7005C22.4215 26.6663 22.5413 26.5807 22.644 26.4266C22.7125 26.3068 22.7467 26.187 22.7467 26.05C22.7467 25.9302 22.7296 25.8104 22.6783 25.6906C22.6269 25.5536 22.5071 25.4509 22.3359 25.3996" fill="#919496"/>
</g>
<path d="M10.762 24.4238L10.1971 25.3311L9.66646 24.4238H9.10156L9.95747 25.7077V26.7177H10.4368V25.7248L11.344 24.4238H10.762Z" fill="#919496"/>
<path d="M15.5027 24.4238H15.0234V26.7177H15.5027V24.4238Z" fill="#919496"/>
<path d="M12.3203 25.3304V25.7755L13.8096 26.5629V26.0494L12.8852 25.5529L13.8096 25.0736V24.543L12.3203 25.3304Z" fill="#919496"/>
</g>
<defs>
<clipPath id="clip0_1503_4041">
<rect width="78.3496" height="26.2249" fill="white" transform="translate(0.644531 0.886719)"/>
</clipPath>
</defs>
</svg>
