<svg width="90" height="22" viewBox="0 0 90 22" fill="none" xmlns="http://www.w3.org/2000/svg">
<g clip-path="url(#clip0_1503_4073)">
<path d="M58.4373 11.8638H59.8239L59.7212 14.2261L58.4373 14.3288V11.8638ZM55.8696 9.92944L55.7669 10.1349V21.3643H58.4373V16.7596H59.7212V21.3643H62.3916L62.2889 16.1262L61.6555 15.2703V15.1676L62.2889 14.3117V10.6826L61.1077 9.39878L55.8696 9.92944ZM72.0291 7.68697L71.7038 7.78967L68.8109 8.32034L66.7738 12.1719V8.52575H66.6711L63.5727 8.95371V21.3643H66.791V16.4343L69.256 21.2616L72.5769 21.3643L72.4742 21.0391L69.256 14.6198L69.0505 14.0891L69.256 13.6612L72.1489 7.66985H72.0462L72.0291 7.68697ZM72.6625 7.58426V21.3815H79.407V17.9578L79.0818 17.8551H76.3086V15.1847L79.2016 14.8595V11.3331L76.5312 11.7611H76.3086V9.84385L79.2016 8.98794V7.27613L79.0989 6.09498L72.6796 7.60138L72.6625 7.58426ZM83.9091 7.89238L85.9461 7.36172V10.7853L85.7407 10.8881L83.9262 11.0935V7.87527L83.9091 7.89238ZM80.4854 5.64991V21.3815H83.9091V14.7396L85.9461 14.6369V21.3815H89.5752V14.1063L88.5138 12.4972L89.4725 10.7853V4.99942L87.966 3.28761L80.4683 5.64991H80.4854ZM-0.00390625 21.3815H4.17291V10.9908L10.4895 21.2616L10.8147 21.3643H14.0158L13.9131 7.01936L10.0615 5.95804V13.3359L9.85612 12.908L4.70357 4.36605L-0.00390625 2.329V21.3815ZM48.9025 0.617188L48.6971 1.04514L44.8455 7.36172V7.46443H44.7428L40.6687 0.617188H35.636L42.4832 10.7853V21.3815H46.9853L47.088 10.7853L53.9353 0.719896V0.617188H48.9025Z" fill="#C7262E"/>
<path d="M50.7354 12.7193H52.3445V19.1386H50.7354V12.7193ZM50.1876 10.2543L49.6569 10.4597L48.2704 11.7436V19.5494L49.9822 21.2612L53.0806 21.3639L53.1833 21.2612L54.6726 19.5494L54.7753 18.916V11.5381L54.5698 11.3327L53.286 10.1516L52.9607 10.0489L50.1705 10.2543H50.1876ZM27.2836 21.3811L30.7072 21.2783L33.0695 14.9618L34.7813 21.2783L35.1066 21.3811H37.9995L38.1022 21.1585L38.4275 20.6279L41.2177 10.5624L37.9995 10.357L37.8968 10.4597L36.3904 15.5951L34.884 10.0318L34.5588 9.92904L31.6658 9.72363L29.5261 15.6123L28.3449 9.39838H28.2422L27.9169 9.29567L24.596 8.76501L27.2665 21.3982L27.2836 21.3811ZM15.5234 21.3811H24.5104V17.9574H19.803V15.9204H23.6545V13.3527L19.803 13.0274V11.3156L23.7572 11.7436V8.64519L15.5234 7.36133V21.3811Z" fill="#C7262E"/>
</g>
<defs>
<clipPath id="clip0_1503_4073">
<rect width="89.5791" height="20.7643" fill="white" transform="translate(-0.00390625 0.617188)"/>
</clipPath>
</defs>
</svg>
