<svg width="68" height="29" viewBox="0 0 68 29" fill="none" xmlns="http://www.w3.org/2000/svg">
<path d="M64.3161 27.9124L54.3372 0.722656H54.1655L52.1054 6.28078L48.3928 16.4313C47.0838 15.294 45.2597 14.6287 42.942 14.3068H42.1909L42.8561 14.221C46.6546 13.5772 49.2083 11.1951 49.2083 8.31948C49.2083 4.39231 45.4957 1.68835 40.1307 1.68835H29.0789V1.86003H32.2979V22.1611L24.5508 0.722656H24.3791L22.319 6.28078L14.4003 27.8051H5.34416L20.5163 1.79565L20.6022 1.62397H2.03933V9.73583H2.21101C2.21101 5.80866 4.50722 1.88149 9.63615 1.88149H15.8166L0.558594 28.1485H21.1816V20.38H21.0099C21.0099 23.8136 19.0356 27.0969 14.7436 27.8266H14.5719L17.7909 18.9851H26.8685L30.1733 27.9124H26.9543V28.0841H39.6586V27.9124H36.4396V14.3926H40.1522C43.9506 14.3926 46.161 16.1094 46.161 19.0709V22.4187L44.1867 27.9124H41.5471V28.0841H46.9979V27.9124H44.3583L46.161 22.9122V22.9981L46.2468 23.4917L46.3327 23.8136C46.6546 25.702 47.3198 27.0111 48.4787 27.8266L48.6503 27.9124C49.4658 28.4918 50.5388 28.8137 51.6976 28.8137C53.2642 28.8137 54.3372 28.406 55.2385 27.5047L55.1527 27.4188C54.3372 28.1485 53.672 28.4918 52.835 28.4918C51.3543 28.4918 50.6032 26.775 50.6032 25.0582V21.7105C50.6032 20.895 50.4315 20.0795 50.1954 19.2641V19.1782H56.8695L60.1743 28.1055H56.9553V28.2558H67.9214V28.1055L64.2946 27.9339L64.3161 27.9124ZM17.8768 18.8134L22.3404 6.60268L26.7826 18.8134H17.8768ZM36.4396 14.2424V1.79565H39.3367C43.1351 1.79565 45.1953 4.09187 45.1953 8.27656C45.1953 12.7831 44.0364 14.178 40.238 14.178H36.4396V14.2639V14.2424ZM50.0452 18.8134C49.7233 18.0838 49.2941 17.4185 48.7147 16.8605L48.543 16.6889L52.2556 6.62414L56.6334 18.749L50.0452 18.8349V18.8134Z" fill="#282421"/>
</svg>
