<svg width="129" height="19" viewBox="0 0 129 19" fill="none" xmlns="http://www.w3.org/2000/svg">
<path d="M128.687 16.0449C128.687 16.0449 128.668 16.0074 128.65 15.9887C128.369 15.9325 127.769 16.1573 127.432 16.2135C126.327 16.4008 125.522 15.5579 125.222 14.8836C125.016 14.3966 124.885 13.8722 124.772 13.2728C124.735 12.9731 124.716 12.6734 124.679 12.3737C124.566 11.7182 124.716 11.0439 124.098 10.9128C123.162 10.7255 123.368 12.2801 123.255 12.9918C123.031 14.3404 122.768 15.0896 121.645 15.5392C121.045 15.7639 120.408 15.8014 119.94 15.4268C119.135 14.79 119.172 13.535 119.172 12.1115C119.172 11.456 119.172 10.8004 119.172 10.1261C119.172 9.5642 119.06 8.45911 119.285 8.10324C119.584 7.65371 120.577 7.91593 121.101 7.67244C121.251 7.61625 121.457 7.4664 121.401 7.20418C121.232 6.45497 119.884 6.99815 119.378 6.60481C118.76 6.11782 119.565 4.20733 118.723 3.85145C118.442 3.73907 118.179 3.90765 118.067 4.05749C117.805 4.41336 117.88 5.16258 117.88 5.78068C117.88 6.02417 117.88 6.26766 117.805 6.43624C117.749 6.56735 117.618 6.67973 117.486 6.73592C117.262 6.82957 116.999 6.77338 116.718 6.81084C116.269 6.81084 115.838 6.82957 115.389 6.8483C115.108 6.8483 114.771 6.88577 114.527 6.8483C113.403 6.56735 114.714 3.83272 113.328 3.83272C113.066 3.94511 112.916 4.0013 112.823 4.26352C112.598 4.88162 112.916 5.94925 112.673 6.54862C112.41 7.16672 111.305 6.73592 110.893 7.33529C110.837 7.41021 110.762 7.56006 110.8 7.7099C110.968 8.59022 112.261 8.00958 112.598 8.57149C112.823 8.92737 112.71 9.995 112.71 10.5569C112.71 12.2988 112.673 13.535 112.017 14.6214C111.867 14.8462 111.717 15.1084 111.511 15.2582C111.343 15.3893 111.156 15.5392 110.931 15.6141C110.669 15.7265 110.256 15.7639 109.976 15.6516C108.908 15.2769 108.983 13.8722 108.777 12.636C108.664 11.9617 108.927 10.9877 108.252 10.8753C107.484 10.7442 107.428 12.1677 107.278 12.7671C106.979 14.0969 106.623 15.4081 105.274 15.689C104.45 15.8576 104.001 15.2395 103.851 14.6401C103.776 14.3404 103.813 14.0407 103.757 13.7036C103.682 13.2728 103.72 12.6922 103.795 12.2614C103.888 11.6433 103.663 10.7255 103.045 10.8379C102.521 10.9315 102.502 11.7182 102.408 12.2614C102.071 13.9471 102.24 15.9138 103.251 16.7192C103.457 16.8878 103.682 17.0376 103.944 17.1312C105.087 17.5433 105.874 16.869 106.51 16.382C106.829 16.1385 107.26 15.7639 107.878 15.9138C108.739 16.1385 109.002 16.9814 109.938 17.1687C110.425 17.2624 110.818 17.0563 111.099 16.869C111.605 16.5506 111.998 16.176 112.729 16.0636C113.104 16.0074 113.441 16.176 113.665 16.3071C114.209 16.6068 114.639 17.0001 115.351 17.1312C115.744 17.2062 116.082 17.0376 116.306 16.9065C116.831 16.6068 117.224 16.1573 117.917 16.0449C118.273 15.9887 118.573 16.1573 118.779 16.2697C119.266 16.5693 119.603 16.9814 120.24 17.1312C121.364 17.3935 122.469 16.382 123.218 16.0636C123.536 15.9325 123.986 15.9138 124.267 16.1011C124.548 16.2697 124.791 16.5131 125.053 16.7005C125.54 17.0563 126.458 17.2998 127.301 17.0938C127.563 17.0189 127.788 16.9252 127.994 16.8128C128.181 16.7005 128.8 16.3258 128.725 16.0074M117.805 9.41436C117.805 9.77024 117.805 10.1448 117.805 10.5007C117.805 10.7629 117.805 11.0439 117.786 11.3061C117.674 12.0366 117.786 12.8045 117.618 13.4414C117.468 14.0595 117.168 14.509 116.831 14.9398C116.569 15.2769 116.082 15.7265 115.426 15.5579C113.684 15.1271 113.965 12.8233 113.965 10.6693C113.965 10.0699 113.871 8.72134 114.115 8.38419C114.433 7.95339 115.857 8.08451 116.531 7.97212C116.681 7.97212 116.85 7.97212 116.999 7.93466C117.917 7.93466 117.805 8.5153 117.805 9.35817M123.986 6.24893C123.63 6.39878 123.386 6.45497 123.274 6.86704C123.124 7.39148 123.611 7.97212 124.117 7.8972C125.185 7.72863 125.147 6.2302 123.986 6.24893ZM100.198 11.4185C100.329 10.8941 100.498 9.88262 100.386 9.18959C100.386 9.02102 100.386 8.85245 100.367 8.70261C100.292 8.23435 100.273 7.78482 100.161 7.35402C99.9548 6.52989 99.6926 5.78068 99.318 5.12512C97.7259 2.42795 94.8789 0.835873 90.5335 0.892064C90.3274 0.892064 90.1027 0.910795 89.8779 0.929525C89.4846 0.985716 89.0725 1.04191 88.6792 1.07937C87.2557 1.36032 85.8322 1.58509 84.596 2.05334C84.1839 2.22192 83.7531 2.3343 83.3972 2.54033C83.2848 2.61525 83.0413 2.72764 83.0788 2.93367C83.135 3.28955 83.6969 3.12097 83.9591 3.06478C84.7083 2.87748 85.6261 2.46541 85.7947 3.47685C85.8509 5.2375 85.9258 6.97942 85.982 8.74007C85.982 9.26452 86.0007 9.78897 86.0195 10.3134C86.0195 11.0064 86.0382 11.6807 86.0569 12.3737V12.9918C86.1693 13.7411 86.0195 14.9398 86.6001 15.1833C86.9372 15.3144 87.1245 15.0147 87.2182 14.8087C87.4242 14.3404 87.4242 13.6849 87.5179 13.0855C87.5179 12.8982 87.5179 12.7296 87.5179 12.5423C87.5179 11.943 87.5366 11.3623 87.5554 10.7629C87.5741 9.52674 87.5928 8.30927 87.6115 7.07307C87.6115 6.45497 87.6115 5.83687 87.6303 5.21877V4.73178C87.6303 4.35717 87.6303 3.98257 87.6303 3.60796C87.6303 3.36447 87.6115 3.10224 87.649 2.87748C87.7052 2.67144 87.7988 2.50287 87.9674 2.40922C88.342 2.18446 90.0277 2.10953 90.6646 2.20319C91.1703 2.29684 91.676 2.31557 92.1443 2.42795C93.83 2.85875 95.2722 3.64542 96.2088 4.82543C96.7145 5.48099 97.164 6.21147 97.445 7.0918C97.5948 7.59752 97.6697 8.12197 97.7634 8.70261C97.9694 9.93881 97.6884 11.5309 97.3513 12.4112C96.2837 15.1833 94.2046 16.4944 91.0579 17.1687C90.5709 17.2811 90.0277 17.2624 89.5033 17.356C89.2785 17.356 89.0538 17.356 88.8103 17.3747H88.0798C87.7801 17.3747 87.4804 17.356 87.1807 17.3373C86.8249 17.3186 86.469 17.2811 86.1131 17.2436C85.6261 17.1687 85.1579 17.1125 84.6709 17.0376C84.4274 16.9814 84.0715 16.8878 83.7906 16.9627C83.7906 16.9814 83.7906 17.0189 83.7718 17.0376C83.8655 17.2624 84.2401 17.3373 84.4836 17.4309C85.1391 17.6932 85.8696 17.8243 86.6376 17.9928C90.4398 18.8357 94.5792 17.6932 96.8081 16.1198C98.4002 14.996 99.5802 13.5538 100.123 11.3998M49.7763 5.89306C49.4579 6.0429 49.2331 6.11782 49.1207 6.4737C48.9709 7.01688 49.4579 7.57879 50.0011 7.48514C50.9563 7.31656 50.9188 5.87433 49.7763 5.89306ZM48.3903 10.8753C47.7534 11.381 47.0604 11.7556 46.3299 12.1864C46.1239 12.3176 45.7118 12.5985 45.3559 12.5423C44.9439 12.4674 44.7191 12.1677 44.4569 11.943C43.9324 11.5309 43.4642 11.0814 42.9959 10.6318C42.7337 10.3696 42.4715 9.90135 41.9658 9.90135C41.8721 9.93881 41.7785 9.93881 41.6848 9.995C41.3664 10.201 41.2165 10.6506 41.0105 10.9877C40.6921 11.4934 39.6807 12.5985 39.0251 12.7109C38.5943 12.7858 38.2572 12.355 38.0699 12.149C37.433 11.5122 36.8898 10.8941 36.0282 10.4633C35.7286 10.2947 35.0917 10.0325 34.6797 10.276C34.3425 10.482 34.3425 11.456 34.1927 11.868C33.7806 13.0293 33.1438 14.303 32.2635 14.996C31.945 15.2395 31.4768 15.6703 30.84 15.5017C29.7349 15.2395 29.4914 13.816 29.2291 12.6922C29.1168 12.1864 29.0606 11.1001 28.5923 10.9877C28.2177 10.8941 28.1428 11.2874 28.0866 11.5683C28.0304 11.8868 28.1053 12.2614 28.0491 12.6172C28.0491 12.8233 28.0491 13.0106 28.0491 13.1979C27.9929 13.5912 27.9742 13.9471 27.8431 14.2468C27.4498 15.1646 26.0824 16.0824 24.6215 15.8576C24.2843 15.8014 24.0034 15.8014 23.7412 15.7077C22.9358 15.3893 22.4675 14.7712 22.2989 13.7973C22.2427 13.4788 22.3364 13.1604 22.4113 12.9544C22.7859 11.9055 23.7037 11.662 24.9399 11.4747C25.352 11.3998 26.6069 11.5871 26.7567 11.3061C26.8691 11.0439 26.3821 10.8379 26.2323 10.7629C25.5955 10.4445 24.4904 10.2385 23.5726 10.4445C22.3177 10.7442 21.3062 11.456 20.838 12.5236C20.2386 13.8909 21.0815 15.5392 21.8869 16.176C22.8796 16.9627 24.5091 17.3935 26.1761 16.9065C27.0002 16.663 27.6371 16.1947 28.5174 16.0449C28.7422 16.0074 28.9856 16.0636 29.1542 16.1198C29.9596 16.3633 30.7276 17.3373 31.8514 17.0001C32.2073 16.8878 32.5257 16.7005 32.8066 16.5131C33.5371 15.9887 34.1552 15.2395 34.5298 14.3779C34.7733 13.8347 34.9606 13.1417 35.279 12.6547C35.4663 12.3737 35.8597 12.1864 36.253 12.4112C36.4216 12.5049 36.5714 12.6172 36.7025 12.7484C36.8336 12.8607 36.9835 12.9918 37.0397 13.1604C37.1333 13.3852 37.0771 13.6287 36.9648 13.7785C36.8336 13.9471 36.6089 14.0407 36.4403 14.1719C36.1219 14.3966 35.8035 14.6963 35.5787 14.996C35.0355 15.7265 35.1292 16.4195 35.8784 16.8503C37.0397 17.5433 39.8118 17.6557 40.1676 16.1947C40.2988 15.6516 40.0365 15.1084 39.868 14.7525C39.793 14.5652 39.6057 14.3217 39.6994 14.022C39.793 13.7223 40.074 13.5538 40.2988 13.3852C40.7857 12.9918 41.254 12.5798 41.741 12.1864C41.9283 12.0741 42.228 11.9804 42.4902 12.0928C42.715 12.1864 42.8648 12.3363 43.0334 12.4674C43.2207 12.6172 43.7077 12.9731 43.6328 13.3665C43.5766 13.6287 43.3518 13.7598 43.1645 13.8909C42.6588 14.2655 41.2727 15.3706 42.0407 16.2509C42.1718 16.4195 42.3778 16.5506 42.5651 16.663C42.921 16.869 43.3331 17.0001 43.7826 17.0938C45.1312 17.3935 46.6296 17.0376 46.8918 15.9887C47.1541 14.9585 45.8429 14.1719 46.8356 13.5163C47.0042 13.4226 47.1915 13.329 47.3601 13.2353C47.5849 13.1417 47.8658 12.9357 48.2404 13.0106C48.8772 13.123 48.9334 13.8534 49.1582 14.3966C49.4953 15.2582 50.076 16.7379 50.9563 17.0001C51.4058 17.1313 51.7992 16.869 52.0427 16.6817C52.7357 16.1573 53.2039 15.3331 53.7284 14.6401C53.897 14.3966 54.2716 13.816 54.7398 13.9096C55.5078 14.0407 55.564 15.5766 55.7887 16.3071C55.8824 16.6068 55.9948 16.9627 56.2944 17.0376C56.7252 17.15 57.0249 16.5131 57.1373 16.2509C57.4745 15.483 57.924 13.7598 58.7107 13.535C59.0665 13.4414 59.3288 13.6661 59.4599 13.8722C59.8719 14.4903 59.7596 15.7077 60.0218 16.457C60.1154 16.7379 60.3402 17.1687 60.7897 17.0751C61.2954 16.9627 61.4266 16.2509 61.5764 15.7827C61.8386 14.9773 62.1008 13.9846 62.925 13.7411C63.5243 13.5538 63.7491 14.1157 63.899 14.4903C64.2548 15.3893 64.4047 16.663 65.285 17.0189C65.7158 17.2062 66.2777 17.0189 66.6149 16.869C67.3828 16.4757 67.8136 15.7639 68.8063 15.5954C69.0873 15.5579 69.3495 15.6703 69.5181 15.7639C70.005 16.0074 70.3797 16.3633 70.8479 16.6443C72.159 17.4122 73.9571 17.0563 75.0248 16.3446C75.8302 15.8014 76.5232 15.0147 76.8229 14.0033C77.3286 12.355 76.2048 11.0626 75.1184 10.6318C74.2943 10.3134 72.9082 10.2947 72.0841 10.6318C71.9155 10.7067 71.3536 10.9502 71.5035 11.1937C71.5597 11.3249 71.8219 11.2874 71.9717 11.2499C72.3838 11.1563 72.927 11.0252 73.4514 11.1188C74.6502 11.3436 75.7178 12.1864 75.2495 13.7036C75.1746 13.9284 75.0622 14.1531 74.9498 14.3404C74.4629 15.0709 72.927 15.9512 71.5784 15.5392C70.7543 15.2957 70.1362 14.7712 69.8739 13.9658C69.6866 13.3665 69.7054 12.3737 69.799 11.6807C69.8552 11.381 69.7616 10.9502 69.4244 11.0252C68.9936 11.1188 68.7876 12.3363 68.619 12.7671C68.1882 13.8534 67.5701 15.0147 66.259 15.2395C65.6596 15.3331 65.3599 14.7525 65.2101 14.3779C64.8542 13.535 64.7606 12.4674 64.5171 11.4934C64.4047 10.9877 64.3672 10.4445 63.8428 10.3509C63.4494 10.2572 63.131 10.5382 62.9812 10.7442C62.5316 11.3249 62.2507 12.1115 61.8199 12.7109C61.6513 12.9357 61.3516 13.3103 60.8834 13.2166C60.078 13.0668 59.9281 11.943 59.6659 11.2499C59.5535 10.9502 59.3662 10.3509 58.9167 10.4258C58.13 10.5756 57.8678 12.1864 57.5119 12.8607C57.3621 13.1604 57.0437 13.6287 56.5379 13.4226C55.6014 13.048 56.1446 10.7255 55.1144 10.482C54.4963 10.3321 54.1217 11.1563 53.9157 11.5122C53.4287 12.3363 53.1103 13.3103 52.6046 14.0782C52.3798 14.4154 52.0989 14.79 51.6493 14.8649C51.0874 14.9585 50.8627 14.4341 50.7315 14.0969C50.4319 13.3852 50.3195 12.5423 50.1696 11.6807C50.076 11.1563 50.1134 10.6506 49.7388 10.4258C49.1957 10.0887 48.7836 10.7067 48.4839 10.9502M38.0886 16.382C37.4517 16.5693 36.4403 16.1947 36.6089 15.5204C36.74 15.0147 37.227 14.9023 37.6952 14.715C38.5568 14.715 39.0438 16.1198 38.1073 16.382M45.281 15.8201C45.1686 16.0636 44.8877 16.1947 44.5693 16.2509C43.9324 16.3633 43.0147 15.9138 43.2956 15.2769C43.4642 14.8462 43.9137 14.7712 44.3445 14.5839C44.4943 14.5839 44.6255 14.5839 44.7191 14.6214C45.0563 14.7525 45.5245 15.3331 45.281 15.8389M18.4217 16.4757C18.403 16.0449 18.3656 15.5954 18.3468 15.1646C18.3468 14.8462 18.3094 14.509 18.2906 14.1719C18.0846 10.7817 17.8786 8.10324 17.6725 4.73178C17.5227 3.81399 17.71 2.16573 17.2605 1.60382C17.017 1.2854 16.53 1.22921 15.9493 1.22921C15.8182 1.22921 15.6871 1.22921 15.556 1.22921C15.2376 1.2854 14.9566 1.2854 14.7506 1.43524C14.2823 1.77239 13.9077 3.30828 13.6642 3.94511C12.8776 6.15528 12.0722 8.34673 11.2855 10.5569C10.9484 11.4185 10.6861 12.2801 10.349 13.123C10.1991 13.4976 10.0306 13.9658 9.58104 14.0407C9.1877 14.1157 9.01913 13.7598 8.90675 13.5163C8.60706 12.7858 8.58833 11.8118 8.41976 10.969C8.06388 8.81499 7.70801 6.661 7.35213 4.50702C7.20229 3.73907 7.18356 2.42795 6.67784 2.03461C6.34069 1.75366 5.27307 1.62255 4.6737 1.80985C3.8121 2.07207 3.71845 3.73907 3.49369 4.67559C2.83813 7.57879 2.18256 11.6807 1.50827 14.5839C1.32097 15.3893 1.13367 16.2135 0.946364 17.0189C0.871443 17.4122 0.946364 17.843 1.1524 18.0116C1.43335 18.2363 1.93907 18.1801 2.2013 17.9741C2.59463 17.6744 2.66955 16.6443 2.80067 16.0636C3.26892 13.8534 3.71845 10.482 4.18671 8.27181C4.31782 7.7099 4.44893 6.30513 5.10449 6.36132C5.85371 6.41751 5.92863 8.23435 6.0972 8.96483C6.41562 10.5944 6.7153 12.2239 7.03372 13.8722C7.22102 14.715 7.25848 15.7077 7.65182 16.3446C7.9515 16.8316 8.79437 17.4122 9.63723 17.0751C10.555 16.7005 10.836 15.4643 11.1918 14.5465C12.0534 12.2801 12.9338 10.0137 13.7954 7.74736C14.095 6.96069 14.3947 6.17401 14.6757 5.38734C14.7881 5.12512 14.9566 4.71305 15.35 4.75051C16.3614 4.88162 15.8932 7.07307 16.0617 8.10324C16.1554 11.0064 16.2678 13.1979 16.3614 16.1011C16.5487 17.2811 16.043 18.6484 17.4478 18.6484C17.5789 18.6484 17.6913 18.6484 17.8036 18.6109C18.5154 18.3862 18.5154 17.2998 18.3843 16.4195" fill="#1B1C1C"/>
</svg>
