<svg width="107" height="18" viewBox="0 0 107 18" fill="none" xmlns="http://www.w3.org/2000/svg">
<mask id="mask0_1503_2511" style="mask-type:luminance" maskUnits="userSpaceOnUse" x="0" y="0" width="107" height="18">
<path d="M106.973 0.490234H0.734375V17.0478H106.973V0.490234Z" fill="white"/>
</mask>
<g mask="url(#mask0_1503_2511)">
<path d="M49.2265 14.3502C48.571 14.4814 47.8405 14.3877 47.2598 14.0318C46.5855 13.6198 46.136 12.8893 46.0611 12.1026C46.0611 11.934 46.0611 11.7842 46.0611 11.6343C46.1548 10.7353 46.829 9.91116 47.7281 9.70512C48.8145 10.9039 49.9195 12.1026 51.0059 13.3013C50.5564 13.8445 49.9195 14.2191 49.2265 14.3502ZM54.1526 12.8144C54.1901 12.3274 54.2275 11.8216 54.3774 11.3534C54.5647 10.754 54.8831 10.1359 55.4824 9.85497C55.5948 9.8175 55.7259 9.79877 55.8571 9.78004C55.8571 9.66766 55.8571 9.55528 55.8758 9.4429C55.8383 9.29306 55.8758 9.12448 55.8758 8.97464C55.8571 8.73115 55.8571 8.50638 55.8758 8.26289C55.8758 7.9632 55.8571 7.66352 55.8758 7.36383C55.8758 7.28891 55.8571 7.21399 55.8571 7.13907C55.1266 7.13907 54.3961 7.3451 53.778 7.70098C52.8227 8.26289 52.111 9.1994 51.8675 10.2858C50.4627 8.76861 49.0767 7.21399 47.6532 5.6781C47.3535 5.34096 47.2224 4.8727 47.2786 4.42317C47.3722 3.93618 47.6719 3.50539 48.1214 3.28062C48.4211 3.11205 48.7583 3.09332 49.0954 3.13078C49.6011 3.22443 50.0319 3.58031 50.2567 4.04857C51.0434 3.6365 51.8488 3.26189 52.6167 2.84983C52.4856 2.5876 52.3358 2.34411 52.1672 2.11934C51.3618 1.10791 50.0881 0.452346 48.7957 0.489807C47.2973 0.471076 45.8363 1.3514 45.1246 2.66252C44.6751 3.46793 44.5065 4.4419 44.6563 5.34096C44.7874 6.20255 45.1995 6.98923 45.7989 7.60733C45.0871 8.01939 44.4878 8.61876 44.0757 9.31179C43.5887 10.1172 43.3452 11.0537 43.3827 11.9902C43.4201 12.908 43.6823 13.8258 44.1693 14.5937C44.8998 15.7737 46.136 16.6353 47.5033 16.9163C48.1964 17.0661 48.9268 17.0474 49.6199 16.935C50.8186 16.7103 51.9237 16.1109 52.7666 15.2306C53.1224 15.6426 53.497 16.0172 53.8529 16.4293C55.0517 16.4293 56.2504 16.4293 57.4491 16.4293C56.344 15.2306 55.239 14.0131 54.1339 12.7956" fill="#0E0E0E"/>
<path d="M6.63442 9.04958C6.1849 9.51784 5.54807 9.79879 4.91124 9.87372C4.44298 9.87372 3.97472 9.87372 3.50646 9.87372V3.46795C4.04964 3.46795 4.61155 3.41176 5.136 3.5616C5.77283 3.71144 6.39093 4.04859 6.803 4.57304C7.83316 5.8467 7.75824 7.86957 6.61569 9.06831M10.137 5.28479C9.83731 3.9924 9.10683 2.79366 8.0392 1.98825C7.00903 1.22031 5.71664 0.845703 4.44298 0.845703H0.734375V16.4668H3.52519C3.52519 15.1557 3.52519 13.8633 3.52519 12.5522C4.19948 12.5522 4.85504 12.5896 5.52934 12.496C6.61569 12.3461 7.64586 11.8591 8.43253 11.0912C9.50016 10.0985 10.137 8.67497 10.2681 7.23274C10.3056 6.57718 10.2868 5.92162 10.137 5.28479Z" fill="#0E0E0E"/>
<path d="M21.2628 0.845703H24.0723C24.0723 0.845703 24.0723 1.01428 24.0723 1.10793C24.0723 1.2765 24.0723 1.44507 24.0723 1.63238C24.0723 1.80095 24.0723 1.96952 24.0723 2.15683C24.0723 2.40032 24.0723 2.66254 24.0723 2.90604C24.0723 2.98096 24.0723 3.05588 24.0723 3.14953C24.0723 3.52414 24.0723 3.89874 24.0723 4.29208C24.0723 4.81653 24.0723 5.32225 24.0723 5.8467C24.0723 6.6521 24.0723 7.4575 24.0723 8.26291C24.0723 8.39402 24.0723 8.54386 24.0723 8.69371C24.0723 8.86228 24.0723 9.03085 24.0723 9.21815C24.0723 9.34927 24.0723 9.46165 24.0723 9.59276C24.0536 10.1359 24.0911 10.6978 24.0349 11.241C23.96 12.1963 23.6977 13.1328 23.2295 13.9569C22.7425 14.8185 22.0307 15.5303 21.1691 16.0173C20.2139 16.5604 19.1088 16.8039 18.0224 16.8039C16.805 16.8039 15.5688 16.523 14.5386 15.8674C13.5459 15.2493 12.778 14.2753 12.3659 13.189C12.01 12.3087 11.8789 11.3534 11.8789 10.3982V0.845703H14.7072V10.548C14.7446 11.4471 14.9319 12.421 15.5313 13.1141C16.037 13.6947 16.7863 14.0131 17.5355 14.0693C18.3221 14.1442 19.165 14.0318 19.858 13.601C20.4012 13.2639 20.7758 12.702 20.9818 12.0839C21.1317 11.6344 21.1879 11.1848 21.2253 10.7166C21.2441 9.57403 21.2253 8.45021 21.2253 7.30766V0.845703" fill="#0E0E0E"/>
<path d="M34.7305 0.845703C35.667 0.845703 36.6035 0.845703 37.54 0.845703V13.7696C39.1508 13.7696 40.7429 13.7696 42.3537 13.7696C42.3537 14.6687 42.3537 15.5677 42.3537 16.4481C39.8064 16.4481 37.2778 16.4481 34.7305 16.4481V0.845703Z" fill="#0E0E0E"/>
<path d="M65.7479 12.2888C65.673 12.6634 65.467 13.0005 65.1673 13.244C64.8114 13.525 64.3619 13.6748 63.9311 13.7497C63.0882 13.8996 62.2266 13.8247 61.365 13.8434C61.365 12.4948 61.365 11.1275 61.365 9.77891C62.0019 9.77891 62.6387 9.77891 63.2755 9.77891C63.8936 9.81637 64.5305 9.91002 65.0549 10.2659C65.4295 10.5094 65.673 10.9027 65.7479 11.3335C65.8041 11.6519 65.7854 11.9704 65.7479 12.2888ZM61.3838 3.39187C62.0019 3.39187 62.6387 3.35441 63.2568 3.4668C63.7063 3.54172 64.1559 3.72902 64.4555 4.0849C64.7365 4.42204 64.8301 4.8903 64.8301 5.3211C64.8301 5.80808 64.6803 6.33253 64.3057 6.66968C63.9124 7.02556 63.3692 7.15667 62.8635 7.19413C62.3765 7.19413 61.8708 7.19413 61.3838 7.19413V3.39187ZM68.2203 9.85383C67.8457 9.06716 67.1527 8.43033 66.366 8.03699C66.366 8.03699 66.366 7.99953 66.366 7.9808C66.9467 7.47508 67.3587 6.80079 67.5273 6.05158C67.6584 5.5084 67.621 4.94649 67.5273 4.40331C67.4149 3.87886 67.2089 3.35441 66.9092 2.90489C66.4784 2.24932 65.8416 1.72488 65.1298 1.369C64.5492 1.10678 63.9311 0.994393 63.313 0.919472C62.9384 0.900742 62.5638 0.863281 62.1892 0.863281C60.9904 0.863281 59.773 0.863281 58.5742 0.863281V16.4844C60.3536 16.4844 62.1143 16.4844 63.8936 16.4844C65.1486 16.372 66.4035 15.9037 67.3213 15.0047C68.033 14.3304 68.5013 13.4126 68.6137 12.4386C68.7073 11.577 68.6137 10.678 68.2203 9.89129" fill="#0E0E0E"/>
<path d="M70.1289 0.845703H79.7188C79.7188 1.72603 79.7188 2.60635 79.7188 3.48668C77.4525 3.48668 75.1861 3.48668 72.9385 3.48668C72.9385 4.72288 72.9385 5.94035 72.9385 7.17655C75.0924 7.17655 77.2277 7.17655 79.3817 7.17655C79.3817 8.03814 79.3817 8.89974 79.3817 9.76133C77.2277 9.76133 75.0924 9.76133 72.9385 9.76133C72.9385 11.1099 72.9385 12.4585 72.9385 13.8258C75.2048 13.8258 77.4712 13.8258 79.7376 13.8258C79.7376 14.7061 79.7376 15.5677 79.7376 16.4481H70.1476V0.845703H70.1289Z" fill="#0E0E0E"/>
<path d="M86.0886 9.74295C86.7255 8.16961 87.3436 6.61499 87.9617 5.04165C88.5798 6.61499 89.1979 8.18834 89.8347 9.74295C88.5798 9.74295 87.3436 9.74295 86.0886 9.74295ZM89.0855 0.883515C89.0855 0.883515 88.9731 0.827324 88.9169 0.808594C88.2801 0.808594 87.6433 0.808594 87.0252 0.808594C86.969 0.808594 86.8753 0.808594 86.8566 0.864785C84.7401 6.07181 82.6048 11.2601 80.4883 16.4671C81.4997 16.4671 82.5111 16.4671 83.5039 16.4671C84.0283 15.1186 84.5528 13.77 85.0772 12.4027H90.8649C91.3893 13.7512 91.9138 15.1186 92.4382 16.4671C93.5058 16.4671 94.5922 16.4671 95.6598 16.4671C93.4684 11.2788 91.2769 6.07181 89.1042 0.883515" fill="#0E0E0E"/>
<path d="M103.151 6.67069C103.002 7.17641 102.664 7.62594 102.215 7.9069C101.559 8.30023 100.754 8.39388 100.005 8.39388H99.1244V3.46781C99.9298 3.46781 100.735 3.43035 101.522 3.63638C101.859 3.73004 102.196 3.86115 102.477 4.06718C102.833 4.32941 103.095 4.72274 103.208 5.15354C103.32 5.64053 103.301 6.18371 103.17 6.67069M105.493 13.9006C104.837 12.6644 104.2 11.3907 103.62 10.1171C104.069 9.85485 104.481 9.55516 104.837 9.18056C105.287 8.7123 105.624 8.15039 105.83 7.53229C106.279 6.16498 106.223 4.5729 105.511 3.29924C105.174 2.7186 104.706 2.23161 104.163 1.87573C103.32 1.31382 102.346 1.0516 101.353 0.901758C100.997 0.883027 100.66 0.826836 100.304 0.845567C98.9558 0.845567 97.6259 0.845567 96.2773 0.845567C96.2773 6.05259 96.2773 11.2596 96.2773 16.4667C97.2139 16.4667 98.1504 16.4667 99.0869 16.4667V11.2222C99.0869 11.2222 99.2742 11.2222 99.3491 11.2222C99.5739 11.1847 99.8174 11.2222 100.042 11.166C100.286 11.166 100.51 11.091 100.754 11.091C100.848 11.3533 100.979 11.5968 101.091 11.859C101.822 13.4323 102.608 14.9682 103.451 16.4667C104.612 16.4667 105.774 16.4667 106.935 16.4667C106.41 15.6425 105.923 14.7809 105.455 13.9193" fill="#0E0E0E"/>
<path d="M25.9648 0.845703H28.7744V13.7696H33.5694C33.5694 14.6687 33.5694 15.5677 33.5694 16.4668H25.9648V0.845703Z" fill="#0E0E0E"/>
</g>
</svg>
