<svg width="79" height="16" viewBox="0 0 79 16" fill="none" xmlns="http://www.w3.org/2000/svg">
<path d="M70.8607 15.3186C75.5794 15.3186 78.7721 12.0255 78.7721 7.76865C78.7721 3.51179 75.5995 0.21875 70.8607 0.21875C66.122 0.21875 62.9494 3.51179 62.9494 7.76865C62.9494 12.0255 66.122 15.3186 70.8607 15.3186ZM70.8607 14.937C67.4673 14.937 65.0377 12.6681 65.0377 7.76865C65.0377 2.86925 67.4673 0.600261 70.8607 0.600261C74.2542 0.600261 76.6838 2.84917 76.6838 7.76865C76.6838 12.6881 74.2542 14.937 70.8607 14.937ZM56.524 10.64C56.524 11.9452 56.524 13.1299 56.4035 13.672C56.2629 14.3347 55.7208 14.3949 54.9176 14.4551V14.7162C54.9176 14.7162 56.042 14.6359 57.3874 14.6359C58.6323 14.6359 59.8572 14.7162 59.8572 14.7162V14.4551C59.054 14.3949 58.5118 14.3748 58.3713 13.672C58.2508 13.1098 58.2508 10.64 58.2508 10.64V4.83704C58.2508 4.83704 58.2508 2.36726 58.3713 1.80503C58.5118 1.12233 59.054 1.08217 59.8572 1.02193V0.760897C59.8572 0.760897 58.6323 0.841216 57.3874 0.841216C56.042 0.841216 54.9176 0.760897 54.9176 0.760897V1.02193C55.7208 1.08217 56.2629 1.14241 56.4035 1.80503C56.524 2.34718 56.524 3.53187 56.524 4.83704V10.64ZM46.7051 10.64C46.7051 11.9452 46.7051 13.1299 46.5846 13.672C46.444 14.3347 45.9019 14.3949 45.0987 14.4551V14.7162C45.0987 14.7162 46.2232 14.6359 47.5685 14.6359C48.8134 14.6359 50.0383 14.7162 50.0383 14.7162V14.4551C49.2351 14.3949 48.6929 14.3748 48.5524 13.672C48.4319 13.1098 48.4319 10.64 48.4319 10.64V4.83704C48.4319 4.83704 48.4319 2.36726 48.5524 1.80503C48.6929 1.12233 49.2351 1.08217 50.0383 1.02193V0.760897C50.0383 0.760897 48.8134 0.841216 47.5685 0.841216C46.2232 0.841216 45.0987 0.760897 45.0987 0.760897V1.02193C45.9019 1.08217 46.444 1.14241 46.5846 1.80503C46.7051 2.34718 46.7051 3.53187 46.7051 4.83704V10.64ZM8.05196 15.3186C12.7707 15.3186 15.9633 12.0255 15.9633 7.76865C15.9633 3.51179 12.7707 0.21875 8.05196 0.21875C3.33327 0.21875 0.140625 3.51179 0.140625 7.76865C0.140625 12.0255 3.31319 15.3186 8.05196 15.3186ZM8.05196 14.937C4.65852 14.937 2.2289 12.6681 2.2289 7.76865C2.2289 2.86925 4.65852 0.600261 8.05196 0.600261C11.4454 0.600261 13.875 2.84917 13.875 7.76865C13.875 12.6881 11.4454 14.937 8.05196 14.937ZM27.1275 5.84102C28.3122 3.93346 29.1154 2.72869 29.8985 1.98575C30.5009 1.42352 31.0631 1.22273 31.8061 1.10225V0.841216C31.3241 0.881375 30.7017 0.901454 29.5571 0.901454C28.5933 0.901454 27.6295 0.881375 27.6295 0.881375V1.14241C28.5732 1.16249 28.9748 1.3432 28.9748 1.90543C28.9748 2.3271 28.5532 2.90941 26.8665 5.62014C26.3645 6.38317 25.1396 8.53168 25.1196 9.25454V9.75653C25.1196 9.75653 25.3605 9.81677 25.3806 9.81677C25.481 8.89311 25.8826 7.94937 27.1677 5.8611M21.7462 5.49967C23.2923 8.04977 23.5935 8.91319 23.6136 10.0376L25.22 9.83685V9.03367C25.22 9.03367 25.0794 7.80881 23.2321 4.7768C22.6096 3.77283 22.1277 3.09012 21.8064 2.58814C21.5655 2.20662 21.3245 1.86527 21.3245 1.60424C21.3245 1.28297 21.6257 1.18257 22.3285 1.10225V0.841216C22.3285 0.841216 21.4049 0.861295 20.4009 0.861295C18.3528 0.861295 17.1078 0.780977 17.1078 0.780977V1.04201C18.5536 1.24281 19.3567 1.76487 21.7462 5.49967ZM23.6136 10.64C23.6136 11.9452 23.6136 13.1901 23.4931 13.7323C23.3526 14.3748 22.8104 14.3748 22.0072 14.4351V14.6961C22.0072 14.6961 23.1317 14.6158 24.477 14.6158C25.722 14.6158 26.9468 14.6961 26.9468 14.6961V14.4351C26.1436 14.3748 25.6015 14.3949 25.4609 13.7323C25.3404 13.17 25.3404 12.146 25.3404 10.64V9.77661L24.6377 9.17422L23.6337 10.0376V10.64H23.6136ZM33.5128 11.0416C33.5128 11.0416 33.4124 11.7645 33.4124 12.9492C33.4124 13.8126 33.4727 14.0535 33.4727 14.0535C33.6534 14.1941 34.8381 15.2382 37.0468 15.2382C39.9182 15.2382 41.5647 13.672 41.5647 11.2625C41.5647 9.53565 40.6812 8.3108 38.7134 7.10603L37.2074 6.12213C36.0228 5.33903 35.0188 4.51577 35.0188 3.09012C35.0188 1.66448 36.1231 0.680579 37.8098 0.680579C40.0587 0.680579 40.6611 2.40742 40.8619 3.79291H41.0627C41.0627 3.79291 41.1029 3.07004 41.1029 2.56806C41.1029 1.6444 41.0426 1.20265 41.0426 1.20265C40.7414 1.02193 39.6772 0.339227 37.9303 0.339227C35.2597 0.339227 33.7939 1.96567 33.7939 3.95354C33.7939 5.43943 34.4565 6.845 36.4444 8.11001L37.9705 9.0939C39.1953 9.85693 40.3399 10.7806 40.3399 12.2464C40.3399 14.1539 39.0949 14.8969 37.3078 14.8969C34.8782 14.8969 34.0349 13.4913 33.7337 11.0416H33.5329H33.5128ZM48.1508 7.7285H56.8251V7.34698H48.1508V7.7285Z" fill="#1B1C1C"/>
</svg>
