<svg width="89" height="20" viewBox="0 0 89 20" fill="none" xmlns="http://www.w3.org/2000/svg">
<path d="M88.1692 19.6244C87.9484 18.8212 87.848 17.8373 87.848 16.6727V9.74525C87.848 8.35977 87.346 7.29555 86.342 6.55261C85.4987 5.93014 84.4144 5.62895 83.0891 5.62895C80.7197 5.62895 79.013 6.59277 77.9287 8.54048L79.5953 9.4039C80.1575 7.97826 81.3221 7.25539 83.1092 7.25539C84.9967 7.25539 85.9404 8.09873 85.9404 9.76533V10.5083C82.8682 11.0504 80.6997 11.7532 79.4346 12.5965C78.1696 13.4399 77.5271 14.6246 77.5271 16.1105C77.5271 17.3152 77.9086 18.259 78.6917 18.9417C79.4146 19.5842 80.3382 19.8854 81.4426 19.8854C83.1694 19.8854 84.6955 19.1626 86.0006 17.7168L86.2014 19.6244H88.1492H88.1692ZM85.9404 15.99C85.3782 16.6526 84.6955 17.1948 83.9124 17.6164C83.1092 18.0582 82.3863 18.259 81.7237 18.259C81.1615 18.259 80.6394 18.0582 80.1776 17.6566C79.6957 17.255 79.4547 16.753 79.4547 16.1506C79.4547 14.2832 81.6233 12.9781 85.9605 12.215V15.99H85.9404ZM75.7802 19.6244L71.202 10.95L75.238 5.8699H72.9289L67.3468 12.8174V0.548828H65.4392V19.6244H67.3468V15.5081L69.8768 12.5965L73.5312 19.6244H75.7802ZM58.9736 19.6244H60.8811V9.64486C60.8811 8.27945 60.4796 7.23531 59.6563 6.53253C58.9535 5.93014 58.0299 5.62895 56.9054 5.62895C55.4396 5.62895 54.0943 6.33173 52.8293 7.7373H52.769V0.548828H50.8615V19.6244H52.769V9.34366C54.0742 7.95818 55.3794 7.25539 56.7046 7.25539C58.2106 7.25539 58.9535 8.05857 58.9535 9.68502V19.6244H58.9736ZM39.7575 9.3035C39.7575 7.95818 40.5807 7.27547 42.2473 7.27547C43.5525 7.27547 44.7372 7.91802 45.7813 9.20311L47.1066 8.03849C46.6448 7.35579 45.9821 6.77348 45.0786 6.33173C44.1951 5.88998 43.2915 5.64903 42.408 5.62895C41.0626 5.62895 39.9784 5.93014 39.1551 6.57269C38.3318 7.21523 37.8901 8.13889 37.8499 9.32358C37.7897 10.7492 38.4724 11.8134 39.8579 12.4962C41.143 12.9379 42.4281 13.3797 43.7131 13.8214C45.1187 14.3435 45.8215 15.0463 45.8215 15.99C45.8215 16.6325 45.5805 17.1546 45.1187 17.5562C44.5966 18.0381 43.8336 18.2791 42.8698 18.2791C41.2233 18.2791 39.9181 17.5763 38.9342 16.1707L37.4282 17.2952C38.7334 19.0421 40.5607 19.9055 42.93 19.9055C44.2754 19.9055 45.3797 19.5641 46.2632 18.9015C47.2471 18.1586 47.7491 17.1546 47.7491 15.8896C47.7491 14.4238 47.0664 13.3194 45.6809 12.5564C45.5203 12.4761 44.2352 12.0142 41.8257 11.2111C40.4603 10.7292 39.7575 10.1067 39.7575 9.3035ZM33.4525 8.76136C34.1754 7.99834 35.1191 7.59674 36.2436 7.57666V5.66911C35.1793 5.66911 34.2758 5.93014 33.5529 6.43213C32.9304 6.87388 32.3481 7.59675 31.7859 8.60072H31.7257V5.8699H29.8181V19.6043H31.7257V11.9942C32.2076 10.5083 32.7698 9.42398 33.4525 8.74128M18.8948 16.8133C18.1117 15.8494 17.7101 14.6246 17.7101 13.1186H26.6455V11.8536C26.6455 9.78541 26.1436 8.17905 25.1195 7.09476C24.1758 6.11086 22.9509 5.60887 21.4249 5.60887C19.7181 5.60887 18.3527 6.25142 17.3487 7.51643C16.3447 8.80152 15.8227 10.5284 15.8227 12.7371C15.8227 15.1065 16.4451 16.9136 17.67 18.1787C18.7342 19.3031 20.1197 19.8653 21.7863 19.8653C23.1718 19.8653 24.3364 19.524 25.2801 18.8614C25.9227 18.3795 26.5251 17.6566 27.0873 16.6727L25.6014 15.9097C24.738 17.4558 23.473 18.2389 21.8064 18.2389C20.6618 18.2389 19.698 17.757 18.9149 16.7932M17.7704 11.4922C17.8507 10.187 18.2121 9.16295 18.8346 8.39993C19.4571 7.6369 20.3406 7.25539 21.465 7.25539C22.4891 7.25539 23.2923 7.6369 23.8746 8.39993C24.4569 9.16295 24.738 10.187 24.738 11.4721H17.7704V11.4922ZM9.17635 9.68502V9.62478C11.3048 8.88183 12.369 7.41603 12.369 5.22736C12.369 3.88203 11.8871 2.77766 10.9233 1.87408C9.93937 0.990578 8.65428 0.548828 7.02784 0.548828H0V19.6244H5.92346C10.5418 19.6244 12.8509 17.9176 12.8509 14.5041C12.8509 13.3194 12.5095 12.2954 11.8268 11.4119C11.1441 10.5284 10.2606 9.96613 9.17635 9.68502ZM5.82307 8.74128H2.12843V2.35599H6.66641C9.05587 2.35599 10.2606 3.40012 10.2606 5.50847C10.2606 6.41205 9.91929 7.15499 9.23659 7.7373C8.45348 8.42001 7.30895 8.76136 5.82307 8.76136M9.37714 11.5725C10.2807 12.2552 10.7225 13.1989 10.7225 14.4037C10.7225 16.6928 9.17635 17.8373 6.06402 17.8373H2.10835V10.5484H5.76283C7.26879 10.5484 8.49364 10.8898 9.37714 11.5725Z" fill="#191917"/>
</svg>
