<svg width="95" height="34" viewBox="0 0 95 34" fill="none" xmlns="http://www.w3.org/2000/svg">
<path d="M94.8992 11.8958V11.669C94.8992 10.4213 94.6496 9.17366 94.2186 8.01675C93.3112 5.68022 91.5192 3.77471 89.3187 2.59511C86.7327 1.18866 83.7837 0.576172 80.812 0.576172H80.5398C79.3829 0.576172 78.2259 0.666911 77.069 0.825703C73.9385 1.32477 70.8307 2.68585 68.6984 5.09042C67.1105 6.88251 66.3619 9.2644 66.3165 11.6236C66.1804 14.3911 67.428 17.1133 69.3789 18.9961C71.5113 21.0151 74.3695 22.1493 77.2505 22.603C81.0162 23.1928 84.9633 22.8072 88.4567 21.2873C90.5891 20.3345 92.4946 18.7693 93.6288 16.705C94.4682 15.2305 94.8765 13.5518 94.8992 11.8731M90.3396 14.7314C89.7044 16.7503 88.0711 18.3156 86.2109 19.223C83.8291 20.4253 81.0842 20.6067 78.4982 20.2892C75.9802 19.9489 73.4622 18.792 71.8742 16.7503C71.2391 15.8883 70.8081 14.8675 70.5812 13.824C70.3317 11.8278 70.3997 9.7181 71.2391 7.85795C71.7381 6.7464 72.5548 5.77096 73.5756 5.11311C76.4112 3.20759 80.0407 2.73122 83.3527 3.3437C85.6211 3.7974 87.8669 4.86358 89.2734 6.76909C90.9294 9.03756 91.2016 12.1227 90.3622 14.7541M67.2012 28.864C66.8609 28.7279 66.498 28.6598 66.1123 28.6598C65.7267 28.6598 65.3637 28.7279 65.0235 28.864C64.6832 29.0001 64.3656 29.1815 64.0934 29.4311C63.8212 29.6806 63.617 29.9528 63.4582 30.2704C63.3221 30.588 63.2541 30.9056 63.2541 31.2685C63.2541 31.6315 63.3221 31.9491 63.4582 32.2667C63.5943 32.5843 63.7985 32.8565 64.0934 33.106C64.3656 33.3555 64.6605 33.537 65.0235 33.6731C65.3637 33.8092 65.7267 33.8773 66.1123 33.8773C66.498 33.8773 66.8609 33.8092 67.2012 33.6731C67.5415 33.537 67.859 33.3555 68.1313 33.106C68.4035 32.8565 68.6076 32.5843 68.7437 32.2667C68.8799 31.9718 68.9479 31.6315 68.9479 31.2685C68.9479 30.9056 68.8799 30.588 68.7437 30.2704C68.6076 29.9528 68.4035 29.6806 68.1313 29.4311C67.859 29.1815 67.5641 29.0001 67.2012 28.864ZM67.1105 30.2024C67.3827 30.4746 67.5188 30.8148 67.5188 31.2232C67.5188 31.6315 67.3827 31.9944 67.1105 32.2667C66.8382 32.5389 66.5206 32.675 66.1123 32.675C65.704 32.675 65.3637 32.5389 65.1142 32.2667C64.8647 31.9944 64.7286 31.6542 64.7286 31.2232C64.7286 30.7922 64.8647 30.4746 65.1142 30.2024C65.3864 29.9301 65.704 29.794 66.1123 29.794C66.5206 29.794 66.8382 29.9301 67.1105 30.2024ZM64.2976 22.4896C59.9421 18.2248 55.5639 13.9828 51.2312 9.69541C55.4052 6.79177 59.5791 3.86545 63.7758 0.984496C61.961 0.916442 60.1236 0.984496 58.3088 0.961811C53.4089 4.54599 48.4636 8.03943 43.5411 11.6236C43.5411 8.0848 43.5411 4.52331 43.5411 0.961811C42.2027 0.961811 40.8643 0.961811 39.5259 0.961811C39.5259 8.15285 39.5259 15.3439 39.5259 22.5349C40.8643 22.5349 42.2027 22.5349 43.5184 22.5349C43.5184 20.0623 43.5184 17.567 43.5184 15.0944C45.129 13.9374 46.7623 12.8032 48.3729 11.669C51.9117 15.2985 55.4278 18.9281 58.9893 22.5576C60.7587 22.5576 62.5055 22.5803 64.2749 22.5349M35.919 33.6958H37.3935V28.7959H35.919V33.6958ZM32.8112 22.5349C32.8112 15.3439 32.8112 8.15285 32.8112 0.961811C31.4728 0.961811 30.1344 0.961811 28.796 0.961811C28.796 8.15285 28.796 15.3439 28.796 22.5349C30.1344 22.5349 31.4728 22.5349 32.7885 22.5349M29.3858 31.3139L28.5919 28.7732H27.1401L26.3234 33.6731H27.6845L28.0021 31.5408C28.0248 31.3593 28.0474 31.1778 28.0701 30.9963C28.0701 30.8148 28.1155 30.6334 28.1155 30.4519C28.1382 30.6561 28.2062 30.9056 28.3197 31.2232C28.3197 31.2912 28.3423 31.3366 28.365 31.3593L29.0909 33.6504H30.0664L30.7923 31.3593C30.7923 31.3593 30.815 31.2912 30.8377 31.2232C30.9284 30.9056 30.9964 30.6561 31.0418 30.4519C31.0418 30.6787 31.0872 30.8602 31.0872 31.0417C31.0872 31.2232 31.1326 31.382 31.1552 31.5408L31.4728 33.6731H32.8339L32.0173 28.7732H30.5654L29.7488 31.2912C29.7034 31.45 29.658 31.5634 29.6354 31.6769C29.6127 31.7903 29.59 31.881 29.59 31.9718C29.5673 31.813 29.5219 31.6088 29.4539 31.4046C29.4539 31.3593 29.4312 31.3366 29.4312 31.3139M24.917 22.5123C20.5615 18.2475 16.1834 13.9828 11.8506 9.69541C16.0246 6.79177 20.1985 3.86545 24.3952 0.984496C22.5804 0.939127 20.743 0.984496 18.9282 0.961811C14.0056 4.52331 9.08305 8.06212 4.16047 11.6009C4.16047 8.06212 4.16047 4.52331 4.16047 0.961811C2.82208 0.961811 1.50636 0.961811 0.167969 0.961811C0.167969 8.15285 0.167969 15.3212 0.167969 22.5123C1.50636 22.5123 2.82208 22.5123 4.16047 22.5123C4.16047 20.0396 4.16047 17.5443 4.16047 15.0717C5.77108 13.9148 7.40438 12.8032 9.01499 11.6463C12.5765 15.2532 16.0926 18.9054 19.6314 22.5349C21.4008 22.5349 23.1475 22.5576 24.917 22.5349M42.3161 28.7732H40.8643V33.6731H44.1309V32.5162H42.3161V28.7505V28.7732ZM48.3502 28.7732L46.5128 33.6731H47.9646L48.2368 32.7884H50.3011L50.5733 33.6731H52.0251L50.1877 28.7732H48.3729H48.3502ZM48.5544 31.8583L49.0988 30.2477C49.0988 30.2477 49.1669 30.0436 49.1896 29.9301C49.2122 29.8167 49.2576 29.7033 49.2803 29.5899C49.3257 29.7714 49.371 29.9075 49.3937 30.0209C49.4164 30.1343 49.4391 30.2024 49.4618 30.2704L50.0062 31.881H48.5544V31.8583ZM56.2218 28.7732H54.8154V33.6731H56.2218V31.2459C56.2218 31.1097 56.2218 30.9736 56.2218 30.8148C56.2218 30.6561 56.1991 30.4746 56.1538 30.2704C56.2672 30.4746 56.3579 30.6561 56.4487 30.8148C56.5394 30.9736 56.6074 31.0644 56.6528 31.1324L58.6718 33.6731H60.0782V28.7732H58.6718V31.2005C58.6718 31.3366 58.6718 31.4727 58.6718 31.6315C58.6718 31.7903 58.7171 31.9718 58.7398 32.1759C58.6264 31.9718 58.5356 31.7676 58.4449 31.6315C58.3542 31.4727 58.2861 31.382 58.2407 31.3139L56.2218 28.7959V28.7732Z" fill="#191917"/>
</svg>
