<svg width="43" height="49" viewBox="0 0 43 49" fill="none" xmlns="http://www.w3.org/2000/svg">
<g clip-path="url(#clip0_1461_8075)">
<mask id="mask0_1461_8075" style="mask-type:luminance" maskUnits="userSpaceOnUse" x="0" y="0" width="43" height="49">
<path d="M42.3184 0.6875H0V48.6875H42.3184V0.6875Z" fill="white"/>
</mask>
<g mask="url(#mask0_1461_8075)">
<path d="M13.6731 36.9752C13.3513 31.6714 11.8399 29.6702 10.6924 27.6271C9.83872 26.1157 9.153 24.5764 9.153 21.9035C9.153 15.2702 14.5268 9.89648 21.16 9.89648C27.7932 9.89648 33.167 15.2702 33.167 21.9035C33.167 24.5764 32.4813 26.1157 31.6276 27.6271C30.4661 29.6702 28.9548 31.6714 28.6469 37.0032V38.7665C28.6469 39.928 27.8772 40.9076 26.8276 41.2434V42.4189C26.8276 43.5944 26.03 44.602 24.9524 44.9099V46.0714C24.9524 47.4988 23.7909 48.6743 22.3635 48.6743H19.9845C18.5571 48.6743 17.3816 47.4988 17.3816 46.0714V44.9099C16.304 44.588 15.5064 43.5944 15.5064 42.4189V41.2574C14.4568 40.9216 13.6871 39.942 13.6871 38.7804V36.9752H13.6731ZM27.0935 37.7309H15.2265V38.7804C15.2265 39.3542 15.7023 39.83 16.276 39.83H26.044C26.6177 39.83 27.0935 39.3542 27.0935 38.7804V37.7309ZM25.2603 41.3834H17.0457V42.4329C17.0457 43.0067 17.5215 43.4825 18.0953 43.4825H24.2107C24.7845 43.4825 25.2603 43.0067 25.2603 42.4329V41.3834ZM23.3851 45.0358H18.9209V46.0854C18.9209 46.6592 19.3967 47.135 19.9705 47.135H22.3495C22.9233 47.135 23.3991 46.6592 23.3991 46.0854V45.0358H23.3851ZM21.16 11.4498C15.3804 11.4498 10.7064 16.1239 10.7064 21.9035C10.7064 24.8423 11.658 26.2137 12.6655 27.935C13.7151 29.7402 14.8346 31.8953 15.1845 36.1915H27.1495C27.4994 31.9093 28.6189 29.7542 29.6685 27.935C30.662 26.2137 31.6276 24.8423 31.6276 21.9035C31.6276 16.1239 26.9536 11.4498 21.174 11.4498M19.5927 15.5641C19.8166 14.8784 20.4463 14.4166 21.16 14.4166C21.8737 14.4166 22.5034 14.8784 22.7273 15.5641L23.7909 18.8388H27.2335C27.9472 18.8388 28.5769 19.3006 28.8008 19.9723C29.0247 20.658 28.7868 21.3997 28.1991 21.8195L25.4142 23.8347L26.4778 27.1093C26.7017 27.795 26.4638 28.5367 25.876 28.9565C25.3023 29.3764 24.5186 29.3764 23.9308 28.9565L21.146 26.9414L18.3612 28.9565C17.7874 29.3764 17.0037 29.3764 16.416 28.9565C15.8422 28.5367 15.5903 27.795 15.8142 27.1093L16.8778 23.8347L14.0929 21.8195C13.5192 21.3997 13.2673 20.658 13.4912 19.9723C13.7151 19.2866 14.3448 18.8388 15.0585 18.8388H18.5011L19.5647 15.5641H19.5927ZM21.062 16.0399L19.8306 19.8463C19.7326 20.1682 19.4247 20.3781 19.0889 20.3781H15.0865C15.0865 20.3781 15.0026 20.4061 14.9886 20.4481C14.9886 20.4901 14.9886 20.532 15.0306 20.56L18.2632 22.9111C18.5291 23.107 18.655 23.4568 18.5431 23.7787L17.3116 27.5851C17.3116 27.5851 17.3116 27.6691 17.3536 27.6971C17.3956 27.7251 17.4375 27.7251 17.4795 27.6971L20.7122 25.346C20.9781 25.1501 21.3559 25.1501 21.6218 25.346L24.8545 27.6971C24.8545 27.6971 24.9384 27.7251 24.9804 27.6971C25.0224 27.6691 25.0364 27.6271 25.0224 27.5851L23.7909 23.7787C23.679 23.4568 23.7909 23.107 24.0708 22.9111L27.3034 20.56C27.3034 20.56 27.3594 20.4901 27.3454 20.4481C27.3454 20.4061 27.2894 20.3781 27.2475 20.3781H23.2451C22.9093 20.3781 22.6154 20.1682 22.5034 19.8463L21.272 16.0399C21.272 16.0399 21.216 15.9699 21.174 15.9699C21.132 15.9699 21.09 15.9979 21.076 16.0399M21.9297 2.98336V7.54546C21.9297 7.97928 21.5798 8.31514 21.16 8.31514C20.7402 8.31514 20.3903 7.96528 20.3903 7.54546V2.98336L19.5647 3.58511C19.2148 3.837 18.739 3.75304 18.4871 3.41718C18.2352 3.06732 18.3192 2.59152 18.655 2.33963L20.6982 0.842251C20.9641 0.646333 21.3419 0.646333 21.6078 0.842251L23.665 2.33963C24.0148 2.59152 24.0848 3.08132 23.8329 3.41718C23.581 3.76703 23.0912 3.837 22.7553 3.58511L21.9297 2.98336ZM33.9507 7.96528L32.9431 7.81135C32.5233 7.74138 32.2294 7.34954 32.2994 6.92972C32.3693 6.50989 32.7612 6.21601 33.181 6.28598L35.6999 6.67782C36.0358 6.7338 36.2877 6.98569 36.3437 7.32155L36.7355 9.8405C36.8055 10.2603 36.5116 10.6662 36.0918 10.7221C35.672 10.7921 35.2801 10.4982 35.2101 10.0784L35.0562 9.07082L31.8236 12.3035C31.5157 12.6113 31.0259 12.6113 30.732 12.3035C30.4241 11.9956 30.4241 11.5058 30.732 11.2119L33.9647 7.97928L33.9507 7.96528ZM40.0241 21.0778L39.4224 20.2522C39.1705 19.9023 39.2545 19.4265 39.5903 19.1746C39.9402 18.9227 40.416 19.0067 40.6679 19.3425L42.1652 21.3997C42.3612 21.6656 42.3612 22.0434 42.1652 22.3093L40.6679 24.3665C40.416 24.7163 39.9262 24.7863 39.5903 24.5344C39.2405 24.2825 39.1705 23.7927 39.4224 23.4568L40.0241 22.6312H35.462C35.0282 22.6312 34.6924 22.2813 34.6924 21.8615C34.6924 21.4417 35.0422 21.0918 35.462 21.0918H40.0241V21.0778ZM2.29586 21.0638H6.85796C7.29178 21.0638 7.62764 21.4137 7.62764 21.8335C7.62764 22.2533 7.27778 22.6032 6.85796 22.6032H2.29586L2.89761 23.4288C3.1495 23.7787 3.06554 24.2545 2.72968 24.5064C2.37982 24.7583 1.90402 24.6743 1.65213 24.3385L0.154751 22.2953C-0.0411671 22.0294 -0.0411671 21.6516 0.154751 21.3857L1.65213 19.3286C1.90402 18.9787 2.39382 18.9087 2.72968 19.1606C3.07953 19.4125 3.1495 19.9023 2.89761 20.2382L2.29586 21.0638ZM8.36933 7.96528L11.602 11.1979C11.9099 11.5058 11.9099 11.9956 11.602 12.2895C11.2941 12.5974 10.8043 12.5974 10.5104 12.2895L7.27778 9.05683L7.12385 10.0784C7.05388 10.4982 6.66204 10.7921 6.24221 10.7221C5.82239 10.6522 5.52851 10.2603 5.59848 9.8405L5.99032 7.32155C6.0463 6.98569 6.29819 6.7338 6.63405 6.67782L9.153 6.28598C9.57283 6.21601 9.97866 6.50989 10.0346 6.92972C10.1046 7.34954 9.81073 7.75537 9.3909 7.81135L8.38332 7.96528H8.36933Z" fill="white"/>
</g>
</g>
<defs>
<clipPath id="clip0_1461_8075">
<rect width="42.3184" height="48" fill="white" transform="translate(0 0.6875)"/>
</clipPath>
</defs>
</svg>
