<svg width="48" height="49" viewBox="0 0 48 49" fill="none" xmlns="http://www.w3.org/2000/svg">
<g clip-path="url(#clip0_1461_8066)">
<mask id="mask0_1461_8066" style="mask-type:luminance" maskUnits="userSpaceOnUse" x="0" y="0" width="48" height="49">
<path d="M48 0.6875H0V48.6875H48V0.6875Z" fill="white"/>
</mask>
<g mask="url(#mask0_1461_8066)">
<path d="M1.90924 31.2434C1.67863 31.2434 1.48096 31.1446 1.33271 30.9634C1.06916 30.6504 1.11857 30.1727 1.43154 29.9092L16.9319 17.2091C17.0637 17.0938 17.2284 17.0444 17.4096 17.0444C17.5249 17.0444 17.6402 17.0773 17.739 17.1268L25.3986 21.5084L38.3293 10.2579C38.4611 10.1425 38.6423 10.0767 38.8234 10.0767C39.0211 10.0767 39.2188 10.159 39.367 10.3073L42.3814 13.4864L44.0451 2.26883L32.6299 3.22422L35.5784 6.17274C35.7267 6.32099 35.809 6.51866 35.7926 6.7328C35.7926 6.93047 35.6937 7.11166 35.562 7.24344L25.2998 15.9243C25.168 16.0396 24.9868 16.1055 24.8221 16.1055C24.6738 16.1055 24.542 16.0725 24.4267 15.9902L16.6848 11.0815L1.59627 23.1062C1.46449 23.205 1.29977 23.2709 1.13504 23.2709C1.1021 23.2709 1.08563 23.2709 1.05268 23.2709C0.855017 23.2544 0.673823 23.1556 0.542045 22.9909C0.311434 22.6614 0.360851 22.2002 0.673823 21.9366L16.1742 9.56602C16.3059 9.46718 16.4707 9.4013 16.6354 9.4013C16.7836 9.4013 16.9154 9.43424 17.0307 9.5166L17.6731 9.92841L24.7727 14.4088L33.9641 6.63397L30.4391 3.10891C30.2414 2.91125 30.1591 2.59828 30.2579 2.31825C30.3567 2.05469 30.6038 1.85703 30.9003 1.82408L44.8687 0.6875C44.8687 0.6875 44.9182 0.6875 44.9346 0.6875C45.1323 0.6875 45.33 0.769861 45.4782 0.918111C45.6265 1.06636 45.6924 1.2805 45.6759 1.47817L43.6333 15.1995C43.5839 15.4795 43.4027 15.7101 43.1227 15.7925C43.0568 15.809 42.9744 15.8255 42.9086 15.8255C42.7274 15.8255 42.5297 15.7596 42.3979 15.6278L38.7905 11.8392L25.9916 22.9579C25.8598 23.0732 25.6786 23.1391 25.4974 23.1391C25.3657 23.1391 25.2339 23.1062 25.1186 23.0403L17.4919 18.6751L2.38693 31.0787C2.25515 31.194 2.09043 31.2434 1.90924 31.2434Z" fill="white"/>
<path d="M1.89418 40.5506C1.89418 40.5506 1.84476 40.5506 1.82829 40.5506C1.63062 40.5342 1.44943 40.4353 1.31765 40.2871C1.18587 40.1388 1.11998 39.9412 1.15293 39.7435C1.1694 39.5458 1.26823 39.3646 1.41648 39.2329L1.56473 39.1011L15.3684 27.6035C15.5002 27.4882 15.6649 27.4388 15.8461 27.4388C16.0438 27.4388 16.225 27.5211 16.3732 27.6529L20.4913 31.7709L24.6093 27.6529C24.7411 27.5211 24.9388 27.4388 25.1365 27.4388C25.3341 27.4388 25.5153 27.5211 25.6636 27.6529L28.5791 30.5685L35.0363 23.0407C35.1845 22.876 35.3822 22.7771 35.6128 22.7771C35.761 22.7771 35.8928 22.8265 36.0246 22.9089L39.0061 24.902L45.5455 18.3626C45.6938 18.2143 45.875 18.1484 46.0726 18.1484C46.2703 18.1484 46.4515 18.2308 46.5997 18.3626C46.748 18.5108 46.8139 18.692 46.8139 18.8897C46.8139 19.0874 46.7315 19.2685 46.5997 19.4168L39.6155 26.3845C39.4837 26.5328 39.2861 26.5987 39.0884 26.5987C38.9402 26.5987 38.7919 26.5493 38.6766 26.4669L38.5778 26.401L35.7446 24.5067L29.2051 32.1498C29.0733 32.3145 28.8756 32.3969 28.6615 32.4134H28.645C28.4474 32.4134 28.2497 32.331 28.1179 32.1992L25.1529 29.2342L21.0349 33.3523C20.8866 33.5005 20.7054 33.5664 20.5078 33.5664C20.3101 33.5664 20.1289 33.4841 19.9807 33.3523L15.8132 29.1848L2.38834 40.3694C2.25656 40.4847 2.07537 40.5506 1.91065 40.5506" fill="white"/>
<path d="M0.741249 48.6866C0.329444 48.6866 0 48.3572 0 47.9454C0 47.5336 0.329444 47.2041 0.741249 47.2041H2.32258V44.4698C2.32258 44.058 2.65202 43.7285 3.06383 43.7285C3.47564 43.7285 3.80508 44.058 3.80508 44.4698V47.2041H6.96774V42.1307C6.96774 41.7189 7.29719 41.3895 7.70899 41.3895C8.1208 41.3895 8.45024 41.7189 8.45024 42.1307V47.2041H11.6129V39.8081C11.6129 39.3963 11.9423 39.0669 12.3542 39.0669C12.766 39.0669 13.0954 39.3963 13.0954 39.8081V47.2041H16.2581V37.4855C16.2581 37.0737 16.5875 36.7443 16.9993 36.7443C17.4111 36.7443 17.7406 37.0737 17.7406 37.4855V47.2041H20.9032V39.8081C20.9032 39.3963 21.2327 39.0669 21.6445 39.0669C22.0563 39.0669 22.3857 39.3963 22.3857 39.8081V47.2041H25.5484V35.163C25.5484 34.7512 25.8778 34.4217 26.2896 34.4217C26.7014 34.4217 27.0309 34.7512 27.0309 35.163V47.2041H30.1936V38.6551C30.1936 38.2433 30.523 37.9138 30.9348 37.9138C31.3466 37.9138 31.6761 38.2433 31.6761 38.6551V47.2041H34.8387V31.6709C34.8387 31.2591 35.1682 30.9296 35.58 30.9296C35.9918 30.9296 36.3212 31.2591 36.3212 31.6709V47.2041H39.4839V33.9934C39.4839 33.5816 39.8133 33.2522 40.2251 33.2522C40.6369 33.2522 40.9664 33.5816 40.9664 33.9934V47.2041H44.129V28.1788C44.129 27.7669 44.4585 27.4375 44.8703 27.4375C45.2821 27.4375 45.6115 27.7669 45.6115 28.1788V47.2041H47.1929C47.6047 47.2041 47.9341 47.5336 47.9341 47.9454C47.9341 48.3572 47.6047 48.6866 47.1929 48.6866H0.741249Z" fill="white"/>
</g>
</g>
<defs>
<clipPath id="clip0_1461_8066">
<rect width="48" height="48" fill="white" transform="translate(0 0.6875)"/>
</clipPath>
</defs>
</svg>
