<svg width="48" height="49" viewBox="0 0 48 49" fill="none" xmlns="http://www.w3.org/2000/svg">
<g clip-path="url(#clip0_1461_8059)">
<mask id="mask0_1461_8059" style="mask-type:luminance" maskUnits="userSpaceOnUse" x="0" y="0" width="48" height="49">
<path d="M48 0.6875H0V48.6875H48V0.6875Z" fill="white"/>
</mask>
<g mask="url(#mask0_1461_8059)">
<path d="M23.9994 1.86146C25.6494 1.86146 26.9994 3.2173 26.9994 4.87076C26.9994 6.52422 25.6494 7.88006 23.9994 7.88006C22.3494 7.88006 20.9994 6.52422 20.9994 4.87076C20.9994 3.2173 22.3494 1.86146 23.9994 1.86146ZM23.9994 9.03748C26.2994 9.03748 28.1661 7.16907 28.1661 4.87076C28.1661 2.57245 26.2994 0.6875 23.9994 0.6875C21.6994 0.6875 19.8328 2.55591 19.8328 4.85422C19.8328 7.15254 21.6994 9.02095 23.9994 9.02095M9.79943 15.0726C9.79943 11.9145 12.3828 9.33511 15.5494 9.33511C17.0328 9.33511 18.4328 9.91382 19.4994 10.939C17.7828 12.0633 16.5161 13.816 15.9994 15.8828H10.3161C10.0328 15.8828 9.79943 15.6513 9.79943 15.3702V15.0892V15.0726ZM31.0661 17.8174V18.1481C31.0661 18.5614 30.7328 18.8921 30.3161 18.8921H17.6661C17.2494 18.8921 16.9161 18.5614 16.9161 18.1481V17.8174C16.9161 13.9152 20.0828 10.7571 23.9828 10.7571C27.8828 10.7571 31.0494 13.9317 31.0494 17.8174H31.0661ZM32.4494 9.33511C35.6161 9.33511 38.1828 11.9145 38.1828 15.0726V15.3537C38.1828 15.6348 37.9494 15.8663 37.6661 15.8663H31.9828C31.4828 13.816 30.2161 12.0468 28.4828 10.9224C29.5494 9.89728 30.9494 9.31857 32.4494 9.31857V9.33511ZM10.2994 17.0402H15.7828C15.7494 17.3048 15.7494 17.5693 15.7494 17.8174V18.1481C15.7494 19.2063 16.6161 20.0661 17.6661 20.0661H30.3161C31.3661 20.0661 32.2328 19.2063 32.2328 18.1481V17.8174C32.2328 17.5528 32.2161 17.2883 32.1994 17.0402H37.6828C38.6161 17.0402 39.3661 16.2796 39.3661 15.3537V15.0726C39.3661 11.2697 36.2661 8.16115 32.4494 8.16115C30.5328 8.16115 28.7328 8.95481 27.4328 10.3437C26.3828 9.86421 25.2161 9.58313 23.9828 9.58313C22.7494 9.58313 21.5994 9.86421 20.5494 10.3437C19.2494 8.95481 17.4494 8.16115 15.5328 8.16115C11.7161 8.16115 8.6161 11.2697 8.6161 15.0726V15.3537C8.6161 16.2796 9.34943 17.0402 10.2828 17.0402H10.2994ZM15.5328 1.9772C16.8494 1.9772 17.9161 3.05195 17.9161 4.35819C17.9161 5.66442 16.8494 6.73917 15.5328 6.73917C14.2161 6.73917 13.1494 5.68095 13.1494 4.35819C13.1494 3.05195 14.2161 1.9772 15.5328 1.9772ZM15.5328 7.91313C17.4994 7.91313 19.0828 6.32581 19.0828 4.35819C19.0828 2.39057 17.4994 0.803242 15.5328 0.803242C13.5661 0.803242 11.9828 2.39057 11.9828 4.35819C11.9828 6.30927 13.5661 7.91313 15.5328 7.91313ZM32.4494 1.9772C33.7661 1.9772 34.8328 3.05195 34.8328 4.35819C34.8328 5.66442 33.7661 6.73917 32.4494 6.73917C31.1328 6.73917 30.0661 5.68095 30.0661 4.35819C30.0661 3.03542 31.1328 1.9772 32.4494 1.9772ZM32.4494 7.91313C34.3994 7.91313 35.9994 6.32581 35.9994 4.35819C35.9994 2.39057 34.4161 0.803242 32.4494 0.803242C30.4828 0.803242 28.8994 2.39057 28.8994 4.35819C28.8994 6.32581 30.4828 7.91313 32.4494 7.91313ZM46.3661 33.5749L42.9328 35.559C42.4994 35.807 41.9328 35.6582 41.6828 35.2283L34.6828 23.0919C34.5661 22.877 34.5328 22.6289 34.5994 22.3975C34.6661 22.1494 34.8161 21.9676 35.0161 21.8353L38.4494 19.8511C38.6494 19.7354 38.8994 19.6858 39.1494 19.7684C39.3828 19.8346 39.5828 19.9834 39.6994 20.1984L46.6994 32.3348C46.9494 32.7647 46.8161 33.3268 46.3661 33.5749ZM38.5828 36.1047C38.5828 36.1047 38.4828 36.0385 38.4494 36.022L31.2661 31.8718C31.2661 31.8718 31.0994 31.8057 30.9994 31.7891C27.4494 31.5907 25.7994 29.5239 25.0994 28.631L24.9994 28.5153C24.8994 28.383 24.7494 28.3003 24.5661 28.3003C24.3994 28.3003 24.2328 28.3499 24.1161 28.4657L22.0161 30.5656C20.8828 31.6899 19.4161 30.9293 18.8494 30.5656C18.7494 30.4829 18.6828 30.4002 18.6828 30.2845C18.6828 30.1522 18.6994 30.053 18.7994 29.9703L22.6161 26.1343C23.6661 25.0761 23.9328 25.0926 25.1994 25.1918C26.3828 25.291 27.4494 25.506 28.4828 25.7044C29.3494 25.8697 30.2494 26.0516 31.2161 26.1508C32.0661 26.25 32.8328 26.1343 33.4994 25.8201L34.5828 25.3075L39.8494 34.4181C39.3661 35.1291 38.9161 35.7244 38.5661 36.1047H38.5828ZM38.3494 38.8825C38.1661 39.1966 37.8828 39.4116 37.5328 39.5108C37.1828 39.61 36.8161 39.5604 36.4994 39.3785L31.7494 36.6338C31.4661 36.4684 31.1161 36.5676 30.9494 36.8487C30.7828 37.1298 30.8828 37.4936 31.1661 37.6424L34.7161 39.6927C34.7161 39.6927 34.7161 39.6927 34.7328 39.7092C35.3328 40.0895 35.5328 40.9162 35.1661 41.528C34.7994 42.1729 33.9494 42.4043 33.3161 42.024L29.7994 40.0068C29.5161 39.8415 29.1661 39.9407 28.9994 40.2218C28.8328 40.5029 28.9328 40.8666 29.2161 41.032L31.4661 42.3382C32.1161 42.7185 32.3328 43.5452 31.9661 44.2066C31.5994 44.8515 30.7661 45.083 30.1161 44.7027L27.8494 43.3964C27.5661 43.2311 27.2161 43.3303 27.0494 43.6114C26.8828 43.8925 26.9828 44.2562 27.2661 44.4216L28.2828 45.0168C28.9161 45.3971 29.1328 46.2238 28.7661 46.8687C28.5828 47.1828 28.2994 47.3978 27.9494 47.497C27.5994 47.5962 27.2328 47.5466 26.9161 47.3647L24.6828 46.075L25.9828 43.8263C26.3161 43.2476 26.3994 42.5532 26.2328 41.9083C26.0661 41.2469 25.6494 40.7013 25.0661 40.3706C24.5661 40.0895 24.0328 39.9903 23.4994 40.073C23.6994 39.0478 23.2494 37.9565 22.2828 37.4109C21.6994 37.0802 21.0161 36.981 20.3661 37.1629C20.1161 37.229 19.8994 37.3447 19.6828 37.477C19.4994 36.9149 19.1161 36.4023 18.5661 36.0881C17.5494 35.4929 16.2994 35.7078 15.5161 36.5015C15.3161 36.0385 14.9661 35.6417 14.4994 35.3771C13.2994 34.6827 11.7328 35.096 11.0494 36.3031L10.4661 37.2951C9.6161 36.5015 8.74943 35.1622 8.34943 34.137L13.3828 25.4068C14.4828 25.9359 16.6994 26.8287 19.8828 27.2752L17.9828 29.1766C17.6494 29.5073 17.4828 29.9703 17.5328 30.4333C17.5828 30.9128 17.8328 31.3096 18.2328 31.5742C19.9328 32.6985 21.6661 32.6489 22.8661 31.4419L24.4994 29.805C25.4328 30.9128 27.2828 32.7647 30.7994 32.9961L37.8661 37.0637C37.9828 37.1298 38.0828 37.2125 38.1828 37.3117C38.1828 37.3117 38.1828 37.3117 38.1994 37.3282C38.3328 37.477 38.4494 37.6754 38.4994 37.8904C38.5828 38.2376 38.5328 38.6014 38.3494 38.9155V38.8825ZM21.1494 47.1002C20.5161 46.7364 20.2828 45.8931 20.6494 45.2648L22.6161 41.8587C22.9994 41.2139 23.8161 40.9989 24.4661 41.3792C24.7828 41.5611 24.9994 41.8587 25.0994 42.2059C25.1994 42.5532 25.1494 42.9169 24.9661 43.2311L23.0161 46.6207C22.6328 47.2655 21.7994 47.497 21.1494 47.1167V47.1002ZM17.2994 45.9924C16.9828 45.8105 16.7661 45.5129 16.6661 45.1656C16.5661 44.8184 16.6161 44.4546 16.7994 44.1405L19.8328 38.8825C20.0161 38.5683 20.2994 38.3534 20.6494 38.2542C20.9994 38.1549 21.3661 38.2046 21.6828 38.3864C22.3328 38.7667 22.5494 39.5935 22.1828 40.2383L19.1494 45.4963C18.7828 46.1412 17.9494 46.3561 17.2994 45.9924ZM13.9328 44.0413C13.6161 43.8594 13.3994 43.5618 13.2994 43.2145C13.1994 42.8673 13.2494 42.5036 13.4328 42.1894L16.1161 37.5597C16.4828 36.9148 17.3161 36.6834 17.9661 37.0637C18.5994 37.4274 18.8328 38.2542 18.4661 38.899L15.7828 43.5618C15.4161 44.2066 14.5828 44.4216 13.9328 44.0578V44.0413ZM10.5828 42.0737C10.2661 41.8918 10.0494 41.5942 9.94943 41.2469C9.84943 40.8997 9.89943 40.5359 10.0828 40.2218L12.0328 36.8322C12.3994 36.1873 13.2494 35.9558 13.8828 36.3361C14.5161 36.6999 14.7494 37.5266 14.3828 38.1715L12.4161 41.5776C12.0494 42.2225 11.2161 42.4374 10.5661 42.0737H10.5828ZM6.3161 35.2118C6.0661 35.6417 5.49943 35.807 5.0661 35.5425L1.63277 33.5583C1.19943 33.3103 1.04943 32.7481 1.29943 32.3017L8.29943 20.1653C8.4161 19.9503 8.6161 19.8015 8.84943 19.7354C8.93277 19.7188 9.0161 19.7023 9.09943 19.7023C9.24943 19.7023 9.4161 19.7354 9.54943 19.8181L12.9828 21.8022C13.4161 22.0502 13.5661 22.6124 13.3161 23.0588L6.3161 35.1953V35.2118ZM47.7161 31.7395L40.7161 19.6031C40.4328 19.1236 39.9828 18.7764 39.4494 18.6276C38.9161 18.4788 38.3494 18.5614 37.8661 18.826L34.4328 20.8101C33.9494 21.0912 33.5994 21.5377 33.4661 22.0668C33.3161 22.6124 33.3994 23.1746 33.6828 23.6541L34.0494 24.2824L33.0661 24.7454C32.5994 24.9603 32.0328 25.043 31.3994 24.9769C30.4828 24.8776 29.6494 24.7123 28.7661 24.5304C27.6994 24.332 26.5994 24.1005 25.3494 24.0013H25.3328C23.8661 23.8856 23.2161 23.8856 21.8328 25.2745L20.9494 26.1673C17.5328 25.7871 15.1328 24.8611 13.9994 24.3155L14.3828 23.6541C14.9661 22.662 14.6161 21.3723 13.6161 20.7936L10.1828 18.8094C9.69943 18.5284 9.13276 18.4622 8.59943 18.611C8.04943 18.7598 7.6161 19.1071 7.33277 19.5866L0.282765 31.7395C-0.300568 32.7316 0.0494317 34.0213 1.04943 34.6L4.48277 36.5842C4.8161 36.766 5.1661 36.8652 5.5161 36.8652C6.23277 36.8652 6.94943 36.485 7.33277 35.8236L7.59943 35.3441C8.1661 36.4188 8.99943 37.5762 9.84943 38.2872L9.0661 39.6431C8.73277 40.2218 8.64943 40.9162 8.8161 41.5611C8.98277 42.2225 9.39943 42.7681 9.98277 43.0988C10.3828 43.3303 10.8161 43.4295 11.2328 43.4295C11.5328 43.4295 11.8328 43.3799 12.1161 43.2641C12.1328 43.3468 12.1328 43.4295 12.1661 43.5122C12.3328 44.1735 12.7494 44.7192 13.3328 45.0499C13.7328 45.2814 14.1661 45.3806 14.5994 45.3806C14.8994 45.3806 15.1994 45.331 15.4828 45.2152C15.4994 45.2979 15.4994 45.3806 15.5328 45.4632C15.6994 46.1246 16.1161 46.6703 16.6994 47.001C17.0994 47.2325 17.5328 47.3317 17.9661 47.3317C18.5161 47.3317 19.0494 47.1498 19.4828 46.8191C19.6828 47.3317 20.0494 47.7946 20.5494 48.0923C20.9494 48.3237 21.3828 48.4229 21.8161 48.4229C22.6994 48.4229 23.5494 47.9765 24.0161 47.1498L24.0994 47.034L26.3328 48.3237C26.7161 48.5387 27.1494 48.6544 27.5828 48.6544C27.7994 48.6544 28.0328 48.6214 28.2494 48.5718C28.8994 48.3899 29.4494 47.9765 29.7828 47.3978C30.0494 46.9348 30.1494 46.4223 30.1161 45.9262C31.1994 46.2238 32.3994 45.7774 32.9828 44.7523C33.2494 44.2893 33.3494 43.7767 33.3161 43.2807C34.3994 43.5783 35.5994 43.1153 36.1828 42.1067C36.4494 41.6437 36.5494 41.1312 36.5161 40.6351C36.9494 40.7509 37.3994 40.7509 37.8328 40.6351C38.4828 40.4533 39.0328 40.0399 39.3661 39.4612C39.6994 38.8825 39.7828 38.2046 39.6161 37.5432C39.5661 37.3282 39.4828 37.1298 39.3828 36.9479C39.7661 36.5346 40.1828 36.0054 40.5328 35.5259L40.6828 35.774C41.0661 36.4353 41.7661 36.8156 42.4994 36.8156C42.8494 36.8156 43.2161 36.733 43.5328 36.5346L46.9661 34.5504C47.9661 33.9882 48.3161 32.7151 47.7328 31.7064L47.7161 31.7395Z" fill="white"/>
</g>
</g>
<defs>
<clipPath id="clip0_1461_8059">
<rect width="48" height="48" fill="white" transform="translate(0 0.6875)"/>
</clipPath>
</defs>
</svg>
