<svg width="48" height="49" viewBox="0 0 48 49" fill="none" xmlns="http://www.w3.org/2000/svg">
<g clip-path="url(#clip0_1461_8052)">
<mask id="mask0_1461_8052" style="mask-type:luminance" maskUnits="userSpaceOnUse" x="0" y="0" width="48" height="49">
<path d="M48 0.6875H0V48.6875H48V0.6875Z" fill="white"/>
</mask>
<g mask="url(#mask0_1461_8052)">
<path d="M11.6319 2.48438C8.22327 2.48438 5.45123 5.67188 5.45123 9.57812C5.45123 13.4844 8.22327 16.6719 11.6319 16.6719C15.0406 16.6719 17.8127 13.5 17.8127 9.57812C17.8127 5.65625 15.0539 2.48438 11.6319 2.48438ZM11.6319 17.9688C7.59989 17.9688 4.31058 14.2031 4.31058 9.57812C4.31058 4.95312 7.59989 1.17188 11.6319 1.17188C15.664 1.17188 18.9533 4.9375 18.9533 9.57812C18.9533 14.2188 15.664 17.9688 11.6319 17.9688ZM32.3227 16.0625H46.4747L43.8618 10.5156C43.769 10.3281 43.769 10.0938 43.8618 9.89062L46.4747 4.34375H32.3227V16.0625ZM29.5772 20.0781H31.1954V1.98438H29.5772V20.0781ZM31.7657 48.6875C31.4474 48.6875 31.1954 48.3906 31.1954 48.0469V27.9844H29.5772V48.0469C29.5772 48.4062 29.3252 48.6875 29.0069 48.6875C28.6886 48.6875 28.4366 48.3906 28.4366 48.0312V27.9687H20.3194V44.3906C20.3194 44.75 20.0674 45.0312 19.7491 45.0312C19.444 45.0312 19.1788 44.7344 19.1788 44.3906V27.3906C19.1788 26.9531 19.4308 26.6719 19.7491 26.6719H31.7524C33.039 26.6719 34.0602 25.5156 34.0602 24.0312C34.0602 22.5469 33.0522 21.3906 31.7657 21.3906H6.97651C3.75352 21.3906 1.12738 24.4062 1.12738 28.1094V44.4531C1.12738 45.9375 2.1354 47.0938 3.4352 47.0938C4.73501 47.0938 5.74302 45.9375 5.74302 44.4531V31.7031C5.74302 31.3281 5.99503 31.0469 6.31335 31.0469C6.57861 31.0469 6.88367 31.3906 6.88367 31.7031V44.4531C6.88367 46.625 5.34512 48.4062 3.44847 48.4062C1.55181 48.4062 0 46.6094 0 44.4375V28.0938C0 23.6719 3.13015 20.0781 6.97651 20.0781H13.7408H28.4233V1.34375C28.4233 0.984375 28.6753 0.703125 28.9936 0.6875H31.7524C32.0575 0.6875 32.3095 0.984375 32.3095 1.34375V3.04688H47.4164C47.8276 3.20312 47.9204 3.34375 47.9602 3.51562C48 3.6875 47.9867 3.85938 47.9204 4.01563L45.0688 10.0625L47.9072 16.4063C47.9735 17.0781 47.7215 17.375 47.4164 17.375H32.3095V20.1406L32.5217 20.2031C34.0602 20.625 35.1876 22.2344 35.1876 24.0469C35.1876 25.8594 34.0602 27.4688 32.5217 27.8906L32.3095 27.9531V48.0625C32.3095 48.4219 32.0575 48.7031 31.7524 48.7031L31.7657 48.6875Z" fill="white"/>
</g>
</g>
<defs>
<clipPath id="clip0_1461_8052">
<rect width="48" height="48" fill="white" transform="translate(0 0.6875)"/>
</clipPath>
</defs>
</svg>
