<svg width="73" height="26" viewBox="0 0 73 26" fill="none" xmlns="http://www.w3.org/2000/svg">
<g clip-path="url(#clip0_864_6444)">
<mask id="mask0_864_6444" style="mask-type:luminance" maskUnits="userSpaceOnUse" x="0" y="0" width="73" height="26">
<path d="M72.0469 0.636719H0.455078V25.7521H72.0469V0.636719Z" fill="white"/>
</mask>
<g mask="url(#mask0_864_6444)">
<path d="M72.0469 9.19139V9.01995C72.0469 8.07705 71.8583 7.13415 71.5325 6.25983C70.8468 4.49403 69.4925 3.05397 67.8295 2.1625C65.8752 1.0996 63.6465 0.636719 61.4007 0.636719H61.1949C60.3206 0.636719 59.4463 0.705293 58.572 0.825299C56.2062 1.20246 53.8575 2.23108 52.246 4.0483C51.0459 5.40265 50.4802 7.20273 50.4459 8.98566C50.343 11.0772 51.2859 13.1344 52.7603 14.5573C54.3718 16.0831 56.5319 16.9403 58.7091 17.2832C61.555 17.7289 64.5379 17.4375 67.1781 16.2888C68.7896 15.5688 70.2296 14.3859 71.0868 12.8258C71.7211 11.7115 72.0297 10.4429 72.0469 9.17424M68.601 11.3343C68.121 12.8601 66.8866 14.043 65.4809 14.7288C63.6808 15.6374 61.6064 15.7745 59.652 15.5345C57.7491 15.2774 55.8461 14.4031 54.6461 12.8601C54.1661 12.2087 53.8403 11.4372 53.6689 10.6486C53.4803 9.13996 53.5317 7.5456 54.1661 6.13982C54.5432 5.29979 55.1604 4.56261 55.9319 4.06544C58.0748 2.62538 60.8178 2.26536 63.3207 2.72824C65.0351 3.07111 66.7323 3.87686 67.7952 5.31693C69.0467 7.03129 69.2524 9.36282 68.6181 11.3515M51.1145 22.0148C50.8573 21.912 50.583 21.8605 50.2916 21.8605C50.0002 21.8605 49.7259 21.912 49.4687 22.0148C49.2115 22.1177 48.9715 22.2548 48.7658 22.4434C48.5601 22.632 48.4058 22.8377 48.2858 23.0777C48.1829 23.3177 48.1315 23.5577 48.1315 23.832C48.1315 24.1063 48.1829 24.3464 48.2858 24.5864C48.3887 24.8264 48.5429 25.0321 48.7658 25.2207C48.9715 25.4093 49.1944 25.5464 49.4687 25.6493C49.7259 25.7521 50.0002 25.8036 50.2916 25.8036C50.583 25.8036 50.8573 25.7521 51.1145 25.6493C51.3716 25.5464 51.6117 25.4093 51.8174 25.2207C52.0231 25.0321 52.1774 24.8264 52.2803 24.5864C52.3831 24.3635 52.4345 24.1063 52.4345 23.832C52.4345 23.5577 52.3831 23.3177 52.2803 23.0777C52.1774 22.8377 52.0231 22.632 51.8174 22.4434C51.6117 22.2548 51.3888 22.1177 51.1145 22.0148ZM51.0459 23.0263C51.2516 23.232 51.3545 23.4892 51.3545 23.7978C51.3545 24.1063 51.2516 24.3806 51.0459 24.5864C50.8402 24.7921 50.6002 24.8949 50.2916 24.8949C49.983 24.8949 49.7259 24.7921 49.5373 24.5864C49.3487 24.3806 49.2458 24.1235 49.2458 23.7978C49.2458 23.472 49.3487 23.232 49.5373 23.0263C49.743 22.8206 49.983 22.7177 50.2916 22.7177C50.6002 22.7177 50.8402 22.8206 51.0459 23.0263ZM48.9201 17.1975C45.6285 13.9745 42.3198 10.7686 39.0454 7.52846C42.1998 5.33407 45.3542 3.12254 48.5258 0.945304C47.1543 0.893873 45.7657 0.945304 44.3942 0.92816C40.6912 3.63685 36.9539 6.27697 33.2337 8.98566C33.2337 6.31126 33.2337 3.61971 33.2337 0.92816C32.2222 0.92816 31.2107 0.92816 30.1993 0.92816C30.1993 6.36269 30.1993 11.7972 30.1993 17.2317C31.2107 17.2317 32.2222 17.2317 33.2165 17.2317C33.2165 15.3631 33.2165 13.4773 33.2165 11.6086C34.4337 10.7343 35.6681 9.87713 36.8853 9.01995C39.5597 11.7629 42.2169 14.5059 44.9085 17.2489C46.2457 17.2489 47.5658 17.266 48.903 17.2317M27.4734 25.6664H28.5878V21.9634H27.4734V25.6664ZM25.1248 17.2317C25.1248 11.7972 25.1248 6.36269 25.1248 0.92816C24.1133 0.92816 23.1018 0.92816 22.0903 0.92816C22.0903 6.36269 22.0903 11.7972 22.0903 17.2317C23.1018 17.2317 24.1133 17.2317 25.1076 17.2317M22.5361 23.8663L21.936 21.9462H20.8388L20.2217 25.6493H21.2503L21.4903 24.0378C21.5075 23.9006 21.5246 23.7635 21.5417 23.6263C21.5417 23.4892 21.576 23.352 21.576 23.2149C21.5932 23.3692 21.6446 23.5577 21.7303 23.7978C21.7303 23.8492 21.7475 23.8835 21.7646 23.9006L22.3132 25.6321H23.0504L23.599 23.9006C23.599 23.9006 23.6161 23.8492 23.6333 23.7978C23.7018 23.5577 23.7533 23.3692 23.7876 23.2149C23.7876 23.3863 23.8218 23.5235 23.8218 23.6606C23.8218 23.7978 23.8561 23.9178 23.8733 24.0378L24.1133 25.6493H25.1419L24.5247 21.9462H23.4275L22.8104 23.8492C22.7761 23.9692 22.7418 24.0549 22.7246 24.1406C22.7075 24.2263 22.6904 24.2949 22.6904 24.3635C22.6732 24.2435 22.6389 24.0892 22.5875 23.9349C22.5875 23.9006 22.5704 23.8835 22.5704 23.8663M19.1588 17.2146C15.8672 13.9916 12.5585 10.7686 9.28405 7.52846C12.4385 5.33407 15.5929 3.12254 18.7645 0.945304C17.393 0.911017 16.0043 0.945304 14.6329 0.92816C10.9127 3.61971 7.19252 6.29412 3.47236 8.96852C3.47236 6.29412 3.47236 3.61971 3.47236 0.92816C2.46088 0.92816 1.46655 0.92816 0.455078 0.92816C0.455078 6.36269 0.455078 11.7801 0.455078 17.2146C1.46655 17.2146 2.46088 17.2146 3.47236 17.2146C3.47236 15.346 3.47236 13.4602 3.47236 11.5915C4.68955 10.7172 5.92389 9.87713 7.14109 9.00281C9.83264 11.7286 12.4899 14.4888 15.1643 17.2317C16.5015 17.2317 17.8216 17.2489 19.1588 17.2317M32.3079 21.9462H31.2107V25.6493H33.6794V24.7749H32.3079V21.9291V21.9462ZM36.8681 21.9462L35.4795 25.6493H36.5767L36.7824 24.9807H38.3425L38.5482 25.6493H39.6454L38.2568 21.9462H36.8853H36.8681ZM37.0224 24.2778L37.4339 23.0606C37.4339 23.0606 37.4853 22.9063 37.5025 22.8206C37.5196 22.7349 37.5539 22.6491 37.571 22.5634C37.6053 22.7006 37.6396 22.8034 37.6567 22.8891C37.6739 22.9749 37.691 23.0263 37.7082 23.0777L38.1196 24.2949H37.0224V24.2778ZM42.817 21.9462H41.7541V25.6493H42.817V23.8149C42.817 23.712 42.817 23.6092 42.817 23.4892C42.817 23.3692 42.7998 23.232 42.7655 23.0777C42.8513 23.232 42.9198 23.3692 42.9884 23.4892C43.057 23.6092 43.1084 23.6778 43.1427 23.7292L44.6685 25.6493H45.7314V21.9462H44.6685V23.7806C44.6685 23.8835 44.6685 23.9863 44.6685 24.1063C44.6685 24.2263 44.7028 24.3635 44.7199 24.5178C44.6342 24.3635 44.5656 24.2092 44.4971 24.1063C44.4285 23.9863 44.377 23.9178 44.3428 23.8663L42.817 21.9634V21.9462Z" fill="#191917"/>
</g>
</g>
<defs>
<clipPath id="clip0_864_6444">
<rect width="71.5918" height="25.1154" fill="white" transform="translate(0.455078 0.636719)"/>
</clipPath>
</defs>
</svg>
