<svg width="61" height="61" viewBox="0 0 61 61" fill="none" xmlns="http://www.w3.org/2000/svg">
<mask id="mask0_1697_2541" style="mask-type:luminance" maskUnits="userSpaceOnUse" x="0" y="0" width="61" height="61">
<path d="M60.3047 0.1875H0.304688V60.1875H60.3047V0.1875Z" fill="white"/>
</mask>
<g mask="url(#mask0_1697_2541)">
<path d="M27.3978 60.1875L26.3926 59.1824L28.6314 56.9322C28.2773 56.9094 27.9118 56.8751 27.5577 56.8408C26.6668 56.7495 25.7758 56.6124 24.8964 56.4297C24.0169 56.2469 23.1602 56.0299 22.3264 55.7672C21.504 55.5159 20.6816 55.2075 19.8592 54.8648C19.0711 54.5336 18.283 54.1452 17.5177 53.7341C16.7639 53.3229 16.0214 52.866 15.3018 52.3862C14.5822 51.8951 13.8969 51.3811 13.2344 50.8443C12.5834 50.296 11.9323 49.7135 11.327 49.1081C10.7216 48.5028 10.1391 47.8631 9.60223 47.2006C9.05397 46.5382 8.53998 45.8414 8.06026 45.1332C7.58053 44.4137 7.12365 43.6712 6.71245 42.9174C6.30126 42.1635 5.92433 41.3754 5.58167 40.5644C5.23901 39.7535 4.94204 38.9311 4.67933 38.0973C4.41662 37.252 4.1996 36.384 4.01685 35.5273L5.41034 35.2418C5.58167 36.0641 5.78727 36.8751 6.03855 37.6747C6.27842 38.4628 6.56397 39.2509 6.89521 40.0047C7.21502 40.7586 7.56911 41.5125 7.95746 42.2321C8.34581 42.9516 8.76842 43.6598 9.2253 44.3337C9.68219 45.0076 10.1733 45.6587 10.6873 46.2869C11.2013 46.9151 11.7496 47.5205 12.3207 48.0916C12.8918 48.6627 13.4972 49.2223 14.1254 49.7363C14.7422 50.2503 15.4046 50.7415 16.0785 51.1984C16.7524 51.6552 17.4492 52.0779 18.1688 52.4776C18.8884 52.866 19.6422 53.2315 20.3846 53.5513C21.1499 53.8711 21.938 54.1681 22.7147 54.408C23.5029 54.6592 24.3252 54.8648 25.1476 55.0362C25.9814 55.2075 26.8267 55.3331 27.6719 55.4245C27.946 55.4474 28.2087 55.4702 28.4829 55.493L26.3584 53.3571L27.3635 52.352L31.2699 56.2697L27.3635 60.1875H27.3978ZM35.7016 56.4411L35.4161 55.0476C36.2384 54.8763 37.0608 54.6707 37.8489 54.4194C38.6256 54.1795 39.4138 53.894 40.179 53.5627C40.9215 53.2429 41.6753 52.8888 42.3949 52.489C43.1031 52.1007 43.8113 51.6667 44.4852 51.2098C45.1591 50.7529 45.8215 50.2617 46.4383 49.7478C47.0551 49.2338 47.6719 48.6855 48.243 48.103C48.8141 47.5319 49.3738 46.9151 49.8764 46.2983C50.3904 45.6701 50.8815 45.0076 51.3384 44.3451C51.7953 43.6712 52.2179 42.9631 52.6062 42.2435C52.9946 41.5239 53.3487 40.7814 53.6685 40.0162C53.9883 39.2509 54.2739 38.4628 54.5251 37.6861C54.7764 36.8865 54.982 36.0756 55.1534 35.2532C55.3247 34.4194 55.4503 33.5741 55.5417 32.7289C55.5645 32.4548 55.5874 32.1921 55.6102 31.9179L53.4857 34.0539L52.4806 33.0487L56.3984 29.131L60.3161 33.0487L59.311 34.0539L57.0723 31.8151C57.0494 32.1692 57.0266 32.5347 56.9809 32.8888C56.8895 33.7797 56.7524 34.6821 56.5697 35.5502C56.3869 36.4182 56.1699 37.2863 55.9072 38.1201C55.6445 38.9539 55.3475 39.7763 55.0049 40.5873C54.6622 41.3868 54.2853 42.1749 53.8741 42.9402C53.4629 43.6941 53.0174 44.4365 52.5377 45.1561C52.058 45.8643 51.544 46.561 50.9957 47.2235C50.4589 47.886 49.8764 48.5256 49.271 49.131C48.6656 49.7363 48.026 50.3189 47.3635 50.8671C46.7125 51.4039 46.0157 51.9294 45.2961 52.4091C44.588 52.8888 43.8455 53.3457 43.0917 53.7569C42.3264 54.1681 41.5383 54.5564 40.7501 54.8877C39.9392 55.2303 39.1054 55.5387 38.283 55.79C37.4492 56.0527 36.5925 56.2697 35.713 56.4525L35.7016 56.4411ZM30.299 46.6866C21.2299 46.6866 13.8512 39.2852 13.8512 30.1932C13.8512 21.1013 21.2299 13.6998 30.299 13.6998C39.3681 13.6998 46.7581 21.1013 46.7581 30.1932C46.7581 39.2852 39.3795 46.6866 30.299 46.6866ZM30.299 15.1275C22.018 15.1275 15.279 21.8894 15.279 30.1932C15.279 38.497 22.018 45.2589 30.299 45.2589C38.58 45.2589 45.3304 38.497 45.3304 30.1932C45.3304 21.8894 38.5914 15.1275 30.299 15.1275ZM4.22245 31.1298L0.304688 27.2121L1.30983 26.2069L3.54855 28.4456C3.57139 28.0916 3.59424 27.726 3.63992 27.372C3.7313 26.481 3.86837 25.5901 4.0397 24.7106C4.21103 23.8426 4.43947 22.9745 4.70217 22.1407C4.96488 21.3069 5.26186 20.4731 5.60452 19.6735C5.93576 18.874 6.32411 18.0858 6.7353 17.3206C7.14649 16.5667 7.60337 15.8129 8.0831 15.1047C8.56283 14.3965 9.07682 13.6998 9.62508 13.0373C10.1733 12.3748 10.7559 11.7238 11.3498 11.1298C11.9552 10.5245 12.5948 9.94193 13.2573 9.39367C13.9198 8.84541 14.6051 8.33142 15.3247 7.85169C16.0443 7.37197 16.7867 6.91508 17.5291 6.50389C18.2944 6.0927 19.0825 5.70435 19.8706 5.37311C20.6816 5.03045 21.504 4.72205 22.3378 4.47077L22.7604 5.82999C21.9723 6.06985 21.1956 6.36683 20.4303 6.68664C19.6765 7.00646 18.934 7.36054 18.2145 7.76032C17.5063 8.14867 16.7981 8.57128 16.1242 9.03959C15.4503 9.49647 14.7993 9.98761 14.1711 10.5016C13.5428 11.0156 12.9375 11.5753 12.3664 12.1464C11.7953 12.7175 11.247 13.3229 10.733 13.9511C10.219 14.5793 9.72787 15.2418 9.27099 15.9042C8.81411 16.5781 8.3915 17.2863 8.00315 18.0059C7.6148 18.7255 7.24929 19.4793 6.9409 20.2332C6.62108 20.9985 6.33553 21.7752 6.08424 22.5633C5.83296 23.3628 5.62736 24.1852 5.45603 24.9962C5.2847 25.83 5.15906 26.6752 5.06768 27.5205C5.04484 27.7946 5.02199 28.0573 4.99915 28.3314L7.12365 26.1955L8.12879 27.2006L4.21103 31.1184L4.22245 31.1298ZM55.1648 24.9962C54.9934 24.1738 54.7878 23.3514 54.5366 22.5633C54.2967 21.7752 53.9997 20.987 53.6799 20.2332C53.3601 19.4793 53.006 18.7255 52.6062 18.0059C52.2179 17.2863 51.7838 16.5781 51.3384 15.9042C50.8929 15.2418 50.4018 14.5793 49.8764 13.9396C49.3624 13.3114 48.8027 12.7061 48.243 12.135C47.6719 11.5639 47.0665 11.0042 46.4383 10.4902C45.8101 9.97619 45.1591 9.48504 44.4852 9.02816C43.8113 8.57128 43.1031 8.13724 42.3949 7.74889C41.6753 7.36054 40.9215 6.99504 40.179 6.67522C39.4138 6.3554 38.6256 6.05843 37.8489 5.81857C37.0608 5.57871 36.2384 5.36169 35.4161 5.19036C34.5822 5.01903 33.737 4.89338 32.8918 4.80201C31.6925 4.67636 30.4589 4.6421 29.2367 4.68779L31.544 6.99504L30.5388 8.00018L26.6325 4.08242L30.5388 0.1875L31.544 1.19264L29.4766 3.27145C30.6645 3.23719 31.8638 3.27145 33.0403 3.39709C33.9312 3.48847 34.8221 3.62554 35.7016 3.80829C36.5697 3.99104 37.4378 4.20806 38.2716 4.47077C39.094 4.73347 39.9278 5.03045 40.7387 5.37311C41.5269 5.70435 42.315 6.0927 43.0802 6.50389C43.8341 6.91508 44.5765 7.36054 45.2847 7.85169C45.9929 8.33142 46.6896 8.85683 47.3521 9.39367C48.0146 9.94193 48.6542 10.5245 49.2596 11.1298C49.8649 11.7352 50.4475 12.3748 50.9843 13.0373C51.5326 13.7112 52.058 14.3965 52.5263 15.1047C53.006 15.8129 53.4515 16.5667 53.8741 17.3206C54.2853 18.0858 54.6622 18.874 55.0049 19.6735C55.3475 20.4731 55.6445 21.3069 55.9072 22.1407C56.1699 22.9745 56.3869 23.8426 56.5697 24.7106L55.1762 24.9962H55.1648Z" fill="white"/>
</g>
<path d="M22.92 36.4637C22.9771 36.2581 23.0228 36.0867 23.0685 35.9839L28.3226 34.8646V31.655L23.6281 32.6487C23.6624 32.466 23.7081 32.2718 23.7766 32.0548C23.8337 31.8492 23.9137 31.6436 23.9936 31.4494L28.3226 30.5242L28.2998 22.8829C28.3911 22.7801 28.551 22.6202 28.7566 22.4146C28.9622 22.209 29.1793 22.0148 29.4077 21.832L29.4305 30.2843L32.069 29.7247V23.7966C32.1832 23.6596 32.3203 23.5111 32.5145 23.3397C32.6972 23.1684 32.9257 22.9857 33.1884 22.7915V29.4962L37.7915 28.5139C37.7572 28.6853 37.7115 28.8794 37.6544 29.1079C37.5973 29.3363 37.5402 29.5305 37.4602 29.7132L33.1884 30.6156V33.334L37.8257 32.3403C37.7915 32.5916 37.6658 33.0028 37.4488 33.551L32.0919 34.7047L32.069 30.844L29.6247 31.3694L29.4305 31.5636V33.8823C29.4191 33.9508 29.4077 34.0079 29.3963 34.0422L28.4597 35.47C28.4597 35.47 28.4026 35.5842 28.2769 35.7212C28.1513 35.8697 27.9914 35.9839 27.7743 36.0867C27.4203 36.1781 26.952 36.2923 26.358 36.418L25.3643 36.6122L22.7715 37.1718C22.8172 36.8977 22.8743 36.6464 22.92 36.4408V36.4637ZM32.2975 37.9485C32.3546 37.7429 32.4231 37.5259 32.5031 37.3203L37.8143 36.201C37.7915 36.3951 37.7458 36.6007 37.6887 36.8292C37.6316 37.0576 37.563 37.2404 37.4945 37.4003L32.1718 38.5425C32.2061 38.3597 32.2518 38.1656 32.3089 37.9485H32.2975Z" fill="white"/>
</svg>
