<svg width="30" height="33" viewBox="0 0 30 33" fill="none" xmlns="http://www.w3.org/2000/svg">
<path d="M18.1953 32.1641C18.2474 31.7995 18.3385 31.3307 18.4688 30.7578C18.625 30.1589 18.8203 29.5729 19.0547 29L29.6406 26.7734C29.5885 27.1641 29.4844 27.6849 29.3281 28.3359C29.1979 28.987 29.0156 29.5208 28.7812 29.9375L18.1953 32.1641ZM0.929688 29.7031C1.03385 29.1302 1.15104 28.5312 1.28125 27.9062C1.4375 27.2812 1.60677 26.8255 1.78906 26.5391L11.2812 24.5078L11.2422 19.5469L2.57031 21.3828C2.6224 21.0182 2.71354 20.5365 2.84375 19.9375C2.97396 19.3385 3.16927 18.7656 3.42969 18.2188L11.2422 16.5781L11.2031 2.71094C11.4115 2.5026 11.8021 2.11198 12.375 1.53906C12.974 0.966146 13.5599 0.510417 14.1328 0.171875L14.1719 15.9531L18.1562 15.0938L18.1172 4.42969C18.3255 4.16927 18.6771 3.80469 19.1719 3.33594C19.6667 2.86719 20.2917 2.39844 21.0469 1.92969L21.0859 14.4688L29.6406 12.6719C29.5625 13.0625 29.4453 13.5703 29.2891 14.1953C29.1589 14.8203 28.9896 15.3542 28.7812 15.7969L21.0859 17.4375V21.5391L29.6797 19.7031C29.6797 19.9115 29.6146 20.276 29.4844 20.7969C29.3542 21.2917 29.1068 21.9818 28.7422 22.8672L18.1562 25.1328V18.0625L14.2891 18.8828L14.1328 19.0391L14.1719 23.1406C14.1458 23.349 14.1068 23.5052 14.0547 23.6094L12.3359 26.2266C12.3099 26.2786 12.1667 26.474 11.9062 26.8125C11.6719 27.125 11.3073 27.3724 10.8125 27.5547C10.1354 27.763 9.25 27.9714 8.15625 28.1797L6.35938 28.5703L0.929688 29.7031Z" fill="white"/>
</svg>
