<svg width="59" height="48" viewBox="0 0 59 48" fill="none" xmlns="http://www.w3.org/2000/svg">
<g clip-path="url(#clip0_747_2310)">
<mask id="mask0_747_2310" style="mask-type:luminance" maskUnits="userSpaceOnUse" x="0" y="0" width="59" height="48">
<path d="M58.5493 0H0.939453V48H58.5493V0Z" fill="white"/>
</mask>
<g mask="url(#mask0_747_2310)">
<path d="M2.31933 11.0883H57.1694V5.02669C57.1694 3.0308 55.5431 1.40452 53.5719 1.40452H5.91687C3.92097 1.40452 2.31933 3.0308 2.31933 5.02669V11.0883ZM57.8594 12.4682H1.62939C1.25978 12.4682 0.939453 12.1478 0.939453 11.7782V5.00205C0.939453 2.2423 3.18175 0 5.91687 0H53.5473C56.307 0 58.5247 2.2423 58.5247 5.00205V11.7782C58.5247 12.1478 58.229 12.4682 57.8347 12.4682H57.8594Z" fill="#592B8A"/>
<path d="M53.5473 40.6586H37.0134C36.7423 40.6586 36.4713 40.4861 36.3727 40.2397C36.2742 39.9687 36.3234 39.673 36.5206 39.4759L39.5021 36.4944C39.7731 36.2233 39.8963 35.8537 39.8717 35.4595L39.2557 28.018C39.2064 27.3773 38.7136 26.8845 38.0729 26.8352L30.6561 26.2192C30.2865 26.1946 29.8922 26.3178 29.6458 26.5888L19.962 36.3219C19.4446 36.8393 19.4446 37.6525 19.962 38.1699L21.2926 39.5005C21.4898 39.6976 21.539 39.9933 21.4405 40.2644C21.3419 40.5354 21.0955 40.6833 20.7998 40.6833H5.91687C3.18175 40.6833 0.939453 38.441 0.939453 35.6566V27.7962C0.939453 27.402 1.23514 27.1063 1.62939 27.1063C2.02364 27.1063 2.31933 27.4266 2.31933 27.7962V35.6566C2.31933 37.6525 3.94561 39.2788 5.91687 39.2788H19.1489L19.0011 39.1309C17.9661 38.0714 17.9661 36.3958 19.0011 35.3363L28.6848 25.6032C29.2516 25.0365 30.0154 24.7654 30.8039 24.8393L38.2208 25.4553C39.5267 25.5539 40.5616 26.5888 40.6602 27.8948L41.2762 35.3363C41.3501 36.1248 41.0544 36.8886 40.5123 37.4553L38.7136 39.2541H53.5719C55.5678 39.2541 57.1694 37.6278 57.1694 35.6319V12.4697H2.31933V22.4245C2.31933 22.7942 2.02364 23.1145 1.62939 23.1145C1.23514 23.1145 0.939453 22.7942 0.939453 22.4245V11.7798C0.939453 11.3855 1.23514 11.0898 1.62939 11.0898H57.8594C58.229 11.0898 58.5493 11.3855 58.5493 11.7798V35.6812C58.5493 38.441 56.307 40.6833 53.5719 40.6833L53.5473 40.6586Z" fill="#592B8A"/>
<path d="M1.62939 26.3406C1.23514 26.3406 0.939453 26.0202 0.939453 25.6506V24.6157C0.939453 24.2461 1.23514 23.9258 1.62939 23.9258C2.02364 23.9258 2.31933 24.2461 2.31933 24.6157V25.6506C2.31933 26.0449 2.02364 26.3406 1.62939 26.3406Z" fill="#592B8A"/>
<path d="M9.24575 4.60855C8.58046 4.60855 8.01372 5.0028 7.76731 5.59417C7.52091 6.18555 7.66875 6.90013 8.11228 7.34366C8.58046 7.81183 9.27039 7.93503 9.86177 7.68863C10.4531 7.44222 10.8474 6.85085 10.8474 6.21019C10.8474 5.7913 10.6749 5.37241 10.3792 5.07672C10.0835 4.78103 9.66464 4.60855 9.24575 4.60855ZM9.24575 9.21635C8.03836 9.21635 6.95417 8.47713 6.486 7.3683C6.01783 6.25947 6.28887 4.95352 7.12666 4.09109C7.98908 3.22867 9.27039 2.98226 10.3792 3.45044C11.4881 3.91861 12.2273 5.0028 12.2273 6.21019C12.2273 7.86111 10.8967 9.21635 9.24575 9.21635Z" fill="#592B8A"/>
<path d="M16.1168 4.60855C15.4762 4.60855 14.8848 5.0028 14.6384 5.59417C14.392 6.18555 14.5152 6.90013 14.9834 7.34366C15.4515 7.81183 16.1415 7.93503 16.7329 7.68863C17.3242 7.44222 17.7185 6.85085 17.7185 6.21019C17.7185 5.7913 17.546 5.37241 17.2503 5.07672C16.9546 4.78103 16.5357 4.60855 16.1168 4.60855ZM16.1168 9.21635C14.9095 9.21635 13.8253 8.47713 13.3571 7.3683C12.8889 6.25947 13.16 4.95352 13.9978 4.09109C14.8602 3.22867 16.1415 2.98226 17.2503 3.45044C18.3591 3.91861 19.0984 5.0028 19.0984 6.21019C19.0984 7.86111 17.7678 9.21635 16.1168 9.21635Z" fill="#592B8A"/>
<path d="M30.7315 4.60764C29.8445 4.60764 29.1299 5.32222 29.1299 6.23393C29.1299 7.14563 29.8445 7.86021 30.7315 7.86021H50.2469C51.134 7.86021 51.8486 7.14563 51.8486 6.23393C51.8486 5.32222 51.134 4.60764 50.2469 4.60764H30.7315ZM50.2469 9.21545H30.7315C29.0806 9.21545 27.75 7.86021 27.75 6.20929C27.75 4.55836 29.0806 3.20312 30.7315 3.20312H50.2469C51.8978 3.20312 53.2284 4.55836 53.2284 6.20929C53.2284 7.86021 51.8978 9.21545 50.2469 9.21545Z" fill="#592B8A"/>
<path d="M35.6098 30.3076C35.7823 30.4801 36.078 30.554 36.3244 30.4554C36.5708 30.3569 36.7186 30.1105 36.7186 29.8641C36.7186 29.6177 36.5708 29.3712 36.3244 29.2727C36.078 29.1741 35.8069 29.2234 35.6098 29.4205C35.3634 29.6669 35.3634 30.0858 35.6098 30.3569V30.3076ZM36.078 31.8846C35.5359 31.8846 35.0184 31.6628 34.6488 31.2932C33.9589 30.6033 33.8603 29.5191 34.4024 28.7306C34.9445 27.9174 35.9794 27.5971 36.8665 27.9914C37.7535 28.361 38.271 29.322 38.0739 30.2583C37.8767 31.2193 37.0636 31.9092 36.078 31.9092V31.8846ZM30.5585 26.1926C30.2135 26.1926 29.8932 26.3404 29.6468 26.5622L19.963 36.2953C19.4702 36.7881 19.4702 37.6259 19.963 38.1187L27.9958 46.2008C28.4886 46.7183 29.3264 46.7183 29.8192 46.2008L39.503 36.4678C39.7741 36.1967 39.8973 35.8271 39.8726 35.4328L39.2566 27.9914C39.2073 27.3507 38.7145 26.8579 38.0739 26.8086L30.657 26.1926C30.657 26.1926 30.5831 26.1926 30.5338 26.1926H30.5585ZM28.9075 47.9749C28.193 47.9749 27.5277 47.7039 27.0102 47.1864L18.9774 39.1043C17.9424 38.0448 17.9424 36.3692 18.9774 35.3096L28.6611 25.5766C29.2279 25.0098 29.9917 24.7388 30.7802 24.8127L38.1971 25.4287C39.503 25.5273 40.5379 26.5622 40.6365 27.8682L41.2525 35.3343C41.3264 36.1228 41.0307 36.8866 40.4886 37.4534L30.8049 47.1864C30.3121 47.6793 29.6221 47.9749 28.9075 47.9749Z" fill="#592B8A"/>
</g>
</g>
<defs>
<clipPath id="clip0_747_2310">
<rect width="57.6099" height="48" fill="white" transform="translate(0.939453)"/>
</clipPath>
</defs>
</svg>
