<svg width="51" height="49" viewBox="0 0 51 49" fill="none" xmlns="http://www.w3.org/2000/svg">
<g clip-path="url(#clip0_747_2257)">
<mask id="mask0_747_2257" style="mask-type:luminance" maskUnits="userSpaceOnUse" x="0" y="0" width="51" height="49">
<path d="M50.7588 0.5H0.939453V48.5H50.7588V0.5Z" fill="white"/>
</mask>
<g mask="url(#mask0_747_2257)">
<path d="M42.8834 13.3872C41.4628 13.3872 40.3164 12.2407 40.3164 10.7953C40.3164 9.34977 41.4628 8.20336 42.8834 8.20336C44.3039 8.20336 45.4504 9.34977 45.4504 10.7953C45.4504 12.2407 44.3039 13.3872 42.8834 13.3872ZM42.8834 6.65818C40.6155 6.65818 38.7712 8.52734 38.7712 10.7953C38.7712 13.0632 40.6155 14.9573 42.8834 14.9573C45.1513 14.9573 46.9955 13.0881 46.9955 10.7953C46.9955 8.50242 45.1513 6.65818 42.8834 6.65818ZM48.1918 15.1566C47.1949 16.8264 45.6497 18.7953 44.1793 20.7143C43.8803 21.0881 43.5812 21.4868 43.2821 21.8607C43.1824 21.9853 43.0578 22.0601 42.8834 22.0601C42.7089 22.0601 42.5843 21.9853 42.4846 21.8607C42.1856 21.4868 41.8865 21.0881 41.5874 20.6893C40.117 18.7953 38.5719 16.8264 37.575 15.1566C35.955 12.4401 36.279 8.80149 38.3226 6.50865C39.4441 5.23762 41.1139 4.51488 42.8834 4.51488C44.6528 4.51488 46.3226 5.23762 47.4441 6.50865C49.4877 8.80149 49.7868 12.4401 48.1918 15.1566ZM46.9955 24.4775C46.9955 30.6582 44.5033 36.2657 40.4909 40.303C39.3943 36.8389 38.6965 33.7485 38.3226 30.6582C38.0236 28.1411 37.55 27.0943 36.6528 26.87C35.6061 26.6208 34.8335 27.7423 34.036 28.9386C33.6871 29.4619 33.089 30.3342 32.8398 30.4588C32.5656 30.5585 31.3444 30.2594 29.6497 29.113C28.0298 28.0164 26.7089 26.6457 26.2354 25.5492C25.8117 24.6021 26.036 23.9791 26.9332 23.4806C27.0329 23.4308 27.2074 23.356 27.4067 23.3062C28.3289 23.0071 30.2229 22.3591 30.198 19.7174C30.198 17.6738 32.8896 16.7516 36.279 15.9292C36.279 15.9292 36.279 15.9292 36.279 15.9541C37.3257 17.6987 38.8709 19.7174 40.3912 21.6364C40.6902 22.0351 40.9893 22.409 41.2884 22.8077C41.6871 23.3311 42.2603 23.6052 42.9083 23.6052C43.5563 23.6052 44.1295 23.3311 44.5282 22.8077C44.8024 22.4339 45.1014 22.0601 45.4005 21.6862C45.7993 21.1878 46.198 20.6644 46.5719 20.166C46.846 21.5865 46.9706 23.032 46.9706 24.4775M15.0454 44.6644C15.7681 43.3685 16.4909 42.546 17.3881 42.0725C17.3881 42.0725 17.4379 42.0725 17.4379 42.0476C19.4317 40.7766 21.0516 39.356 22.1731 37.9604C23.469 36.3404 24.0173 34.7703 23.7432 33.4495C23.4192 31.8295 22.0485 30.6582 19.631 30.0102C20.0547 29.3872 20.4784 28.789 20.8024 28.2158C22.7463 24.9261 22.3476 20.5149 19.8803 17.7236C18.4846 16.1535 16.441 15.2314 14.2479 15.2065C15.2946 14.2594 16.5407 13.4868 18.0609 12.8139C24.117 10.1722 26.8834 7.08186 30.2229 2.74541C32.5905 3.34354 34.8585 4.34043 36.927 5.73607C34.9831 8.12859 34.4846 11.5678 35.5314 14.4837C32.3413 15.2812 28.5282 16.4775 28.5781 19.7423C28.5781 21.2625 27.7557 21.5367 26.8585 21.8358C26.5843 21.9354 26.36 22.0102 26.1357 22.1099C24.4909 23.0071 23.9924 24.5273 24.7899 26.247C25.413 27.6177 26.9083 29.1878 28.8024 30.4588C29.7245 31.0819 32.0173 32.4526 33.3382 31.9292C34.0859 31.6551 34.6591 30.7579 35.2821 29.8358C35.5563 29.437 35.955 28.8139 36.2292 28.5398C36.3538 28.8139 36.5532 29.437 36.7276 30.8576C37.1513 34.2719 37.9239 37.6613 39.1949 41.4744C35.3071 44.8389 30.2479 46.9074 24.7152 46.9074C21.251 46.9074 17.9613 46.085 15.0454 44.6644ZM4.45347 33.6738C5.42543 31.6052 6.44724 29.8108 7.54381 28.2158C8.59054 29.9604 10.1357 31.9541 11.631 33.8731C11.9301 34.2719 12.2541 34.6706 12.5532 35.0694C12.9519 35.5928 13.5251 35.8669 14.1731 35.8669C14.8211 35.8669 15.3943 35.5928 15.793 35.0694C16.0921 34.6956 16.3912 34.2968 16.7152 33.8981C17.3631 33.0507 18.036 32.2283 18.6591 31.3809C20.2541 31.7298 21.9986 32.4277 22.2479 33.7485C22.5968 35.5429 20.3538 38.3342 16.6653 40.7267C15.2447 41.4744 14.3476 42.7703 13.6996 43.9666C9.66219 41.6239 6.3974 38.0102 4.47839 33.6987M2.70892 21.7361C3.8055 22.0102 4.87715 22.1348 5.92388 22.1348C6.09833 22.1348 6.27279 22.1348 6.44724 22.1348C6.19802 23.6301 6.32263 25.1753 6.82107 26.6208C5.7245 28.141 4.70269 29.8108 3.70581 31.7548C2.93322 29.4868 2.53447 27.0694 2.53447 24.5523C2.53447 23.6052 2.58431 22.6831 2.70892 21.761M19.5064 27.4682C18.5095 29.1379 16.9893 31.0819 15.5189 32.9759C15.2198 33.3747 14.8958 33.7734 14.5968 34.1473C14.4971 34.2968 14.3725 34.3467 14.198 34.3467C14.0236 34.3467 13.899 34.2719 13.7993 34.1473C13.5002 33.7734 13.2011 33.3498 12.8771 32.951C11.4067 31.0569 9.88649 29.113 8.88961 27.4432C8.71515 27.1442 8.5407 26.8202 8.41609 26.4713C8.41609 26.4463 8.41609 26.4214 8.39117 26.3965C7.79304 24.8513 7.71827 23.1068 8.16687 21.5118C8.16687 21.5118 8.16687 21.4619 8.16687 21.437C8.46593 20.465 8.93945 19.5429 9.61235 18.7953C10.7338 17.5242 12.4036 16.8015 14.1731 16.8015C15.9426 16.8015 17.6123 17.5242 18.7338 18.7953C20.7775 21.0881 21.1014 24.7267 19.4815 27.4432M24.7401 2.07252C26.036 2.07252 27.3071 2.19713 28.5282 2.3965C25.4628 6.3342 22.8958 9.00086 17.4379 11.3685C15.0204 12.4152 13.2011 13.761 11.7806 15.5554C10.5095 15.9541 9.33821 16.7018 8.44101 17.6987C7.71827 18.5211 7.16998 19.4682 6.82107 20.465C5.55004 20.5647 4.25409 20.465 2.9083 20.1161C4.92699 9.87314 13.9488 2.07252 24.7401 2.07252ZM48.5905 5.48685C47.17 3.89183 45.1014 2.96971 42.8834 2.96971C41.089 2.96971 39.4192 3.56784 38.0734 4.63949C34.1357 1.9479 29.5251 0.527344 24.7401 0.527344C18.3849 0.527344 12.4036 3.01956 7.91765 7.55538C3.43166 12.0663 0.939453 18.0974 0.939453 24.5024C0.939453 30.9074 3.40674 36.9386 7.91765 41.4744C12.4036 46.0102 18.3849 48.5024 24.7401 48.5024C31.0952 48.5024 37.0765 46.0102 41.5625 41.4744C46.0485 36.9386 48.5407 30.9074 48.5407 24.5024C48.5407 22.4837 48.2915 20.49 47.793 18.546C48.441 17.6488 49.0391 16.8015 49.5127 15.9791C51.4566 12.6893 51.0828 8.27812 48.5905 5.48685ZM14.1731 25.6488C12.7525 25.6488 11.6061 24.5024 11.6061 23.0569C11.6061 21.6115 12.7525 20.465 14.1731 20.465C15.5937 20.465 16.7401 21.6115 16.7401 23.0569C16.7401 24.5024 15.5937 25.6488 14.1731 25.6488ZM14.1731 18.9199C11.9052 18.9199 10.0609 20.789 10.0609 23.0819C10.0609 25.3747 11.9052 27.2189 14.1731 27.2189C16.441 27.2189 18.2852 25.3498 18.2852 23.0819C18.2852 20.8139 16.441 18.9199 14.1731 18.9199Z" fill="#592B8A"/>
</g>
</g>
<defs>
<clipPath id="clip0_747_2257">
<rect width="49.8193" height="48" fill="white" transform="translate(0.939453 0.5)"/>
</clipPath>
</defs>
</svg>
