<svg width="35" height="48" viewBox="0 0 35 48" fill="none" xmlns="http://www.w3.org/2000/svg">
<g clip-path="url(#clip0_747_2282)">
<mask id="mask0_747_2282" style="mask-type:luminance" maskUnits="userSpaceOnUse" x="0" y="0" width="35" height="48">
<path d="M34.2097 0H0.939453V48H34.2097V0Z" fill="white"/>
</mask>
<g mask="url(#mask0_747_2282)">
<path d="M17.5746 1.88067L32.4753 12.4089V41.2089H24.1944C23.7059 41.2089 23.315 41.5753 23.315 42.0639C23.315 42.5524 23.7059 42.8944 24.1944 42.8944H32.4753V46.3143H2.6738V42.8944H12.5425C13.0311 42.8944 13.4219 42.528 13.4219 42.0394C13.4219 41.5509 13.0311 41.1845 12.5425 41.1845H2.6738V12.4089L17.5746 1.88067ZM1.79441 47.9998H33.3303C33.8188 47.9998 34.2097 47.6333 34.2097 47.1692V11.9936C34.2097 11.7249 34.0875 11.4807 33.8433 11.3097L18.0875 0.170745C17.77 -0.0491025 17.3791 -0.0491025 17.0616 0.170745L1.30587 11.3097C1.06159 11.4562 0.939453 11.7249 0.939453 11.9936V47.1692C0.939453 47.6333 1.33029 48.0242 1.79441 48.0242V47.9998Z" fill="#592B8A"/>
<path d="M15.0583 25.4268C15.327 25.378 15.5957 25.207 15.7178 24.9627L17.5743 21.2986L19.4308 24.9627C19.5529 25.207 19.7972 25.378 20.0903 25.4268L24.243 26.0131L21.2384 28.8711C21.043 29.0665 20.9453 29.3352 20.9941 29.6039L21.7025 33.6345L17.9896 31.7291C17.8674 31.6559 17.7209 31.6314 17.5987 31.6314C17.4766 31.6314 17.33 31.6559 17.2079 31.7291L13.4949 33.6345L14.2033 29.6039C14.2522 29.3352 14.1544 29.0421 13.959 28.8711L10.9544 26.0131L15.1071 25.4268H15.0583ZM12.3712 29.7505L11.443 35.0268C11.3941 35.3444 11.5163 35.662 11.785 35.8574C12.0537 36.0528 12.4201 36.0772 12.7132 35.9307L17.5743 33.4391L22.4598 35.9307C22.5819 36.0039 22.7285 36.0284 22.8506 36.0284C23.0216 36.0284 23.217 35.9795 23.3636 35.8574C23.6323 35.662 23.7544 35.3444 23.7056 35.0268L22.7773 29.7505L26.7102 26.0131C26.9544 25.7933 27.0277 25.4513 26.93 25.1581C26.8323 24.8406 26.5636 24.6207 26.2216 24.5963L20.7743 23.8146L18.3315 19.0268C18.0384 18.465 17.0613 18.465 16.7682 19.0268L14.3254 23.8146L8.87811 24.5963C8.56055 24.6452 8.29185 24.865 8.16971 25.1581C8.072 25.4513 8.16971 25.7933 8.38956 26.0131L12.3224 29.7505H12.3712Z" fill="#592B8A"/>
<path d="M17.5753 7.69331C18.699 7.69331 19.6272 8.5727 19.6272 9.67193C19.6272 10.7712 18.699 11.6506 17.5753 11.6506C16.4517 11.6506 15.5234 10.7467 15.5234 9.67193C15.5234 8.59713 16.4517 7.69331 17.5753 7.69331ZM17.5753 13.3361C19.6517 13.3361 21.3616 11.6994 21.3616 9.67193C21.3616 7.64445 19.6761 6.00781 17.5753 6.00781C15.4746 6.00781 13.7891 7.64445 13.7891 9.67193C13.7891 11.6994 15.4746 13.3361 17.5753 13.3361Z" fill="#592B8A"/>
<path d="M21.0916 41.4527C21.0916 41.4527 20.9206 41.3061 20.8229 41.2572C20.5054 41.1351 20.1145 41.2084 19.8703 41.4527C19.797 41.5259 19.7237 41.6237 19.6748 41.7214C19.626 41.8435 19.6016 41.9412 19.6016 42.0389C19.6016 42.1366 19.6016 42.2588 19.6748 42.3565C19.7237 42.4542 19.797 42.5519 19.8703 42.6252C20.0413 42.7962 20.2611 42.8695 20.481 42.8695C20.6031 42.8695 20.7008 42.8695 20.8229 42.8206C20.9206 42.7717 21.0184 42.7229 21.0916 42.6252C21.1893 42.5519 21.2382 42.4542 21.2871 42.3565C21.3359 42.2343 21.3603 42.1366 21.3603 42.0389C21.3603 41.9168 21.3359 41.8191 21.2871 41.7214C21.2382 41.6237 21.1893 41.5259 21.0916 41.4527Z" fill="#592B8A"/>
<path d="M17.2088 41.453C16.8668 41.1355 16.305 41.1355 15.9874 41.453C15.9142 41.5263 15.8409 41.624 15.8164 41.7217C15.7676 41.8439 15.7432 41.9416 15.7432 42.0393C15.7432 42.0881 15.7432 42.137 15.7432 42.2103C15.7432 42.2591 15.7676 42.308 15.792 42.3813C15.792 42.4301 15.8409 42.479 15.8653 42.5278C15.8897 42.5767 15.9386 42.6255 15.963 42.65C16.134 42.821 16.3539 42.8942 16.5737 42.8942C16.7935 42.8942 17.0134 42.7965 17.1844 42.65C17.2088 42.6255 17.2577 42.5767 17.2821 42.5278C17.3065 42.479 17.3309 42.4301 17.3554 42.3813C17.3554 42.3324 17.4042 42.2591 17.4042 42.2103C17.4042 42.1614 17.4042 42.0881 17.4042 42.0393C17.4042 41.9171 17.3798 41.8194 17.331 41.7217C17.2821 41.624 17.2332 41.5263 17.16 41.453" fill="#592B8A"/>
</g>
</g>
<defs>
<clipPath id="clip0_747_2282">
<rect width="33.2702" height="48" fill="white" transform="translate(0.939453)"/>
</clipPath>
</defs>
</svg>
