<svg width="48" height="49" viewBox="0 0 48 49" fill="none" xmlns="http://www.w3.org/2000/svg">
<mask id="mask0_747_2240" style="mask-type:luminance" maskUnits="userSpaceOnUse" x="0" y="0" width="48" height="49">
<path d="M47.094 0.371094H0.364258V48.3711H47.094V0.371094Z" fill="white"/>
</mask>
<g mask="url(#mask0_747_2240)">
<path d="M8.42533 22.3314C8.49861 22.478 8.57189 22.6001 8.6696 22.7467C9.52456 24.0169 10.9414 24.7497 12.4314 24.7253C13.9215 24.7009 15.3139 23.8948 16.12 22.6001C16.2177 22.7467 16.3154 22.8932 16.4131 23.0154C17.3414 24.1635 18.7093 24.7741 20.1505 24.7253C21.5917 24.652 22.9108 23.8948 23.7169 22.6978C24.523 23.9192 25.8665 24.6764 27.2833 24.7253C28.7246 24.7986 30.0925 24.1635 31.0207 23.0154C31.1429 22.8932 31.2406 22.7467 31.3383 22.6001C32.1444 23.8948 33.5368 24.6764 35.0269 24.7009C36.5169 24.7253 37.9337 23.9925 38.7887 22.7222C38.862 22.6001 38.9597 22.4535 39.033 22.307C39.4971 23.2352 40.2543 23.968 41.207 24.3589V46.71H34.0498V32.8352C34.0498 32.6154 33.9765 32.3955 33.8055 32.249C33.6589 32.1024 33.4391 32.0047 33.2436 32.0047H14.2635C13.8238 32.0047 13.4574 32.3711 13.4574 32.8352V46.71H6.27571V24.3589C7.20395 23.968 7.9612 23.2352 8.42533 22.307V22.3314ZM2.34288 21.6963C1.87876 20.8657 1.87876 19.8154 2.34288 18.9848L7.22838 10.1665H11.2589L7.1551 21.3054C6.78869 22.2825 5.9093 22.9665 4.88334 23.0642C3.85739 23.1375 2.88029 22.6245 2.36731 21.7207L2.34288 21.6963ZM13.2131 2.03216H34.2696V8.50544H13.2131V2.03216ZM15.1673 20.6703C14.8986 22.0627 13.7261 23.0642 12.3582 23.0642C11.4055 23.0642 10.5505 22.6001 10.0131 21.794C9.47571 21.0123 9.35357 19.9864 9.69556 19.0825L12.9933 10.1665H17.1215L15.1917 20.6703H15.1673ZM22.9352 20.0108C22.9352 20.8657 22.5688 21.6719 21.9337 22.2337C21.323 22.7955 20.4925 23.0642 19.662 22.9909C18.8314 22.9177 18.0742 22.478 17.5856 21.794C17.0971 21.11 16.8772 20.2551 17.0238 19.4001L18.7337 10.1177H22.9352V19.9864V20.0108ZM29.8238 21.965C29.0177 22.9421 27.6986 23.3329 26.5261 22.8932C25.3536 22.4535 24.5475 21.3054 24.5475 20.0108V10.1665H28.749L30.4589 19.4001C30.6299 20.3039 30.4101 21.2322 29.8238 21.9406M37.494 21.7696C36.9566 22.5757 36.0772 23.0398 35.149 23.0398C33.7811 23.0398 32.5841 22.0383 32.3398 20.6459L30.4101 10.1421H34.5383L37.836 19.0581C38.178 19.9619 38.0559 20.9635 37.5185 21.7696H37.494ZM45.1643 18.9604C45.7749 20.3283 45.2131 21.965 43.8696 22.6001C42.5261 23.2352 40.9383 22.649 40.3276 21.281L36.2238 10.1421H40.2543L45.1643 18.9604ZM32.462 46.71H15.094V33.6658H32.462V46.71ZM46.3368 46.71H42.8436V24.7009C44.3581 24.7009 45.7749 23.8703 46.5322 22.5268C47.2894 21.1833 47.3139 19.5222 46.5322 18.1543L41.4757 8.92071C41.3291 8.65201 41.0604 8.50544 40.7673 8.50544H35.9307V1.20163C35.9307 0.981781 35.833 0.761933 35.6864 0.615369C35.5398 0.468804 35.32 0.371094 35.1246 0.371094H12.407C11.9673 0.371094 11.6009 0.737506 11.6009 1.20163V8.50544H6.76426C6.47113 8.50544 6.20243 8.67644 6.05586 8.92071L0.92609 18.1543C0.168838 19.5222 0.193265 21.1833 0.92609 22.5268C1.68334 23.8703 3.10014 24.7009 4.61464 24.7009V46.71H1.17036C0.73067 46.71 0.364258 47.0764 0.364258 47.5406C0.364258 48.0047 0.73067 48.3711 1.17036 48.3711H46.2879C46.7276 48.3711 47.094 48.0047 47.094 47.5406C47.094 47.0764 46.7276 46.71 46.2879 46.71H46.3368Z" fill="#592B8A"/>
</g>
</svg>
