<svg width="60" height="48" viewBox="0 0 60 48" fill="none" xmlns="http://www.w3.org/2000/svg">
<mask id="mask0_1430_583" style="mask-type:luminance" maskUnits="userSpaceOnUse" x="0" y="0" width="60" height="48">
<path d="M59.5517 0H0V48H59.5517V0Z" fill="white"/>
</mask>
<g mask="url(#mask0_1430_583)">
<path d="M9.31622 2.44541C8.87372 2.91121 8.26819 4.19214 7.89555 4.84425C5.65974 8.80349 3.58696 12.9025 1.4676 16.9316C1.258 17.9098 1.97998 19.1907 3.00472 19.377L56.6641 19.3304C57.6656 19.0509 58.3875 17.7001 57.9916 16.722C55.453 12.5298 53.4734 7.49927 50.8417 3.40029C50.0266 2.11936 49.3977 1.60699 47.814 1.49054H11.5753C10.8068 1.53712 9.85188 1.88646 9.31622 2.44541ZM53.5666 20.9374V46.1135C53.5666 46.393 53.0775 47.115 52.8213 47.3013C51.6801 48.1397 46.603 48.3959 46.3468 46.2067L46.2769 23.8486C46.2769 23.1033 47.2551 22.9636 47.5578 23.639L47.6743 45.4847C47.7209 45.6943 47.8373 46.0902 48.0004 46.2067C48.2332 46.393 51.3541 46.4163 51.7267 46.3231C51.9363 46.2533 52.2856 45.6943 52.2856 45.5313V20.9374H7.3366V43.4352C7.3366 43.4352 7.54621 44.3901 7.59278 44.5298C7.96542 45.5313 8.87372 46.2533 9.94504 46.3697C16.9319 45.9039 24.6874 46.9753 31.5811 46.3697C33.421 46.2067 34.1896 44.8326 34.3293 43.1558V23.8719C34.4458 22.8937 35.6335 23.1033 35.6801 24.0116V43.901C35.2609 46.3697 33.5608 47.6739 31.1386 47.8603C24.4312 47.4178 17.0251 48.4192 10.4108 47.8603C8.52437 47.6972 6.00909 46.1834 6.00909 44.0408V20.9607H3.09788C2.58551 20.9607 1.49089 20.3552 1.07168 19.9825C-0.209253 18.7948 -0.232543 17.1412 0.442858 15.6274C2.46906 11.1092 5.65974 6.61427 7.80239 2.07278C8.75727 0.791849 9.99162 0.116448 11.5753 0H47.814C50.0964 0.163028 51.0746 1.02475 52.2391 2.88792C54.2187 6.0786 56.3148 10.2475 58.0615 13.6477C59.0862 15.6507 60.4603 17.4905 58.7602 19.6332C58.2944 20.2154 57.0367 20.9374 56.3148 20.9374H53.5666Z" fill="#592D89"/>
<path d="M12.5072 23.1971C12.9729 23.1272 13.2524 23.593 13.299 23.9889C13.6716 26.8303 12.9031 30.5566 13.299 33.3979C13.3922 34.1199 13.5552 34.3295 14.2539 34.3994C18.4227 34.8186 23.2903 34.0733 27.5523 34.3994C28.2277 34.3994 28.3208 33.6774 28.3674 33.1185C28.6469 30.1374 28.1578 26.7371 28.3674 23.7094C28.8565 22.7779 29.6251 23.1971 29.7182 24.1519C29.9511 26.4809 29.9278 31.395 29.7182 33.724C29.5785 35.2611 28.6935 35.7735 27.2495 35.8899C23.1505 36.2393 18.5625 35.6105 14.4169 35.8899C12.9729 35.7502 12.0879 35.2611 11.9482 33.724C11.6687 30.5799 12.1811 27.0399 11.9482 23.8492C11.9016 23.5231 12.2044 23.2436 12.5072 23.1971Z" fill="#592D89"/>
</g>
</svg>
