<svg width="53" height="48" viewBox="0 0 53 48" fill="none" xmlns="http://www.w3.org/2000/svg">
<mask id="mask0_747_2269" style="mask-type:luminance" maskUnits="userSpaceOnUse" x="0" y="0" width="53" height="48">
<path d="M52.4814 0H0.939453V48H52.4814V0Z" fill="white"/>
</mask>
<g mask="url(#mask0_747_2269)">
<path d="M7.99987 2.00305L2.84567 44.8C2.79682 45.142 2.89453 45.4107 3.11437 45.6305C3.33422 45.8504 3.60292 46.0214 3.92048 46.0214H42.9312C43.3709 46.0214 43.7861 45.8504 44.177 45.6305C45.4228 44.7511 46.9128 44.2382 48.5739 44.1405L49.8197 44.0916C50.0396 44.0916 50.2594 43.9695 50.406 43.8229C50.577 43.6519 50.6258 43.4321 50.6258 43.2122L44.6899 2.00305H7.99987ZM42.9312 48H3.92048C3.06552 48 2.25941 47.6092 1.67315 46.9496C1.08689 46.2901 0.867047 45.4107 0.964756 44.5069L6.28995 0H46.3022L52.4823 42.9679C52.5312 43.7496 52.3113 44.5069 51.8472 45.1176C51.3586 45.7282 50.6014 46.0702 49.8686 46.0702L48.6961 46.1191C47.4014 46.1679 46.2289 46.5588 45.3006 47.2183C44.5922 47.7069 43.7861 48 42.9312 48Z" fill="#592B8A"/>
<path d="M31.7438 11.678C31.2064 11.678 30.7179 11.2383 30.7179 10.6277C30.7179 10.0658 31.1576 9.57727 31.7438 9.57727C32.2812 9.57727 32.7698 10.017 32.7698 10.6277C32.7698 11.2383 32.3301 11.678 31.7438 11.678ZM31.7438 7.57422C30.0828 7.57422 28.7393 8.96659 28.7393 10.6765C28.7393 12.3864 30.0828 13.7788 31.7438 13.7788C33.4049 13.7788 34.7484 12.3864 34.7484 10.6765C34.7484 8.96659 33.4049 7.57422 31.7438 7.57422Z" fill="#592B8A"/>
<path d="M16.7702 11.678C16.2328 11.678 15.7443 11.2383 15.7443 10.6277C15.7443 10.0658 16.1839 9.57727 16.7702 9.57727C17.3565 9.57727 17.7962 10.017 17.7962 10.6277C17.7962 11.2383 17.3076 11.678 16.7702 11.678ZM16.7702 7.57422C15.1091 7.57422 13.7656 8.96659 13.7656 10.6765C13.7656 12.3864 15.1091 13.7788 16.7702 13.7788C18.4313 13.7788 19.7748 12.3864 19.7748 10.6765C19.7748 8.96659 18.4313 7.57422 16.7702 7.57422Z" fill="#592B8A"/>
<path d="M31.7432 10.6739H31.6943C31.1569 10.6739 30.6684 11.1136 30.6684 11.7242C30.6684 11.8952 30.7172 11.9929 30.7172 12.1151V17.367C30.7172 21.08 27.8104 24.0601 24.2195 24.0601C20.6287 24.0601 17.7218 21.08 17.7218 17.367V11.6754C17.7218 11.1136 17.2821 10.625 16.6959 10.625C16.1096 10.625 15.6699 11.0647 15.6699 11.6754V17.3181C15.6699 22.1303 19.4806 26.0632 24.1463 26.0632C28.8119 26.0632 32.647 22.1303 32.647 17.3181V11.6754C32.7447 11.1136 32.3295 10.6739 31.7432 10.6739Z" fill="#592B8A"/>
</g>
</svg>
