<?xml version="1.0" encoding="UTF-8"?>
<svg id="Layer_2" data-name="Layer 2" xmlns="http://www.w3.org/2000/svg" xmlns:xlink="http://www.w3.org/1999/xlink" viewBox="0 0 60.34 63.29">
  <defs>
    <style>
      .cls-1 {
        fill: #592d89;
      }

      .cls-2 {
        fill: none;
      }

      .cls-3 {
        clip-path: url(#clippath);
      }
    </style>
    <clipPath id="clippath">
      <rect class="cls-2" width="60.34" height="63.29"/>
    </clipPath>
  </defs>
  <g id="Layer_1-2" data-name="Layer 1">
    <g class="cls-3">
      <path class="cls-1" d="M2.03,59.58c-.31.11-.25,1.66-.08,1.78l56.15.06.35-.12-.06-1.68-56.36-.04ZM37.22,41.27h-6.11v16.44h6.11v-7.73c0-1.01,1.76-1,1.76-.25v7.97h15.99v-16.44h-15.99v4.88c0,.2-.67.59-.97.54-.3-.06-.79-.62-.79-.91v-4.51ZM29.23,41.27h-6.11v16.44h6.11v-16.44ZM21.35,41.27H5.36v16.44h15.99v-16.44ZM58.5,35.59H1.84v3.83h56.67v-3.83ZM57.68,33.73l-2.17-3.71-.35-.13H5.07s-.24.13-.24.13l-2.17,3.71h55.02ZM54.98,15.19h-9.76v12.85h9.76v-12.85ZM43.34,15.19h-1.65c-1,5.22-5.51,9.3-10.58,9.64v3.21h12.23v-12.85ZM18.65,15.19h-1.65v12.85h12.23v-3.21c-5.06-.35-9.58-4.41-10.58-9.64M15.12,15.19H5.36v12.85h9.76v-12.85ZM42.04,13.34h16.28c.28-.4.29-1.44,0-1.85h-16.28v1.85ZM18.3,11.49H2.01c-.28.4-.29,1.44,0,1.85h16.28v-1.85ZM1.54,15.19c-.66-.14-1.39-1.2-1.47-1.91-.18-1.73.12-3.47,2.05-3.65h16.45c.31-.83.51-1.73.87-2.55.37-.84,1.95-3.43,2.75-3.67.75-.22,1.22.57,1.01,1.32-.03.12-1.21,1.47-1.43,1.83-6.39,10.17,6.06,21.75,14.8,14.08,9.1-7.99,0-22.9-10.7-17.8-.77-.03-1.24-.65-.86-1.4.29-.57,1.86-.96,2.47-1.1,6.56-1.54,12.59,2.62,14.28,9.32h16.45c.92.05,1.75.66,1.97,1.62.18.81.19,2.31-.27,3.01-.14.21-.92.93-1.12.93h-2.06v13.53l3.52,5.82c-.17,1.56.26,3.81-.02,5.28-.13.68-1.02,1.45-1.68,1.45h-1.82v16.44h1.94c.69,0,1.51,1.21,1.59,1.91.15,1.43.05,2.9-1.35,3.53-18.99.27-38.02.04-57.02.12-1.78-.35-2-2-1.82-3.65.08-.71.9-1.91,1.59-1.91h1.94v-16.44h-1.82c-.65,0-1.55-.77-1.68-1.45-.29-1.47.15-3.72-.02-5.28l3.52-5.82v-13.53c-.61-.09-1.49.12-2.06,0"/>
      <path class="cls-1" d="M26.11,17.54h8.11l.15-.28-.92-7.88h-.59c.49,2.76-2.19,2.66-1.76,0h-1.88c.43,2.66-2.25,2.76-1.76,0h-.59l-.92,7.88.15.28ZM31.11,7.53c.47-2.88-2.35-2.88-1.88,0h1.88ZM27.46,5.74c.34-2.13,3.27-2.93,4.7-1.32.17.19.71,1.12.71,1.32v1.79c1.35-.09,2.08.25,2.34,1.68.48,2.65.49,5.58.95,8.25-.12.99-.7,1.84-1.69,1.94-2.76.27-5.91-.22-8.71,0-.96-.19-1.51-1.04-1.58-2.04l1.09-8.74c.34-.98,1.31-1.17,2.2-1.08.06-.55-.08-1.27,0-1.79"/>
      <path class="cls-1" d="M51.45,46.46h-8.94v5.87l.18.18h8.76v-6.06ZM42.01,44.64c3.08.18,6.58-.33,9.62-.03.82.08,1.48.67,1.58,1.55.16,1.36.15,5.18,0,6.55-.1.94-.79,1.63-1.7,1.67-2.89-.21-6.1.26-8.94,0-1.19-.11-1.71-.85-1.82-2.05-.1-1.19-.15-5.54.15-6.51.19-.61.52-.99,1.11-1.18"/>
      <path class="cls-1" d="M17.82,46.46h-8.94v6.06h8.76l.18-.19v-5.87ZM8.39,44.64l9.73-.03c1.03.15,1.39,1.05,1.47,2.04.12,1.48.12,4.22,0,5.69-.1,1.19-.65,1.93-1.82,2.04-2.88.27-6.13-.21-9.06,0-.86-.1-1.49-.76-1.59-1.67-.15-1.37-.16-5.19,0-6.55.08-.66.65-1.4,1.27-1.51"/>
    </g>
  </g>
</svg>