<svg width="64" height="65" viewBox="0 0 64 65" fill="none" xmlns="http://www.w3.org/2000/svg">
<g clip-path="url(#clip0_1324_683)">
<path d="M60.9502 61.45H64.0001V58.4H60.9502V61.45ZM6.09019 49.26V58.4H15.2302V49.26H6.09019ZM3.04021 46.21H18.2802V61.45H3.05011V46.21H3.04021ZM-0.00976562 43.1601V64.4901H21.3203V43.1601H0.000136897H-0.00976562ZM42.6503 27.9201H45.7003V24.8701H42.6503V27.9201ZM48.7403 6.59005V15.7301H57.8804V6.59995H48.7403V6.59005ZM6.08029 6.59005V15.7301H15.2203V6.59995H6.09019L6.08029 6.59005ZM45.7003 3.54007H60.9403V18.7801H45.7003V3.54998V3.54007ZM3.05011 3.54998H18.2901V18.79H3.05011V3.54998ZM42.6602 0.5V21.83H63.9902V0.5H42.6602ZM24.3702 24.88H27.4202V18.79H24.3702V24.88ZM3.04021 24.88H0.000136897V27.93H3.05011V24.88H3.04021ZM3.04021 37.07H0.000136897V40.12H3.05011V37.07H3.04021ZM15.2302 37.07H6.09019V40.12H15.2302V37.07ZM18.2802 34.02H15.2302V37.07H18.2802V34.02ZM60.9403 37.07H57.8903V40.12H60.9403V37.07ZM48.7503 30.98H45.7003V34.0299H48.7503V30.98ZM51.8002 40.12H54.8502V30.98H57.9002V34.0299H60.9502V37.0799H64.0001V30.9899H60.9502V27.9399H64.0001V24.8899H57.9101V27.9399H54.8601V24.8899H51.8101V27.9399H48.7602V30.9899H51.8101V40.1299L51.8002 40.12ZM48.7503 40.12V37.07H42.6602V40.12H48.7503ZM57.8903 55.36H60.9403V43.17H51.8002V40.12H48.7503V43.17H45.7003V49.26H48.7503V46.21H51.8002V52.31H57.8903V55.36ZM51.8002 58.4099H57.8903V55.36H51.8002V58.4099ZM45.7003 52.3199H42.6503V55.3699H45.7003V52.3199ZM36.5602 30.9899H33.5103V34.0398H30.4603V40.1299H33.5103V46.2199H27.4103V43.17H30.4603V40.12H27.4103V34.0299H24.3603V30.98H27.4103V34.0299H30.4603V27.9399H24.3702V24.8899H15.2302V27.9399H12.1802V30.9899H9.13026V27.9399H12.1802V24.8899H6.09019V27.9399H3.04021V37.0799H6.09019V34.0299H15.2302V30.98H18.2802V27.93H21.3302V30.98H18.2802V34.0299H21.3302V37.0799H18.2802V40.1299H24.3702V49.2699H27.4202V52.3199H36.5602V55.3699H27.4202V52.3199H24.3702V58.4099H27.4202V61.4599H24.3702V64.5099H30.4603V61.4599H33.5103V64.5099H45.7003V61.4599H48.7503V64.5099H57.8903V61.4599H51.8002V58.4099H48.7503V55.36H45.7003V58.4099H39.6102V61.4599H36.5602V58.4099H39.6102V49.2699H42.6602V46.2199H36.5701V43.17H39.6201V34.0299H36.5701V30.98L36.5602 30.9899ZM33.5103 9.65983H24.3702V12.7098H30.4603V15.7598H27.4103V18.8098H30.4603V21.8597H33.5103V18.8098H36.5602V21.8597H33.5103V24.9097H30.4603V27.9597H36.5602V31.0097H39.6102V15.7697H36.5602V12.7197H33.5103V9.66974V9.65983ZM33.5103 6.60986V9.65983H39.6003V0.5H36.5503V6.59995H33.5004L33.5103 6.60986ZM30.4603 6.60986H33.5103V3.55988H30.4603V6.60986ZM24.3801 0.5V6.59995H27.4301V3.54998H30.4801V0.5H24.39H24.3801ZM0.000136897 0.5V21.83H21.3302V0.5H0.000136897Z" fill="#592B8A"/>
</g>
<defs>
<clipPath id="clip0_1324_683">
<rect width="64" height="64" fill="white" transform="translate(0 0.5)"/>
</clipPath>
</defs>
</svg>
