<svg width="80" height="81" viewBox="0 0 80 81" fill="none" xmlns="http://www.w3.org/2000/svg">
<rect y="0.234375" width="80" height="80" rx="40" fill="url(#paint0_linear_1430_2980)"/>
<path d="M38.9 42.1144C38.9 43.5344 38.74 44.7844 38.42 45.8644C38.1 46.9244 37.65 47.8344 37.07 48.5944C36.49 49.3344 35.8 49.9344 35 50.3944C34.2 50.8344 33.31 51.1444 32.33 51.3244V51.9544C32.33 52.3544 32.41 52.6144 32.57 52.7344C32.75 52.8544 32.97 52.9144 33.23 52.9144H36.14C36.36 52.9144 36.53 52.9544 36.65 53.0344C36.79 53.1144 36.86 53.2344 36.86 53.3944V55.2544C36.86 55.5544 36.64 55.7644 36.2 55.8844C35.9 55.9644 35.45 56.0344 34.85 56.0944C34.25 56.1744 33.71 56.2144 33.23 56.2144C32.51 56.2144 31.85 56.1344 31.25 55.9744C30.67 55.8344 30.16 55.5944 29.72 55.2544C29.3 54.9144 28.97 54.4744 28.73 53.9344C28.49 53.4144 28.37 52.7744 28.37 52.0144V51.3244C27.39 51.1444 26.5 50.8344 25.7 50.3944C24.9 49.9344 24.21 49.3344 23.63 48.5944C23.05 47.8344 22.6 46.9244 22.28 45.8644C21.96 44.7844 21.8 43.5344 21.8 42.1144V38.0644C21.8 36.4244 22.01 35.0144 22.43 33.8344C22.87 32.6344 23.47 31.6644 24.23 30.9244C24.99 30.1644 25.89 29.6044 26.93 29.2444C27.97 28.8844 29.11 28.7044 30.35 28.7044C31.59 28.7044 32.73 28.8844 33.77 29.2444C34.81 29.6044 35.71 30.1644 36.47 30.9244C37.23 31.6644 37.82 32.6344 38.24 33.8344C38.68 35.0144 38.9 36.4244 38.9 38.0644V42.1144ZM34.7 38.0644C34.7 36.0644 34.34 34.6144 33.62 33.7144C32.92 32.7944 31.83 32.3344 30.35 32.3344C28.87 32.3344 27.77 32.7944 27.05 33.7144C26.35 34.6144 26 36.0644 26 38.0644V42.1144C26 44.1144 26.35 45.5744 27.05 46.4944C27.77 47.3944 28.87 47.8444 30.35 47.8444C31.83 47.8444 32.92 47.3944 33.62 46.4944C34.34 45.5744 34.7 44.1144 34.7 42.1144V38.0644ZM58.4729 45.2644C58.4729 45.4244 58.4129 45.5644 58.2929 45.6844C58.1729 45.8044 58.0329 45.8644 57.8729 45.8644H55.6529V50.6344C55.6529 50.7944 55.6029 50.9344 55.5029 51.0544C55.4029 51.1744 55.2729 51.2344 55.1129 51.2344H52.0229C51.8629 51.2344 51.7329 51.1744 51.6329 51.0544C51.5329 50.9344 51.4829 50.7944 51.4829 50.6344V45.8644H42.4829C42.3229 45.8644 42.1829 45.8044 42.0629 45.6844C41.9429 45.5644 41.8829 45.4244 41.8829 45.2644V42.8344C41.8829 42.4744 41.9929 42.1544 42.2129 41.8744L51.4529 29.4844C51.5529 29.3244 51.6629 29.1944 51.7829 29.0944C51.9229 28.9944 52.1029 28.9444 52.3229 28.9444H55.0529C55.2129 28.9444 55.3529 29.0044 55.4729 29.1244C55.5929 29.2444 55.6529 29.3844 55.6529 29.5444V42.5644H57.8729C58.0329 42.5644 58.1729 42.6244 58.2929 42.7444C58.4129 42.8644 58.4729 43.0044 58.4729 43.1644V45.2644ZM51.5129 34.9444C51.5129 34.8244 51.4829 34.7644 51.4229 34.7644C51.3629 34.7644 51.2929 34.8244 51.2129 34.9444L45.9629 42.2344C45.9029 42.2944 45.8729 42.3544 45.8729 42.4144C45.8729 42.5144 45.9529 42.5644 46.1129 42.5644H51.5129V34.9444Z" fill="#BB7FFF"/>
<defs>
<linearGradient id="paint0_linear_1430_2980" x1="9.5" y1="67.2344" x2="80" y2="31.2344" gradientUnits="userSpaceOnUse">
<stop stop-color="#20113E"/>
<stop offset="1" stop-color="#592B8A"/>
</linearGradient>
</defs>
</svg>
