<svg width="80" height="81" viewBox="0 0 80 81" fill="none" xmlns="http://www.w3.org/2000/svg">
<rect y="0.234375" width="80" height="80" rx="40" fill="url(#paint0_linear_1430_2968)"/>
<path d="M38.9 42.1144C38.9 43.5344 38.74 44.7844 38.42 45.8644C38.1 46.9244 37.65 47.8344 37.07 48.5944C36.49 49.3344 35.8 49.9344 35 50.3944C34.2 50.8344 33.31 51.1444 32.33 51.3244V51.9544C32.33 52.3544 32.41 52.6144 32.57 52.7344C32.75 52.8544 32.97 52.9144 33.23 52.9144H36.14C36.36 52.9144 36.53 52.9544 36.65 53.0344C36.79 53.1144 36.86 53.2344 36.86 53.3944V55.2544C36.86 55.5544 36.64 55.7644 36.2 55.8844C35.9 55.9644 35.45 56.0344 34.85 56.0944C34.25 56.1744 33.71 56.2144 33.23 56.2144C32.51 56.2144 31.85 56.1344 31.25 55.9744C30.67 55.8344 30.16 55.5944 29.72 55.2544C29.3 54.9144 28.97 54.4744 28.73 53.9344C28.49 53.4144 28.37 52.7744 28.37 52.0144V51.3244C27.39 51.1444 26.5 50.8344 25.7 50.3944C24.9 49.9344 24.21 49.3344 23.63 48.5944C23.05 47.8344 22.6 46.9244 22.28 45.8644C21.96 44.7844 21.8 43.5344 21.8 42.1144V38.0644C21.8 36.4244 22.01 35.0144 22.43 33.8344C22.87 32.6344 23.47 31.6644 24.23 30.9244C24.99 30.1644 25.89 29.6044 26.93 29.2444C27.97 28.8844 29.11 28.7044 30.35 28.7044C31.59 28.7044 32.73 28.8844 33.77 29.2444C34.81 29.6044 35.71 30.1644 36.47 30.9244C37.23 31.6644 37.82 32.6344 38.24 33.8344C38.68 35.0144 38.9 36.4244 38.9 38.0644V42.1144ZM34.7 38.0644C34.7 36.0644 34.34 34.6144 33.62 33.7144C32.92 32.7944 31.83 32.3344 30.35 32.3344C28.87 32.3344 27.77 32.7944 27.05 33.7144C26.35 34.6144 26 36.0644 26 38.0644V42.1144C26 44.1144 26.35 45.5744 27.05 46.4944C27.77 47.3944 28.87 47.8444 30.35 47.8444C31.83 47.8444 32.92 47.3944 33.62 46.4944C34.34 45.5744 34.7 44.1144 34.7 42.1144V38.0644ZM44.5829 51.2344C44.4229 51.2344 44.2829 51.1744 44.1629 51.0544C44.0429 50.9344 43.9829 50.7944 43.9829 50.6344V48.3544C43.9829 48.1944 44.0429 48.0644 44.1629 47.9644C44.2829 47.8644 44.4229 47.8144 44.5829 47.8144H48.6029V33.0544L44.6729 34.2544C44.5729 34.2944 44.4529 34.3144 44.3129 34.3144C44.0929 34.3144 43.9829 34.1944 43.9829 33.9544V31.1344C43.9829 30.9744 44.0529 30.8644 44.1929 30.8044L49.5029 29.0644C49.6029 29.0244 49.7029 28.9944 49.8029 28.9744C49.9029 28.9544 50.0329 28.9444 50.1929 28.9444H52.1729C52.5529 28.9444 52.7429 29.1344 52.7429 29.5144V47.8144H56.7629C56.9229 47.8144 57.0629 47.8644 57.1829 47.9644C57.3029 48.0644 57.3629 48.1944 57.3629 48.3544V50.6344C57.3629 50.7944 57.3029 50.9344 57.1829 51.0544C57.0629 51.1744 56.9229 51.2344 56.7629 51.2344H44.5829Z" fill="#BB7FFF"/>
<defs>
<linearGradient id="paint0_linear_1430_2968" x1="9.5" y1="67.2344" x2="80" y2="31.2344" gradientUnits="userSpaceOnUse">
<stop stop-color="#20113E"/>
<stop offset="1" stop-color="#592B8A"/>
</linearGradient>
</defs>
</svg>
