<svg width="61" height="65" viewBox="0 0 61 65" fill="none" xmlns="http://www.w3.org/2000/svg">
<g clip-path="url(#clip0_1589_872)">
<mask id="mask0_1589_872" style="mask-type:luminance" maskUnits="userSpaceOnUse" x="0" y="0" width="61" height="65">
<path d="M60.4219 0.5H0.421875V64.5H60.4219V0.5Z" fill="white"/>
</mask>
<g mask="url(#mask0_1589_872)">
<path d="M2.44731 60.7491C2.13572 60.8663 2.19415 62.4292 2.36941 62.5464L58.2019 62.605L58.5525 62.4878L58.494 60.7882L2.44731 60.7491ZM37.4424 42.229H31.3665V58.8541H37.4424V51.0397C37.4424 50.0239 39.1951 50.0238 39.1951 50.7858V58.8541H55.0861V42.229H39.1951V47.1716C39.1951 47.3865 38.533 47.7772 38.2214 47.7186C37.9293 47.66 37.423 47.0934 37.423 46.8004V42.229H37.4424ZM29.497 42.229H23.421V58.8541H29.497V42.229ZM21.6489 42.229H5.75792V58.8541H21.6489V42.229ZM58.5914 36.4854H2.25257V40.3535H58.6109V36.4854H58.5914ZM57.7735 34.6099L55.6119 30.859L55.2613 30.7223H5.46581L5.23212 30.859L3.07048 34.6099H57.793H57.7735ZM55.0861 15.8554H45.3879V28.8468H55.0861V15.8554ZM43.5184 15.8554H41.8826C40.8894 21.1301 36.3908 25.2717 31.3665 25.6038V28.8468H43.5184V15.8554ZM18.9614 15.8554H17.3256V28.8468H29.4775V25.6038C24.4337 25.2522 19.9546 21.1496 18.9614 15.8554ZM15.4561 15.8554H5.75792V28.8468H15.4561V15.8554ZM42.2331 13.9799H58.4162C58.7083 13.5892 58.7083 12.5147 58.4162 12.1044H42.2331V13.9799ZM18.6109 12.124H2.42784C2.1552 12.5147 2.13572 13.5892 2.42784 13.9994H18.6109V12.124ZM1.96046 15.8554C1.29833 15.7186 0.577787 14.6441 0.499891 13.9213C0.324623 12.163 0.616736 10.4048 2.54468 10.229H18.903C19.2146 9.38893 19.4093 8.49027 19.7793 7.65022C20.1494 6.81017 21.7268 4.17281 22.5057 3.93838C23.2458 3.70395 23.7131 4.52446 23.5184 5.26683C23.4794 5.38404 22.311 6.75156 22.0968 7.12275C15.7482 17.3987 28.1143 29.1203 36.8193 21.3645C45.8748 13.2961 36.8193 -1.78568 26.1669 3.37183C25.4074 3.3523 24.94 2.72714 25.31 1.96524C25.6021 1.37916 27.1601 0.988438 27.7638 0.851686C34.2876 -0.711196 40.2857 3.48905 41.9605 10.268H58.3188C59.2341 10.3267 60.052 10.9323 60.2857 11.9091C60.4609 12.7296 60.4804 14.2339 60.013 14.9567C59.8767 15.1716 59.0978 15.8944 58.903 15.8944H56.8582V29.5892L60.3636 35.4695C60.1883 37.0519 60.6362 39.3181 60.3441 40.8028C60.2078 41.4866 59.3314 42.268 58.6693 42.268H56.8582V58.8932H58.7862C59.4678 58.8932 60.2857 60.1044 60.3636 60.8273C60.5194 62.2729 60.422 63.7577 59.0199 64.4024C40.1494 64.6759 21.2204 64.4414 2.31099 64.5196C0.538839 64.1679 0.324623 62.4878 0.499891 60.8273C0.577787 60.1044 1.3957 58.8932 2.0773 58.8932H4.00525V42.268H2.19415C1.5515 42.268 0.655684 41.4866 0.519365 40.8028C0.227252 39.3181 0.675158 37.0324 0.519365 35.4695L4.02472 29.5892V15.8944C3.42102 15.8163 2.54468 16.0116 1.97993 15.8944" fill="#592B8A"/>
<path d="M26.381 18.2378H34.4433L34.5991 17.9643L33.6838 9.99364H33.0996C33.5865 12.7873 30.9185 12.6896 31.3469 9.99364H29.4774C29.9058 12.6896 27.2379 12.7873 27.7247 9.99364H27.1405L26.2252 17.9643L26.381 18.2378ZM31.3664 8.11818C31.8338 5.20731 29.0295 5.20731 29.4969 8.11818H31.3664ZM27.7247 6.30133C28.0558 4.15237 30.9769 3.33185 32.3985 4.95334C32.5738 5.1487 33.0996 6.08643 33.0996 6.30133V8.11818C34.4433 8.0205 35.1639 8.37215 35.417 9.81781C35.9039 12.4942 35.9039 15.4637 36.3518 18.1597C36.235 19.156 35.6507 20.0156 34.677 20.1133C31.9312 20.3868 28.7958 19.8984 26.011 20.1133C25.0568 19.9179 24.5115 19.0583 24.4336 18.0425L25.5241 9.19266C25.8552 8.19632 26.8289 8.0205 27.7053 8.09864C27.7637 7.5321 27.6274 6.80926 27.7053 6.28179" fill="#592B8A"/>
<path d="M51.5817 47.4842H42.7014V53.4232L42.8767 53.6186H51.5817V47.5038V47.4842ZM42.1951 45.6479C45.2525 45.8237 48.7384 45.3157 51.7569 45.6088C52.5748 45.6869 53.237 46.2925 53.3343 47.1717C53.4901 48.5587 53.4901 52.4073 53.3343 53.7944C53.237 54.7516 52.5554 55.4549 51.6401 55.494C48.7774 55.2791 45.5836 55.7675 42.7404 55.494C41.5524 55.3768 41.0266 54.6344 40.9293 53.4232C40.8319 52.212 40.7735 47.8164 41.0851 46.8396C41.2798 46.2144 41.6109 45.8432 42.1951 45.6479Z" fill="#592B8A"/>
<path d="M18.1443 47.4848H9.26405V53.5996H17.969L18.1443 53.4042V47.4653V47.4848ZM8.75773 45.6484L18.4364 45.6094C19.4685 45.7657 19.8191 46.6839 19.897 47.6607C20.0138 49.1454 20.0138 51.9195 19.897 53.4238C19.7996 54.635 19.2543 55.3774 18.0859 55.4946C15.2232 55.7681 11.9904 55.2797 9.08879 55.4946C8.23192 55.3969 7.60875 54.7327 7.51138 53.8145C7.35558 52.4274 7.35558 48.5593 7.51138 47.1918C7.58927 46.5276 8.15402 45.7852 8.7772 45.668" fill="#592B8A"/>
</g>
</g>
<defs>
<clipPath id="clip0_1589_872">
<rect width="60" height="64" fill="white" transform="translate(0.421875 0.5)"/>
</clipPath>
</defs>
</svg>
