<svg width="81" height="65" viewBox="0 0 81 65" fill="none" xmlns="http://www.w3.org/2000/svg">
<g clip-path="url(#clip0_1597_1968)">
<mask id="mask0_1597_1968" style="mask-type:luminance" maskUnits="userSpaceOnUse" x="0" y="0" width="81" height="65">
<path d="M80.4219 0.591797H0.421875V64.5918H80.4219V0.591797Z" fill="white"/>
</mask>
<g mask="url(#mask0_1597_1968)">
<path d="M21.518 58.4948C21.8105 58.0856 19.3927 56.0595 19.0028 55.7867C15.6101 53.3709 12.5685 53.9554 9.01983 55.6893C11.5351 59.1767 14.9667 60.8327 19.2562 59.4299C20.0362 59.1767 20.7381 58.748 21.518 58.4948ZM12.4515 44.6038C12.198 41.1553 10.5602 37.7849 7.18702 36.5185C5.90016 36.0315 4.5743 35.9535 3.24844 35.7003C3.38493 41.0385 7.12853 44.6038 12.471 44.6038M11.8275 26.0369C13.0754 20.8936 11.2036 16.4321 6.13413 14.6397C5.76367 14.7176 5.5492 17.9517 5.56869 18.4777C5.76367 22.2378 8.45439 24.829 11.8275 26.0369ZM20.7381 14.0162C25.3981 12.3213 27.4649 8.22993 26.1975 3.39827C21.557 5.17118 19.4512 9.12612 20.7381 14.0162ZM20.6211 16.8802C20.1531 17.2698 18.5738 19.6272 18.1644 20.2896C8.94184 34.9015 15.2202 55.0658 31.5204 61.0859C32.4758 61.4366 34.7961 61.8652 35.42 62.3328C36.2194 62.9173 36.005 64.3395 34.9911 64.5538C33.8212 64.8266 30.3896 63.4628 29.1612 62.9368C27.3674 62.1575 25.6906 61.1444 24.0527 60.0923C20.6406 62.0406 16.78 63.4433 12.8609 62.0406C10.9306 61.3587 8.74686 59.6637 7.421 58.1051C6.17313 56.6439 5.12024 55.2996 7.05054 53.8385C8.70786 52.5916 12.1395 51.4811 14.2063 51.4616C14.6547 51.4616 15.1032 51.6954 15.6101 51.6369C15.7856 51.6175 15.9416 51.6954 15.8441 51.4031C15.7271 51.0135 14.9667 50.0199 14.7327 49.5523C14.3623 48.812 14.0893 48.0522 13.6603 47.3313C6.66058 47.4482 1.57162 43.9608 0.557727 36.8497C0.382245 35.6223 0.0507807 33.8884 1.47413 33.2844C2.05907 33.0312 3.81388 33.1286 4.51581 33.2065C6.91405 33.4598 9.2733 34.3754 11.1646 35.8561L11.769 28.8424C5.08125 26.7383 1.7861 21.5949 3.22894 14.6007C3.91137 11.2497 4.92526 11.1133 7.90845 12.4966C11.3401 14.0942 14.1283 17.036 14.6742 20.8741L18.3203 15.4579C16.8775 10.2561 17.8719 5.38549 22.5124 2.32673C23.6043 1.62536 26.022 0.320036 27.2894 0.612273C28.6347 0.923993 29.0442 4.00223 29.1222 5.19066C29.4537 9.96387 27.3674 13.5876 23.1753 15.7891C22.5709 16.1009 20.9136 16.6074 20.5821 16.8607" fill="white"/>
<path d="M71.8239 55.6895C68.2753 53.9555 65.2336 53.3711 61.841 55.7869C61.4315 56.0791 59.0333 58.0858 59.3257 58.4949C60.1056 58.7482 60.8076 59.1768 61.5875 59.4301C65.877 60.8329 69.3282 59.1768 71.8239 55.6895ZM68.3923 44.6039C73.7347 44.6039 77.4588 41.0386 77.6148 35.7004C76.2694 35.9537 74.9631 36.0316 73.6762 36.5187C70.2836 37.7851 68.6457 41.136 68.4118 44.6039M69.0162 26.0371C72.3893 24.8292 75.0801 22.238 75.275 18.4779C75.2945 17.9519 75.0996 14.7178 74.7291 14.6399C69.6401 16.4322 67.7878 20.8937 69.0357 26.0371M60.1056 14.0164C61.3925 9.1263 59.2867 5.17136 54.6462 3.39845C53.3789 8.23011 55.4456 12.3214 60.1056 14.0164ZM66.2085 20.8937C66.54 17.5817 68.7822 14.8736 71.5704 13.2176C72.7598 12.5163 75.1775 11.1525 76.4449 11.9902C77.4003 12.6137 77.8878 16.0621 77.9268 17.2115C78.1802 23.1147 74.4366 27.1866 69.0357 28.8621C69.3282 31.1805 69.7376 33.5184 69.6401 35.8758C71.5314 34.3951 73.8712 33.4794 76.2889 33.2262C76.9909 33.1482 78.7457 33.0508 79.3306 33.3041C80.754 33.908 80.4225 35.642 80.247 36.8694C79.2331 43.9805 74.1442 47.4679 67.1444 47.351C66.7154 48.0523 66.462 48.8316 66.072 49.572C65.838 50.0395 65.0776 51.0332 64.9606 51.4228C64.8631 51.715 65.0191 51.6371 65.1946 51.6566C65.7211 51.715 66.2085 51.4813 66.7544 51.4813C68.6067 51.5202 71.1805 52.3774 72.7793 53.2736C75.587 54.8712 75.2945 55.9038 73.3252 58.2027C71.7849 59.9951 69.2112 61.8654 66.8714 62.372C63.1473 63.1513 59.9692 61.9044 56.791 60.112C54.6657 61.5147 52.4235 62.7616 50.0057 63.6383C48.9138 64.028 45.8332 65.2943 45.1312 64.0475C43.9614 61.9823 48.0169 61.5927 49.3233 61.1056C64.3172 55.5531 71.161 37.5902 64.3172 23.1927C63.7128 21.9263 61.1975 17.6791 60.2226 16.8998C59.8912 16.6271 58.2338 16.14 57.6294 15.8283C53.3789 13.6073 51.3121 9.92509 51.6825 5.09343C51.7605 4.02189 52.1505 1.4502 53.0864 0.865726C54.5292 -0.0304691 57.7659 1.97623 58.9943 2.91139C63.1278 6.02859 63.7908 10.6849 62.4844 15.4971L66.2085 20.9132V20.8937Z" fill="white"/>
<path d="M26.0409 31.356L33.0017 38.3697L33.0602 39.3828L31.5199 48.2278L39.6895 43.9806H41.1713L49.341 48.2278C49.263 47.1173 48.1906 43.9612 49.029 43.1624C49.9064 42.3441 50.9008 42.8701 51.2323 43.9027C51.6027 45.0522 52.3827 49.3578 52.4216 50.5268C52.4606 51.5204 51.5442 52.2802 50.5888 51.8905L40.3719 46.6692L30.389 51.8516C29.3556 52.3192 28.4587 51.5983 28.4392 50.5268L30.35 39.3243L22.2194 31.3755C21.5369 30.6351 21.9464 29.5052 22.8628 29.1934C26.6454 28.9012 30.8374 27.6543 34.581 27.4595C36.8623 27.3426 36.9598 29.5831 35.283 30.0507L26.0604 31.3755L26.0409 31.356Z" fill="white"/>
<path d="M54.8025 31.3552L45.6969 30.0693C45.1315 29.9914 44.7221 29.6018 44.4491 29.1147L40.569 21.0489C40.1985 20.971 40.3155 21.1074 40.218 21.2438C39.6916 22.062 38.8922 24.4389 38.3072 24.9454C37.3323 25.8027 35.8115 24.848 36.182 23.6206C37.2933 21.9257 38.1123 18.5747 39.3991 17.133C40.0815 16.3731 41.0369 16.4706 41.5829 17.3083L46.6718 27.5171L58.0001 29.1731C58.9165 29.4849 59.326 30.5954 58.6436 31.3552C55.7579 33.6931 53.1062 37.2779 50.279 39.5378C49.0116 40.5509 47.6857 40.2197 47.8027 38.4858C49.8305 35.8751 52.5407 33.771 54.8025 31.3552Z" fill="white"/>
</g>
</g>
<defs>
<clipPath id="clip0_1597_1968">
<rect width="80" height="64" fill="white" transform="translate(0.421875 0.591797)"/>
</clipPath>
</defs>
</svg>
