<svg width="33" height="32" viewBox="0 0 33 32" fill="none" xmlns="http://www.w3.org/2000/svg">
<g clip-path="url(#clip0_1743_11026)">
<mask id="mask0_1743_11026" style="mask-type:luminance" maskUnits="userSpaceOnUse" x="0" y="0" width="33" height="32">
<path d="M32.5098 0H0.5V32H32.5098V0Z" fill="white"/>
</mask>
<g mask="url(#mask0_1743_11026)">
<path d="M19.3158 23.8109H17.2242L17.1264 23.9086V30.7504H19.3158V23.8109ZM15.8754 30.7504V23.9086L15.7776 23.8109H13.686V30.7504H15.8754ZM23.069 21.123C19.7068 20.1456 16.2761 19.784 12.8063 20.39C11.8289 20.5659 10.8906 20.8396 9.94256 21.123V30.7504H12.4447V23.9086C12.0733 23.6545 11.4673 24.0552 11.2425 23.4883C11.047 23.0192 11.3207 22.6478 11.7898 22.5696C14.7904 22.7357 18.0745 22.3252 21.036 22.5696C21.5638 22.6087 21.9743 22.853 21.7886 23.4492C21.5931 24.0552 20.9383 23.6642 20.5669 23.9184V30.7601H23.069V21.1328V21.123ZM23.069 17.3698C18.7978 16.0699 14.1845 15.8842 9.94256 17.3698V19.8035C13.471 18.6697 17.1948 18.5427 20.821 19.266C21.5736 19.4126 22.3164 19.6569 23.069 19.8035V17.3698ZM23.069 13.6166C18.8369 12.3167 14.1258 12.0723 9.94256 13.6459V16.0503C14.1942 14.6331 18.7978 14.809 23.069 16.0503V13.6166ZM30.0085 11.9257H28.1319V30.7406H30.0085V11.9355V11.9257ZM4.87964 11.9257H3.00303V30.7406H4.87964V11.9355V11.9257ZM23.069 12.2971V9.89271C22.8735 9.7461 22.5803 9.69723 22.336 9.62882C19.1105 8.70029 15.4746 8.51458 12.1906 9.19876C11.4282 9.35514 10.6952 9.61904 9.94256 9.79497V12.2287C10.5876 12.1016 11.2229 11.8866 11.868 11.7498C15.5919 10.9483 19.4331 11.2122 23.069 12.2971ZM26.8809 8.72961C26.0012 9.14989 25.2584 9.84384 24.3787 10.2934V30.7308H26.8809V8.74916V8.72961ZM8.62307 10.2934C7.74341 9.84384 7.00059 9.14989 6.12093 8.72961V30.7308H8.62307V10.313V10.2934ZM23.069 6.04176C19.8436 5.12301 16.5107 4.72228 13.1777 5.25007C12.0733 5.426 11.0079 5.729 9.94256 6.04176V8.47549C13.6567 7.32216 17.5272 7.24396 21.3195 8.06498C21.9059 8.19204 22.4923 8.3582 23.069 8.53413V6.03199V6.04176ZM23.069 2.28856C18.788 0.98862 14.1942 0.802914 9.94256 2.28856V4.72228C14.2236 3.3246 18.7685 3.52008 23.069 4.72228V2.28856ZM24.3787 8.78825L27.3305 6.8921C27.5944 6.74549 28.1319 7.13645 28.1319 7.3808V10.6649H30.8491C30.9566 10.6649 31.2596 11.046 31.2596 11.134V30.7308C31.5235 30.7504 31.8069 30.6917 32.0708 30.7601C32.628 30.9068 32.6573 31.7473 32.1197 31.933L1.09711 31.9819C0.598634 31.9428 0.334736 31.4248 0.618182 30.9947C0.862531 30.6135 1.37078 30.7504 1.75196 30.7308V11.1536C1.75196 11.0656 2.04518 10.6844 2.16247 10.6844H4.87964V7.40035C4.87964 7.156 5.4172 6.76504 5.6811 6.91165L8.63284 8.8078V1.90737C8.63284 1.72167 8.81855 1.42845 8.99448 1.33071C9.33657 1.12546 10.2162 0.900654 10.6365 0.783366C14.5559 -0.321093 18.485 -0.203805 22.4044 0.832236C22.7953 0.93975 23.7727 1.16455 24.0757 1.35026C24.2126 1.43822 24.3885 1.76076 24.3885 1.90737V8.81758L24.3787 8.78825Z" fill="#592B8A"/>
</g>
</g>
<defs>
<clipPath id="clip0_1743_11026">
<rect width="32.0098" height="32" fill="white" transform="translate(0.5)"/>
</clipPath>
</defs>
</svg>
