<svg width="37" height="32" viewBox="0 0 37 32" fill="none" xmlns="http://www.w3.org/2000/svg">
<g clip-path="url(#clip0_1743_11014)">
<mask id="mask0_1743_11014" style="mask-type:luminance" maskUnits="userSpaceOnUse" x="0" y="0" width="37" height="32">
<path d="M36.5536 0H0.5V32H36.5536V0Z" fill="white"/>
</mask>
<g mask="url(#mask0_1743_11014)">
<path d="M8.60634 25.0658H4.62969L4.51983 25.1647V30.9429H8.67225V25.2306C8.67225 25.2306 8.58437 25.1317 8.60634 25.0548M24.5789 30.9429V17.6178C24.5789 17.5299 24.3592 17.453 24.2713 17.4421C23.5792 17.3542 21.536 17.3652 20.8109 17.4421C20.7121 17.4421 20.4265 17.497 20.4265 17.6178V30.9429H24.5789ZM28.4457 13.7071C28.4677 13.773 28.3798 13.8609 28.3798 13.8828V30.9429H32.5322V21.0782C32.5322 20.6058 33.5868 20.6607 33.5868 21.0782V30.9429H36.0145C36.0145 30.9429 36.388 31.1077 36.4319 31.1516C36.7395 31.4922 36.4319 32.0964 35.9486 31.9865H1.03751C0.587119 32.0524 0.345444 31.4702 0.620075 31.1516C0.664016 31.0967 1.00456 30.9429 1.03751 30.9429H3.46525V24.956C3.46525 24.6264 4.06944 24.0662 4.42097 24.0222C5.77215 24.1101 7.31008 23.8904 8.6393 24.0222C9.13363 24.0662 9.72684 24.6154 9.72684 25.0988V30.9429H11.4186V27.933C11.4186 27.6583 11.9129 27.4716 12.1875 27.5924C12.2205 27.6034 12.4731 27.8451 12.4731 27.8671V30.9429H16.6256V21.4297C16.6256 21.4297 16.5267 21.3308 16.5597 21.2539H12.583L12.4731 21.3528V26.1314C12.4731 26.4939 11.5284 26.7575 11.4186 25.9886C11.2208 24.5934 11.5504 22.7919 11.4186 21.3528C11.4845 20.7816 11.9239 20.2763 12.5061 20.2103C13.2751 20.1225 15.9225 20.1005 16.6585 20.2103C17.0979 20.2763 17.6801 20.8365 17.6801 21.2759V30.9319H19.3719V17.464C19.3719 17.464 19.4707 17.1564 19.5037 17.1015C19.7124 16.6292 20.1738 16.4314 20.6791 16.3875C21.5579 16.3106 23.7001 16.2886 24.5349 16.4094C24.7766 16.4424 25.0732 16.5742 25.26 16.739C25.3588 16.8379 25.6444 17.2883 25.6444 17.3981V30.9319H27.3362V13.729C27.3362 13.3446 27.8744 12.7074 28.2919 12.6635C29.6431 12.7733 31.2689 12.4987 32.5761 12.6635C33.1144 12.7294 33.5428 13.2127 33.5978 13.74C33.7845 15.4427 33.4659 17.464 33.5978 19.2107C33.5209 19.5842 33.2023 19.7819 32.8288 19.6281C32.7958 19.6171 32.5432 19.3755 32.5432 19.3535V13.8169L32.4333 13.7071H28.4567H28.4457Z" fill="#592B8A"/>
<path d="M29.8967 0.0981437C30.0615 0.229967 30.0944 0.724302 30.1274 0.944007C30.424 3.19598 30.4789 5.48091 30.8195 7.73288C30.413 9.09505 28.8751 7.22756 28.194 6.93096C23.5143 13.1047 16.1652 16.598 8.48648 17.5757C7.86032 17.6526 6.6849 17.8393 6.10268 17.7954C4.96022 17.7075 4.56475 16.3124 5.47652 15.6642C10.6945 13.9835 15.7477 11.7425 19.977 8.26018C20.5153 8.11737 20.9108 8.67762 20.5593 9.11702C20.3505 9.38067 19.3729 10.0618 19.0323 10.3144C15.2094 13.1486 10.6396 15.1369 6.06973 16.4991V16.7628C13.5836 16.2904 21.1195 13.4013 26.1507 7.76584C26.4693 7.41431 27.6228 5.85441 27.8974 5.73357C28.3478 5.54682 29.2046 6.46958 29.6331 6.65633C29.4024 5.01953 29.3584 3.34977 29.1387 1.71297C29.1277 1.59214 29.0948 1.40539 29.0618 1.29553C29.0399 1.20765 29.1277 1.18568 28.963 1.18568L23.6461 2.50391C23.9098 2.93234 25.1291 3.3278 25.1071 3.84411C25.0852 4.26155 23.8988 5.74456 23.5802 6.14003C23.2836 6.49155 22.4707 7.46924 22.1411 7.69993C21.7127 8.00752 21.1964 7.88668 21.1854 7.31544L23.8658 3.9979C23.8658 3.88805 22.1741 2.94332 21.9654 2.69066C21.7566 2.42701 21.8335 2.16337 22.0423 1.93268L29.2706 0.021247C29.4683 -0.0117087 29.7429 -0.0336792 29.8967 0.0981437Z" fill="#592B8A"/>
</g>
</g>
<defs>
<clipPath id="clip0_1743_11014">
<rect width="36.0536" height="32" fill="white" transform="translate(0.5)"/>
</clipPath>
</defs>
</svg>
