<svg width="33" height="32" viewBox="0 0 33 32" fill="none" xmlns="http://www.w3.org/2000/svg">
<g clip-path="url(#clip0_1743_11049)">
<mask id="mask0_1743_11049" style="mask-type:luminance" maskUnits="userSpaceOnUse" x="0" y="0" width="33" height="32">
<path d="M32.6561 0H0.5V32H32.6561V0Z" fill="white"/>
</mask>
<g mask="url(#mask0_1743_11049)">
<path d="M25.4045 3.21269C25.8436 5.41824 26.0388 7.73114 26.4877 9.92694C27.2392 13.6256 31.8357 12.5912 31.6015 9.5073L29.8839 3.21269H25.4045ZM24.3993 3.21269H19.832C19.8223 3.3298 19.8906 3.43715 19.8906 3.55426C19.9687 5.66222 19.9979 7.97512 20.2029 10.0636C20.5347 13.4402 25.2386 13.3133 25.463 9.99525L24.3993 3.20294V3.21269ZM18.8268 3.21269H14.3182C14.1718 5.15475 14.0742 7.11632 14.0059 9.06814C13.9668 10.0538 13.8107 10.6296 14.4548 11.4981C15.7625 13.2743 18.6219 12.718 19.1196 10.5515C19.3343 9.59513 19.0611 7.96536 19.0123 6.94066L18.8268 3.21269ZM13.313 3.21269H8.73596L7.67222 9.87814C7.77957 13.2645 12.5615 13.5183 12.9324 10.0636C13.1568 8.0044 13.1666 5.6427 13.2447 3.55426C13.2447 3.43715 13.313 3.3298 13.3032 3.21269M7.73078 3.21269H3.27088L1.55329 9.5073C1.31907 12.5912 5.91559 13.6159 6.66704 9.92694C7.11596 7.73114 7.31114 5.41824 7.7503 3.21269M29.7863 0.958349H3.35871V2.20751H29.7863V0.958349ZM25.9705 11.6641C24.7896 14.1331 21.0812 14.1721 19.7637 11.7909C19.3538 12.2594 19.0513 12.6692 18.5048 13.0108C16.7189 14.1038 14.5231 13.5183 13.4106 11.7909C12.0443 14.1526 8.37488 14.1624 7.17451 11.6641C7.07692 11.586 6.70608 12.1715 6.61824 12.2594C5.5545 13.3329 3.85643 13.5768 2.49992 12.923C-1.41347 11.0395 1.90461 5.67198 2.34377 2.66619C2.44136 1.99281 2.29497 1.17305 2.35353 0.489913C2.37305 0.265455 2.41208 0.119069 2.62678 0.0117188H30.528C30.5963 0.050755 30.6548 0.0897913 30.6939 0.158105C30.9183 0.460636 30.7232 2.1392 30.8012 2.67595C31.0647 4.51065 32.0309 6.78451 32.4505 8.66802C33.2703 12.4253 29.2007 14.8358 26.5658 12.2984C26.4682 12.2008 26.0681 11.6055 25.9705 11.6738" fill="#592B8A"/>
<path d="M31.6112 29.7472H1.54355V30.9963H31.6015V29.7472H31.6112ZM27.1026 17.0409H21.657V28.742H27.1026V17.0409ZM3.35874 28.7518H20.6421V16.387C20.6421 16.2309 21.0617 16.0064 21.2374 16.0357C23.238 16.2114 25.6094 15.821 27.571 16.0357C27.7467 16.0552 28.1077 16.1821 28.1077 16.3773V28.742H29.7961V14.2498C29.7961 13.9765 30.284 13.8301 30.5475 13.9375C30.5768 13.9472 30.8012 14.1717 30.8012 14.1912V28.742H32.2749C32.4017 28.742 32.5969 29.0153 32.6164 29.1519C32.6847 29.591 32.675 31.0744 32.6164 31.5233C32.5872 31.738 32.5091 31.8844 32.3041 31.9625L0.958004 31.982C0.655473 31.9235 0.567641 31.738 0.548123 31.455C0.499328 30.9573 0.479809 29.6008 0.548123 29.1421C0.567641 29.0055 0.762823 28.7322 0.88969 28.7322H2.36331V14.1815C2.36331 14.1815 2.57801 13.9472 2.61705 13.9277C2.86102 13.8204 3.36849 13.9863 3.36849 14.24V28.7322L3.35874 28.7518Z" fill="#592B8A"/>
<path d="M17.3926 17.0403H6.74543V23.2374H17.3926V17.0403ZM5.88663 16.1815C5.98422 16.0937 6.19892 16.0352 6.33555 16.0352H17.8025C18.3197 16.084 18.4173 16.2596 18.4563 16.7573C18.6417 18.9141 18.3099 21.3343 18.4563 23.5204C18.4368 23.7936 18.3978 24.0571 18.1245 24.1937L6.33555 24.2425C6.15013 24.2425 5.86712 24.1352 5.78904 23.979L5.75977 16.406C5.7988 16.3377 5.82808 16.2401 5.88663 16.1913" fill="#592B8A"/>
</g>
</g>
<defs>
<clipPath id="clip0_1743_11049">
<rect width="32.1561" height="32" fill="white" transform="translate(0.5)"/>
</clipPath>
</defs>
</svg>
