<svg width="32" height="32" viewBox="0 0 32 32" fill="none" xmlns="http://www.w3.org/2000/svg">
<g clip-path="url(#clip0_1743_10821)">
<mask id="mask0_1743_10821" style="mask-type:luminance" maskUnits="userSpaceOnUse" x="0" y="0" width="32" height="32">
<path d="M31.8089 0H0V31.46H31.8089V0Z" fill="white"/>
</mask>
<g mask="url(#mask0_1743_10821)">
<path d="M5.12796 16.2819C7.46371 16.6212 7.15357 20.1975 4.74997 20.1393C2.11377 20.0715 2.33668 15.8846 5.12796 16.2819ZM14.5097 16.8247C16.1574 15.1383 18.939 17.4256 17.4561 19.3737C15.8375 21.5059 12.5907 18.7728 14.5097 16.8247ZM25.6361 19.5869C23.9206 17.9683 26.1982 15.1577 28.2141 16.6696C30.2979 18.23 27.6423 21.4768 25.6361 19.5869ZM10.381 8.58655C13.0366 8.65439 12.8233 12.6959 10.129 12.4439C7.70601 12.221 7.93862 8.5187 10.381 8.58655ZM21.5073 8.58655C23.8915 8.65439 24.0175 12.2307 21.6624 12.4439C18.8808 12.6959 18.813 8.50901 21.5073 8.58655ZM16.7001 14.0916C16.642 14.4792 16.7486 14.9929 16.7001 15.4C16.1477 15.3127 15.634 15.3127 15.0816 15.4V14.0916C15.0816 14.0916 14.9362 13.7233 14.9071 13.6651C14.4516 12.7347 13.5212 12.599 12.5907 12.4536C12.7167 12.0853 12.9687 11.843 13.0947 11.4457C13.3661 10.5734 13.2595 9.58482 12.6877 8.84823C12.5714 8.69316 12.174 8.38302 12.1352 8.25702C12.0868 8.08257 12.0965 6.75477 12.1352 6.55124C12.1934 6.27018 12.4357 6.06665 12.6877 5.96004C12.9978 5.83404 14.2674 5.53359 14.597 5.50451C14.8877 5.47544 15.4789 5.7662 15.9248 5.7662C16.3512 5.7662 16.7777 5.51421 17.0781 5.49482C17.2429 5.48513 18.8323 5.85342 19.0456 5.94065C19.346 6.05695 19.6077 6.26049 19.6658 6.5997C19.6949 6.81292 19.6949 8.1601 19.6368 8.29579C19.5786 8.41209 19.2491 8.65439 19.1328 8.79977C18.5513 9.52666 18.4253 10.5055 18.6773 11.3875C18.7936 11.7946 19.0553 12.0563 19.2006 12.4439C18.2121 12.5021 16.8843 12.977 16.7098 14.0819M16.1864 0.949308C18.5997 1.25945 18.2314 4.95207 15.7988 4.81639C13.1626 4.66132 13.4727 0.600399 16.1864 0.949308ZM26.2176 14.2757C26.0625 13.0061 24.7929 12.4924 23.6589 12.4342C23.6202 12.4052 24.0466 11.8043 24.0951 11.6977C25.0933 9.44913 23.0289 7.12307 20.6932 7.75304C20.7029 6.968 20.7029 6.07634 20.1117 5.48513C19.5786 4.95207 18.813 4.93269 18.1248 4.73885C19.6174 2.94585 18.4544 0.115802 16.0798 -0.000500767C13.5018 -0.116804 12.1061 2.77139 13.6859 4.74854C11.8348 4.93269 10.9237 5.86312 11.1273 7.76273C8.79151 7.13276 6.72713 9.46851 7.72539 11.7073C7.77385 11.814 8.2003 12.4149 8.16153 12.4439C7.28926 12.5409 6.38791 12.7056 5.89362 13.5004C5.80639 13.6457 5.60286 14.14 5.60286 14.2757V15.3806C2.78251 14.7409 0.824741 17.8326 2.63713 20.0618C1.38687 20.2459 0.194766 20.5852 0.068771 22.0293C-0.0862998 23.861 0.185074 25.9254 0.068771 27.7766C0.252918 28.7167 1.05735 29.0656 1.94901 28.9493C2.02654 29.0268 1.86178 30.8101 1.97808 31.159C2.10408 31.5467 2.71467 31.508 2.85035 31.0815C2.95697 30.752 2.93758 29.0656 2.89881 28.6488C2.78251 27.3598 1.15427 28.5422 1.00889 27.6409C1.1155 25.8769 0.844125 23.8998 1.00889 22.1552C1.04766 21.69 1.24149 21.3993 1.68732 21.2248C1.93931 21.1279 3.30588 20.7984 3.54817 20.7887C3.84862 20.7887 4.42045 21.0601 4.82751 21.0601C5.23457 21.0601 5.75793 20.7887 6.02931 20.7887C6.29099 20.7887 7.74478 21.1279 8.00646 21.2345C8.38445 21.3896 8.58798 21.6803 8.63644 22.0874C8.83027 23.8126 8.49106 25.8769 8.63644 27.6409C8.49106 28.5422 6.8725 27.3598 6.74651 28.6488C6.70774 29.0365 6.69805 30.8489 6.81435 31.13C7.00819 31.6049 7.69632 31.411 7.69632 31.13V28.959C8.53952 29.0753 9.30518 28.7361 9.55717 27.8929C9.46994 26.0029 9.77039 23.8223 9.58625 21.9711C9.45056 20.5755 8.21968 20.2266 7.02758 20.0618C8.084 18.7631 7.90954 16.8828 6.56236 15.8749C6.59144 15.1286 6.30068 14.0528 7.1148 13.6264C7.34741 13.51 8.88843 13.1611 9.15011 13.1708C9.44087 13.1708 9.7607 13.355 10.0902 13.3841C10.7105 13.4325 11.011 13.2387 11.5149 13.1805C11.7766 13.1514 13.3564 13.5004 13.6278 13.6167C13.8507 13.7233 14.1124 13.985 14.1608 14.2273C14.1996 14.4308 14.2093 15.7004 14.1608 15.8749C14.1221 16.0009 13.7538 16.2819 13.6375 16.4273C12.9493 17.2996 12.8524 18.5305 13.3564 19.5093C13.4146 19.6257 13.7538 20.0036 13.7053 20.0715C12.2128 20.3041 11.2726 20.6627 11.1466 22.3103C11.04 23.6963 11.04 26.0126 11.1466 27.3986C11.2339 28.5519 11.8638 29.085 13.0366 28.9687V31.0718C13.0366 31.4013 13.8119 31.6436 13.967 31.1203V28.3968C13.6859 27.6118 12.5907 28.3872 12.174 27.7766V21.9033C12.2418 21.5931 12.426 21.3702 12.7167 21.2539C12.9493 21.157 14.5388 20.7984 14.752 20.8081C15.0428 20.8178 15.5177 21.0698 15.9054 21.0698C16.3415 21.0698 16.894 20.7984 17.2332 20.8178C17.5433 20.8371 18.8517 21.1376 19.1522 21.2539C19.4139 21.3508 19.5786 21.5447 19.6755 21.7966L19.6949 27.7766C19.3654 28.3387 18.2508 27.7184 17.9504 28.2515C17.7178 28.6488 17.9795 30.5388 17.9019 31.1203C18.057 31.6436 18.8323 31.3917 18.8323 31.0718V28.9687C20.0051 29.085 20.635 28.5519 20.7223 27.3986C20.8095 26.2065 20.8773 22.7949 20.635 21.7288C20.3637 20.4882 19.2491 20.275 18.1539 20.0715C18.1054 20.0133 18.4447 19.6257 18.5028 19.5093C19.0068 18.5305 18.9099 17.2996 18.2218 16.4273C18.1054 16.2819 17.7372 16.0106 17.6984 15.8749C17.6499 15.7004 17.6596 14.4308 17.6984 14.2273C17.7468 13.985 17.9988 13.7136 18.2314 13.6167C18.4931 13.5004 20.0826 13.1514 20.3443 13.1805C20.8483 13.2387 21.1487 13.4325 21.769 13.3841C22.0985 13.355 22.4184 13.1805 22.7091 13.1708C22.9611 13.1708 24.5215 13.5197 24.7444 13.6264C25.5488 14.0431 25.2581 15.1383 25.2969 15.8749C23.9497 16.8828 23.7752 18.7728 24.8316 20.0618C23.6298 20.2266 22.4087 20.5755 22.273 21.9711C22.0888 23.8223 22.3893 26.0029 22.3021 27.8929C22.5444 28.7361 23.31 29.0753 24.1629 28.959V31.13C24.1629 31.4207 24.851 31.6146 25.0449 31.13C25.1612 30.8489 25.1515 29.0365 25.1127 28.6488C24.9964 27.3598 23.3682 28.5422 23.2228 27.6409C23.3585 25.8866 23.0289 23.8126 23.2228 22.0874C23.2712 21.69 23.4748 21.3993 23.8528 21.2345C24.1144 21.1182 25.481 20.7984 25.7621 20.779C26.0528 20.7596 26.6343 21.0504 27.0317 21.0504C27.4291 21.0504 28.0009 20.779 28.311 20.779C28.5533 20.779 29.9102 21.1085 30.1719 21.2151C30.6177 21.3896 30.8116 21.6803 30.8503 22.1456C31.0054 23.8901 30.734 25.8576 30.8503 27.6312C30.705 28.5325 29.0864 27.3501 28.9604 28.6391C28.9216 29.0559 28.9023 30.7423 29.0089 31.0718C29.1446 31.4983 29.7455 31.5467 29.8811 31.1494C29.9974 30.8004 29.8327 29.0171 29.9102 28.9396C30.8019 29.0559 31.616 28.6876 31.7905 27.7669C31.6838 25.906 31.9552 23.8513 31.7905 22.0196C31.6645 20.5755 30.4723 20.2266 29.2221 20.0521C31.0345 17.823 29.067 14.7312 26.2564 15.3709C26.2273 15.022 26.2951 14.6149 26.2564 14.266" fill="#592B8A"/>
</g>
</g>
<defs>
<clipPath id="clip0_1743_10821">
<rect width="31.8089" height="31.46" fill="white"/>
</clipPath>
</defs>
</svg>
