<svg width="43" height="34" viewBox="0 0 43 34" fill="none" xmlns="http://www.w3.org/2000/svg">
<g clip-path="url(#clip0_767_2479)">
<mask id="mask0_767_2479" style="mask-type:luminance" maskUnits="userSpaceOnUse" x="0" y="0" width="43" height="34">
<path d="M42.3795 0H0.439453V33.37H42.3795V0Z" fill="white"/>
</mask>
<g mask="url(#mask0_767_2479)">
<path d="M17.1703 16.4705C17.3903 16.4105 17.5603 16.3105 17.6103 16.1405L21.4103 9.62055L25.1503 16.0305C25.2103 16.0905 25.2103 16.1405 25.2603 16.1905C25.3003 16.2305 25.337 16.2672 25.3703 16.3005C25.4303 16.3605 25.5403 16.4105 25.6503 16.4105L33.0203 17.9305L28.0103 23.5305C27.9003 23.6905 27.7903 23.8605 27.8403 24.0705L28.6103 31.5105L21.6803 28.4705C21.5103 28.4205 21.2903 28.4205 21.1303 28.4705L14.1903 31.5105L14.9603 24.0705C14.9603 23.8505 14.9003 23.6905 14.7903 23.5305L9.73032 17.9905L17.1603 16.4705H17.1703ZM13.5403 24.2405L12.6603 32.5505C12.6603 32.8205 12.7703 33.0405 12.9303 33.2005C13.0403 33.3105 13.2103 33.3105 13.3703 33.3105C13.4803 33.3105 13.5903 33.3105 13.6503 33.2605L21.4103 29.8905L29.1703 33.3105C29.3903 33.4205 29.6703 33.3705 29.8903 33.2505C30.1103 33.0905 30.2203 32.8705 30.1603 32.6005L29.2803 24.2905L34.9503 18.0405C35.1203 17.8805 35.1703 17.6005 35.1203 17.3305C35.0603 17.1105 34.8403 16.9005 34.5703 16.8405L26.2603 15.1005L22.0203 7.82055C21.7503 7.39055 21.0303 7.39055 20.8103 7.82055L16.5703 15.1005L8.26032 16.8405C7.98032 16.9005 7.82032 17.0605 7.71032 17.3305C7.65032 17.5505 7.71032 17.8205 7.87032 18.0405L13.5403 24.2305V24.2405Z" fill="#592D89"/>
<path d="M21.4095 4.46C21.7895 4.46 22.1295 4.13 22.1295 3.75V0.71C22.1295 0.33 21.7895 0 21.4095 0C21.0295 0 20.6895 0.33 20.6895 0.71V3.75C20.6895 4.13 21.0195 4.46 21.4095 4.46Z" fill="#592D89"/>
<path d="M10.1299 7.54987C10.2999 7.70987 10.4599 7.81987 10.6799 7.81987C10.8499 7.81987 10.9599 7.75987 11.1199 7.70987C11.4499 7.48987 11.5099 7.05987 11.2899 6.72987L9.46994 4.28987C9.24994 3.95987 8.80994 3.90987 8.47994 4.12987C8.14994 4.34987 8.08994 4.77987 8.30994 5.10987L10.1299 7.54987Z" fill="#592D89"/>
<path d="M0.940059 15.9204L3.86006 16.8404C3.92006 16.8404 4.03006 16.9004 4.08006 16.9004C4.36006 16.9004 4.69006 16.7404 4.74006 16.4104C4.85006 16.0304 4.63006 15.6504 4.30006 15.5404L1.38006 14.6204C1.00006 14.5104 0.610059 14.7304 0.500059 15.0604C0.340059 15.3804 0.560059 15.8204 0.940059 15.9304V15.9204Z" fill="#592D89"/>
<path d="M38.7396 16.8997C38.7996 16.8997 38.9096 16.8997 38.9596 16.8497L41.8796 15.9297C42.2696 15.8197 42.4896 15.4397 42.3196 15.0597C42.2096 14.6797 41.8296 14.5197 41.4396 14.6297L38.5196 15.5497C38.1296 15.6597 37.9096 16.0397 38.0796 16.4197C38.1396 16.6897 38.4696 16.9097 38.7396 16.9097V16.8997Z" fill="#592D89"/>
<path d="M32.1403 7.87948C32.3603 7.87948 32.5803 7.76948 32.6903 7.60948L34.5103 5.16948C34.7303 4.83948 34.6803 4.40948 34.3403 4.18948C34.0103 3.96948 33.5703 4.02948 33.3503 4.34948L31.5303 6.78948C31.3103 7.11948 31.3603 7.54948 31.6903 7.76948C31.8003 7.81948 31.9703 7.87948 32.1303 7.87948" fill="#592D89"/>
</g>
</g>
<defs>
<clipPath id="clip0_767_2479">
<rect width="41.94" height="33.37" fill="white" transform="translate(0.439453)"/>
</clipPath>
</defs>
</svg>
