<svg width="26" height="32" viewBox="0 0 26 32" fill="none" xmlns="http://www.w3.org/2000/svg">
<g clip-path="url(#clip0_857_3616)">
<mask id="mask0_857_3616" style="mask-type:luminance" maskUnits="userSpaceOnUse" x="0" y="0" width="26" height="32">
<path d="M25.8051 0H0.195312V32H25.8051V0Z" fill="white"/>
</mask>
<g mask="url(#mask0_857_3616)">
<path d="M14.812 12.8531C14.6773 12.9878 14.6161 13.1836 14.6406 13.3795L14.9711 15.3259L13.2695 14.4078C13.1838 14.3588 13.0981 14.3344 13.0002 14.3344C12.9023 14.3344 12.8166 14.3588 12.7309 14.4078L11.0293 15.3259L11.3476 13.3795C11.3843 13.1836 11.3231 12.9878 11.1762 12.8531L9.80511 11.4698L11.7026 11.1882C11.8862 11.1637 12.0576 11.0413 12.131 10.8577L12.9757 9.08264L13.8204 10.8577C13.9061 11.0291 14.0652 11.1515 14.2489 11.1882L16.1463 11.4698L14.7753 12.8531H14.812ZM17.5052 10.4782L14.7508 10.062L13.5144 7.49121C13.4164 7.2831 13.2206 7.16068 13.0002 7.16068C12.7799 7.16068 12.584 7.2831 12.4861 7.49121L11.2496 10.062L8.49524 10.4782C8.27489 10.5149 8.09126 10.6741 8.03005 10.8822C7.9566 11.1025 8.01781 11.3351 8.17695 11.4943L10.1724 13.4897L9.70717 16.3175C9.67045 16.5379 9.75614 16.7705 9.93977 16.8929C10.0377 16.9663 10.1601 17.0031 10.2825 17.0031C10.3682 17.0031 10.4662 16.9786 10.5519 16.9419L13.0125 15.6075L15.473 16.9419C15.6689 17.052 15.9015 17.0275 16.0851 16.8929C16.2688 16.7582 16.3545 16.5379 16.3177 16.3175L15.8403 13.4897L17.8357 11.4943C17.9949 11.3351 18.0438 11.1025 17.9826 10.8822C17.9214 10.6741 17.7378 10.5149 17.5174 10.4782H17.5052ZM13.0002 20.5165C8.78904 20.5165 5.36134 16.9908 5.36134 12.645C5.36134 9.98853 6.64673 7.54017 8.81352 6.07116C9.82959 5.37338 11.017 4.94492 12.229 4.8225C12.4983 4.79802 12.7554 4.78577 13.0002 4.78577C13.245 4.78577 13.5144 4.79802 13.7714 4.8225C14.9834 4.94492 16.1708 5.37338 17.1991 6.07116C19.3537 7.52793 20.6513 9.98853 20.6513 12.645C20.6513 16.9786 17.2236 20.5165 13.0125 20.5165H13.0002ZM17.8357 5.09182C16.6605 4.2961 15.3017 3.79419 13.8939 3.64729C13.294 3.58608 12.7186 3.58608 12.1188 3.64729C10.711 3.79419 9.35216 4.28386 8.17695 5.09182C5.69187 6.76894 4.21062 9.59679 4.21062 12.6572C4.21062 17.6519 8.15247 21.7162 13.0125 21.7162C17.8724 21.7162 21.8143 17.6519 21.8143 12.6572C21.8143 9.60903 20.333 6.78118 17.848 5.09182H17.8357ZM23.8097 14.3711C23.4547 14.8608 23.0752 15.3749 22.8916 15.9625C22.7079 16.5624 22.7079 17.2234 22.7079 17.86C22.7079 18.5945 22.7079 19.28 22.4264 19.7085C22.1693 20.0635 21.6674 20.2716 21.1532 20.443C21.0431 20.4797 20.9206 20.5165 20.7982 20.5654C20.2106 20.7613 19.5985 20.9572 19.1089 21.3244C18.6192 21.6917 18.2642 22.2181 17.9092 22.7322C17.4929 23.3321 17.1012 23.9074 16.5993 24.0788C16.1708 24.2135 15.6077 24.0543 15.0691 23.8707L14.8365 23.785C14.2366 23.5769 13.6245 23.3688 13.0002 23.3688C12.3759 23.3688 11.7515 23.5769 11.1639 23.785L10.9191 23.8707C10.3805 24.0543 9.81735 24.2257 9.40113 24.0788C8.89921 23.9074 8.50748 23.3443 8.09126 22.7322C7.73625 22.2181 7.36899 21.6917 6.89156 21.3244C6.40189 20.9572 5.7898 20.7613 5.2022 20.5654C5.07978 20.5287 4.9696 20.492 4.84719 20.443C4.34527 20.2716 3.83112 20.0635 3.58628 19.7085C3.29248 19.2923 3.29248 18.5945 3.30472 17.86C3.30472 17.2234 3.30472 16.5624 3.1211 15.9625C2.93747 15.3872 2.57022 14.873 2.20296 14.3711C1.7745 13.7712 1.35828 13.2081 1.35828 12.645C1.35828 12.0819 1.7745 11.5188 2.20296 10.9189C2.55798 10.417 2.93747 9.91508 3.1211 9.32747C3.30472 8.72763 3.30472 8.06657 3.30472 7.43C3.30472 6.69549 3.30472 6.00995 3.58628 5.58149C3.89233 5.15303 4.54114 4.94492 5.21444 4.72456C5.80205 4.5287 6.41413 4.33283 6.90381 3.96557C7.39348 3.59832 7.74849 3.07192 8.1035 2.55777C8.51972 1.95792 8.91146 1.38256 9.41337 1.21118C9.52355 1.17445 9.64596 1.16221 9.76838 1.16221C10.1846 1.16221 10.662 1.33359 11.1762 1.50498C11.776 1.71309 12.3881 1.9212 13.0125 1.9212C13.6368 1.9212 14.2489 1.71309 14.8487 1.50498C15.522 1.27238 16.1463 1.06427 16.6115 1.21118C17.1134 1.38256 17.5052 1.94568 17.9214 2.55777C18.2764 3.07192 18.6437 3.59832 19.1211 3.96557C19.6108 4.33283 20.2229 4.5287 20.8105 4.72456C21.496 4.94492 22.1448 5.15303 22.4386 5.58149C22.7324 5.99771 22.7324 6.69549 22.7202 7.43C22.7202 8.06657 22.7202 8.72763 22.9038 9.32747C23.0874 9.90284 23.4547 10.417 23.8219 10.9067C24.2504 11.5065 24.6666 12.0696 24.6666 12.6328C24.6666 13.1959 24.2504 13.759 23.8219 14.3588L23.8097 14.3711ZM20.1739 27.935C20.0025 27.9105 19.8311 27.9717 19.7087 28.1064L17.5419 30.3344L15.8036 25.2663C16.1831 25.3275 16.5748 25.3152 16.9665 25.1928C17.8235 24.899 18.3743 24.1033 18.864 23.4055C19.1823 22.9526 19.4761 22.5241 19.8066 22.2793C20.1127 22.0467 20.5411 21.8998 20.9941 21.7529L23.2343 28.2777L20.1861 27.9472L20.1739 27.935ZM8.45851 30.3344L6.29172 28.1064C6.1693 27.9839 5.99791 27.9227 5.82653 27.935L2.77833 28.2655L5.01857 21.7406C5.48376 21.8875 5.91222 22.0467 6.21827 22.267C6.54879 22.5119 6.8426 22.9403 7.16088 23.3933C7.63831 24.0911 8.18919 24.8868 9.05836 25.1806C9.29095 25.254 9.53579 25.2907 9.76838 25.2907C9.91528 25.2907 10.0622 25.2785 10.2091 25.254L8.47075 30.3221L8.45851 30.3344ZM24.7278 15.0933C25.2297 14.3956 25.8051 13.6121 25.8051 12.6572C25.8051 11.7024 25.2297 10.9189 24.7278 10.2211C24.4095 9.78042 24.1157 9.37644 23.9811 8.9847C23.8464 8.56848 23.8587 8.02984 23.8587 7.46672C23.8587 6.57307 23.8709 5.65494 23.3568 4.92043C22.8304 4.18593 21.9734 3.90437 21.141 3.63505C20.6146 3.46366 20.1249 3.30452 19.7822 3.04744C19.4516 2.80261 19.1578 2.37414 18.8395 1.9212C18.3621 1.22342 17.8112 0.427702 16.9421 0.133899C16.1096 -0.147662 15.2772 0.133899 14.457 0.427702C13.9306 0.611328 13.4287 0.782713 12.988 0.782713C12.5473 0.782713 12.0454 0.611328 11.519 0.427702C10.6988 0.146141 9.85407 -0.147662 9.03387 0.133899C8.16471 0.41546 7.62607 1.21118 7.1364 1.9212C6.81811 2.37414 6.53655 2.80261 6.19378 3.04744C5.85101 3.30452 5.36134 3.46366 4.83495 3.63505C4.0025 3.90437 3.14558 4.18593 2.61918 4.93268C2.10503 5.66718 2.10503 6.58532 2.11727 7.47896C2.11727 8.04209 2.11727 8.58072 1.99485 8.99694C1.87244 9.38868 1.57863 9.8049 1.26035 10.2334C0.770676 10.9067 0.195312 11.7024 0.195312 12.645C0.195312 13.5876 0.770676 14.3833 1.27259 15.0689C1.59087 15.5096 1.88468 15.9258 2.0071 16.3053C2.14175 16.7215 2.12951 17.2601 2.12951 17.8233C2.12951 18.7169 2.11727 19.635 2.63143 20.3696C2.96195 20.8347 3.42714 21.1163 3.91681 21.3244L1.37052 28.7307C1.30931 28.9266 1.3338 29.1347 1.45622 29.2938C1.57863 29.453 1.76226 29.5386 1.97037 29.5142L5.65514 29.1102L8.27488 31.8034C8.38506 31.9135 8.53196 31.9748 8.67886 31.9748C8.71559 31.9748 8.76456 31.9748 8.80128 31.9625C8.99715 31.9135 9.15629 31.7789 9.2175 31.583L11.519 24.8623C12.0454 24.6787 12.535 24.5195 12.9635 24.5195C13.3919 24.5195 13.8939 24.6909 14.4203 24.8623L16.7217 31.583C16.7829 31.7789 16.9421 31.9135 17.1379 31.9625C17.1747 31.9625 17.2236 31.9748 17.2603 31.9748C17.4072 31.9748 17.5542 31.9135 17.6643 31.8034L20.2841 29.1102L23.9688 29.5142C24.1647 29.5386 24.3606 29.453 24.483 29.2938C24.6054 29.1347 24.6421 28.9143 24.5687 28.7307L22.0346 21.3244C22.5243 21.1163 22.9895 20.8225 23.32 20.3696C23.8342 19.635 23.8342 18.7169 23.8219 17.8233C23.8219 17.2601 23.8219 16.7215 23.9444 16.3053C24.0668 15.9135 24.3728 15.4973 24.6911 15.0689L24.7278 15.0933Z" fill="#592B8A"/>
</g>
</g>
<defs>
<clipPath id="clip0_857_3616">
<rect width="25.6098" height="32" fill="white" transform="translate(0.195312)"/>
</clipPath>
</defs>
</svg>
