<svg width="48" height="49" viewBox="0 0 48 49" fill="none" xmlns="http://www.w3.org/2000/svg">
<g clip-path="url(#clip0_1430_6170)">
<mask id="mask0_1430_6170" style="mask-type:luminance" maskUnits="userSpaceOnUse" x="0" y="0" width="48" height="49">
<path d="M47.9309 0.1875H0.472656V48.1875H47.9309V0.1875Z" fill="white"/>
</mask>
<g mask="url(#mask0_1430_6170)">
<path d="M28.3469 18.1511L24.4029 26.0175C24.2728 25.7141 24.1645 25.3457 23.9261 25.1073C23.3843 24.3272 22.4308 23.7204 21.4773 23.1787C22.7992 21.0116 26.3099 19.083 28.3469 18.1295M29.3654 27.3394C28.8236 28.3579 27.8701 29.138 26.6783 29.5715C25.7898 29.8748 24.8363 29.8748 23.9911 29.6365L29.4304 18.6496C29.9071 20.925 30.5139 25.0857 29.3654 27.3611M22.9509 25.7791C23.601 26.7326 23.5577 28.0112 22.7776 28.8347L19.0069 23.4821C20.4372 23.9588 22.2358 24.7389 22.9509 25.7575M20.5022 29.6798C19.8521 29.5498 19.2453 29.2031 18.8986 28.6613C18.2485 27.7078 18.0534 25.7141 18.0534 24.2189L21.8241 29.5715C21.4123 29.7015 20.9356 29.7448 20.5022 29.7015M20.2638 30.8934C20.5022 30.9584 20.6755 30.9584 20.9139 30.9584C21.5207 30.9584 22.1058 30.785 22.7126 30.4816C23.4927 30.85 24.3162 31.0234 25.1613 31.0234C25.7464 31.0234 26.3532 30.8934 26.96 30.72C28.4552 30.2432 29.7121 29.2247 30.3622 27.9028C32.2259 24.2405 30.2539 17.0243 30.1889 16.7209C30.1889 16.6559 30.1238 16.5909 30.1238 16.5475V16.4825C30.1238 16.4825 29.9938 16.3525 29.9505 16.3092H29.8855C29.8855 16.3092 29.7555 16.2441 29.7121 16.2441H29.4737C29.1704 16.3525 22.4308 19.1263 20.3938 22.6152C19.0286 22.0735 17.815 21.7701 17.7717 21.7701H17.5333C17.5333 21.7701 17.36 21.8351 17.295 21.9001C17.2299 21.9651 17.1866 22.0085 17.1216 22.0735V22.1385C17.1216 22.1385 17.0566 22.2469 17.0566 22.3119C17.0566 22.4852 16.5148 27.1877 18.0101 29.2897C18.4868 30.1999 19.332 30.7417 20.2855 30.915" fill="white"/>
<path d="M24.1608 11.6528C30.9654 11.6528 36.5347 17.2438 36.5347 24.0916C36.5347 30.9395 30.987 36.5305 24.1608 36.5305C17.3347 36.5305 11.852 30.9395 11.852 24.0916C11.852 17.2438 17.3563 11.6528 24.1608 11.6528ZM24.1608 37.679C31.6371 37.679 37.7265 31.5463 37.7265 24.0483C37.7265 16.5503 31.6371 10.4609 24.1608 10.4609C16.6845 10.4609 10.6602 16.5937 10.6602 24.0916C10.6602 31.5896 16.6845 37.679 24.1608 37.679Z" fill="white"/>
<path d="M24.2669 7.40375C24.6137 7.40375 24.8737 7.16538 24.8737 6.79698V0.794272C24.8737 0.425875 24.6353 0.1875 24.2669 0.1875C23.8985 0.1875 23.6602 0.425875 23.6602 0.794272V6.79698C23.6602 7.10037 23.8985 7.40375 24.2669 7.40375Z" fill="white"/>
<path d="M23.6836 41.5775V47.5802C23.6836 47.9486 23.922 48.187 24.2904 48.187C24.6588 48.187 24.8971 47.9486 24.8971 47.5802V41.5775C24.8971 41.2091 24.6588 40.9707 24.2904 40.9707C23.922 40.9707 23.6836 41.2091 23.6836 41.5775Z" fill="white"/>
<path d="M32.3917 9.54899C32.5001 9.614 32.5651 9.614 32.6951 9.614C32.8685 9.614 33.1068 9.48398 33.2369 9.31061L36.2274 4.08804C36.4007 3.78465 36.2924 3.41626 35.989 3.24289C35.6856 3.06953 35.3389 3.17788 35.1439 3.48127L32.1533 8.70384C32.0233 9.00723 32.0883 9.37563 32.3917 9.54899Z" fill="white"/>
<path d="M38.9803 15.8769C39.0886 15.8769 39.1536 15.8769 39.2836 15.8119L44.4195 12.7564C44.7229 12.583 44.7879 12.2146 44.6579 11.9112C44.4845 11.6079 44.1161 11.5428 43.8128 11.6729L38.6769 14.7284C38.3735 14.9018 38.3085 15.2702 38.4385 15.5735C38.5685 15.7469 38.8069 15.8769 38.9803 15.8769Z" fill="white"/>
<path d="M47.3456 23.0723L41.3646 23.2023C40.9962 23.2023 40.7578 23.5057 40.7578 23.8091C40.7578 24.1124 41.0612 24.4158 41.3646 24.4158L47.3456 24.2858C47.6923 24.2858 47.9524 23.9824 47.9524 23.679C47.9524 23.3757 47.714 23.0723 47.3456 23.0723Z" fill="white"/>
<path d="M38.7468 32.0851C38.5734 32.3885 38.6818 32.7568 38.9852 32.9302L44.2511 35.8124C44.3811 35.8774 44.4245 35.8774 44.5545 35.8774C44.7929 35.8774 44.9662 35.7474 45.0962 35.574C45.2696 35.2706 45.1612 34.9022 44.8579 34.7289L39.5919 31.8467C39.2886 31.7167 38.9418 31.7817 38.7468 32.0851Z" fill="white"/>
<path d="M32.8702 38.2822C32.5668 38.4556 32.5018 38.824 32.6968 39.1274L35.7957 44.2416C35.9257 44.415 36.0991 44.545 36.3374 44.545C36.4675 44.545 36.5758 44.545 36.6408 44.48C36.9442 44.3066 36.9876 43.9382 36.8142 43.6348L33.7153 38.5206C33.542 38.2172 33.1736 38.1522 32.8702 38.2822Z" fill="white"/>
<path d="M15.5991 39.1297L12.782 44.4823C12.6086 44.7857 12.7169 45.1541 13.0203 45.3274C13.0853 45.3925 13.1937 45.3925 13.3237 45.3925C13.5621 45.3925 13.7355 45.2624 13.8655 45.0891L16.6826 39.7365C16.856 39.4331 16.7476 39.0647 16.4443 38.8913C16.1409 38.718 15.7941 38.8263 15.5991 39.1297Z" fill="white"/>
<path d="M10.1631 33.0616C9.98971 32.7582 9.62131 32.6932 9.31793 32.8882L4.29039 36.1388C3.987 36.3121 3.94366 36.6805 4.11702 36.9839C4.24705 37.1573 4.42041 37.2873 4.59377 37.2873C4.7238 37.2873 4.83215 37.2223 4.89716 37.1573L9.9247 33.9067C10.2714 33.7334 10.3364 33.365 10.1631 33.0616Z" fill="white"/>
<path d="M7.60442 24.9352C7.60442 24.5668 7.30103 24.3285 6.99765 24.3935L1.01661 24.6969C0.669882 24.6969 0.409837 25.0003 0.474848 25.3036C0.474848 25.607 0.778234 25.9104 1.08162 25.9104H1.14663L7.12767 25.607C7.36604 25.542 7.60442 25.2386 7.60442 24.9352Z" fill="white"/>
<path d="M3.18434 14.0566L8.4936 16.7654C8.4936 16.7654 8.66696 16.8304 8.79698 16.8304C9.03536 16.8304 9.20872 16.7004 9.33874 16.527C9.44709 16.2237 9.40375 15.8769 9.10037 15.7469L3.7261 13.0381C3.42271 12.9081 3.07599 12.9731 2.94596 13.2765C2.81594 13.5799 2.94596 13.9266 3.18434 14.0566Z" fill="white"/>
<path d="M14.1726 9.9818C14.281 10.1552 14.476 10.2202 14.6494 10.2202C14.7577 10.2202 14.8878 10.1552 14.9961 10.0901C15.2995 9.91678 15.3429 9.54839 15.1695 9.245L11.8973 4.2608C11.7239 3.95742 11.3555 3.89241 11.0521 4.08744C10.7487 4.2608 10.7054 4.6292 10.8787 4.93259L14.151 9.96013L14.1726 9.9818Z" fill="white"/>
</g>
</g>
<defs>
<clipPath id="clip0_1430_6170">
<rect width="47.4582" height="48" fill="white" transform="translate(0.472656 0.1875)"/>
</clipPath>
</defs>
</svg>
