<svg width="49" height="49" viewBox="0 0 49 49" fill="none" xmlns="http://www.w3.org/2000/svg">
<g clip-path="url(#clip0_1430_6147)">
<mask id="mask0_1430_6147" style="mask-type:luminance" maskUnits="userSpaceOnUse" x="0" y="0" width="49" height="49">
<path d="M48.8899 0.1875H0.707031V48.1875H48.8899V0.1875Z" fill="white"/>
</mask>
<g mask="url(#mask0_1430_6147)">
<path d="M14.9464 17.7176C14.4664 17.7176 14.1007 18.1061 14.1007 18.5633C14.1007 19.0204 14.4893 19.409 14.9464 19.409C15.4036 19.409 15.815 19.0204 15.815 18.5633C15.815 18.1061 15.4264 17.7176 14.9464 17.7176ZM29.5064 18.5176C29.0264 18.5176 28.6379 18.9061 28.6379 19.3633V23.409H36.8207V19.3633C36.8207 18.9061 36.4322 18.5176 35.9522 18.5176H29.4836H29.5064ZM11.7007 24.1404C11.2207 24.1404 10.8322 24.529 10.8322 24.9861C10.8322 25.4433 11.2207 25.8318 11.7007 25.8318C12.1807 25.8318 12.5693 25.4433 12.5693 24.9861C12.5693 24.529 12.1807 24.1404 11.7007 24.1404ZM18.9922 24.9404C18.5122 24.9404 18.1236 25.329 18.1236 25.7861V29.8318H47.3579V25.7861C47.3579 25.329 46.9693 24.9404 46.4893 24.9404H18.9693H18.9922ZM31.0836 34.609C31.0836 35.0661 31.4722 35.4547 31.9522 35.4547H33.575C34.055 35.4547 34.4436 35.0661 34.4436 34.609V31.3633H31.1064V34.609H31.0836ZM18.1464 45.8318C18.1464 46.289 18.535 46.6776 19.015 46.6776H46.535C47.015 46.6776 47.4036 46.289 47.4036 45.8318V31.3633H35.975V34.609C35.975 35.9118 34.9007 36.9633 33.5979 36.9633H31.975C30.6722 36.9633 29.5979 35.9118 29.5979 34.609V31.3633H18.1693V45.8318H18.1464ZM18.9922 48.1861C17.6893 48.1861 16.615 47.1347 16.615 45.8318V37.3518L10.9236 31.7061V27.2261C10.2379 26.9976 9.71216 26.4718 9.48359 25.7861C9.0493 24.5518 9.6893 23.2033 10.9236 22.769C11.175 22.6776 11.4493 22.6318 11.7236 22.6318C12.7293 22.6318 13.6207 23.2718 13.9636 24.209C14.3979 25.4433 13.7579 26.7918 12.5236 27.2261H12.5007V31.089L16.6379 35.2033V25.809C16.6379 24.5061 17.7122 23.4547 19.015 23.4547H22.8322L18.695 19.3633H17.2093C16.9807 20.049 16.4322 20.5518 15.7693 20.8033C15.5179 20.8947 15.2436 20.9404 14.9693 20.9404C13.9636 20.9404 13.0722 20.3004 12.7293 19.3633C12.295 18.129 12.935 16.7804 14.1922 16.3461C14.4436 16.2547 14.7179 16.209 14.9922 16.209C15.9979 16.209 16.8893 16.849 17.2322 17.7861L19.3579 17.809L24.9807 23.409H27.1522V19.3633C27.1522 18.0604 28.2264 17.009 29.5293 17.009H35.9979C37.3007 17.009 38.375 18.0604 38.375 19.3633V23.409H46.5122C47.815 23.409 48.8893 24.4604 48.8893 25.7633V45.809C48.8893 47.1118 47.815 48.1633 46.5122 48.1633H18.9922V48.1861Z" fill="white"/>
<path d="M28.7056 7.29607C28.2256 7.29607 27.837 7.68464 27.837 8.14179C27.837 8.59893 28.2256 8.9875 28.7056 8.9875C29.1856 8.9875 29.5742 8.59893 29.5742 8.14179C29.5742 7.68464 29.1856 7.29607 28.7056 7.29607ZM16.5685 10.5189C16.0885 10.5189 15.6999 10.9075 15.6999 11.3646C15.6999 11.8218 16.0885 12.2104 16.5685 12.2104C17.0485 12.2104 17.4371 11.8218 17.4371 11.3646C17.4371 10.9075 17.0485 10.5189 16.5685 10.5189ZM23.8599 13.7189C23.3799 13.7189 22.9913 14.1075 22.9913 14.5646C22.9913 15.0218 23.3799 15.4104 23.8599 15.4104C24.3399 15.4104 24.7285 15.0218 24.7285 14.5646C24.7285 14.1075 24.3399 13.7189 23.8599 13.7189ZM14.1456 48.1875C13.7342 48.1875 13.3913 47.8446 13.3913 47.4332V39.4104C13.3913 38.9532 13.0028 38.5646 12.5228 38.5646H10.0999C7.90562 38.5646 6.09991 36.7818 6.09991 34.6104V28.9418H3.08277C2.69419 28.9418 2.30562 28.8504 1.96277 28.6675C0.797051 28.0504 0.362766 26.6104 1.00277 25.4675L5.27705 17.5818V16.9646C5.27705 7.7075 12.8885 0.1875 22.2371 0.1875H23.1513C33.3456 0.1875 41.597 8.37036 41.597 18.4732V18.5189C41.597 19.3646 41.5285 20.2332 41.4142 21.0789C41.3456 21.5132 40.9571 21.8104 40.5228 21.7189C40.1113 21.6504 39.8599 21.2618 39.9056 20.8504C40.0199 20.0732 40.0656 19.2961 40.0656 18.4961V18.4504C40.0656 15.2732 39.1513 12.1646 37.437 9.49036L37.3685 9.39893L31.4028 15.3189H26.0771C25.9171 15.7532 25.6656 16.1418 25.2771 16.4161C24.5456 16.9418 23.677 17.0332 22.8542 16.6904C22.4885 16.5304 22.1685 16.3018 21.9399 15.9818C21.3685 15.2275 21.2999 14.3132 21.6885 13.5132C21.9628 12.9418 22.4428 12.5075 23.0371 12.3018C23.5856 12.1189 24.1799 12.1189 24.7513 12.3475C25.3685 12.5989 25.8485 13.1246 26.0771 13.7418V13.7875H30.7856L36.4999 8.14179H36.477C35.517 6.9075 34.4199 5.85607 33.1856 4.94179L33.0713 4.85036L30.8313 7.0675C31.2428 7.93607 31.1056 8.91893 30.4885 9.67321C30.1228 10.1075 29.5742 10.3818 29.0028 10.4504C28.4771 10.5189 27.9742 10.4275 27.517 10.1761C26.8085 9.7875 26.3285 9.03321 26.3056 8.23321C26.2599 6.81607 27.4028 5.76464 28.6828 5.76464C29.0485 5.76464 29.3913 5.83321 29.7113 5.99321H29.7342L31.7456 4.00464L31.677 3.95893C30.0085 2.97607 28.1571 2.29036 26.2599 1.9475H26.1913V3.63893L18.8771 10.8618C18.9913 11.5932 18.8085 12.2789 18.3513 12.8275C17.8942 13.3761 17.2313 13.6961 16.4999 13.6961C15.9513 13.6961 15.4028 13.5132 14.9913 13.1475C14.4885 12.7361 14.1913 12.1875 14.1228 11.5475C14.0542 10.9304 14.2599 10.3132 14.6485 9.81036C15.1056 9.26179 15.7685 8.94179 16.4999 8.94179C17.0485 8.94179 17.5742 9.12464 18.0085 9.49036H18.0313L24.6142 2.99893V1.71893H24.5913C24.0885 1.67321 23.5628 1.65036 23.0599 1.65036H22.1456C13.7113 1.69607 6.80848 8.53036 6.80848 16.9646V17.9704L2.32848 26.1761C2.25991 26.2904 2.21419 26.4275 2.21419 26.5875C2.21419 27.0446 2.60277 27.4332 3.08277 27.4332H7.60848V34.5875C7.60848 35.9361 8.72848 37.0332 10.0771 37.0332H12.4999C13.8028 37.0332 14.8771 38.0846 14.8771 39.3875V47.4104C14.8771 47.8218 14.5342 48.1646 14.1228 48.1646" fill="white"/>
</g>
</g>
<defs>
<clipPath id="clip0_1430_6147">
<rect width="48.1829" height="48" fill="white" transform="translate(0.707031 0.1875)"/>
</clipPath>
</defs>
</svg>
