<svg width="66" height="65" viewBox="0 0 66 65" fill="none" xmlns="http://www.w3.org/2000/svg">
<mask id="mask0_1430_5802" style="mask-type:luminance" maskUnits="userSpaceOnUse" x="0" y="0" width="66" height="65">
<path d="M65.5172 0.1875H0.484375V64.1875H65.5172V0.1875Z" fill="white"/>
</mask>
<g mask="url(#mask0_1430_5802)">
<path d="M7.20491 23.2717C7.45859 23.2717 7.73039 23.163 7.91159 22.9456C8.23775 22.5651 8.20151 21.9671 7.82099 21.6409L2.02258 16.6398C1.64205 16.3136 1.04409 16.3499 0.717932 16.7304C0.391771 17.1109 0.428011 17.7089 0.808532 18.0351L6.60695 23.0362C6.78815 23.1811 7.00559 23.2536 7.20491 23.2536" fill="white"/>
<path d="M18.1482 14.2844C18.2932 14.6649 18.6375 14.9004 19.018 14.9004C19.1267 14.9004 19.2354 14.8823 19.3442 14.8461C19.8153 14.6649 20.069 14.1394 19.8878 13.6683L16.5174 4.44517C16.3362 3.97405 15.8108 3.72037 15.3396 3.88345C14.8504 4.06465 14.6148 4.59014 14.7779 5.07938L18.1482 14.3025V14.2844Z" fill="white"/>
<path d="M33.0101 14.901C33.5174 14.901 33.9342 14.4842 33.9342 13.9769V1.11162C33.9342 0.604261 33.5174 0.1875 33.0101 0.1875C32.5027 0.1875 32.0859 0.604261 32.0859 1.11162V13.9587C32.0859 14.4661 32.5027 14.8829 33.0101 14.8829" fill="white"/>
<path d="M65.2979 16.7319C64.9717 16.3514 64.3737 16.297 63.9932 16.6413L58.1948 21.6425C57.8143 21.9686 57.7599 22.5666 58.1042 22.9471C58.2854 23.1645 58.5391 23.2733 58.8109 23.2733C59.0283 23.2733 59.2458 23.2008 59.4089 23.0558L65.2073 18.0547C65.5878 17.7285 65.6421 17.1306 65.2979 16.75" fill="white"/>
<path d="M46.6672 14.8474C46.7759 14.8836 46.8846 14.9017 46.9752 14.9017C47.3557 14.9017 47.7 14.6662 47.845 14.2856L51.2153 5.06255C51.3965 4.59142 51.1428 4.04782 50.6536 3.88474C50.1825 3.70354 49.6389 3.95722 49.4758 4.44646L46.1054 13.6696C45.9242 14.1407 46.1779 14.6843 46.6672 14.8474Z" fill="white"/>
</g>
<path d="M42.1242 36.5371L33.9883 58.0456L42.1242 36.5371Z" fill="white"/>
<path d="M44.1172 30.9916L46.5996 23.4355L44.1172 30.9916Z" fill="white"/>
<path d="M21.9023 36.5371L28.6249 54.331L32.0133 58.0456L23.8774 36.5371H21.9023Z" fill="white"/>
<path d="M25.4164 30.9916L31.849 23.4355H29.4209L22.9883 30.9916H25.4164Z" fill="white"/>
<path d="M21.8817 30.9916L19.3993 23.4355H18.765L17.8047 24.559L19.9429 30.9916H21.8817Z" fill="white"/>
<path d="M42.1242 36.5371L33.9883 58.0456L37.3767 54.3129L44.0993 36.5371H42.1242Z" fill="white"/>
<path d="M43.0107 30.9916L36.5781 23.4355L43.0107 30.9916Z" fill="white"/>
<path d="M43.013 30.9916L36.5804 23.4355H34.1523L40.585 30.9916H43.013Z" fill="white"/>
<path d="M46.056 30.9916L47.6868 26.063L48.1761 24.559L47.2157 23.4355H46.5996L44.1172 30.9916H46.056Z" fill="white"/>
<path d="M42.16 32.8398H23.8407L22.8984 33.9633L23.1702 34.6881H42.8305L43.1023 33.9452L42.16 32.8398Z" fill="white"/>
<mask id="mask1_1430_5802" style="mask-type:luminance" maskUnits="userSpaceOnUse" x="0" y="0" width="66" height="65">
<path d="M65.5172 0.1875H0.484375V64.1875H65.5172V0.1875Z" fill="white"/>
</mask>
<g mask="url(#mask1_1430_5802)">
<path d="M22.5348 34.3615C22.3536 34.579 22.0999 34.6877 21.8281 34.6877H23.1509L22.8791 33.9629L22.5348 34.3615Z" fill="white"/>
<path d="M21.195 34.6875L20.9776 34.0896C20.9776 34.0896 20.9776 34.0896 20.9776 34.0715L20.579 32.8574H10.6673L9.90625 33.7453L10.7941 34.7238H21.2132L21.195 34.6875Z" fill="white"/>
<path d="M21.8271 34.6862C21.8271 34.6862 21.7184 34.6862 21.6822 34.6862C21.6822 34.6862 21.6822 34.6862 21.664 34.6862C21.664 34.6862 21.6278 34.6862 21.6097 34.6862C21.6097 34.6862 21.5734 34.6862 21.5553 34.6862C21.5372 34.6862 21.5191 34.6862 21.4828 34.6681C21.4828 34.6681 21.4466 34.6681 21.4285 34.6499C21.4104 34.6499 21.3741 34.6318 21.356 34.6137C21.356 34.6137 21.3198 34.6137 21.3198 34.5956C21.3016 34.5956 21.2835 34.5593 21.2473 34.5412C21.2473 34.5412 21.2292 34.5231 21.211 34.505C21.1748 34.4869 21.1567 34.4506 21.1386 34.4325C21.1023 34.3963 21.0842 34.36 21.0661 34.3238C21.0661 34.3238 21.0661 34.3057 21.048 34.2875C21.048 34.2694 21.0117 34.2332 21.0117 34.2151V34.1788C21.0117 34.1788 21.0117 34.1607 21.0117 34.1426L21.2292 34.7405H21.8634" fill="white"/>
<path d="M20.9947 34.1618C20.9947 34.1618 20.9947 34.1255 20.9766 34.1074C20.9766 34.1074 20.9766 34.1255 20.9766 34.1437" fill="white"/>
<path d="M21.2667 34.4869C21.2667 34.4869 21.2486 34.4869 21.2305 34.4688C21.2305 34.4688 21.2486 34.4869 21.2667 34.4869Z" fill="white"/>
<path d="M21.0689 34.2706C21.0689 34.2706 21.0689 34.2525 21.0508 34.2344C21.0508 34.2344 21.0508 34.2525 21.0689 34.2706Z" fill="white"/>
<path d="M21.1587 34.397L21.1406 34.3789L21.1587 34.397Z" fill="white"/>
<path d="M21.484 34.6158C21.484 34.6158 21.4478 34.6158 21.4297 34.5977C21.4297 34.5977 21.4659 34.5977 21.484 34.6158Z" fill="white"/>
<path d="M21.38 34.5591C21.38 34.5591 21.3438 34.5591 21.3438 34.541C21.3438 34.541 21.38 34.541 21.38 34.5591Z" fill="white"/>
</g>
<path d="M22.5 32.8398L22.6993 33.4559L22.8986 33.9633L23.8409 32.8398H22.5Z" fill="white"/>
<mask id="mask2_1430_5802" style="mask-type:luminance" maskUnits="userSpaceOnUse" x="0" y="0" width="66" height="65">
<path d="M65.5172 0.1875H0.484375V64.1875H65.5172V0.1875Z" fill="white"/>
</mask>
<g mask="url(#mask2_1430_5802)">
<path d="M21.8306 32.8398C22.2111 32.8398 22.5554 33.0754 22.6823 33.4378L22.4829 32.8398H21.8125" fill="white"/>
<path d="M22.9011 33.9644L22.7018 33.457C22.7924 33.7651 22.738 34.0731 22.575 34.3087C22.3938 34.5442 22.122 34.6892 21.832 34.6892C22.1038 34.6892 22.3575 34.5805 22.5387 34.363L22.883 33.9463L22.9011 33.9644Z" fill="white"/>
<path d="M20.9221 33.8911C20.9221 33.8911 20.9221 33.8911 20.9221 33.873C20.9221 33.8187 20.9221 33.7462 20.9221 33.6918C20.9221 33.6918 20.9221 33.6918 20.9221 33.6737C20.9221 33.6012 20.9402 33.5469 20.9764 33.4925C20.9764 33.4925 20.9764 33.4744 20.9764 33.4563C20.9946 33.4019 21.0308 33.3475 21.067 33.2932C21.067 33.2751 21.0852 33.2569 21.1033 33.2388C21.1033 33.2388 21.1033 33.2388 21.1033 33.2207L21.3751 32.8945H20.5234L20.9221 34.1086C20.9221 34.1086 20.9221 34.1086 20.9221 34.1267C20.904 34.0723 20.8858 33.9999 20.8677 33.9274" fill="white"/>
<path d="M20.9606 34.0704C20.9606 34.0704 20.9244 33.9436 20.9062 33.8711C20.9062 33.9436 20.9244 33.9979 20.9606 34.0704Z" fill="white"/>
<path d="M21.8317 32.8398H21.4149L21.1431 33.166C21.1431 33.166 21.1431 33.166 21.125 33.1841C21.3062 32.9667 21.5599 32.8398 21.8498 32.8398" fill="white"/>
<path d="M20.9258 33.6539C20.9258 33.6539 20.9439 33.527 20.9801 33.4727C20.962 33.527 20.9439 33.5995 20.9258 33.6539Z" fill="white"/>
<path d="M20.9766 33.4209C20.9766 33.4209 21.0309 33.3122 21.0672 33.2578C21.0309 33.3122 20.9947 33.3665 20.9766 33.4209Z" fill="white"/>
<path d="M21.1428 34.3802C21.1428 34.3802 21.0884 34.3077 21.0703 34.2715C21.0884 34.3077 21.1247 34.344 21.1428 34.3802Z" fill="white"/>
<path d="M21.0519 34.2346C21.0519 34.2346 21.0156 34.1802 21.0156 34.1621C21.0156 34.1983 21.0519 34.2165 21.0519 34.2346Z" fill="white"/>
<path d="M21.4514 34.5968C21.4514 34.5968 21.4151 34.5787 21.3789 34.5605C21.397 34.5605 21.4151 34.5787 21.4514 34.5968Z" fill="white"/>
<path d="M21.342 34.5426C21.342 34.5426 21.3058 34.5064 21.2695 34.4883C21.2877 34.4883 21.3058 34.5245 21.342 34.5426Z" fill="white"/>
<path d="M21.2326 34.469C21.2326 34.469 21.1783 34.4146 21.1602 34.3965C21.1783 34.4146 21.2145 34.4508 21.2326 34.469Z" fill="white"/>
<path d="M21.0703 33.2385C21.0703 33.2204 21.1066 33.2023 21.1247 33.166C21.1247 33.1841 21.1066 33.2023 21.0884 33.2204" fill="white"/>
<path d="M21.5569 34.6529C21.5569 34.6529 21.5025 34.6529 21.4844 34.6348C21.5025 34.6348 21.5206 34.6529 21.5569 34.6529Z" fill="white"/>
<path d="M22.5747 34.3076C22.7559 34.072 22.7921 33.764 22.7015 33.474V33.4378C22.5747 33.0754 22.2304 32.8398 21.8499 32.8398C21.5781 32.8398 21.3063 32.9667 21.1251 33.1841C21.1251 33.2022 21.0889 33.2204 21.0707 33.2385C21.0345 33.2928 20.9983 33.3472 20.9801 33.4016C20.9801 33.4016 20.9801 33.4197 20.9801 33.4378C20.962 33.4922 20.9439 33.5646 20.9258 33.6371C20.9258 33.6371 20.9258 33.6371 20.9258 33.6552C20.9258 33.7096 20.9258 33.7821 20.9258 33.8364V33.8546C20.9258 33.9089 20.9439 33.9814 20.9801 34.0358C20.9801 34.0358 20.9801 34.0539 20.9801 34.072C20.9801 34.072 20.9801 34.1082 20.9983 34.1264C20.9983 34.1445 21.0345 34.1807 21.0345 34.1988C21.0345 34.1988 21.0345 34.217 21.0526 34.2351C21.0707 34.2713 21.107 34.3076 21.1251 34.3438C21.1251 34.3438 21.1795 34.4163 21.1976 34.4344C21.1976 34.4344 21.2157 34.4525 21.2338 34.4706C21.2519 34.4706 21.2701 34.5069 21.3063 34.525C21.3063 34.525 21.3425 34.525 21.3425 34.5431C21.3607 34.5431 21.3788 34.5612 21.415 34.5794C21.415 34.5794 21.4513 34.5794 21.4694 34.5975C21.4875 34.5975 21.5056 34.6156 21.5419 34.6156C21.56 34.6156 21.5781 34.6156 21.5962 34.6156C21.6143 34.6156 21.6325 34.6156 21.6687 34.6156C21.7231 34.6156 21.7774 34.6156 21.8318 34.6156C22.1217 34.6156 22.4116 34.4706 22.5747 34.2351" fill="white"/>
<path d="M43.9527 34.6696C43.9527 34.6696 43.8983 34.6696 43.8802 34.6515C43.8439 34.6515 43.7896 34.6152 43.7533 34.5971C43.7352 34.5971 43.699 34.579 43.6809 34.5609C43.6446 34.5427 43.6084 34.5246 43.5721 34.4884C43.554 34.4703 43.5359 34.4521 43.4996 34.434C43.4815 34.4159 43.4634 34.3978 43.4453 34.3797L43.0829 33.9629L42.793 34.7058H44.1339C44.1339 34.7058 43.9889 34.7058 43.9345 34.6877" fill="white"/>
<path d="M45.0427 34.0539C45.0427 34.0539 45.0065 34.1445 44.9884 34.1807L44.7891 34.6881H55.1718L56.0597 33.7096L55.2987 32.8398H45.4414L45.0427 34.0539Z" fill="white"/>
<path d="M44.4245 34.6514C44.4064 34.6514 44.3701 34.6514 44.352 34.6695H44.3339C44.2976 34.6695 44.2433 34.6695 44.207 34.6695H44.8412L45.0406 34.1621C44.9318 34.3977 44.7144 34.5608 44.4788 34.6332" fill="white"/>
<path d="M43.8984 34.6523C43.8984 34.6523 43.9347 34.6705 43.9709 34.6705C43.9528 34.6705 43.9347 34.6705 43.8984 34.6523Z" fill="white"/>
<path d="M43.592 34.4899C43.592 34.4899 43.5377 34.4537 43.5195 34.4355C43.5377 34.4537 43.5558 34.4718 43.592 34.4899Z" fill="white"/>
<path d="M43.6992 34.5605C43.6992 34.5605 43.7536 34.5968 43.7717 34.5968C43.7536 34.5968 43.7173 34.5605 43.6992 34.5605Z" fill="white"/>
<path d="M43.3003 33.4378C43.3003 33.4378 43.3003 33.4197 43.3003 33.4016L43.4815 32.8398H42.1406L43.0829 33.9452L43.2822 33.4378H43.3003Z" fill="white"/>
<path d="M44.172 32.8398H43.5015L43.3203 33.4016C43.4653 33.0573 43.7914 32.8398 44.172 32.8398Z" fill="white"/>
<path d="M43.7734 34.5977C43.7734 34.5977 43.864 34.6339 43.9003 34.652C43.864 34.652 43.8097 34.6339 43.7734 34.5977Z" fill="white"/>
<path d="M43.5938 34.4883C43.5938 34.4883 43.6662 34.5426 43.7025 34.5608C43.6662 34.5426 43.63 34.5245 43.5938 34.4883Z" fill="white"/>
<path d="M44.172 34.688C44.172 34.688 44.027 34.688 43.9727 34.6699C44.0451 34.6699 44.0995 34.688 44.172 34.688Z" fill="white"/>
<path d="M43.1041 33.9459L43.4665 34.3627C43.4665 34.3627 43.5027 34.3989 43.5208 34.4171C43.4846 34.3808 43.4483 34.3446 43.4121 34.3083C43.2309 34.0728 43.1947 33.7647 43.2853 33.4748V33.4023C43.2853 33.4023 43.2853 33.4205 43.2853 33.4386L43.0859 33.9459H43.1041Z" fill="white"/>
<path d="M44.587 32.8409L44.8588 33.1671C44.8588 33.1671 44.8588 33.1671 44.8588 33.1852C44.8588 33.1852 44.8951 33.2214 44.8951 33.2396C44.9313 33.2939 44.9675 33.3483 44.9857 33.4026C44.9857 33.4026 44.9857 33.4208 44.9857 33.4389C45.0038 33.4932 45.0219 33.5657 45.04 33.6201C45.04 33.6201 45.04 33.765 45.04 33.8194V33.8375C45.04 33.8919 45.0219 33.9644 44.9857 34.0369C44.9857 34.0369 44.9857 34.0369 44.9857 34.055L44.9494 34.1456C44.9494 34.1456 44.9857 34.0731 45.0038 34.0187L45.4024 32.8047H44.5508L44.587 32.8409Z" fill="white"/>
<path d="M44.9336 33.2578C44.9336 33.2578 45.0061 33.3665 45.0242 33.439C45.0061 33.3847 44.9698 33.3122 44.9336 33.2578Z" fill="white"/>
<path d="M45.0778 33.8906C45.0778 33.8906 45.0597 34.0175 45.0234 34.0899C45.0416 34.0356 45.0597 33.9631 45.0778 33.8906Z" fill="white"/>
<path d="M45.043 33.457C45.043 33.457 45.0792 33.5839 45.0973 33.6563C45.0973 33.5839 45.0792 33.5295 45.043 33.457Z" fill="white"/>
<path d="M44.8928 33.1841C44.8928 33.1841 44.8928 33.1841 44.8746 33.166L44.6028 32.8398H44.168C44.4579 32.8398 44.7116 32.9667 44.8928 33.1841Z" fill="white"/>
<path d="M44.3541 34.6705C44.3541 34.6705 44.4084 34.6705 44.4265 34.6523C44.3903 34.6523 44.3541 34.6523 44.3359 34.6705C44.3359 34.6705 44.3541 34.6705 44.3722 34.6705" fill="white"/>
<path d="M45.0419 34.0728C45.0419 34.0728 45.0237 34.1272 45.0056 34.1453C44.8969 34.399 44.6795 34.562 44.4258 34.6345C44.6795 34.562 44.8788 34.3808 44.9875 34.1634L45.0237 34.0728C45.0237 34.0728 45.0237 34.0728 45.0237 34.0547" fill="white"/>
<path d="M44.9347 33.238C44.9347 33.238 44.9166 33.2017 44.8984 33.1836C44.8984 33.2017 44.9347 33.2198 44.9528 33.2561" fill="white"/>
<path d="M44.1706 32.8398C43.7901 32.8398 43.4639 33.0573 43.319 33.4016V33.474C43.2102 33.7458 43.2465 34.072 43.4277 34.3076C43.4639 34.3438 43.5002 34.38 43.5364 34.4163C43.5545 34.4344 43.5726 34.4525 43.6089 34.4706C43.6451 34.4888 43.6814 34.525 43.7176 34.5431C43.7357 34.5431 43.772 34.5794 43.7901 34.5794C43.8263 34.5975 43.8807 34.6156 43.9169 34.6337C43.935 34.6337 43.9713 34.6518 43.9894 34.6518C44.0619 34.6518 44.1344 34.67 44.1887 34.67C44.1887 34.67 44.1887 34.67 44.2068 34.67C44.2431 34.67 44.2975 34.67 44.3337 34.67C44.3699 34.67 44.4062 34.67 44.4424 34.6518C44.6961 34.5794 44.8954 34.3982 45.0223 34.1626C45.0223 34.1445 45.0404 34.1082 45.0585 34.0901C45.0766 34.0358 45.0947 33.9633 45.1129 33.8908V33.8727C45.1129 33.8183 45.1129 33.7458 45.1129 33.6915C45.1129 33.6915 45.1129 33.6915 45.1129 33.6734C45.1129 33.619 45.0947 33.5465 45.0766 33.4922C45.0766 33.4922 45.0766 33.474 45.0766 33.4559C45.0585 33.4016 45.0223 33.3472 44.986 33.2928C44.986 33.2747 44.9498 33.2566 44.9317 33.2385C44.7505 33.021 44.4968 32.8942 44.2068 32.8942" fill="white"/>
<path d="M5.43218 33.2207C5.43218 33.2207 5.43218 33.2388 5.41406 33.2569C5.41406 33.2569 5.41406 33.2569 5.41406 33.2388" fill="white"/>
<path d="M60.5533 33.2569C60.5533 33.2569 60.5533 33.2388 60.5352 33.2207L60.5533 33.2569Z" fill="white"/>
<path d="M60.5533 33.2564L60.5352 33.2383L60.5533 33.2564Z" fill="white"/>
<path d="M5.34234 34.127H5.32422L5.34234 34.1451V34.127Z" fill="white"/>
<path d="M5.41265 34.2706C5.41265 34.2706 5.41265 34.2525 5.39453 34.2344L5.41265 34.2706Z" fill="white"/>
</g>
<path d="M10.7741 34.6881L9.8862 33.7277L10.6472 32.8398H8.20104L7.42188 33.7458L8.27352 34.6881H10.7741Z" fill="white"/>
<mask id="mask3_1430_5802" style="mask-type:luminance" maskUnits="userSpaceOnUse" x="0" y="0" width="66" height="65">
<path d="M65.5172 0.1875H0.484375V64.1875H65.5172V0.1875Z" fill="white"/>
</mask>
<g mask="url(#mask3_1430_5802)">
<path d="M5.41656 34.2695C5.41656 34.2695 5.41656 34.2877 5.43468 34.3058C5.43468 34.3058 5.43468 34.3239 5.4528 34.3239C5.4528 34.3058 5.41656 34.2877 5.39844 34.2695" fill="white"/>
<path d="M5.34234 34.1451C5.34234 34.1451 5.34234 34.1632 5.36046 34.1813C5.36046 34.1632 5.36046 34.1451 5.32422 34.127" fill="white"/>
<path d="M5.33984 33.4015C5.33984 33.4015 5.33984 33.4196 5.33984 33.4377C5.33984 33.4196 5.35796 33.3834 5.37608 33.3652C5.37608 33.3652 5.37608 33.3834 5.35796 33.4015" fill="white"/>
<path d="M5.43359 33.2198C5.43359 33.2198 5.43359 33.2198 5.43359 33.238C5.43359 33.238 5.43359 33.238 5.43359 33.2561C5.43359 33.238 5.46983 33.2017 5.48795 33.1836" fill="white"/>
<path d="M60.5337 33.2388L60.5156 33.2207L60.5337 33.2388Z" fill="white"/>
<path d="M60.6236 34.1426C60.6236 34.1607 60.6236 34.1788 60.6055 34.1969C60.6055 34.1969 60.6055 34.1788 60.6236 34.1607" fill="white"/>
<path d="M60.6783 33.9805L60.6602 33.9986L60.6783 33.9805Z" fill="white"/>
<path d="M60.6236 33.4015C60.6236 33.4015 60.6236 33.3834 60.6055 33.3652C60.6055 33.3834 60.6236 33.4015 60.6417 33.4377C60.6417 33.4377 60.6417 33.4196 60.6417 33.4015" fill="white"/>
</g>
<path d="M55.3182 32.8398L56.0793 33.7277L55.1914 34.6881H57.692L58.5436 33.7458L57.7645 32.8398H55.3182Z" fill="white"/>
<mask id="mask4_1430_5802" style="mask-type:luminance" maskUnits="userSpaceOnUse" x="0" y="0" width="66" height="65">
<path d="M65.5172 0.1875H0.484375V64.1875H65.5172V0.1875Z" fill="white"/>
</mask>
<g mask="url(#mask4_1430_5802)">
<path d="M60.5348 34.3072C60.5348 34.3072 60.5348 34.3072 60.5348 34.2891C60.5348 34.3072 60.4986 34.3253 60.4805 34.3615C60.4805 34.3615 60.4805 34.3434 60.4986 34.3253" fill="white"/>
<path d="M60.5508 33.2564C60.5508 33.2564 60.5508 33.2564 60.5508 33.2383C60.5508 33.2564 60.587 33.2745 60.6051 33.3108" fill="white"/>
</g>
<mask id="mask5_1430_5802" style="mask-type:luminance" maskUnits="userSpaceOnUse" x="0" y="0" width="66" height="65">
<path d="M65.5172 0.1875H0.484375V64.1875H65.5172V0.1875Z" fill="white"/>
</mask>
<g mask="url(#mask5_1430_5802)">
<path d="M16.9375 19.938C16.9375 19.938 16.9375 19.938 16.9556 19.9199C16.9556 19.9199 16.9375 19.9199 16.9375 19.938Z" fill="white"/>
</g>
<path d="M48.8672 22.5117L53.8502 28.292L48.8672 22.5117Z" fill="white"/>
<mask id="mask6_1430_5802" style="mask-type:luminance" maskUnits="userSpaceOnUse" x="0" y="0" width="66" height="65">
<path d="M65.5172 0.1875H0.484375V64.1875H65.5172V0.1875Z" fill="white"/>
</mask>
<g mask="url(#mask6_1430_5802)">
<path d="M32.4453 64.0059C32.4453 64.0059 32.4453 64.0059 32.4634 64.024L32.4453 64.0059Z" fill="white"/>
<path d="M33.6602 63.899L33.6783 63.8809L33.6602 63.899Z" fill="white"/>
<path d="M32.3242 63.8809C32.3242 63.8809 32.3242 63.8809 32.3423 63.899C32.3423 63.899 32.3423 63.899 32.3242 63.8809Z" fill="white"/>
<path d="M49.0469 19.9199C49.0469 19.9199 49.0469 19.9199 49.065 19.938C49.065 19.938 49.0469 19.938 49.0469 19.9199Z" fill="white"/>
</g>
<mask id="mask7_1430_5802" style="mask-type:luminance" maskUnits="userSpaceOnUse" x="0" y="0" width="66" height="65">
<path d="M65.5172 0.1875H0.484375V64.1875H65.5172V0.1875Z" fill="white"/>
</mask>
<g mask="url(#mask7_1430_5802)">
<path d="M32.4297 63.9883L32.4478 64.0064L32.4297 63.9883Z" fill="white"/>
<path d="M33.5728 63.9883L33.5547 64.0064L33.5728 63.9883Z" fill="white"/>
<path d="M49.0828 19.9391C49.0828 19.9391 49.0828 19.9391 49.0647 19.921C49.0465 19.921 49.0103 19.9029 48.9922 19.8848C49.0284 19.9029 49.0647 19.921 49.1009 19.9572" fill="white"/>
<path d="M48.7046 19.7564C48.6503 19.7564 48.5959 19.7383 48.5234 19.7383C48.5234 19.7383 48.6503 19.7383 48.7228 19.7564" fill="white"/>
<path d="M48.9017 19.8292C48.9017 19.8292 48.9017 19.8292 48.8836 19.8292C48.8473 19.8292 48.8292 19.8111 48.793 19.793C48.8292 19.793 48.8836 19.8111 48.9198 19.8473" fill="white"/>
<path d="M49.139 20.0117C49.139 20.0117 49.2115 20.0842 49.2477 20.1386C49.4289 20.3741 49.4651 20.6822 49.3745 20.9721L48.8672 22.5304L53.8502 28.3288L56.1696 31.0106H58.6158L49.2115 20.0842C49.2115 20.0842 49.1752 20.048 49.1571 20.0298" fill="white"/>
<path d="M17.0306 19.8848C17.0306 19.8848 16.9762 19.9029 16.9581 19.921H16.9219C16.9219 19.921 16.9219 19.9391 16.9219 19.9572C16.9581 19.921 16.9944 19.9029 17.0306 19.8848Z" fill="white"/>
<path d="M17.482 19.7383C17.482 19.7383 17.3551 19.7383 17.3008 19.7564C17.3551 19.7564 17.4276 19.7383 17.5001 19.7383" fill="white"/>
<path d="M16.9346 22.7473L17.1339 22.5117L16.6265 20.9715C16.5359 20.6816 16.5722 20.3736 16.7534 20.138C16.7896 20.1018 16.8259 20.0655 16.8621 20.0293C16.8621 20.0474 16.8259 20.0655 16.8077 20.0837L7.36719 31.01H9.81339L16.9346 22.7654V22.7473Z" fill="white"/>
<path d="M17.2298 19.7916C17.2298 19.7916 17.1573 19.8097 17.1392 19.8278C17.1392 19.8278 17.1392 19.8278 17.1211 19.8278C17.1573 19.8097 17.2117 19.7916 17.2479 19.7734" fill="white"/>
<path d="M32.2854 63.8611C32.2492 63.8248 32.231 63.7886 32.1948 63.7342C32.1948 63.7342 32.1948 63.698 32.1767 63.6799C32.1767 63.6617 32.1586 63.6255 32.1404 63.6074L30.419 59.0592L9.9615 36.5723H7.46094L32.3216 63.9154C32.3216 63.9154 32.3216 63.9154 32.3398 63.9335C32.3398 63.9335 32.3035 63.8973 32.3035 63.8792" fill="white"/>
<path d="M32.1394 62.9368L32.6649 61.5235L30.418 59.041L32.1394 63.5892C32.1394 63.5892 32.1575 63.6435 32.1756 63.6616C32.0669 63.4442 32.0488 63.1724 32.1394 62.9368Z" fill="white"/>
<path d="M33.3906 64.0968C33.3906 64.0968 33.4269 64.0787 33.445 64.0605C33.4269 64.0605 33.4087 64.0787 33.3906 64.0968Z" fill="white"/>
<path d="M33.5742 63.9885C33.5742 63.9885 33.6286 63.9341 33.6648 63.916C33.6648 63.916 33.6105 63.9704 33.5742 63.9885Z" fill="white"/>
<path d="M32.2859 63.8436C32.2859 63.8436 32.2316 63.753 32.1953 63.7168C32.2134 63.753 32.2497 63.8074 32.2859 63.8436Z" fill="white"/>
<path d="M32.4503 64.005C32.4503 64.005 32.4503 64.005 32.4684 64.005C32.4503 64.005 32.4322 63.9869 32.4141 63.9688" fill="white"/>
<path d="M32.3395 63.8981C32.3214 63.88 32.3033 63.8619 32.2852 63.8438C32.2852 63.8619 32.3214 63.88 32.3395 63.8981Z" fill="white"/>
<path d="M17.6798 19.7578C18.0059 19.8303 18.2778 20.0659 18.3684 20.3739L18.767 21.5879H30.9799L32.2845 20.0659C32.2845 20.0659 32.3751 19.9753 32.4114 19.939C32.4114 19.939 32.4295 19.939 32.4476 19.9209C32.4839 19.8847 32.5382 19.8484 32.5926 19.8303C32.6469 19.8122 32.7013 19.7941 32.7557 19.7759C32.7557 19.7759 32.7738 19.7759 32.7919 19.7759C32.8463 19.7759 32.9187 19.7578 32.9731 19.7578H17.4805C17.5529 19.7578 17.6073 19.7578 17.6798 19.7578Z" fill="white"/>
<path d="M32.4297 19.938C32.4297 19.938 32.4478 19.938 32.4659 19.9199C32.4659 19.9199 32.4478 19.9199 32.4297 19.938Z" fill="white"/>
<path d="M32.3046 21.2609C32.0691 20.9891 32.0147 20.6086 32.1597 20.2643C32.1959 20.1918 32.2503 20.1194 32.3046 20.0469L31 21.569H32.5764L32.3046 21.2428V21.2609Z" fill="white"/>
<path d="M18.7886 21.5879L18.3899 20.3739C18.2812 20.0659 18.0275 19.8122 17.6832 19.7578C17.6107 19.7578 17.5564 19.7578 17.4839 19.7578C17.4114 19.7578 17.3571 19.7578 17.2846 19.7759C17.2665 19.7759 17.2483 19.7759 17.2302 19.7941C17.1759 19.7941 17.1396 19.8122 17.1034 19.8484C17.0853 19.8484 17.049 19.8847 17.0309 19.8847C16.9947 19.9028 16.9584 19.9209 16.9222 19.9571C16.9041 19.9753 16.8859 19.9934 16.8497 20.0115C16.8135 20.0477 16.7772 20.084 16.741 20.1383C16.5598 20.3739 16.5235 20.6819 16.6141 20.9719L17.1215 22.5121L17.9188 21.6061H18.7704L18.7886 21.5879Z" fill="white"/>
<path d="M41.9062 52.0836L35.6004 59.0236L33.879 63.5898C33.879 63.5898 33.8609 63.6442 33.8428 63.6623C33.8428 63.6623 33.8428 63.6985 33.8246 63.7166C33.8065 63.7529 33.7703 63.8072 33.734 63.8435C33.734 63.8435 33.6978 63.8797 33.6797 63.8978C33.6797 63.8978 33.6797 63.8978 33.6978 63.8978L58.5223 36.5547H56.0217L41.9243 52.1017L41.9062 52.0836Z" fill="white"/>
<path d="M33.5348 64.0234C33.5348 64.0234 33.4986 64.0416 33.4805 64.0597C33.4805 64.0597 33.4805 64.0597 33.4986 64.0597" fill="white"/>
<path d="M33.8054 63.7168C33.8054 63.7168 33.7511 63.8074 33.7148 63.8436C33.7511 63.8074 33.7692 63.753 33.8054 63.7168Z" fill="white"/>
<path d="M33.6602 63.8981C33.6602 63.8981 33.6964 63.8619 33.7145 63.8438C33.7145 63.8619 33.6783 63.88 33.6602 63.8981Z" fill="white"/>
<path d="M33.86 62.9354C33.9506 63.1891 33.9325 63.4428 33.8238 63.6602C33.8238 63.6421 33.8419 63.6059 33.86 63.5877L35.5814 59.0215L33.3164 61.522L33.86 62.9354Z" fill="white"/>
<path d="M32.3398 63.916C32.3398 63.916 32.3942 63.9704 32.4304 63.9885C32.4304 63.9885 32.3761 63.9341 32.3398 63.916Z" fill="white"/>
<path d="M32.614 64.0973C32.5778 64.0973 32.5597 64.0611 32.5234 64.043C32.5416 64.043 32.5778 64.0792 32.5959 64.0792" fill="white"/>
<path d="M33.8228 63.6621C33.8228 63.6621 33.8228 63.6984 33.8047 63.7165C33.8047 63.7165 33.8047 63.6802 33.8228 63.6621Z" fill="white"/>
<path d="M32.1939 63.7165C32.1939 63.7165 32.1939 63.6802 32.1758 63.6621C32.1758 63.6621 32.1758 63.6984 32.1939 63.7165Z" fill="white"/>
<path d="M33.8639 62.9368L33.3203 61.5234L32.9942 61.8858L32.668 61.5234L32.1244 62.9368C32.0338 63.1905 32.0519 63.4442 32.1607 63.6616C32.1607 63.6616 32.1607 63.6978 32.1788 63.716C32.1969 63.7522 32.2331 63.8066 32.2694 63.8428C32.2694 63.8609 32.3056 63.879 32.3237 63.8972C32.36 63.9334 32.3781 63.9515 32.4143 63.9878C32.4143 63.9878 32.4506 64.0059 32.4687 64.024C32.4687 64.024 32.5049 64.0421 32.5231 64.0602C32.5412 64.0602 32.5774 64.0965 32.6137 64.0965C32.6137 64.0965 32.6318 64.0965 32.6499 64.0965C32.668 64.0965 32.7043 64.0965 32.7224 64.1146C32.7405 64.1146 32.7586 64.1146 32.7767 64.1146C32.7767 64.1146 32.7949 64.1146 32.813 64.1146C32.8673 64.1146 32.9217 64.1146 32.9579 64.1146C32.9579 64.1146 32.9579 64.1146 32.9761 64.1146C32.9761 64.1146 32.9942 64.1146 33.0123 64.1146C33.0485 64.1146 33.1029 64.1146 33.1391 64.1146C33.1391 64.1146 33.1573 64.1146 33.1754 64.1146C33.1935 64.1146 33.2116 64.1146 33.2297 64.1146C33.2479 64.1146 33.2841 64.1146 33.3022 64.0965C33.3022 64.0965 33.3203 64.0965 33.3385 64.0965C33.3566 64.0965 33.3747 64.0784 33.3928 64.0602C33.4109 64.0602 33.4472 64.0421 33.4653 64.024C33.4834 64.024 33.5015 64.0059 33.5197 63.9878C33.5559 63.9696 33.574 63.9334 33.6103 63.9153C33.6284 63.8972 33.6465 63.879 33.6646 63.8609C33.7009 63.8247 33.719 63.7884 33.7552 63.7341C33.7552 63.7341 33.7552 63.6978 33.7733 63.6797C33.8821 63.4623 33.9002 63.1905 33.8096 62.9549" fill="white"/>
<path d="M33.2267 19.7759C33.2267 19.7759 33.3354 19.8122 33.3897 19.8303C33.4441 19.8484 33.4985 19.8847 33.5347 19.9209C33.5347 19.9209 33.5528 19.9209 33.5709 19.939C33.6072 19.9753 33.6615 20.0115 33.6978 20.0659L35.0024 21.5879H47.2153L47.614 20.3739C47.7227 20.0659 47.9945 19.8122 48.3207 19.7578C48.3931 19.7578 48.4475 19.7578 48.52 19.7578H33.0273C33.0273 19.7578 33.1542 19.7578 33.2085 19.7759C33.2085 19.7759 33.2267 19.7759 33.2448 19.7759" fill="white"/>
<path d="M33.5714 19.938C33.5714 19.938 33.5533 19.938 33.5352 19.9199C33.5352 19.9199 33.5533 19.9199 33.5714 19.938Z" fill="white"/>
<path d="M33.699 20.0645C33.7534 20.1369 33.8077 20.2094 33.844 20.2819C33.9889 20.6081 33.9346 20.9886 33.7171 21.2785L33.4453 21.6047H35.0218L33.7171 20.0826L33.699 20.0645Z" fill="white"/>
<path d="M48.9711 19.8847C48.9711 19.8847 48.9167 19.8484 48.8986 19.8484C48.8624 19.8303 48.808 19.8122 48.7718 19.7941C48.7536 19.7941 48.7355 19.7941 48.6993 19.7759C48.6449 19.7759 48.5724 19.7578 48.5 19.7578C48.4275 19.7578 48.3731 19.7578 48.3006 19.7578C47.9745 19.8303 47.7027 20.0659 47.594 20.3739L47.1953 21.5879H48.047L48.8442 22.5121L49.3516 20.9537C49.4422 20.6638 49.3878 20.3558 49.2248 20.1202C49.1885 20.084 49.1523 20.0477 49.116 19.9934C49.0979 19.9753 49.0798 19.9571 49.0436 19.939C49.0073 19.9209 48.9711 19.8847 48.9348 19.8665" fill="white"/>
<path d="M33.0078 19.7383C33.0078 19.7383 33.1347 19.7383 33.189 19.7564C33.1347 19.7564 33.0803 19.7383 33.0078 19.7383Z" fill="white"/>
<path d="M33.5742 19.9375C33.5742 19.9375 33.6648 20.01 33.7011 20.0643C33.6648 20.0281 33.6105 19.9737 33.5742 19.9375Z" fill="white"/>
<path d="M33.5356 19.9207C33.5356 19.9207 33.445 19.8663 33.3906 19.8301C33.445 19.8482 33.4993 19.8844 33.5356 19.9207Z" fill="white"/>
<path d="M32.6094 19.8278C32.6094 19.8278 32.7181 19.7916 32.7725 19.7734C32.7181 19.7734 32.6637 19.8097 32.6094 19.8278Z" fill="white"/>
<path d="M32.4688 19.9207C32.4688 19.9207 32.5594 19.8663 32.6137 19.8301C32.5594 19.8482 32.505 19.8844 32.4688 19.9207Z" fill="white"/>
<path d="M33.3896 19.8278C33.3896 19.8278 33.2809 19.7916 33.2266 19.7734C33.2809 19.7734 33.3353 19.8097 33.3896 19.8278Z" fill="white"/>
<path d="M32.3008 20.0643C32.3008 20.0643 32.3914 19.9737 32.4276 19.9375C32.3733 19.9737 32.337 20.01 32.3008 20.0643Z" fill="white"/>
<path d="M33.0093 19.7383C33.0093 19.7383 32.8825 19.7383 32.8281 19.7564C32.8825 19.7564 32.955 19.7383 33.0093 19.7383Z" fill="white"/>
<path d="M32.7742 19.7759C32.7742 19.7759 32.6654 19.8122 32.6111 19.8303C32.5567 19.8484 32.5024 19.8847 32.4661 19.9209C32.4661 19.9209 32.448 19.9209 32.4299 19.939C32.3936 19.9753 32.3393 20.0115 32.303 20.0659C32.2487 20.1202 32.1943 20.2108 32.1581 20.2833C32.0131 20.6095 32.0675 20.99 32.303 21.2799L32.5748 21.6061H33.4265L33.6983 21.2799C33.9339 21.0081 33.9882 20.6276 33.8433 20.2833C33.807 20.2108 33.7527 20.1383 33.6983 20.0659C33.6621 20.0296 33.6077 19.9753 33.5715 19.939C33.5715 19.939 33.5533 19.939 33.5352 19.9209C33.4809 19.8847 33.4446 19.8665 33.3903 19.8303C33.3359 19.8122 33.2815 19.7941 33.2272 19.7759H33.1909C33.1366 19.7759 33.0641 19.7578 33.0097 19.7578C32.9554 19.7578 32.8829 19.7578 32.8285 19.7759C32.8285 19.7759 32.8104 19.7759 32.7923 19.7759" fill="white"/>
<path d="M5.37891 34.2168C5.37891 34.2168 5.37891 34.2349 5.39703 34.253C5.39703 34.253 5.39703 34.2349 5.37891 34.2168Z" fill="white"/>
<path d="M5.39703 33.293C5.39703 33.293 5.39703 33.3292 5.37891 33.3292C5.37891 33.3292 5.37891 33.3111 5.39703 33.293Z" fill="white"/>
<path d="M60.6392 33.438V33.4743C60.6392 33.4743 60.6392 33.438 60.6211 33.4199" fill="white"/>
<path d="M60.5884 33.3292C60.5884 33.3292 60.5884 33.293 60.5703 33.293C60.5703 33.293 60.5703 33.293 60.5703 33.3111C60.5703 33.3111 60.5703 33.3111 60.5703 33.3292" fill="white"/>
<path d="M60.5884 34.2168C60.5884 34.2168 60.5884 34.2349 60.5703 34.253C60.5703 34.253 60.5703 34.2349 60.5884 34.2168Z" fill="white"/>
<path d="M57.7625 32.8396H59.7739C59.7739 32.8396 59.8826 32.8396 59.9369 32.8396C59.9369 32.8396 59.9732 32.8396 59.9913 32.8396C60.0275 32.8396 60.0638 32.8577 60.1 32.8758H60.1363C60.1906 32.8939 60.2269 32.912 60.2812 32.9483C60.2812 32.9483 60.2812 32.9483 60.2993 32.9664C60.3356 32.9845 60.3718 33.0208 60.4081 33.057C60.4081 33.057 60.4262 33.0751 60.4443 33.0932C60.4443 33.0932 60.4624 33.1114 60.4805 33.1295L58.6142 30.9551H56.168L57.7625 32.8033V32.8396Z" fill="white"/>
<path d="M60.5508 34.2706C60.5508 34.2706 60.5508 34.2525 60.5689 34.2344C60.5689 34.2344 60.5689 34.2706 60.5508 34.2706Z" fill="white"/>
<path d="M5.52062 33.1312C5.52062 33.1312 5.53874 33.1131 5.55686 33.095C5.5931 33.0587 5.62934 33.0406 5.66558 33.0044C5.66558 33.0044 5.66558 33.0044 5.6837 32.9863C5.71994 32.95 5.7743 32.9319 5.82866 32.9138H5.8649C5.90114 32.9138 5.93738 32.8957 5.97362 32.8775C5.97362 32.8775 6.00986 32.8775 6.02798 32.8775C6.08234 32.8775 6.1367 32.8775 6.19106 32.8775H8.2205L9.81507 31.0293H7.36886L5.48438 33.2037C5.48438 33.2037 5.5025 33.1856 5.52062 33.1675" fill="white"/>
<path d="M5.37891 34.2168C5.37891 34.2168 5.37891 34.2349 5.39703 34.253C5.39703 34.253 5.39703 34.2349 5.37891 34.2168Z" fill="white"/>
<path d="M5.39453 33.293C5.39453 33.293 5.39453 33.3111 5.39453 33.3292C5.39453 33.3292 5.39453 33.3111 5.41265 33.293" fill="white"/>
<path d="M8.27486 34.6892H6.19106C6.19106 34.6892 6.08234 34.6892 6.02798 34.6892C6.02798 34.6892 5.99174 34.6892 5.97362 34.6892C5.93738 34.6892 5.90114 34.6711 5.84678 34.653H5.81054C5.75618 34.6349 5.71994 34.6167 5.66558 34.5805C5.66558 34.5805 5.64746 34.5805 5.62934 34.5624C5.5931 34.5443 5.55686 34.508 5.53874 34.4899C5.53874 34.4899 5.52062 34.4718 5.5025 34.4537C5.5025 34.4537 5.5025 34.4537 5.48438 34.4355L7.44134 36.5918H9.94191L8.25674 34.7436L8.27486 34.6892Z" fill="white"/>
<path d="M5.39703 33.2916C5.39703 33.2916 5.39703 33.3097 5.37891 33.3278C5.37891 33.3278 5.37891 33.3459 5.37891 33.364C5.37891 33.3278 5.41515 33.3097 5.43327 33.2734" fill="white"/>
<path d="M5.81293 34.6155C5.81293 34.6155 5.72233 34.5792 5.66797 34.543C5.70421 34.5792 5.75857 34.5973 5.81293 34.6155Z" fill="white"/>
<path d="M5.32422 33.438V33.4743V33.5105C5.32422 33.4743 5.32422 33.4562 5.36046 33.4199" fill="white"/>
<path d="M5.53906 33.0945C5.53906 33.0945 5.61154 33.0401 5.64778 33.0039C5.61154 33.022 5.5753 33.0583 5.53906 33.0945Z" fill="white"/>
<path d="M5.30577 34.0705C5.30577 34.0705 5.30577 34.0705 5.30577 34.0886C5.30577 34.0524 5.28765 34.0343 5.26953 33.998C5.26953 34.0162 5.26953 34.0343 5.28765 34.0705" fill="white"/>
<path d="M5.37608 34.2165C5.37608 34.2165 5.37608 34.2346 5.3942 34.2527C5.3942 34.2346 5.35796 34.1983 5.33984 34.1621C5.33984 34.1621 5.33984 34.1802 5.35796 34.1984" fill="white"/>
<path d="M5.48546 34.3805C5.48546 34.3805 5.48546 34.3805 5.50358 34.3987C5.48546 34.3805 5.46734 34.3443 5.44922 34.3262C5.44922 34.3262 5.46734 34.3624 5.48546 34.3805Z" fill="white"/>
<path d="M5.66797 33.0041C5.66797 33.0041 5.75857 32.9498 5.81293 32.9316C5.75857 32.9498 5.72233 32.986 5.66797 33.0041Z" fill="white"/>
<path d="M5.64529 34.5256C5.64529 34.5256 5.57281 34.4712 5.55469 34.4531C5.59093 34.4894 5.60905 34.5075 5.64529 34.5256Z" fill="white"/>
<path d="M5.48546 33.1646C5.48546 33.1646 5.46734 33.2008 5.44922 33.219C5.46734 33.2008 5.48546 33.1646 5.5217 33.1465C5.5217 33.1465 5.50358 33.1646 5.48546 33.1827" fill="white"/>
<path d="M5.84766 32.9132C5.84766 32.9132 5.92014 32.8951 5.95638 32.877C5.92014 32.877 5.8839 32.8951 5.84766 32.9132Z" fill="white"/>
<path d="M5.97591 34.671C5.97591 34.671 5.90343 34.6529 5.86719 34.6348C5.90343 34.6348 5.93967 34.6529 5.97591 34.671Z" fill="white"/>
<path d="M60.4458 34.3981L60.4096 34.4343C60.4096 34.4343 60.3552 34.4887 60.319 34.525C60.319 34.525 60.3009 34.5249 60.2827 34.5431C60.2465 34.5793 60.1921 34.5974 60.1378 34.6156C60.1378 34.6156 60.1197 34.6156 60.1015 34.6156C60.0653 34.6156 60.0291 34.6518 59.9747 34.6518C59.9747 34.6518 59.9385 34.6518 59.9203 34.6518C59.866 34.6518 59.8116 34.6518 59.7573 34.6518H57.6734L55.9883 36.5H58.4888L60.4458 34.3438C60.4458 34.3438 60.4458 34.3438 60.4277 34.3619" fill="white"/>
<path d="M59.9922 32.877C59.9922 32.877 60.0647 32.8951 60.1009 32.9132C60.0647 32.9132 60.0284 32.8951 59.9922 32.877Z" fill="white"/>
<path d="M60.3164 33.0195C60.3164 33.0195 60.3889 33.0739 60.4251 33.1101C60.3889 33.0739 60.3526 33.0558 60.3164 33.0195Z" fill="white"/>
<path d="M60.1523 32.9121C60.1523 32.9121 60.2429 32.9665 60.2973 32.9846C60.2429 32.9484 60.2067 32.9302 60.1523 32.9121Z" fill="white"/>
<path d="M60.2817 34.543C60.2817 34.543 60.1911 34.5973 60.1367 34.6155C60.1911 34.5973 60.2273 34.5792 60.2817 34.543Z" fill="white"/>
<path d="M60.4816 33.1671C60.4816 33.1671 60.4634 33.149 60.4453 33.1309C60.4634 33.149 60.4816 33.1852 60.4997 33.2033C60.4997 33.2033 60.4815 33.1671 60.4634 33.149" fill="white"/>
<path d="M60.5898 33.3292C60.5898 33.3292 60.5898 33.3292 60.5898 33.3111C60.5898 33.3111 60.5898 33.3111 60.5898 33.293C60.5898 33.3111 60.6261 33.3473 60.6261 33.3836C60.6261 33.3836 60.6261 33.3836 60.6261 33.3654" fill="white"/>
<path d="M60.6392 34.0705C60.6392 34.0705 60.6392 34.0162 60.6573 33.998C60.6573 34.0343 60.6392 34.0705 60.6211 34.1068C60.6211 34.1068 60.6211 34.0886 60.6211 34.0705" fill="white"/>
<path d="M60.5533 34.2697C60.5533 34.2697 60.5533 34.2335 60.5714 34.2335C60.5714 34.2335 60.5714 34.2154 60.5895 34.1973C60.5895 34.2335 60.5533 34.2516 60.5352 34.2879" fill="white"/>
<path d="M60.4634 34.3805C60.4634 34.3805 60.4816 34.3443 60.4997 34.3262C60.4816 34.3443 60.4634 34.3805 60.4453 34.3987C60.4453 34.3987 60.4453 34.3987 60.4634 34.3805Z" fill="white"/>
<path d="M60.407 34.4355C60.407 34.4355 60.3345 34.4899 60.3164 34.508C60.3526 34.4899 60.3889 34.4537 60.407 34.4355Z" fill="white"/>
<path d="M60.0995 34.6348C60.0995 34.6348 60.027 34.671 59.9727 34.671C60.0089 34.671 60.0451 34.6529 60.0995 34.6348Z" fill="white"/>
<path d="M60.6602 33.5286C60.6602 33.5286 60.6602 33.4924 60.6602 33.4743C60.6602 33.4743 60.6602 33.438 60.6602 33.4199C60.6602 33.4562 60.6783 33.4743 60.6964 33.5105" fill="white"/>
<path d="M5.28765 33.584L5.26953 33.6021L5.28765 33.584Z" fill="white"/>
<path d="M5.32422 34.108V34.0898V34.108L5.34234 34.1261L5.32422 34.108Z" fill="white"/>
<path d="M60.2813 33.0039C60.2813 33.0039 60.2812 33.0039 60.2994 33.022C60.2994 33.022 60.2994 33.022 60.2813 33.0039Z" fill="white"/>
<path d="M60.4062 33.0938C60.4062 33.0938 60.4244 33.1119 60.4425 33.13C60.4425 33.13 60.4244 33.1119 60.4062 33.0938Z" fill="white"/>
<path d="M5.52344 33.13C5.52344 33.13 5.54156 33.1119 5.55968 33.0938C5.55968 33.0938 5.54156 33.1119 5.52344 33.13Z" fill="white"/>
<path d="M5.66515 34.5416C5.66515 34.5416 5.64703 34.5416 5.62891 34.5234C5.62891 34.5234 5.62891 34.5234 5.66515 34.5416Z" fill="white"/>
<path d="M5.53624 34.4327C5.53624 34.4327 5.51812 34.4146 5.5 34.3965C5.5 34.3965 5.51812 34.4146 5.53624 34.4327Z" fill="white"/>
<path d="M8.20248 32.8411H6.17304C6.17304 32.8411 6.06432 32.8411 6.00996 32.8411C6.00996 32.8411 5.97372 32.8411 5.9556 32.8411C5.91936 32.8411 5.88312 32.8593 5.84688 32.8774H5.81064C5.75628 32.8955 5.72004 32.9136 5.66568 32.9499C5.66568 32.9499 5.66568 32.9499 5.64756 32.9499C5.61132 32.968 5.57508 33.0042 5.53884 33.0405C5.53884 33.0405 5.52072 33.0586 5.5026 33.0767C5.48448 33.0948 5.46636 33.1311 5.44824 33.1492C5.44824 33.1673 5.412 33.1854 5.39388 33.2217C5.39388 33.2398 5.35764 33.276 5.35764 33.3123C5.35764 33.3304 5.33952 33.3485 5.3214 33.3847C5.3214 33.421 5.30328 33.4391 5.28516 33.4753C5.28516 33.4935 5.28516 33.5116 5.28516 33.5297C5.28516 33.5297 5.28516 33.5297 5.28516 33.5478C5.28516 33.5841 5.28516 33.6203 5.28516 33.6747V33.7109C5.28516 33.7109 5.28516 33.8196 5.28516 33.874C5.28516 33.874 5.28516 33.8921 5.28516 33.9102C5.28516 33.9102 5.28516 33.9283 5.28516 33.9465C5.28516 33.9827 5.28516 34.0008 5.3214 34.0371C5.3214 34.0371 5.3214 34.0371 5.3214 34.0552C5.3214 34.0733 5.3214 34.0914 5.33952 34.1095C5.33952 34.1458 5.37576 34.1639 5.39388 34.2001C5.39388 34.2183 5.43012 34.2364 5.44824 34.2726C5.44824 34.2907 5.48448 34.327 5.5026 34.3451C5.5026 34.3451 5.52072 34.3632 5.53884 34.3813C5.57508 34.4176 5.5932 34.4357 5.62944 34.4538C5.62944 34.4538 5.64756 34.4538 5.66568 34.4719C5.70192 34.5082 5.75628 34.5263 5.81064 34.5444C5.81064 34.5444 5.82876 34.5444 5.84688 34.5444C5.88312 34.5444 5.91936 34.5625 5.9556 34.5807C5.9556 34.5807 5.99184 34.5807 6.00996 34.5807C6.06432 34.5807 6.11868 34.5807 6.17304 34.5807H8.25684L7.4052 33.6384L8.18436 32.7324L8.20248 32.8411Z" fill="white"/>
<path d="M60.3175 34.5234C60.3175 34.5234 60.2994 34.5234 60.2812 34.5416C60.2812 34.5416 60.2994 34.5416 60.3175 34.5234Z" fill="white"/>
<path d="M57.69 34.6879H59.7738C59.7738 34.6879 59.8825 34.6879 59.9369 34.6879C59.9369 34.6879 59.9731 34.6879 59.9912 34.6879C60.0275 34.6879 60.0637 34.6698 60.1 34.6516C60.1 34.6516 60.1181 34.6516 60.1362 34.6516C60.1906 34.6335 60.2268 34.6154 60.2812 34.5792C60.2812 34.5792 60.2993 34.5792 60.3174 34.561C60.3536 34.5429 60.3899 34.5067 60.408 34.4886C60.408 34.4886 60.4261 34.4704 60.4442 34.4523C60.4624 34.4342 60.4805 34.398 60.4986 34.3798C60.4986 34.3617 60.5348 34.3436 60.553 34.3074C60.5711 34.2711 60.5892 34.253 60.6073 34.2168C60.6073 34.1986 60.6254 34.1805 60.6254 34.1624C60.6254 34.1624 60.6254 34.1443 60.6254 34.1262C60.6254 34.0899 60.6436 34.0537 60.6617 34.0174C60.6617 34.0174 60.6617 34.0174 60.6617 33.9993C60.6617 33.9993 60.6617 33.9812 60.6617 33.9631C60.6617 33.9087 60.6617 33.8544 60.6617 33.8V33.7638C60.6617 33.7275 60.6617 33.6732 60.6617 33.6369C60.6617 33.6369 60.6617 33.6369 60.6617 33.6188C60.6617 33.6188 60.6617 33.5826 60.6617 33.5644C60.6617 33.5282 60.6436 33.492 60.6254 33.4738C60.6254 33.4557 60.6073 33.4376 60.5892 33.4014C60.5892 33.3651 60.553 33.347 60.5348 33.3108C60.5348 33.2926 60.4986 33.2745 60.4805 33.2383C60.4624 33.2202 60.4442 33.1839 60.4261 33.1658C60.4261 33.1658 60.408 33.1477 60.3899 33.1296C60.3536 33.0933 60.3174 33.0752 60.2812 33.0389C60.2812 33.0389 60.2812 33.039 60.263 33.0208C60.2268 32.9846 60.1724 32.9665 60.1181 32.9484C60.1181 32.9484 60.1 32.9484 60.0818 32.9484C60.0456 32.9484 60.0094 32.9302 59.9731 32.9121C59.9731 32.9121 59.9369 32.9121 59.9188 32.9121C59.8644 32.9121 59.81 32.9121 59.7557 32.9121H57.7444L58.5235 33.8181L57.6719 34.7604L57.69 34.6879Z" fill="white"/>
</g>
</svg>
