<svg width="50" height="49" viewBox="0 0 50 49" fill="none" xmlns="http://www.w3.org/2000/svg">
<mask id="mask0_1430_6195" style="mask-type:luminance" maskUnits="userSpaceOnUse" x="0" y="0" width="50" height="49">
<path d="M49.8866 0.1875H0.917969V48.1875H49.8866V0.1875Z" fill="white"/>
</mask>
<g mask="url(#mask0_1430_6195)">
<path d="M25.3915 5.59019C25.0471 5.59019 24.7458 5.87001 24.7458 6.23593V7.50589C22.3135 7.76418 20.4408 9.42158 20.4408 11.4449C20.4408 13.6404 22.6579 15.4054 25.3915 15.4054C27.4148 15.4054 29.0722 16.6108 29.0722 18.096C29.0722 19.5812 27.4148 20.7866 25.3915 20.7866C24.1216 20.7866 22.9807 20.3131 22.292 19.5166C22.0552 19.2584 21.6677 19.2153 21.3879 19.4521C21.1296 19.6888 21.0866 20.0763 21.3233 20.3561C22.1198 21.2817 23.3682 21.8844 24.7458 22.0135V23.0467C24.7458 23.3911 25.0256 23.6924 25.3915 23.6924C25.7574 23.6924 26.0373 23.4126 26.0373 23.0467V22.0135C28.4695 21.7552 30.3422 20.0978 30.3422 18.0745C30.3422 15.879 28.1251 14.114 25.3915 14.114C23.3682 14.114 21.7108 12.9086 21.7108 11.4234C21.7108 9.93817 23.3682 8.73279 25.3915 8.73279C26.6615 8.73279 27.8023 9.20634 28.4911 10.0027C28.7278 10.261 29.1153 10.3041 29.3951 10.0673C29.6534 9.83055 29.6964 9.44311 29.4597 9.16329C28.6633 8.23773 27.4148 7.63503 26.0373 7.50589V6.23593C26.0373 5.89154 25.7574 5.59019 25.3915 5.59019ZM37.3807 14.3077C37.2086 14.0063 36.8211 13.8987 36.5198 14.0709C36.2184 14.2431 36.1108 14.6306 36.283 14.9319L38.6507 19.0431C38.7583 19.2368 38.9736 19.366 39.2103 19.366C39.4471 19.366 39.6408 19.2368 39.77 19.0431L42.1377 14.9319C42.3099 14.6306 42.2023 14.2431 41.9009 14.0709C41.5996 13.8987 41.2121 14.0063 41.0399 14.3077L39.2319 17.4503L37.4023 14.3077H37.3807ZM8.90362 15.1902C9.20496 15.3624 9.59241 15.2548 9.76461 14.9534L11.5942 11.8108L13.4238 14.9534C13.5314 15.1471 13.7467 15.2763 13.9834 15.2763C14.0911 15.2763 14.1987 15.2548 14.3063 15.1902C14.6077 15.018 14.7153 14.6306 14.5431 14.3292L12.1754 10.218C12.0677 10.0243 11.8525 9.89512 11.6157 9.89512C11.379 9.89512 11.1852 10.0243 11.0561 10.218L8.68837 14.3292C8.51617 14.6306 8.6238 15.018 8.92514 15.1902M12.7781 8.96956C13.1009 9.12024 13.4668 8.99109 13.639 8.68974C15.8991 4.23414 20.3978 1.45746 25.3915 1.45746C32.2364 1.45746 38.005 6.79557 38.5216 13.6189C38.5431 13.9633 38.8229 14.2001 39.1458 14.2001H39.1888C39.5332 14.1785 39.7915 13.8772 39.77 13.5113C39.4902 9.89512 37.8758 6.53728 35.2068 4.04042C32.5592 1.56508 29.0722 0.1875 25.3915 0.1875C19.9242 0.1875 14.9736 3.22248 12.4982 8.1301C12.3476 8.43145 12.4552 8.81889 12.7781 8.99109M12.2615 15.6422C12.2399 15.2978 11.9386 15.018 11.5727 15.061C11.2283 15.0826 10.97 15.4054 10.9915 15.7498C11.2713 19.366 12.8857 22.7238 15.5547 25.2207C18.2453 27.7175 21.7323 29.0951 25.3915 29.0951C30.8803 29.0951 35.8094 26.0601 38.2848 21.1525C38.4355 20.8512 38.3278 20.4637 38.005 20.2915C37.6821 20.1409 37.3162 20.2485 37.144 20.5714C34.8839 25.027 30.3852 27.8036 25.37 27.8036C18.5251 27.8036 12.7565 22.4655 12.2399 15.6422M46.7009 36.7579C47.7556 36.7579 48.5951 35.8969 48.5951 34.8637C48.5951 33.8306 47.7341 32.9696 46.7009 32.9696H37.4023C36.3476 32.9696 35.5081 33.8306 35.5081 34.8637C35.5081 35.8969 36.3691 36.7579 37.4023 36.7579H46.7009ZM46.7009 38.0494H37.4023C36.3476 38.0494 35.5081 38.9104 35.5081 39.9436C35.5081 40.9767 36.3691 41.8377 37.4023 41.8377H46.7009C47.7556 41.8377 48.5951 40.9767 48.5951 39.9436C48.5951 38.9104 47.7341 38.0494 46.7009 38.0494ZM46.7009 43.1077H37.4023C36.3476 43.1077 35.5081 43.9687 35.5081 45.0019C35.5081 46.035 36.3691 46.896 37.4023 46.896H46.7009C47.7556 46.896 48.5951 46.035 48.5951 45.0019C48.5951 43.9687 47.7341 43.1077 46.7009 43.1077ZM37.4023 31.6996H46.7009C47.7556 31.6996 48.5951 30.8386 48.5951 29.8054C48.5951 28.7723 47.7341 27.9113 46.7009 27.9113H37.4023C36.3476 27.9113 35.5081 28.7723 35.5081 29.8054C35.5081 30.8386 36.3691 31.6996 37.4023 31.6996ZM48.6166 37.4036C49.3915 37.9848 49.8866 38.9104 49.8866 39.9436C49.8866 40.9767 49.3915 41.9023 48.6166 42.4835C49.3915 43.0646 49.8866 43.9902 49.8866 45.0234C49.8866 46.7669 48.466 48.1875 46.7225 48.1875H37.4238C35.6803 48.1875 34.2597 46.7669 34.2597 45.0234C34.2597 43.9902 34.7547 43.0646 35.5296 42.4835C34.7547 41.9023 34.2597 40.9767 34.2597 39.9436C34.2597 38.9104 34.7547 37.9848 35.5296 37.4036C34.7547 36.8225 34.2597 35.8969 34.2597 34.8637C34.2597 33.8306 34.7547 32.905 35.5296 32.3238C34.7547 31.7427 34.2597 30.8171 34.2597 29.7839C34.2597 28.0404 35.6803 26.5983 37.4238 26.5983H46.7225C48.466 26.5983 49.8866 28.0189 49.8866 29.7839C49.8866 30.8171 49.3915 31.7427 48.6166 32.3238C49.3915 32.905 49.8866 33.8306 49.8866 34.8637C49.8866 35.8969 49.3915 36.8225 48.6166 37.4036ZM30.0408 41.8377C31.0955 41.8377 31.935 40.9767 31.935 39.9436C31.935 38.9104 31.074 38.0494 30.0408 38.0494H20.7422C19.6875 38.0494 18.848 38.9104 18.848 39.9436C18.848 40.9767 19.709 41.8377 20.7422 41.8377H30.0408ZM30.0408 43.1077H20.7422C19.6875 43.1077 18.848 43.9687 18.848 45.0019C18.848 46.035 19.709 46.896 20.7422 46.896H30.0408C31.0955 46.896 31.935 46.035 31.935 45.0019C31.935 43.9687 31.074 43.1077 30.0408 43.1077ZM20.7422 36.7579H30.0408C31.0955 36.7579 31.935 35.8969 31.935 34.8637C31.935 33.8306 31.074 32.9696 30.0408 32.9696H20.7422C19.6875 32.9696 18.848 33.8306 18.848 34.8637C18.848 35.8969 19.709 36.7579 20.7422 36.7579ZM31.9565 42.4835C32.7314 43.0646 33.2265 43.9902 33.2265 45.0234C33.2265 46.7669 31.8059 48.1875 30.0624 48.1875H20.7637C19.0202 48.1875 17.5996 46.7669 17.5996 45.0234C17.5996 43.9902 18.0947 43.0646 18.8695 42.4835C18.0947 41.9023 17.5996 40.9767 17.5996 39.9436C17.5996 38.9104 18.0947 37.9848 18.8695 37.4036C18.0947 36.8225 17.5996 35.8969 17.5996 34.8637C17.5996 33.1202 19.0202 31.6996 20.7637 31.6996H30.0624C31.8059 31.6996 33.2265 33.1202 33.2265 34.8637C33.2265 35.8969 32.7314 36.8225 31.9565 37.4036C32.7314 37.9848 33.2265 38.9104 33.2265 39.9436C33.2265 40.9767 32.7314 41.9023 31.9565 42.4835ZM13.3807 41.8377C14.4355 41.8377 15.2749 40.9767 15.2749 39.9436C15.2749 38.9104 14.4139 38.0494 13.3807 38.0494H4.08209C3.02739 38.0494 2.18792 38.9104 2.18792 39.9436C2.18792 40.9767 3.04891 41.8377 4.08209 41.8377H13.3807ZM13.3807 43.1077H4.08209C3.02739 43.1077 2.18792 43.9687 2.18792 45.0019C2.18792 46.035 3.04891 46.896 4.08209 46.896H13.3807C14.4355 46.896 15.2749 46.035 15.2749 45.0019C15.2749 43.9687 14.4139 43.1077 13.3807 43.1077ZM15.2964 42.4835C16.0713 43.0646 16.5664 43.9902 16.5664 45.0234C16.5664 46.7669 15.1458 48.1875 13.4023 48.1875H4.08209C2.3386 48.1875 0.917969 46.7669 0.917969 45.0234C0.917969 43.9902 1.41304 43.0646 2.18792 42.4835C1.41304 41.9023 0.917969 40.9767 0.917969 39.9436C0.917969 38.2001 2.3386 36.7794 4.08209 36.7794H13.3807C15.1242 36.7794 16.5449 38.2001 16.5449 39.9436C16.5449 40.9767 16.0498 41.9023 15.2749 42.4835" fill="white"/>
</g>
</svg>
