<svg width="43" height="49" viewBox="0 0 43 49" fill="none" xmlns="http://www.w3.org/2000/svg">
<mask id="mask0_1430_6137" style="mask-type:luminance" maskUnits="userSpaceOnUse" x="0" y="0" width="43" height="49">
<path d="M42.5894 0.1875H0.609375V48.1875H42.5894V0.1875Z" fill="white"/>
</mask>
<g mask="url(#mask0_1430_6137)">
<path d="M10.7847 11.8279C13.5816 11.8279 15.8724 9.53711 15.8724 6.74022C15.8724 3.94333 13.5816 1.65254 10.7847 1.65254C7.98784 1.65254 5.69706 3.94333 5.69706 6.74022C5.69706 9.53711 7.98784 11.8279 10.7847 11.8279ZM10.7847 13.2929C7.16209 13.2929 4.23202 10.3629 4.23202 6.74022C4.23202 3.11758 7.18873 0.1875 10.7847 0.1875C14.3807 0.1875 17.3375 3.11758 17.3375 6.74022C17.3375 10.3629 14.4074 13.2929 10.7847 13.2929ZM11.5306 46.7491H16.6183V34.3895C16.6183 33.9899 16.9379 33.6703 17.3375 33.6703H19.5217V20.5915C19.5217 18.5937 17.8968 16.9422 15.8991 16.9422H5.69706C3.69928 16.9422 2.07441 18.5671 2.07441 20.5915V33.6703H4.25865C4.65821 33.6703 4.97785 33.9899 4.97785 34.3895V46.7491H10.0655V37.2929C10.0655 36.8934 10.3852 36.5737 10.7847 36.5737C11.1843 36.5737 11.5039 36.8934 11.5039 37.2929V46.7491H11.5306ZM3.51282 35.1087H1.32858C0.92902 35.1087 0.609375 34.7891 0.609375 34.3895V20.5649C0.609375 17.7413 2.87353 15.4772 5.69706 15.4772H15.8724C18.6693 15.4772 20.9601 17.7413 20.9601 20.5649V34.3895C20.9601 34.7891 20.6405 35.1087 20.2409 35.1087H18.0567V47.4683C18.0567 47.8679 17.737 48.1875 17.3375 48.1875H4.23202C3.83246 48.1875 3.51282 47.8679 3.51282 47.4683V35.1087ZM33.3463 17.1553L40.1921 10.3096C41.4706 9.03101 41.4706 6.95332 40.1921 5.67474L40.0322 5.51491C38.7537 4.23633 36.676 4.23633 35.3974 5.51491L33.8524 7.05986C33.5594 7.35287 33.1066 7.35287 32.8136 7.05986L31.2686 5.51491C29.9901 4.23633 27.9124 4.23633 26.6338 5.51491L26.474 5.67474C25.1954 6.95332 25.1954 9.03101 26.474 10.3096L33.3197 17.1553H33.3463ZM34.3585 4.47607C36.1965 2.63811 39.2065 2.63811 41.0444 4.47607L41.2043 4.63589C43.0422 6.47385 43.0422 9.48384 41.2043 11.3218L33.8524 18.6736C33.5594 18.9666 33.1066 18.9666 32.8136 18.6736L25.4618 11.3218C23.6238 9.48384 23.6238 6.47385 25.4618 4.63589L25.6216 4.47607C27.4595 2.63811 30.4695 2.63811 32.3075 4.47607L33.3197 5.48828L34.3319 4.47607H34.3585Z" fill="white"/>
</g>
</svg>
