<svg width="50" height="49" viewBox="0 0 50 49" fill="none" xmlns="http://www.w3.org/2000/svg">
<g clip-path="url(#clip0_1430_6159)">
<mask id="mask0_1430_6159" style="mask-type:luminance" maskUnits="userSpaceOnUse" x="0" y="0" width="50" height="49">
<path d="M49.054 0.1875H0.941406V48.1875H49.054V0.1875Z" fill="white"/>
</mask>
<g mask="url(#mask0_1430_6159)">
<path d="M33.4294 8.6051C31.4869 8.6051 29.9103 10.1816 29.9103 12.096C29.9103 14.0104 31.2335 15.5306 33.2323 15.8121H33.4012H33.4575H33.6264C35.5971 15.5025 36.9484 13.9822 36.9484 12.0679C36.9484 10.1535 35.3719 8.57694 33.4294 8.57694M16.7068 8.6051C14.7643 8.6051 13.1877 10.1816 13.1877 12.096C13.1877 14.1793 15.4399 15.6432 16.7631 16.3189L16.8476 16.3752L16.932 16.3189C19.7754 14.8831 20.1977 13.0532 20.1977 12.096C20.1977 10.1535 18.6212 8.6051 16.6787 8.6051M25.0118 21.8649C24.7866 22.062 24.5613 22.2591 24.3361 22.4561C23.0693 23.5259 22.3092 24.2297 22.3092 25.4684C22.3092 27.0168 23.576 28.2555 25.0962 28.2555C26.6165 28.2555 27.9115 26.9887 27.9115 25.4684C27.9115 24.1171 26.2505 22.625 25.2652 21.8649L25.1244 21.7805L25.0118 21.8931V21.8649ZM36.6106 43.9365L36.9484 43.7394C40.0171 41.8532 42.6634 39.235 44.5496 36.1945C46.7737 32.591 47.9279 28.4526 47.9279 24.2297C47.9279 21.133 47.3086 18.1488 46.1262 15.3335C44.9719 12.6027 43.3109 10.1535 41.2276 8.0702C39.1162 5.95876 36.6669 4.32592 33.9361 3.17166C31.1209 1.98926 28.1086 1.3699 25.0118 1.3699C21.915 1.3699 18.9027 1.98926 16.0874 3.17166C13.3567 4.32592 10.9074 5.98691 8.79595 8.0702C6.68451 10.1816 5.02352 12.6309 3.89742 15.3335C2.71501 18.1488 2.09566 21.1611 2.09566 24.2297C2.09566 32.1687 6.12147 39.4039 12.8499 43.6268L13.1877 43.8239L11.8927 27.0168L11.5267 26.9605L10.4851 30.0573C10.288 30.6485 9.86575 31.1271 9.33085 31.3805C9.02117 31.5212 8.68334 31.6057 8.34551 31.6057C8.09214 31.6057 7.81061 31.5494 7.55724 31.4649C6.99419 31.2679 6.54375 30.8456 6.29038 30.3107C6.03701 29.7758 5.9807 29.1564 6.17777 28.5934L8.37366 22.0338C8.88041 20.5418 10.0065 19.3593 11.4704 18.7681C12.3432 18.4022 13.7226 17.8391 15.3273 17.1071L15.6652 16.9664L15.3555 16.7693C13.244 15.4462 12.1461 13.8415 12.1461 12.096C12.1461 9.53413 14.2294 7.479 16.7913 7.479C19.3531 7.479 21.4364 9.56228 21.4364 12.096C21.4364 13.2784 21.0141 14.3764 20.1696 15.3617C19.7473 15.8684 19.1842 16.347 18.5649 16.7693L18.2552 16.9664L18.593 17.1071C19.3813 17.445 20.0851 17.6984 20.7045 17.9236C22.1965 18.4585 23.3508 18.9089 24.6458 20.0069C24.7303 20.0632 25.1526 20.3165 25.1526 20.3165L25.2652 20.2321C27.1514 18.5429 28.6716 17.2761 31.0083 16.4878L31.3743 16.347L31.0364 16.1218C30.6986 15.8966 30.3889 15.6151 30.1074 15.3335C29.3191 14.4608 28.8968 13.3347 28.8968 12.096C28.8968 9.53413 30.9801 7.479 33.542 7.479C36.1039 7.479 38.1872 9.56228 38.1872 12.096C38.1872 13.3347 37.7649 14.4608 36.9766 15.3335C36.7232 15.6151 36.4135 15.8684 36.1039 16.0937L35.766 16.3189L36.132 16.4315C38.6939 17.2479 40.2986 18.6274 41.7625 21.3582V21.4145L43.7895 26.8479C44.2399 28.0585 43.6769 29.3816 42.4945 29.8884C42.1848 30.001 41.8751 30.0854 41.5655 30.0854C41.5092 30.0854 41.481 30.0854 41.4528 30.0854H41.1713L42.9449 34.7869C43.0012 34.9558 42.9731 35.1529 42.8886 35.2937C42.776 35.4344 42.6071 35.547 42.4382 35.547H37.5115L36.7514 43.9365H36.6106ZM25.0962 29.4098C22.1121 29.4098 19.7191 31.8591 19.7191 34.8714V37.7148C19.7191 38.0808 20.0288 38.3904 20.3948 38.3904H21.9995C22.3091 38.3904 22.5625 38.6157 22.5625 38.9253L22.9848 46.9488L23.8575 47.0051H24.2517H24.7866H25.2652H25.6874C25.8001 47.0051 26.166 47.0051 26.166 47.0051C26.2787 47.0051 26.6446 47.0051 26.6446 47.0051H27.1795L27.7144 38.9253C27.7144 38.6438 27.9678 38.3904 28.2775 38.3904H29.4036C30.0229 38.3904 30.5297 37.8837 30.5297 37.2643V34.7869C30.5297 33.3511 29.9666 31.9717 28.9531 30.9582C27.9396 29.9447 26.5883 29.3816 25.1244 29.3816L25.0962 29.4098ZM24.9836 48.1875C24.8429 48.1875 24.7021 48.1875 24.5332 48.1875C24.5332 48.1875 24.1391 48.1875 23.9983 48.1875H23.4352L22.9567 48.1312L22.3936 48.0749C20.5918 47.8778 18.8464 47.4837 17.1854 46.9206C16.9039 46.8362 16.735 46.4984 16.8476 46.2168C16.932 45.9916 17.1291 45.8227 17.3825 45.8227C17.4388 45.8227 17.4951 45.8227 17.5514 45.8508C18.8745 46.3013 20.254 46.6391 21.6335 46.8362H21.8587L21.4646 39.5447H20.3948C19.3813 39.5447 18.593 38.7283 18.593 37.7429V34.8995C18.593 32.2532 20.1696 29.8602 22.5907 28.8186L22.8722 28.6778L22.6188 28.4808C21.6898 27.7206 21.1831 26.6227 21.1831 25.4403C21.1831 23.6385 22.4218 22.5969 23.6042 21.5834L24.1672 21.1048L23.8857 20.9359C22.7314 19.9224 21.7461 19.5564 20.2259 18.9934C19.3531 18.6837 18.2833 18.2896 16.9602 17.6702H16.8757H16.7913C14.7924 18.6274 12.9907 19.3593 11.8364 19.8098C10.6822 20.2602 9.78129 21.2174 9.38715 22.3998L7.19126 28.9594C6.99419 29.5506 7.30387 30.1981 7.89507 30.3951C8.03583 30.4514 8.14844 30.4796 8.28921 30.4796C8.45812 30.4796 8.62704 30.4514 8.79595 30.367C9.07748 30.2262 9.3027 30.001 9.38715 29.6913L11.6112 23.0192C11.6957 22.794 11.8927 22.625 12.1461 22.625C12.1461 22.625 12.2024 22.625 12.2306 22.625C12.4839 22.6532 12.7091 22.8784 12.7091 23.1318L14.3701 44.7247C14.3701 44.9218 14.2857 45.1189 14.1168 45.2315C14.0323 45.2878 13.9197 45.316 13.8071 45.316C13.7226 45.316 13.61 45.3159 13.5537 45.2596C5.75548 41.0931 0.941406 33.0133 0.941406 24.2016C0.941406 20.964 1.58891 17.811 2.82762 14.8549C4.03818 11.9834 5.78364 9.42152 7.97953 7.22562C10.1754 5.02973 12.7655 3.28427 15.637 2.07372C18.593 0.835007 21.7461 0.1875 25.0118 0.1875C28.2775 0.1875 31.4024 0.835007 34.3584 2.07372C37.23 3.28427 39.7918 5.00158 42.0159 7.22562C44.2118 9.42152 45.9572 11.9834 47.1678 14.8549C48.4347 17.811 49.054 20.964 49.054 24.2016C49.054 28.6497 47.8153 32.9852 45.5068 36.7576C43.2546 40.4174 40.0452 43.4297 36.2165 45.4286C36.132 45.4567 36.0476 45.4849 35.9631 45.4849C35.8505 45.4849 35.7379 45.4567 35.6534 45.4004C35.4845 45.2878 35.3719 45.0907 35.4001 44.8937L36.3009 34.9558C36.3009 34.6743 36.5543 34.4491 36.864 34.4491H41.5092L39.454 28.9875C39.3696 28.8467 39.3133 28.706 39.257 28.5934L38.8628 27.5236C38.8628 27.5236 38.8347 27.3828 38.8347 27.3265L37.0048 22.428C36.9484 22.2872 36.9484 22.1464 37.0048 22.0057C37.0611 21.8649 37.1737 21.7523 37.3144 21.7242C37.3707 21.7242 37.4552 21.696 37.5115 21.696C37.7367 21.696 37.9619 21.8368 38.0464 22.062L40.4394 28.4808C40.5801 28.6778 40.749 28.8186 40.9461 28.903C41.115 28.9593 41.2839 29.0157 41.4528 29.0157C41.6218 29.0157 41.7907 28.9875 41.9314 28.903C42.5508 28.6497 42.8605 27.9459 42.6071 27.2984L40.6364 21.9212C39.7637 20.3165 38.891 19.2749 37.793 18.5429C36.6951 17.811 35.3719 17.3605 33.4294 17.0227H33.4012H33.3731C29.9385 17.6139 28.3338 18.8526 26.1097 20.8514L25.9408 20.9922L26.1097 21.133C26.2787 21.2737 26.4757 21.4426 26.6728 21.5834C28.193 22.9347 28.9813 24.2297 28.9813 25.4403C28.9813 26.6508 28.4464 27.7206 27.5455 28.4526L27.2921 28.6497L27.6018 28.7623C28.3901 29.1001 29.0939 29.5506 29.6851 30.1699C30.9238 31.4086 31.5995 33.0415 31.5995 34.7869V37.2643C31.5995 38.503 30.586 39.5165 29.3473 39.5165H28.7561L28.2775 46.808H28.5309C29.7414 46.5828 30.9801 46.2731 32.1344 45.9072C32.1907 45.9072 32.247 45.9072 32.3033 45.9072C32.5567 45.9072 32.7537 46.0761 32.8382 46.3013C32.8945 46.442 32.8663 46.611 32.81 46.7236C32.7537 46.8643 32.613 46.9488 32.4722 47.0051C30.952 47.5118 29.3473 47.8497 27.7426 48.0467L27.264 48.103L26.7854 48.1312H26.3913C26.2223 48.1594 26.0816 48.1875 25.9408 48.1875H25.3496C25.2089 48.1875 25.0681 48.1875 24.9273 48.1875" fill="white"/>
</g>
</g>
<defs>
<clipPath id="clip0_1430_6159">
<rect width="48.1126" height="48" fill="white" transform="translate(0.941406 0.1875)"/>
</clipPath>
</defs>
</svg>
