<svg width="68" height="28" viewBox="0 0 68 28" fill="none" xmlns="http://www.w3.org/2000/svg">
<g clip-path="url(#clip0_857_3758)">
<mask id="mask0_857_3758" style="mask-type:luminance" maskUnits="userSpaceOnUse" x="0" y="0" width="68" height="28">
<path d="M67.8897 0H0.916016V27.9199H67.8897V0Z" fill="white"/>
</mask>
<g mask="url(#mask0_857_3758)">
<path d="M64.2851 27.0241L54.367 0H54.1963L52.1487 5.52426L48.4588 15.613C47.1577 14.4825 45.3447 13.8213 43.0412 13.5014H42.2947L42.9559 13.4161C46.7311 12.7762 49.2693 10.4086 49.2693 7.55054C49.2693 3.64729 45.5794 0.959814 40.2471 0.959814H29.2625V1.13045H32.4619V21.3079L24.7621 0H24.5914L22.5438 5.52426L14.6733 26.9174H5.67243L20.7522 1.06646L20.8375 0.895826H2.38773V8.95826H2.55836C2.55836 5.05502 4.84059 1.15178 9.93827 1.15178H16.0811L0.916016 27.2587H21.4134V19.5375H21.2427C21.2427 22.9502 19.2805 26.2136 15.0146 26.9388H14.844L18.0434 18.1511H27.0656L30.3503 27.0241H27.1509V27.1947H39.7778V27.0241H36.5784V13.5867H40.2684C44.0437 13.5867 46.2406 15.293 46.2406 18.2365V21.5638L44.2783 27.0241H41.6548V27.1947H47.0724V27.0241H44.4489L46.2406 22.0544V22.1397L46.3259 22.6303L46.4112 22.9502C46.7311 24.8272 47.3923 26.1283 48.5441 26.9388L48.7147 27.0241C49.5253 27.6 50.5917 27.9199 51.7435 27.9199C53.3005 27.9199 54.367 27.5147 55.2628 26.6188L55.1775 26.5335C54.367 27.2587 53.7058 27.6 52.8739 27.6C51.4022 27.6 50.6557 25.8937 50.6557 24.1873V20.86C50.6557 20.0494 50.4851 19.2389 50.2504 18.4284V18.3431H56.8838L60.1685 27.2161H56.9691V27.3654H67.8684V27.2161L64.2637 27.0454L64.2851 27.0241ZM18.1287 17.9805L22.5651 5.8442L26.9803 17.9805H18.1287ZM36.5784 13.4374V1.06646H39.4579C43.2331 1.06646 45.2807 3.34868 45.2807 7.50788C45.2807 11.987 44.129 13.3734 40.3537 13.3734H36.5784V13.4587V13.4374ZM50.1011 17.9805C49.7812 17.2553 49.3546 16.5941 48.7787 16.0396L48.6081 15.8689L52.298 5.86553L56.6492 17.9165L50.1011 18.0018V17.9805Z" fill="#282421"/>
</g>
</g>
<defs>
<clipPath id="clip0_857_3758">
<rect width="66.9737" height="27.9199" fill="white" transform="translate(0.916016)"/>
</clipPath>
</defs>
</svg>
