<svg width="105" height="35" viewBox="0 0 105 35" fill="none" xmlns="http://www.w3.org/2000/svg">
<g clip-path="url(#clip0_857_3826)">
<mask id="mask0_857_3826" style="mask-type:luminance" maskUnits="userSpaceOnUse" x="0" y="0" width="105" height="35">
<path d="M104.366 0.296875H0.791016V34.8075H104.366V0.296875Z" fill="white"/>
</mask>
<g mask="url(#mask0_857_3826)">
<path d="M104.366 17.5309C104.366 17.2536 104.366 16.9763 104.323 16.6777C103.875 10.1083 98.3294 4.90398 91.5041 4.83999H64.3947C60.2568 4.86132 55.4791 3.2403 52.5783 0.296875C49.6775 3.2403 44.8998 4.86132 40.7619 4.86132H13.6525C6.82718 4.90398 1.26026 10.1083 0.833674 16.6777C0.833674 16.955 0.791016 17.2323 0.791016 17.5309V17.5735C0.791016 17.8721 0.791016 18.1281 0.833674 18.4267C1.28159 24.9961 6.82718 30.2004 13.6525 30.2644H40.7619C44.8998 30.2644 49.6775 31.8854 52.5783 34.8288C55.4791 31.8854 60.2568 30.2644 64.3947 30.2644H91.5041C98.3294 30.2004 103.875 25.0174 104.323 18.4267C104.323 18.1494 104.366 17.8721 104.366 17.5735V17.5309Z" fill="#112046"/>
<path d="M96.9858 22.5665C96.9858 22.5665 97.1138 22.5239 97.1138 22.4599C97.1138 22.3959 97.0498 22.3532 96.9858 22.3532H96.8152V22.5665H96.9858ZM96.6446 22.2039H96.9858C96.9858 22.2039 97.1565 22.2466 97.1991 22.2679C97.2418 22.3106 97.2631 22.3746 97.2631 22.4599C97.2631 22.5879 97.1991 22.6518 97.1138 22.6945L97.2844 22.9718H97.0925L96.9218 22.7158H96.7939V22.9718H96.6232V22.2253L96.6446 22.2039ZM96.9432 21.7773C96.4953 21.7773 96.1113 22.1613 96.1113 22.6092C96.1113 23.0571 96.4739 23.4197 96.9218 23.4197C97.3698 23.4197 97.7537 23.0358 97.7537 22.5879C97.7537 22.1399 97.3911 21.7773 96.9432 21.7773ZM96.9432 23.2704C96.5592 23.2704 96.282 22.9931 96.282 22.5879C96.282 22.1826 96.5592 21.9053 96.9645 21.9053C97.3698 21.9053 97.6257 22.2039 97.6257 22.5879C97.6257 22.9718 97.3271 23.2704 96.9432 23.2704Z" fill="white"/>
<path d="M94.9624 21.7104V12.1549C94.9624 12.0483 94.9624 11.899 94.877 11.8137C94.8344 11.7497 94.7277 11.7284 94.5998 11.7284H93.0001L93.2134 11.899C93.2134 11.899 94.0879 12.6242 94.0879 14.8211V20.4733C94.0879 20.4733 86.9852 13.52 86.452 12.9868L85.4069 11.963C85.4069 11.963 85.1509 11.7284 84.959 11.707H83.6152L83.8072 11.8777C83.8072 11.8777 84.4044 12.4109 84.4044 13.456V23.0115C84.4044 23.1182 84.4044 23.2675 84.4897 23.3528C84.5324 23.4168 84.639 23.4381 84.767 23.4381H86.3667L86.1534 23.2675C86.1534 23.2675 85.3002 22.5423 85.3002 20.3454V14.6931C85.3002 14.6931 92.4029 21.6464 92.9361 22.1583L93.9812 23.1821C93.9812 23.1821 94.2585 23.4168 94.4291 23.4381H95.5809L95.4316 23.2675C95.4316 23.2675 94.9624 22.7342 94.9624 21.6891" fill="white"/>
<path d="M76.893 12.1141C73.8216 12.3701 71.5394 14.8443 71.5607 17.8944C71.5607 19.3447 71.9659 20.4965 72.7338 21.4563C73.8216 22.7787 75.5066 23.5466 77.3409 23.5466C78.9619 23.5466 80.4976 22.9067 81.5641 21.8403C82.6519 20.7311 83.2917 19.1528 83.2704 17.5531C83.2704 16.0387 82.6945 14.6736 81.6921 13.6925C80.4336 12.4767 78.8766 11.9648 76.893 12.1355M81.3295 17.809C81.3295 20.6671 79.5591 22.992 77.3836 22.992C75.208 22.992 73.4377 20.6671 73.4377 17.809C73.4377 14.9509 75.208 12.626 77.3836 12.626C79.5591 12.626 81.3295 14.9509 81.3295 17.809Z" fill="white"/>
<path d="M68.874 20.7957C68.7033 21.9901 67.7435 22.8646 66.5064 22.9073H66.2291C65.6959 22.9073 65.312 22.8433 64.6721 22.694C64.5655 22.694 64.2029 22.5447 64.2029 22.1181V12.8612H65.056C66.4424 12.8612 67.2956 13.3518 67.4022 14.9728C67.4662 15.8473 67.061 17.0631 65.6532 17.2763C65.5893 17.2763 65.5253 17.2763 65.4613 17.2763C64.8641 17.3403 64.7361 17.6603 64.7361 17.6603L64.6934 17.7456H64.8001C64.8001 17.7456 64.9707 17.7456 65.2053 17.7456H65.4613C65.9945 17.7456 67.2316 17.7456 68.2554 18.7481C68.746 19.3026 68.9593 20.0705 68.8526 20.7957M70.0684 18.4921C69.4285 17.8309 68.5114 17.4043 67.3809 17.255C69.2152 16.5512 69.3219 15.0154 69.1299 14.2903C68.6393 12.4346 66.5491 12.3066 65.056 12.3066H61.75L61.8566 12.4133C61.8566 12.4133 62.3685 12.9465 62.3685 13.7784V22.1394C62.3685 22.8006 62.4325 22.9073 63.0511 23.0992C63.9469 23.3978 64.8641 23.5685 65.7599 23.5685C66.3144 23.5685 66.869 23.5045 67.4236 23.3765C68.7033 23.0992 69.5778 22.63 70.239 21.8408C71.0709 20.817 71.0069 19.3879 70.0684 18.4708" fill="white"/>
<path d="M53.4958 18.6397L55.2875 14.9498L56.8018 18.6184H53.4958V18.6397ZM60.2998 21.3485C58.8921 18.4904 56.5246 13.1794 56.1406 12.3903C56.0766 12.2623 55.97 12.0703 55.7354 12.0703C55.5221 12.0703 55.4368 12.2409 55.3728 12.3689L50.4244 22.479C50.2324 22.8842 49.9125 23.2468 49.6992 23.3108H50.4457C51.1496 23.3108 51.3842 22.9909 51.5549 22.6496L53.1332 19.3649H56.6739C56.9511 19.3649 57.0791 19.4289 57.2071 19.6848C57.2071 19.6848 57.9536 21.1992 58.4868 22.159C58.9134 22.9269 59.8093 23.6947 61.7076 23.2681C60.9824 23.0975 60.7264 22.2657 60.2785 21.3698" fill="white"/>
<path d="M48.6119 21.6681V12.7098C48.6119 12.6031 48.6119 12.4752 48.5479 12.3898C48.5052 12.3472 48.3986 12.3045 48.2919 12.3045H46.7989L46.9908 12.4538C46.9908 12.4538 47.8014 13.1364 47.8014 15.2053V20.4949C47.8014 20.4949 41.1466 13.9895 40.6347 13.4776L39.6536 12.5178C39.6536 12.5178 39.3977 12.3045 39.227 12.2832H37.9473L38.1179 12.4325C38.1179 12.4325 38.6938 12.9444 38.6938 13.9042V22.8625C38.6938 22.9691 38.6938 23.0971 38.7578 23.1611C38.8004 23.2251 38.9071 23.2464 39.0137 23.2464H40.5068L40.3148 23.0758C40.3148 23.0758 39.5043 22.3932 39.5043 20.3243V15.056C39.5043 15.056 46.159 21.5614 46.6709 22.0733L47.652 23.0331C47.652 23.0331 47.908 23.2464 48.0786 23.2677H49.1451L49.0171 23.1184C49.0171 23.1184 48.6119 22.6065 48.6119 21.6254" fill="white"/>
<path d="M36.5826 21.6681V12.7098C36.5826 12.6031 36.5826 12.4752 36.5186 12.3898C36.4759 12.3472 36.3693 12.3045 36.2626 12.3045H34.7696L34.9615 12.4538C34.9615 12.4538 35.7721 13.1364 35.7721 15.2053V20.4949C35.7721 20.4949 29.1173 13.9895 28.6054 13.4776L27.6243 12.5178C27.6243 12.5178 27.3684 12.3045 27.1977 12.2832H25.918L26.0886 12.4325C26.0886 12.4325 26.6645 12.9444 26.6645 13.9042V22.8625C26.6645 22.9691 26.6645 23.0971 26.7285 23.1611C26.7711 23.2251 26.8778 23.2464 26.9844 23.2464H28.4775L28.2855 23.0758C28.2855 23.0758 27.475 22.3932 27.475 20.3243V15.056C27.475 15.056 34.1297 21.5614 34.6416 22.0733L35.6228 23.0331C35.6228 23.0331 35.8787 23.2464 36.0493 23.2677H37.1158L36.9878 23.1184C36.9878 23.1184 36.5826 22.6065 36.5826 21.6254" fill="white"/>
<path d="M22.5907 13.5437V23.3125H24.4464V12.3066H21.9082C22.2281 12.4559 22.5907 12.7546 22.5907 13.5437Z" fill="white"/>
<path d="M20.9256 21.8617C20.9256 21.8617 20.7549 21.9256 20.7123 21.9896L20.6696 22.0323C19.2192 23.376 17.4489 23.9946 15.4013 23.8879C13.2044 23.76 11.69 22.6722 10.8795 20.6459C10.069 18.5983 10.069 16.4867 10.8795 14.3751C11.7114 12.1569 13.567 10.8345 15.8066 10.8345C16.3398 10.8345 16.8944 10.8985 17.4276 11.0691C18.3021 11.325 18.942 11.8796 19.2192 12.6261C19.4752 13.33 19.3472 14.1405 18.8566 14.8444C18.558 15.2923 18.0035 15.5909 17.4489 15.5909C16.937 15.5909 16.4678 15.3776 16.1692 14.9723C16.1692 14.9723 16.0412 14.823 15.9132 14.823C15.8492 14.823 15.8279 14.823 15.7852 14.887L15.7213 14.9297V14.9937C15.9559 16.0175 16.937 16.764 18.0675 16.764C18.2381 16.764 18.3661 16.764 18.5367 16.7213C19.3046 16.572 19.9444 16.1454 20.307 15.5269C20.7123 14.8657 20.7976 14.0338 20.5843 13.202C20.2644 12.0929 19.4752 11.3037 18.1954 10.8558C16.4464 10.2586 14.5908 10.3012 12.7565 10.9624C10.6022 11.7303 9.21585 13.2873 8.5973 15.5269C8.17072 17.1479 8.42667 19.0249 8.53332 19.3661C8.53332 19.4301 8.53332 19.4515 8.57597 19.5154C8.61863 19.6861 8.66129 19.8354 8.70395 19.9847C9.34382 21.883 10.6449 23.2267 12.5432 23.9306C13.4817 24.2719 14.4628 24.4425 15.4653 24.4425C16.2545 24.4425 17.0863 24.3358 17.9182 24.1226C19.1979 23.8026 20.2644 23.1627 21.0962 22.2243L21.1389 22.1603L21.0962 22.0963C21.0322 21.9683 20.9469 21.9256 20.8616 21.9256" fill="white"/>
<path d="M40.7641 27.7696C44.966 27.7696 49.3598 29.1986 52.5805 31.5661C55.8012 29.1986 60.195 27.7696 64.3969 27.7696H91.4636C96.9452 27.7269 101.51 23.525 101.872 18.2354C101.872 17.9581 101.872 17.7448 101.872 17.5529V17.5102C101.872 17.3182 101.872 17.105 101.872 16.8277C101.51 11.538 96.9666 7.35751 91.4849 7.29352H64.3969C60.195 7.29352 55.8012 5.86446 52.5805 3.49692C49.3598 5.86446 44.9446 7.29352 40.7641 7.29352H13.676C8.19443 7.35751 3.62998 11.538 3.26739 16.8277C3.26739 17.105 3.26739 17.3182 3.26739 17.5102V17.5742C3.26739 17.7662 3.26739 17.9794 3.26739 18.2567C3.62998 23.5464 8.1731 27.7269 13.6547 27.7909H40.7641V27.7696ZM52.5805 32.5686L52.3459 32.398C49.2318 30.0091 44.902 28.5801 40.7641 28.5801H13.6547C7.76785 28.5161 2.86213 24.0156 2.47821 18.3207C2.47821 18.0434 2.43555 17.8088 2.43555 17.5742V17.5315C2.43555 17.3182 2.43555 17.0836 2.47821 16.8063C2.86213 11.1114 7.76785 6.58966 13.676 6.547H40.7641C44.902 6.547 49.2318 5.11794 52.3459 2.72907L52.5805 2.53711L52.8151 2.72907C55.9292 5.11794 60.259 6.547 64.3969 6.547H91.5063C97.3718 6.58966 102.278 11.1114 102.683 16.8063C102.683 17.0836 102.725 17.3182 102.725 17.5315V17.5955C102.725 17.8088 102.725 18.0434 102.683 18.342C102.299 24.0369 97.3931 28.5587 91.4849 28.6014H64.3969C60.259 28.6014 55.9292 30.0091 52.8151 32.4193L52.5805 32.5899V32.5686Z" fill="#69C7C4"/>
</g>
</g>
<defs>
<clipPath id="clip0_857_3826">
<rect width="103.575" height="34.5106" fill="white" transform="translate(0.791016 0.296875)"/>
</clipPath>
</defs>
</svg>
