<svg width="155" height="11" viewBox="0 0 155 11" fill="none" xmlns="http://www.w3.org/2000/svg">
<g clip-path="url(#clip0_857_3740)">
<path d="M92.3167 0.888672V4.77059H85.4914V0.888672H84.041V10.6788H85.4914V5.8797H92.3167V10.6788H93.7458V0.888672H92.3167Z" fill="black"/>
<mask id="mask0_857_3740" style="mask-type:luminance" maskUnits="userSpaceOnUse" x="0" y="0" width="155" height="11">
<path d="M154.915 0.609375H0.917969V10.9114H154.915V0.609375Z" fill="white"/>
</mask>
<g mask="url(#mask0_857_3740)">
<path d="M108.695 10.9114C106.946 10.9114 105.517 10.3995 104.408 9.43966C103.298 8.47985 102.701 7.26408 102.701 5.74971C102.701 4.23534 103.277 2.99825 104.408 2.05976C105.538 1.12128 106.967 0.609375 108.695 0.609375C110.422 0.609375 111.873 1.12128 113.025 2.05976C114.176 2.99825 114.731 4.23534 114.731 5.74971C114.731 7.26408 114.155 8.45852 113.025 9.43966C111.873 10.4421 110.444 10.9114 108.695 10.9114ZM108.695 9.82359C109.996 9.82359 111.084 9.43966 111.894 8.71447C112.726 7.96795 113.152 7.00813 113.152 5.85636C113.152 4.70458 112.705 3.74477 111.894 2.99825C111.062 2.25172 109.953 1.88913 108.695 1.88913C107.436 1.88913 106.348 2.27305 105.474 2.99825C104.642 3.74477 104.216 4.70458 104.216 5.85636C104.216 7.00813 104.663 7.96795 105.474 8.71447C106.348 9.41833 107.394 9.82359 108.695 9.82359Z" fill="black"/>
</g>
<path d="M134.266 0.888672L129.574 6.88218L124.924 0.888672H123.602V10.6788H124.988V3.02159L129.574 8.84446L134.138 3.02159V10.6788H135.567V0.888672H134.266Z" fill="black"/>
<path d="M145.381 0.888672V10.6788H154.894V9.56965H146.81V6.00768H151.396V4.89856H146.81V2.01912H154.467V0.888672H145.381Z" fill="black"/>
<path d="M1.55784 0.888672V2.01912V2.04045H8.70313L0.917969 10.7001H11.284V9.56966H3.71209L11.3266 0.888672H1.55784Z" fill="black"/>
<path d="M24.5113 2.53102L27.0922 6.90351H22.0158L24.5113 2.53102ZM23.9568 0.888672L18.2832 10.6788L19.7976 10.6361L21.3546 8.01262H27.796L29.3744 10.6574H30.9314L25.1299 0.888672H23.9354H23.9568Z" fill="black"/>
<mask id="mask1_857_3740" style="mask-type:luminance" maskUnits="userSpaceOnUse" x="0" y="0" width="155" height="11">
<path d="M154.915 0.609375H0.917969V10.9114H154.915V0.609375Z" fill="white"/>
</mask>
<g mask="url(#mask1_857_3740)">
<path d="M38.9491 10.7001V0.888672H45.5824C46.6916 0.888672 47.5661 1.12329 48.2273 1.59254C48.9098 2.08311 49.1658 2.74431 49.1658 3.57615C49.1658 4.25869 48.9311 4.89856 48.4619 5.41046C47.95 5.92236 47.3101 6.19964 46.5209 6.34895L49.4217 10.6788H47.8433L44.9426 6.39161H40.4421V10.6788H38.9277L38.9491 10.7001ZM40.3781 5.26116H45.4545C46.1583 5.26116 46.7129 5.09052 47.1181 4.83457C47.5021 4.55729 47.7154 4.1947 47.7154 3.64014C47.7154 3.12824 47.5234 2.72298 47.1181 2.4457C46.7342 2.16842 46.2436 2.01912 45.5398 2.01912H40.3781V5.28249V5.26116Z" fill="black"/>
</g>
<path d="M62.0055 2.53133L64.5436 6.90382H59.4673L62.0055 2.53133ZM61.4509 0.931641L55.7773 10.7004H57.2917L58.8487 8.07692H65.2262L66.8045 10.7004H68.3616L62.6453 0.931641H61.4509Z" fill="black"/>
</g>
<defs>
<clipPath id="clip0_857_3740">
<rect width="153.997" height="10.302" fill="white" transform="translate(0.917969 0.609375)"/>
</clipPath>
</defs>
</svg>
