<svg width="85" height="17" viewBox="0 0 85 17" fill="none" xmlns="http://www.w3.org/2000/svg">
<g clip-path="url(#clip0_857_3765)">
<mask id="mask0_857_3765" style="mask-type:luminance" maskUnits="userSpaceOnUse" x="0" y="0" width="85" height="17">
<path d="M84.3925 0.939453H0.888672V16.979H84.3925V0.939453Z" fill="white"/>
</mask>
<g mask="url(#mask0_857_3765)">
<path d="M76.0101 16.979C81.0225 16.979 84.4138 13.481 84.4138 8.95923C84.4138 4.43744 81.0438 0.939453 76.0101 0.939453C70.9764 0.939453 67.6064 4.43744 67.6064 8.95923C67.6064 13.481 70.9764 16.979 76.0101 16.979ZM76.0101 16.5738C72.4055 16.5738 69.8246 14.1636 69.8246 8.95923C69.8246 3.75491 72.4055 1.34471 76.0101 1.34471C79.6147 1.34471 82.1956 3.73358 82.1956 8.95923C82.1956 14.1849 79.6147 16.5738 76.0101 16.5738ZM60.7811 12.0093C60.7811 13.3957 60.7811 14.6541 60.6531 15.23C60.5038 15.9339 59.9279 15.9979 59.0747 16.0619V16.3391C59.0747 16.3391 60.2692 16.2538 61.6982 16.2538C63.0206 16.2538 64.3217 16.3391 64.3217 16.3391V16.0619C63.4685 15.9979 62.8927 15.9765 62.7433 15.23C62.6154 14.6328 62.6154 12.0093 62.6154 12.0093V5.84517C62.6154 5.84517 62.6154 3.22168 62.7433 2.62446C62.8927 1.89927 63.4685 1.85661 64.3217 1.79262V1.51534C64.3217 1.51534 63.0206 1.60066 61.6982 1.60066C60.2692 1.60066 59.0747 1.51534 59.0747 1.51534V1.79262C59.9279 1.85661 60.5038 1.9206 60.6531 2.62446C60.7811 3.20035 60.7811 4.45877 60.7811 5.84517V12.0093ZM50.3511 12.0093C50.3511 13.3957 50.3511 14.6541 50.2231 15.23C50.0738 15.9339 49.4979 15.9979 48.6447 16.0619V16.3391C48.6447 16.3391 49.8392 16.2538 51.2682 16.2538C52.5906 16.2538 53.8917 16.3391 53.8917 16.3391V16.0619C53.0386 15.9979 52.4627 15.9765 52.3134 15.23C52.1854 14.6328 52.1854 12.0093 52.1854 12.0093V5.84517C52.1854 5.84517 52.1854 3.22168 52.3134 2.62446C52.4627 1.89927 53.0386 1.85661 53.8917 1.79262V1.51534C53.8917 1.51534 52.5906 1.60066 51.2682 1.60066C49.8392 1.60066 48.6447 1.51534 48.6447 1.51534V1.79262C49.4979 1.85661 50.0738 1.9206 50.2231 2.62446C50.3511 3.20035 50.3511 4.45877 50.3511 5.84517V12.0093ZM9.29238 16.979C14.3047 16.979 17.6961 13.481 17.6961 8.95923C17.6961 4.43744 14.3047 0.939453 9.29238 0.939453C4.28001 0.939453 0.888672 4.43744 0.888672 8.95923C0.888672 13.481 4.25869 16.979 9.29238 16.979ZM9.29238 16.5738C5.68774 16.5738 3.10691 14.1636 3.10691 8.95923C3.10691 3.75491 5.68774 1.34471 9.29238 1.34471C12.897 1.34471 15.4778 3.73358 15.4778 8.95923C15.4778 14.1849 12.897 16.5738 9.29238 16.5738ZM29.5551 6.91163C30.8135 4.88535 31.6667 3.6056 32.4985 2.81642C33.1384 2.21921 33.7356 2.00591 34.5248 1.87794V1.60066C34.0129 1.64332 33.3517 1.66465 32.1359 1.66465C31.1121 1.66465 30.0883 1.64332 30.0883 1.64332V1.9206C31.0908 1.94193 31.5174 2.13389 31.5174 2.73111C31.5174 3.17902 31.0695 3.79757 29.2778 6.67701C28.7446 7.48752 27.4435 9.76974 27.4222 10.5376V11.0708C27.4222 11.0708 27.6781 11.1348 27.6995 11.1348C27.8061 10.1537 28.2327 9.15119 29.5978 6.93296M23.8389 6.54903C25.4812 9.25784 25.8012 10.175 25.8225 11.3694L27.5288 11.1561V10.303C27.5288 10.303 27.3795 9.00189 25.4172 5.78118C24.756 4.71472 24.2441 3.98953 23.9029 3.4563C23.6469 3.05104 23.391 2.68845 23.391 2.41117C23.391 2.0699 23.7109 1.96325 24.4574 1.87794V1.60066C24.4574 1.60066 23.4763 1.62199 22.4098 1.62199C20.2343 1.62199 18.9118 1.53667 18.9118 1.53667V1.81395C20.4475 2.02724 21.3007 2.5818 23.8389 6.54903ZM25.8225 12.0093C25.8225 13.3957 25.8225 14.7181 25.6945 15.294C25.5452 15.9765 24.9693 15.9765 24.1162 16.0405V16.3178C24.1162 16.3178 25.3106 16.2325 26.7397 16.2325C28.0621 16.2325 29.3632 16.3178 29.3632 16.3178V16.0405C28.51 15.9765 27.9341 15.9979 27.7848 15.294C27.6568 14.6968 27.6568 13.609 27.6568 12.0093V11.0922L26.9103 10.4523L25.8438 11.3694V12.0093H25.8225ZM36.3378 12.4359C36.3378 12.4359 36.2312 13.2037 36.2312 14.4622C36.2312 15.3793 36.2951 15.6353 36.2951 15.6353C36.4871 15.7846 37.7455 16.8937 40.0917 16.8937C43.1418 16.8937 44.8908 15.23 44.8908 12.6705C44.8908 10.8362 43.9523 9.53512 41.8621 8.25537L40.2624 7.21024C39.0039 6.3784 37.9375 5.5039 37.9375 3.98953C37.9375 2.47516 39.1106 1.43002 40.9022 1.43002C43.2911 1.43002 43.931 3.26434 44.1443 4.73605H44.3576C44.3576 4.73605 44.4002 3.9682 44.4002 3.43497C44.4002 2.45383 44.3363 1.98458 44.3363 1.98458C44.0163 1.79262 42.8859 1.06743 41.0302 1.06743C38.1934 1.06743 36.6364 2.79509 36.6364 4.90668C36.6364 6.48504 37.3403 7.97809 39.4519 9.32183L41.0729 10.367C42.374 11.1775 43.5897 12.1586 43.5897 13.7156C43.5897 15.7419 42.2673 16.5311 40.369 16.5311C37.7882 16.5311 36.8924 15.0381 36.5724 12.4359H36.3591H36.3378ZM51.8868 8.91657H61.101V8.51132H51.8868V8.91657Z" fill="#1B1C1C"/>
</g>
</g>
<defs>
<clipPath id="clip0_857_3765">
<rect width="83.5038" height="16.0396" fill="white" transform="translate(0.888672 0.939453)"/>
</clipPath>
</defs>
</svg>
