<svg width="83" height="19" viewBox="0 0 83 19" fill="none" xmlns="http://www.w3.org/2000/svg">
<g clip-path="url(#clip0_857_3779)">
<mask id="mask0_857_3779" style="mask-type:luminance" maskUnits="userSpaceOnUse" x="0" y="0" width="83" height="19">
<path d="M82.446 0.980469H0.392578V18.9397H82.446V0.980469Z" fill="white"/>
</mask>
<g mask="url(#mask0_857_3779)">
<path d="M80.5903 10.28L82.0834 8.04043C81.2942 7.44322 79.6092 6.86733 78.0522 6.86733C75.6846 6.86733 73.4664 8.25373 73.4664 10.4933C73.4664 14.2259 79.2466 13.6074 79.2466 15.3563C79.2466 15.9322 78.5854 16.3375 77.7109 16.3375C76.4951 16.3375 75.2581 15.9109 74.4475 15.1857L72.8905 17.404C74.2982 18.4064 76.0472 18.961 77.6896 18.961C80.2064 18.961 82.446 17.5959 82.446 15.3777C82.446 11.3465 76.6658 11.9437 76.6658 10.4506C76.6658 9.85342 77.4123 9.51215 78.2868 9.51215C79.1613 9.51215 79.9505 9.87474 80.569 10.3013M69.5845 13.6713C69.6271 13.4154 69.6698 13.0955 69.6698 12.7755C69.6698 9.53348 67.3236 6.846 64.0389 6.846C60.4983 6.846 58.2374 9.68278 58.2374 12.9035C58.2374 16.5508 60.9248 18.9397 64.4868 18.9397C66.3424 18.9397 68.2194 18.1931 69.3925 16.8494L67.5795 15.0791C67.025 15.6763 65.9372 16.4228 64.5721 16.4228C62.8658 16.4228 61.5221 15.2924 61.3514 13.6713H69.6271H69.5845ZM66.3851 11.3891H61.4581C61.6074 10.344 62.6952 9.34151 64.0176 9.34151C65.34 9.34151 66.2785 10.344 66.3851 11.3891ZM54.2915 2.96408C54.2915 1.83364 53.353 0.980469 52.2012 0.980469C51.0494 0.980469 50.1109 1.83364 50.1109 2.96408C50.1109 4.09453 51.0494 4.9477 52.2012 4.9477C53.353 4.9477 54.2915 4.09453 54.2915 2.96408ZM41.8565 9.72544H45.8024V7.08062H41.8565V3.83858H38.6572V7.08062H35.3298V9.72544H38.6572V13.7993C38.6572 15.4417 38.9344 16.4868 39.5317 17.276C40.3422 18.3211 41.7499 18.961 43.6695 18.961C44.2881 18.961 45.2479 18.8543 45.6531 18.7264L45.1626 16.1029C44.9493 16.1455 44.3307 16.2095 43.8615 16.2095C43.0723 16.2095 42.5604 15.9962 42.2405 15.6336C41.9632 15.3137 41.8565 14.8871 41.8565 14.1832V9.74677V9.72544ZM28.8031 9.72544H32.493V7.08062H28.8031V6.71802C28.8031 5.65156 28.9737 5.20365 29.251 4.88371C29.6349 4.4358 30.2535 4.22251 31.0426 4.22251C31.3412 4.22251 31.7252 4.26517 32.0024 4.35048L32.493 1.68433C31.8318 1.5137 31.2346 1.47104 30.5947 1.47104C28.9737 1.47104 27.7153 2.04693 26.8834 2.83611C26.0516 3.62529 25.6037 4.75574 25.6037 6.61138V7.08062H22.5323V9.72544H25.6037V18.705H28.8031V9.72544ZM19.3969 13.6713C19.4395 13.4154 19.4609 13.0955 19.4609 12.7755C19.4609 9.53348 17.1147 6.846 13.83 6.846C10.2893 6.846 8.02843 9.68278 8.02843 12.9035C8.02843 16.5508 10.7159 18.9397 14.2779 18.9397C16.1335 18.9397 18.0105 18.1931 19.1836 16.8494L17.3706 15.0791C16.8161 15.6763 15.7283 16.4228 14.3632 16.4228C12.6569 16.4228 11.3131 15.2924 11.1425 13.6713H19.4182H19.3969ZM16.1975 11.3891H11.2705C11.4198 10.344 12.5076 9.34151 13.83 9.34151C15.1524 9.34151 16.0909 10.344 16.1975 11.3891ZM0.392578 18.705H3.59196V1.70566H0.392578V18.705ZM53.7796 7.08062H50.5802V18.705H53.7796V7.08062Z" fill="#161612"/>
</g>
</g>
<defs>
<clipPath id="clip0_857_3779">
<rect width="82.0534" height="17.9592" fill="white" transform="translate(0.392578 0.980469)"/>
</clipPath>
</defs>
</svg>
