<svg width="122" height="20" viewBox="0 0 122 20" fill="none" xmlns="http://www.w3.org/2000/svg">
<g clip-path="url(#clip0_857_3786)">
<mask id="mask0_857_3786" style="mask-type:luminance" maskUnits="userSpaceOnUse" x="0" y="0" width="122" height="20">
<path d="M121.425 0.533203H0.445312V19.3882H121.425V0.533203Z" fill="white"/>
</mask>
<g mask="url(#mask0_857_3786)">
<path d="M55.6668 16.3185C54.9203 16.4679 54.0884 16.3612 53.4272 15.956C52.6594 15.4867 52.1475 14.6549 52.0622 13.759C52.0622 13.5671 52.0622 13.3964 52.0622 13.2258C52.1688 12.202 52.9367 11.2635 53.9605 11.0289C55.1976 12.394 56.456 13.759 57.6931 15.1241C57.1812 15.7427 56.456 16.1692 55.6668 16.3185ZM61.2764 14.5696C61.319 14.015 61.3617 13.4391 61.5323 12.9059C61.7456 12.2233 62.1082 11.5195 62.7908 11.1995C62.9187 11.1569 63.068 11.1356 63.2173 11.1142C63.2173 10.9862 63.2173 10.8583 63.2387 10.7303C63.196 10.5597 63.2387 10.3677 63.2387 10.1971C63.2173 9.91979 63.2173 9.66384 63.2387 9.38656C63.2387 9.04529 63.2173 8.70402 63.2387 8.36276C63.2387 8.27744 63.2173 8.19212 63.2173 8.10681C62.3855 8.10681 61.5537 8.34143 60.8498 8.74668C59.762 9.38656 58.9515 10.453 58.6742 11.6901C57.0745 9.96245 55.4962 8.19212 53.8751 6.44313C53.5339 6.0592 53.3846 5.52597 53.4486 5.01407C53.5552 4.45951 53.8965 3.96894 54.4084 3.71299C54.7496 3.52103 55.1336 3.4997 55.5175 3.54236C56.0934 3.649 56.584 4.05426 56.8399 4.58749C57.7357 4.11825 58.6529 3.69166 59.5274 3.22242C59.3781 2.92381 59.2074 2.64653 59.0155 2.39058C58.0983 1.2388 56.6479 0.492282 55.1762 0.53494C53.4699 0.513611 51.8062 1.51608 50.9957 3.00913C50.4838 3.92628 50.2918 5.0354 50.4625 6.0592C50.6118 7.04035 51.081 7.93617 51.7636 8.64004C50.953 9.10928 50.2705 9.79181 49.8013 10.581C49.2467 11.4981 48.9694 12.5646 49.0121 13.6311C49.0547 14.6762 49.3534 15.7213 49.9079 16.5958C50.7398 17.9396 52.1475 18.9207 53.7045 19.2407C54.4937 19.4113 55.3255 19.39 56.1147 19.262C57.4798 19.006 58.7382 18.3235 59.698 17.321C60.1033 17.7903 60.5299 18.2168 60.9351 18.6861C62.3002 18.6861 63.6653 18.6861 65.0303 18.6861C63.7719 17.321 62.5135 15.9346 61.2551 14.5482" fill="#0E0E0E"/>
<path d="M7.16401 10.2836C6.65211 10.8168 5.92692 11.1368 5.20172 11.2221C4.66849 11.2221 4.13526 11.2221 3.60203 11.2221V3.92749C4.22058 3.92749 4.86046 3.86351 5.45767 4.03414C6.18287 4.20477 6.88673 4.5887 7.35597 5.18592C8.52908 6.6363 8.44376 8.93986 7.14268 10.3049M11.1526 5.99643C10.8113 4.52471 9.97947 3.15964 8.7637 2.24249C7.59059 1.36799 6.11888 0.941406 4.66849 0.941406H0.445312V18.73H3.62336C3.62336 17.2369 3.62336 15.7652 3.62336 14.2722C4.39121 14.2722 5.13774 14.3148 5.90559 14.2082C7.14268 14.0375 8.31579 13.483 9.21161 12.6085C10.4274 11.478 11.1526 9.85701 11.3019 8.21466C11.3445 7.46814 11.3232 6.72162 11.1526 5.99643Z" fill="#0E0E0E"/>
<path d="M23.8207 0.941406H27.0201C27.0201 0.941406 27.0201 1.13337 27.0201 1.24002C27.0201 1.43198 27.0201 1.62394 27.0201 1.83723C27.0201 2.0292 27.0201 2.22116 27.0201 2.43445C27.0201 2.71173 27.0201 3.01034 27.0201 3.28762C27.0201 3.37293 27.0201 3.45825 27.0201 3.5649C27.0201 3.99148 27.0201 4.41807 27.0201 4.86598C27.0201 5.4632 27.0201 6.03908 27.0201 6.6363C27.0201 7.55346 27.0201 8.47061 27.0201 9.38777C27.0201 9.53707 27.0201 9.70771 27.0201 9.87834C27.0201 10.0703 27.0201 10.2623 27.0201 10.4756C27.0201 10.6249 27.0201 10.7528 27.0201 10.9021C26.9987 11.5207 27.0414 12.1606 26.9774 12.7791C26.8921 13.8669 26.5935 14.9334 26.0603 15.8718C25.5057 16.853 24.6952 17.6635 23.714 18.2181C22.6263 18.8366 21.3678 19.1139 20.1307 19.1139C18.7443 19.1139 17.3366 18.7939 16.1635 18.0474C15.0331 17.3436 14.1586 16.2344 13.6893 14.9973C13.2841 13.9949 13.1348 12.9071 13.1348 11.8193V0.941406H16.3555V11.9899C16.3981 13.0137 16.6114 14.1228 17.294 14.912C17.8698 15.5732 18.723 15.9358 19.5762 15.9998C20.472 16.0851 21.4318 15.9572 22.221 15.4666C22.8396 15.0827 23.2661 14.4428 23.5008 13.7389C23.6714 13.227 23.7354 12.7151 23.778 12.1819C23.7994 10.8808 23.778 9.60106 23.778 8.29998V0.941406" fill="#0E0E0E"/>
<path d="M39.1602 0.941406C40.2266 0.941406 41.2931 0.941406 42.3595 0.941406V15.6586C44.1938 15.6586 46.0068 15.6586 47.8411 15.6586C47.8411 16.6824 47.8411 17.7062 47.8411 18.7086C44.9404 18.7086 42.0609 18.7086 39.1602 18.7086V0.941406Z" fill="#0E0E0E"/>
<path d="M74.4816 13.9717C74.3963 14.3983 74.1616 14.7823 73.8204 15.0595C73.4151 15.3795 72.9032 15.5501 72.4127 15.6354C71.4528 15.8061 70.4717 15.7207 69.4906 15.7421C69.4906 14.2064 69.4906 12.6493 69.4906 11.1136C70.2157 11.1136 70.9409 11.1136 71.6661 11.1136C72.37 11.1563 73.0952 11.2629 73.6924 11.6682C74.119 11.9455 74.3963 12.3934 74.4816 12.884C74.5456 13.2466 74.5242 13.6092 74.4816 13.9717ZM69.5119 3.84038C70.2157 3.84038 70.9409 3.79772 71.6448 3.9257C72.1567 4.01101 72.6686 4.2243 73.0099 4.62956C73.3298 5.01348 73.4365 5.54671 73.4365 6.03729C73.4365 6.59185 73.2658 7.18906 72.8392 7.57299C72.3913 7.97824 71.7728 8.12755 71.1969 8.17021C70.6423 8.17021 70.0664 8.17021 69.5119 8.17021V3.84038ZM77.297 11.199C76.8705 10.3031 76.0813 9.57793 75.1854 9.13002C75.1854 9.13002 75.1854 9.08736 75.1854 9.06603C75.8467 8.49014 76.3159 7.72229 76.5079 6.86913C76.6572 6.25058 76.6145 5.6107 76.5079 4.99216C76.3799 4.39494 76.1453 3.79772 75.804 3.28582C75.3134 2.5393 74.5882 1.94208 73.7777 1.53683C73.1165 1.23822 72.4127 1.11024 71.7088 1.02493C71.2822 1.0036 70.8556 0.960938 70.429 0.960938C69.064 0.960938 67.6776 0.960938 66.3125 0.960938V18.7495C68.3388 18.7495 70.3437 18.7495 72.37 18.7495C73.7991 18.6215 75.2281 18.0883 76.2732 17.0645C77.0837 16.2966 77.617 15.2515 77.745 14.1424C77.8516 13.1612 77.7449 12.1374 77.297 11.2416" fill="#0E0E0E"/>
<path d="M79.4727 0.941406H90.3932C90.3932 1.94388 90.3932 2.94635 90.3932 3.94882C87.8124 3.94882 85.2315 3.94882 82.672 3.94882C82.672 5.35655 82.672 6.74295 82.672 8.15067C85.1249 8.15067 87.5564 8.15067 90.0093 8.15067C90.0093 9.13182 90.0093 10.113 90.0093 11.0941C87.5564 11.0941 85.1249 11.0941 82.672 11.0941C82.672 12.6298 82.672 14.1655 82.672 15.7225C85.2529 15.7225 87.8337 15.7225 90.4145 15.7225C90.4145 16.725 90.4145 17.7062 90.4145 18.7086H79.494V0.941406H79.4727Z" fill="#0E0E0E"/>
<path d="M97.6431 11.0686C98.3682 9.27691 99.0721 7.50658 99.776 5.71493C100.48 7.50658 101.184 9.29823 101.909 11.0686C100.48 11.0686 99.0721 11.0686 97.6431 11.0686ZM101.056 0.979848C101.056 0.979848 100.928 0.91586 100.864 0.894531C100.139 0.894531 99.4134 0.894531 98.7095 0.894531C98.6455 0.894531 98.5389 0.894531 98.5175 0.958519C96.1073 6.88804 93.6758 12.7962 91.2656 18.7257C92.4174 18.7257 93.5692 18.7257 94.6996 18.7257C95.2968 17.19 95.8941 15.6543 96.4913 14.0973H103.082C103.679 15.633 104.276 17.19 104.874 18.7257C106.089 18.7257 107.327 18.7257 108.542 18.7257C106.047 12.8176 103.551 6.88804 101.077 0.979848" fill="#0E0E0E"/>
<path d="M117.074 7.57127C116.903 8.14716 116.519 8.65906 116.007 8.979C115.261 9.42691 114.344 9.53355 113.491 9.53355H112.488V3.92397C113.405 3.92397 114.322 3.88132 115.218 4.11594C115.602 4.22258 115.986 4.37189 116.306 4.60651C116.711 4.90512 117.01 5.35303 117.138 5.8436C117.266 6.39816 117.245 7.01671 117.095 7.57127M119.74 15.8043C118.994 14.3966 118.268 12.9462 117.607 11.4958C118.119 11.1972 118.588 10.856 118.994 10.4294C119.505 9.89615 119.889 9.25628 120.124 8.55241C120.636 6.99538 120.572 5.1824 119.761 3.73201C119.377 3.07081 118.844 2.51625 118.226 2.11099C117.266 1.47112 116.157 1.17251 115.026 1.00187C114.621 0.980545 114.237 0.916557 113.832 0.937887C112.296 0.937887 110.782 0.937887 109.246 0.937887C109.246 6.8674 109.246 12.7969 109.246 18.7264C110.313 18.7264 111.379 18.7264 112.445 18.7264V12.7543C112.445 12.7543 112.659 12.7543 112.744 12.7543C113 12.7116 113.277 12.7543 113.533 12.6903C113.811 12.6903 114.066 12.605 114.344 12.605C114.45 12.9036 114.6 13.1808 114.728 13.4795C115.56 15.2711 116.455 17.0201 117.415 18.7264C118.738 18.7264 120.06 18.7264 121.382 18.7264C120.785 17.788 120.231 16.8068 119.697 15.8257" fill="#0E0E0E"/>
<path d="M29.1777 0.941406H32.3771V15.6586H37.8374C37.8374 16.6824 37.8374 17.7062 37.8374 18.73H29.1777V0.941406Z" fill="#0E0E0E"/>
</g>
</g>
<defs>
<clipPath id="clip0_857_3786">
<rect width="120.979" height="18.855" fill="white" transform="translate(0.445312 0.533203)"/>
</clipPath>
</defs>
</svg>
