<svg width="95" height="22" viewBox="0 0 95 22" fill="none" xmlns="http://www.w3.org/2000/svg">
<g clip-path="url(#clip0_857_3772)">
<mask id="mask0_857_3772" style="mask-type:luminance" maskUnits="userSpaceOnUse" x="0" y="0" width="95" height="22">
<path d="M94.0823 0.679688H0.425781V21.241H94.0823V0.679688Z" fill="white"/>
</mask>
<g mask="url(#mask0_857_3772)">
<path d="M94.0823 20.9424C93.8477 20.0893 93.741 19.0441 93.741 17.807V10.4485C93.741 8.97675 93.2078 7.8463 92.1413 7.05712C91.2455 6.39591 90.0937 6.07597 88.686 6.07597C86.1692 6.07597 84.3562 7.09978 83.2044 9.16871L84.9747 10.0859C85.5719 8.57149 86.809 7.80364 88.7073 7.80364C90.7123 7.80364 91.7147 8.69947 91.7147 10.4698V11.259C88.4514 11.8349 86.1478 12.5814 84.8041 13.4772C83.4603 14.373 82.7778 15.6315 82.7778 17.2098C82.7778 18.4896 83.1831 19.492 84.0149 20.2172C84.7827 20.8998 85.7639 21.2197 86.937 21.2197C88.7713 21.2197 90.3923 20.4519 91.7787 18.9162L91.992 20.9424H94.061H94.0823ZM91.7147 17.0818C91.1175 17.7857 90.3923 18.3616 89.5605 18.8095C88.7073 19.2787 87.9395 19.492 87.2356 19.492C86.6384 19.492 86.0838 19.2788 85.5933 18.8522C85.0814 18.4256 84.8254 17.8924 84.8254 17.2525C84.8254 15.2689 87.129 13.8825 91.7361 13.072V17.0818H91.7147ZM80.9222 20.9424L76.0591 11.7282L80.3463 6.33193H77.8934L71.9639 13.7118V0.679688H69.9376V20.9424H71.9639V16.5699L74.6514 13.4772L78.5333 20.9424H80.9222ZM63.0696 20.9424H65.0959V10.3418C65.0959 8.89143 64.6693 7.78231 63.7948 7.03579C63.0483 6.39591 62.0672 6.07597 60.8727 6.07597C59.3157 6.07597 57.8866 6.8225 56.5429 8.31554H56.4789V0.679688H54.4526V20.9424H56.4789V10.0219C57.8653 8.55016 59.2517 7.80364 60.6594 7.80364C62.2591 7.80364 63.0483 8.65681 63.0483 10.3845V20.9424H63.0696ZM42.6576 9.97922C42.6576 8.55016 43.5321 7.82497 45.3024 7.82497C46.6888 7.82497 47.9472 8.5075 49.0563 9.87257L50.4641 8.63548C49.9735 7.91029 49.2696 7.29174 48.3098 6.8225C47.3713 6.35325 46.4115 6.0973 45.473 6.07597C44.044 6.07597 42.8922 6.39591 42.0177 7.07845C41.1432 7.76098 40.674 8.74212 40.6313 10.0005C40.5673 11.5149 41.2925 12.6454 42.7642 13.3706C44.1293 13.8398 45.4944 14.309 46.8594 14.7783C48.3525 15.3328 49.099 16.0794 49.099 17.0818C49.099 17.7644 48.8431 18.3189 48.3525 18.7455C47.7979 19.2574 46.9874 19.5134 45.9636 19.5134C44.2146 19.5134 42.8282 18.7668 41.7831 17.2738L40.1834 18.4682C41.5698 20.3239 43.5108 21.241 46.0276 21.241C47.4567 21.241 48.6298 20.8784 49.5682 20.1746C50.6134 19.3854 51.1466 18.3189 51.1466 16.9752C51.1466 15.4182 50.4214 14.2451 48.9497 13.4345C48.7791 13.3492 47.414 12.8587 44.8545 12.0055C43.4041 11.4936 42.6576 10.8324 42.6576 9.97922ZM35.9602 9.40333C36.7281 8.59282 37.7305 8.16624 38.925 8.14491V6.11863C37.7945 6.11863 36.8347 6.39591 36.0669 6.92914C35.4057 7.39839 34.7871 8.16624 34.1899 9.2327H34.1259V6.33193H32.0996V20.9211H34.1259V12.8373C34.6378 11.259 35.235 10.1072 35.9602 9.382M20.4966 17.9563C19.6647 16.9325 19.2381 15.6315 19.2381 14.0318H28.7296V12.688C28.7296 10.4911 28.1964 8.78478 27.1086 7.63301C26.1061 6.58788 24.8051 6.05465 23.184 6.05465C21.3711 6.05465 19.9207 6.73718 18.8542 8.08092C17.7877 9.44599 17.2332 11.2803 17.2332 13.6265C17.2332 16.1434 17.8944 18.063 19.1955 19.4067C20.3259 20.6012 21.7976 21.1984 23.568 21.1984C25.0397 21.1984 26.2768 20.8358 27.2792 20.1319C27.9618 19.62 28.6016 18.8522 29.1989 17.807L27.6205 16.9965C26.7034 18.6389 25.3596 19.4707 23.5893 19.4707C22.3735 19.4707 21.3497 18.9588 20.5179 17.935M19.3021 12.3041C19.3874 10.9177 19.7714 9.82992 20.4326 9.01941C21.0938 8.2089 22.0323 7.80364 23.2267 7.80364C24.3145 7.80364 25.1676 8.2089 25.7862 9.01941C26.4047 9.82992 26.7034 10.9177 26.7034 12.2828H19.3021V12.3041ZM10.1732 10.3845V10.3205C12.4341 9.53131 13.5646 7.97427 13.5646 5.64939C13.5646 4.22033 13.0527 3.04723 12.0289 2.08741C10.9837 1.14893 9.61866 0.679688 7.891 0.679688H0.425781V20.9424H6.71789C11.6236 20.9424 14.0765 19.1294 14.0765 15.5035C14.0765 14.2451 13.7139 13.1573 12.9887 12.2188C12.2635 11.2803 11.325 10.6831 10.1732 10.3845ZM6.61125 9.382H2.68668V2.59932H7.50707C10.0452 2.59932 11.325 3.70843 11.325 5.948C11.325 6.90781 10.9624 7.69699 10.2372 8.31554C9.40537 9.04073 8.18961 9.40333 6.61125 9.40333M10.3865 12.3894C11.3463 13.1146 11.8156 14.1171 11.8156 15.3968C11.8156 17.8284 10.1732 19.0441 6.8672 19.0441H2.66535V11.3016H6.54726C8.14695 11.3016 9.44803 11.6642 10.3865 12.3894Z" fill="#191917"/>
</g>
</g>
<defs>
<clipPath id="clip0_857_3772">
<rect width="93.6565" height="20.5613" fill="white" transform="translate(0.425781 0.679688)"/>
</clipPath>
</defs>
</svg>
