<svg width="119" height="19" viewBox="0 0 119 19" fill="none" xmlns="http://www.w3.org/2000/svg">
<g clip-path="url(#clip0_857_3801)">
<mask id="mask0_857_3801" style="mask-type:luminance" maskUnits="userSpaceOnUse" x="0" y="0" width="119" height="19">
<path d="M118.12 0.242188H0.851562V18.8626H118.12V0.242188Z" fill="white"/>
</mask>
<g mask="url(#mask0_857_3801)">
<path d="M0.851562 0.946051H3.9443L12.0707 14.6821L10.471 17.1989L3.9443 6.17171V18.5213H0.851562V0.946051ZM16.6138 0.946051L11.7934 9.34976L13.3291 12.0586L16.6138 6.32101V18.5H19.7066V0.946051H16.6138ZM51.679 0.96738H52.9588L66.9508 16.7723V18.5213H64.8178L52.9161 5.06259V18.5213H50.0794V0.96738H51.679ZM63.9007 0.96738V9.71235L66.7375 12.6345V0.96738H63.9007ZM107.775 0.327504C113.491 0.327504 118.12 4.42271 118.12 9.47773C118.12 14.0635 114.323 17.8601 109.353 18.5213V15.5352C112.467 14.8953 114.813 12.4425 114.813 9.47773C114.813 6.04373 111.657 3.27093 107.796 3.27093C103.936 3.27093 100.779 6.04373 100.779 9.47773C100.779 12.4425 103.104 14.8953 106.239 15.5352V18.5213C101.269 17.8601 97.4515 14.0635 97.4515 9.47773C97.4302 4.42271 102.059 0.327504 107.775 0.327504ZM83.2889 0.242188C86.5523 0.242188 89.4744 1.60726 91.3727 3.74018L89.0265 5.91575C87.7467 4.29474 85.6565 3.22828 83.2889 3.22828C79.663 3.22828 76.6982 5.68113 76.3143 8.83786H72.9869C73.3922 4.01746 77.85 0.242188 83.3102 0.242188M76.6982 11.6107H73.1789C74.224 15.7698 78.3405 18.8626 83.2676 18.8626C87.0215 18.8626 90.3062 17.0709 92.1192 14.3621V8.49659H83.1183V11.6533H89.1971V13.1677C87.8534 14.938 86.4456 15.8552 83.2676 15.8552C80.7294 15.8552 77.8073 14.0848 76.6982 11.5893M33.5279 0.924722H36.6206L44.9817 18.5213H41.8889L39.3294 13.125H30.4138L27.8543 18.5213H24.7616L31.8855 3.54821L33.3999 6.85424L31.8002 10.2456H37.9857L33.5279 0.924722Z" fill="#4A4A34"/>
</g>
</g>
<defs>
<clipPath id="clip0_857_3801">
<rect width="117.268" height="18.6204" fill="white" transform="translate(0.851562 0.242188)"/>
</clipPath>
</defs>
</svg>
