<svg width="146" height="21" viewBox="0 0 146 21" fill="none" xmlns="http://www.w3.org/2000/svg">
<g clip-path="url(#clip0_857_3819)">
<mask id="mask0_857_3819" style="mask-type:luminance" maskUnits="userSpaceOnUse" x="0" y="0" width="146" height="21">
<path d="M145.791 0.400391H0.304688V20.7058H145.791V0.400391Z" fill="white"/>
</mask>
<g mask="url(#mask0_857_3819)">
<path d="M145.79 17.6574C145.79 17.6574 145.769 17.6147 145.748 17.5934C145.428 17.5294 144.745 17.7853 144.361 17.8493C143.103 18.0626 142.186 17.1028 141.845 16.3349C141.61 15.7804 141.461 15.1832 141.333 14.5006C141.29 14.1594 141.269 13.8181 141.226 13.4768C141.098 12.7303 141.269 11.9625 140.565 11.8132C139.498 11.5999 139.733 13.3702 139.605 14.1807C139.349 15.7164 139.05 16.5696 137.771 17.0815C137.088 17.3374 136.363 17.3801 135.83 16.9535C134.913 16.2283 134.955 14.7992 134.955 13.1782C134.955 12.4317 134.955 11.6852 134.955 10.9173C134.955 10.2774 134.827 9.01903 135.083 8.61377C135.424 8.10187 136.555 8.40048 137.152 8.1232C137.323 8.05921 137.557 7.88858 137.493 7.58997C137.301 6.7368 135.766 7.35535 135.19 6.90743C134.486 6.35288 135.403 4.1773 134.443 3.77204C134.123 3.64407 133.825 3.83603 133.697 4.00666C133.398 4.41192 133.483 5.26509 133.483 5.96895C133.483 6.24623 133.483 6.52351 133.398 6.71547C133.334 6.86478 133.185 6.99275 133.036 7.05674C132.78 7.16338 132.481 7.0994 132.161 7.14206C131.649 7.14206 131.159 7.16339 130.647 7.18471C130.327 7.18471 129.943 7.22737 129.666 7.18471C128.386 6.86478 129.879 3.75071 128.3 3.75071C128.002 3.87869 127.831 3.94268 127.725 4.24129C127.469 4.94515 127.831 6.16091 127.554 6.84345C127.255 7.54731 125.997 7.05674 125.528 7.73927C125.464 7.82459 125.378 7.99522 125.421 8.16586C125.613 9.16833 127.085 8.50712 127.469 9.147C127.725 9.55226 127.597 10.768 127.597 11.4079C127.597 13.3915 127.554 14.7992 126.807 16.0363C126.637 16.2923 126.466 16.5909 126.232 16.7615C126.04 16.9108 125.826 17.0815 125.57 17.1668C125.272 17.2948 124.802 17.3374 124.483 17.2094C123.267 16.7829 123.352 15.1832 123.117 13.7754C122.99 13.0076 123.288 11.8985 122.52 11.7705C121.646 11.6212 121.582 13.2422 121.411 13.9247C121.07 15.4391 120.665 16.9322 119.129 17.2521C118.19 17.4441 117.679 16.7402 117.508 16.0577C117.423 15.7164 117.465 15.3751 117.401 14.9912C117.316 14.5006 117.359 13.8394 117.444 13.3489C117.551 12.645 117.295 11.5999 116.591 11.7278C115.994 11.8345 115.972 12.7303 115.866 13.3489C115.482 15.2685 115.674 17.508 116.825 18.4252C117.06 18.6172 117.316 18.7878 117.615 18.8944C118.916 19.3637 119.811 18.5958 120.537 18.0413C120.899 17.764 121.39 17.3374 122.094 17.508C123.075 17.764 123.373 18.7238 124.44 18.9371C124.994 19.0437 125.442 18.8091 125.762 18.5958C126.338 18.2332 126.786 17.8067 127.618 17.6787C128.045 17.6147 128.428 17.8067 128.684 17.956C129.303 18.2972 129.794 18.7451 130.604 18.8944C131.052 18.9798 131.436 18.7878 131.692 18.6385C132.289 18.2972 132.737 17.7853 133.526 17.6574C133.931 17.5934 134.273 17.7853 134.507 17.9133C135.062 18.2546 135.446 18.7238 136.171 18.8944C137.451 19.1931 138.709 18.0413 139.562 17.6787C139.925 17.5294 140.437 17.508 140.757 17.7213C141.077 17.9133 141.354 18.1906 141.653 18.4039C142.207 18.8091 143.252 19.0864 144.212 18.8518C144.511 18.7665 144.767 18.6598 145.001 18.5318C145.215 18.4039 145.918 17.9773 145.833 17.6147M133.398 10.1068C133.398 10.5121 133.398 10.9387 133.398 11.3439C133.398 11.6425 133.398 11.9625 133.377 12.2611C133.249 13.0929 133.377 13.9674 133.185 14.6926C133.014 15.3965 132.673 15.9084 132.289 16.3989C131.99 16.7829 131.436 17.2948 130.689 17.1028C128.706 16.6122 129.026 13.9887 129.026 11.5359C129.026 10.8533 128.919 9.31763 129.196 8.93371C129.559 8.44314 131.18 8.59244 131.948 8.46447C132.118 8.46447 132.31 8.46447 132.481 8.42181C133.526 8.42181 133.398 9.08301 133.398 10.0428M140.437 6.50218C140.032 6.67281 139.754 6.7368 139.626 7.20604C139.456 7.80326 140.01 8.46447 140.586 8.37915C141.802 8.18719 141.759 6.48085 140.437 6.50218ZM113.349 12.389C113.498 11.7918 113.69 10.64 113.562 9.85086C113.562 9.6589 113.562 9.46694 113.541 9.29631C113.455 8.76308 113.434 8.25117 113.306 7.7606C113.071 6.82212 112.773 5.96895 112.346 5.22243C110.533 2.15102 107.291 0.338042 102.343 0.40203C102.108 0.40203 101.852 0.423359 101.596 0.444688C101.148 0.508676 100.679 0.572663 100.231 0.615322C98.6102 0.93526 96.9892 1.19121 95.5815 1.72444C95.1122 1.9164 94.6217 2.04438 94.2164 2.279C94.0884 2.36432 93.8112 2.49229 93.8538 2.72691C93.9178 3.13217 94.5577 2.9402 94.8563 2.87622C95.7095 2.66292 96.7546 2.19368 96.9466 3.34546C97.0106 5.3504 97.0959 7.33402 97.1599 9.33896C97.1599 9.93618 97.1812 10.5334 97.2025 11.1306C97.2025 11.9198 97.2238 12.6876 97.2452 13.4768V14.1807C97.3731 15.0339 97.2025 16.3989 97.8637 16.6762C98.2477 16.8255 98.4609 16.4842 98.5676 16.2496C98.8022 15.7164 98.8022 14.9699 98.9088 14.2873C98.9088 14.074 98.9088 13.8821 98.9088 13.6688C98.9088 12.9863 98.9302 12.3251 98.9515 11.6425C98.9728 10.2348 98.9942 8.84839 99.0155 7.44066C99.0155 6.7368 99.0155 6.03294 99.0368 5.32907V4.77452C99.0368 4.34793 99.0368 3.92135 99.0368 3.49476C99.0368 3.21748 99.0155 2.91887 99.0582 2.66292C99.1221 2.4283 99.2288 2.23634 99.4208 2.12969C99.8473 1.87374 101.767 1.78843 102.492 1.89507C103.068 2.00172 103.644 2.02305 104.177 2.15102C106.097 2.6416 107.739 3.53742 108.806 4.88116C109.381 5.62768 109.893 6.45952 110.213 7.46199C110.384 8.03788 110.469 8.6351 110.576 9.29631C110.811 10.704 110.491 12.517 110.107 13.5195C108.891 16.6762 106.523 18.1693 102.94 18.9371C102.386 19.0651 101.767 19.0437 101.17 19.1504C100.914 19.1504 100.658 19.1504 100.381 19.1717H99.5487C99.2075 19.1717 98.8662 19.1504 98.5249 19.1291C98.1197 19.1077 97.7144 19.0651 97.3092 19.0224C96.7546 18.9371 96.2214 18.8731 95.6668 18.7878C95.3895 18.7238 94.9843 18.6172 94.6643 18.7025C94.6643 18.7238 94.6643 18.7665 94.643 18.7878C94.7497 19.0437 95.1762 19.1291 95.4535 19.2357C96.2 19.5343 97.0319 19.6836 97.9064 19.8756C102.236 20.8354 106.95 19.5343 109.488 17.7427C111.301 16.4629 112.645 14.8206 113.263 12.3677M55.9305 6.09693C55.5679 6.26756 55.312 6.35288 55.184 6.75813C55.0134 7.37668 55.5679 8.01655 56.1865 7.90991C57.2743 7.71794 57.2316 6.0756 55.9305 6.09693ZM54.3522 11.7705C53.627 12.3464 52.8378 12.773 52.0059 13.2635C51.7713 13.4128 51.3021 13.7328 50.8968 13.6688C50.4276 13.5835 50.1716 13.2422 49.873 12.9863C49.2758 12.517 48.7426 12.0051 48.2093 11.4932C47.9107 11.1946 47.6121 10.6614 47.0362 10.6614C46.9296 10.704 46.8229 10.704 46.7163 10.768C46.3537 11.0026 46.1831 11.5145 45.9485 11.8985C45.5859 12.4744 44.4341 13.7328 43.6876 13.8608C43.197 13.9461 42.8131 13.4555 42.5998 13.2209C41.8746 12.4957 41.256 11.7918 40.2749 11.3013C39.9336 11.1093 39.2084 10.8107 38.7392 11.088C38.3553 11.3226 38.3553 12.4317 38.1846 12.9009C37.7154 14.2234 36.9902 15.6737 35.9877 16.4629C35.6251 16.7402 35.0919 17.2308 34.3667 17.0388C33.1083 16.7402 32.831 15.1192 32.5324 13.8394C32.4044 13.2635 32.3404 12.0264 31.8072 11.8985C31.3806 11.7918 31.2953 12.2397 31.2313 12.5597C31.1673 12.9223 31.2526 13.3489 31.1887 13.7541C31.1887 13.9887 31.1887 14.202 31.1887 14.4153C31.1247 14.8632 31.1033 15.2685 30.954 15.6097C30.5061 16.6549 28.9491 17.7 27.2854 17.4441C26.9015 17.3801 26.5815 17.3801 26.2829 17.2734C25.3658 16.9108 24.8326 16.207 24.6406 15.0978C24.5766 14.7353 24.6832 14.3727 24.7686 14.138C25.1951 12.9436 26.2403 12.6663 27.648 12.453C28.1172 12.3677 29.5463 12.581 29.7169 12.2611C29.8449 11.9625 29.2904 11.7278 29.1197 11.6425C28.3945 11.2799 27.1361 11.0453 26.091 11.2799C24.6619 11.6212 23.5101 12.4317 22.9769 13.6475C22.2944 15.2045 23.2542 17.0815 24.1713 17.8067C25.3018 18.7025 27.1574 19.1931 29.0557 18.6385C29.9942 18.3612 30.7194 17.828 31.7219 17.6574C31.9778 17.6147 32.2551 17.6787 32.4471 17.7427C33.3642 18.0199 34.2387 19.1291 35.5185 18.7451C35.9237 18.6172 36.2863 18.4039 36.6063 18.1906C37.4381 17.5934 38.142 16.7402 38.5686 15.7591C38.8458 15.1405 39.0591 14.3513 39.4217 13.7968C39.635 13.4768 40.0829 13.2635 40.5308 13.5195C40.7228 13.6261 40.8934 13.7541 41.0427 13.9034C41.192 14.0314 41.3627 14.1807 41.4267 14.3727C41.5333 14.6286 41.4693 14.9059 41.3413 15.0765C41.192 15.2685 40.9361 15.3751 40.7441 15.5244C40.3815 15.7804 40.0189 16.1216 39.763 16.4629C39.1444 17.2948 39.2511 18.0839 40.1043 18.5745C41.4267 19.3637 44.5834 19.4917 44.9886 17.828C45.1379 17.2094 44.8393 16.5909 44.6474 16.1856C44.5621 15.9723 44.3488 15.6951 44.4554 15.3538C44.5621 15.0125 44.882 14.8206 45.1379 14.6286C45.6925 14.1807 46.2257 13.7114 46.7803 13.2635C46.9936 13.1356 47.3349 13.0289 47.6335 13.1569C47.8894 13.2635 48.06 13.4342 48.252 13.5835C48.4653 13.7541 49.0199 14.1594 48.9345 14.6073C48.8705 14.9059 48.6146 15.0552 48.4013 15.2045C47.8254 15.6311 46.2471 16.8895 47.1216 17.892C47.2709 18.0839 47.5055 18.2332 47.7188 18.3612C48.124 18.5958 48.5933 18.7451 49.1052 18.8518C50.6409 19.1931 52.3472 18.7878 52.6458 17.5934C52.9444 16.4203 51.4514 15.5244 52.5818 14.7779C52.7738 14.6713 52.9871 14.5646 53.1791 14.458C53.435 14.3513 53.7549 14.1167 54.1815 14.202C54.9067 14.33 54.9707 15.1618 55.2267 15.7804C55.6106 16.7615 56.2718 18.4465 57.2743 18.7451C57.7862 18.8944 58.2341 18.5958 58.5113 18.3825C59.3005 17.7853 59.8338 16.8468 60.431 16.0577C60.6229 15.7804 61.0495 15.1192 61.5828 15.2258C62.4572 15.3751 62.5212 17.1241 62.7772 17.956C62.8838 18.2972 63.0118 18.7025 63.3531 18.7878C63.8436 18.9158 64.1849 18.1906 64.3129 17.892C64.6968 17.0175 65.2087 15.0552 66.1045 14.7992C66.5098 14.6926 66.8084 14.9485 66.9577 15.1832C67.4269 15.887 67.299 17.2734 67.5976 18.1266C67.7042 18.4465 67.9602 18.9371 68.4721 18.8305C69.048 18.7025 69.1973 17.892 69.3679 17.3587C69.6665 16.4416 69.9651 15.3111 70.9036 15.0339C71.5861 14.8206 71.8421 15.4604 72.0127 15.887C72.418 16.9108 72.5886 18.3612 73.5911 18.7665C74.0817 18.9798 74.7215 18.7665 75.1055 18.5958C75.98 18.1479 76.4705 17.3374 77.601 17.1455C77.9209 17.1028 78.2195 17.2308 78.4115 17.3374C78.966 17.6147 79.3926 18.0199 79.9259 18.3399C81.4189 19.2144 83.4665 18.8091 84.6823 17.9986C85.5994 17.3801 86.3886 16.4842 86.7299 15.3325C87.3058 13.4555 86.026 11.9838 84.7889 11.4932C83.8504 11.1306 82.2721 11.1093 81.3336 11.4932C81.1416 11.5785 80.5018 11.8558 80.6724 12.1331C80.7364 12.2824 81.035 12.2397 81.2056 12.1971C81.6749 12.0904 82.2934 11.9411 82.8906 12.0478C84.2557 12.3037 85.4715 13.2635 84.9382 14.9912C84.8529 15.2472 84.7249 15.5031 84.597 15.7164C84.0424 16.5482 82.2934 17.5507 80.7577 17.0815C79.8192 16.8042 79.1154 16.207 78.8167 15.2898C78.6035 14.6073 78.6248 13.4768 78.7314 12.6876C78.7954 12.3464 78.6888 11.8558 78.3048 11.9411C77.8143 12.0478 77.5797 13.4342 77.3877 13.9247C76.8971 15.1618 76.1933 16.4842 74.7002 16.7402C74.0177 16.8468 73.6764 16.1856 73.5058 15.7591C73.1005 14.7992 72.9939 13.5835 72.7166 12.4744C72.5886 11.8985 72.546 11.2799 71.9487 11.1733C71.5008 11.0666 71.1382 11.3866 70.9676 11.6212C70.4557 12.2824 70.1358 13.1782 69.6452 13.8608C69.4532 14.1167 69.112 14.5433 68.5787 14.4366C67.6616 14.266 67.4909 12.9863 67.1923 12.1971C67.0644 11.8558 66.8511 11.1733 66.3392 11.2586C65.4433 11.4292 65.1447 13.2635 64.7395 14.0314C64.5688 14.3727 64.2062 14.9059 63.6304 14.6713C62.5639 14.2447 63.1824 11.5999 62.0093 11.3226C61.3055 11.1519 60.8789 12.0904 60.6443 12.4957C60.0897 13.4342 59.7271 14.5433 59.1512 15.4178C58.8953 15.8017 58.5753 16.2283 58.0634 16.3136C57.4236 16.4203 57.1676 15.823 57.0183 15.4391C56.677 14.6286 56.5491 13.6688 56.3784 12.6876C56.2718 12.0904 56.3144 11.5145 55.8879 11.2586C55.2693 10.8747 54.8001 11.5785 54.4588 11.8558M42.6211 18.0413C41.8959 18.2546 40.7441 17.828 40.9361 17.0601C41.0854 16.4842 41.64 16.3563 42.1732 16.143C43.1543 16.143 43.7089 17.7427 42.6424 18.0413M50.8115 17.4014C50.6835 17.6787 50.3636 17.828 50.001 17.892C49.2758 18.0199 48.2307 17.508 48.5506 16.7829C48.7426 16.2923 49.2545 16.207 49.745 15.9937C49.9157 15.9937 50.065 15.9937 50.1716 16.0363C50.5556 16.1856 51.0888 16.8468 50.8115 17.4227M20.2254 18.1479C20.2041 17.6574 20.1615 17.1455 20.1401 16.6549C20.1401 16.2923 20.0975 15.9084 20.0761 15.5244C19.8415 11.6638 19.6069 8.61377 19.3723 4.77452C19.2016 3.72938 19.4149 1.85242 18.903 1.21254C18.6258 0.849943 18.0712 0.785955 17.41 0.785955C17.2607 0.785955 17.1114 0.785955 16.9621 0.785955C16.5995 0.849943 16.2795 0.849943 16.0449 1.02058C15.5117 1.4045 15.0851 3.1535 14.8078 3.87869C13.912 6.39553 12.9948 8.89105 12.099 11.4079C11.7151 12.389 11.4165 13.3702 11.0326 14.33C10.8619 14.7566 10.67 15.2898 10.1581 15.3751C9.71015 15.4604 9.51819 15.0552 9.39021 14.7779C9.04895 13.9461 9.02762 12.837 8.83565 11.8771C8.4304 9.42428 8.02514 6.97142 7.61989 4.51857C7.44926 3.64407 7.42793 2.15102 6.85204 1.70311C6.46811 1.38317 5.25235 1.23387 4.56981 1.44716C3.58867 1.74577 3.48202 3.64407 3.22607 4.71053C2.47955 8.01655 1.73303 12.6876 0.96518 15.9937C0.751888 16.9108 0.538596 17.8493 0.325304 18.7665C0.239987 19.2144 0.325304 19.705 0.559925 19.8969C0.879863 20.1529 1.45575 20.0889 1.75436 19.8543C2.20227 19.513 2.28759 18.3399 2.43689 17.6787C2.97012 15.1618 3.48202 11.3226 4.01525 8.80573C4.16456 8.16586 4.31386 6.56617 5.06039 6.63016C5.91355 6.69414 5.99887 8.76308 6.19083 9.59491C6.55343 11.4506 6.8947 13.3062 7.25729 15.1832C7.47058 16.143 7.51324 17.2734 7.96116 17.9986C8.30242 18.5532 9.26224 19.2144 10.2221 18.8305C11.2672 18.4039 11.5871 16.9961 11.9924 15.951C12.9735 13.3702 13.976 10.7893 14.9571 8.20852C15.2984 7.31269 15.6397 6.41686 15.9596 5.52104C16.0876 5.22243 16.2795 4.75319 16.7275 4.79584C17.8792 4.94515 17.346 7.44066 17.538 8.61377C17.6446 11.9198 17.7726 14.4153 17.8792 17.7213C18.0925 19.0651 17.5166 20.6221 19.1163 20.6221C19.2656 20.6221 19.3936 20.6221 19.5216 20.5795C20.3321 20.3235 20.3321 19.0864 20.1828 18.0839" fill="#1B1C1C"/>
</g>
</g>
<defs>
<clipPath id="clip0_857_3819">
<rect width="145.486" height="20.3054" fill="white" transform="translate(0.304688 0.400391)"/>
</clipPath>
</defs>
</svg>
