<svg width="71" height="75" viewBox="0 0 71 75" fill="none" xmlns="http://www.w3.org/2000/svg">
<g clip-path="url(#clip0_1644_789)">
<mask id="mask0_1644_789" style="mask-type:luminance" maskUnits="userSpaceOnUse" x="0" y="-1" width="71" height="77">
<path d="M71 -0.46875H0V75.2646H71V-0.46875Z" fill="white"/>
</mask>
<g mask="url(#mask0_1644_789)">
<path d="M2.39748 70.8253C2.02877 70.964 2.0979 72.8134 2.3053 72.9521L68.3738 73.0215L68.7886 72.8828L68.7195 70.8715L2.39748 70.8253ZM43.8084 48.9098H36.6185V68.5829H43.8084V59.3358C43.8084 58.1337 45.8824 58.1337 45.8824 59.0353V68.5829H64.6867V48.9098H45.8824V54.7585C45.8824 55.0128 45.0989 55.4752 44.7302 55.4058C44.3845 55.3365 43.7853 54.6661 43.7853 54.3193V48.9098H43.8084ZM34.4062 48.9098H27.2164V68.5829H34.4062V48.9098ZM25.1193 48.9098H6.31504V68.5829H25.1193V48.9098ZM68.8347 42.1132H2.16704V46.6905H68.8577V42.1132H68.8347ZM67.8668 39.8939L65.3089 35.4553L64.8941 35.2935H5.96937L5.69284 35.4553L3.1349 39.8939H67.8898H67.8668ZM64.6867 17.701H53.2105V33.0742H64.6867V17.701ZM50.9983 17.701H49.0625C47.8873 23.9428 42.564 28.8437 36.6185 29.2367V33.0742H50.9983V17.701ZM21.9392 17.701H20.0035V33.0742H34.3832V29.2367C28.4147 28.8206 23.1145 23.9659 21.9392 17.701ZM17.7912 17.701H6.31504V33.0742H17.7912V17.701ZM49.4773 15.4817H68.6273C68.9729 15.0194 68.9729 13.7479 68.6273 13.2624H49.4773V15.4817ZM21.5244 13.2855H2.37444C2.05181 13.7479 2.02877 15.0194 2.37444 15.5048H21.5244V13.2855ZM1.82137 17.701C1.03786 17.5392 0.185212 16.2677 0.0930346 15.4124C-0.114366 13.3318 0.231301 11.2512 2.5127 11.0431H21.8701C22.2388 10.0491 22.4692 8.98565 22.9071 7.9916C23.3449 6.99754 25.2115 3.87666 26.1333 3.59925C27.009 3.32184 27.562 4.29278 27.3316 5.17125C27.2855 5.30995 25.9028 6.92819 25.6493 7.36742C18.1369 19.5273 32.7701 33.3979 43.071 24.2202C53.7866 14.6726 43.071 -3.17422 30.4656 2.92884C29.5669 2.90572 29.0138 2.16595 29.4517 1.26437C29.7973 0.570839 31.6409 0.108487 32.3553 -0.0533368C40.0752 -1.90275 47.1729 3.06754 49.1547 11.0894H68.512C69.5951 11.1587 70.563 11.8754 70.8395 13.0312C71.0469 14.0022 71.07 15.7822 70.5169 16.6376C70.3556 16.8919 69.4338 17.7472 69.2034 17.7472H66.7837V33.9527L70.9317 40.9111C70.7243 42.7836 71.2543 45.4653 70.9087 47.2222C70.7474 48.0313 69.7104 48.956 68.9268 48.956H66.7837V68.6291H69.0651C69.8717 68.6291 70.8395 70.0624 70.9317 70.9178C71.1161 72.6285 71.0009 74.3854 69.3417 75.1483C47.0116 75.4719 24.6123 75.1945 2.23617 75.287C0.139123 74.8709 -0.114366 72.8828 0.0930346 70.9178C0.185212 70.0624 1.15308 68.6291 1.95964 68.6291H4.24104V48.956H2.0979C1.33744 48.956 0.27739 48.0313 0.116079 47.2222C-0.229588 45.4653 0.300435 42.7605 0.116079 40.9111L4.26408 33.9527V17.7472C3.5497 17.6548 2.5127 17.8859 1.84441 17.7472" fill="#592B8A"/>
<path d="M30.7185 20.5212H40.2589L40.4433 20.1976L39.3602 10.7656H38.6689C39.245 14.0714 36.0879 13.9558 36.5948 10.7656H34.3826C34.8896 13.9558 31.7325 14.0714 32.3086 10.7656H31.6172L30.5342 20.1976L30.7185 20.5212ZM36.6179 8.54632C37.171 5.1018 33.8526 5.1018 34.4056 8.54632H36.6179ZM32.3086 6.39638C32.7003 3.85344 36.157 2.8825 37.8392 4.80127C38.0466 5.03244 38.6689 6.14209 38.6689 6.39638V8.54632C40.2589 8.43073 41.1116 8.84685 41.4111 10.5576C41.9873 13.7247 41.9873 17.2385 42.5173 20.4288C42.379 21.6078 41.6877 22.625 40.5355 22.7405C37.2862 23.0642 33.576 22.4862 30.2807 22.7405C29.1515 22.5094 28.5062 21.4922 28.4141 20.2901L29.7046 9.81779C30.0963 8.63879 31.2485 8.43073 32.2855 8.5232C32.3547 7.85279 32.1934 6.99744 32.2855 6.37327" fill="#592B8A"/>
<path d="M60.541 55.1284H50.0328V62.1561L50.2402 62.3873H60.541V55.1515V55.1284ZM49.4336 52.9553C53.0516 53.1634 57.1765 52.5623 60.7484 52.9091C61.7163 53.0015 62.4998 53.7182 62.615 54.7585C62.7994 56.3998 62.7994 60.954 62.615 62.5954C62.4998 63.7281 61.6933 64.5604 60.6102 64.6066C57.2226 64.3523 53.4433 64.9302 50.0788 64.6066C48.6731 64.4679 48.0509 63.5894 47.9357 62.1561C47.8205 60.7228 47.7514 55.5214 48.1201 54.3655C48.3505 53.6257 48.7423 53.1865 49.4336 52.9553Z" fill="#592B8A"/>
<path d="M20.9705 55.1294H10.4623V62.3653H20.7631L20.9705 62.1341V55.1063V55.1294ZM9.86311 52.9564L21.3162 52.9102C22.5376 53.0951 22.9524 54.1816 23.0445 55.3375C23.1828 57.0944 23.1828 60.3771 23.0445 62.1572C22.9293 63.5905 22.2841 64.469 20.9014 64.6077C17.5139 64.9313 13.6885 64.3534 10.2549 64.6077C9.24091 64.4921 8.50349 63.7061 8.38827 62.6196C8.20391 60.9782 8.20391 56.4009 8.38827 54.7827C8.48044 53.9967 9.14873 53.1182 9.88616 52.9795" fill="#592B8A"/>
</g>
</g>
<defs>
<clipPath id="clip0_1644_789">
<rect width="71" height="75" fill="white"/>
</clipPath>
</defs>
</svg>
