<svg width="72" height="64" viewBox="0 0 72 64" fill="none" xmlns="http://www.w3.org/2000/svg">
<g clip-path="url(#clip0_1607_2534)">
<mask id="mask0_1607_2534" style="mask-type:luminance" maskUnits="userSpaceOnUse" x="0" y="0" width="72" height="64">
<path d="M71.1354 0H0V64H71.1354V0Z" fill="white"/>
</mask>
<g mask="url(#mask0_1607_2534)">
<path d="M43.5784 51.6545H27.5346C29.7015 55.3098 32.3499 58.7681 35.6112 61.5259C38.7412 58.6367 41.4334 55.3098 43.5784 51.6545ZM24.9956 51.6545H13.023C12.9573 51.8953 13.1324 51.9172 13.22 52.0704C13.9423 53.0116 15.6057 54.4562 16.5469 55.2222C21.0996 58.9432 26.7247 61.1538 32.5907 61.8105C32.8096 61.701 32.5907 61.5697 32.525 61.4603C31.9778 60.738 30.971 59.9062 30.3144 59.1183C28.3226 56.7763 26.6591 54.1935 24.9956 51.6326M64.0654 41.4767H50.5168C49.7726 44.3002 48.525 46.9924 47.1899 49.5752H60.0599C61.6139 46.9924 63.2993 44.4097 64.0654 41.4767ZM48.4375 41.4767H22.7193C23.0914 42.5273 25.7617 49.3563 26.3964 49.5533H44.4977C45.0449 49.5095 45.5264 48.3495 45.789 47.846C46.8397 45.7886 47.6057 43.6217 48.4375 41.4767ZM20.6399 41.4767H7.09137C7.94499 44.4097 9.45525 47.1894 11.3157 49.5752H23.9669C22.6536 46.9705 21.3841 44.3002 20.6399 41.4767ZM4.70559 24.6231C3.47988 24.8419 2.47304 25.7612 2.27605 27.0307C1.96962 29.1538 2.05717 34.2537 2.23227 36.4863C2.34171 38.0622 3.10778 39.069 4.68371 39.3973L66.0572 39.4411C67.4361 39.3755 68.6399 38.3905 68.8588 36.9897C69.1215 35.1511 69.1215 28.8693 68.8588 27.0307C68.6837 25.7831 67.6769 24.8419 66.4293 24.6231H4.70559ZM64.0654 22.5218C63.2118 19.5889 61.7234 16.8091 59.841 14.4233H47.1899C48.5031 17.028 49.7726 19.6983 50.5168 22.5218H64.0654ZM48.4375 22.5218C47.6495 20.4863 46.9053 18.385 45.9204 16.437C45.7453 16.0868 45.0886 14.7298 44.8916 14.5547C44.7603 14.4452 44.6509 14.4014 44.4758 14.4014H26.3745C25.7179 14.6422 23.0476 21.4493 22.6974 22.5218H48.4156H48.4375ZM23.945 14.4233H11.2938C9.41148 16.8091 7.94499 19.6108 7.06948 22.5218H20.618C21.3403 19.6764 22.6098 17.028 23.945 14.4233ZM43.5784 12.3659C41.4115 8.71061 38.763 5.27422 35.5018 2.49447C32.3937 5.38366 29.6577 8.71061 27.5346 12.3659H43.5784ZM58.1119 12.3659C58.1775 12.1251 58.0024 12.1032 57.9149 11.95C57.1926 11.0088 55.5291 9.56424 54.5879 8.79816C50.0353 5.07723 44.4101 2.86656 38.5442 2.18804C38.3253 2.29748 38.5442 2.42881 38.6098 2.53825C39.1789 3.28243 40.1639 4.11417 40.8205 4.88024C42.8123 7.22224 44.4758 9.805 46.1392 12.3659H58.1119ZM24.9956 12.3659C26.9217 9.41102 28.8698 6.47805 31.2118 3.85152C31.4087 3.61075 32.8315 2.40692 32.6563 2.20993C29.7015 2.58202 26.8342 3.26054 24.0763 4.33305C23.2446 4.66137 20.7931 6.28106 20.2022 5.27422C19.3704 3.8734 21.6249 3.17299 22.6098 2.73524C40.0982 -5.01305 60.6947 4.44249 66.2542 22.4562C68.7494 22.8501 70.7412 24.5574 70.9819 27.1402C71.2008 29.6354 71.2008 34.4069 70.9819 36.9021C70.7631 39.3973 68.7713 41.2797 66.2979 41.5205C65.0284 45.6791 62.8397 49.5971 59.9724 52.9021C59.3157 53.6682 56.536 56.5793 55.7699 56.82C54.7849 57.1484 54.0189 56.1853 54.5442 55.3098C55.5291 54.2373 57.0394 53.2086 57.9149 52.0704C58.0243 51.9391 58.1775 51.8953 58.1119 51.6545H46.1392C44.2131 54.6094 42.287 57.5423 39.9231 60.1689C39.748 60.3659 38.3034 61.6354 38.4785 61.8105C41.9368 61.4165 45.22 60.5191 48.3937 59.0964C49.0503 58.79 50.6263 57.7612 51.1516 57.6956C52.049 57.5861 52.6399 58.5054 52.1803 59.2715C51.9395 59.6874 49.2473 60.9568 48.6345 61.2414C30.971 68.9678 10.5715 59.6874 4.90259 41.5642C2.42926 41.1703 0.415581 39.463 0.174815 36.8802C-0.044063 34.385 -0.044063 29.6354 0.152927 27.1183C0.371806 24.6231 2.3636 22.7626 4.83692 22.4999C6.17208 18.2975 8.38275 14.3139 11.2938 10.9869C12.3007 9.84878 14.8397 7.24413 16.0654 6.52183C17.0066 5.97463 18.0572 6.52183 17.8164 7.57245C17.707 8.05398 16.0435 9.17026 15.562 9.58613C14.9053 10.199 13.7234 11.2496 13.22 11.9281C13.1105 12.0594 12.9573 12.1032 13.023 12.344H24.9956V12.3659Z" fill="#592B8A"/>
<path d="M32.6575 32.8319L34.8244 27.3381C35.3935 26.9878 35.875 27.0097 36.4003 27.4475L38.3265 32.8538L40.4715 27.5132C41.2376 26.572 42.5946 27.3381 42.2663 28.4762L39.2239 36.5747C38.7423 37.1 38.02 37.1438 37.5604 36.5747C36.7943 35.0645 36.466 33.0289 35.6999 31.5405C35.6343 31.3873 35.7656 31.2779 35.4154 31.3435L33.6425 36.3777C33.1828 37.2095 32.1541 37.1438 31.7163 36.3121C31.0378 33.7512 29.5057 31.059 28.8709 28.5638C28.5207 27.1848 29.9434 26.5282 30.6876 27.5788L32.6575 32.8538V32.8319Z" fill="#592B8A"/>
<path d="M17.1827 32.7006C17.5329 32.7662 17.4016 32.6568 17.4672 32.5036C18.1676 31.1465 18.5397 28.7608 19.2839 27.5788C19.7654 26.8127 20.6191 26.9441 21.1006 27.6226L22.9829 32.8319L25.0404 27.535C25.7627 26.572 27.0541 27.1848 26.9228 28.3011C25.7846 30.7307 25.1936 33.9263 24.0117 36.2683C23.5958 37.1 22.7203 37.2313 22.1731 36.4434L20.1375 31.1684L18.1457 36.5747C17.3797 37.2095 16.7011 36.9687 16.2634 36.1151L13.418 28.0822C13.4617 27.1411 14.578 26.6814 15.2347 27.3818L17.1608 32.6787L17.1827 32.7006Z" fill="#592B8A"/>
<path d="M48.0194 32.8305C48.2164 32.8742 48.1726 32.6991 48.2164 32.5678C48.8074 31.1232 49.2889 29.0001 49.9893 27.7306C50.3833 27.0083 51.2807 26.8113 51.806 27.5117L53.6884 32.721C54.0386 32.7648 53.9072 32.6991 53.9729 32.524C54.6952 30.9043 55.0454 29.1095 55.8334 27.4898C56.5557 26.5268 57.9784 27.3366 57.6719 28.4748C56.5338 30.7949 56.0085 33.903 54.8703 36.1355C54.4763 36.9454 53.7103 37.2956 53.0098 36.5733L50.9524 31.1889L49.0919 36.2669C48.6979 37.1205 47.6473 37.208 47.1877 36.3544L44.2109 27.9714C44.4736 26.9426 45.5461 26.7019 46.1808 27.5993L48.0632 32.8086L48.0194 32.8305Z" fill="#592B8A"/>
</g>
</g>
<defs>
<clipPath id="clip0_1607_2534">
<rect width="71.1354" height="64" fill="white"/>
</clipPath>
</defs>
</svg>
