<svg width="60" height="63" viewBox="0 0 60 63" fill="none" xmlns="http://www.w3.org/2000/svg">
<path d="M15.4451 40.3689L24.2502 31.2029L15.4451 22.0369H12.8949L20.8099 30.2767H1.91259C2.42983 14.8677 14.3023 2.39374 29.2422 1.86447V60.421C14.4346 59.8917 2.42983 47.5381 1.91259 32.1411H20.9423L13.0273 40.3689H15.4571H15.4451ZM30.9022 32.1291H43.6648C43.4122 47.2614 37.915 59.4828 30.9022 60.409V32.1291ZM30.9022 1.98477C37.927 2.91099 43.4122 15.2646 43.6648 30.2646H30.9022V1.98477ZM58.2197 30.2767H45.4451C45.3128 17.6584 41.6199 7.30152 36.255 2.65838C48.765 5.5814 57.7025 16.9968 58.2197 30.2767ZM36.255 59.7594C41.6199 55.1163 45.1925 44.6271 45.4451 32.1411H58.2197C57.7025 45.421 48.7771 56.8364 36.255 59.7594ZM30 62.2735C46.5998 62.2735 60 48.332 60 31.0706C60 13.8091 46.5878 0 30 0C13.4122 0 0 13.9415 0 31.0706C0.132318 48.332 13.5325 62.2735 30 62.2735Z" fill="#20103D"/>
</svg>
