<svg width="50" height="41" viewBox="0 0 50 41" fill="none" xmlns="http://www.w3.org/2000/svg">
<g clip-path="url(#clip0_1191_577)">
<mask id="mask0_1191_577" style="mask-type:luminance" maskUnits="userSpaceOnUse" x="0" y="0" width="50" height="41">
<path d="M50 0H0V41H50V0Z" fill="white"/>
</mask>
<g mask="url(#mask0_1191_577)">
<path d="M21.8941 20.7067H11.4152C11.5772 18.2622 12.4055 16.1412 13.8819 14.3437C15.3583 12.5463 18.023 10.7488 21.8941 8.93336L17.1588 0C10.893 2.75011 6.46381 5.91363 3.87108 9.49057C1.29636 13.0855 0 17.9746 0 24.1758V41.018H21.8941V20.7067Z" fill="#ECDBFF"/>
<path d="M49.9996 20.7067H39.5207C39.6827 18.2622 40.5109 16.1412 41.9874 14.3437C43.4638 12.5463 46.1285 10.7488 49.9996 8.93336L45.2643 0C38.9805 2.75011 34.5513 5.91363 31.9766 9.49057C29.3838 13.0675 28.1055 17.9746 28.1055 24.1578V41H49.9996V20.6887V20.7067Z" fill="#ECDBFF"/>
</g>
</g>
<defs>
<clipPath id="clip0_1191_577">
<rect width="50" height="41" fill="white"/>
</clipPath>
</defs>
</svg>
