<svg width="142" height="57" viewBox="0 0 142 57" fill="none" xmlns="http://www.w3.org/2000/svg">
<g clip-path="url(#clip0_369_640)">
<path d="M84.2188 0V16.51L88.1888 18.04V3.96H137.059V52.84H88.1888V42.9L84.2188 44.43V56.8H141.019V0H84.2188Z" fill="white"/>
<mask id="mask0_369_640" style="mask-type:luminance" maskUnits="userSpaceOnUse" x="0" y="0" width="142" height="57">
<path d="M141.02 0H0V56.8H141.02V0Z" fill="white"/>
</mask>
<g mask="url(#mask0_369_640)">
<path d="M129.83 12.2695C128.33 12.2695 127.08 13.5195 127.08 15.0595C127.08 16.4795 128.33 17.7695 129.83 17.7695C131.33 17.7695 132.54 16.4795 132.54 15.0595C132.54 13.5095 131.34 12.2695 129.83 12.2695ZM127.42 19.9295V41.0095H132.2V19.9295H127.42ZM113.71 19.9295H93.08V41.0095H97.86V23.8095H105.15V41.0095H109.93V23.8095H113.06C116.3 23.8095 117.62 25.1295 117.62 28.3695V40.9995H122.4V28.6195C122.4 22.5995 119.71 19.9095 113.69 19.9095M77.96 23.4095C73.86 23.4095 71.86 25.7095 71.86 30.4495C71.86 35.1895 73.86 37.4895 77.96 37.4895C82.06 37.4895 84.06 35.1895 84.06 30.4495C84.06 25.7095 82.06 23.4095 77.96 23.4095ZM88.93 30.4495C88.93 37.5995 85.14 41.3795 77.96 41.3795C70.78 41.3795 66.99 37.5995 66.99 30.4495C66.99 23.2995 70.78 19.5195 77.96 19.5195C85.14 19.5195 88.93 23.2995 88.93 30.4495ZM54.26 19.9095H43.72V40.9895H48.5V23.7895H53.49C56.82 23.7895 58.18 25.1495 58.18 28.4795V40.9895H62.96V28.6095C62.96 22.5895 60.27 19.8995 54.25 19.8995M26.16 32.1095H38.32V28.3895H26.16V23.6995H38.53V19.8995H21.25V30.4395C21.25 37.4395 24.8 40.9795 31.79 40.9795H38.53V37.1795H32.21C28.22 37.1795 26.29 35.5695 26.16 32.0995M11.58 37.1295H16.79V40.9695H10.52C3.55 41.0095 0 37.4595 0 30.4695C0 23.4795 3.55 19.9295 10.54 19.9295H16.81V23.7695H11.6C6.9 23.7695 4.9 25.7695 4.9 30.4695C4.9 35.1695 6.9 37.1695 11.6 37.1695" fill="white"/>
</g>
</g>
<defs>
<clipPath id="clip0_369_640">
<rect width="141.02" height="56.8" fill="white"/>
</clipPath>
</defs>
</svg>
