<svg width="135" height="27" viewBox="0 0 135 27" fill="none" xmlns="http://www.w3.org/2000/svg">
<g clip-path="url(#clip0_857_6123)">
<mask id="mask0_857_6123" style="mask-type:luminance" maskUnits="userSpaceOnUse" x="0" y="0" width="135" height="27">
<path d="M134.045 0.373047H0.976562V26.1056H134.045V0.373047Z" fill="white"/>
</mask>
<g mask="url(#mask0_857_6123)">
<path d="M134.045 11.1907H132.365V12.9222H134.045V11.1907ZM129.262 1.8474H130.72V0.561627H126.365V1.86454H127.702V9.35631C127.702 9.73347 127.719 10.2478 127.754 10.6421C127.617 10.2992 127.445 9.80204 127.291 9.47631L122.713 0.544483H119.13V1.8474H120.588V11.6364H119.13V12.9222H123.571V11.6364H122.113V3.49319C122.113 3.13317 122.096 2.68744 122.062 2.32742C122.182 2.63601 122.353 3.09888 122.508 3.44176L127.342 12.9222H129.279V1.8474H129.262ZM110.713 3.75034C110.713 2.68744 111.313 1.69311 113.284 1.69311C114.245 1.69311 114.896 1.86454 115.667 2.05312V3.7332H117.245V0.921643C115.942 0.613058 114.707 0.373047 113.284 0.373047C110.37 0.373047 109.05 2.01883 109.05 3.87035C109.05 6.23617 110.559 6.9562 113.044 7.28193C114.845 7.53908 116.045 7.91624 116.045 9.52774C116.045 10.7107 115.239 11.7907 113.267 11.7907C112.307 11.7907 111.484 11.6021 110.713 11.3964V9.66489H109.119V12.5107C110.421 12.8365 111.844 13.0936 113.233 13.0936C116.216 13.0936 117.725 11.4307 117.725 9.37345C117.725 6.90477 115.856 6.08187 113.336 5.79043C111.724 5.56757 110.679 5.20755 110.679 3.7332M100.101 3.75034C100.101 2.68744 100.701 1.69311 102.673 1.69311C103.633 1.69311 104.284 1.86454 105.056 2.05312V3.7332H106.633V0.921643C105.33 0.613058 104.095 0.373047 102.69 0.373047C99.7753 0.373047 98.4552 2.01883 98.4552 3.87035C98.4552 6.23617 99.9639 6.9562 102.45 7.28193C104.25 7.53908 105.45 7.91624 105.45 9.52774C105.45 10.7107 104.644 11.7907 102.69 11.7907C101.73 11.7907 100.907 11.6021 100.135 11.3964V9.66489H98.5238V12.5107C99.8439 12.8365 101.25 13.0936 102.638 13.0936C105.604 13.0936 107.13 11.4307 107.13 9.37345C107.13 6.90477 105.261 6.08187 102.741 5.79043C101.13 5.56757 100.084 5.20755 100.084 3.7332M92.935 12.9222H97.2552V11.6364H96.0894L92.7635 1.8474H94.1522V0.544483H88.3576V1.8474H89.7463L86.3861 11.6364H85.2032V12.9222H89.5234V11.6364H88.0319L88.8891 9.09915H93.5179L94.3579 11.6364H92.935V12.9222ZM93.1236 7.83052H89.2491L90.7577 3.25318C90.912 2.77315 91.0663 2.20741 91.1863 1.64168C91.3235 2.19027 91.4778 2.75601 91.5978 3.23603L93.1064 7.83052H93.1236ZM80.4887 6.75048C80.4887 3.20175 78.5172 0.373047 75.0885 0.373047C71.6597 0.373047 69.6711 3.20175 69.6711 6.75048C69.6711 10.2992 71.694 13.1108 75.0885 13.1108C78.4829 13.1108 80.4887 10.2821 80.4887 6.75048ZM78.7915 6.75048C78.7915 9.61346 77.5743 11.6707 75.0885 11.6707C72.6026 11.6707 71.3854 9.61346 71.3854 6.75048C71.3854 3.88749 72.6026 1.83026 75.0885 1.83026C77.5743 1.83026 78.7915 3.88749 78.7915 6.75048ZM59.4192 12.9222H68.6082V9.59632H67.031V11.6364H62.4536V1.8474H64.0137V0.544483H59.4192V1.8474H60.8764V11.6364H59.4192V12.9222ZM58.082 6.75048C58.082 3.20175 56.0933 0.373047 52.6817 0.373047C49.2702 0.373047 47.2644 3.20175 47.2644 6.75048C47.2644 10.2992 49.2873 13.1108 52.6817 13.1108C56.0762 13.1108 58.082 10.2821 58.082 6.75048ZM56.3848 6.75048C56.3848 9.61346 55.1504 11.6707 52.6817 11.6707C50.2131 11.6707 48.9787 9.61346 48.9787 6.75048C48.9787 3.88749 50.1959 1.83026 52.6817 1.83026C55.1676 1.83026 56.3848 3.88749 56.3848 6.75048ZM46.03 4.23036C46.03 2.20741 44.9328 0.544483 42.5841 0.544483H35.9838V1.8474H37.4411V11.6364H35.9838V12.9222H40.6298V11.6364H39.0183V8.03625H42.4984C44.9671 8.03625 46.03 6.32189 46.03 4.21322M44.4014 4.28179C44.4014 5.75615 43.7842 6.83619 42.2241 6.83619H39.0183V1.8474H42.2241C43.8356 1.8474 44.4014 2.89316 44.4014 4.26465M28.8178 12.9222H30.4979V11.1907H28.8178V12.9222ZM19.766 3.75034C19.766 2.68744 20.366 1.69311 22.3375 1.69311C23.2804 1.69311 23.949 1.86454 24.7205 2.05312V3.7332H26.2977V0.921643C24.9776 0.613058 23.7604 0.373047 22.3547 0.373047C19.4402 0.373047 18.1202 2.01883 18.1202 3.87035C18.1202 6.23617 19.6288 6.9562 22.1147 7.28193C23.8976 7.53908 25.1148 7.91624 25.1148 9.52774C25.1148 10.7107 24.309 11.7907 22.3547 11.7907C21.3946 11.7907 20.5717 11.6021 19.8003 11.3964V9.66489H18.2059V12.5107C19.526 12.8365 20.9317 13.0936 22.3204 13.0936C25.2862 13.0936 26.7949 11.4307 26.7949 9.37345C26.7949 6.90477 24.9262 6.08187 22.4061 5.79043C20.7946 5.56757 19.7488 5.20755 19.7488 3.7332M14.1943 12.9222H15.8744V11.1907H14.1943V12.9222ZM11.2285 1.8474H12.6857V0.544483H8.17689V1.8474H9.65124V9.18487C9.65124 10.8821 8.67405 11.7221 6.82254 11.7221C4.97103 11.7221 4.01098 10.8992 4.01098 9.18487V1.8474H5.46819V0.544483H0.976562V1.8474H2.43377V9.5106C2.43377 11.8936 4.38814 13.1108 6.8054 13.1108C9.22265 13.1108 11.2456 11.8764 11.2456 9.5106V1.8474H11.2285Z" fill="#B01F37"/>
<path d="M95.4373 22.3172C95.4373 19.9342 94.4944 18.5284 92.9857 18.5284C91.4771 18.5284 90.5342 19.9342 90.5342 22.3172C90.5342 24.7001 91.4943 26.1059 92.9857 26.1059C94.4772 26.1059 95.4373 24.7001 95.4373 22.3172ZM94.7515 22.3172C94.7515 24.1515 94.2029 25.5059 92.9857 25.5059C91.7686 25.5059 91.22 24.1515 91.22 22.3172C91.22 20.4828 91.7686 19.1285 92.9857 19.1285C94.2029 19.1285 94.7515 20.4828 94.7515 22.3172ZM89.437 22.1629C89.437 19.8828 88.5456 18.5284 86.9512 18.5284C85.3911 18.5284 84.5854 19.6771 84.5854 21.0314C84.5854 22.2315 85.1854 23.3972 86.7969 23.3972C87.6884 23.3972 88.3398 22.9515 88.7684 22.3857C88.7684 24.2715 88.1512 25.5745 86.8655 25.5745C86.3855 25.5745 85.9054 25.4887 85.4768 25.3173V24.2887H84.8254V25.7116C85.4768 25.9516 86.1969 26.1059 86.8483 26.1059C88.5456 26.1059 89.437 24.4944 89.437 22.1629ZM88.7513 21.8543C88.357 22.42 87.6884 22.8658 86.9169 22.8658C85.6483 22.8658 85.254 21.9743 85.254 20.9971C85.254 19.8999 85.7854 19.0942 86.9341 19.0942C88.0827 19.0942 88.717 20.1914 88.7684 21.8543M81.671 22.1457C82.7339 21.9914 83.231 21.2714 83.231 20.4142C83.231 19.3513 82.4596 18.5284 81.0195 18.5284C79.5794 18.5284 78.808 19.3342 78.808 20.4142C78.808 21.2886 79.3566 21.9914 80.3852 22.1629C79.3566 22.2657 78.6194 22.9686 78.6194 24.083C78.6194 25.3173 79.4937 26.1231 81.0195 26.1231C82.5453 26.1231 83.4196 25.3173 83.4196 24.083C83.4196 22.9686 82.7167 22.2486 81.671 22.1457ZM81.0366 21.9057C80.128 21.9057 79.4594 21.4257 79.4594 20.4657C79.4594 19.6599 80.008 19.0599 81.0366 19.0599C82.0653 19.0599 82.6139 19.6599 82.6139 20.4657C82.6139 21.4257 81.9453 21.9057 81.0366 21.9057ZM82.7853 23.9972C82.7853 24.9059 82.1853 25.5402 81.0195 25.5402C79.8537 25.5402 79.2537 24.9059 79.2537 23.9972C79.2537 22.8486 80.1109 22.42 81.0195 22.42C81.9281 22.42 82.7853 22.8315 82.7853 23.9972ZM74.042 26.003H77.3165V25.4545H76.1336V18.6484H75.4478L73.4077 20.1056L73.6649 20.6028L75.4478 19.2999V25.4716H74.042V26.0202V26.003ZM63.6187 26.003H69.1733V24.3915H68.4875V25.4373H65.1959V22.4372H68.1103V21.8886H65.1959V19.1627H68.4704V20.1914H69.139V18.6141H63.6187V19.1627H64.5273V25.4373H63.6187V25.9859V26.003ZM60.3957 26.1059C61.15 26.1059 62.0072 25.9516 62.7444 25.7459V24.1858H62.0758V25.2316C61.5443 25.3859 60.9786 25.4716 60.3957 25.4716C58.6985 25.4716 57.8242 24.1344 57.8242 22.3C57.8242 20.4657 58.6985 19.1285 60.3786 19.1285C60.9615 19.1285 61.5272 19.2313 62.0587 19.3685V20.4142H62.7273V18.8542C61.9901 18.6313 61.15 18.5113 60.3957 18.4941C58.2356 18.4941 57.087 20.2085 57.087 22.2829C57.087 24.3573 58.2871 26.0888 60.3786 26.0888M55.3383 19.1799H56.2641V18.6313H53.8297V19.1799H54.6869V24.2715C54.6869 24.5116 54.6869 24.7859 54.7212 25.0259C54.6355 24.8201 54.5326 24.563 54.4297 24.3744L51.3096 18.6484H49.4581V19.197H50.3667V25.4716H49.4581V26.0202H51.9439V25.4716H51.0182V20.0542C51.0182 19.8485 51.0182 19.5913 51.001 19.3685C51.0867 19.557 51.1896 19.8142 51.2925 20.0028L54.5326 26.0202H55.3383V19.197V19.1799ZM46.2522 26.003H48.7552V25.4545H47.8294V19.1799H48.7552V18.6313H46.2522V19.1799H47.1608V25.4545H46.2522V26.003ZM41.1091 20.4657C41.1091 19.7628 41.5377 19.077 42.8235 19.077C43.475 19.077 43.9035 19.197 44.4179 19.3513V20.3799H45.1036V18.8713C44.3493 18.6827 43.6635 18.5284 42.8406 18.5284C41.1434 18.5284 40.4062 19.4713 40.4062 20.5171C40.4062 21.9229 41.3491 22.2829 42.7035 22.4886C43.8007 22.66 44.6579 22.9001 44.6579 23.9972C44.6579 24.803 44.1093 25.5402 42.8235 25.5402C42.1892 25.5402 41.6406 25.4202 41.1263 25.2659V24.203H40.4405V25.763C41.1949 25.9516 41.9835 26.1231 42.8064 26.1231C44.5207 26.1231 45.3608 25.1287 45.3608 23.963C45.3608 22.4715 44.2293 22.06 42.8235 21.8543C41.8292 21.7171 41.1091 21.4943 41.1091 20.4828" fill="#1B2947"/>
</g>
</g>
<defs>
<clipPath id="clip0_857_6123">
<rect width="133.069" height="25.7326" fill="white" transform="translate(0.976562 0.373047)"/>
</clipPath>
</defs>
</svg>
