<svg width="79" height="27" viewBox="0 0 79 27" fill="none" xmlns="http://www.w3.org/2000/svg">
<g clip-path="url(#clip0_857_4606)">
<mask id="mask0_857_4606" style="mask-type:luminance" maskUnits="userSpaceOnUse" x="0" y="0" width="79" height="27">
<path d="M78.5113 0.107422H0.0449219V26.3715H78.5113V0.107422Z" fill="white"/>
</mask>
<g mask="url(#mask0_857_4606)">
<path d="M21.4238 9.82831C21.4238 9.82831 21.4581 9.72545 21.4752 9.65688C21.7152 8.93684 22.4181 7.05104 22.7781 6.091L23.2753 8.16538L23.481 9.24543C23.481 9.24543 23.481 9.27972 23.481 9.314C23.5153 9.41686 23.5325 9.55401 23.5325 9.65688C23.0353 9.79403 21.9038 10.0855 21.3895 9.84546M28.3841 11.817L27.4412 4.61665C27.3555 3.62232 26.6012 1.70223 24.2525 1.46222C21.3724 1.17078 20.4809 3.05658 20.4466 3.12515L19.7609 4.58236L17.5493 9.62259C16.2464 9.48544 15.5264 10.3083 15.3035 10.8569C14.8749 12.0227 15.3378 12.897 15.9378 13.4113L15.6635 14.1485L14.9606 15.64L13.6749 18.3144C12.9034 19.9773 13.7949 21.1602 14.5835 21.5374C14.6692 21.5717 14.7549 21.606 14.8578 21.6231C16.3836 21.7603 17.275 20.8517 17.5665 20.2859C17.5665 20.2688 17.5836 20.2516 17.6008 20.2345L17.7036 19.9602L18.2351 18.9487C18.2351 18.9487 18.2522 18.9144 18.2522 18.8973L19.3666 16.2915L20.6352 13.5656C21.3895 12.8456 22.3667 12.9485 22.4181 12.9656C22.4695 12.9656 22.521 12.9656 22.5724 12.9656C23.3953 12.897 23.961 13.4285 24.1668 13.6685L25.264 20.0973C25.264 20.0973 25.264 20.1659 25.2811 20.2002C25.4697 20.8002 25.8468 21.2631 26.3783 21.5374C26.7726 21.7431 27.2012 21.8117 27.6126 21.8117C28.2984 21.8117 28.8641 21.6231 28.9498 21.5888C29.0356 21.5546 29.1041 21.5203 29.1556 21.4688L29.3956 21.2803C29.6013 21.1088 29.7213 20.8517 29.687 20.5774L29.3613 18.5201L28.4184 11.8684L28.3841 11.817Z" fill="#763880"/>
<path d="M12.8325 6.36632C12.8325 6.36632 12.7982 6.36632 12.7811 6.36632L11.4439 6.79492L9.38662 7.39494L7.44939 7.89211C7.44939 7.89211 7.4151 7.89211 7.39796 7.89211C7.31224 7.90925 7.20938 7.90925 7.17509 7.89211C7.17509 7.89211 7.1408 7.85782 7.12366 7.7721C6.96937 7.22351 7.20938 6.88063 7.22652 6.86349C7.26081 6.8292 7.27795 6.81206 7.2951 6.76063C7.31224 6.74348 7.39796 6.67491 7.56939 6.60634C7.94655 6.46919 8.9066 6.24632 9.24947 6.17774C9.26661 6.17774 9.28376 6.17774 9.3009 6.17774L12.5753 5.2177C12.6953 5.18341 12.9353 5.16627 13.0211 5.2177C13.0896 5.25199 13.1239 5.40628 13.1239 5.45771C13.1239 5.45771 13.2439 6.21203 12.8325 6.33204M17.2555 4.48053C16.5184 1.39467 13.6554 1.13752 12.2667 1.42896L10.2095 1.80612C10.2095 1.80612 10.1752 1.80612 10.1581 1.80612L6.71221 2.6633C6.71221 2.6633 6.67793 2.6633 6.66078 2.6633L4.51783 3.36619L1.68913 4.13765C0.83195 4.34338 0.489077 4.72054 0.369072 5.01198C0.180492 5.28628 -0.11095 5.92059 0.146205 6.81206C0.300497 7.36066 0.64337 7.61781 0.900524 7.73781C1.46626 7.99497 2.032 7.80639 2.22058 7.73781L2.95776 7.48066C2.95776 7.48066 3.02633 7.46352 3.07776 7.44637L2.94062 8.33784L2.52917 8.47499C2.52917 8.47499 2.47774 8.49213 2.44345 8.50928C1.70627 8.86929 1.43198 9.40075 1.32911 9.77791C1.05482 10.7551 1.6377 11.698 1.70627 11.8009C1.84342 12.0237 2.08343 12.1609 2.35773 12.1609H2.44345L1.82628 16.2411L1.56913 18.7612C1.39769 19.8584 1.68913 20.3212 1.98057 20.5441C2.35773 20.9727 2.83775 21.247 3.33492 21.3156C3.42064 21.3156 3.50636 21.3327 3.60922 21.3327C4.07209 21.3327 4.53497 21.1613 4.94642 20.8527C5.87218 20.1498 6.02647 18.9155 6.04361 18.8126L7.17509 11.578C7.82655 11.3723 9.23233 11.0637 10.4324 10.858C10.4495 10.858 10.4667 10.858 10.4838 10.858L14.1868 9.91505C14.1868 9.91505 14.2383 9.91505 14.2726 9.88077C17.067 8.81786 17.4613 5.90345 17.2898 4.51481C17.2898 4.48053 17.2898 4.46338 17.2898 4.42909" fill="#763880"/>
<path d="M48.7991 1.13902C48.7991 1.13902 48.7305 1.12188 48.7134 1.10474C48.0276 0.916156 47.4619 0.950444 46.999 1.22474C46.5533 1.4819 46.3818 1.8762 46.3304 2.06478L41.5816 14.0653L39.9701 9.55654L38.2215 4.05344C38.1872 3.93343 38.1015 3.81343 38.0157 3.72771C37.2443 2.99054 36.5585 2.95625 36.1128 3.04197C35.1528 3.24769 34.7242 4.20773 34.6899 4.31059C34.6899 4.34488 34.6727 4.36203 34.6556 4.39631L34.227 6.26497L31.7755 15.3339L31.004 18.5912C30.9697 18.7284 30.9183 18.917 30.9011 18.9341C30.5925 19.2941 30.4554 20.0999 30.7297 20.7513C30.884 21.1285 31.3126 21.7457 32.4098 21.8142C32.4612 21.8142 32.5126 21.8142 32.5641 21.8142C33.2327 21.8142 33.6784 21.5399 33.9356 21.2999C34.5013 20.7856 34.6384 20.0656 34.6556 19.7741L35.1013 18.4369C35.1013 18.4369 35.1013 18.4027 35.1013 18.3855L36.61 12.5052V12.4367L37.2271 14.031L38.3243 16.774L39.4215 19.9113C39.4215 19.9113 39.4558 19.997 39.4901 20.0484C39.953 20.8199 40.7073 21.0771 41.1702 21.1113C42.3016 21.4028 43.0388 20.5456 43.2788 20.0484L43.7074 19.1913C43.7074 19.1913 43.7246 19.157 43.7246 19.1398L44.2903 17.7683L45.8847 14.1167L47.0161 11.3052L49.7591 3.79629C50.3077 2.35622 49.4848 1.41332 48.7991 1.12188" fill="#763880"/>
<path d="M53.2224 21.8994C53.2224 21.8994 53.171 21.8994 53.1367 21.8994C51.9881 22.1223 51.268 22.6023 50.9595 23.3223C50.548 24.2995 51.148 25.2081 51.2166 25.311C51.2509 25.3453 51.268 25.3795 51.3023 25.4138L51.388 25.4996C51.4909 25.6538 51.7481 25.8767 52.3995 26.2196C52.4681 26.2539 52.5367 26.2882 52.6224 26.2882C52.9138 26.3396 53.1881 26.3567 53.4453 26.3567C55.1939 26.3567 55.9654 25.2081 56.1368 24.5224C56.1368 24.4709 56.154 24.4024 56.154 24.3509C56.154 23.4423 55.794 22.8766 55.4682 22.5851C54.6282 21.7965 53.3767 21.8651 53.2396 21.8822" fill="#763880"/>
<path d="M69.8167 14.542C69.3024 15.5192 68.6852 16.2221 67.7595 16.8735C67.5023 17.045 67.108 17.2336 66.6108 16.7707C65.5822 15.7935 65.0508 12.8105 67.1423 9.50177C67.6052 8.7646 68.188 8.35315 68.7538 8.35315C69.2852 8.35315 69.8167 8.69602 70.211 9.31319C70.2796 9.4332 70.4339 9.79322 70.4682 9.89608C70.7767 11.5419 70.5539 13.1019 69.7995 14.542M71.3768 2.64432C70.0396 2.0443 68.5652 2.07858 67.1251 2.73004C64.845 3.7758 62.9078 6.31306 61.9478 9.53606C60.3363 14.9192 61.862 20.388 65.4108 21.9823C66.0451 22.2738 66.7137 22.4109 67.3994 22.4109C68.1538 22.4109 68.9081 22.2395 69.6624 21.8966C71.9425 20.8509 73.8797 18.3136 74.8398 15.0906C76.4341 9.7075 74.9083 4.23868 71.3768 2.64432Z" fill="#763880"/>
<path d="M60.3553 2.95501C58.3838 1.20636 56.2066 1.82353 55.778 1.97783C55.3837 2.06354 53.8236 2.52642 51.9892 4.63509C50.0348 6.86376 49.1091 9.67531 48.6634 11.0125V11.0639C47.6005 14.2184 48.7148 17.4928 48.7491 17.63C48.7834 17.75 49.812 20.7672 52.5378 21.6587C53.1378 21.8473 53.7036 21.933 54.2007 21.933C55.8808 21.933 57.0294 21.093 57.2866 20.9044C59.1381 19.67 59.5324 17.0814 59.5496 16.9442L59.7039 15.6584C59.7553 15.2298 59.6181 14.5955 59.2067 14.0984C58.8638 13.6869 58.3838 13.4469 57.8352 13.4126C56.6009 13.3269 55.8465 14.4927 55.6065 15.2127C55.6065 15.2127 55.6065 15.247 55.6065 15.2641L55.0579 17.2699C55.0579 17.2699 55.0579 17.3214 55.0579 17.3557C55.0065 17.6471 54.4065 17.9728 54.0122 18.0757C53.9779 18.0757 53.9436 18.0928 53.9093 18.11C53.9093 18.11 53.6179 18.1957 53.2921 17.6814C52.7607 16.8413 52.8807 15.7784 52.8807 15.7613C52.8807 15.727 52.8807 15.6927 52.8807 15.6756C52.8807 13.5498 53.395 12.024 53.395 12.024C53.395 11.9897 53.4121 11.9554 53.4293 11.904C53.5493 11.184 54.5093 8.74956 55.2979 7.44664C55.8637 6.50374 56.4123 6.38374 56.3951 6.38374C56.4294 6.38374 56.4637 6.38374 56.498 6.36659C56.6866 6.31516 56.9609 6.29802 57.0637 6.33231C57.1152 6.52089 57.0637 7.05234 56.9266 7.49807C56.8066 7.96095 56.8237 8.90385 57.6809 9.53816C58.5724 10.1725 59.3953 9.91532 59.7553 9.65817L60.201 9.33244C60.9725 8.95528 61.4011 8.14953 61.6239 6.65803C61.9154 4.82367 60.5096 3.14359 60.4582 3.07502C60.441 3.04073 60.4067 3.02359 60.3725 2.9893" fill="#763880"/>
<path d="M76.7793 1.73609C76.7793 1.73609 76.7278 1.78752 76.6764 1.78752C76.6078 1.80467 76.5564 1.82181 76.5221 1.82181H76.2821V1.44465H76.5393C76.6421 1.44465 76.7278 1.44465 76.7621 1.49608C76.7964 1.53037 76.8136 1.5818 76.8136 1.63323C76.8136 1.66752 76.8135 1.71895 76.7793 1.73609ZM77.1907 2.26754C77.1907 2.26754 77.1221 2.18183 77.105 2.16468C77.0707 2.14754 77.0193 2.11325 76.9507 2.09611C77.0364 2.09611 77.105 2.06182 77.1564 2.02753C77.225 1.9761 77.2936 1.92467 77.345 1.83895C77.3964 1.77038 77.4136 1.66752 77.4136 1.56466C77.4136 1.44465 77.3793 1.34179 77.3279 1.25607C77.2764 1.17035 77.1907 1.11892 77.0878 1.08463C77.0021 1.05035 76.865 1.0332 76.6764 1.0332H75.6992V2.919H76.2821V2.14754H76.3335C76.3335 2.14754 76.4364 2.14754 76.4707 2.18183C76.505 2.21611 76.5393 2.2504 76.5735 2.33612L76.8821 2.919H77.5336L77.2421 2.37041C77.2421 2.37041 77.2079 2.30183 77.1564 2.2504" fill="#763880"/>
<path d="M76.6241 3.50186C75.784 3.50186 75.0983 2.81611 75.0983 1.97608C75.0983 1.13604 75.784 0.450294 76.6241 0.450294C77.4641 0.450294 78.1499 1.13604 78.1499 1.97608C78.1499 2.81611 77.4641 3.50186 76.6241 3.50186ZM76.6241 0.107422C75.5783 0.107422 74.7383 0.94746 74.7383 1.99322C74.7383 3.03898 75.5783 3.87902 76.6241 3.87902C77.6698 3.87902 78.5099 3.03898 78.5099 1.99322C78.5099 0.94746 77.6527 0.107422 76.6241 0.107422Z" fill="#763880"/>
<path d="M2.76884 24.607C2.76884 24.607 2.68313 24.607 2.59741 24.607H1.92881V24.0755H2.59741C2.71741 24.0755 2.78599 24.0755 2.83742 24.1269C2.90599 24.1784 2.94028 24.2469 2.94028 24.3327C2.94028 24.4698 2.88885 24.5555 2.76884 24.607ZM2.76884 25.5499C2.76884 25.5499 2.68313 25.567 2.59741 25.567H1.92881V25.0356H2.59741C2.71741 25.0356 2.78599 25.0356 2.83742 25.087C2.90599 25.1384 2.94028 25.207 2.94028 25.2927C2.94028 25.4299 2.88885 25.5156 2.76884 25.5499ZM3.47173 24.2812C3.47173 24.1955 3.45459 24.1098 3.4203 24.0069C3.36887 23.8869 3.28315 23.8012 3.18029 23.7326C3.09457 23.6812 2.94028 23.6641 2.73456 23.6641H1.43164V25.9613H2.70027C2.80313 25.9613 2.90599 25.9613 2.97457 25.9613C3.12886 25.9442 3.26601 25.8756 3.35173 25.7727C3.43744 25.6699 3.47173 25.5327 3.47173 25.3784C3.47173 25.1213 3.36887 24.9327 3.146 24.8298C3.21458 24.7955 3.26601 24.7613 3.31744 24.7098C3.4203 24.5898 3.47173 24.4527 3.47173 24.2984" fill="#919496"/>
</g>
<path d="M4.86281 24.2302L5.18854 25.036H4.53708L4.86281 24.2302ZM4.57137 23.6816L3.61133 25.9789H4.19421L4.41708 25.4474H5.2914L5.51427 25.9789H6.08001L5.13711 23.6816H4.57137Z" fill="#919496"/>
<path d="M17.2066 23.6816H16.7266V25.9789H17.2066V23.6816Z" fill="#919496"/>
<mask id="mask1_857_4606" style="mask-type:luminance" maskUnits="userSpaceOnUse" x="0" y="0" width="79" height="27">
<path d="M78.5113 0.107422H0.0449219V26.3715H78.5113V0.107422Z" fill="white"/>
</mask>
<g mask="url(#mask1_857_4606)">
<path d="M19.0909 25.4303C19.0052 25.5332 18.868 25.5674 18.6452 25.5674H18.1651V24.0931H18.6452C18.7652 24.0931 18.8509 24.0931 18.9195 24.1274C19.1423 24.2131 19.2623 24.4531 19.2623 24.8303C19.2623 25.1046 19.2109 25.2931 19.0909 25.4303ZM19.2109 23.7502C19.0737 23.6988 18.8852 23.6816 18.6452 23.6816H17.668V25.9789H18.6452C18.7652 25.9789 18.868 25.9789 18.9709 25.9789C19.1423 25.9789 19.2966 25.9275 19.4166 25.8417C19.6738 25.6703 19.8109 25.3446 19.8109 24.8303C19.8109 24.6245 19.7766 24.4188 19.7081 24.2474C19.6223 24.0074 19.4681 23.8531 19.2109 23.7502Z" fill="#919496"/>
</g>
<path d="M15.8348 23.6816L14.9434 24.8131L15.7834 25.9789H16.4177L15.5091 24.8131L16.4691 23.6816H15.8348Z" fill="#919496"/>
<mask id="mask2_857_4606" style="mask-type:luminance" maskUnits="userSpaceOnUse" x="0" y="0" width="79" height="27">
<path d="M78.5113 0.107422H0.0449219V26.3715H78.5113V0.107422Z" fill="white"/>
</mask>
<g mask="url(#mask2_857_4606)">
<path d="M7.67509 24.607C7.67509 24.607 7.58937 24.607 7.50366 24.607H6.83506V24.0755H7.5208C7.62366 24.0755 7.70938 24.0755 7.76081 24.1269C7.82939 24.1784 7.86367 24.2469 7.86367 24.3327C7.86367 24.4698 7.7951 24.5555 7.69224 24.607M7.67509 25.5499C7.67509 25.5499 7.58937 25.567 7.50366 25.567H6.83506V25.0356H7.5208C7.62366 25.0356 7.70938 25.0356 7.76081 25.087C7.82939 25.1384 7.86367 25.207 7.86367 25.2927C7.86367 25.4299 7.7951 25.5156 7.69224 25.5499M8.37798 24.2812C8.37798 24.1955 8.36084 24.1098 8.32655 24.0069C8.27512 23.8869 8.1894 23.8012 8.08654 23.7326C8.00082 23.6812 7.84653 23.6641 7.64081 23.6641H6.33789V25.9613H7.60652C7.70938 25.9613 7.81224 25.9613 7.88082 25.9613C8.03511 25.9442 8.17226 25.8756 8.25798 25.7727C8.34369 25.6699 8.37798 25.5327 8.37798 25.3784C8.37798 25.1213 8.25798 24.9327 8.05225 24.8298C8.12083 24.7955 8.17226 24.7613 8.22369 24.7098C8.32655 24.5898 8.37798 24.4527 8.37798 24.2984" fill="#919496"/>
<path d="M21.7853 24.6588C21.6825 24.6245 21.5453 24.6074 21.3567 24.6074H20.9967C20.8596 24.6074 20.7567 24.6074 20.7053 24.5731C20.6196 24.5388 20.5681 24.4531 20.5681 24.3502C20.5681 24.2131 20.6196 24.1445 20.7224 24.1102C20.7739 24.1102 20.8767 24.0931 21.031 24.0931H22.0596V23.6816H20.911C20.7739 23.6816 20.671 23.6816 20.6024 23.6816C20.4138 23.6988 20.2767 23.7674 20.1738 23.8874C20.071 24.0074 20.0195 24.1617 20.0195 24.3502C20.0195 24.5731 20.1052 24.7445 20.2424 24.8645C20.3624 24.9674 20.551 25.0017 20.8081 25.0017H21.2367C21.3567 25.0017 21.4425 25.0017 21.4939 25.0531C21.5796 25.1046 21.631 25.1903 21.631 25.2931C21.631 25.396 21.5967 25.4646 21.511 25.516C21.4596 25.5503 21.3396 25.5674 21.1682 25.5674H20.1224V25.9789H21.271C21.4425 25.9789 21.5796 25.9789 21.6653 25.9617C21.8539 25.9275 21.9739 25.8417 22.0768 25.6874C22.1453 25.5674 22.1796 25.4474 22.1796 25.3103C22.1796 25.1903 22.1625 25.0703 22.1111 24.9503C22.0596 24.8131 21.9396 24.7103 21.7682 24.6588" fill="#919496"/>
</g>
<path d="M10.1766 23.6816L9.61086 24.5903L9.07941 23.6816H8.51367L9.37085 24.9674V25.9789H9.85087V24.9846L10.7595 23.6816H10.1766Z" fill="#919496"/>
<path d="M14.9273 23.6816H14.4473V25.9789H14.9273V23.6816Z" fill="#919496"/>
<path d="M11.7383 24.5894V25.0351L13.2298 25.8237V25.3094L12.304 24.8123L13.2298 24.3322V23.8008L11.7383 24.5894Z" fill="#919496"/>
</g>
<defs>
<clipPath id="clip0_857_4606">
<rect width="78.4664" height="26.264" fill="white" transform="translate(0.0449219 0.107422)"/>
</clipPath>
</defs>
</svg>
