<svg width="103" height="16" viewBox="0 0 103 16" fill="none" xmlns="http://www.w3.org/2000/svg">
<g clip-path="url(#clip0_857_4546)">
<mask id="mask0_857_4546" style="mask-type:luminance" maskUnits="userSpaceOnUse" x="0" y="0" width="103" height="16">
<path d="M102.191 0.917969H0.511719V15.5586H102.191V0.917969Z" fill="white"/>
</mask>
<g mask="url(#mask0_857_4546)">
<path d="M102.191 14.9415V1.14084H100.013V9.93552C98.539 8.13544 96.7217 7.12396 95.316 5.92391C93.9273 4.741 92.8816 3.5238 92.4187 1.14084H90.2243V14.9415H92.8473C92.8473 13.7757 92.3844 13.5014 92.3844 12.5585V6.00963C92.3844 6.00963 92.3844 6.00963 92.4016 6.02677C93.8759 7.77542 95.676 8.76975 97.0818 9.98695C98.4533 11.187 99.5162 12.4556 99.979 14.9415H102.173H102.191ZM87.6356 8.20401C87.6356 3.86667 84.9955 0.952256 81.0696 0.952256C77.1437 0.952256 74.5208 3.86667 74.5208 8.20401C74.5208 12.5413 77.1437 15.4558 81.0696 15.4558C84.9955 15.4558 87.6185 12.5413 87.6185 8.20401M85.2869 8.20401C85.2869 10.7241 84.2583 13.45 81.0696 13.45C77.8809 13.45 76.8523 10.7241 76.8523 8.20401C76.8523 5.6839 77.8809 2.99235 81.0696 2.99235C84.2583 2.99235 85.2869 5.6839 85.2869 8.20401ZM72.3607 8.20401C72.3607 3.86667 69.7377 0.952256 65.8118 0.952256C61.8859 0.952256 59.2629 3.86667 59.2629 8.20401C59.2629 12.5413 61.8859 15.4558 65.8118 15.4558C69.7377 15.4558 72.3607 12.5413 72.3607 8.20401ZM70.0291 8.20401C70.0291 10.7241 69.0005 13.45 65.8118 13.45C62.6231 13.45 61.5945 10.7241 61.5945 8.20401C61.5945 5.6839 62.6231 2.99235 65.8118 2.99235C69.0005 2.99235 70.0291 5.6839 70.0291 8.20401ZM50.6225 4.87815C50.6225 3.7981 51.4797 3.16378 52.8341 3.16378C54.0513 3.16378 54.8056 3.98668 55.2685 4.55242L56.9143 3.1295C56.0914 1.99802 54.6341 0.9694 52.9369 0.9694C50.8625 0.9694 48.4453 1.74086 48.4453 4.96386C48.4453 9.0269 55.1142 8.87261 55.1142 11.7356C55.1142 12.6271 54.4113 13.3642 52.8169 13.3642C51.7197 13.3642 50.914 12.9528 49.9539 11.7527L48.3253 13.1757C49.3882 14.7357 50.8968 15.5586 52.8341 15.5586C54.7713 15.5586 57.2914 14.6157 57.2914 11.6499C57.2914 7.12396 50.6397 7.17539 50.6397 4.87815M43.0965 14.9415H45.2909V1.14084H43.1136V9.93552C41.6393 8.13544 39.8221 7.12396 38.4163 5.92391C37.0276 4.741 35.9819 3.5238 35.519 1.14084H33.3246V14.9415H35.9476C35.9476 13.7757 35.4847 13.5014 35.4847 12.5585V6.00963C35.4847 6.00963 35.4847 6.00963 35.5019 6.02677C36.9762 7.77542 38.7763 8.76975 40.1821 9.98695C41.5536 11.187 42.6165 12.4556 43.0793 14.9415M30.5645 8.16972C30.5645 3.83239 27.9415 0.917969 24.0156 0.917969C20.0897 0.917969 17.4668 3.83239 17.4668 8.16972C17.4668 12.5071 20.1069 15.4215 24.0156 15.4215C27.9244 15.4215 30.5645 12.5071 30.5645 8.16972ZM28.233 8.16972C28.233 10.6898 27.2043 13.4157 24.0156 13.4157C20.8269 13.4157 19.7983 10.6898 19.7983 8.16972C19.7983 5.64961 20.8269 2.9752 24.0156 2.9752C27.2043 2.9752 28.233 5.64961 28.233 8.16972ZM12.6151 14.9415H14.7924V1.14084H12.598C12.4265 2.06659 12.1008 2.73519 11.6551 3.36951C11.1922 4.03811 10.575 4.63814 9.88928 5.34102C9.11782 6.12963 8.29492 7.07253 7.64347 8.34116C6.99201 7.07253 6.16912 6.11249 5.39765 5.34102C4.71191 4.63814 4.09474 4.02097 3.63186 3.36951C3.18612 2.73519 2.8604 2.06659 2.68896 1.14084H0.511719V14.9415H3.13469C3.13469 13.7757 2.67182 13.5014 2.67182 12.5585V5.56389C3.40899 6.40393 4.18045 7.08967 4.79763 7.86114C5.63766 8.9069 6.30626 10.0727 6.56342 12.1128H8.68923C8.96353 10.0727 9.63213 8.88976 10.455 7.86114C11.0893 7.07253 11.8437 6.38679 12.5808 5.56389V14.9415H12.6151Z" fill="#DF4F57"/>
</g>
</g>
<defs>
<clipPath id="clip0_857_4546">
<rect width="101.679" height="14.6407" fill="white" transform="translate(0.511719 0.917969)"/>
</clipPath>
</defs>
</svg>
