<svg width="120" height="23" viewBox="0 0 120 23" fill="none" xmlns="http://www.w3.org/2000/svg">
<g clip-path="url(#clip0_857_4149)">
<mask id="mask0_857_4149" style="mask-type:luminance" maskUnits="userSpaceOnUse" x="0" y="0" width="120" height="23">
<path d="M119.303 0.4375H0.189453V22.0385H119.303V0.4375Z" fill="white"/>
</mask>
<g mask="url(#mask0_857_4149)">
<path d="M119.305 0.762794C119.322 0.625645 119.288 0.539927 119.236 0.50564C119.168 0.437065 119.031 0.437065 118.911 0.471353C118.808 0.50564 118.722 0.539927 118.636 0.574214C117.985 0.831369 117.831 0.8828 116.699 0.865656C115.242 0.865656 112.259 0.625645 112.225 0.625645H112.19V0.659933C112.259 2.11714 112.31 4.17438 112.31 6.30019C112.31 8.1517 112.276 10.2432 112.19 11.9233L118.911 11.9404L119.305 9.7632L119.031 9.67748C118.928 10.1061 118.328 10.5861 117.505 10.929C116.511 11.3576 115.259 11.5804 113.99 11.5461C113.939 9.81463 113.888 8.03169 113.888 6.3859C115.345 6.3859 116.716 6.59163 117.848 6.96879H117.865L118.156 5.20299V5.16871H118.122C116.836 5.56301 115.276 5.80302 113.87 5.80302C113.87 4.26009 113.905 2.80289 113.956 1.10567H114.076C114.608 1.22567 115.259 1.34568 115.705 1.49997L115.808 1.53426C116.751 1.87713 117.505 2.16857 118.328 1.84284C118.842 1.65426 119.168 1.25996 119.288 0.711363M108.247 11.9576L108.744 9.74605L108.47 9.69462C108.282 10.1918 107.579 10.6718 106.55 10.9975C105.333 11.3918 103.756 11.5804 101.956 11.5633L108.453 0.865656L108.35 0.642789H108.333C107.15 0.745651 105.59 0.779938 104.63 0.779938C103.756 0.779938 102.213 0.728507 101.184 0.642789H101.167L100.601 2.8886L100.893 2.94003C101.167 2.06571 103.464 1.17424 106.464 1.17424H106.601L100.173 11.7347L100.275 11.9747H108.247V11.9576ZM96.7096 11.9404C96.6239 10.3804 96.5896 7.98026 96.5896 6.31733C96.5896 4.6544 96.6239 2.25429 96.7096 0.69422V0.659933H94.8924V0.69422C94.9781 2.25429 95.0124 4.63725 95.0124 6.31733C95.0124 7.9974 94.9781 10.3804 94.8924 11.9404L96.7096 11.9576V11.9404ZM92.5952 11.289C92.5952 11.289 92.4752 11.2033 92.2866 11.2204C91.858 11.2547 90.7436 11.3233 89.8693 8.95745C89.8179 8.83744 89.7665 8.68315 89.715 8.546C89.3207 7.63739 88.5664 6.9345 87.6235 6.62591C87.5035 6.57448 87.3663 6.52305 87.2806 6.50591C88.1892 6.24875 90.4008 5.06584 90.4008 3.18005C90.4008 1.56854 88.8578 0.574214 86.372 0.574214C85.4977 0.574214 84.1433 0.69422 83.2004 0.865656H83.1833V0.8828C83.2519 2.56288 83.2862 4.79155 83.2862 6.24875C83.2862 7.8774 83.2519 10.3632 83.1662 11.9404L84.9662 11.9576C84.8977 10.6718 84.8634 8.1517 84.8634 6.81449C85.2234 6.76306 85.772 6.71163 86.1663 6.71163C86.6292 6.71163 86.9892 6.81449 87.2806 7.02022C87.6406 7.29452 87.7264 7.43167 87.8807 7.84311C87.9321 7.98026 87.9835 8.11741 88.0521 8.25456C88.2235 8.68315 88.395 9.0946 88.5664 9.54033C88.5664 9.54033 88.7036 9.93463 89.1836 10.9461C89.5093 11.6147 89.9379 12.0262 90.4693 12.1633C90.5551 12.1804 90.6751 12.1976 90.8122 12.1976C91.1894 12.1976 91.7723 12.0776 92.4752 11.529C92.6123 11.4261 92.6637 11.3576 92.6294 11.3061M86.6977 6.24875C86.012 6.18018 85.3091 6.18018 84.8462 6.18018C84.8462 4.62011 84.8977 2.20286 84.9491 0.968518C85.3091 0.917087 85.8063 0.899943 86.0291 0.899943C87.2806 0.899943 88.6178 1.60283 88.6178 3.57435C88.6178 4.24295 88.4293 5.82016 86.7149 6.24875M80.2175 6.09446C80.2175 4.39724 79.686 2.97432 78.6745 1.9457C77.6802 0.951374 76.3087 0.419922 74.6972 0.419922C71.2342 0.419922 68.7998 2.92289 68.7998 6.50591C68.7998 8.20313 69.3312 9.62605 70.3427 10.6375C71.3371 11.6319 72.7085 12.1633 74.3201 12.1633C77.7831 12.1633 80.2175 9.66034 80.2175 6.07732M78.3659 6.43733C78.3659 7.91169 77.9888 9.28318 77.303 10.2947C76.6173 11.3061 75.6744 11.8719 74.6458 11.8719C73.6172 11.8719 72.5885 11.289 71.8342 10.2432C71.0628 9.18031 70.6513 7.74025 70.6513 6.18018C70.6513 4.62011 71.0285 3.33434 71.7142 2.34001C72.4 1.32853 73.3429 0.779938 74.3715 0.779938C75.4001 0.779938 76.4287 1.34568 77.183 2.39144C77.9545 3.45434 78.3659 4.89441 78.3659 6.43733ZM68.4569 18.935C67.5997 18.935 66.9483 19.6036 66.9483 20.478C66.9483 21.3523 67.5997 22.0209 68.4569 22.0209C69.3141 22.0209 69.9656 21.3523 69.9656 20.478C69.9656 19.6036 69.3141 18.935 68.4569 18.935ZM69.537 20.4951C69.537 21.1466 69.0741 21.6437 68.4569 21.6437C67.8398 21.6437 67.3769 21.1466 67.3769 20.4951C67.3769 19.8436 67.8398 19.3465 68.4569 19.3465C69.0741 19.3465 69.537 19.8436 69.537 20.4951ZM60.6737 2.92289C60.6737 1.77427 61.4966 0.831369 62.5252 0.831369C63.7939 0.831369 64.9768 2.37429 64.9768 3.30005V3.33434L65.2339 3.28291L65.7825 1.05424L65.7654 1.01995C64.771 0.659933 63.5367 0.488496 62.7995 0.488496C60.7252 0.488496 59.2337 1.79141 59.2337 3.59149C59.2337 5.39157 60.6909 6.16304 62.1138 6.84878C63.3996 7.46595 64.6168 8.06598 64.6168 9.4889C64.6168 10.7404 63.6224 11.769 62.4224 11.769C60.8452 11.769 59.628 10.0204 59.6108 9.12888V9.0946L59.3537 9.14603L58.8051 11.3918C59.8508 11.9062 61.2395 12.0947 62.0966 12.0947C63.331 12.0947 64.3767 11.7347 65.0968 11.049C65.7482 10.4489 66.0911 9.62605 66.0911 8.75172C66.0911 7.02022 64.651 6.31733 63.2624 5.64873C61.9252 4.99727 60.6566 4.3801 60.6566 2.90575M57.0907 22.0037H57.3993V18.9865H56.9707V21.198L55.1535 18.9865H54.862V22.0037H55.2906V19.7922L57.1078 22.0037H57.0907ZM50.4904 2.92289C50.4904 1.77427 51.3133 0.831369 52.3419 0.831369C53.6105 0.831369 54.7935 2.37429 54.7935 3.30005V3.33434L55.0506 3.28291L55.5992 1.05424L55.5821 1.01995C54.5877 0.659933 53.3362 0.488496 52.6162 0.488496C50.5418 0.488496 49.0503 1.79141 49.0503 3.59149C49.0503 5.39157 50.5075 6.16304 51.9305 6.84878C53.2162 7.46595 54.4334 8.06598 54.4334 9.4889C54.4334 10.7404 53.4391 11.769 52.2391 11.769C50.6618 11.769 49.4446 10.0204 49.4275 9.12888V9.0946L49.1703 9.14603L48.6217 11.3918H48.6389C49.6847 11.9062 51.0733 12.0947 51.9305 12.0947C53.1648 12.0947 54.2106 11.7347 54.9306 11.049C55.5821 10.4489 55.9249 9.62605 55.9249 8.75172C55.9249 7.02022 54.4849 6.31733 53.0962 5.64873C51.759 4.99727 50.4904 4.3801 50.4904 2.90575M48.3132 20.4951C48.3132 21.3694 48.9646 22.038 49.8218 22.038C50.679 22.038 51.3304 21.3694 51.3304 20.4951C51.3304 19.6208 50.679 18.9522 49.8218 18.9522C48.9646 18.9522 48.3132 19.6208 48.3132 20.4951ZM48.7418 20.4951C48.7418 19.8436 49.2046 19.3465 49.8218 19.3465C50.439 19.3465 50.9019 19.8436 50.9019 20.4951C50.9019 21.1466 50.439 21.6437 49.8218 21.6437C49.2046 21.6437 48.7418 21.1466 48.7418 20.4951ZM45.5188 0.762794C45.5359 0.625645 45.5016 0.539927 45.4502 0.50564C45.3816 0.437065 45.2445 0.437065 45.1245 0.471353C45.0216 0.50564 44.9359 0.539927 44.8502 0.574214C44.1987 0.831369 44.0444 0.8828 42.9129 0.865656C41.4557 0.865656 38.4727 0.625645 38.4384 0.625645H38.4042V0.659933C38.4727 2.11714 38.5242 4.17438 38.5242 6.30019C38.5242 8.1517 38.4899 10.2432 38.4042 11.9233L45.1245 11.9404L45.5188 9.7632L45.2445 9.67748C45.1416 10.1061 44.5416 10.5861 43.7187 10.929C42.7243 11.3576 41.4729 11.5804 40.2042 11.5461C40.1357 9.81463 40.1014 8.03169 40.1014 6.3859C41.5586 6.3859 42.9301 6.59163 44.0615 6.96879H44.0958L44.3873 5.20299V5.16871H44.353C43.0672 5.56301 41.5071 5.80302 40.1014 5.80302C40.1014 4.26009 40.1357 2.80289 40.2042 1.10567H40.3242C40.8557 1.22567 41.5071 1.34568 41.9529 1.49997L42.0557 1.53426C42.9986 1.87713 43.753 2.16857 44.5759 1.84284C45.0902 1.65426 45.4159 1.25996 45.5359 0.711363M35.284 10.0375L35.0954 9.83177H35.0783C34.3754 10.6547 33.1411 11.1518 31.8553 11.1518C29.3009 11.1518 27.5179 9.06031 27.5179 6.07732C27.5179 4.63725 27.9465 3.30005 28.718 2.32286C29.438 1.41425 30.3981 0.8828 31.341 0.8828C32.1296 0.8828 32.9182 1.24282 33.5354 1.85999C33.9982 2.34001 34.2897 2.90575 34.2897 3.33434V3.36863L34.5468 3.31719L35.0954 1.07138H35.0783C33.5868 0.574215 32.2324 0.539927 31.8381 0.539927C30.1409 0.539927 28.5809 1.1571 27.4494 2.28858C26.3179 3.42006 25.7179 4.98013 25.7179 6.69449C25.7179 9.95178 27.878 12.2319 30.9638 12.2319C32.7296 12.2319 34.1354 11.529 35.2669 10.0718M23.5063 10.0375L23.3178 9.83177C22.6149 10.6547 21.3805 11.1518 20.0948 11.1518C17.5404 11.1518 15.7574 9.06031 15.7574 6.07732C15.7574 4.63725 16.186 3.30005 16.9575 2.32286C17.6775 1.41425 18.6375 0.8828 19.5976 0.8828C20.3691 0.8828 21.1748 1.24282 21.792 1.85999C22.2549 2.34001 22.5463 2.90575 22.5463 3.33434V3.36863L22.8034 3.31719L23.3692 1.07138H23.352C21.8605 0.574215 20.5062 0.539927 20.1119 0.539927C18.4147 0.539927 16.8546 1.1571 15.7231 2.28858C14.6088 3.42006 13.9916 4.98013 13.9916 6.69449C13.9916 9.95178 16.1517 12.2319 19.2376 12.2319C20.9862 12.2319 22.4091 11.529 23.5406 10.0718M9.75715 11.9576H11.5915L7.30561 0.522784V0.488496L6.10556 1.01995C6.07127 1.08852 3.36258 8.37456 3.174 8.80315C2.21395 11.0147 1.49392 11.1175 0.808177 11.2375C0.671028 11.2547 0.533879 11.2375 0.431018 11.2375C0.293869 11.2375 0.225294 11.2375 0.20815 11.2718C0.191007 11.3061 0.20815 11.3747 0.413874 11.529C0.653885 11.7347 1.21962 12.1633 1.87108 12.1633C1.9568 12.1633 2.05966 12.1633 2.14538 12.1462C2.67683 12.0433 3.13971 11.6319 3.49973 10.9118C3.80831 10.2947 4.32262 8.68315 4.3912 8.51171C5.04265 8.46028 5.95126 8.40885 6.34557 8.40885C6.73987 8.40885 7.78563 8.44314 8.45424 8.46028L9.75715 11.9233V11.9576ZM8.29994 7.74025C7.66563 7.80883 6.70558 7.82597 6.32842 7.82597C6.0027 7.82597 5.12837 7.82597 4.49406 7.79168L6.24271 2.01428L8.29994 7.74025ZM43.8901 18.9865H43.4615V22.0037H45.2273V21.5923H43.8901V18.9865ZM62.0109 18.9865H61.1023V22.0037H62.0109C62.4909 22.0037 62.7995 21.9009 63.0567 21.7123C63.4338 21.438 63.6567 20.9923 63.6567 20.4951C63.6567 19.9979 63.4338 19.5522 63.0567 19.2779C62.8167 19.1065 62.5081 18.9865 62.0281 18.9865M61.9938 19.3808C62.4224 19.3808 62.6624 19.4665 62.851 19.6379C63.0738 19.8436 63.211 20.1522 63.211 20.478C63.211 20.8037 63.0738 21.1123 62.851 21.318C62.6624 21.4894 62.4052 21.5752 61.9938 21.5752H61.548V19.3808H61.9938ZM73.7886 18.9865H73.48V22.0037H73.9086V19.7922L75.7258 22.0037H76.0344V18.9865H75.6058V21.198L73.7886 18.9865Z" fill="#1C1C19"/>
</g>
</g>
<defs>
<clipPath id="clip0_857_4149">
<rect width="119.114" height="21.601" fill="white" transform="translate(0.189453 0.4375)"/>
</clipPath>
</defs>
</svg>
