<svg width="186" height="13" viewBox="0 0 186 13" fill="none" xmlns="http://www.w3.org/2000/svg">
<g clip-path="url(#clip0_857_4254)">
<mask id="mask0_857_4254" style="mask-type:luminance" maskUnits="userSpaceOnUse" x="0" y="-1" width="186" height="14">
<path d="M185.833 -0.00976562H0.304688V12.4879H185.833V-0.00976562Z" fill="white"/>
</mask>
<g mask="url(#mask0_857_4254)">
<path d="M9.40795 1.32637V3.3836C8.39648 2.54356 7.35072 2.11497 6.28781 2.11497C5.1049 2.11497 4.09343 2.54356 3.28768 3.40074C2.46478 4.24078 2.05334 5.28654 2.05334 6.52088C2.05334 7.75523 2.46478 8.74956 3.28768 9.58959C4.11057 10.4296 5.1049 10.8411 6.28781 10.8411C6.90498 10.8411 7.41929 10.7382 7.84788 10.5496C8.08789 10.4468 8.3279 10.3096 8.58506 10.1382C8.84221 9.96675 9.11651 9.76103 9.39081 9.52102V11.6297C8.39648 12.1954 7.35072 12.4869 6.25353 12.4869C4.60774 12.4869 3.18482 11.904 2.03619 10.7554C0.887571 9.58959 0.304688 8.18382 0.304688 6.53803C0.304688 5.06368 0.784709 3.76076 1.7619 2.61214C2.96195 1.18922 4.50488 0.486328 6.40782 0.486328C7.43644 0.486328 8.44791 0.760626 9.40795 1.32637Z" fill="black"/>
</g>
<path d="M22.3336 0.710938V5.23685H17.3448V0.710938H15.6133V12.2657H17.3448V6.8655H22.3336V12.2657H24.0651V0.710938H22.3336Z" fill="black"/>
<path d="M34.8831 3.89898L36.5975 7.82487H33.083L34.8831 3.89898ZM34.9002 -0.00976562L29.1914 12.2651H31.0601L32.3458 9.45352H37.2832L38.5004 12.2651H40.4033L34.9002 -0.00976562Z" fill="black"/>
<mask id="mask1_857_4254" style="mask-type:luminance" maskUnits="userSpaceOnUse" x="0" y="-1" width="186" height="14">
<path d="M185.833 -0.00976562H0.304688V12.4879H185.833V-0.00976562Z" fill="white"/>
</mask>
<g mask="url(#mask1_857_4254)">
<path d="M47.2788 6.02546H47.8274C49.4732 6.02546 50.2961 5.39115 50.2961 4.13966C50.2961 2.95675 49.4903 2.37387 47.896 2.37387H47.2788V6.0426V6.02546ZM49.4561 7.34552L53.0391 12.2657H50.9133L47.6217 7.5341H47.3131V12.2657H45.5645V0.710938H47.6045C49.1303 0.710938 50.2275 1.00238 50.9133 1.56812C51.6676 2.20243 52.0276 3.04247 52.0276 4.08823C52.0276 4.91113 51.7876 5.61401 51.3247 6.1969C50.8618 6.77978 50.2447 7.15694 49.4732 7.32838" fill="black"/>
</g>
<path d="M58.4395 0.710938V12.2657H63.5825V10.62H60.1881V0.710938H58.4395Z" fill="black"/>
<path d="M68.8965 0.710938V12.2657H75.2739V10.62H70.6451V6.76264H75.1368V5.13399H70.6451V2.35673H75.2739V0.710938H68.8965Z" fill="black"/>
<mask id="mask2_857_4254" style="mask-type:luminance" maskUnits="userSpaceOnUse" x="0" y="-1" width="186" height="14">
<path d="M185.833 -0.00976562H0.304688V12.4879H185.833V-0.00976562Z" fill="white"/>
</mask>
<g mask="url(#mask2_857_4254)">
<path d="M87.7732 2.42356L86.3675 3.2636C86.1103 2.80072 85.8532 2.50928 85.6131 2.37213C85.3731 2.21783 85.0474 2.13212 84.6531 2.13212C84.1731 2.13212 83.7616 2.26927 83.453 2.54356C83.1445 2.81786 82.973 3.14359 82.973 3.55504C82.973 4.12078 83.3845 4.56651 84.2245 4.90938L85.3731 5.38941C86.316 5.76656 87.0018 6.22944 87.4304 6.77804C87.859 7.32663 88.0818 7.99524 88.0818 8.78384C88.0818 9.84675 87.7218 10.7211 87.0189 11.424C86.2989 12.1269 85.4246 12.4697 84.3617 12.4697C83.3673 12.4697 82.5273 12.1783 81.8758 11.5783C81.2415 10.9782 80.8301 10.1382 80.6758 9.07528L82.4416 8.68098C82.5273 9.34958 82.6644 9.8296 82.8702 10.0868C83.2302 10.5839 83.7445 10.8411 84.4474 10.8411C84.996 10.8411 85.4417 10.6525 85.8017 10.2925C86.1617 9.93247 86.3332 9.46959 86.3332 8.90385C86.3332 8.68098 86.2989 8.47526 86.2475 8.28668C86.1789 8.0981 86.0932 7.92666 85.956 7.77237C85.8189 7.61808 85.6474 7.46378 85.4417 7.32663C85.236 7.18949 84.9788 7.06948 84.6874 6.93233L83.5731 6.46945C81.9958 5.80085 81.2072 4.82367 81.2072 3.53789C81.2072 2.66357 81.533 1.94354 82.2016 1.36065C82.8702 0.77777 83.6931 0.486328 84.6702 0.486328C86.0074 0.486328 87.0361 1.13779 87.7904 2.42356" fill="black"/>
<path d="M107.917 4.62011L108.054 4.51725C108.294 4.32867 108.5 4.17438 108.654 4.03723C108.808 3.90008 108.928 3.78008 108.997 3.69436C109.151 3.50578 109.22 3.28291 109.22 3.00861C109.22 2.70003 109.117 2.46002 108.911 2.27144C108.705 2.08286 108.431 1.98 108.088 1.98C107.78 1.98 107.505 2.08286 107.3 2.27144C107.094 2.46002 106.974 2.70003 106.974 2.97433C106.974 3.3172 107.111 3.64293 107.385 3.9858L107.814 4.51725C107.814 4.51725 107.865 4.58583 107.9 4.63726M107.557 6.8145L107.454 6.88307C106.734 7.38024 106.254 7.77454 105.997 8.06598C105.74 8.35742 105.62 8.68315 105.62 9.00888C105.62 9.4889 105.808 9.93464 106.202 10.3289C106.597 10.7232 107.042 10.9118 107.522 10.9118C108.191 10.9118 108.963 10.4661 109.854 9.59177L107.574 6.8145H107.557ZM108.928 5.83731L111.003 8.35742L111.071 8.28885C111.294 8.04884 111.5 7.80883 111.706 7.56882C111.911 7.32881 112.1 7.0888 112.288 6.86593L113.42 8.0317C113.283 8.23742 113.094 8.46029 112.871 8.73458C112.648 8.99174 112.374 9.30032 112.066 9.6432L114.208 12.2833H112.031L110.883 10.8775C109.82 11.9747 108.723 12.5233 107.591 12.5233C106.562 12.5233 105.705 12.1976 104.985 11.5461C104.282 10.8947 103.939 10.0718 103.939 9.11174C103.939 7.96312 104.488 7.00308 105.602 6.24876L106.357 5.73445C106.357 5.73445 106.374 5.71731 106.408 5.70016C106.425 5.68302 106.477 5.64873 106.511 5.61444C105.757 4.80869 105.362 4.00294 105.362 3.21434C105.362 2.42573 105.62 1.80856 106.117 1.31139C106.631 0.831373 107.3 0.574219 108.122 0.574219C108.945 0.574219 109.58 0.814229 110.094 1.27711C110.608 1.75713 110.883 2.34001 110.883 3.07719C110.883 3.57435 110.745 4.02009 110.454 4.43153C110.18 4.84298 109.665 5.323 108.945 5.88874" fill="black"/>
</g>
<path d="M138.189 0.710938L133.698 5.32257V0.710938H131.949V12.2657H133.698V7.48267L134.058 7.12265L138.224 12.2657H140.538L135.292 5.93974L140.521 0.710938H138.189Z" fill="black"/>
<path d="M145.783 0.710938V12.2657H152.143V10.62H147.515V6.76264H152.023V5.13399H147.515V2.35673H152.143V0.710938H145.783Z" fill="black"/>
<path d="M159.862 0.710938H158.113V12.2657H159.862V0.710938Z" fill="black"/>
<path d="M165.107 0.710938V2.35673H167.748V12.2657H169.496V2.35673H172.136V0.710938H165.107Z" fill="black"/>
<path d="M184.101 0.710938V5.23685H179.112V0.710938H177.363V12.2657H179.112V6.8655H184.101V12.2657H185.832V0.710938H184.101Z" fill="black"/>
</g>
<defs>
<clipPath id="clip0_857_4254">
<rect width="185.528" height="12.4977" fill="white" transform="translate(0.304688 -0.00976562)"/>
</clipPath>
</defs>
</svg>
