<svg width="86" height="16" viewBox="0 0 86 16" fill="none" xmlns="http://www.w3.org/2000/svg">
<g clip-path="url(#clip0_857_4599)">
<mask id="mask0_857_4599" style="mask-type:luminance" maskUnits="userSpaceOnUse" x="0" y="0" width="86" height="16">
<path d="M85.2548 0.625H0.291016V15.0428H85.2548V0.625Z" fill="white"/>
</mask>
<g mask="url(#mask0_857_4599)">
<path d="M85.2548 1.70617C85.2548 1.14043 84.8091 0.694695 84.2262 0.694695C83.6776 0.694695 83.2319 1.14043 83.2147 1.68902C83.2147 2.23762 83.6605 2.71764 84.2262 2.71764C84.7919 2.71764 85.2377 2.25476 85.2377 1.70617M85.0491 1.70617C85.0491 2.16905 84.7062 2.51192 84.2434 2.51192C83.7805 2.51192 83.4205 2.16905 83.4205 1.68902C83.4205 1.22615 83.7633 0.900418 84.2262 0.900418C84.6891 0.900418 85.032 1.24329 85.032 1.70617M84.5519 1.86046C84.5519 1.86046 84.4834 1.79189 84.4662 1.77474C84.5176 1.77474 84.5862 1.74046 84.6377 1.67188L84.6719 1.63759C84.6891 1.58616 84.7062 1.53473 84.7062 1.4833C84.7062 1.43187 84.7062 1.3633 84.6548 1.31187C84.6205 1.26043 84.5862 1.22615 84.5348 1.209C84.4834 1.19186 84.3977 1.17472 84.2776 1.17472H83.8319V2.23762H84.0548V1.79189H84.0891C84.0891 1.79189 84.1748 1.79189 84.1919 1.79189C84.2091 1.79189 84.2434 1.80903 84.2605 1.84332C84.2776 1.8776 84.3119 1.91189 84.3805 1.99761L84.5348 2.23762H84.792C84.7405 2.1519 84.6891 2.06618 84.6548 2.0319C84.6034 1.92904 84.5691 1.89475 84.5348 1.86046M84.4148 1.62045C84.4148 1.62045 84.3291 1.62045 84.2262 1.62045H84.0719V1.34615H84.2434C84.2434 1.34615 84.3805 1.34615 84.3977 1.34615C84.4319 1.34615 84.4662 1.3633 84.4834 1.38044C84.5005 1.39758 84.5177 1.43187 84.5177 1.46616C84.5177 1.50045 84.5176 1.51759 84.5005 1.55188C84.5005 1.56902 84.4662 1.58616 84.4491 1.60331M83.4033 7.87787C83.4205 3.95198 80.2146 0.62612 76.2201 0.62612C72.2771 0.591833 69.0027 3.86627 69.0027 7.77501C69.0027 11.7352 72.1742 14.9582 76.083 15.0268C80.1289 15.0782 83.3862 11.7695 83.4033 7.86073M81.5004 7.86073C81.5004 10.8266 79.1174 13.1067 76.203 13.1238C73.2543 13.1238 70.9056 10.7923 70.9056 7.82644C70.9056 4.80916 73.2886 2.51192 76.2373 2.52906C79.186 2.52906 81.5175 4.86059 81.5004 7.86073ZM57.825 2.76907C58.2193 2.13476 58.6136 1.51759 59.0251 0.848987C58.9051 0.848987 58.8365 0.831844 58.7679 0.831844C58.2022 0.831844 57.6193 0.831844 57.0536 0.831844C56.865 0.831844 56.7621 0.900418 56.6593 1.05471C55.9392 2.22048 55.2192 3.3691 54.482 4.53487C54.1734 5.03203 53.8648 5.5292 53.5391 6.04351C53.4705 5.9235 53.402 5.85493 53.3677 5.76921C52.3905 4.20914 51.4133 2.63192 50.4361 1.07185C50.3333 0.900418 50.2304 0.831844 50.0247 0.848987C49.6475 0.848987 49.2704 0.848987 48.8761 0.848987H48.0532C48.1389 0.986136 48.1732 1.07185 48.2246 1.14043C49.5789 3.30053 50.9161 5.46062 52.2876 7.62072C52.3905 7.79216 52.3905 7.89502 52.2876 8.06645C51.2933 9.62652 50.3161 11.1866 49.3389 12.7638C48.9103 13.4324 48.4989 14.1182 48.0532 14.8382C48.7389 14.8382 49.3732 14.8382 50.0075 14.8382C50.2133 14.8382 50.3333 14.7868 50.4361 14.6153C50.9504 13.7753 51.4647 12.9524 51.979 12.1295C52.4934 11.3066 53.0077 10.5008 53.522 9.66081C53.5905 9.76367 53.642 9.84939 53.6934 9.93511C54.6706 11.4952 55.6478 13.0724 56.6421 14.6325C56.6935 14.7182 56.7964 14.8382 56.8821 14.8382C57.585 14.8382 58.2879 14.8382 59.0079 14.8382C58.9565 14.7353 58.9222 14.6839 58.8879 14.6153C57.5164 12.4381 56.1621 10.2437 54.7906 8.06645C54.6877 7.89502 54.6877 7.79216 54.7906 7.62072C55.8021 6.00922 56.8135 4.39772 57.8079 2.78622M33.8754 3.47196C34.4068 2.59764 34.9554 1.74046 35.504 0.848987C35.4012 0.848987 35.3154 0.831844 35.2469 0.831844C34.664 0.831844 34.0811 0.831844 33.5154 0.831844C33.3439 0.831844 33.2411 0.900418 33.1553 1.03757C32.2296 2.54621 31.2867 4.0377 30.3438 5.5292C30.2409 5.68349 30.1552 5.83778 30.0352 6.00922C29.9666 5.88921 29.8981 5.80349 29.8466 5.71778C28.8694 4.15771 27.8923 2.58049 26.8979 1.02042C26.8465 0.934705 26.7265 0.831844 26.6236 0.8147C25.9722 0.797556 25.3207 0.8147 24.6693 0.8147C24.635 0.8147 24.6178 0.831844 24.5664 0.866131C24.6178 0.968993 24.6693 1.03757 24.7207 1.12329C26.075 3.28338 27.4122 5.44348 28.7666 7.60358C28.8523 7.74072 28.8694 7.84359 28.7666 7.99788C27.9437 9.28365 27.1379 10.5866 26.3322 11.8723C25.7322 12.8324 25.1493 13.7753 24.515 14.7868C25.2178 14.7868 25.8693 14.7868 26.5208 14.7868C26.6922 14.7868 26.7951 14.7353 26.8808 14.581C27.3094 13.8781 27.738 13.1924 28.1837 12.5067C28.7837 11.5466 29.3837 10.5866 30.0009 9.59224C30.0695 9.6951 30.1209 9.76367 30.1724 9.84939C31.1495 11.4095 32.1267 12.9867 33.1039 14.5467C33.1553 14.6325 33.2582 14.7696 33.3439 14.7696C34.0468 14.7696 34.7497 14.7696 35.4697 14.7696C35.4012 14.6496 35.3497 14.5467 35.2983 14.461C33.944 12.3009 32.6068 10.1408 31.2353 7.98073C31.1324 7.82644 31.1324 7.72358 31.2353 7.58643C32.1096 6.21494 32.9668 4.82631 33.8411 3.43767M12.7716 12.7295C14.4002 10.9637 15.0174 8.8722 14.5888 6.50638C13.9202 2.68336 10.2343 0.111811 6.35986 0.711838C3.5483 1.14043 1.1482 3.3691 0.513883 6.16351C0.411021 6.5921 0.35959 7.03784 0.291016 7.48357V8.16932C0.325303 8.4779 0.35959 8.78649 0.428165 9.09507C0.805324 11.0152 1.78251 12.5581 3.37687 13.7067C4.93694 14.821 6.68559 15.2153 8.57139 14.941C10.2172 14.701 11.6401 13.9639 12.7716 12.7124M12.823 7.82644C12.8401 10.6894 10.56 13.141 7.52563 13.141C4.4912 13.141 2.33111 10.7923 2.2111 8.06645C2.0911 4.92917 4.59407 2.49478 7.54277 2.52906C10.44 2.54621 12.823 4.87774 12.823 7.82644Z" fill="#090707"/>
</g>
</g>
<defs>
<clipPath id="clip0_857_4599">
<rect width="84.9638" height="14.4178" fill="white" transform="translate(0.291016 0.625)"/>
</clipPath>
</defs>
</svg>
