<svg width="70" height="44" viewBox="0 0 70 44" fill="none" xmlns="http://www.w3.org/2000/svg">
<g clip-path="url(#clip0_857_4461)">
<mask id="mask0_857_4461" style="mask-type:luminance" maskUnits="userSpaceOnUse" x="0" y="0" width="70" height="44">
<path d="M70 0.371094H0.414062V43.2987H70V0.371094Z" fill="white"/>
</mask>
<g mask="url(#mask0_857_4461)">
<path d="M29.779 7.60787C29.4876 7.72788 29.1961 7.9336 29.1104 8.24219C29.0247 8.55077 29.179 8.8765 29.4533 9.04794C29.9333 9.37366 30.5505 9.39081 31.0991 9.23652C31.6305 9.09937 32.0248 8.68792 32.3334 8.24219C31.8534 7.95074 31.3562 7.67645 30.7905 7.5393C30.4648 7.47072 30.1048 7.45358 29.779 7.59073M36.5165 0.373262H36.8936C37.1851 0.407549 37.4594 0.578985 37.5622 0.853283C37.7337 1.35045 37.5622 1.91619 37.2194 2.29335C36.8936 2.58479 36.4822 2.80766 36.0365 2.80766C36.4136 2.68765 36.7736 2.46478 36.9794 2.08762C37.2022 1.69332 37.1851 1.12758 36.8594 0.784709C36.6879 0.596129 36.3965 0.64756 36.1908 0.767565C35.7793 1.00758 35.5221 1.43617 35.2993 1.83047C35.0593 2.24192 34.9907 2.72194 34.905 3.18482C34.665 4.3163 34.4764 5.44777 34.1335 6.54497C33.8935 7.17928 33.6363 7.83074 33.1735 8.34505C33.5678 8.51648 33.9792 8.67078 34.4078 8.75649C35.0764 8.89364 35.7964 8.82507 36.4136 8.49934C35.865 7.76216 35.3164 6.93927 35.2821 5.99637C35.2478 5.55064 35.4193 5.05347 35.8136 4.79632C36.1907 4.50488 36.7393 4.48773 37.1508 4.7106C37.7508 5.01918 38.1794 5.61921 38.4537 6.23638C38.7452 5.58492 39.208 4.95061 39.8938 4.65917C40.3052 4.48773 40.8195 4.55631 41.1624 4.84775C41.5224 5.12205 41.6596 5.60207 41.6253 6.03066C41.5738 6.85355 41.1453 7.62502 40.6138 8.24219C39.8081 9.20223 38.728 9.85369 37.7508 10.608C36.8765 11.2595 36.0365 12.0138 35.505 12.9738C35.2821 13.3681 35.1278 13.7967 34.9907 14.2253C35.1107 13.7281 35.2478 13.231 35.4364 12.751C35.7279 12.0652 36.1907 11.4823 36.7222 10.968C37.5622 10.1623 38.5223 9.52796 39.4309 8.80793C40.1338 8.27647 40.7852 7.64216 41.1967 6.85355C41.4024 6.47639 41.4538 5.97923 41.2138 5.58492C40.9224 5.12205 40.2881 4.93347 39.7909 5.13919C39.1909 5.3792 38.7966 5.9278 38.5394 6.51068C38.6423 6.93927 38.6766 7.385 38.608 7.8136C38.5909 7.95074 38.5394 8.08789 38.4366 8.17361C38.2994 8.12218 38.2651 7.95074 38.248 7.8136C38.1966 7.385 38.2137 6.93927 38.3337 6.51068C38.1451 6.08209 37.8708 5.6535 37.4765 5.3792C37.1679 5.17348 36.7908 5.03633 36.4136 5.12205C36.0707 5.20776 35.745 5.41349 35.5907 5.72207C35.4193 6.06495 35.4879 6.49354 35.6593 6.83641C35.9336 7.36786 36.345 7.8136 36.7736 8.22504C37.0136 7.98503 37.2022 7.64216 37.0651 7.29929C36.9108 7.17928 36.6708 7.12785 36.6193 6.90498C36.5336 6.66497 36.6536 6.39067 36.9108 6.33924C37.2022 6.21924 37.5108 6.49354 37.5108 6.78498C37.5108 7.35072 37.2537 7.89931 36.9451 8.34505C37.2879 8.67078 37.768 8.91079 37.9737 9.37366C38.0423 9.5451 37.8194 9.56224 37.6994 9.51081C37.2708 9.35652 36.9451 9.01365 36.6365 8.68792C36.2079 9.09937 35.6422 9.39081 35.0421 9.37366C34.2535 9.37366 33.5506 8.94507 32.8992 8.55077C32.1963 9.25366 31.1848 9.64796 30.1905 9.49367C29.7619 9.40795 29.3676 9.18509 29.0933 8.84221C28.8018 8.46505 28.8361 7.88217 29.1619 7.55644C29.539 7.14499 30.139 7.02499 30.6876 7.11071C31.3734 7.23071 31.9734 7.59073 32.5563 7.9336C33.0878 6.85355 33.4135 5.70493 33.7392 4.57345C33.9792 3.68198 34.2707 2.80766 34.6478 1.96762C35.025 1.19616 35.6936 0.493267 36.5679 0.304688" fill="#040407"/>
<path d="M46.9398 20.6048C47.5055 20.4848 48.1055 20.4676 48.6884 20.5019C49.4427 20.5534 50.1799 20.7591 50.9342 20.8962C51.2428 21.7363 51.3114 22.662 51.3457 23.5535C51.2085 23.7592 50.8657 23.7592 50.7114 23.6049C50.5056 22.9363 50.1799 22.2506 49.6142 21.8048C49.1684 21.4448 48.6027 21.2734 48.037 21.2905C47.4712 21.2905 46.8883 21.4448 46.4769 21.8391C46.0483 22.2506 45.8597 22.8506 45.8769 23.4335C45.9112 24.0164 46.2369 24.5478 46.6483 24.9421C47.1284 25.4221 47.7455 25.7136 48.3284 26.0222C49.0484 26.3993 49.7856 26.7765 50.3685 27.3422C51.02 27.9594 51.5 28.7994 51.6028 29.7081C51.74 30.7367 51.4657 31.8339 50.7799 32.6225C50.0428 33.4797 48.9113 33.8911 47.8141 33.994C46.5283 34.114 45.1568 33.9425 44.0254 33.2911C43.7511 33.1539 43.6825 32.8111 43.5796 32.5539C43.3739 31.7996 43.271 31.011 43.3053 30.2224C43.4253 30.0166 43.7339 30.0338 43.9225 30.1366C44.2311 31.0281 44.7111 31.8682 45.414 32.5025C45.9112 32.9482 46.5455 33.2396 47.2141 33.2396C47.8998 33.2396 48.6541 33.0339 49.0999 32.4682C49.5799 31.8853 49.6313 31.0453 49.4256 30.3424C49.1856 29.5366 48.5341 28.9366 47.8312 28.508C47.0255 28.028 46.1512 27.6337 45.4311 26.9994C44.7625 26.4336 44.2139 25.7136 44.0254 24.8564C43.8025 23.8449 44.0254 22.7306 44.6768 21.9248C45.2426 21.222 46.0826 20.7934 46.9569 20.6219" fill="#040407"/>
<path d="M57.0386 20.6187C57.5872 20.6016 58.1529 20.653 58.7015 20.653C59.8844 20.6873 61.0674 20.653 62.2503 20.6187C62.3874 20.773 62.3874 21.013 62.2845 21.1845C61.9588 21.2873 61.6159 21.253 61.3074 21.4073C61.1702 21.5102 61.2388 21.6988 61.2731 21.8188C61.4445 22.3502 61.7188 22.8645 61.9417 23.3789C62.576 24.7332 63.1932 26.1047 63.9132 27.4076C64.6161 26.1561 65.2675 24.8704 65.9533 23.6017C66.2276 23.0531 66.5362 22.5045 66.7419 21.9388C66.7933 21.7845 66.879 21.5445 66.6905 21.4416C66.3819 21.3216 66.039 21.3045 65.7304 21.2016C65.5761 21.0302 65.6447 20.7902 65.7476 20.6187C67.1191 20.6873 68.4905 20.7045 69.862 20.6187C69.8963 20.6873 69.9478 20.7387 69.982 20.8073V21.0302C69.982 21.0302 69.9306 21.2188 69.8106 21.2359C69.3649 21.3559 68.8677 21.3731 68.4905 21.6816C68.0619 22.0245 67.8048 22.5045 67.5305 22.9503C66.8105 24.1503 66.1076 25.3675 65.439 26.6019C65.1647 27.1333 64.8218 27.6305 64.6332 28.2134C64.4446 28.762 64.4446 29.3277 64.4446 29.8934C64.4446 30.682 64.4275 31.4535 64.4789 32.2421C64.5132 32.5336 64.5304 32.825 64.7018 33.0821C64.8389 33.2707 65.079 33.3393 65.3018 33.3736C65.679 33.425 66.0561 33.4593 66.4162 33.4936C66.4847 33.6822 66.4847 33.905 66.399 34.0936C65.9704 34.0936 65.559 34.0765 65.1304 34.0593C63.5189 34.0079 61.9245 34.0422 60.313 34.0936C60.2445 33.905 60.1587 33.665 60.313 33.5107C60.7416 33.4079 61.2216 33.4422 61.6331 33.2707C61.976 33.0993 62.0103 32.6536 62.0445 32.3278C62.1131 31.3849 62.0617 30.442 62.0788 29.4991C62.0788 28.7448 61.7702 28.0591 61.4274 27.4248C60.6902 25.9675 59.953 24.5103 59.2158 23.036C58.9758 22.6074 58.8044 22.1102 58.4444 21.7674C58.0329 21.4073 57.4672 21.4073 56.9872 21.2359C56.9015 21.0645 56.9186 20.8245 57.0386 20.6702" fill="#040407"/>
<path d="M27.5691 20.8598C28.8377 20.6884 30.1235 20.6713 31.3921 20.6713C32.5407 20.637 33.7065 20.6713 34.8208 20.9284C35.558 21.0999 36.278 21.3913 36.8438 21.9228C37.5295 22.5571 37.941 23.5 37.9238 24.4429C37.941 25.3515 37.6495 26.2772 37.0324 26.9458C36.2095 27.8373 34.9923 28.2659 33.7922 28.3688C33.5008 28.3688 33.2093 28.403 32.9179 28.3516C32.7979 28.2145 32.7979 28.0259 32.8493 27.8544C33.6036 27.7002 34.3237 27.3401 34.7694 26.7058C35.318 25.9344 35.438 24.9229 35.3351 24.0143C35.2151 23.1057 34.7008 22.2313 33.8779 21.8027C33.2951 21.477 32.6093 21.4427 31.9578 21.4942C31.8036 21.4942 31.615 21.5627 31.5635 21.7342C31.5121 21.9056 31.5121 22.0942 31.5121 22.2656V28.0259C31.5121 29.3974 31.4778 30.7517 31.5464 32.1061C31.5807 32.4832 31.5978 32.9804 31.975 33.1861C32.4207 33.3747 32.935 33.3061 33.4151 33.4261C33.5179 33.6147 33.4836 33.8376 33.3808 34.009C31.5121 33.9233 29.6435 33.9233 27.7748 34.009C27.5862 33.8719 27.6377 33.5976 27.7062 33.4261C28.0491 33.3747 28.392 33.3747 28.7177 33.2204C28.9234 33.1347 29.0263 32.9118 29.0777 32.7061C29.1634 32.3804 29.1634 32.0203 29.1806 31.6946C29.1806 29.0202 29.1806 26.3287 29.1806 23.6543C29.1806 23.1228 29.2149 22.5742 29.0949 22.0428C29.0434 21.837 28.9063 21.6313 28.6834 21.5799C28.3405 21.477 27.9634 21.477 27.6034 21.4256C27.5176 21.2542 27.4662 21.0141 27.6205 20.8598" fill="#040407"/>
<path d="M0.534068 20.7063C0.774079 20.6377 1.01409 20.7063 1.2541 20.7063C2.88274 20.7577 4.51139 20.7405 6.14003 20.6891C6.26004 20.8606 6.27718 21.0834 6.19146 21.272C5.83145 21.3406 5.47143 21.3749 5.12856 21.4949C4.90569 21.5634 4.7514 21.7863 4.69997 22.0092C4.56282 22.5578 4.59711 23.1235 4.57996 23.6893C4.57996 25.9865 4.57996 28.2837 4.57996 30.5981C4.59711 31.1296 4.57996 31.6782 4.68283 32.2096C4.7514 32.4839 4.87141 32.7754 5.11142 32.9125C5.36857 33.0668 5.6943 33.1011 5.98574 33.1354C6.70577 33.1868 7.42581 33.1868 8.16298 33.1354C8.643 33.1011 9.14017 33.0154 9.50018 32.6897C10.0145 32.2268 10.2374 31.5753 10.5459 30.9753C10.7517 30.8896 10.9917 30.9581 11.1803 31.0782C10.9574 32.0725 10.7002 33.0668 10.3231 34.0269C8.78015 33.9583 7.23723 33.9583 5.6943 33.9583C3.96279 33.9583 2.23129 33.9411 0.516924 34.0097C0.482637 33.9411 0.44835 33.8554 0.414062 33.7868V33.5297C0.414062 33.5297 0.516924 33.4268 0.602642 33.4097C0.979802 33.324 1.39125 33.324 1.76841 33.1697C2.02556 33.0497 2.12843 32.7754 2.17986 32.5011C2.24843 31.9868 2.24843 31.4725 2.26557 30.9753V23.8264C2.26557 23.2949 2.26557 22.7464 2.197 22.2149C2.16271 21.9406 2.07699 21.632 1.8027 21.4949C1.40839 21.3063 0.962659 21.3406 0.568355 21.2377C0.431206 21.1006 0.465493 20.8434 0.568355 20.6891" fill="#040407"/>
<path d="M16.5793 21.2567C16.4764 21.0853 16.4935 20.8453 16.6135 20.6738C18.4308 20.7424 20.2309 20.7595 22.0481 20.6738C22.1852 20.8453 22.2195 21.0853 22.0824 21.2567C21.7223 21.3424 21.328 21.3081 20.968 21.4796C20.7794 21.5653 20.6766 21.7539 20.6252 21.9425C20.5051 22.4053 20.5223 22.8854 20.5052 23.3654C20.5052 25.3026 20.5052 27.2398 20.5052 29.1942C20.5052 30.24 20.4709 31.2857 20.5566 32.3315C20.5909 32.6744 20.6423 33.0858 21.0023 33.2572C21.3452 33.3944 21.7395 33.3944 22.1167 33.463C22.2024 33.6516 22.2367 33.9258 22.0481 34.0459C20.248 33.9773 18.4308 33.9601 16.6307 34.0459C16.4764 33.8744 16.4935 33.6516 16.5793 33.4458C16.9564 33.3773 17.3336 33.3773 17.6936 33.2401C17.9507 33.1372 18.0536 32.8629 18.0879 32.6229C18.1908 32.0229 18.1736 31.4229 18.1736 30.8057C18.1736 28.1827 18.1736 25.5598 18.1736 22.9368C18.1393 22.4739 18.1736 21.9596 17.8822 21.5824C17.5222 21.2739 17.025 21.3596 16.5964 21.2396" fill="#040407"/>
<path d="M24.8096 39.1867C24.261 39.3239 23.9182 39.8725 23.8324 40.4039C23.7467 41.0382 23.7639 41.724 24.1239 42.2726C24.4496 42.7526 25.0839 42.8897 25.6325 42.804C26.044 42.7526 26.404 42.4783 26.5926 42.1183C26.8326 41.6211 26.8497 41.0554 26.7983 40.5239C26.7469 40.0782 26.5754 39.6153 26.1983 39.3582C25.804 39.0839 25.2725 39.0667 24.8268 39.1867M23.8496 39.1696C24.2439 38.7581 24.8439 38.621 25.3925 38.6381C25.9411 38.6381 26.524 38.8439 26.884 39.2896C27.3297 39.8039 27.4326 40.5411 27.3983 41.1925C27.364 41.7754 27.1755 42.3754 26.7469 42.7869C26.4383 43.0955 26.0097 43.2326 25.5982 43.2841H25.0668C24.6039 43.2498 24.1239 43.0612 23.8153 42.7183C23.3524 42.2383 23.2324 41.5354 23.2324 40.8839C23.2324 40.2668 23.3867 39.5982 23.8496 39.1524" fill="#040407"/>
<path d="M29.8164 38.707H30.4164C31.2393 39.9757 32.0794 41.2271 32.8851 42.5129C32.8165 41.2443 32.8508 39.9757 32.8508 38.707H33.3651C33.3651 40.2157 33.3651 41.7243 33.3651 43.2329C33.1594 43.2329 32.9537 43.2329 32.7308 43.2329C31.9079 41.9643 31.085 40.6957 30.2621 39.4442C30.365 40.7128 30.2964 41.9815 30.3136 43.2501H29.8164V38.707Z" fill="#040407"/>
<path d="M36.3147 39.1871V42.7701C36.7947 42.7701 37.2918 42.8215 37.7547 42.6501C38.149 42.5301 38.4919 42.2386 38.6462 41.8443C38.8519 41.3472 38.8519 40.7814 38.7319 40.25C38.629 39.8214 38.3033 39.4442 37.8747 39.2899C37.3776 39.1013 36.829 39.1871 36.3147 39.1699M35.7832 38.707C36.4347 38.7242 37.069 38.6727 37.7033 38.7585C38.3033 38.8442 38.8691 39.2042 39.1434 39.7528C39.4348 40.3528 39.4519 41.0557 39.3148 41.69C39.1948 42.2729 38.8005 42.7872 38.2519 43.0272C37.4804 43.3701 36.6061 43.2158 35.7832 43.2501C35.7832 41.7415 35.7832 40.2328 35.7832 38.707Z" fill="#040407"/>
<path d="M43.3735 39.2045C42.8078 39.3588 42.482 39.9245 42.4135 40.4903C42.3449 41.1074 42.362 41.7932 42.722 42.3075C43.0821 42.8218 43.8021 42.9418 44.3678 42.7875C44.7279 42.7018 45.0364 42.4446 45.1907 42.1018C45.3965 41.656 45.4307 41.1589 45.3965 40.6788C45.3622 40.216 45.2079 39.7188 44.8479 39.4273C44.4364 39.1188 43.8707 39.0845 43.3907 39.2216M42.4992 39.1016C42.8935 38.7587 43.4249 38.6387 43.9392 38.6559C44.4536 38.6559 44.985 38.8102 45.3622 39.1873C45.7736 39.5988 45.9451 40.1988 45.9793 40.7817C46.0136 41.4332 45.8936 42.1532 45.465 42.6503C45.1564 43.0447 44.6593 43.2504 44.1621 43.3018H43.6135C43.0992 43.2504 42.602 43.0275 42.2763 42.6161C41.8306 42.0503 41.762 41.296 41.8134 40.6103C41.8649 40.0445 42.0534 39.4788 42.4992 39.1016Z" fill="#040407"/>
<path d="M48.3828 38.7086C48.5885 38.7086 48.7943 38.7086 49 38.7086C49.84 39.9772 50.6458 41.2458 51.4858 42.4973C51.3829 41.2287 51.4515 39.96 51.4344 38.7086H51.9487V43.2345C51.743 43.2345 51.5372 43.2345 51.3315 43.2345C50.5086 41.9658 49.6857 40.6972 48.8628 39.4457C48.9486 40.7144 48.8971 41.9658 48.9143 43.2345C48.7428 43.2345 48.5714 43.2345 48.4 43.2345C48.4 41.7258 48.4 40.2172 48.4 38.6914" fill="#040407"/>
<path d="M18.2773 43.2505C18.2773 41.7419 18.2773 40.2332 18.2773 38.7246C18.4659 38.7246 18.6374 38.7246 18.8259 38.7246V42.7705H20.8146C20.8146 42.9248 20.8146 43.0962 20.8146 43.2505C19.9746 43.2505 19.1174 43.2505 18.2773 43.2505Z" fill="#040407"/>
</g>
</g>
<defs>
<clipPath id="clip0_857_4461">
<rect width="69.586" height="42.9276" fill="white" transform="translate(0.414062 0.371094)"/>
</clipPath>
</defs>
</svg>
