<svg width="73" height="20" viewBox="0 0 73 20" fill="none" xmlns="http://www.w3.org/2000/svg">
<g clip-path="url(#clip0_857_4281)">
<mask id="mask0_857_4281" style="mask-type:luminance" maskUnits="userSpaceOnUse" x="0" y="0" width="73" height="20">
<path d="M72.3461 0.105469H0V19.5635H72.3461V0.105469Z" fill="white"/>
</mask>
<g mask="url(#mask0_857_4281)">
<path d="M72.3461 17.6091C72.3461 17.4205 72.3118 17.2662 72.2432 17.1119C72.1747 16.9577 72.0889 16.8205 71.9689 16.7005C71.8489 16.5805 71.7118 16.4948 71.5575 16.4262C71.4032 16.3576 71.2318 16.3233 71.0603 16.3233C70.8889 16.3233 70.7175 16.3576 70.5632 16.4262C70.4089 16.4948 70.2717 16.5805 70.1517 16.7005C70.0317 16.8205 69.946 16.9405 69.8774 17.1119C69.8088 17.2662 69.7746 17.4377 69.7746 17.6091C69.7746 17.7805 69.8088 17.9691 69.8774 18.1234C69.946 18.2777 70.0317 18.4149 70.1517 18.5349C70.2717 18.6549 70.4089 18.7406 70.5632 18.8092C70.7175 18.8777 70.8889 18.912 71.0603 18.912C71.2318 18.912 71.4032 18.8777 71.5575 18.8092C71.7118 18.7406 71.8489 18.6549 71.9689 18.5349C72.0889 18.4149 72.1747 18.2777 72.2432 18.1234C72.3118 17.9691 72.3461 17.7977 72.3461 17.6091ZM72.1232 17.6091C72.1232 17.7634 72.0889 17.9177 72.0375 18.0377C71.9861 18.1749 71.9175 18.2949 71.8146 18.3806C71.7118 18.4834 71.6089 18.552 71.4718 18.6034C71.3346 18.6549 71.1975 18.6892 71.0603 18.6892C70.9232 18.6892 70.7689 18.6549 70.6489 18.6034C70.5117 18.552 70.4089 18.4663 70.306 18.3806C70.2031 18.2777 70.1346 18.1749 70.0831 18.0377C70.0317 17.9006 69.9974 17.7634 69.9974 17.6091C69.9974 17.4548 70.0146 17.3177 70.0831 17.1805C70.1346 17.0434 70.2031 16.9405 70.306 16.8376C70.4089 16.7348 70.5117 16.6662 70.6489 16.6148C70.7689 16.5633 70.9232 16.5291 71.0603 16.5291C71.1975 16.5291 71.3518 16.5462 71.4718 16.6148C71.5918 16.6662 71.7118 16.7519 71.8146 16.8376C71.9175 16.9405 71.9861 17.0434 72.0375 17.1805C72.0889 17.3177 72.1232 17.4548 72.1232 17.6091ZM71.6946 18.3634L71.2661 17.6948C71.3861 17.6948 71.4718 17.6434 71.5575 17.5748C71.6261 17.5062 71.6775 17.4205 71.6775 17.2834C71.6775 17.1462 71.6261 17.0262 71.5403 16.9577C71.4546 16.8891 71.3175 16.8548 71.146 16.8548H70.5632V18.3463H70.8032V17.6948H71.0432L71.4546 18.3463H71.7118L71.6946 18.3634ZM71.1803 17.5234C71.1803 17.5234 71.0775 17.5234 71.026 17.5234H70.786V17.0434H71.0946C71.0946 17.0434 71.1803 17.0434 71.2146 17.0434C71.2489 17.0434 71.2832 17.0434 71.3175 17.0777C71.3518 17.0777 71.3689 17.1119 71.3861 17.1462C71.4032 17.1805 71.4203 17.2148 71.4203 17.2662C71.4203 17.3177 71.4203 17.3691 71.3861 17.4034C71.3689 17.4377 71.3346 17.4548 71.3003 17.472C71.2661 17.4891 71.2146 17.5062 71.1803 17.5062M69.7574 14.5747C69.6374 12.8432 66.7916 12.6889 65.6258 12.3803C65.3344 12.3117 65.1629 12.226 65.1629 12.0717C65.1629 11.9517 65.2658 11.8489 65.4201 11.7631C65.9515 11.506 67.5802 11.1803 67.8716 11.1117C68.5574 10.9402 68.8488 10.1859 68.9688 9.56875C69.0202 9.29445 68.8831 9.07158 68.5745 9.07158C68.3173 9.07158 67.6316 9.1573 67.0316 9.32874C65.7115 9.7059 62.2999 10.6659 62.2999 12.7403C62.2999 14.8147 66.8773 14.1975 66.8773 15.2261C66.8773 15.809 66.1401 16.1519 65.4372 16.3576C64.8372 16.5462 64.1172 16.5633 63.7743 16.5976C63.2085 16.6662 62.9171 16.9234 62.7285 17.3177C62.5914 17.592 62.4542 17.9348 62.4028 18.3291C62.3514 18.7406 62.5228 18.9292 62.7971 18.9635C64.1 19.0835 65.8487 18.6377 67.3573 17.832C68.7974 17.0605 69.8774 16.0148 69.7746 14.5918M58.3569 13.2203C59.0255 12.6546 59.8655 12.1574 60.6713 11.6088C61.1513 11.3003 61.2713 10.9745 61.4599 10.4774C61.6828 9.87734 61.9228 9.02015 61.9399 8.59156C61.9399 8.28298 61.9399 8.04297 61.5285 8.06011C61.1513 8.06011 59.8312 8.93444 59.5055 9.14016C57.6883 10.3745 56.1625 11.8831 54.8253 13.6146C55.4253 11.1803 56.1111 7.58009 56.4025 5.74572C56.5054 5.16284 56.6597 4.35709 56.334 3.80849C56.0768 3.39704 55.3739 2.57415 54.8253 2.24842C54.2939 1.95698 54.0196 2.29985 53.9167 2.79702C53.5567 4.56281 53.3681 5.52285 53.0767 6.96292C52.6652 9.00301 52.2881 10.6317 51.3623 12.9289C50.848 14.2147 49.6651 16.4948 48.345 16.4948C47.0593 16.4948 47.5221 13.3746 47.5221 12.5346C47.5221 12.2432 47.4707 11.506 46.7678 11.3345C44.3848 10.8031 44.042 10.0316 43.562 10.1173C43.2705 10.1688 43.0991 10.4431 42.9791 10.8374C42.5162 12.4146 42.2419 13.8204 41.3161 15.2261C40.8875 15.8776 40.0818 16.6491 39.4818 16.6491C38.8646 16.6491 38.6589 16.1005 38.6589 15.5519C38.6589 14.0261 39.0875 12.4489 39.276 11.5746C39.4132 10.9231 39.0703 10.8031 38.7274 10.7002C38.2989 10.5802 37.7503 10.5459 37.5617 10.5631C35.7102 10.5631 34.013 11.1631 32.59 12.3289C31.99 12.826 31.5271 13.4089 31.03 14.0089C30.4814 14.6604 28.887 16.6319 27.9441 16.6319C27.2755 16.6319 27.2069 15.8947 27.2069 15.3804C27.2069 13.1003 28.3041 9.65447 29.1099 7.58009C29.6413 6.2086 30.2242 4.95711 30.3956 4.21994C30.5328 3.61991 30.3785 3.07132 30.0356 2.62558C29.5899 2.02555 29.0927 1.59696 28.647 1.39124C28.3384 1.25409 28.0298 1.33981 27.807 1.63125C27.4641 2.12842 27.0012 3.13989 26.8126 3.53419C25.3897 6.62005 24.3268 10.2031 24.3268 13.6146C24.3268 15.449 24.5325 18.792 27.0355 18.7749C28.407 18.7749 29.6242 17.9348 30.4985 16.9234C30.6699 18.1063 31.6128 18.7749 32.9158 18.7749C34.3558 18.7749 35.6587 17.952 36.5331 16.8548C36.8245 18.0548 37.7674 18.7749 39.0017 18.7749C41.9505 18.7749 43.7162 15.5176 44.5048 13.0832C44.6077 13.1346 44.762 13.1861 44.762 13.1861C44.7449 13.4604 44.7277 13.8889 44.7277 14.2318C44.7277 16.1519 45.1906 18.792 47.6764 18.7749C49.8022 18.7749 51.1737 16.8034 52.1509 15.1576H52.2023C52.0309 16.2719 51.808 17.1634 51.7223 18.2949C51.688 18.7749 52.3909 18.7406 52.6995 18.7406C54.2253 18.7406 54.1567 18.3806 54.5682 17.0777C54.8425 16.2205 55.4768 15.6033 56.1111 15.0033C56.4368 15.689 57.1397 16.8548 58.2026 17.7291C58.8541 18.2777 59.7627 18.7406 60.5513 18.7406C60.8942 18.7406 61.0656 18.6892 61.3227 18.5006C61.8713 18.072 62.2999 17.1634 62.3514 16.8376C62.4028 16.5291 62.1456 16.3233 61.8713 16.2548C59.8313 15.6719 58.7683 14.369 58.3569 13.2032M36.7388 12.6717C36.4302 13.9061 36.173 15.1061 35.0073 16.1176C34.733 16.3576 34.3387 16.5119 33.9958 16.5119C33.5501 16.5119 33.1901 16.2719 33.1729 15.6376C33.1729 14.0604 35.2987 12.6546 36.7388 12.6717ZM24.2925 18.4834C24.4125 18.2434 24.2582 17.8663 24.0696 17.5062C23.8639 17.0948 23.6068 16.6491 23.3153 16.2719C22.9553 15.7919 22.5953 15.4662 22.0467 15.329C21.3267 15.1404 20.5209 15.0547 19.6637 15.0547C16.475 15.0547 12.7034 15.8433 9.669 16.3919C7.73177 16.7348 6.20599 17.0434 4.85165 17.0434C3.92589 17.0434 3.17157 16.7176 3.15443 15.7062C3.103 14.1118 5.7774 11.0088 8.70896 8.763C13.852 4.83711 16.5779 4.5971 18.4637 4.35709C19.5609 4.21994 19.9037 3.87707 20.6752 2.53986C21.481 1.0998 21.6524 0.105469 20.5381 0.105469C19.4237 0.105469 17.5036 0.671208 15.9607 1.28838C13.6635 2.21413 10.1147 4.0485 6.87459 6.63719C3.54873 9.29445 0 13.2375 0 16.4433C0 19.1692 2.34868 19.6149 4.57735 19.5463C6.15456 19.4949 7.88607 19.272 9.92616 18.9635C12.532 18.5692 14.8292 18.2949 17.7951 18.2949C19.2351 18.2949 20.7095 18.4149 22.3039 18.6206C22.7667 18.672 23.1953 18.7406 23.6582 18.7406C24.0697 18.7406 24.2411 18.6377 24.3268 18.4834" fill="#1C1C19"/>
</g>
</g>
<defs>
<clipPath id="clip0_857_4281">
<rect width="72.3461" height="19.458" fill="white" transform="translate(0 0.105469)"/>
</clipPath>
</defs>
</svg>
