<svg width="96" height="42" viewBox="0 0 96 42" fill="none" xmlns="http://www.w3.org/2000/svg">
<g clip-path="url(#clip0_857_4506)">
<mask id="mask0_857_4506" style="mask-type:luminance" maskUnits="userSpaceOnUse" x="0" y="0" width="96" height="42">
<path d="M95.3181 0.544922H0.291016V41.1067H95.3181V0.544922Z" fill="white"/>
</mask>
<g mask="url(#mask0_857_4506)">
<path d="M36.6184 36.8208C36.6184 39.3924 40.4242 41.0382 45.1216 41.0382C47.1617 41.0382 48.7903 40.7296 50.1447 40.3181V39.6667C48.6875 40.1296 46.9903 40.4553 45.1216 40.4553C41.1271 40.4553 37.9727 39.0324 37.9727 36.8037C37.9727 34.575 41.0757 33.1178 45.0702 33.1178C46.9731 33.1178 48.7046 33.4607 50.1618 33.9407V33.2378C48.8075 32.8264 47.1617 32.5349 45.1387 32.5349C40.51 32.5349 36.6355 34.2321 36.6355 36.8208M18.6861 40.9353H19.9033L15.6346 32.6721L15.4974 32.4149L15.3088 32.6721L10.08 39.5981L4.86836 32.6549L4.69693 32.4149L4.55978 32.6549L0.291016 40.9353H1.52536L4.95408 34.2493L9.97716 40.9524L10.08 41.1067L10.1829 40.9524L15.2574 34.2664L18.6518 40.9353H18.6861ZM31.7153 37.8666H25.0293L28.3723 33.8207L31.7153 37.8666ZM35.6069 40.9353L28.4923 32.5521L28.3894 32.4321L28.2694 32.5521L21.1548 40.9353H22.4577L24.5492 38.4152H32.161L34.2697 40.9353H35.5897H35.6069ZM63.3967 10.5397L63.3281 10.7797C63.071 11.7054 62.6595 12.5969 62.1109 13.4026C61.5623 12.734 60.9452 12.1512 60.2423 11.654C61.2023 11.1054 62.2652 10.7282 63.3796 10.5568M60.688 10.6768C60.328 10.8482 59.9851 11.0197 59.6422 11.2425C58.5451 10.5739 57.3279 10.1111 56.0249 9.90534L54.9792 9.75105L55.2535 10.8311C55.5449 11.9626 56.0592 13.0255 56.7278 13.9684C56.0421 14.9284 55.5278 16.0256 55.2363 17.1914L54.9792 18.22L56.0764 18.0486C57.0536 17.8943 57.9793 17.5857 58.8536 17.14C58.4422 17.8771 57.7393 18.9743 56.7278 20.0544C55.6649 21.1687 54.4649 22.043 53.162 22.6945C51.5333 23.4831 49.7161 23.8945 47.796 23.8945C45.8759 23.8945 44.0587 23.5002 42.4129 22.6945C41.11 22.0602 39.9099 21.1687 38.847 20.0544C37.8184 18.9743 37.1327 17.8943 36.7212 17.14C37.5955 17.5857 38.5384 17.8771 39.4985 18.0486L40.5957 18.22L40.3385 17.1914C40.0471 16.0256 39.5328 14.9284 38.847 13.9684C39.5156 13.0255 40.0299 11.9454 40.3214 10.8311L40.5957 9.75105L39.5499 9.90534C38.247 10.1111 37.0298 10.5739 35.9326 11.2425C35.5897 11.0368 35.2469 10.8482 34.8869 10.6768V1.83069C36.0698 2.70502 38.9842 4.91655 40.2357 6.71663L40.39 6.95664L40.6471 6.83663C42.9444 5.73944 44.8644 5.32799 47.7617 5.32799C50.659 5.32799 52.5962 5.73944 54.8763 6.83663L55.1335 6.95664L55.3049 6.71663C56.5564 4.91655 59.4537 2.68788 60.6537 1.83069V10.6768H60.688ZM35.3497 11.6368C34.664 12.134 34.0297 12.734 33.4811 13.3855C32.9325 12.5797 32.5382 11.7054 32.2639 10.7625L32.1953 10.5225C33.3096 10.6939 34.3725 11.0711 35.3326 11.6197M33.4811 14.517C33.8068 14.9113 34.1668 15.2884 34.5611 15.6313C34.8183 15.8542 35.0754 16.077 35.3497 16.2828C34.4411 16.7971 33.4639 17.1571 32.4353 17.3457L32.1953 17.3971C32.4525 16.3513 32.8982 15.3913 33.4811 14.517ZM35.0069 15.1341C34.5954 14.7741 34.2183 14.3798 33.8925 13.9512C34.4754 13.2141 35.1783 12.5626 35.9669 12.014C36.7555 12.5455 37.4584 13.1969 38.0413 13.9512C37.7327 14.3284 37.407 14.6884 37.047 15.0313C36.7041 15.3399 36.3441 15.6313 35.984 15.8885C35.6412 15.6656 35.3326 15.4084 35.024 15.1341M38.4356 13.4026C37.887 12.734 37.2698 12.1512 36.5669 11.654C37.5098 11.1054 38.5727 10.7282 39.6699 10.5568H39.7042L39.6699 10.6425C39.4128 11.6368 38.9842 12.5626 38.4184 13.4026M38.4356 14.517C39.0185 15.3742 39.4471 16.3342 39.7042 17.3457V17.38H39.6185C38.5384 17.2085 37.5098 16.8314 36.5669 16.2828C36.8927 16.0428 37.1841 15.8027 37.4755 15.5285C37.8184 15.2027 38.1441 14.877 38.4356 14.517ZM59.0422 16.2828C58.0993 16.8314 57.0707 17.1914 55.9907 17.38H55.8878V17.3628C56.145 16.3342 56.5907 15.3913 57.1564 14.5341C57.4479 14.8941 57.7736 15.2199 58.1165 15.5456C58.4079 15.8199 58.7165 16.0599 59.0251 16.2999M57.1736 13.4026C56.6078 12.5626 56.1792 11.6368 55.9221 10.6425V10.5397C57.0364 10.7111 58.0822 11.0883 59.0251 11.6368C58.3393 12.134 57.705 12.734 57.1564 13.3855M59.6422 15.8885C59.2651 15.6313 58.9051 15.3399 58.5622 15.0313C58.2022 14.6884 57.8593 14.3284 57.5679 13.9512C58.1508 13.2141 58.8536 12.5626 59.6422 12.014C60.4309 12.5455 61.1337 13.1969 61.7166 13.9512C61.3909 14.3798 61.0137 14.7741 60.6023 15.1341C60.2937 15.4084 59.9851 15.6656 59.6422 15.8885ZM60.2594 16.2828C60.5337 16.077 60.808 15.8713 61.048 15.6313C61.4423 15.2884 61.8023 14.9113 62.1281 14.517C62.711 15.3742 63.1567 16.3513 63.4138 17.3971L63.1738 17.3457C62.1452 17.1571 61.168 16.7971 60.2594 16.2828ZM63.9624 10.9682L64.3053 9.75105L63.431 9.87105C62.711 9.97392 62.0081 10.1454 61.3566 10.4025V0.544922L60.8423 0.904938C60.6709 1.02494 56.7278 3.76792 54.9792 6.1166C52.6991 5.0537 50.7276 4.65939 47.8303 4.65939C44.933 4.65939 42.9615 5.0537 40.6643 6.1166C38.9156 3.78507 34.9726 1.02494 34.8011 0.904938L34.2525 0.544922V10.4025C33.5839 10.1454 32.8982 9.97392 32.1782 9.87105L31.3038 9.75105L31.6467 10.9682C31.9553 12.0483 32.4353 13.0598 33.0696 13.9684C32.3496 14.9799 31.8181 16.1285 31.5267 17.3628L31.321 18.2371L32.5553 18.0143C33.7039 17.8086 34.8011 17.3971 35.8126 16.7971C36.1383 17.4657 36.9269 18.9743 38.367 20.483C39.4813 21.6659 40.75 22.5916 42.1215 23.2602C43.853 24.1003 45.7559 24.5289 47.796 24.5289C49.8361 24.5289 51.7562 24.1003 53.4705 23.2602C54.842 22.5916 56.1107 21.6487 57.225 20.483C58.6651 18.9743 59.4708 17.4657 59.7794 16.7971C60.7737 17.3971 61.8881 17.8086 63.0367 18.0143L64.271 18.2371L64.0653 17.3628C63.7739 16.1285 63.2424 14.9799 62.5224 13.9684C63.1567 13.0598 63.6539 12.0483 63.9453 10.9682M64.4425 40.9353H65.6768V32.6721H64.4425V36.4437H55.1163V32.6721H53.882V40.9353H55.1163V37.0094H64.4425V40.9353ZM80.1632 40.9353L71.8485 36.6837L79.8546 32.6721H78.2602L70.6656 36.5122V32.6721H69.4313V40.9353H70.6656V36.8551L78.5345 40.9353H80.1803H80.1632ZM91.4094 37.8666H84.7234L88.0664 33.8207L91.4094 37.8666ZM95.3181 40.9353L88.2035 32.5521L88.1007 32.4321L87.9978 32.5521L80.8832 40.9353H82.1861L84.2776 38.4152H91.8894L93.9981 40.9353H95.3353H95.3181Z" fill="#1C1C19"/>
</g>
</g>
<defs>
<clipPath id="clip0_857_4506">
<rect width="95.0271" height="40.5618" fill="white" transform="translate(0.291016 0.544922)"/>
</clipPath>
</defs>
</svg>
