<svg width="102" height="17" viewBox="0 0 102 17" fill="none" xmlns="http://www.w3.org/2000/svg">
<g clip-path="url(#clip0_857_4447)">
<mask id="mask0_857_4447" style="mask-type:luminance" maskUnits="userSpaceOnUse" x="0" y="0" width="102" height="17">
<path d="M101.716 0.921875H0.345703V16.7454H101.716V0.921875Z" fill="white"/>
</mask>
<g mask="url(#mask0_857_4447)">
<path d="M101.716 9.97371C101.716 8.25935 100.242 6.61356 98.3901 6.61356H98.373C97.2586 6.61356 96.0757 7.23073 95.1499 8.20792C94.2585 9.16796 93.6756 10.5394 93.6756 12.0652C93.6756 14.5511 95.2528 16.7283 97.9786 16.7283C98.7158 16.7283 100.259 16.3169 101.613 14.5511L101.287 14.071C100.499 14.7911 99.6587 15.1511 98.7844 15.1511C97.2415 15.1511 95.6128 13.9167 95.5614 11.0538C98.0987 10.968 100.824 10.7452 101.202 10.6766C101.613 10.608 101.733 10.4194 101.733 9.95657M99.693 9.64798C99.693 9.97371 99.5559 10.0766 99.1958 10.0766C97.9958 10.128 96.83 10.1451 95.6643 10.1451C95.9728 8.3965 96.8986 7.4536 97.8586 7.4536C99.0244 7.4536 99.7273 8.49936 99.7102 9.64798M88.5325 8.7908C88.5325 7.95076 89.0983 7.35073 89.9211 7.35073C91.0012 7.35073 91.7384 8.22506 92.1841 9.54512L92.767 9.39083C92.6984 8.85937 92.4584 7.50503 92.287 7.02501C91.8241 6.83643 91.2412 6.6307 90.2983 6.6307C88.2411 6.6307 86.9039 7.95076 86.9039 9.52798C86.9039 11.2423 88.3954 11.9967 89.664 12.5967C90.8298 13.1281 91.3955 13.6424 91.3955 14.5511C91.3955 15.4597 90.6926 16.0426 89.8869 16.0426C88.5668 16.0426 87.5896 14.7225 87.1782 13.2824L86.5781 13.3681C86.5781 14.2253 86.801 15.734 86.9553 16.0426C87.3325 16.3511 88.3782 16.7626 89.4926 16.7626C91.2926 16.7626 93.1784 15.7511 93.1784 13.711C93.1784 12.151 92.0641 11.3623 90.3669 10.6595C89.3554 10.248 88.5497 9.71656 88.5497 8.7908M85.9953 11.5338C85.9953 8.84223 83.9723 6.61356 81.2293 6.61356C79.1207 6.61356 76.3262 8.27649 76.3262 11.8938C76.3262 14.3282 78.092 16.7454 81.195 16.7454C83.4237 16.7454 85.9953 15.0654 85.9953 11.5338ZM83.7666 12.0309C83.7666 15.0825 82.6865 15.9911 81.4522 15.9911C79.7035 15.9911 78.5721 13.9339 78.5721 11.1738C78.5721 8.67079 79.6864 7.36788 80.9379 7.36788C82.7722 7.36788 83.7666 9.39083 83.7666 12.0309ZM74.3376 12.7338C73.6861 11.7395 72.7775 10.2823 72.4175 9.59655C74.0119 8.89366 75.1948 7.76218 75.1948 5.8421C75.1948 4.52204 74.5947 3.54485 73.7204 2.96197C72.8804 2.41337 71.8175 2.22479 70.1545 2.22479H64.6V2.8591C66.2801 2.99625 66.4687 3.09912 66.4687 4.93348V13.6767C66.4687 15.5454 66.2801 15.6997 64.5143 15.8197V16.454H70.4117V15.8197C68.6802 15.6825 68.4745 15.5282 68.4745 13.6767V10.2309H69.1088C70.1888 10.2309 70.5317 10.488 70.926 11.1395C71.5603 12.2024 72.3146 13.5396 73.0518 14.6025C74.0119 16.0083 74.9205 16.5054 76.772 16.6254C77.012 16.6426 77.2691 16.6426 77.5092 16.6426L77.5949 16.0597C77.1149 15.9054 76.6348 15.6654 76.0519 15.0482C75.5205 14.4825 75.0919 13.9167 74.3033 12.7338M71.8003 8.92795C71.2517 9.37368 70.5317 9.54512 69.4517 9.54512H68.4916V4.12773C68.4916 3.56199 68.5602 3.32198 68.7145 3.18483C68.8859 3.04768 69.2631 2.96197 69.8802 2.96197C71.4575 2.96197 72.9661 3.83629 72.9661 6.20211C72.9661 7.38502 72.6061 8.25935 71.8003 8.92795ZM56.954 16.4883H61.5999V15.9054C60.3655 15.7511 60.2455 15.6825 60.2455 14.2253V10.008C60.2455 7.88219 59.1655 6.6307 57.4168 6.6307C56.7825 6.6307 56.2339 6.87071 55.6168 7.28216C55.0682 7.62503 54.6053 7.98505 54.1767 8.29363V6.56213C53.1481 6.99072 52.0509 7.26502 50.9537 7.4536V7.98505C52.1194 8.20792 52.2395 8.27649 52.2395 9.68227V14.191C52.2395 15.6311 52.1366 15.7511 50.6622 15.9054V16.4883H55.5139V15.9054C54.3138 15.7683 54.1767 15.6825 54.1767 14.2253V9.04795C54.811 8.49936 55.5996 8.01934 56.4396 8.01934C57.7597 8.01934 58.3254 8.92795 58.3254 10.4366V14.1053C58.3254 15.6311 58.1883 15.7854 56.9711 15.9225V16.5054L56.954 16.4883ZM50.6108 9.97371C50.6108 8.25935 49.1365 6.61356 47.2849 6.61356H47.2678C46.1535 6.61356 44.9706 7.23073 44.0448 8.20792C43.1533 9.16796 42.5704 10.5394 42.5704 12.0652C42.5704 14.5511 44.1477 16.7283 46.8735 16.7283C47.6278 16.7283 49.1536 16.3169 50.5079 14.5511L50.1822 14.071C49.3936 14.7911 48.5536 15.1511 47.6793 15.1511C46.1363 15.1511 44.5077 13.9167 44.4562 11.0538C46.9935 10.968 49.7193 10.7452 50.0965 10.6766C50.5079 10.608 50.628 10.4194 50.628 9.95657M48.605 9.64798C48.605 9.97371 48.4679 10.0766 48.1078 10.0766C46.9078 10.128 45.742 10.1451 44.5763 10.1451C44.8848 8.3965 45.8106 7.4536 46.7706 7.4536C47.9364 7.4536 48.6393 8.49936 48.605 9.64798ZM39.2617 9.97371C39.2617 8.25935 37.7874 6.61356 35.9359 6.61356H35.9187C34.8044 6.61356 33.6215 7.23073 32.6957 8.20792C31.8043 9.16796 31.2214 10.5394 31.2214 12.0652C31.2214 14.5511 32.7986 16.7283 35.5244 16.7283C36.2616 16.7283 37.8045 16.3169 39.1589 14.5511L38.8331 14.071C38.0445 14.7911 37.2045 15.1511 36.3302 15.1511C34.7872 15.1511 33.1586 13.9167 33.1072 11.0538C35.6444 10.968 38.3703 10.7452 38.7474 10.6766C39.1589 10.608 39.2789 10.4194 39.2789 9.95657M37.2388 9.64798C37.2388 9.97371 37.1016 10.0766 36.7416 10.0766C35.5416 10.128 34.3758 10.1451 33.21 10.1451C33.5186 8.3965 34.4444 7.4536 35.4044 7.4536C36.5702 7.4536 37.2731 8.49936 37.2388 9.64798ZM26.2154 16.4883H31.1871V15.9054C29.7813 15.7683 29.6442 15.6482 29.6442 14.1568V6.59642C28.6327 6.99072 27.8612 7.24787 26.7126 7.4536L26.3697 7.98505C27.6212 8.17363 27.7069 8.29363 27.7069 9.64798V14.1396C27.7069 15.6482 27.8955 15.7683 26.524 15.8883L26.1811 16.4711L26.2154 16.4883ZM28.4441 2.87625V2.24193H23.4725V2.87625C25.2554 3.09912 25.3583 3.2877 24.9125 4.60775C24.2268 6.73356 22.7181 10.6937 21.5867 13.5224H21.5352C20.1809 10.0594 18.5522 5.79066 17.9865 4.17916C17.6436 3.23626 17.6951 3.04768 19.2551 2.8591V2.22479H13.6834V2.8591C15.0035 2.99625 15.3464 3.18483 15.9807 4.83062C17.1807 7.8479 19.0323 12.6995 20.4895 16.7112H21.2609C22.9239 12.1681 25.1868 6.71642 25.804 5.22493C26.644 3.23626 26.9355 3.03054 28.427 2.8591M14.0263 15.0139C13.8034 15.1511 13.512 15.2368 13.2549 15.2368C12.8605 15.2368 12.4834 14.9282 12.4834 13.951V9.95657C12.4834 8.7908 12.2605 7.86504 11.4719 7.21359C10.9748 6.81928 10.3061 6.61356 9.60326 6.61356C8.36892 6.87071 6.91171 7.69361 6.2774 8.13934C5.81452 8.46507 5.55736 8.73937 5.55736 9.0651C5.55736 9.59655 6.15739 10.0251 6.58598 10.0251C6.946 10.0251 7.18601 9.87085 7.28887 9.47654C7.46031 8.7908 7.66603 8.31078 7.92319 8.00219C8.14605 7.74504 8.47178 7.59075 8.86608 7.59075C9.91185 7.59075 10.6147 8.46507 10.6147 10.0251V10.4366C10.1176 10.848 8.50607 11.4309 7.18601 11.8767C6.0031 12.2881 5.43736 12.9567 5.43736 14.0196C5.43736 15.374 6.53455 16.7112 8.12891 16.7112C8.74608 16.7112 9.79184 15.9225 10.649 15.3397C10.7519 15.6997 10.9062 15.9911 11.1976 16.2826C11.4376 16.5226 11.9005 16.7112 12.2777 16.7112L14.232 15.5797L14.0092 14.9796L14.0263 15.0139ZM10.6319 14.6711C10.2376 15.0482 9.55183 15.374 9.03752 15.374C8.38606 15.374 7.52888 14.8425 7.52888 13.711C7.52888 12.9053 7.99176 12.511 8.79751 12.1167C9.26039 11.8938 10.1861 11.4823 10.6319 11.2423V14.6882V14.6711ZM0.345703 16.4883H5.36879V15.9054C3.98015 15.7683 3.80872 15.6482 3.80872 14.191V0.921875C2.96868 1.21332 1.58004 1.53905 0.397134 1.65905V2.20765C1.75148 2.3448 1.88863 2.37908 1.88863 3.85344V14.1739C1.88863 15.614 1.71719 15.734 0.362847 15.8883V16.4711L0.345703 16.4883Z" fill="#1B1C1C"/>
</g>
</g>
<defs>
<clipPath id="clip0_857_4447">
<rect width="101.37" height="15.8236" fill="white" transform="translate(0.345703 0.921875)"/>
</clipPath>
</defs>
</svg>
