<svg width="79" height="18" viewBox="0 0 79 18" fill="none" xmlns="http://www.w3.org/2000/svg">
<g clip-path="url(#clip0_857_4344)">
<mask id="mask0_857_4344" style="mask-type:luminance" maskUnits="userSpaceOnUse" x="0" y="0" width="79" height="18">
<path d="M78.5298 0.0234375H0.714844V17.6471H78.5298V0.0234375Z" fill="white"/>
</mask>
<g mask="url(#mask0_857_4344)">
<path d="M5.60078 3.64074C6.33795 2.90357 7.22942 2.52641 8.27518 2.52641V0.0234375C6.52653 0.0234375 5.05218 0.640608 3.81784 1.85781C2.5835 3.09215 1.96633 4.5665 1.96633 6.31515H0.714844V8.83526H1.96633V17.6471H4.48644V6.31515C4.48644 5.26939 4.84646 4.37792 5.58363 3.64074M9.14951 7.77236C9.14951 6.81231 8.37804 6.04085 7.418 6.04085C6.45796 6.04085 5.6865 6.81231 5.6865 7.77236C5.6865 8.7324 6.45796 9.50386 7.418 9.50386C8.37804 9.50386 9.14951 8.7324 9.14951 7.77236ZM10.7439 17.6471H13.264V0.0234375H10.7439V17.6471ZM25.0931 11.3554C25.0931 12.4011 24.7159 13.2755 23.9787 14.0298C23.2416 14.767 22.3501 15.1441 21.3043 15.1441C20.2586 15.1441 19.3843 14.767 18.6299 14.0298C17.8928 13.2926 17.5156 12.4011 17.5156 11.3554C17.5156 10.3096 17.8928 9.43529 18.6299 8.68097C19.3671 7.94379 20.2586 7.56663 21.3043 7.56663C22.3501 7.56663 23.2244 7.94379 23.9787 8.68097C24.7159 9.41815 25.0931 10.3096 25.0931 11.3554ZM25.7617 15.7956C26.996 14.5612 27.6132 13.0869 27.6132 11.3382C27.6132 9.58958 26.996 8.11523 25.7617 6.89803C24.5273 5.66369 23.053 5.04652 21.3215 5.04652C19.59 5.04652 18.0985 5.66369 16.8813 6.89803C15.6469 8.13237 15.0298 9.60672 15.0298 11.3382C15.0298 13.0697 15.6469 14.5612 16.8813 15.7956C18.1156 17.0299 19.59 17.6471 21.3215 17.6471C23.053 17.6471 24.5445 17.0299 25.7617 15.7956ZM32.8763 8.54382C33.6135 7.80664 34.6249 7.56663 35.6707 7.56663V5.04652C35.6707 5.04652 35.5507 5.04652 35.3621 5.04652C34.9164 5.06366 34.4878 5.13224 34.0763 5.21796C32.5334 5.54368 30.339 6.4523 29.5676 8.93812C29.4818 9.14385 29.4133 9.38386 29.379 9.62387V17.6128H31.8991V11.3211C31.8991 10.2753 32.1563 9.24671 32.8934 8.50953M53.0715 17.6471H55.5916V10.1039C55.5916 8.71526 55.0944 7.53235 54.1172 6.53802C53.1401 5.56083 51.9571 5.06366 50.5514 5.06366C49.1456 5.06366 47.9798 5.56083 46.9855 6.53802C46.9169 6.62373 46.8312 6.69231 46.7798 6.76088C46.7112 6.69231 46.6426 6.60659 46.5569 6.53802C45.5797 5.56083 44.3797 5.06366 42.991 5.06366C42.0653 5.06366 41.2252 5.28653 40.4709 5.71512V5.06366H37.9508V17.6471H40.4709V10.1039C40.4709 9.401 40.7109 8.81812 41.2081 8.32095C41.6881 7.82379 42.2881 7.58378 42.991 7.58378C43.6939 7.58378 44.2768 7.82379 44.774 8.32095C45.2711 8.81812 45.5111 9.401 45.5111 10.1039V17.6471H48.0313V10.1039C48.0313 9.401 48.2713 8.81812 48.7684 8.32095C49.2656 7.82379 49.8485 7.58378 50.5514 7.58378C51.2543 7.58378 51.8371 7.82379 52.3343 8.32095C52.8315 8.81812 53.0715 9.401 53.0715 10.1039V17.6471ZM67.4207 11.3554C67.4207 12.4011 67.0435 13.2755 66.3064 14.0298C65.5692 14.767 64.6777 15.1441 63.632 15.1441C62.5862 15.1441 61.7119 14.767 60.9575 14.0298C60.2204 13.2926 59.8432 12.4011 59.8432 11.3554C59.8432 10.3096 60.2204 9.43529 60.9575 8.68097C61.6947 7.94379 62.5862 7.56663 63.632 7.56663C64.6777 7.56663 65.5692 7.94379 66.3064 8.68097C67.0435 9.41815 67.4207 10.3096 67.4207 11.3554ZM67.4207 17.6471H69.9408V5.06366H67.4207V6.31515C66.3406 5.49225 65.072 5.06366 63.6491 5.06366C61.9176 5.06366 60.4261 5.68083 59.2089 6.91518C57.9746 8.14952 57.3574 9.62387 57.3574 11.3554C57.3574 13.0869 57.9746 14.5784 59.2089 15.8127C60.4432 17.0471 61.9176 17.6642 63.6491 17.6642C65.0892 17.6642 66.3406 17.2528 67.4207 16.4127V17.6642V17.6471ZM78.5298 7.56663V5.04652C78.5298 5.04652 78.4098 5.04652 78.2212 5.04652C77.7754 5.06366 77.3468 5.13224 76.9354 5.21796C75.3925 5.54368 73.1981 6.4523 72.4266 8.93812C72.3409 9.14385 72.2895 9.38386 72.2381 9.62387V17.6128H74.7582V11.3211C74.7582 10.2753 74.9982 9.24671 75.7354 8.50953C76.4725 7.77236 77.484 7.53235 78.5298 7.53235" fill="#E03488"/>
</g>
</g>
<defs>
<clipPath id="clip0_857_4344">
<rect width="77.8149" height="17.6236" fill="white" transform="translate(0.714844 0.0234375)"/>
</clipPath>
</defs>
</svg>
