<svg width="85" height="24" viewBox="0 0 85 24" fill="none" xmlns="http://www.w3.org/2000/svg">
<g clip-path="url(#clip0_857_4440)">
<mask id="mask0_857_4440" style="mask-type:luminance" maskUnits="userSpaceOnUse" x="0" y="0" width="85" height="24">
<path d="M84.0938 0.302734H0.484375V23.9095H84.0938V0.302734Z" fill="white"/>
</mask>
<g mask="url(#mask0_857_4440)">
<path d="M19.0868 21.4587C18.1781 21.2873 17.4238 20.6358 17.0638 19.11C16.6867 17.6014 16.8924 15.8699 17.1324 14.4298C17.1324 14.4298 17.3553 13.1784 17.8867 11.7726C18.1096 11.1897 18.4696 10.4525 18.3839 10.0754C18.2296 9.30389 16.8924 9.13246 16.2923 9.25246C15.8295 9.35532 15.0923 10.0754 14.7323 10.5725C14.2523 11.2411 13.858 11.8926 13.5322 12.5783L13.2065 13.2469C13.2065 13.2469 12.2979 15.047 12.1093 16.8299C12.0922 17.0357 12.075 17.2071 12.1093 17.3785C7.65196 21.9559 3.58892 23.996 2.26886 22.4873C0.69165 20.7044 4.25752 13.2984 4.25752 13.2984C7.10337 7.21237 10.8235 4.36653 10.8235 4.36653C11.2864 4.00651 11.4407 3.61221 11.4407 3.0979C11.4407 2.20643 10.7207 1.4864 9.8292 1.4864C9.40061 1.4864 9.02345 1.64069 8.73201 1.91499C8.73201 1.91499 8.492 2.06928 8.14913 2.5493C8.14913 2.5493 4.84041 7.05808 2.52602 12.9212C2.52602 12.9212 -0.799845 20.4473 1.13738 22.9331C3.67464 26.1904 9.94921 20.4473 12.2979 18.0986C12.6065 18.75 13.2579 18.7672 13.2579 18.7672C13.2579 18.7672 14.1151 18.9386 14.8866 18.3557C14.8866 18.3557 14.9037 19.5558 15.6752 20.9273C16.5666 22.5045 19.2925 22.5731 19.5839 21.9559C19.5839 21.9559 19.7554 21.5787 19.121 21.4416M15.0237 13.8812C14.9551 14.2413 14.8351 14.6698 14.698 15.1842C14.4408 16.1271 13.7037 17.6014 13.4637 17.5671C13.2579 17.5328 13.7379 15.7156 13.7379 15.7156C13.7379 15.7156 13.9094 15.0127 14.1665 14.4127C14.698 13.1441 14.9894 12.9212 15.0752 12.9555C15.1609 12.9726 15.1094 13.4184 15.0237 13.8984M54.0255 11.7726C54.5226 10.1954 55.6713 8.51529 55.6713 8.51529C55.6713 8.51529 56.2884 7.43524 55.517 6.95522C54.3512 6.23518 52.4483 8.92673 52.4483 8.92673C52.4483 8.92673 51.4196 10.3497 48.7281 13.6755C46.0365 17.0014 46.8251 14.4641 47.1509 13.6412C47.4937 12.8012 48.1109 11.4126 48.1109 11.4126C48.4881 10.5039 47.8366 10.1782 47.8366 10.1782C46.7051 9.47533 45.5394 11.5497 45.0079 12.2869C44.4765 13.0241 43.5679 14.3098 43.5679 14.3098C42.2649 16.0928 40.6706 18.0814 39.8134 17.6357C39.1105 17.2757 39.5905 15.4413 39.5905 15.4413C39.6763 15.047 39.762 14.6698 39.8648 14.327C40.1048 14.2413 40.362 14.1555 40.6363 14.0698C43.6364 13.0241 44.665 11.1211 45.0079 9.97249C45.3508 8.82387 45.4537 7.77811 44.5622 7.17808C43.3793 6.40662 41.5106 7.55524 40.0363 9.56105C40.0363 9.56105 38.7334 11.2754 37.979 13.8127C36.4704 14.207 36.299 14.2241 35.5961 14.3784C35.1503 14.4813 33.916 14.7556 33.0588 14.9441C32.7331 14.1555 32.2531 13.3498 31.6873 12.5269C31.6873 12.5269 30.8644 11.3783 29.6815 9.71534C28.4815 8.05241 28.31 6.21804 29.8015 4.72654C30.3158 4.22938 31.0359 3.68078 31.9102 3.23505C32.5959 2.89218 32.7159 2.80646 33.4874 2.58359C34.2417 2.36072 35.0475 2.53216 35.0475 2.53216C35.4075 2.60073 35.4246 2.68645 35.6818 2.7036C36.2304 2.75503 36.6761 2.25786 36.6761 1.70927C36.6761 1.41782 36.5561 1.14353 36.3504 0.97209C36.3504 0.97209 35.4761 -0.0736711 33.0074 0.492069C32.2359 0.663505 28.1386 2.06928 26.6814 5.44658C25.5328 8.12098 26.87 9.40675 28.6358 11.8926C29.5101 13.1269 30.573 14.5498 30.573 14.5498C30.7787 14.8413 30.9501 15.1156 31.0873 15.3899C27.1957 16.2985 24.487 17.5157 23.9898 18.8872C23.2869 20.8416 25.3785 21.9387 25.3785 21.9387C25.3785 21.9387 27.5214 23.1388 30.1787 22.1273C30.1787 22.1273 32.8702 21.253 33.4017 19.4358C33.7446 18.27 33.7446 17.19 33.4874 16.1099C34.1389 15.9385 35.0303 15.7156 35.7332 15.5442C36.4361 15.3727 37.1904 15.167 37.7047 15.0299C37.6533 15.2699 37.619 15.527 37.5847 15.7842C37.2076 18.6472 38.9905 19.0758 38.9905 19.0758C38.9905 19.0758 40.9277 19.7272 42.4364 18.0471C43.8422 16.5042 45.2136 14.687 45.2136 14.687C45.2136 14.687 44.1165 17.8414 45.5222 17.79C47.2709 17.7386 49.4481 15.167 49.4481 15.167L51.6596 12.4755C51.6596 12.4755 51.5054 13.3155 51.5911 14.4813C51.5911 14.4813 51.7111 16.8985 52.3454 17.8586C52.9968 18.8186 53.9912 18.4929 53.9912 18.4929C53.9912 18.4929 54.8998 18.0814 54.3341 17.1214C53.494 15.7499 53.5626 13.3669 54.0598 11.7726M42.9678 9.28675C42.9678 9.28675 43.2936 9.16674 43.3107 9.59533C43.3107 10.6068 42.2135 11.8069 42.2135 11.8069C41.7163 12.2869 41.0306 12.6983 40.2763 13.0412C41.4763 9.66391 42.985 9.28675 42.985 9.28675M25.8413 20.893C25.2756 20.533 24.607 18.99 27.2128 17.8929C28.3957 17.3957 30.0072 16.9328 31.5502 16.5556C32.7159 20.6187 27.3328 21.853 25.8585 20.893M65.906 13.2126C65.9231 13.5212 65.7689 13.9155 65.4774 14.0527C65.3574 14.1041 65.2374 14.1555 65.1003 14.1727C63.283 14.3613 62.1858 14.6527 62.1858 14.6527C60.6772 15.0127 59.6143 15.3556 58.5171 15.7156C54.7969 16.9157 54.5912 15.6127 54.5912 15.6127C54.4541 15.0642 54.6084 14.6527 55.4655 14.0184C55.4655 14.0184 57.4713 12.5098 59.7857 10.8811C61.5344 9.64676 62.083 9.28675 62.7001 8.80673C64.0202 7.76097 64.2088 7.22951 64.2088 7.22951C62.3916 7.41809 59.1514 8.41242 59.1514 8.41242C58.4142 8.65243 58.0028 8.46385 57.7799 8.17241C57.4885 7.77811 57.6256 7.24666 58.1742 7.04093C61.5515 5.77231 64.6202 5.34372 64.6202 5.34372C65.4603 5.24085 66.3003 5.46372 66.5575 6.09803C66.8318 6.76664 66.4203 7.52096 65.7689 8.24099C65.1174 8.96102 63.5059 10.0411 61.3629 11.4983C61.3629 11.4983 59.7686 12.6298 58.0885 13.967C58.0885 13.967 59.5629 13.6069 61.723 13.1955C63.5916 12.8355 65.1345 12.7498 65.1345 12.7498C65.5288 12.7498 65.8546 12.7669 65.8889 13.2469M83.1182 17.0014C83.1182 17.0014 80.2552 16.2985 78.198 14.7213C76.295 13.2641 76.295 11.6354 76.295 11.3954C76.295 11.3954 76.295 9.8182 79.3123 6.9895C79.3123 6.9895 79.6038 6.74949 79.9809 6.35519C80.2552 6.06375 80.0495 5.68659 80.0495 5.68659C79.2266 4.19509 77.1522 4.60654 77.1522 4.60654C76.8093 4.65797 74.1692 5.17228 71.2034 7.48667C71.2034 7.48667 68.8547 9.28675 67.5518 10.8982C67.5518 10.8982 66.1289 12.4412 66.8318 13.1269C67.6032 13.8812 69.7805 12.9212 71.1862 12.1669C72.592 11.4297 74.2378 10.3839 74.2378 10.3839C74.2378 10.3839 73.1578 13.3841 77.1351 16.3328C78.6437 17.4643 81.3353 18.1671 81.3353 18.1671C81.3353 18.1671 83.7525 18.8529 84.0611 17.9957C84.3011 17.31 83.1011 16.9842 83.1011 16.9842M73.4149 9.01245C71.2548 10.6411 69.7633 11.1554 69.6605 11.0183C69.5405 10.8468 70.8948 9.49247 72.7977 8.13813C75.3179 6.35519 76.4322 5.97803 76.535 6.09803C76.6208 6.21804 75.2836 7.58953 73.4149 8.99531" fill="#E20A7D"/>
</g>
</g>
<defs>
<clipPath id="clip0_857_4440">
<rect width="83.6095" height="23.6068" fill="white" transform="translate(0.484375 0.302734)"/>
</clipPath>
</defs>
</svg>
