<svg width="58" height="18" viewBox="0 0 58 18" fill="none" xmlns="http://www.w3.org/2000/svg">
<g clip-path="url(#clip0_857_4656)">
<mask id="mask0_857_4656" style="mask-type:luminance" maskUnits="userSpaceOnUse" x="0" y="0" width="58" height="18">
<path d="M57.9192 0.292969H0.09375V17.9166H57.9192V0.292969Z" fill="white"/>
</mask>
<g mask="url(#mask0_857_4656)">
<path d="M6.42066 2.35083C4.94631 2.86514 3.66054 3.9109 2.85479 5.2481C2.23762 6.29387 1.91189 7.49392 1.91189 8.71112C1.91189 10.2026 2.4262 11.677 3.35195 12.8427C4.36343 14.1285 5.87207 15.02 7.48357 15.2943C7.48357 14.2657 7.48357 13.237 7.48357 12.2084C8.15217 12.2084 8.83791 12.2084 9.52366 12.2084C9.52366 13.237 9.52366 14.2657 9.52366 15.2943C11.0666 15.0371 12.5238 14.2314 13.5181 13.0142C14.3239 12.0713 14.8553 10.9055 15.0268 9.67116C15.2668 8.09395 14.9239 6.44816 14.0667 5.09381C13.2781 3.82518 12.0438 2.848 10.638 2.35083C9.28365 1.87081 7.75786 1.87081 6.40352 2.35083M2.22047 3.10515C3.62625 1.49365 5.68349 0.465033 7.82644 0.293596C8.52933 0.293596 9.23222 0.259309 9.9351 0.379314C11.9752 0.705043 13.8781 1.83652 15.1639 3.48231C16.3125 4.93952 16.964 6.79103 16.964 8.64254C16.9811 10.5283 16.3297 12.397 15.1639 13.8713C13.8096 15.62 11.7352 16.7686 9.5408 17.0258C9.5408 17.3172 9.5408 17.6087 9.5408 17.9001C8.8722 17.9001 8.18646 17.9001 7.50071 17.9001C7.50071 17.6087 7.50071 17.3172 7.50071 17.0258C5.51205 16.7858 3.60911 15.8257 2.2719 14.3342C0.986132 12.9456 0.197525 11.0941 0.0946634 9.19114C0.0946634 8.64254 0.0603762 8.09395 0.146094 7.54535C0.368961 5.89956 1.08899 4.32235 2.20333 3.08801" fill="#211E21"/>
<path d="M21.0621 0.720703H23.1022V11.2983C23.1364 11.8983 23.1022 12.4984 23.2222 13.0813C23.3422 13.647 23.5993 14.1784 23.9936 14.5899C24.4222 15.0528 25.0051 15.3442 25.588 15.5671C26.7709 16.03 28.1252 16.15 29.3424 15.7899C30.2339 15.5328 31.0739 15.0356 31.6225 14.2813C31.9654 13.8013 32.2226 13.2527 32.274 12.6698C32.394 11.7269 32.3597 10.7669 32.3597 9.82397V0.720703H34.3998V9.66967C34.3998 11.1612 34.4169 12.7041 33.9026 14.127C33.4912 15.2585 32.5654 16.1157 31.5368 16.7157C30.2168 17.4872 28.6395 17.6757 27.1481 17.5729C25.6051 17.47 24.0451 17.0071 22.8279 16.03C22.1764 15.5157 21.6621 14.8128 21.3878 14.0242C21.0621 12.9784 21.0792 11.8469 21.0449 10.7669V0.720703" fill="#211E21"/>
<path d="M39.3535 0.720703H41.3936V17.1786H39.3535V0.720703Z" fill="#211E21"/>
<path d="M46.0562 0.720703C49.965 0.720703 53.8737 0.720703 57.7824 0.720703C54.9709 5.65807 52.1765 10.6126 49.3649 15.5499C52.2108 15.5499 55.0566 15.5499 57.9025 15.5499V17.1786C54.0109 17.1786 50.1021 17.1786 46.2105 17.1786C49.0392 12.2241 51.8679 7.26957 54.6966 2.31506C51.8165 2.31506 48.9363 2.31506 46.0391 2.31506V0.720703" fill="#211E21"/>
</g>
</g>
<defs>
<clipPath id="clip0_857_4656">
<rect width="57.8254" height="17.6236" fill="white" transform="translate(0.09375 0.292969)"/>
</clipPath>
</defs>
</svg>
