<svg width="82" height="16" viewBox="0 0 82 16" fill="none" xmlns="http://www.w3.org/2000/svg">
<g clip-path="url(#clip0_857_4172)">
<mask id="mask0_857_4172" style="mask-type:luminance" maskUnits="userSpaceOnUse" x="0" y="0" width="82" height="16">
<path d="M81.4759 0.828125H0.917969V15.3831H81.4759V0.828125Z" fill="white"/>
</mask>
<g mask="url(#mask0_857_4172)">
<path d="M81.4759 8.11417C81.4759 6.07407 80.3615 4.20542 78.51 2.81679C76.7956 1.53101 74.3955 0.828125 72.0126 0.828125H71.3611C68.9782 0.828125 66.5952 1.53101 64.8808 2.81679C63.0293 4.20542 61.915 6.07407 61.915 8.11417C61.915 10.1371 63.0465 12.0229 64.898 13.4115C66.6123 14.6973 69.0125 15.4002 71.3954 15.4002H72.0297C74.4127 15.4002 76.7957 14.6973 78.5272 13.4115C80.3787 12.0229 81.5101 10.1543 81.5101 8.11417M77.9271 8.11417C77.9271 10.3771 75.3384 12.3829 72.0126 12.3829H71.3783C68.0524 12.3829 65.4637 10.3771 65.4637 8.11417C65.4637 5.85121 68.0524 3.8454 71.3611 3.8454H72.0126C75.3384 3.8454 77.9271 5.85121 77.9271 8.11417ZM60.012 8.13131C60.012 6.12551 58.9834 4.25685 57.1491 2.88536C55.4518 1.61673 53.1032 1.11957 50.7545 1.11957H42.097V15.1431H50.7202C53.086 15.1431 55.4518 14.6459 57.1491 13.3773C58.9834 12.0058 60.012 10.1371 60.012 8.13131ZM56.5147 8.13131C56.5147 10.3771 54.2004 12.0915 50.9088 12.0915H45.6114V4.17113H50.9088C54.2004 4.17113 56.5147 5.88549 56.5147 8.13131ZM39.6626 12.0572H27.8849V1.13671H24.4562V15.1431H39.6797V12.0572H39.6626ZM18.5073 15.1431H22.6561L11.7699 0.828125L0.917969 15.1431H4.87815L6.48965 13.0172H16.913L18.5073 15.1431ZM14.8729 10.1543H8.51259L11.6842 5.86835L14.8557 10.1543H14.8729Z" fill="#231E21"/>
</g>
</g>
<defs>
<clipPath id="clip0_857_4172">
<rect width="80.5579" height="14.5549" fill="white" transform="translate(0.917969 0.828125)"/>
</clipPath>
</defs>
</svg>
