<svg width="86" height="31" viewBox="0 0 86 31" fill="none" xmlns="http://www.w3.org/2000/svg">
<g clip-path="url(#clip0_857_4165)">
<mask id="mask0_857_4165" style="mask-type:luminance" maskUnits="userSpaceOnUse" x="0" y="0" width="86" height="31">
<path d="M85.7318 0.105469H0.476562V30.1068H85.7318V0.105469Z" fill="white"/>
</mask>
<g mask="url(#mask0_857_4165)">
<path d="M85.7318 7.80296C85.7318 5.66 84.5489 3.67134 82.5945 2.19699C80.7773 0.842645 78.24 0.105469 75.7199 0.105469H75.0342C72.5141 0.105469 69.9768 0.842645 68.1596 2.21413C66.2052 3.67134 65.0052 5.66 65.0223 7.8201C65.0223 9.96305 66.2052 11.9517 68.1767 13.4261C69.994 14.7804 72.5312 15.5347 75.0513 15.5347H75.7199C78.24 15.5347 80.7773 14.7804 82.5945 13.4261C84.5489 11.9689 85.749 9.9802 85.749 7.8201M81.9774 7.80296C81.9774 10.2031 79.2344 12.3289 75.7199 12.3289H75.0342C71.5197 12.3289 68.7768 10.2031 68.7768 7.80296C68.7768 5.40285 71.5197 3.27704 75.0342 3.27704H75.7199C79.2344 3.27704 81.9774 5.40285 81.9774 7.80296ZM64.3194 21.6036L64.4737 20.8664L64.3709 20.0264L63.9594 19.9406L62.8279 20.0264L62.6736 20.7292L62.7765 21.6036L63.1879 21.6893L64.3194 21.6036ZM63.0337 7.83724C63.0337 5.71143 61.9365 3.72277 59.9992 2.28271C58.2163 0.945506 55.7133 0.414054 53.2275 0.414054H44.0728V15.2604H53.2104C55.7133 15.2604 58.2163 14.729 60.0164 13.3918C61.9536 11.9346 63.0508 9.96305 63.0337 7.83724ZM59.3306 7.83724C59.3306 10.2202 56.8791 12.0374 53.3989 12.0374H47.793V3.63706H53.3989C56.8791 3.63706 59.3306 5.45428 59.3306 7.83724ZM45.9586 22.9579C44.2442 23.3865 43.4385 24.0037 43.4385 24.998C43.4385 25.8552 44.0042 26.3181 44.6385 26.6952L45.8215 27.381C46.5586 27.8267 46.8672 28.0496 46.8672 28.6325C46.8672 29.1468 46.4901 29.5754 45.77 29.5754C45.2557 29.5754 44.8443 29.3354 44.4842 29.0096L43.8499 27.6381H43.3185L43.4556 29.5239C43.9699 29.7982 44.8957 30.1068 45.7014 30.1068C47.4158 29.7297 48.3244 29.0782 48.3244 27.9296C48.3244 27.141 47.9644 26.6438 47.1072 26.1638L45.9243 25.478C45.2386 25.0837 44.8957 24.8094 44.8957 24.3294C44.8957 23.8151 45.3071 23.4894 45.89 23.4894C46.3872 23.4894 46.7472 23.6608 47.0215 23.9351L47.6215 25.2552H48.1016V23.5065C47.6215 23.2322 46.9529 22.9751 45.9757 22.9751M39.2726 24.3294C39.2726 23.8151 39.684 23.4894 40.2669 23.4894C40.7641 23.4894 41.1241 23.6608 41.3984 23.9351L41.9984 25.2552H42.4784V23.5065C41.9984 23.2322 41.3298 22.9751 40.3526 22.9751C38.6383 23.4037 37.8325 24.0208 37.8325 25.0152C37.8325 25.8723 38.3983 26.3352 39.0326 26.7124L40.2155 27.3981C40.9527 27.8439 41.2441 28.0667 41.2441 28.6496C41.2441 29.1639 40.8669 29.5925 40.1469 29.5925C39.6326 29.5925 39.2212 29.3525 38.8611 29.0268L38.244 27.6553H37.7125L37.8497 29.5411C38.364 29.8154 39.2897 30.124 40.0955 30.124C41.8098 29.7468 42.7185 29.0953 42.7185 27.9467C42.7185 27.1581 42.3584 26.6609 41.5013 26.1809L40.3183 25.4952C39.6155 25.1009 39.2897 24.8266 39.2897 24.3466M41.4841 11.986H29.0207V0.431198H25.3862V15.2604H41.5013V11.986H41.4841ZM24.8034 26.7638C24.8034 28.8553 26.1749 30.1068 28.0607 30.1068C29.0207 29.7297 29.7407 29.2839 30.4608 28.6496L30.2893 28.2896C29.7922 28.6325 29.2779 28.8553 28.6778 28.8553C27.3063 28.8553 26.3977 27.6381 26.3977 26.0095C26.3977 24.3808 27.1692 23.5237 28.0092 23.5237C28.2321 23.5237 28.3864 23.5751 28.5578 23.6608L29.0036 25.1866H30.3065V23.678C29.8264 23.2836 28.9693 22.9408 28.2835 22.9408C26.4492 23.3522 24.8034 24.5008 24.8034 26.7467M20.106 26.0266C20.106 24.3637 20.8775 23.5408 21.7175 23.5408C21.9404 23.5408 22.0947 23.5922 22.2661 23.678L22.7118 25.2037H24.0148V23.6951C23.5347 23.3008 22.6776 22.9579 21.9747 22.9579C20.1403 23.3694 18.4945 24.518 18.4945 26.7638C18.4945 28.8553 19.866 30.1068 21.7518 30.1068C22.7118 29.7297 23.4319 29.2839 24.1519 28.6496L23.9805 28.2896C23.4833 28.6325 22.969 28.8553 22.369 28.8553C20.9975 28.8553 20.0889 27.6381 20.0889 26.0095M19.0945 15.2604H23.4833L11.9628 0.105469L0.476562 15.2604H4.65961L6.35683 12.9975H17.3973L19.0774 15.2604H19.0945ZM15.2544 9.9802H8.53407L11.8942 5.43714L15.2544 9.9802ZM9.59697 29.3868L8.61978 29.5239L8.67122 29.9011L9.99127 29.8668L11.4485 29.9011L11.4828 29.5239L10.2999 29.3696L11.3113 26.4895H14.7401L15.7172 29.3696L14.5858 29.5239L14.6201 29.9011L16.5744 29.8668L18.7002 29.9011L18.7345 29.5239L17.7402 29.3868L14.2943 19.7692L12.9914 20.2149L9.63126 29.3868H9.59697ZM11.4485 25.9923L13.06 21.295L13.3514 22.4779L14.5343 26.0095H11.4313L11.4485 25.9923ZM31.0436 26.7638C31.0436 28.8725 32.5866 30.1068 34.3695 30.1068C35.381 29.7297 36.1353 29.3011 36.9239 28.6325L36.7353 28.2724C36.221 28.581 35.6038 28.8382 34.9867 28.8382C33.6152 28.8382 32.6894 27.8439 32.6209 26.1638H36.8896V25.598C36.8896 24.038 36.0496 22.9579 34.3352 22.9579C32.3123 23.4208 31.0436 24.6894 31.0436 26.7638ZM32.6209 25.6666C32.6723 24.3637 33.1523 23.5408 33.9923 23.5408C34.9524 23.5408 35.1924 24.3294 35.1924 25.5295V25.6838L32.638 25.7523V25.6495L32.6209 25.6666ZM49.0102 26.7124C49.0102 28.6839 50.3302 30.1068 52.1474 30.1068C54.2733 29.6782 55.7648 28.6153 55.7648 26.3695C55.7648 24.3808 54.4447 22.9579 52.5932 22.9579C50.5017 23.4208 49.0102 24.4494 49.0102 26.7124ZM50.7417 26.2152C50.7417 24.5008 51.256 23.5065 52.1989 23.5065C53.2104 23.5065 53.999 24.6894 53.999 26.8324C53.999 28.5296 53.4847 29.5239 52.5418 29.5239C51.496 29.5239 50.7417 28.221 50.7417 26.1981M58.2334 23.1122L56.2105 23.5922L56.2619 23.9694L57.1534 23.8494V29.3696L56.2791 29.5068L56.3133 29.8839L57.9763 29.8497L60.1021 29.8839L60.1364 29.4725L58.7649 29.3525V25.7523L58.9706 25.4609C59.1592 25.2552 59.6049 24.758 59.7935 24.6894H61.2679V22.9922H60.1535L58.6963 25.2037L58.6277 23.0436L58.2163 23.0779L58.2334 23.1122ZM63.8737 23.1122L61.7993 23.5922L61.8507 23.9694L62.7251 23.8322V29.3696L61.8679 29.5068L61.9022 29.8839L63.5651 29.8497L65.2452 29.8839L65.2795 29.5068L64.3709 29.3696V23.0779L63.8908 23.1122H63.8737ZM65.6223 26.7638C65.6223 28.8725 67.1481 30.1068 68.9482 30.1068C69.9597 29.7297 70.714 29.3011 71.5026 28.6325L71.314 28.2724C70.7997 28.581 70.1997 28.8382 69.5654 28.8382C68.1939 28.8382 67.2681 27.8439 67.1995 26.1638H71.4683V25.598C71.4683 24.038 70.6283 22.9579 68.9139 22.9579C66.891 23.4208 65.6223 24.6894 65.6223 26.7638ZM67.1995 25.6666C67.251 24.3637 67.731 23.5408 68.571 23.5408C69.5311 23.5408 69.7711 24.3294 69.7711 25.5295V25.6838L67.2167 25.7523V25.6495L67.1995 25.6666ZM72.8055 27.6381H72.2569L72.3941 29.5239C72.9084 29.7982 73.8341 30.1068 74.6399 30.1068C76.3542 29.7297 77.2629 29.0782 77.2629 27.9296C77.2629 27.141 76.9028 26.6438 76.0457 26.1638L74.8627 25.478C74.1599 25.0837 73.817 24.8094 73.817 24.3294C73.817 23.8151 74.2284 23.4894 74.8113 23.4894C75.3085 23.4894 75.6685 23.6608 75.9428 23.9351L76.5428 25.2552H77.0229V23.5065C76.5428 23.2322 75.8742 22.9751 74.897 22.9751C73.1827 23.4037 72.3769 24.0208 72.3769 25.0152C72.3769 25.8723 72.9427 26.3352 73.577 26.7124L74.7599 27.3981C75.4971 27.8439 75.8056 28.0667 75.8056 28.6496C75.8056 29.1639 75.4285 29.5925 74.7085 29.5925C74.1941 29.5925 73.7827 29.3525 73.4055 29.0268L72.7884 27.6553L72.8055 27.6381Z" fill="#231E21"/>
</g>
</g>
<defs>
<clipPath id="clip0_857_4165">
<rect width="85.2552" height="30.0013" fill="white" transform="translate(0.476562 0.105469)"/>
</clipPath>
</defs>
</svg>
