<svg width="66" height="38" viewBox="0 0 66 38" fill="none" xmlns="http://www.w3.org/2000/svg">
<g clip-path="url(#clip0_857_6145)">
<path d="M65.0382 0.890625H0.732422V37.3208H65.0382V0.890625Z" fill="#E1251B"/>
<mask id="mask0_857_6145" style="mask-type:luminance" maskUnits="userSpaceOnUse" x="0" y="0" width="66" height="38">
<path d="M65.0382 0.890625H0.732422V37.3208H65.0382V0.890625Z" fill="white"/>
</mask>
<g mask="url(#mask0_857_6145)">
<path d="M54.2714 14.3652H51.0827L49.4369 17.0225L47.8597 14.3652H44.6367L47.9625 19.5083V23.8285H50.877V19.5083L54.2714 14.3652ZM45.4253 19.0797C45.4253 16.6968 44.3109 14.3652 41.1565 14.3652H36.3734V23.8285H40.5908C43.8995 23.8285 45.4253 21.9941 45.4253 19.0797ZM42.5109 19.0454C42.5109 19.9369 42.2537 21.4113 40.4365 21.4113H39.305V16.7996H40.2308C42.3394 16.7996 42.528 18.4626 42.528 19.0454M35.0705 19.0797C35.0705 16.6968 33.9562 14.3652 30.8018 14.3652H26.0187V23.8285H30.236C33.5447 23.8285 35.0705 21.9941 35.0705 19.0797ZM32.1561 19.0454C32.1561 19.9369 31.899 21.4113 30.0817 21.4113H28.9331V16.7996H29.8589C31.9675 16.7996 32.1561 18.4626 32.1561 19.0454ZM21.4756 23.8285H24.3901V14.3824H21.4756V23.8285ZM11.498 23.8285H19.9499V21.4113H15.3039L19.7441 16.5082V14.3824H11.7552V16.7996H15.904L11.5152 21.5484V23.8285H11.498ZM51.9741 22.7656C51.9741 23.3999 52.4713 23.8457 53.0713 23.8457C53.6714 23.8457 54.1857 23.3999 54.1857 22.7656C54.1857 22.1313 53.6885 21.6856 53.0713 21.6856C52.4542 21.6856 51.9741 22.1313 51.9741 22.7656ZM52.2313 22.7656C52.2313 22.217 52.5913 21.9084 53.0713 21.9084C53.5514 21.9084 53.9285 22.217 53.9285 22.7656C53.9285 23.3142 53.5685 23.6056 53.0713 23.6056C52.5742 23.6056 52.2313 23.2799 52.2313 22.7656ZM53.1228 22.217H52.6599V23.2971H52.9856V23.0228H53.1056L53.2428 23.2971H53.5856L53.3971 22.9713C53.5171 22.8856 53.5856 22.7656 53.5856 22.6285C53.5856 22.4227 53.4142 22.2342 53.1228 22.2342M52.9856 22.5085H53.1228C53.1228 22.5085 53.2428 22.5427 53.2428 22.6456C53.2428 22.7656 53.1571 22.7828 53.1228 22.7828H52.9856V22.5085Z" fill="white"/>
</g>
</g>
<defs>
<clipPath id="clip0_857_6145">
<rect width="64.3057" height="36.4302" fill="white" transform="translate(0.732422 0.890625)"/>
</clipPath>
</defs>
</svg>
