<svg width="103" height="14" viewBox="0 0 103 14" fill="none" xmlns="http://www.w3.org/2000/svg">
<g clip-path="url(#clip0_857_4638)">
<mask id="mask0_857_4638" style="mask-type:luminance" maskUnits="userSpaceOnUse" x="0" y="0" width="103" height="14">
<path d="M102.985 0.771484H0.0371094V13.4406H102.985V0.771484Z" fill="white"/>
</mask>
<g mask="url(#mask0_857_4638)">
<path d="M94.4471 8.04038C93.5213 6.44602 93.9327 4.76595 94.5499 3.87448C95.1499 2.98301 96.1786 2.65728 97.2072 2.65728C98.2358 2.65728 102.607 2.70871 102.607 2.70871V1.21722H97.1043C97.1043 1.21722 93.9327 1.11436 92.9041 3.65161C91.8755 6.17173 92.7155 8.04038 92.9041 8.5204C93.0927 8.98328 94.8242 10.7662 96.9672 11.0405H100.842C100.842 11.0405 101.442 10.9548 101.442 11.3662C101.442 11.3662 101.545 11.6405 100.842 11.6405H92.8184V13.0978H101.493C101.493 13.0978 102.059 13.1835 102.659 12.3434C103.259 11.5034 102.933 10.6634 102.659 10.2862C102.385 9.90904 101.682 9.49759 101.253 9.49759H97.0186C97.0186 9.49759 95.39 9.63474 94.4642 8.04038M84.658 13.132H86.201V1.21722H84.658V13.132ZM78.0749 7.11463C78.0749 3.60018 74.9719 0.771484 71.1317 0.771484C67.2915 0.771484 64.1886 3.60018 64.1886 7.09748C64.1886 10.5948 67.2915 13.4235 71.1317 13.4235C74.9719 13.4235 78.0749 10.5948 78.0749 7.09748M76.4462 7.11463C76.4462 9.90904 74.0633 12.1549 71.1317 12.1549C68.2002 12.1549 65.8172 9.89189 65.8172 7.11463C65.8172 4.33736 68.2002 2.05726 71.1317 2.05726C74.0633 2.05726 76.4462 4.32021 76.4462 7.11463ZM51.228 2.52013H60.5541L60.5027 1.21722H49.8222V13.132H51.3137V10.4576H54.8967V9.15472H51.2108V2.52013H51.228ZM39.2446 10.5605C39.2446 10.5605 41.1475 9.3433 41.439 7.33749C41.7133 5.33169 41.199 3.78876 40.6846 3.12016C40.1703 2.4687 39.2789 1.49152 37.7017 1.25151H32.3014V13.1663H33.7415V11.2462C33.7415 11.2462 38.2674 10.9205 40.2218 13.0635H42.2276C42.2276 13.0635 41.2504 11.6063 39.2446 10.5434M37.1531 9.63474H33.6043V2.623H36.7759C37.5645 2.623 38.3703 2.86301 39.3817 3.73733C40.4103 4.6288 40.6332 6.36031 39.7589 7.93752C38.8674 9.53188 37.1531 9.61759 37.1531 9.61759M24.9297 13.132H26.7983L20.4037 0.942921L14.232 13.0978H16.1693L17.1464 11.0405H24.0039L24.9297 13.1492V13.132ZM23.1639 9.30901H17.9351L20.5066 3.5659L23.1639 9.30901ZM9.96327 8.64041C11.2148 6.15458 10.1004 3.6859 9.12323 2.79443C8.14604 1.90296 6.46597 1.49152 6.03738 1.49152C5.60879 1.49152 0.0371094 1.54295 0.0371094 1.54295V13.132H1.58004V11.1262H6.32882C6.32882 11.1262 8.71178 11.1262 9.96327 8.64041ZM8.38605 8.41754C7.54602 9.87475 5.81451 9.87475 5.81451 9.87475H1.47717V2.81158H5.72879C6.84313 2.81158 7.7346 3.32588 8.43749 4.21735C9.14037 5.10882 9.22609 6.97748 8.38605 8.41754Z" fill="#231E21"/>
</g>
</g>
<defs>
<clipPath id="clip0_857_4638">
<rect width="102.947" height="12.6691" fill="white" transform="translate(0.0371094 0.771484)"/>
</clipPath>
</defs>
</svg>
