<svg width="87" height="13" viewBox="0 0 87 13" fill="none" xmlns="http://www.w3.org/2000/svg">
<g clip-path="url(#clip0_857_4454)">
<mask id="mask0_857_4454" style="mask-type:luminance" maskUnits="userSpaceOnUse" x="0" y="0" width="87" height="13">
<path d="M86.5851 0.783203H0.318359V12.8695H86.5851V0.783203Z" fill="white"/>
</mask>
<g mask="url(#mask0_857_4454)">
<path d="M86.5851 1.07616H83.585V12.5795H86.5851V1.07616ZM82.9164 12.5795L78.1504 6.27068L82.4535 1.07616H78.9047L75.3046 5.72209H75.2532V1.07616H72.2359V12.5795H75.2532V7.05929H75.3046L79.0933 12.5795H82.9164ZM67.9157 12.5795H70.933V1.07616H67.9157V12.5795ZM67.3671 12.5795L62.6012 6.27068L66.9042 1.07616H63.3555L59.7553 5.72209H59.7039V1.07616H56.6866V12.5795H59.7039V7.05929H59.7553L63.5441 12.5795H67.3499H67.3671ZM52.2464 12.5795H55.2465V1.07616H52.2464V12.5795ZM48.5262 12.5795H51.2521C51.1835 11.6881 51.0292 10.8995 51.0121 10.0251C50.9949 9.16795 50.9606 8.29363 50.9606 7.12786V5.63637C50.9606 2.22479 49.5034 0.767578 46.0061 0.767578C44.7375 0.767578 43.1774 1.11045 42.0117 1.6419L41.2745 4.43631C42.286 3.66485 44.3775 2.96196 45.6633 2.96196C47.429 2.96196 48.2519 3.57913 48.2519 5.44779H46.6062C45.3547 5.44779 43.8803 5.55065 42.7488 6.11639C41.6174 6.68213 40.7773 7.6936 40.7773 9.40797C40.7773 11.6024 42.766 12.8367 44.7889 12.8367C45.8518 12.8367 46.9833 12.4081 47.7548 11.6195V9.40797C47.7548 9.40797 47.6691 9.54511 47.6176 9.61369C47.1547 10.248 46.4347 10.6423 45.5261 10.6423C44.4632 10.6423 43.6232 10.2137 43.6232 9.23653C43.6232 7.47074 45.6118 7.24787 46.949 7.24787L48.492 7.21358V12.4595C48.492 12.4595 48.5262 12.5281 48.5262 12.5624M38.2743 12.5795L41.5831 1.07616H38.7029L36.44 9.5794L34.0913 1.07616H30.7483L28.5368 9.5794L26.1709 1.07616H23.188L26.8224 12.5795H30.0454L32.4112 3.71628L34.7771 12.5795H38.2915H38.2743ZM17.4448 4.50489L20.3421 4.53918C20.3078 4.36774 20.2564 4.02487 20.1878 3.87057C20.0335 3.47627 19.7935 3.08197 19.4849 2.70481C18.4392 1.43618 16.7934 0.784722 14.5304 0.784722C12.8504 0.784722 11.4617 1.26474 10.3645 2.22479C9.11304 3.32198 8.47873 4.8649 8.47873 6.88785C8.47873 8.75651 9.02732 10.2137 10.1417 11.2938C11.256 12.3567 12.7646 12.8881 14.6847 12.8881C16.2448 12.8881 17.5306 12.4938 18.5249 11.7052C19.5192 10.9166 20.0678 10.0766 20.325 8.82508L17.4963 8.85937C17.3077 9.4594 17.1534 9.66512 16.8791 9.97371C16.3648 10.5223 15.6276 10.7966 14.6504 10.7966C13.6732 10.7966 12.9189 10.4709 12.3018 9.83656C11.6846 9.1851 11.376 8.22505 11.376 6.92214C11.376 5.61922 11.6674 4.62489 12.2503 3.92201C12.8332 3.21912 13.639 2.8591 14.6333 2.8591C15.6276 2.8591 16.3819 3.11625 16.8791 3.61342C16.982 3.71628 17.0848 3.83629 17.1705 3.99058C17.2734 4.14487 17.3591 4.33345 17.4448 4.53918M0.318359 12.5967H8.34158V9.97371H3.35278V1.07616H0.318359V12.5967Z" fill="#0B4E8D"/>
</g>
</g>
<defs>
<clipPath id="clip0_857_4454">
<rect width="86.2667" height="12.0863" fill="white" transform="translate(0.318359 0.783203)"/>
</clipPath>
</defs>
</svg>
