<svg width="91" height="22" viewBox="0 0 91 22" fill="none" xmlns="http://www.w3.org/2000/svg">
<g clip-path="url(#clip0_857_4553)">
<path d="M59.1123 11.6911H60.501L60.3981 14.0569L59.1123 14.1598V11.6911ZM56.5408 9.75387L56.4379 9.95959V21.2058H59.1123V16.5942H60.3981V21.2058H63.0725L62.9696 15.9599L62.3353 15.1027V14.9998L62.9696 14.1426V10.5082L61.7867 9.22241L56.5408 9.75387ZM72.7244 7.50805L72.3986 7.61091L69.5014 8.14237L67.4613 11.9997V8.34809H67.3584L64.2554 8.77668V21.2058H67.4784V16.2684L69.9471 21.1029L73.273 21.2058L73.1701 20.8801L69.9471 14.4512L69.7414 13.9198L69.9471 13.4912L72.8444 7.49091H72.7415L72.7244 7.50805ZM73.3587 7.40519V21.223H80.1133V17.7942L79.7875 17.6914H77.0103V15.017L79.9075 14.6912V11.1596L77.2331 11.5882H77.0103V9.66815L79.9075 8.81097V7.0966L79.8047 5.91369L73.3758 7.42233L73.3587 7.40519ZM84.622 7.71378L86.6621 7.18232V10.611L86.4564 10.7139L84.6392 10.9196V7.69663L84.622 7.71378ZM81.1933 5.46796V21.223H84.622V14.5712L86.6621 14.4684V21.223H90.2966V13.9369L89.2337 12.3254L90.1937 10.611V4.8165L88.6851 3.10214L81.1762 5.46796H81.1933ZM0.583984 21.223H4.76703V10.8168L11.093 21.1029L11.4188 21.2058H14.6246L14.5218 6.83945L10.6644 5.77655V13.1654L10.4587 12.7369L5.29848 4.18219L0.583984 2.1421V21.223ZM49.5633 0.427734L49.3576 0.856325L45.5003 7.18232V7.28518H45.3974L41.3172 0.427734H36.277L43.1345 10.611V21.223H47.6432L47.7461 10.611L54.6035 0.530596V0.427734H49.5633Z" fill="#C7262E"/>
<path d="M51.3992 12.5476H53.0107V18.9765H51.3992V12.5476ZM50.8506 10.0789L50.3192 10.2846L48.9305 11.5704V19.3879L50.6449 21.1023L53.7479 21.2051L53.8507 21.1023L55.3422 19.3879L55.4451 18.7536V11.3647L55.2394 11.159L53.9536 9.97605L53.6279 9.87319L50.8335 10.0789H50.8506ZM27.9124 21.2223L31.3412 21.1194L33.707 14.7934L35.4213 21.1194L35.7471 21.2223H38.6443L38.7472 20.9994L39.0729 20.4679L41.8673 10.3875L38.6443 10.1818L38.5415 10.2846L37.0328 15.4277L35.5242 9.85605L35.1985 9.75318L32.3012 9.54746L30.1583 15.4449L28.9753 9.22173H28.8725L28.5468 9.11887L25.2209 8.58742L27.8953 21.2394L27.9124 21.2223ZM16.1348 21.2223H25.1352V17.7935H20.4207V15.7535H24.278V13.1819L20.4207 12.8562V11.1418L24.3808 11.5704V8.46741L16.1348 7.18164V21.2223Z" fill="#C7262E"/>
</g>
<defs>
<clipPath id="clip0_857_4553">
<rect width="89.7126" height="20.7952" fill="white" transform="translate(0.583984 0.427734)"/>
</clipPath>
</defs>
</svg>
