<svg width="80" height="17" viewBox="0 0 80 17" fill="none" xmlns="http://www.w3.org/2000/svg">
<g clip-path="url(#clip0_857_4386)">
<mask id="mask0_857_4386" style="mask-type:luminance" maskUnits="userSpaceOnUse" x="0" y="0" width="80" height="17">
<path d="M79.0718 0.974609H0.296875V16.6782H79.0718V0.974609Z" fill="white"/>
</mask>
<g mask="url(#mask0_857_4386)">
<path d="M79.0718 16.421V15.2552H73.6202V1.21462H72.1287V16.421H79.0718ZM69.3 8.82639C69.3 4.28333 65.6827 0.974609 61.5853 0.974609C57.488 0.974609 53.8707 4.30047 53.8707 8.82639C53.8707 13.3523 57.5052 16.6782 61.5853 16.6782C65.6655 16.6782 69.3 13.3695 69.3 8.82639ZM67.7056 8.82639C67.7056 13.0266 64.7055 15.461 61.6025 15.461C58.4995 15.461 55.4136 13.0266 55.4136 8.82639C55.4136 4.6262 58.4823 2.19181 61.5682 2.19181C64.6541 2.19181 67.6885 4.6262 67.6885 8.82639M48.5733 9.49499L53.6478 1.21462H51.9163C50.5791 3.37472 47.5276 8.51781 47.5276 8.51781L43.3274 1.21462H41.5959L46.4647 9.51214C46.619 9.76929 46.7047 10.095 46.7047 10.3865C46.7218 12.1865 46.7047 14.1066 46.7047 15.9067V16.421H48.2819V15.8724C48.2819 14.1066 48.2819 12.2208 48.2819 10.455C48.2819 10.1293 48.3847 9.76929 48.5562 9.49499M41.5102 16.421C39.1272 13.5923 36.8299 11.1236 34.4984 8.36351L40.6358 1.21462H39.0586C38.6986 1.21462 38.7843 1.21462 38.5614 1.21462C38.5614 1.21462 32.8012 8.03778 32.5783 8.27779V1.21462H31.0525V16.421H32.6298V8.3978C32.7498 8.53495 32.8183 8.60352 32.8869 8.6721C35.0641 11.2608 37.4643 13.8323 39.6415 16.421H41.5273H41.5102ZM19.5663 9.01497H26.5266V7.8492H19.5663V2.38039H26.5266V1.21462H18.0577V16.421H26.5266V15.2381H19.5663V9.01497ZM15.1261 5.20908C15.0747 3.08328 13.9089 1.59178 11.8002 1.36891C10.0345 1.18033 8.21723 1.24891 6.43429 1.19748C6.40001 1.19748 6.38286 1.23176 6.33143 1.24891V16.421H7.84007V9.64928C8.69725 9.64928 9.48586 9.66643 10.2745 9.64928C11.2345 9.615 12.1946 9.58071 13.0689 9.11783C14.6289 8.29494 15.1604 6.9063 15.1261 5.22623M13.1546 6.99202C12.8803 7.55776 12.4003 7.96921 11.8002 8.17493C10.5145 8.60352 9.19442 8.46637 7.85721 8.48352V2.39753C9.16013 2.38039 10.4459 2.29467 11.7145 2.60325C12.3146 2.7404 12.8117 3.11756 13.086 3.66616C13.6346 4.74621 13.686 5.87769 13.1546 6.97488M0.296875 16.421H1.80551V1.21462H0.296875V16.421Z" fill="#1C1C19"/>
</g>
</g>
<defs>
<clipPath id="clip0_857_4386">
<rect width="78.775" height="15.7036" fill="white" transform="translate(0.296875 0.974609)"/>
</clipPath>
</defs>
</svg>
