<svg width="59" height="30" viewBox="0 0 59 30" fill="none" xmlns="http://www.w3.org/2000/svg">
<g clip-path="url(#clip0_857_4156)">
<mask id="mask0_857_4156" style="mask-type:luminance" maskUnits="userSpaceOnUse" x="0" y="0" width="59" height="30">
<path d="M58.4635 0.210938H0.0722656V29.4408H58.4635V0.210938Z" fill="white"/>
</mask>
<g mask="url(#mask0_857_4156)">
<path d="M35.8837 11.68C35.6265 11.5086 35.3694 11.2171 34.8551 10.8743C34.4951 10.6343 34.0836 10.4114 33.6722 10.2228C29.712 8.5256 25.8032 8.78275 22.3917 11.44C22.0659 11.6972 21.7231 12.0058 21.4316 12.3143C21.2602 12.5029 21.1573 12.5886 21.003 12.7944C14.9342 20.3376 21.2259 31.0352 31.2721 29.0465C33.055 28.7036 34.2379 28.0522 35.5237 26.8864V28.4808H39.3639V0.210938H35.8837V11.68ZM22.3917 19.4118C22.3917 18.1603 22.5288 17.4574 23.0431 16.4117C23.5574 15.383 24.3632 14.5087 25.3061 13.8916C26.969 12.8286 29.8491 12.5029 31.6492 13.3087C31.8549 13.3944 31.9921 13.4458 32.1807 13.5487C32.8493 13.8916 33.4836 14.3887 33.9979 14.9202C35.9866 16.9945 36.1066 20.7147 34.4093 22.9777C33.7236 23.9034 32.7636 24.6406 31.7007 25.0692C30.912 25.3949 29.8663 25.6521 29.0091 25.6178C28.752 25.6178 27.8262 25.5149 27.5862 25.4464C26.0604 25.1035 25.4604 24.6749 24.4318 23.8006C24.1232 23.5434 23.9174 23.3034 23.6603 22.9777C22.9403 22.0862 22.3917 20.6633 22.3917 19.4118Z" fill="black"/>
<path d="M0.70658 15.1254L4.47818 15.7083C4.80391 15.7083 4.44389 15.4511 5.04392 14.3025C6.08968 12.2967 9.63841 11.5938 11.6785 12.331C13.8729 13.1196 13.6672 14.3197 13.9072 16.274C12.7414 16.8912 10.4442 17.0626 8.98695 17.2512C8.83266 17.2684 8.55836 17.2855 8.35264 17.3026L7.16973 17.4398C5.54108 17.697 4.52961 18.057 3.17526 18.7599C2.86668 18.9141 2.64381 19.0856 2.36951 19.2742C1.42661 19.9256 0.312276 21.2114 0.175127 22.3772L0.0722656 23.5772C0.0722656 24.503 0.32942 25.5659 0.672293 26.1316C1.08374 26.8002 1.54662 27.366 2.1295 27.8288C2.43809 28.0688 2.6781 28.2574 3.05526 28.4631C6.05539 30.0918 10.8728 29.6289 13.5472 27.4517L14.1643 26.9717C14.25 27.1431 14.3015 27.3831 14.3701 27.5888L14.7986 28.8917C14.8501 29.0289 14.8672 29.0289 15.0558 29.046C15.9644 29.0803 17.9702 29.046 18.9988 29.046C18.896 28.5832 18.1759 28.0346 17.8845 26.5431C17.0273 22.24 18.776 13.7368 16.2901 10.9424C15.8273 10.4281 16.1016 10.7024 15.6215 10.2738C13.6843 8.54225 8.54122 8.50797 6.10682 9.33086C4.42675 9.8966 2.71238 10.9252 1.7352 12.3996C1.1866 13.2225 0.70658 14.0625 0.70658 15.1254ZM8.62694 26.4059C7.01543 26.4059 5.40393 26.2345 4.52961 24.7773C3.80958 23.5772 4.42675 22.0514 5.48965 21.3485C6.05539 20.9714 6.65542 20.9028 7.42688 20.7657C9.74127 20.3885 11.5242 20.0971 13.7872 19.4456C13.7872 21.88 13.8215 22.9943 12.7414 24.4344C11.8156 25.6687 10.1699 26.3888 8.62694 26.3888" fill="black"/>
<path d="M40.6328 28.5151H58.4622V23.6291H45.433V0.348087C45.433 0.245225 45.3987 0.210938 45.2959 0.210938H40.6328V28.5151Z" fill="black"/>
</g>
</g>
<defs>
<clipPath id="clip0_857_4156">
<rect width="58.3912" height="29.2299" fill="white" transform="translate(0.0722656 0.210938)"/>
</clipPath>
</defs>
</svg>
