<svg width="51" height="31" viewBox="0 0 51 31" fill="none" xmlns="http://www.w3.org/2000/svg">
<g clip-path="url(#clip0_857_4479)">
<mask id="mask0_857_4479" style="mask-type:luminance" maskUnits="userSpaceOnUse" x="0" y="0" width="51" height="31">
<path d="M50.3851 0.910156H0.462891V30.7401H50.3851V0.910156Z" fill="white"/>
</mask>
<g mask="url(#mask0_857_4479)">
<path d="M50.248 5.05891L48.7222 5.60751C48.1222 3.68742 46.4078 2.45308 44.1106 2.45308C41.5904 2.45308 39.9447 3.70457 39.9447 5.83038C39.9447 10.3906 50.368 7.97333 50.368 14.4022C50.368 17.4709 47.8993 19.6139 44.2306 19.6139C40.819 19.6139 38.7789 17.9852 37.3731 15.3965L38.796 14.5393C39.7389 16.528 41.4704 18.0709 44.0934 18.0709C47.1278 18.0709 48.7051 16.6823 48.7051 14.3679C48.7051 9.77341 38.2817 12.0364 38.2817 5.79609C38.2989 2.11021 41.6247 0.910156 44.0934 0.910156C46.8535 0.910156 49.3565 2.16164 50.248 5.05891ZM24.6011 5.0932C24.6011 6.10467 25.2869 6.979 26.7784 8.5905C28.527 7.56188 29.5042 6.49898 29.5042 5.0932C29.5042 3.68742 28.5956 2.65881 27.0184 2.65881C25.5612 2.65881 24.6183 3.80743 24.6183 5.0932M26.3498 10.5277C23.9668 11.8306 22.921 12.8935 22.921 14.5051C22.921 16.3737 24.6011 17.9166 26.7441 17.9166C28.6813 17.9166 29.6756 17.0252 30.7557 15.2937L26.3498 10.5277ZM34.853 19.6996L31.8014 16.4423C30.7042 18.1738 29.1956 19.4253 26.7441 19.4253C23.5725 19.4253 21.241 17.2309 21.241 14.5222C21.241 12.2764 22.6296 10.8706 25.304 9.36196C23.7782 7.83618 22.9382 6.5847 22.9382 5.0932C22.9382 2.91596 24.7726 1.18445 27.0012 1.18445C29.367 1.18445 31.1157 2.91596 31.1157 5.0932C31.1157 7.27044 29.4528 8.60764 27.8241 9.68769L31.5957 13.8022L33.8244 10.1849L35.1616 11.0249L32.6929 15.0365L36.0702 18.6195L34.853 19.6996ZM17.0408 1.15017V19.4424H15.3607V4.49317L9.34329 16.1851H8.16038L2.14297 4.52746V19.4424H0.462891V1.15017H2.21154L8.76041 13.785L15.3264 1.15017H17.0579H17.0408Z" fill="#1B1C1C"/>
</g>
<path d="M11.9844 26.8301V30.6703H14.4873V30.1902H12.4815V28.973H14.2645V28.493H12.4815V27.3101H14.3845V26.8301H11.9844Z" fill="#1B1C1C"/>
<mask id="mask1_857_4479" style="mask-type:luminance" maskUnits="userSpaceOnUse" x="0" y="0" width="51" height="31">
<path d="M50.3851 0.910156H0.462891V30.7401H50.3851V0.910156Z" fill="white"/>
</mask>
<g mask="url(#mask1_857_4479)">
<path d="M17.0566 28.4769H17.0395C16.4909 28.3227 16.1994 28.2027 16.1994 27.8426C16.1994 27.4826 16.508 27.2598 16.9709 27.2598C17.348 27.2598 17.6395 27.414 17.7766 27.7055L17.8281 27.8255L18.2395 27.5855L18.2052 27.4998C17.9309 26.8483 17.2109 26.7969 17.0052 26.7969C16.5251 26.7969 15.7365 27.0197 15.7365 27.8598C15.7365 28.597 16.388 28.7855 16.9709 28.957C17.5366 29.1284 17.8623 29.2484 17.8623 29.6084C17.8623 30.0027 17.5195 30.2599 17.0052 30.2599C16.5251 30.2599 16.1651 30.0542 15.9766 29.6427L15.9251 29.5227L15.5137 29.7627L15.5651 29.8656C15.8394 30.4142 16.3537 30.7228 17.0052 30.7228C17.8109 30.7228 18.3767 30.2427 18.3767 29.5741C18.3767 28.8198 17.6738 28.6141 17.108 28.4598" fill="#1B1C1C"/>
</g>
<path d="M19.1836 26.8301V27.3101H20.3494V30.6703H20.8465V27.3101H22.0123V26.8301H19.1836Z" fill="#1B1C1C"/>
<mask id="mask2_857_4479" style="mask-type:luminance" maskUnits="userSpaceOnUse" x="0" y="0" width="51" height="31">
<path d="M50.3851 0.910156H0.462891V30.7401H50.3851V0.910156Z" fill="white"/>
</mask>
<g mask="url(#mask2_857_4479)">
<path d="M23.3179 30.0723C23.1465 30.0723 22.9922 30.2266 22.9922 30.398C22.9922 30.5694 23.1465 30.7237 23.3179 30.7237C23.4894 30.7237 23.6436 30.5866 23.6436 30.398C23.6436 30.2266 23.4894 30.0723 23.3179 30.0723Z" fill="#1B1C1C"/>
</g>
<path d="M26.1797 26.9883V27.4854H26.7454V30.6742H27.2426V26.9883H26.1797Z" fill="#1B1C1C"/>
<path d="M38.0425 27.674V29.337H36.8424L38.0425 27.674ZM38.2653 26.9883H37.9568L36.1738 29.4741V29.817H38.0425V30.6742H38.5225V29.817H39.0025V29.4055L38.5225 29.3541V27.0054H38.2653V26.9883Z" fill="#1B1C1C"/>
<mask id="mask3_857_4479" style="mask-type:luminance" maskUnits="userSpaceOnUse" x="0" y="0" width="51" height="31">
<path d="M50.3851 0.910156H0.462891V30.7401H50.3851V0.910156Z" fill="white"/>
</mask>
<g mask="url(#mask3_857_4479)">
<path d="M30.0201 30.2937C29.5573 30.2937 29.1973 30.0709 29.1973 29.5909C29.1973 29.1451 29.5916 28.9223 30.0201 28.9223C30.4487 28.9223 30.843 29.1451 30.843 29.5909C30.843 30.0709 30.483 30.2937 30.0201 30.2937ZM29.3001 27.9451C29.3001 27.5508 29.5573 27.3279 30.0201 27.3279C30.483 27.3279 30.7402 27.5508 30.7402 27.9451C30.7402 28.3394 30.3802 28.5451 30.0201 28.5451C29.6258 28.5451 29.3001 28.3222 29.3001 27.9451ZM30.7059 28.7337C31.0145 28.5622 31.2202 28.3051 31.2202 27.9279C31.2202 27.2593 30.6887 26.9336 30.0373 26.9336C29.3858 26.9336 28.8544 27.2765 28.8544 27.9279C28.8544 28.3051 29.043 28.5622 29.3515 28.7337C29.0087 28.888 28.7344 29.1623 28.7344 29.5909C28.7344 30.2423 29.2144 30.688 30.0373 30.688C30.8602 30.688 31.3402 30.2252 31.3402 29.5909C31.3402 29.1623 31.0488 28.888 30.7059 28.7337Z" fill="#1B1C1C"/>
<path d="M33.6725 30.2937C33.2096 30.2937 32.8496 30.0709 32.8496 29.5909C32.8496 29.1451 33.2439 28.9223 33.6725 28.9223C34.1011 28.9223 34.4954 29.1451 34.4954 29.5909C34.4954 30.0709 34.1354 30.2937 33.6725 30.2937ZM32.9525 27.9451C32.9525 27.5508 33.2096 27.3279 33.6725 27.3279C34.1354 27.3279 34.3925 27.5508 34.3925 27.9451C34.3925 28.3394 34.0325 28.5451 33.6725 28.5451C33.2782 28.5451 32.9525 28.3222 32.9525 27.9451ZM34.3582 28.7337C34.684 28.5622 34.8725 28.3051 34.8725 27.9279C34.8725 27.2593 34.3411 26.9336 33.6896 26.9336C33.0382 26.9336 32.5067 27.2765 32.5067 27.9279C32.5067 28.3051 32.6953 28.5622 33.0039 28.7337C32.661 28.888 32.3867 29.1623 32.3867 29.5909C32.3867 30.2423 32.8667 30.688 33.6896 30.688C34.5125 30.688 34.9925 30.2252 34.9925 29.5909C34.9925 29.1623 34.7011 28.888 34.3582 28.7337Z" fill="#1B1C1C"/>
</g>
</g>
<defs>
<clipPath id="clip0_857_4479">
<rect width="49.9222" height="29.8299" fill="white" transform="translate(0.462891 0.910156)"/>
</clipPath>
</defs>
</svg>
