<svg width="72" height="34" viewBox="0 0 72 34" fill="none" xmlns="http://www.w3.org/2000/svg">
<g clip-path="url(#clip0_857_4571)">
<mask id="mask0_857_4571" style="mask-type:luminance" maskUnits="userSpaceOnUse" x="0" y="0" width="72" height="34">
<path d="M71.9765 0.513672H0.384766V33.138H71.9765V0.513672Z" fill="white"/>
</mask>
<g mask="url(#mask0_857_4571)">
<path d="M8.20226 31.1501C5.08212 31.1501 2.54486 28.8185 2.54486 25.9727C2.54486 23.1268 5.08212 20.761 8.20226 20.761C11.3224 20.761 13.8597 23.0925 13.8597 25.9727C13.8597 28.8528 11.3224 31.1501 8.20226 31.1501ZM8.20226 18.8066C3.89921 18.8066 0.384766 22.0296 0.384766 25.9727C0.384766 29.9157 3.89921 33.1387 8.20226 33.1387C12.5053 33.1387 16.0198 29.9157 16.0198 25.9727C15.9855 21.9954 12.4882 18.8066 8.20226 18.8066Z" fill="#78CCD6"/>
<path d="M28.4318 23.864C27.7289 24.6183 26.1002 25.1498 24.3516 25.1669H24.2144C21.7458 25.1669 19.7571 24.2583 19.74 23.0754C19.7571 22.7325 19.8943 22.4239 20.1514 22.1325C20.8543 21.3782 22.4487 20.8467 24.2316 20.8467H24.3687C26.8374 20.8467 28.7918 21.7725 28.8261 22.9383C28.8261 23.2468 28.6889 23.5383 28.4318 23.8469M28.8089 28.9042C28.8604 29.1957 28.7232 29.4871 28.4489 29.7957C27.746 30.55 26.1174 31.0815 24.3687 31.0986H24.2316C21.7629 31.0986 19.7743 30.19 19.7571 29.0071C19.7571 28.6985 19.8943 28.4071 20.1514 28.0985C20.8543 27.3442 22.4487 26.8127 24.2316 26.8127H24.3687C26.8203 26.8127 28.7918 27.7213 28.8089 28.9042ZM30.6605 22.8868C30.609 20.5896 28.0203 18.9609 24.3859 18.9609H24.2316C22.5515 18.9952 21.06 19.3724 19.9457 20.0067C19.7914 19.561 19.3971 19.2181 18.8999 19.2181C18.2999 19.2181 17.8027 19.7153 17.8027 20.3496V31.8358C17.8027 32.4358 18.2656 32.9673 18.8999 32.9673C19.4314 32.9673 19.8943 32.5558 19.98 32.0244C21.0772 32.6244 22.5515 33.0016 24.2487 33.0016H24.403C26.7003 32.9673 28.7232 32.2644 29.7861 31.1158C30.5404 30.2757 30.6947 29.4357 30.6776 28.87C30.6433 27.6699 29.9404 26.6413 28.7747 25.9727C29.1861 25.7327 29.5118 25.4755 29.7861 25.1669C30.5404 24.3269 30.6947 23.4869 30.6776 22.9211" fill="#78CCD6"/>
<path d="M50.1354 16.7313C50.1011 16.0456 49.5868 15.5312 48.9524 15.5312C48.3181 15.5312 47.7695 16.0627 47.7695 16.7313C47.7695 17.3999 48.2667 17.9314 48.9524 17.9314C49.5868 17.9314 50.1354 17.3999 50.1354 16.7313Z" fill="#78CCD6"/>
<path d="M70.6558 19.252C70.0558 19.252 69.5586 19.7491 69.5586 20.3834V31.8525C69.5586 32.4525 70.0386 32.984 70.6558 32.984C71.273 32.984 71.753 32.4868 71.753 31.8525V20.3834C71.753 19.7491 71.2558 19.252 70.6558 19.252Z" fill="#78CCD6"/>
<path d="M65.2033 23.864C64.5004 24.6183 62.8717 25.1498 61.1231 25.1669H61.0202C58.5515 25.1669 56.5629 24.2583 56.5457 23.0754C56.5457 22.7325 56.6829 22.4239 56.94 22.1325C57.6429 21.3782 59.2373 20.8467 61.0202 20.8467H61.1574C63.6261 20.8467 65.5804 21.7725 65.6147 22.9383C65.6147 23.2468 65.4776 23.5383 65.2204 23.8469M65.5976 28.9042C65.6319 29.1957 65.4604 29.4871 65.2376 29.7957C64.5347 30.55 62.906 31.0815 61.1574 31.0986H61.0202C58.5515 31.0986 56.5629 30.19 56.5457 29.0071C56.5457 28.6985 56.6829 28.4071 56.94 28.0985C57.6429 27.3442 59.2373 26.8127 61.0202 26.8127H61.1574C63.6261 26.8127 65.5804 27.7213 65.6147 28.9042M67.4319 22.8868C67.3805 20.5896 64.7918 18.9609 61.1574 18.9609H61.0031C59.323 18.9952 57.8315 19.3724 56.7172 20.0067C56.5629 19.561 56.1686 19.2181 55.6714 19.2181C55.0714 19.2181 54.5742 19.7153 54.5742 20.3496V31.8358C54.5742 32.4358 55.0371 32.9673 55.6714 32.9673C56.2029 32.9673 56.6657 32.5558 56.7515 32.0244C57.8487 32.6244 59.323 33.0016 61.0202 33.0016H61.1745C63.4546 32.9673 65.4947 32.2644 66.5748 31.1158C67.3291 30.2757 67.4834 29.4357 67.4662 28.87C67.4319 27.6699 66.729 26.6413 65.5633 25.9727C65.9747 25.7327 66.3005 25.4755 66.5919 25.1669C67.3462 24.3269 67.5005 23.4869 67.4834 22.9211" fill="#78CCD6"/>
<path d="M70.6204 15.5312C69.9861 15.5312 69.4375 16.0627 69.4375 16.7313C69.4375 17.3999 69.9347 17.9314 70.6204 17.9314C71.2547 17.9314 71.769 17.3999 71.769 16.7313C71.769 16.0627 71.2376 15.5312 70.6204 15.5312Z" fill="#78CCD6"/>
<path d="M52.7239 15.5312C52.0896 15.5312 51.541 16.0627 51.541 16.7313C51.541 17.3999 52.0382 17.9314 52.7239 17.9314C53.3582 17.9314 53.9068 17.3999 53.9068 16.7313C53.9068 16.0627 53.3925 15.5312 52.7239 15.5312Z" fill="#78CCD6"/>
<path d="M50.8355 19.252C50.2354 19.252 49.7383 19.7491 49.7383 20.3834V31.8525C49.7383 32.4525 50.2012 32.984 50.8355 32.984C51.4698 32.984 51.9327 32.4868 51.9327 31.8525V20.3834C51.9155 19.7491 51.4355 19.252 50.8355 19.252Z" fill="#78CCD6"/>
<path d="M39.5903 30.978C36.6073 30.978 34.1558 28.7493 34.1558 25.972C34.1558 23.1948 36.5902 20.9832 39.5903 20.9832C42.5904 20.9832 45.042 23.2119 45.042 25.972C45.042 28.7322 42.6076 30.978 39.5903 30.978ZM45.9506 19.2174C45.3505 19.2174 44.8534 19.7146 44.8534 20.3489V20.9489C43.499 19.7489 41.6304 19.0117 39.5903 19.0117C35.4072 19.0117 31.9785 22.1319 31.9785 25.9892C31.9785 29.8465 35.4072 32.9838 39.5903 32.9838C41.6304 32.9838 43.4647 32.2466 44.8534 31.0465V31.8523C44.8534 32.4523 45.3163 32.9838 45.9506 32.9838C46.5849 32.9838 47.0478 32.4866 47.0478 31.8523V20.3661C47.0306 19.6803 46.5163 19.2174 45.9506 19.2174Z" fill="#78CCD6"/>
<path d="M26.9908 13.1495L20.7334 8.96643L26.8537 5.72629C27.3165 5.43485 27.488 4.83482 27.1965 4.37194C27.008 4.06336 26.6994 3.87478 26.3565 3.87478C26.1679 3.87478 26.0136 3.92621 25.8593 4.01193L18.6076 7.90353V4.66338C18.6076 4.11479 18.1619 3.63477 17.6475 3.63477C17.1332 3.63477 16.6875 4.0805 16.6875 4.66338V14.0238C16.6875 14.5724 17.1332 15.0353 17.6475 15.0353C18.1619 15.0353 18.6076 14.5895 18.6076 14.0238V11.2294C18.6076 10.8694 18.9162 10.5436 19.259 10.5436C19.3448 10.5436 19.4476 10.5779 19.5162 10.6294L25.9622 14.9153C26.1165 15.001 26.2708 15.0524 26.4594 15.0524C26.8022 15.0524 27.1451 14.8467 27.2994 14.5553C27.4366 14.3152 27.488 14.0581 27.3851 13.8009C27.368 13.5095 27.1965 13.3381 26.9908 13.1666" fill="#1A4788"/>
<path d="M11.562 11.5373C11.562 12.3945 10.8762 13.0803 10.0705 13.0803H3.96735C3.12732 13.0803 2.47586 12.3945 2.47586 11.5373V7.21713C2.47586 6.35995 3.1616 5.67421 3.96735 5.67421H10.0705C10.9105 5.67421 11.562 6.35995 11.562 7.21713V11.5373ZM10.3105 3.68555H3.7102C1.96155 3.68555 0.521484 5.14275 0.521484 6.97712V11.7602C0.521484 13.5603 1.96155 15.0518 3.7102 15.0518H10.3105C12.0591 15.0518 13.4992 13.5774 13.4992 11.7602V6.97712C13.4992 5.14275 12.0934 3.68555 10.3105 3.68555Z" fill="#1A4788"/>
<path d="M55.2087 7.31969C55.2087 6.51394 55.843 5.86248 56.6488 5.86248H64.1063V9.11977L66.0778 9.49693V1.508C66.0606 0.959406 65.6149 0.513672 65.1006 0.513672C64.5863 0.513672 64.1405 0.959406 64.1405 1.54229V3.87382H56.4259C54.7115 3.87382 53.3229 5.29674 53.2715 6.99396L55.2259 7.37112V7.31969H55.2087Z" fill="#1A4788"/>
<path d="M64.1058 9.11995V11.5886C64.1058 12.3772 63.4544 13.063 62.6658 13.063H56.6483C55.8597 13.063 55.2083 12.4115 55.2083 11.5886V7.3713L53.2539 6.99414C53.2539 6.99414 53.2539 7.06272 53.2539 7.097V11.8115C53.2539 13.5944 54.6597 15.0516 56.4255 15.0516H62.9401C64.6887 15.0516 66.0773 13.5944 66.0773 11.8115V9.51425L64.123 9.13709L64.1058 9.11995Z" fill="#1A4788"/>
<path d="M40.2935 3.85547H37.3105L42.5908 4.88409C42.0079 4.24977 41.2021 3.85547 40.2935 3.85547Z" fill="#1A4788"/>
<path d="M41.4767 11.5872C41.4767 12.393 40.8424 13.0445 40.0366 13.0445H33.9678C33.1792 13.0445 32.6306 12.4616 32.6306 11.6901V11.3815C32.6306 10.5758 33.1792 10.0272 33.9678 10.0272H41.4767V11.6044V11.5872ZM37.3108 3.85547H32.9735C32.6306 3.85547 32.3391 4.04405 32.1677 4.33549C32.082 4.48978 32.0134 4.67836 32.0134 4.86694C32.0134 5.41554 32.4592 5.86127 32.9906 5.86127H40.0538C40.8424 5.86127 41.4938 6.51273 41.4938 7.31848V8.00423H33.8306C33.4878 8.00423 33.1278 8.08994 32.7849 8.19281C31.482 8.65568 30.6934 9.82145 30.6934 11.1587V11.913C30.6934 13.6616 32.082 15.0503 33.8649 15.0503H40.3452C42.0939 15.0503 43.5168 13.5759 43.5168 11.8101V7.09561C43.4996 6.25558 43.1568 5.48411 42.6253 4.91837L37.3451 3.88976L37.3108 3.85547Z" fill="#1A4788"/>
<path d="M46.5002 2.55376C47.0488 2.55376 47.4945 2.09089 47.4945 1.54229C47.4945 0.993693 47.0488 0.513672 46.5002 0.513672C45.9516 0.513672 45.5059 0.993693 45.5059 1.54229C45.5059 2.09089 45.9516 2.55376 46.5002 2.55376Z" fill="#1A4788"/>
<path d="M49.7424 2.55376C50.291 2.55376 50.7367 2.09089 50.7367 1.54229C50.7024 0.959406 50.291 0.513672 49.7424 0.513672C49.1938 0.513672 48.748 0.993693 48.748 1.54229C48.748 2.09089 49.1938 2.55376 49.7424 2.55376Z" fill="#1A4788"/>
<path d="M49.1058 4.64624C49.0716 4.09764 48.6258 3.63477 48.1115 3.63477C47.5629 3.63477 47.1172 4.09764 47.1172 4.64624V5.77772L49.1058 6.17202V4.64624Z" fill="#1A4788"/>
<path d="M47.1172 5.79449V14.0749C47.1172 14.6235 47.5629 15.1035 48.1115 15.1035C48.6601 15.1035 49.1058 14.6406 49.1058 14.0749V6.17165L47.1172 5.77734V5.79449Z" fill="#1A4788"/>
<path d="M70.9807 2.55376C71.5293 2.55376 71.975 2.09089 71.975 1.54229C71.975 0.993693 71.5464 0.513672 70.9807 0.513672C70.4149 0.513672 69.9863 0.993693 69.9863 1.54229C69.9863 2.09089 70.3978 2.55376 70.9807 2.55376Z" fill="#1A4788"/>
<path d="M71.975 4.64624C71.9407 4.09764 71.495 3.63477 70.9807 3.63477C70.4321 3.63477 69.9863 4.09764 69.9863 4.64624V10.2693L71.975 10.6637V4.64624Z" fill="#1A4788"/>
<path d="M69.9863 10.2676V14.0735C69.9863 14.6221 70.4321 15.1021 70.9807 15.1021C71.5293 15.1021 71.975 14.6392 71.975 14.0735V10.6619L69.9863 10.2676Z" fill="#1A4788"/>
</g>
</g>
<defs>
<clipPath id="clip0_857_4571">
<rect width="71.5918" height="32.6243" fill="white" transform="translate(0.384766 0.513672)"/>
</clipPath>
</defs>
</svg>
