<svg width="61" height="65" viewBox="0 0 61 65" fill="none" xmlns="http://www.w3.org/2000/svg">
<mask id="mask0_1520_615" style="mask-type:luminance" maskUnits="userSpaceOnUse" x="0" y="0" width="61" height="65">
<path d="M60.5195 0.5H0.519531V64.5H60.5195V0.5Z" fill="white"/>
</mask>
<g mask="url(#mask0_1520_615)">
<path d="M2.54497 60.7491C2.23338 60.8663 2.2918 62.4292 2.46707 62.5464L58.2996 62.605L58.6501 62.4878L58.5917 60.7882L2.54497 60.7491ZM37.5401 42.229H31.4641V58.8541H37.5401V51.0397C37.5401 50.0239 39.2928 50.0238 39.2928 50.7858V58.8541H55.1837V42.229H39.2928V47.1716C39.2928 47.3865 38.6307 47.7772 38.3191 47.7186C38.027 47.66 37.5206 47.0934 37.5206 46.8004V42.229H37.5401ZM29.5946 42.229H23.5187V58.8541H29.5946V42.229ZM21.7465 42.229H5.85558V58.8541H21.7465V42.229ZM58.6891 36.4854H2.35022V40.3535H58.7085V36.4854H58.6891ZM57.8712 34.6099L55.7095 30.859L55.359 30.7223H5.56347L5.32978 30.859L3.16814 34.6099H57.8906H57.8712ZM55.1837 15.8554H45.4856V28.8468H55.1837V15.8554ZM43.616 15.8554H41.9802C40.987 21.1301 36.4885 25.2717 31.4641 25.6038V28.8468H43.616V15.8554ZM19.0591 15.8554H17.4233V28.8468H29.5752V25.6038C24.5313 25.2522 20.0523 21.1496 19.0591 15.8554ZM15.5537 15.8554H5.85558V28.8468H15.5537V15.8554ZM42.3307 13.9799H58.5138C58.8059 13.5892 58.8059 12.5147 58.5138 12.1044H42.3307V13.9799ZM18.7085 12.124H2.52549C2.25285 12.5147 2.23338 13.5892 2.52549 13.9994H18.7085V12.124ZM2.05811 15.8554C1.39599 15.7186 0.675444 14.6441 0.597547 13.9213C0.422279 12.163 0.714392 10.4048 2.64234 10.229H19.0007C19.3122 9.38893 19.507 8.49027 19.877 7.65022C20.247 6.81017 21.8244 4.17281 22.6034 3.93838C23.3434 3.70395 23.8108 4.52446 23.616 5.26683C23.5771 5.38404 22.4086 6.75156 22.1944 7.12275C15.8458 17.3987 28.212 29.1203 36.9169 21.3645C45.9724 13.2961 36.9169 -1.78568 26.2645 3.37183C25.505 3.3523 25.0377 2.72714 25.4077 1.96524C25.6998 1.37916 27.2577 0.988438 27.8614 0.851686C34.3853 -0.711196 40.3833 3.48905 42.0581 10.268H58.4164C59.3317 10.3267 60.1496 10.9323 60.3833 11.9091C60.5586 12.7296 60.5781 14.2339 60.1107 14.9567C59.9744 15.1716 59.1954 15.8944 59.0007 15.8944H56.9559V29.5892L60.4612 35.4695C60.286 37.0519 60.7339 39.3181 60.4418 40.8028C60.3054 41.4866 59.4291 42.268 58.767 42.268H56.9559V58.8932H58.8838C59.5654 58.8932 60.3833 60.1044 60.4612 60.8273C60.617 62.2729 60.5196 63.7577 59.1175 64.4024C40.247 64.6759 21.3181 64.4414 2.40865 64.5196C0.636495 64.1679 0.422279 62.4878 0.597547 60.8273C0.675444 60.1044 1.49336 58.8932 2.17496 58.8932H4.1029V42.268H2.2918C1.64915 42.268 0.75334 41.4866 0.617021 40.8028C0.324908 39.3181 0.772815 37.0324 0.617021 35.4695L4.12238 29.5892V15.8944C3.51868 15.8163 2.64234 16.0116 2.07759 15.8944" fill="#592B8A"/>
<path d="M26.4787 18.2378H34.541L34.6968 17.9643L33.7815 9.99364H33.1973C33.6841 12.7873 31.0162 12.6896 31.4446 9.99364H29.5751C30.0035 12.6896 27.3355 12.7873 27.8224 9.99364H27.2382L26.3229 17.9643L26.4787 18.2378ZM31.4641 8.11818C31.9314 5.20731 29.1272 5.20731 29.5945 8.11818H31.4641ZM27.8224 6.30133C28.1535 4.15237 31.0746 3.33185 32.4962 4.95334C32.6715 5.1487 33.1973 6.08643 33.1973 6.30133V8.11818C34.541 8.0205 35.2615 8.37215 35.5147 9.81781C36.0016 12.4942 36.0016 15.4637 36.4495 18.1597C36.3326 19.156 35.7484 20.0156 34.7747 20.1133C32.0288 20.3868 28.8935 19.8984 26.1087 20.1133C25.1544 19.9179 24.6091 19.0583 24.5312 18.0425L25.6218 9.19266C25.9529 8.19632 26.9266 8.0205 27.8029 8.09864C27.8613 7.5321 27.725 6.80926 27.8029 6.28179" fill="#592B8A"/>
<path d="M51.6793 47.4842H42.7991V53.4232L42.9743 53.6186H51.6793V47.5038V47.4842ZM42.2928 45.6479C45.3502 45.8237 48.8361 45.3157 51.8546 45.6088C52.6725 45.6869 53.3346 46.2925 53.432 47.1717C53.5878 48.5587 53.5878 52.4073 53.432 53.7944C53.3346 54.7516 52.653 55.4549 51.7377 55.494C48.875 55.2791 45.6813 55.7675 42.838 55.494C41.6501 55.3768 41.1243 54.6344 41.0269 53.4232C40.9296 52.212 40.8711 47.8164 41.1827 46.8396C41.3775 46.2144 41.7085 45.8432 42.2928 45.6479Z" fill="#592B8A"/>
<path d="M18.2419 47.4848H9.36171V53.5996H18.0667L18.2419 53.4042V47.4653V47.4848ZM8.85538 45.6484L18.5341 45.6094C19.5662 45.7657 19.9167 46.6839 19.9946 47.6607C20.1115 49.1454 20.1115 51.9195 19.9946 53.4238C19.8973 54.635 19.352 55.3774 18.1835 55.4946C15.3208 55.7681 12.0881 55.2797 9.18644 55.4946C8.32958 55.3969 7.7064 54.7327 7.60903 53.8145C7.45324 52.4274 7.45324 48.5593 7.60903 47.1918C7.68693 46.5276 8.25168 45.7852 8.87486 45.668" fill="#592B8A"/>
</g>
</svg>
