<svg width="65" height="65" viewBox="0 0 65 65" fill="none" xmlns="http://www.w3.org/2000/svg">
<g clip-path="url(#clip0_1520_2322)">
<mask id="mask0_1520_2322" style="mask-type:luminance" maskUnits="userSpaceOnUse" x="0" y="0" width="65" height="65">
<path d="M64.5 0.5H0.480469V64.5H64.5V0.5Z" fill="white"/>
</mask>
<g mask="url(#mask0_1520_2322)">
<path d="M15.508 23.939C16.1663 24.7848 19.0814 25.8561 17.8777 27.1906C17.3887 27.7357 16.8997 27.4726 16.3919 27.1906C15.6961 26.7771 13.7778 25.3486 13.5897 24.6156C13.4016 23.8826 13.4204 21.1572 13.4956 20.3301C13.7966 17.5296 17.5204 18.8829 19.3447 18.4318L25.3253 14.1651C25.5698 13.9959 25.6075 13.4133 25.3818 13.2253C24.1217 12.8118 22.6735 12.5674 22.5043 10.9886C22.4102 10.124 22.6735 6.45878 22.4479 6.06406L20.7928 4.95511C20.5483 4.91751 19.1378 5.76333 18.724 5.85731C17.652 6.08286 16.9374 4.63558 18.1598 3.92133C25.6263 -0.476905 39.2614 -0.458109 46.7655 3.88374C48.0632 4.63558 47.5178 6.10166 46.1449 5.81972C46.0884 6.28962 45.7123 6.85349 45.6559 7.2858C45.5242 8.28198 46.916 8.69549 46.1073 10.4811C45.7875 11.2141 44.7343 12.2855 44.5651 12.9434C44.1701 14.4282 45.1105 15.1425 43.6247 16.5146C43.2486 16.8529 41.6876 17.7927 41.5559 18.0746C41.3678 18.4318 41.5559 19.146 41.4995 19.5783H48.6838C49.2668 19.5783 51.693 21.2323 52.4453 21.4203C53.7806 20.6685 55.4544 20.2738 56.9966 20.6309C58.8773 21.0632 58.8773 24.2773 57.9934 25.5178C57.7113 25.9125 56.7145 26.6268 56.564 26.9651C56.4136 27.2846 56.5264 27.7357 56.47 28.1116C56.0938 30.3859 52.4641 29.7657 51.0159 30.5175C50.9219 30.5739 49.6806 31.7768 49.6242 31.8708C49.248 32.5287 49.6242 35.3105 49.5302 36.2315C50.226 37.566 53.1787 40.1598 53.442 41.4379C53.7806 43.0356 53.2728 45.3099 53.5173 46.9827L57.0342 49.6893C58.8585 47.2083 60.2878 44.2761 61.1718 41.3252C63.7296 32.8106 62.4883 23.9765 57.7865 16.477C57.3915 15.8379 56.2819 14.5974 56.075 14.0523C55.6237 12.9058 56.8085 12.1351 57.6925 12.887C58.3507 13.4508 59.9493 16.1011 60.4195 16.9657C70.5754 35.2165 60.7392 58.2978 40.6344 63.5231C17.3511 69.5002 -4.05143 48.6931 1.30861 25.2547C2.07971 21.8902 4.24253 16.4394 6.49939 13.8268C7.57139 12.605 8.83147 13.4696 8.39891 14.5974C8.13561 15.2553 6.34893 17.304 6.36774 17.8303C6.70627 18.5069 7.55259 18.9768 7.98515 19.5783C8.96312 20.9316 8.28607 23.4315 8.49294 25.0479C9.75302 26.1757 11.4081 27.1718 12.6305 28.3184C13.5333 29.183 13.6649 29.916 13.4956 31.1754C13.2888 32.679 11.6525 32.8106 11.5209 33.2053V36.7953L18.4607 40.3478C19.0626 40.7425 19.4199 41.1936 19.4951 41.9266C19.702 43.7874 19.1754 46.5504 19.5139 48.2796C19.6832 49.1442 21.4887 51.7005 21.4887 52.302V56.4934H22.8428C23.0497 56.3431 24.2721 52.6027 24.6295 51.9448C25.6075 50.1968 27.3753 49.2006 27.601 47.0579C27.695 46.2685 27.4882 45.4415 27.9772 44.6896L33.4876 39.9531V36.5134H29.1808C28.6354 36.5134 27.7327 35.6676 27.5822 35.1225C27.0556 33.3369 29.1808 32.8482 29.5758 34.521C30.9111 34.6338 32.5097 34.3519 33.8074 34.521C34.6349 34.615 35.3684 35.4232 35.4812 36.2127C35.5941 37.0961 35.5752 39.1636 35.4812 40.0846C35.406 40.968 35.0863 41.25 34.4844 41.8326C33.0363 43.2047 31.1744 44.4077 29.6698 45.761C29.5193 46.7948 29.6698 48.0165 29.2937 49.0127C28.8235 50.1968 27.0556 51.7757 26.3785 52.9786C25.7203 54.1627 25.0809 57.0573 24.291 57.8843C23.5951 58.6174 22.1281 58.6362 21.1878 58.5046C18.5548 58.1475 19.8149 54.4635 19.4575 52.7343C19.2318 51.6253 17.7649 49.9149 17.5204 48.6743L17.464 42.2274L10.5241 38.6749C9.92229 38.2802 9.56495 37.8291 9.48972 37.0961C9.39569 36.2127 9.37688 33.6 9.52734 32.7542C9.60257 32.2843 9.88467 31.8896 10.242 31.6077C10.8815 31.0814 11.8218 31.1754 11.5021 30.01C11.4269 29.7657 7.96634 27.2846 7.43974 26.7959C6.91314 26.3072 6.57462 26.0065 6.49939 25.2359C6.34893 23.9014 6.63104 22.3789 6.48058 21.0068L5.25811 19.7851C4.82555 21.082 4.22372 22.3413 3.80996 23.657C-0.0266953 36.2127 4.65629 49.7457 15.414 57.1701C28.4285 66.1545 45.9944 63.5419 55.887 51.3246C55.887 51.0614 52.1067 48.8059 51.693 47.8849C51.0911 46.5504 51.7682 43.4115 51.4861 41.8514L47.7059 37.0209C47.4049 36.363 47.4237 32.7166 47.5178 31.8332C47.6494 30.5739 49.5678 28.8071 50.7714 28.4688C51.9375 28.1492 53.3104 27.9801 54.514 27.7921C54.4764 27.0215 54.4576 26.514 54.8714 25.8373C55.1723 25.3486 56.3948 24.4089 56.4888 24.0893C56.6204 23.657 56.4512 23.018 56.5076 22.5481H54.7021C54.3636 22.5481 53.3668 23.5066 52.3324 23.4315C51.1288 23.3375 49.4173 21.815 48.3077 21.5895C46.4082 21.1948 43.3802 21.7962 41.3302 21.5519C40.4651 21.4579 39.6564 20.7249 39.5247 19.8602C39.4495 19.3528 39.4495 18.037 39.5624 17.5484C39.8257 16.4394 41.6876 15.5372 42.5151 14.8417C42.5903 14.0899 42.3834 13.1501 42.5715 12.4359C42.7408 11.7592 44.3394 9.82324 44.3394 9.50371C44.3394 9.29696 43.8504 8.58271 43.7564 8.26318C43.399 6.96627 43.982 6.23323 44.2453 5.03029C44.1137 4.61678 39.7692 3.43264 39.111 3.28227C33.9202 2.13572 28.1464 2.28609 23.1249 4.12809C25.4946 5.23704 24.1405 8.62031 24.5166 10.7254C24.5919 10.9698 26.0776 11.3081 26.4538 11.5337C27.8079 12.3231 27.8831 14.5034 26.7923 15.556C25.6451 16.6837 22.3726 18.8453 20.8869 19.7851C20.6236 19.9542 19.7772 20.5557 19.5327 20.5557H15.4704V23.9953L15.508 23.939Z" fill="#592D89"/>
<path d="M52.9716 2.54865C49.2854 3.13133 49.9812 8.99564 53.9308 8.50695C57.7674 8.01826 57.0527 1.90959 52.9716 2.54865ZM54.5138 10.3865L54.4762 17.7733C54.2881 18.6379 52.9904 18.7507 52.5954 17.9613L52.4826 10.3865C46.9533 9.27758 47.3671 1.06378 52.9528 0.518697C59.2344 -0.0827718 60.6637 9.03323 54.5138 10.3865Z" fill="#592D89"/>
<path d="M10.9755 4.54158C7.28929 5.12425 7.98515 10.9886 11.9347 10.4999C15.7713 10.0112 15.0566 3.90252 10.9755 4.54158ZM12.5177 12.3983L12.4801 19.785C12.292 20.6497 10.9943 20.7624 10.5993 19.973L10.4865 12.3983C4.9572 11.2893 5.37096 3.0755 10.9567 2.53042C17.2383 1.92895 18.6676 11.045 12.5177 12.3983Z" fill="#592D89"/>
<path d="M23.9716 25.5369C20.2854 26.1196 20.9812 31.9839 24.9308 31.4952C28.7674 31.0065 28.0527 24.8979 23.9716 25.5369ZM25.5138 33.3748L25.4762 40.7616C25.2881 41.6262 23.9904 41.739 23.5954 40.9496L23.4826 33.3748C17.9533 32.2659 18.3671 24.0521 23.9528 23.507C30.2344 22.9055 31.6637 32.0215 25.5138 33.3748Z" fill="#592D89"/>
</g>
</g>
<defs>
<clipPath id="clip0_1520_2322">
<rect width="64.0195" height="64" fill="white" transform="translate(0.480469 0.5)"/>
</clipPath>
</defs>
</svg>
