<svg width="65" height="65" viewBox="0 0 65 65" fill="none" xmlns="http://www.w3.org/2000/svg">
<mask id="mask0_1520_606" style="mask-type:luminance" maskUnits="userSpaceOnUse" x="0" y="0" width="65" height="65">
<path d="M64.5195 0.5H0.5V64.5H64.5195V0.5Z" fill="white"/>
</mask>
<g mask="url(#mask0_1520_606)">
<path d="M38.1277 48.1178H33.9444L33.7489 48.3133V61.9968H38.1277V48.1178ZM31.2663 61.9968V48.3133L31.0709 48.1178H26.8876V61.9968H31.2663ZM45.6341 42.7421C38.9096 40.7873 32.0483 40.064 25.1087 41.276C23.1539 41.6279 21.2773 42.1752 19.3812 42.7421V61.9968H24.3855V48.3133C23.6426 47.805 22.4307 48.6065 21.9811 47.4727C21.5901 46.5344 22.1374 45.7916 23.0758 45.6352C29.077 45.9675 35.6451 45.1465 41.5681 45.6352C42.6237 45.7134 43.4447 46.2021 43.0733 47.3945C42.6824 48.6065 41.3726 47.8246 40.6298 48.3328V62.0164H45.6341V42.7617V42.7421ZM45.6341 35.2553C37.0916 32.6554 27.865 32.284 19.3812 35.2553V40.1227C26.438 37.8551 33.8858 37.601 41.1381 39.0476C42.6433 39.3408 44.1289 39.8295 45.6341 40.1227V35.2553ZM45.6341 27.7488C37.1698 25.149 27.7477 24.6603 19.3812 27.8075V32.6163C27.8845 29.7818 37.0916 30.1337 45.6341 32.6163V27.7488ZM59.5131 24.367H55.7599V61.9968H59.5131V24.367ZM9.25535 24.367H5.50214V61.9968H9.25535V24.367ZM45.6341 25.1294V20.3206C45.2431 20.0274 44.6567 19.9297 44.168 19.7928C37.7172 17.9358 30.4453 17.5644 23.8772 18.9327C22.3525 19.2455 20.8864 19.7733 19.3812 20.1251V24.9926C20.6714 24.7385 21.942 24.3084 23.2321 24.0347C30.6799 22.4318 38.3623 22.9596 45.6341 25.1294ZM53.2578 17.9944C51.4985 18.835 50.0128 20.2229 48.2535 21.1221V61.9968H53.2578V17.9944ZM16.7618 21.1221C15.0024 20.2229 13.5168 18.835 11.7575 17.9944V61.9968H16.7618V21.1221ZM45.6341 12.6187C39.1833 10.7812 32.5174 9.97975 25.8516 11.0353C23.6426 11.3872 21.5119 11.9932 19.3812 12.6187V17.4862C26.8094 15.1795 34.5504 15.0231 42.135 16.6651C43.3079 16.9193 44.4808 17.2516 45.6341 17.6034V12.5992V12.6187ZM45.6341 5.11231C37.0721 2.51243 27.8845 2.14102 19.3812 5.11231V9.97975C27.9432 7.18439 37.033 7.57535 45.6341 9.97975V5.11231ZM48.2731 18.1312L54.1765 14.3389C54.7043 14.0457 55.7795 14.8276 55.7795 15.3163V21.8845H61.2138C61.4288 21.8845 62.0348 22.6468 62.0348 22.8228V62.0164C62.5626 62.0555 63.1295 61.9382 63.6573 62.075C64.7715 62.3683 64.8302 64.0494 63.755 64.4208L1.70984 64.5185C0.712892 64.4403 0.185097 63.4043 0.751988 62.5442C1.24069 61.7818 2.25718 62.0555 3.01955 62.0164V22.8032C3.01955 22.6273 3.60599 21.8649 3.84056 21.8649H9.2749V15.2968C9.2749 14.8081 10.35 14.0262 10.8778 14.3194L16.7813 18.1117V4.31084C16.7813 3.93943 17.1527 3.35299 17.5046 3.15751C18.1888 2.747 19.9481 2.2974 20.7886 2.06283C28.6274 -0.146093 36.4856 0.0884828 44.3244 2.16057C45.1063 2.37559 47.0611 2.8252 47.6671 3.19661C47.9407 3.37254 48.2926 4.01762 48.2926 4.31084V18.1312H48.2731Z" fill="#592B8A"/>
</g>
</svg>
