<svg width="60" height="65" viewBox="0 0 60 65" fill="none" xmlns="http://www.w3.org/2000/svg">
<g clip-path="url(#clip0_1503_2487)">
<mask id="mask0_1503_2487" style="mask-type:luminance" maskUnits="userSpaceOnUse" x="0" y="0" width="61" height="65">
<path d="M60.0078 0.5H0.0078125V64.5H60.0078V0.5Z" fill="white"/>
</mask>
<g mask="url(#mask0_1503_2487)">
<path d="M2.03325 60.7491C1.72166 60.8663 1.78008 62.4292 1.95535 62.5464L57.7879 62.605L58.1384 62.4878L58.08 60.7882L2.03325 60.7491ZM37.0284 42.229H30.9524V58.8541H37.0284V51.0397C37.0284 50.0239 38.7811 50.0238 38.7811 50.7858V58.8541H54.672V42.229H38.7811V47.1716C38.7811 47.3865 38.1189 47.7772 37.8073 47.7186C37.5152 47.66 37.0089 47.0934 37.0089 46.8004V42.229H37.0284ZM29.0829 42.229H23.007V58.8541H29.0829V42.229ZM21.2348 42.229H5.34386V58.8541H21.2348V42.229ZM58.1774 36.4854H1.83851V40.3535H58.1968V36.4854H58.1774ZM57.3594 34.6099L55.1978 30.859L54.8473 30.7223H5.05175L4.81806 30.859L2.65642 34.6099H57.3789H57.3594ZM54.672 15.8554H44.9739V28.8468H54.672V15.8554ZM43.1043 15.8554H41.4685C40.4753 21.1301 35.9768 25.2717 30.9524 25.6038V28.8468H43.1043V15.8554ZM18.5474 15.8554H16.9115V28.8468H29.0634V25.6038C24.0196 25.2522 19.5406 21.1496 18.5474 15.8554ZM15.042 15.8554H5.34386V28.8468H15.042V15.8554ZM41.819 13.9799H58.0021C58.2942 13.5892 58.2942 12.5147 58.0021 12.1044H41.819V13.9799ZM18.1968 12.124H2.01377C1.74113 12.5147 1.72166 13.5892 2.01377 13.9994H18.1968V12.124ZM1.54639 15.8554C0.88427 15.7186 0.163725 14.6441 0.0858281 13.9213C-0.0894397 12.163 0.202673 10.4048 2.13062 10.229H18.4889C18.8005 9.38893 18.9953 8.49027 19.3653 7.65022C19.7353 6.81017 21.3127 4.17281 22.0917 3.93838C22.8317 3.70395 23.2991 4.52446 23.1043 5.26683C23.0654 5.38404 21.8969 6.75156 21.6827 7.12275C15.3341 17.3987 27.7002 29.1203 36.4052 21.3645C45.4607 13.2961 36.4052 -1.78568 25.7528 3.37183C24.9933 3.3523 24.5259 2.72714 24.896 1.96524C25.1881 1.37916 26.746 0.988438 27.3497 0.851686C33.8736 -0.711196 39.8716 3.48905 41.5464 10.268H57.9047C58.82 10.3267 59.6379 10.9323 59.8716 11.9091C60.0469 12.7296 60.0664 14.2339 59.599 14.9567C59.4627 15.1716 58.6837 15.8944 58.4889 15.8944H56.4442V29.5892L59.9495 35.4695C59.7742 37.0519 60.2221 39.3181 59.93 40.8028C59.7937 41.4866 58.9174 42.268 58.2553 42.268H56.4442V58.8932H58.3721C59.0537 58.8932 59.8716 60.1044 59.9495 60.8273C60.1053 62.2729 60.0079 63.7577 58.6058 64.4024C39.7353 64.6759 20.8064 64.4414 1.89693 64.5196C0.124776 64.1679 -0.0894397 62.4878 0.0858281 60.8273C0.163725 60.1044 0.981641 58.8932 1.66324 58.8932H3.59118V42.268H1.78008C1.13743 42.268 0.241622 41.4866 0.105302 40.8028C-0.186811 39.3181 0.261096 37.0324 0.105302 35.4695L3.61066 29.5892V15.8944C3.00696 15.8163 2.13062 16.0116 1.56587 15.8944" fill="#592B8A"/>
<path d="M25.967 18.2378H34.0293L34.1851 17.9643L33.2698 9.99364H32.6855C33.1724 12.7873 30.5044 12.6896 30.9329 9.99364H29.0633C29.4918 12.6896 26.8238 12.7873 27.3107 9.99364H26.7264L25.8112 17.9643L25.967 18.2378ZM30.9523 8.11818C31.4197 5.20731 28.6154 5.20731 29.0828 8.11818H30.9523ZM27.3107 6.30133C27.6417 4.15237 30.5629 3.33185 31.9845 4.95334C32.1597 5.1487 32.6855 6.08643 32.6855 6.30133V8.11818C34.0293 8.0205 34.7498 8.37215 35.003 9.81781C35.4898 12.4942 35.4898 15.4637 35.9377 18.1597C35.8209 19.156 35.2367 20.0156 34.263 20.1133C31.5171 20.3868 28.3818 19.8984 25.5969 20.1133C24.6427 19.9179 24.0974 19.0583 24.0195 18.0425L25.1101 9.19266C25.4411 8.19632 26.4149 8.0205 27.2912 8.09864C27.3496 7.5321 27.2133 6.80926 27.2912 6.28179" fill="#592B8A"/>
<path d="M51.1676 47.4842H42.2874V53.4232L42.4626 53.6186H51.1676V47.5038V47.4842ZM41.781 45.6479C44.8385 45.8237 48.3244 45.3157 51.3429 45.6088C52.1608 45.6869 52.8229 46.2925 52.9203 47.1717C53.0761 48.5587 53.0761 52.4073 52.9203 53.7944C52.8229 54.7516 52.1413 55.4549 51.226 55.494C48.3633 55.2791 45.1695 55.7675 42.3263 55.494C41.1384 55.3768 40.6126 54.6344 40.5152 53.4232C40.4178 52.212 40.3594 47.8164 40.671 46.8396C40.8657 46.2144 41.1968 45.8432 41.781 45.6479Z" fill="#592B8A"/>
<path d="M17.7302 47.4848H8.84999V53.5996H17.555L17.7302 53.4042V47.4653V47.4848ZM8.34366 45.6484L18.0223 45.6094C19.0545 45.7657 19.405 46.6839 19.4829 47.6607C19.5997 49.1454 19.5997 51.9195 19.4829 53.4238C19.3855 54.635 18.8403 55.3774 17.6718 55.4946C14.8091 55.7681 11.5764 55.2797 8.67472 55.4946C7.81786 55.3969 7.19468 54.7327 7.09731 53.8145C6.94152 52.4274 6.94152 48.5593 7.09731 47.1918C7.17521 46.5276 7.73996 45.7852 8.36314 45.668" fill="#592B8A"/>
</g>
</g>
<defs>
<clipPath id="clip0_1503_2487">
<rect width="60" height="64" fill="white" transform="translate(0.0078125 0.5)"/>
</clipPath>
</defs>
</svg>
