<svg width="65" height="65" viewBox="0 0 65 65" fill="none" xmlns="http://www.w3.org/2000/svg">
<g clip-path="url(#clip0_1503_2478)">
<mask id="mask0_1503_2478" style="mask-type:luminance" maskUnits="userSpaceOnUse" x="-1" y="0" width="66" height="65">
<path d="M64.0117 0.5H-0.0078125V64.5H64.0117V0.5Z" fill="white"/>
</mask>
<g mask="url(#mask0_1503_2478)">
<path d="M37.6199 48.1178H33.4366L33.2411 48.3133V61.9968H37.6199V48.1178ZM30.7585 61.9968V48.3133L30.5631 48.1178H26.3798V61.9968H30.7585ZM45.1263 42.7421C38.4018 40.7873 31.5404 40.064 24.6009 41.276C22.6461 41.6279 20.7695 42.1752 18.8734 42.7421V61.9968H23.8777V48.3133C23.1348 47.805 21.9229 48.6065 21.4733 47.4727C21.0823 46.5344 21.6296 45.7916 22.5679 45.6352C28.5692 45.9675 35.1373 45.1465 41.0603 45.6352C42.1159 45.7134 42.9369 46.2021 42.5655 47.3945C42.1745 48.6065 40.8648 47.8246 40.122 48.3328V62.0164H45.1263V42.7617V42.7421ZM45.1263 35.2553C36.5838 32.6554 27.3572 32.284 18.8734 35.2553V40.1227C25.9302 37.8551 33.378 37.601 40.6302 39.0476C42.1354 39.3408 43.6211 39.8295 45.1263 40.1227V35.2553ZM45.1263 27.7488C36.662 25.149 27.2399 24.6603 18.8734 27.8075V32.6163C27.3767 29.7818 36.5838 30.1337 45.1263 32.6163V27.7488ZM59.0053 24.367H55.2521V61.9968H59.0053V24.367ZM8.74754 24.367H4.99433V61.9968H8.74754V24.367ZM45.1263 25.1294V20.3206C44.7353 20.0274 44.1489 19.9297 43.6602 19.7928C37.2094 17.9358 29.9375 17.5644 23.3694 18.9327C21.8447 19.2455 20.3786 19.7733 18.8734 20.1251V24.9926C20.1635 24.7385 21.4342 24.3084 22.7243 24.0347C30.1721 22.4318 37.8544 22.9596 45.1263 25.1294ZM52.75 17.9944C50.9907 18.835 49.505 20.2229 47.7457 21.1221V61.9968H52.75V17.9944ZM16.254 21.1221C14.4946 20.2229 13.009 18.835 11.2497 17.9944V61.9968H16.254V21.1221ZM45.1263 12.6187C38.6755 10.7812 32.0096 9.97975 25.3437 11.0353C23.1348 11.3872 21.0041 11.9932 18.8734 12.6187V17.4862C26.3016 15.1795 34.0426 15.0231 41.6272 16.6651C42.8001 16.9193 43.9729 17.2516 45.1263 17.6034V12.5992V12.6187ZM45.1263 5.11231C36.5643 2.51243 27.3767 2.14102 18.8734 5.11231V9.97975C27.4354 7.18439 36.5252 7.57535 45.1263 9.97975V5.11231ZM47.7653 18.1312L53.6687 14.3389C54.1965 14.0457 55.2717 14.8276 55.2717 15.3163V21.8845H60.706C60.921 21.8845 61.527 22.6468 61.527 22.8228V62.0164C62.0548 62.0555 62.6217 61.9382 63.1495 62.075C64.2637 62.3683 64.3224 64.0494 63.2472 64.4208L1.20203 64.5185C0.20508 64.4403 -0.322715 63.4043 0.244176 62.5442C0.732874 61.7818 1.74937 62.0555 2.51174 62.0164V22.8032C2.51174 22.6273 3.09818 21.8649 3.33275 21.8649H8.76708V15.2968C8.76708 14.8081 9.84222 14.0262 10.37 14.3194L16.2735 18.1117V4.31084C16.2735 3.93943 16.6449 3.35299 16.9968 3.15751C17.681 2.747 19.4403 2.2974 20.2808 2.06283C28.1196 -0.146093 35.9778 0.0884828 43.8166 2.16057C44.5985 2.37559 46.5533 2.8252 47.1593 3.19661C47.4329 3.37254 47.7848 4.01762 47.7848 4.31084V18.1312H47.7653Z" fill="#592B8A"/>
</g>
</g>
<defs>
<clipPath id="clip0_1503_2478">
<rect width="64.0195" height="64" fill="white" transform="translate(-0.0078125 0.5)"/>
</clipPath>
</defs>
</svg>
