<svg width="115" height="49" viewBox="0 0 115 49" fill="none" xmlns="http://www.w3.org/2000/svg">
<path d="M108.845 46.5419L91.8095 0.0820312H91.5164L87.9994 9.57936L81.6614 26.9239C79.4266 24.9804 76.3125 23.8437 72.3558 23.2936H71.0736L72.2093 23.147C78.6938 22.0469 83.0535 17.9766 83.0535 13.0629C83.0535 6.35247 76.7155 1.73215 67.5565 1.73215H48.6891V2.0255H54.1845V36.7146L40.9589 0.0820312H40.6658L37.1488 9.57936L23.6301 46.3586H8.1698L34.0714 1.91549L34.2179 1.62214H2.52788V15.4831H2.82096C2.82096 8.77263 6.741 2.06217 15.497 2.06217H26.0481L0 46.9453H35.2071V33.671H34.914C34.914 39.5381 31.5435 45.1485 24.2163 46.3952H23.9232L29.4186 31.2875H44.9156L50.5575 46.5419H45.0621V46.8353H66.7506V46.5419H61.2552V23.4403H67.5932C74.0777 23.4403 77.8512 26.3739 77.8512 31.4342V37.1546L74.4807 46.5419H69.9745V46.8353H79.28V46.5419H74.7738L77.8512 37.998V38.1447L77.9978 38.9881L78.1443 39.5381C78.6938 42.765 79.8296 45.0018 81.8079 46.3952L82.101 46.5419C83.4931 47.532 85.3249 48.082 87.3033 48.082C89.9777 48.082 91.8095 47.3853 93.3482 45.8452L93.2017 45.6985C91.8095 46.9453 90.6738 47.532 89.245 47.532C86.7171 47.532 85.4349 44.5985 85.4349 41.6649V35.9445C85.4349 34.5511 85.1418 33.1577 84.7388 31.7642V31.6176H96.1325L101.774 46.8719H96.2791V47.1286H115V46.8719L108.809 46.5786L108.845 46.5419ZM29.5651 30.9942L37.1854 10.1294L44.769 30.9942H29.5651ZM61.2552 23.1836V1.91549H66.201C72.6856 1.91549 76.2026 5.8391 76.2026 12.9896C76.2026 20.6901 74.2243 23.0736 67.7397 23.0736H61.2552V23.2203V23.1836ZM84.4823 30.9942C83.9328 29.7474 83.2001 28.6107 82.2109 27.6573L81.9178 27.3639L88.2558 10.1661L95.7295 30.8842L84.4823 31.0308V30.9942Z" fill="white"/>
</svg>
