<svg width="94" height="95" viewBox="0 0 94 95" fill="none" xmlns="http://www.w3.org/2000/svg">
<rect y="0.234375" width="94" height="94" rx="47" fill="url(#paint0_linear_1845_5595)"/>
<path d="M36.0905 43.8804C36.3425 43.8804 36.4685 43.9884 36.4685 44.2044V45.5184C36.4685 45.7464 36.3485 45.8724 36.1085 45.8964C36.0125 45.9084 35.9285 45.9144 35.8565 45.9144C35.7845 45.9144 35.7305 45.9144 35.6945 45.9144C34.1585 45.9144 33.0185 45.5484 32.2745 44.8164C31.5425 44.0964 31.1765 42.9744 31.1765 41.4504C31.1765 41.1264 31.1885 40.7664 31.2125 40.3704C31.2485 39.9624 31.2785 39.6324 31.3025 39.3804C31.3385 39.1284 31.4825 39.0024 31.7345 39.0024C31.8905 38.9904 32.0945 38.9844 32.3465 38.9844C32.5985 38.9844 32.8505 38.9844 33.1025 38.9844H33.4985L32.1665 35.4744C32.1305 35.4144 32.1065 35.3364 32.0945 35.2404C32.0825 35.1324 32.0825 35.0484 32.0945 34.9884L32.1305 34.0704C32.1425 33.9144 32.2565 33.7464 32.4725 33.5664C32.6885 33.3984 32.9525 33.2424 33.2645 33.0984C33.5765 32.9544 33.9065 32.8284 34.2545 32.7204C34.6145 32.6124 34.9805 32.5284 35.3525 32.4684C35.7245 32.4084 36.0845 32.3784 36.4325 32.3784C37.0325 32.3784 37.5965 32.4444 38.1245 32.5764C38.6525 32.6964 39.1085 32.9004 39.4925 33.1884C39.8885 33.4644 40.2005 33.8364 40.4285 34.3044C40.6565 34.7604 40.7705 35.3184 40.7705 35.9784V36.3744C40.7705 36.6144 40.7465 36.8604 40.6985 37.1124C40.6625 37.3644 40.6025 37.6104 40.5185 37.8504C40.4465 38.0784 40.3505 38.2884 40.2305 38.4804C40.1225 38.6724 39.9965 38.8224 39.8525 38.9304H42.0665V41.2344H34.8125C34.7285 41.2344 34.6265 41.2344 34.5065 41.2344C34.3985 41.2344 34.2785 41.2344 34.1465 41.2344C34.0265 41.2344 33.9065 41.2344 33.7865 41.2344C33.6665 41.2464 33.5645 41.2524 33.4805 41.2524C33.4805 41.3124 33.4745 41.4024 33.4625 41.5224C33.4625 41.6424 33.4625 41.7324 33.4625 41.7924C33.4865 42.4764 33.6905 42.9924 34.0745 43.3404C34.4585 43.7004 35.0585 43.8804 35.8745 43.8804H36.0905ZM36.8465 38.9844C37.1345 38.9364 37.3805 38.8344 37.5845 38.6784C37.7885 38.5224 37.9565 38.3304 38.0885 38.1024C38.2325 37.8744 38.3345 37.6224 38.3945 37.3464C38.4665 37.0704 38.5025 36.7824 38.5025 36.4824V36.3204C38.5025 35.0484 37.8125 34.4124 36.4325 34.4124C36.1565 34.4124 35.8325 34.4424 35.4605 34.5024C35.0885 34.5504 34.7165 34.6944 34.3445 34.9344L35.9285 38.9844H36.8465ZM42.4653 43.2144C42.4653 43.0944 42.5073 42.9924 42.5913 42.9084C42.6753 42.8364 42.7713 42.8004 42.8793 42.8004H44.2653C44.3853 42.8004 44.4873 42.8364 44.5713 42.9084C44.6673 42.9924 44.7153 43.0944 44.7153 43.2144V44.6544C44.7153 44.7504 44.6673 44.8344 44.5713 44.9064C44.4873 44.9904 44.3853 45.0324 44.2653 45.0324H42.8793C42.7713 45.0324 42.6753 44.9904 42.5913 44.9064C42.5073 44.8344 42.4653 44.7504 42.4653 44.6544V43.2144ZM41.3493 39.1464C41.3493 39.0864 41.4153 39.0384 41.5473 39.0024C41.6793 38.9544 41.8113 38.9304 41.9433 38.9304H43.0773C43.3653 38.9304 43.5573 38.9064 43.6533 38.8584C43.7493 38.7984 43.7973 38.6244 43.7973 38.3364C43.7973 37.6524 43.7973 36.9384 43.7973 36.1944C43.7973 35.4504 43.7853 34.6464 43.7613 33.7824C43.7613 33.6864 43.7913 33.6084 43.8513 33.5484C43.9233 33.4764 44.0133 33.4404 44.1213 33.4404H45.6333C45.7653 33.4404 45.8613 33.4764 45.9213 33.5484C45.9813 33.6084 46.0173 33.6864 46.0293 33.7824C46.0413 34.1664 46.0473 34.5084 46.0473 34.8084C46.0593 35.0964 46.0653 35.3724 46.0653 35.6364C46.0653 35.9004 46.0653 36.1644 46.0653 36.4284C46.0653 36.6924 46.0653 36.9864 46.0653 37.3104C46.0653 38.0784 46.0593 38.7264 46.0473 39.2544C46.0473 39.7704 46.0293 40.1904 45.9933 40.5144C45.9693 40.6344 45.9273 40.7364 45.8673 40.8204C45.8193 40.9044 45.7233 40.9764 45.5793 41.0364C45.4473 41.0724 45.2673 41.1024 45.0393 41.1264C44.8233 41.1504 44.5773 41.1744 44.3013 41.1984C44.0373 41.2104 43.7613 41.2224 43.4733 41.2344C43.1853 41.2344 42.9213 41.2344 42.6813 41.2344H41.9433C41.8113 41.2344 41.6793 41.2164 41.5473 41.1804C41.4153 41.1444 41.3493 41.0904 41.3493 41.0184V39.1464ZM46.7295 43.7904C46.7295 43.6104 46.8315 43.5204 47.0355 43.5204H47.4135C47.7495 43.5204 48.0315 43.5024 48.2595 43.4664C48.4995 43.4424 48.6915 43.3764 48.8355 43.2684C48.9795 43.1604 49.0815 42.9984 49.1415 42.7824C49.2135 42.5784 49.2495 42.2904 49.2495 41.9184V33.8364C49.2495 33.7404 49.2795 33.6624 49.3395 33.6024C49.4115 33.5304 49.5015 33.4944 49.6095 33.4944H51.1755C51.2715 33.4944 51.3495 33.5304 51.4095 33.6024C51.4815 33.6624 51.5175 33.7404 51.5175 33.8364V38.9304H53.1195V41.2344H51.4635V42.0804C51.4635 42.4884 51.4335 42.8664 51.3735 43.2144C51.3255 43.5624 51.2355 43.8624 51.1035 44.1144C50.8275 44.6304 50.4495 44.9904 49.9695 45.1944C49.4895 45.4104 48.8715 45.5184 48.1155 45.5184C48.0195 45.5184 47.8455 45.5124 47.5935 45.5004C47.3415 45.5004 47.1375 45.4884 46.9815 45.4644C46.8135 45.4284 46.7295 45.3144 46.7295 45.1224V43.7904ZM52.406 39.1464C52.406 39.0864 52.472 39.0384 52.604 39.0024C52.736 38.9544 52.868 38.9304 53 38.9304H54.224C54.512 38.9304 54.698 38.9064 54.782 38.8584C54.878 38.7984 54.926 38.6244 54.926 38.3364V27.9144C54.926 27.8064 54.962 27.7164 55.034 27.6444C55.106 27.5724 55.19 27.5364 55.286 27.5364H56.924C57.02 27.5364 57.098 27.5724 57.158 27.6444C57.23 27.7164 57.266 27.8064 57.266 27.9144V38.3724C57.266 38.6964 57.26 39.0564 57.248 39.4524C57.236 39.8364 57.212 40.1904 57.176 40.5144C57.152 40.6344 57.11 40.7364 57.05 40.8204C57.002 40.9044 56.906 40.9764 56.762 41.0364C56.63 41.0724 56.444 41.1024 56.204 41.1264C55.976 41.1504 55.724 41.1744 55.448 41.1984C55.172 41.2104 54.884 41.2224 54.584 41.2344C54.296 41.2344 54.032 41.2344 53.792 41.2344H53C52.868 41.2344 52.736 41.2164 52.604 41.1804C52.472 41.1444 52.406 41.0904 52.406 41.0184V39.1464ZM60.0328 27.8964C60.0328 27.8004 60.0628 27.7164 60.1228 27.6444C60.1948 27.5724 60.2848 27.5364 60.3928 27.5364H62.0128C62.1208 27.5364 62.2048 27.5724 62.2648 27.6444C62.3368 27.7164 62.3728 27.8004 62.3728 27.8964V40.8564C62.3728 40.9524 62.3368 41.0424 62.2648 41.1264C62.2048 41.1984 62.1208 41.2344 62.0128 41.2344H60.3928C60.2848 41.2344 60.1948 41.1984 60.1228 41.1264C60.0628 41.0424 60.0328 40.9524 60.0328 40.8564V27.8964ZM30.1644 60.8704C30.3684 60.8704 30.4704 60.9904 30.4704 61.2304C30.4464 61.4944 30.4284 61.7584 30.4164 62.0224C30.4044 62.2744 30.3984 62.4904 30.3984 62.6704C30.3984 63.3424 30.4404 63.9544 30.5244 64.5064C30.6204 65.0464 30.7944 65.5144 31.0464 65.9104C31.3104 66.2944 31.6824 66.5944 32.1624 66.8104C32.6544 67.0264 33.2964 67.1344 34.0884 67.1344C34.2924 67.1344 34.5144 67.1284 34.7544 67.1164C34.9944 67.1044 35.2164 67.0744 35.4204 67.0264C35.4324 66.4384 35.4384 65.9284 35.4384 65.4964C35.4504 65.0644 35.4564 64.5964 35.4564 64.0924V52.9144C35.4564 52.8064 35.4924 52.7164 35.5644 52.6444C35.6364 52.5724 35.7204 52.5364 35.8164 52.5364H37.4364C37.5324 52.5364 37.6164 52.5724 37.6884 52.6444C37.7604 52.7164 37.7964 52.8064 37.7964 52.9144V65.4604C37.7964 65.6284 37.7904 65.8624 37.7784 66.1624C37.7784 66.4504 37.7724 66.7504 37.7604 67.0624C37.7484 67.3864 37.7364 67.6924 37.7244 67.9804C37.7244 68.2804 37.7184 68.5144 37.7064 68.6824C37.6944 68.8984 37.5624 69.0304 37.3104 69.0784C36.8424 69.1864 36.3204 69.2704 35.7444 69.3304C35.1804 69.3904 34.6224 69.4204 34.0704 69.4204C32.0664 69.4204 30.5844 68.9584 29.6244 68.0344C28.6764 67.1104 28.2024 65.6764 28.2024 63.7324C28.2024 63.6004 28.2084 63.4324 28.2204 63.2284C28.2324 63.0124 28.2444 62.7844 28.2564 62.5444C28.2804 62.3044 28.3044 62.0704 28.3284 61.8424C28.3524 61.6024 28.3824 61.3924 28.4184 61.2124C28.4424 61.0924 28.4784 61.0084 28.5264 60.9604C28.5744 60.9004 28.6584 60.8704 28.7784 60.8704H30.1644ZM40.7718 68.7724C40.7718 68.5684 40.8798 68.4664 41.0958 68.4664H42.7338C43.2018 68.4664 43.6098 68.4424 43.9578 68.3944C44.3178 68.3464 44.6118 68.2564 44.8398 68.1244C45.0798 68.0044 45.2598 67.8364 45.3798 67.6204C45.4998 67.4044 45.5658 67.1224 45.5778 66.7744L45.5958 65.9464C45.5118 66.0064 45.4038 66.0544 45.2718 66.0904C45.1398 66.1264 45.0018 66.1564 44.8578 66.1804C44.7138 66.2044 44.5698 66.2224 44.4258 66.2344C44.2938 66.2344 44.1738 66.2344 44.0658 66.2344C42.8418 66.2344 41.8758 65.9044 41.1678 65.2444C40.4598 64.5724 40.1058 63.5824 40.1058 62.2744V61.9144C40.1058 60.4984 40.5198 59.4064 41.3478 58.6384C42.1878 57.8584 43.3818 57.4684 44.9298 57.4684C45.1578 57.4684 45.3978 57.4804 45.6498 57.5044C45.9138 57.5164 46.1658 57.5344 46.4058 57.5584C46.6458 57.5824 46.8678 57.6124 47.0718 57.6484C47.2878 57.6844 47.4618 57.7264 47.5938 57.7744C47.7258 57.8224 47.8098 57.8704 47.8458 57.9184C47.8818 57.9544 47.8998 58.0204 47.8998 58.1164V66.3244C47.8998 67.2004 47.7738 67.9084 47.5218 68.4484C47.2698 69.0004 46.9278 69.4264 46.4958 69.7264C46.0638 70.0384 45.5658 70.2484 45.0018 70.3564C44.4378 70.4644 43.8438 70.5184 43.2198 70.5184C43.1118 70.5184 42.9498 70.5184 42.7338 70.5184C42.5298 70.5184 42.3138 70.5124 42.0858 70.5004C41.8578 70.4884 41.6478 70.4764 41.4558 70.4644C41.2638 70.4644 41.1318 70.4524 41.0598 70.4284C40.9398 70.4044 40.8618 70.3624 40.8258 70.3024C40.7898 70.2544 40.7718 70.1824 40.7718 70.0864V68.7724ZM45.6318 59.6104C45.2838 59.5744 44.9178 59.5564 44.5338 59.5564C43.8378 59.5564 43.3038 59.7484 42.9318 60.1324C42.5598 60.5164 42.3738 61.0564 42.3738 61.7524V61.9864C42.3738 62.6704 42.5238 63.1804 42.8238 63.5164C43.1238 63.8404 43.6098 64.0024 44.2818 64.0024C44.6658 64.0024 44.9838 63.9784 45.2358 63.9304C45.4998 63.8824 45.6318 63.7444 45.6318 63.5164V59.6104ZM52.1936 54.5884C52.1936 54.4804 52.2236 54.3904 52.2836 54.3184C52.3556 54.2464 52.4456 54.2104 52.5536 54.2104H54.1196C54.2276 54.2104 54.3116 54.2464 54.3716 54.3184C54.4316 54.3904 54.4616 54.4804 54.4616 54.5884V62.2024C54.4616 62.3104 54.4256 62.4004 54.3536 62.4724C54.2936 62.5444 54.2156 62.5804 54.1196 62.5804H52.5356C52.4396 62.5804 52.3556 62.5444 52.2836 62.4724C52.2236 62.4004 52.1936 62.3104 52.1936 62.2024V54.5884ZM50.0696 64.2544C50.0696 64.1584 50.0996 64.0804 50.1596 64.0204C50.2316 63.9604 50.3156 63.9304 50.4116 63.9304H57.0536C57.3416 63.9304 57.5276 63.9064 57.6116 63.8584C57.7076 63.7984 57.7556 63.6244 57.7556 63.3364V52.8964C57.7556 52.8004 57.7916 52.7164 57.8636 52.6444C57.9356 52.5724 58.0196 52.5364 58.1156 52.5364H59.7536C59.8496 52.5364 59.9276 52.5724 59.9876 52.6444C60.0596 52.7164 60.0956 52.8004 60.0956 52.8964V63.3724C60.0956 63.8284 60.0836 64.2244 60.0596 64.5604C60.0476 64.8844 60.0296 65.2024 60.0056 65.5144C59.9816 65.6344 59.9456 65.7364 59.8976 65.8204C59.8496 65.9044 59.7536 65.9764 59.6096 66.0364C59.4776 66.0724 59.2856 66.1024 59.0336 66.1264C58.7816 66.1504 58.5056 66.1744 58.2056 66.1984C57.9176 66.2104 57.6116 66.2224 57.2876 66.2344C56.9756 66.2344 56.6936 66.2344 56.4416 66.2344H50.4116C50.3156 66.2344 50.2316 66.2044 50.1596 66.1444C50.0996 66.0844 50.0696 66.0064 50.0696 65.9104V64.2544ZM51.9236 52.8964C51.7316 52.8964 51.6356 52.8244 51.6356 52.6804V52.1584C51.6356 52.0384 51.7316 51.9784 51.9236 51.9784H52.2656C52.1696 51.8344 52.0976 51.6724 52.0496 51.4924C52.0016 51.3124 51.9776 51.1324 51.9776 50.9524C51.9776 49.9444 52.5776 49.4404 53.7776 49.4404C53.8736 49.4404 53.9996 49.4464 54.1556 49.4584C54.3236 49.4704 54.4796 49.5004 54.6236 49.5484C54.7556 49.5724 54.8216 49.6324 54.8216 49.7284V50.2144C54.8216 50.3344 54.7436 50.3944 54.5876 50.3944H53.9576C53.6456 50.3944 53.4176 50.4484 53.2736 50.5564C53.1296 50.6644 53.0576 50.8504 53.0576 51.1144C53.0576 51.3184 53.0936 51.4984 53.1656 51.6544C53.2376 51.7984 53.3276 51.9004 53.4356 51.9604H54.6956C54.8876 51.9604 54.9836 52.0204 54.9836 52.1404V52.6804C54.9836 52.8244 54.8876 52.8964 54.6956 52.8964H51.9236ZM62.8629 52.8964C62.8629 52.8004 62.8929 52.7164 62.9529 52.6444C63.0249 52.5724 63.1149 52.5364 63.2229 52.5364H64.8429C64.9509 52.5364 65.0349 52.5724 65.0949 52.6444C65.1669 52.7164 65.2029 52.8004 65.2029 52.8964V65.8564C65.2029 65.9524 65.1669 66.0424 65.0949 66.1264C65.0349 66.1984 64.9509 66.2344 64.8429 66.2344H63.2229C63.1149 66.2344 63.0249 66.1984 62.9529 66.1264C62.8929 66.0424 62.8629 65.9524 62.8629 65.8564V52.8964Z" fill="#BB7FFF"/>
<defs>
<linearGradient id="paint0_linear_1845_5595" x1="11.1625" y1="78.9594" x2="94" y2="36.6594" gradientUnits="userSpaceOnUse">
<stop stop-color="#20113E"/>
<stop offset="1" stop-color="#592B8A"/>
</linearGradient>
</defs>
</svg>
