<svg width="94" height="95" viewBox="0 0 94 95" fill="none" xmlns="http://www.w3.org/2000/svg">
<rect y="0.234375" width="94" height="94" rx="47" fill="url(#paint0_linear_1845_5599)"/>
<path d="M36.0905 43.8804C36.3425 43.8804 36.4685 43.9884 36.4685 44.2044V45.5184C36.4685 45.7464 36.3485 45.8724 36.1085 45.8964C36.0125 45.9084 35.9285 45.9144 35.8565 45.9144C35.7845 45.9144 35.7305 45.9144 35.6945 45.9144C34.1585 45.9144 33.0185 45.5484 32.2745 44.8164C31.5425 44.0964 31.1765 42.9744 31.1765 41.4504C31.1765 41.1264 31.1885 40.7664 31.2125 40.3704C31.2485 39.9624 31.2785 39.6324 31.3025 39.3804C31.3385 39.1284 31.4825 39.0024 31.7345 39.0024C31.8905 38.9904 32.0945 38.9844 32.3465 38.9844C32.5985 38.9844 32.8505 38.9844 33.1025 38.9844H33.4985L32.1665 35.4744C32.1305 35.4144 32.1065 35.3364 32.0945 35.2404C32.0825 35.1324 32.0825 35.0484 32.0945 34.9884L32.1305 34.0704C32.1425 33.9144 32.2565 33.7464 32.4725 33.5664C32.6885 33.3984 32.9525 33.2424 33.2645 33.0984C33.5765 32.9544 33.9065 32.8284 34.2545 32.7204C34.6145 32.6124 34.9805 32.5284 35.3525 32.4684C35.7245 32.4084 36.0845 32.3784 36.4325 32.3784C37.0325 32.3784 37.5965 32.4444 38.1245 32.5764C38.6525 32.6964 39.1085 32.9004 39.4925 33.1884C39.8885 33.4644 40.2005 33.8364 40.4285 34.3044C40.6565 34.7604 40.7705 35.3184 40.7705 35.9784V36.3744C40.7705 36.6144 40.7465 36.8604 40.6985 37.1124C40.6625 37.3644 40.6025 37.6104 40.5185 37.8504C40.4465 38.0784 40.3505 38.2884 40.2305 38.4804C40.1225 38.6724 39.9965 38.8224 39.8525 38.9304H42.0665V41.2344H34.8125C34.7285 41.2344 34.6265 41.2344 34.5065 41.2344C34.3985 41.2344 34.2785 41.2344 34.1465 41.2344C34.0265 41.2344 33.9065 41.2344 33.7865 41.2344C33.6665 41.2464 33.5645 41.2524 33.4805 41.2524C33.4805 41.3124 33.4745 41.4024 33.4625 41.5224C33.4625 41.6424 33.4625 41.7324 33.4625 41.7924C33.4865 42.4764 33.6905 42.9924 34.0745 43.3404C34.4585 43.7004 35.0585 43.8804 35.8745 43.8804H36.0905ZM36.8465 38.9844C37.1345 38.9364 37.3805 38.8344 37.5845 38.6784C37.7885 38.5224 37.9565 38.3304 38.0885 38.1024C38.2325 37.8744 38.3345 37.6224 38.3945 37.3464C38.4665 37.0704 38.5025 36.7824 38.5025 36.4824V36.3204C38.5025 35.0484 37.8125 34.4124 36.4325 34.4124C36.1565 34.4124 35.8325 34.4424 35.4605 34.5024C35.0885 34.5504 34.7165 34.6944 34.3445 34.9344L35.9285 38.9844H36.8465ZM42.4653 43.2144C42.4653 43.0944 42.5073 42.9924 42.5913 42.9084C42.6753 42.8364 42.7713 42.8004 42.8793 42.8004H44.2653C44.3853 42.8004 44.4873 42.8364 44.5713 42.9084C44.6673 42.9924 44.7153 43.0944 44.7153 43.2144V44.6544C44.7153 44.7504 44.6673 44.8344 44.5713 44.9064C44.4873 44.9904 44.3853 45.0324 44.2653 45.0324H42.8793C42.7713 45.0324 42.6753 44.9904 42.5913 44.9064C42.5073 44.8344 42.4653 44.7504 42.4653 44.6544V43.2144ZM41.3493 39.1464C41.3493 39.0864 41.4153 39.0384 41.5473 39.0024C41.6793 38.9544 41.8113 38.9304 41.9433 38.9304H43.0773C43.3653 38.9304 43.5573 38.9064 43.6533 38.8584C43.7493 38.7984 43.7973 38.6244 43.7973 38.3364C43.7973 37.6524 43.7973 36.9384 43.7973 36.1944C43.7973 35.4504 43.7853 34.6464 43.7613 33.7824C43.7613 33.6864 43.7913 33.6084 43.8513 33.5484C43.9233 33.4764 44.0133 33.4404 44.1213 33.4404H45.6333C45.7653 33.4404 45.8613 33.4764 45.9213 33.5484C45.9813 33.6084 46.0173 33.6864 46.0293 33.7824C46.0413 34.1664 46.0473 34.5084 46.0473 34.8084C46.0593 35.0964 46.0653 35.3724 46.0653 35.6364C46.0653 35.9004 46.0653 36.1644 46.0653 36.4284C46.0653 36.6924 46.0653 36.9864 46.0653 37.3104C46.0653 38.0784 46.0593 38.7264 46.0473 39.2544C46.0473 39.7704 46.0293 40.1904 45.9933 40.5144C45.9693 40.6344 45.9273 40.7364 45.8673 40.8204C45.8193 40.9044 45.7233 40.9764 45.5793 41.0364C45.4473 41.0724 45.2673 41.1024 45.0393 41.1264C44.8233 41.1504 44.5773 41.1744 44.3013 41.1984C44.0373 41.2104 43.7613 41.2224 43.4733 41.2344C43.1853 41.2344 42.9213 41.2344 42.6813 41.2344H41.9433C41.8113 41.2344 41.6793 41.2164 41.5473 41.1804C41.4153 41.1444 41.3493 41.0904 41.3493 41.0184V39.1464ZM46.7295 43.7904C46.7295 43.6104 46.8315 43.5204 47.0355 43.5204H47.4135C47.7495 43.5204 48.0315 43.5024 48.2595 43.4664C48.4995 43.4424 48.6915 43.3764 48.8355 43.2684C48.9795 43.1604 49.0815 42.9984 49.1415 42.7824C49.2135 42.5784 49.2495 42.2904 49.2495 41.9184V33.8364C49.2495 33.7404 49.2795 33.6624 49.3395 33.6024C49.4115 33.5304 49.5015 33.4944 49.6095 33.4944H51.1755C51.2715 33.4944 51.3495 33.5304 51.4095 33.6024C51.4815 33.6624 51.5175 33.7404 51.5175 33.8364V38.9304H53.1195V41.2344H51.4635V42.0804C51.4635 42.4884 51.4335 42.8664 51.3735 43.2144C51.3255 43.5624 51.2355 43.8624 51.1035 44.1144C50.8275 44.6304 50.4495 44.9904 49.9695 45.1944C49.4895 45.4104 48.8715 45.5184 48.1155 45.5184C48.0195 45.5184 47.8455 45.5124 47.5935 45.5004C47.3415 45.5004 47.1375 45.4884 46.9815 45.4644C46.8135 45.4284 46.7295 45.3144 46.7295 45.1224V43.7904ZM52.406 39.1464C52.406 39.0864 52.472 39.0384 52.604 39.0024C52.736 38.9544 52.868 38.9304 53 38.9304H54.224C54.512 38.9304 54.698 38.9064 54.782 38.8584C54.878 38.7984 54.926 38.6244 54.926 38.3364V27.9144C54.926 27.8064 54.962 27.7164 55.034 27.6444C55.106 27.5724 55.19 27.5364 55.286 27.5364H56.924C57.02 27.5364 57.098 27.5724 57.158 27.6444C57.23 27.7164 57.266 27.8064 57.266 27.9144V38.3724C57.266 38.6964 57.26 39.0564 57.248 39.4524C57.236 39.8364 57.212 40.1904 57.176 40.5144C57.152 40.6344 57.11 40.7364 57.05 40.8204C57.002 40.9044 56.906 40.9764 56.762 41.0364C56.63 41.0724 56.444 41.1024 56.204 41.1264C55.976 41.1504 55.724 41.1744 55.448 41.1984C55.172 41.2104 54.884 41.2224 54.584 41.2344C54.296 41.2344 54.032 41.2344 53.792 41.2344H53C52.868 41.2344 52.736 41.2164 52.604 41.1804C52.472 41.1444 52.406 41.0904 52.406 41.0184V39.1464ZM60.0328 27.8964C60.0328 27.8004 60.0628 27.7164 60.1228 27.6444C60.1948 27.5724 60.2848 27.5364 60.3928 27.5364H62.0128C62.1208 27.5364 62.2048 27.5724 62.2648 27.6444C62.3368 27.7164 62.3728 27.8004 62.3728 27.8964V40.8564C62.3728 40.9524 62.3368 41.0424 62.2648 41.1264C62.2048 41.1984 62.1208 41.2344 62.0128 41.2344H60.3928C60.2848 41.2344 60.1948 41.1984 60.1228 41.1264C60.0628 41.0424 60.0328 40.9524 60.0328 40.8564V27.8964ZM25.6281 63.6064C25.6281 63.4744 25.6341 63.3124 25.6461 63.1204C25.6581 62.9284 25.6701 62.7244 25.6821 62.5084C25.7061 62.2924 25.7301 62.0764 25.7541 61.8604C25.7901 61.6324 25.8261 61.4224 25.8621 61.2304C25.8981 60.9904 26.0181 60.8704 26.2221 60.8704H27.6081C27.8361 60.8704 27.9381 60.9844 27.9141 61.2124C27.8901 61.4764 27.8661 61.7464 27.8421 62.0224C27.8301 62.2864 27.8241 62.5024 27.8241 62.6704C27.8241 63.2944 27.8601 63.8764 27.9321 64.4164C28.0161 64.9444 28.1841 65.4064 28.4361 65.8024C28.6881 66.1864 29.0541 66.4864 29.5341 66.7024C30.0141 66.9304 30.6561 67.0444 31.4601 67.0444C31.7841 67.0444 32.0781 67.0324 32.3421 67.0084C32.6181 66.9964 32.8821 66.9724 33.1341 66.9364C33.1461 66.6364 33.1521 66.3724 33.1521 66.1444C33.1641 65.9044 33.1701 65.6824 33.1701 65.4784C33.1821 65.2744 33.1881 65.0704 33.1881 64.8664C33.1881 64.6624 33.1881 64.4404 33.1881 64.2004V62.6164C33.1881 61.2484 33.5841 60.2404 34.3761 59.5924C35.1801 58.9444 36.3261 58.6204 37.8141 58.6204C38.2941 58.6204 38.7681 58.6444 39.2361 58.6924C39.7041 58.7404 40.0941 58.7944 40.4061 58.8544C40.5021 58.8784 40.5741 58.9144 40.6221 58.9624C40.6821 59.0104 40.7121 59.0944 40.7121 59.2144V63.3004C40.7121 63.5644 40.7721 63.7384 40.8921 63.8224C41.0121 63.8944 41.2281 63.9304 41.5401 63.9304H42.3681V66.2344H40.9461C40.5261 66.2344 40.1601 66.2044 39.8481 66.1444C39.5361 66.0844 39.2721 65.9704 39.0561 65.8024C38.8521 65.6344 38.6961 65.4064 38.5881 65.1184C38.4801 64.8184 38.4261 64.4344 38.4261 63.9664V60.7984C38.2461 60.7744 38.0961 60.7564 37.9761 60.7444C37.8561 60.7324 37.7121 60.7264 37.5441 60.7264C36.8601 60.7264 36.3441 60.8824 35.9961 61.1944C35.6481 61.4944 35.4741 62.0404 35.4741 62.8324V65.8024C35.4741 66.2344 35.4681 66.7084 35.4561 67.2244C35.4441 67.7404 35.4261 68.2084 35.4021 68.6284C35.4021 68.8444 35.2701 68.9764 35.0061 69.0244C34.5021 69.1084 33.9381 69.1744 33.3141 69.2224C32.7021 69.2704 32.0661 69.2944 31.4061 69.2944C30.3741 69.2944 29.4921 69.1684 28.7601 68.9164C28.0281 68.6764 27.4281 68.3164 26.9601 67.8364C26.5041 67.3684 26.1681 66.7804 25.9521 66.0724C25.7361 65.3644 25.6281 64.5424 25.6281 63.6064ZM27.9861 70.9144C27.9861 70.7944 28.0281 70.6984 28.1121 70.6264C28.1961 70.5664 28.2921 70.5364 28.4001 70.5364H29.6061C29.7141 70.5364 29.8101 70.5664 29.8941 70.6264C29.9781 70.6984 30.0201 70.7944 30.0201 70.9144V72.1924C30.0201 72.2884 29.9721 72.3724 29.8761 72.4444C29.7921 72.5164 29.7021 72.5524 29.6061 72.5524H28.4001C28.2921 72.5524 28.1961 72.5164 28.1121 72.4444C28.0281 72.3724 27.9861 72.2884 27.9861 72.1924V70.9144ZM31.3341 70.9144C31.3341 70.7944 31.3761 70.6984 31.4601 70.6264C31.5441 70.5664 31.6341 70.5364 31.7301 70.5364H32.9541C33.0501 70.5364 33.1401 70.5664 33.2241 70.6264C33.3081 70.6984 33.3501 70.7944 33.3501 70.9144V72.1924C33.3501 72.2884 33.3081 72.3724 33.2241 72.4444C33.1401 72.5164 33.0501 72.5524 32.9541 72.5524H31.7301C31.6341 72.5524 31.5441 72.5164 31.4601 72.4444C31.3761 72.3724 31.3341 72.2884 31.3341 72.1924V70.9144ZM44.0514 54.6964C44.0514 54.5764 44.0934 54.4804 44.1774 54.4084C44.2614 54.3244 44.3634 54.2824 44.4834 54.2824H45.9054C46.0134 54.2824 46.1034 54.3244 46.1754 54.4084C46.2594 54.4804 46.3014 54.5764 46.3014 54.6964V56.1004C46.3014 56.2084 46.2594 56.3044 46.1754 56.3884C46.1034 56.4604 46.0074 56.4964 45.8874 56.4964H44.4834C44.3514 56.4964 44.2434 56.4604 44.1594 56.3884C44.0874 56.3044 44.0514 56.2084 44.0514 56.1004V54.6964ZM41.6394 64.1464C41.6394 64.0864 41.7054 64.0384 41.8374 64.0024C41.9694 63.9544 42.1014 63.9304 42.2334 63.9304H43.3674C43.6554 63.9304 43.8474 63.9064 43.9434 63.8584C44.0394 63.7984 44.0874 63.6244 44.0874 63.3364C44.0874 62.6524 44.0874 61.9384 44.0874 61.1944C44.0874 60.4504 44.0754 59.6464 44.0514 58.7824C44.0514 58.6864 44.0814 58.6084 44.1414 58.5484C44.2134 58.4764 44.3034 58.4404 44.4114 58.4404H45.9234C46.0554 58.4404 46.1514 58.4764 46.2114 58.5484C46.2714 58.6084 46.3074 58.6864 46.3194 58.7824C46.3314 59.1664 46.3374 59.5084 46.3374 59.8084C46.3494 60.0964 46.3554 60.3724 46.3554 60.6364C46.3554 60.9004 46.3554 61.1644 46.3554 61.4284C46.3554 61.6924 46.3554 61.9864 46.3554 62.3104C46.3554 63.0784 46.3494 63.7264 46.3374 64.2544C46.3374 64.7704 46.3194 65.1904 46.2834 65.5144C46.2594 65.6344 46.2174 65.7364 46.1574 65.8204C46.1094 65.9044 46.0134 65.9764 45.8694 66.0364C45.7374 66.0724 45.5574 66.1024 45.3294 66.1264C45.1134 66.1504 44.8674 66.1744 44.5914 66.1984C44.3274 66.2104 44.0514 66.2224 43.7634 66.2344C43.4754 66.2344 43.2114 66.2344 42.9714 66.2344H42.2334C42.1014 66.2344 41.9694 66.2164 41.8374 66.1804C41.7054 66.1444 41.6394 66.0904 41.6394 66.0184V64.1464ZM49.0175 52.8964C49.0175 52.8004 49.0535 52.7164 49.1255 52.6444C49.1975 52.5724 49.2875 52.5364 49.3955 52.5364H50.9975C51.1175 52.5364 51.2075 52.5724 51.2675 52.6444C51.3275 52.7164 51.3575 52.8004 51.3575 52.8964V63.0124C51.3575 63.4204 51.4415 63.6784 51.6095 63.7864C51.7775 63.8824 52.0295 63.9304 52.3655 63.9304H52.9595V66.2344H51.6995C51.2915 66.2344 50.9195 66.2044 50.5835 66.1444C50.2595 66.0724 49.9775 65.9464 49.7375 65.7664C49.5095 65.5744 49.3295 65.3164 49.1975 64.9924C49.0775 64.6564 49.0175 64.2244 49.0175 63.6964V52.8964ZM52.239 64.1464C52.239 64.0864 52.305 64.0384 52.437 64.0024C52.569 63.9544 52.701 63.9304 52.833 63.9304H53.661C53.769 63.9304 53.883 63.9244 54.003 63.9124C54.123 63.9004 54.231 63.8764 54.327 63.8404C54.435 63.7924 54.525 63.7324 54.597 63.6604C54.669 63.5764 54.705 63.4624 54.705 63.3184V58.8364C54.705 58.7404 54.735 58.6624 54.795 58.6024C54.867 58.5304 54.957 58.4944 55.065 58.4944H56.631C56.727 58.4944 56.805 58.5304 56.865 58.6024C56.937 58.6624 56.973 58.7404 56.973 58.8364V63.6244C57.009 63.6844 57.075 63.7384 57.171 63.7864C57.267 63.8224 57.375 63.8524 57.495 63.8764C57.615 63.9004 57.729 63.9184 57.837 63.9304C57.957 63.9304 58.059 63.9304 58.143 63.9304H58.575V66.2344H58.359C57.903 66.2344 57.441 66.1984 56.973 66.1264C56.505 66.0424 56.115 65.8744 55.803 65.6224C55.635 65.7424 55.449 65.8444 55.245 65.9284C55.041 66.0004 54.825 66.0604 54.597 66.1084C54.381 66.1564 54.159 66.1924 53.931 66.2164C53.715 66.2284 53.511 66.2344 53.319 66.2344H52.833C52.701 66.2344 52.569 66.2164 52.437 66.1804C52.305 66.1444 52.239 66.0904 52.239 66.0184V64.1464ZM53.067 54.8044C53.067 54.6844 53.109 54.5884 53.193 54.5164C53.277 54.4444 53.379 54.4084 53.499 54.4084H54.741C54.861 54.4084 54.963 54.4444 55.047 54.5164C55.143 54.5884 55.191 54.6844 55.191 54.8044V56.1184C55.191 56.2144 55.143 56.3044 55.047 56.3884C54.951 56.4604 54.849 56.4964 54.741 56.4964H53.499C53.379 56.4964 53.277 56.4604 53.193 56.3884C53.109 56.3044 53.067 56.2144 53.067 56.1184V54.8044ZM56.397 54.8044C56.397 54.6844 56.439 54.5884 56.523 54.5164C56.619 54.4444 56.721 54.4084 56.829 54.4084H58.089C58.209 54.4084 58.305 54.4444 58.377 54.5164C58.461 54.5884 58.503 54.6844 58.503 54.8044V56.1184C58.503 56.2144 58.461 56.3044 58.377 56.3884C58.305 56.4604 58.209 56.4964 58.089 56.4964H56.829C56.721 56.4964 56.619 56.4604 56.523 56.3884C56.439 56.3044 56.397 56.2144 56.397 56.1184V54.8044ZM54.813 52.2484C54.813 52.1404 54.855 52.0504 54.939 51.9784C55.035 51.8944 55.131 51.8524 55.227 51.8524H56.415C56.535 51.8524 56.637 51.8944 56.721 51.9784C56.805 52.0504 56.847 52.1404 56.847 52.2484V53.3464C56.847 53.4544 56.799 53.5444 56.703 53.6164C56.619 53.6884 56.517 53.7244 56.397 53.7244H55.209C55.113 53.7244 55.023 53.6884 54.939 53.6164C54.855 53.5444 54.813 53.4544 54.813 53.3464V52.2484ZM57.8464 64.1464C57.8464 64.0864 57.9124 64.0384 58.0444 64.0024C58.1764 63.9544 58.3084 63.9304 58.4404 63.9304H59.6644C59.9524 63.9304 60.1384 63.9064 60.2224 63.8584C60.3184 63.7984 60.3664 63.6244 60.3664 63.3364V52.9144C60.3664 52.8064 60.4024 52.7164 60.4744 52.6444C60.5464 52.5724 60.6304 52.5364 60.7264 52.5364H62.3644C62.4604 52.5364 62.5384 52.5724 62.5984 52.6444C62.6704 52.7164 62.7064 52.8064 62.7064 52.9144V63.3724C62.7064 63.6964 62.7004 64.0564 62.6884 64.4524C62.6764 64.8364 62.6524 65.1904 62.6164 65.5144C62.5924 65.6344 62.5504 65.7364 62.4904 65.8204C62.4424 65.9044 62.3464 65.9764 62.2024 66.0364C62.0704 66.0724 61.8844 66.1024 61.6444 66.1264C61.4164 66.1504 61.1644 66.1744 60.8884 66.1984C60.6124 66.2104 60.3244 66.2224 60.0244 66.2344C59.7364 66.2344 59.4724 66.2344 59.2324 66.2344H58.4404C58.3084 66.2344 58.1764 66.2164 58.0444 66.1804C57.9124 66.1444 57.8464 66.0904 57.8464 66.0184V64.1464ZM65.4732 52.8964C65.4732 52.8004 65.5032 52.7164 65.5632 52.6444C65.6352 52.5724 65.7252 52.5364 65.8332 52.5364H67.4532C67.5612 52.5364 67.6452 52.5724 67.7052 52.6444C67.7772 52.7164 67.8132 52.8004 67.8132 52.8964V65.8564C67.8132 65.9524 67.7772 66.0424 67.7052 66.1264C67.6452 66.1984 67.5612 66.2344 67.4532 66.2344H65.8332C65.7252 66.2344 65.6352 66.1984 65.5632 66.1264C65.5032 66.0424 65.4732 65.9524 65.4732 65.8564V52.8964Z" fill="#BB7FFF"/>
<defs>
<linearGradient id="paint0_linear_1845_5599" x1="11.1625" y1="78.9594" x2="94" y2="36.6594" gradientUnits="userSpaceOnUse">
<stop stop-color="#20113E"/>
<stop offset="1" stop-color="#592B8A"/>
</linearGradient>
</defs>
</svg>
