<svg width="80" height="81" viewBox="0 0 80 81" fill="none" xmlns="http://www.w3.org/2000/svg">
<rect y="0.234375" width="80" height="80" rx="40" fill="url(#paint0_linear_1430_2974)"/>
<path d="M38.9 42.1144C38.9 43.5344 38.74 44.7844 38.42 45.8644C38.1 46.9244 37.65 47.8344 37.07 48.5944C36.49 49.3344 35.8 49.9344 35 50.3944C34.2 50.8344 33.31 51.1444 32.33 51.3244V51.9544C32.33 52.3544 32.41 52.6144 32.57 52.7344C32.75 52.8544 32.97 52.9144 33.23 52.9144H36.14C36.36 52.9144 36.53 52.9544 36.65 53.0344C36.79 53.1144 36.86 53.2344 36.86 53.3944V55.2544C36.86 55.5544 36.64 55.7644 36.2 55.8844C35.9 55.9644 35.45 56.0344 34.85 56.0944C34.25 56.1744 33.71 56.2144 33.23 56.2144C32.51 56.2144 31.85 56.1344 31.25 55.9744C30.67 55.8344 30.16 55.5944 29.72 55.2544C29.3 54.9144 28.97 54.4744 28.73 53.9344C28.49 53.4144 28.37 52.7744 28.37 52.0144V51.3244C27.39 51.1444 26.5 50.8344 25.7 50.3944C24.9 49.9344 24.21 49.3344 23.63 48.5944C23.05 47.8344 22.6 46.9244 22.28 45.8644C21.96 44.7844 21.8 43.5344 21.8 42.1144V38.0644C21.8 36.4244 22.01 35.0144 22.43 33.8344C22.87 32.6344 23.47 31.6644 24.23 30.9244C24.99 30.1644 25.89 29.6044 26.93 29.2444C27.97 28.8844 29.11 28.7044 30.35 28.7044C31.59 28.7044 32.73 28.8844 33.77 29.2444C34.81 29.6044 35.71 30.1644 36.47 30.9244C37.23 31.6644 37.82 32.6344 38.24 33.8344C38.68 35.0144 38.9 36.4244 38.9 38.0644V42.1144ZM34.7 38.0644C34.7 36.0644 34.34 34.6144 33.62 33.7144C32.92 32.7944 31.83 32.3344 30.35 32.3344C28.87 32.3344 27.77 32.7944 27.05 33.7144C26.35 34.6144 26 36.0644 26 38.0644V42.1144C26 44.1144 26.35 45.5744 27.05 46.4944C27.77 47.3944 28.87 47.8444 30.35 47.8444C31.83 47.8444 32.92 47.3944 33.62 46.4944C34.34 45.5744 34.7 44.1144 34.7 42.1144V38.0644ZM57.3029 34.1944C57.3029 35.4544 56.9829 36.5344 56.3429 37.4344C55.7229 38.3144 54.7929 39.1744 53.5529 40.0144L50.8529 41.8144C49.4329 42.7544 48.3629 43.6644 47.6429 44.5444C46.9429 45.4044 46.5929 46.4544 46.5929 47.6944V47.8144H56.4629C56.6229 47.8144 56.7629 47.8644 56.8829 47.9644C57.0029 48.0644 57.0629 48.1944 57.0629 48.3544V50.6344C57.0629 50.7944 57.0029 50.9344 56.8829 51.0544C56.7629 51.1744 56.6229 51.2344 56.4629 51.2344H43.7429C43.5829 51.2344 43.4429 51.1744 43.3229 51.0544C43.2029 50.9344 43.1429 50.7944 43.1429 50.6344V47.6944C43.1429 46.8744 43.2629 46.0844 43.5029 45.3244C43.7429 44.5444 44.0729 43.8244 44.4929 43.1644C44.9129 42.4844 45.3929 41.8644 45.9329 41.3044C46.4929 40.7444 47.0829 40.2544 47.7029 39.8344L50.6729 37.8544C51.2529 37.4744 51.7229 37.1444 52.0829 36.8644C52.4429 36.5844 52.7229 36.3244 52.9229 36.0844C53.1229 35.8244 53.2529 35.5544 53.3129 35.2744C53.3929 34.9744 53.4329 34.6144 53.4329 34.1944C53.4329 33.3744 53.1629 32.8044 52.6229 32.4844C52.0829 32.1444 51.1829 31.9744 49.9229 31.9744C49.4829 31.9744 49.0029 31.9944 48.4829 32.0344C47.9829 32.0544 47.4629 32.0844 46.9229 32.1244C46.4029 32.1644 45.8829 32.2144 45.3629 32.2744C44.8429 32.3144 44.3629 32.3644 43.9229 32.4244H43.8629C43.7029 32.4244 43.5729 32.3644 43.4729 32.2444C43.3729 32.1244 43.3229 31.9844 43.3229 31.8244V30.0244C43.3229 29.8644 43.3729 29.7444 43.4729 29.6644C43.5929 29.5644 43.7329 29.4944 43.8929 29.4544C44.2729 29.3544 44.7129 29.2644 45.2129 29.1844C45.7129 29.0844 46.2229 29.0044 46.7429 28.9444C47.2829 28.8644 47.8229 28.8044 48.3629 28.7644C48.9229 28.7244 49.4429 28.7044 49.9229 28.7044C52.5429 28.7044 54.4229 29.1544 55.5629 30.0544C56.7229 30.9544 57.3029 32.3344 57.3029 34.1944Z" fill="#BB7FFF"/>
<defs>
<linearGradient id="paint0_linear_1430_2974" x1="9.5" y1="67.2344" x2="80" y2="31.2344" gradientUnits="userSpaceOnUse">
<stop stop-color="#20113E"/>
<stop offset="1" stop-color="#592B8A"/>
</linearGradient>
</defs>
</svg>
