<svg width="94" height="95" viewBox="0 0 94 95" fill="none" xmlns="http://www.w3.org/2000/svg">
<rect y="0.234375" width="94" height="94" rx="47" fill="url(#paint0_linear_1845_5603)"/>
<path d="M36.0905 43.8804C36.3425 43.8804 36.4685 43.9884 36.4685 44.2044V45.5184C36.4685 45.7464 36.3485 45.8724 36.1085 45.8964C36.0125 45.9084 35.9285 45.9144 35.8565 45.9144C35.7845 45.9144 35.7305 45.9144 35.6945 45.9144C34.1585 45.9144 33.0185 45.5484 32.2745 44.8164C31.5425 44.0964 31.1765 42.9744 31.1765 41.4504C31.1765 41.1264 31.1885 40.7664 31.2125 40.3704C31.2485 39.9624 31.2785 39.6324 31.3025 39.3804C31.3385 39.1284 31.4825 39.0024 31.7345 39.0024C31.8905 38.9904 32.0945 38.9844 32.3465 38.9844C32.5985 38.9844 32.8505 38.9844 33.1025 38.9844H33.4985L32.1665 35.4744C32.1305 35.4144 32.1065 35.3364 32.0945 35.2404C32.0825 35.1324 32.0825 35.0484 32.0945 34.9884L32.1305 34.0704C32.1425 33.9144 32.2565 33.7464 32.4725 33.5664C32.6885 33.3984 32.9525 33.2424 33.2645 33.0984C33.5765 32.9544 33.9065 32.8284 34.2545 32.7204C34.6145 32.6124 34.9805 32.5284 35.3525 32.4684C35.7245 32.4084 36.0845 32.3784 36.4325 32.3784C37.0325 32.3784 37.5965 32.4444 38.1245 32.5764C38.6525 32.6964 39.1085 32.9004 39.4925 33.1884C39.8885 33.4644 40.2005 33.8364 40.4285 34.3044C40.6565 34.7604 40.7705 35.3184 40.7705 35.9784V36.3744C40.7705 36.6144 40.7465 36.8604 40.6985 37.1124C40.6625 37.3644 40.6025 37.6104 40.5185 37.8504C40.4465 38.0784 40.3505 38.2884 40.2305 38.4804C40.1225 38.6724 39.9965 38.8224 39.8525 38.9304H42.0665V41.2344H34.8125C34.7285 41.2344 34.6265 41.2344 34.5065 41.2344C34.3985 41.2344 34.2785 41.2344 34.1465 41.2344C34.0265 41.2344 33.9065 41.2344 33.7865 41.2344C33.6665 41.2464 33.5645 41.2524 33.4805 41.2524C33.4805 41.3124 33.4745 41.4024 33.4625 41.5224C33.4625 41.6424 33.4625 41.7324 33.4625 41.7924C33.4865 42.4764 33.6905 42.9924 34.0745 43.3404C34.4585 43.7004 35.0585 43.8804 35.8745 43.8804H36.0905ZM36.8465 38.9844C37.1345 38.9364 37.3805 38.8344 37.5845 38.6784C37.7885 38.5224 37.9565 38.3304 38.0885 38.1024C38.2325 37.8744 38.3345 37.6224 38.3945 37.3464C38.4665 37.0704 38.5025 36.7824 38.5025 36.4824V36.3204C38.5025 35.0484 37.8125 34.4124 36.4325 34.4124C36.1565 34.4124 35.8325 34.4424 35.4605 34.5024C35.0885 34.5504 34.7165 34.6944 34.3445 34.9344L35.9285 38.9844H36.8465ZM42.4653 43.2144C42.4653 43.0944 42.5073 42.9924 42.5913 42.9084C42.6753 42.8364 42.7713 42.8004 42.8793 42.8004H44.2653C44.3853 42.8004 44.4873 42.8364 44.5713 42.9084C44.6673 42.9924 44.7153 43.0944 44.7153 43.2144V44.6544C44.7153 44.7504 44.6673 44.8344 44.5713 44.9064C44.4873 44.9904 44.3853 45.0324 44.2653 45.0324H42.8793C42.7713 45.0324 42.6753 44.9904 42.5913 44.9064C42.5073 44.8344 42.4653 44.7504 42.4653 44.6544V43.2144ZM41.3493 39.1464C41.3493 39.0864 41.4153 39.0384 41.5473 39.0024C41.6793 38.9544 41.8113 38.9304 41.9433 38.9304H43.0773C43.3653 38.9304 43.5573 38.9064 43.6533 38.8584C43.7493 38.7984 43.7973 38.6244 43.7973 38.3364C43.7973 37.6524 43.7973 36.9384 43.7973 36.1944C43.7973 35.4504 43.7853 34.6464 43.7613 33.7824C43.7613 33.6864 43.7913 33.6084 43.8513 33.5484C43.9233 33.4764 44.0133 33.4404 44.1213 33.4404H45.6333C45.7653 33.4404 45.8613 33.4764 45.9213 33.5484C45.9813 33.6084 46.0173 33.6864 46.0293 33.7824C46.0413 34.1664 46.0473 34.5084 46.0473 34.8084C46.0593 35.0964 46.0653 35.3724 46.0653 35.6364C46.0653 35.9004 46.0653 36.1644 46.0653 36.4284C46.0653 36.6924 46.0653 36.9864 46.0653 37.3104C46.0653 38.0784 46.0593 38.7264 46.0473 39.2544C46.0473 39.7704 46.0293 40.1904 45.9933 40.5144C45.9693 40.6344 45.9273 40.7364 45.8673 40.8204C45.8193 40.9044 45.7233 40.9764 45.5793 41.0364C45.4473 41.0724 45.2673 41.1024 45.0393 41.1264C44.8233 41.1504 44.5773 41.1744 44.3013 41.1984C44.0373 41.2104 43.7613 41.2224 43.4733 41.2344C43.1853 41.2344 42.9213 41.2344 42.6813 41.2344H41.9433C41.8113 41.2344 41.6793 41.2164 41.5473 41.1804C41.4153 41.1444 41.3493 41.0904 41.3493 41.0184V39.1464ZM46.7295 43.7904C46.7295 43.6104 46.8315 43.5204 47.0355 43.5204H47.4135C47.7495 43.5204 48.0315 43.5024 48.2595 43.4664C48.4995 43.4424 48.6915 43.3764 48.8355 43.2684C48.9795 43.1604 49.0815 42.9984 49.1415 42.7824C49.2135 42.5784 49.2495 42.2904 49.2495 41.9184V33.8364C49.2495 33.7404 49.2795 33.6624 49.3395 33.6024C49.4115 33.5304 49.5015 33.4944 49.6095 33.4944H51.1755C51.2715 33.4944 51.3495 33.5304 51.4095 33.6024C51.4815 33.6624 51.5175 33.7404 51.5175 33.8364V38.9304H53.1195V41.2344H51.4635V42.0804C51.4635 42.4884 51.4335 42.8664 51.3735 43.2144C51.3255 43.5624 51.2355 43.8624 51.1035 44.1144C50.8275 44.6304 50.4495 44.9904 49.9695 45.1944C49.4895 45.4104 48.8715 45.5184 48.1155 45.5184C48.0195 45.5184 47.8455 45.5124 47.5935 45.5004C47.3415 45.5004 47.1375 45.4884 46.9815 45.4644C46.8135 45.4284 46.7295 45.3144 46.7295 45.1224V43.7904ZM52.406 39.1464C52.406 39.0864 52.472 39.0384 52.604 39.0024C52.736 38.9544 52.868 38.9304 53 38.9304H54.224C54.512 38.9304 54.698 38.9064 54.782 38.8584C54.878 38.7984 54.926 38.6244 54.926 38.3364V27.9144C54.926 27.8064 54.962 27.7164 55.034 27.6444C55.106 27.5724 55.19 27.5364 55.286 27.5364H56.924C57.02 27.5364 57.098 27.5724 57.158 27.6444C57.23 27.7164 57.266 27.8064 57.266 27.9144V38.3724C57.266 38.6964 57.26 39.0564 57.248 39.4524C57.236 39.8364 57.212 40.1904 57.176 40.5144C57.152 40.6344 57.11 40.7364 57.05 40.8204C57.002 40.9044 56.906 40.9764 56.762 41.0364C56.63 41.0724 56.444 41.1024 56.204 41.1264C55.976 41.1504 55.724 41.1744 55.448 41.1984C55.172 41.2104 54.884 41.2224 54.584 41.2344C54.296 41.2344 54.032 41.2344 53.792 41.2344H53C52.868 41.2344 52.736 41.2164 52.604 41.1804C52.472 41.1444 52.406 41.0904 52.406 41.0184V39.1464ZM60.0328 27.8964C60.0328 27.8004 60.0628 27.7164 60.1228 27.6444C60.1948 27.5724 60.2848 27.5364 60.3928 27.5364H62.0128C62.1208 27.5364 62.2048 27.5724 62.2648 27.6444C62.3368 27.7164 62.3728 27.8004 62.3728 27.8964V40.8564C62.3728 40.9524 62.3368 41.0424 62.2648 41.1264C62.2048 41.1984 62.1208 41.2344 62.0128 41.2344H60.3928C60.2848 41.2344 60.1948 41.1984 60.1228 41.1264C60.0628 41.0424 60.0328 40.9524 60.0328 40.8564V27.8964ZM30.4466 55.7224C30.4466 55.6024 30.4886 55.5064 30.5726 55.4344C30.6566 55.3624 30.7586 55.3264 30.8786 55.3264H32.1206C32.2406 55.3264 32.3426 55.3624 32.4266 55.4344C32.5226 55.5064 32.5706 55.6024 32.5706 55.7224V57.0364C32.5706 57.1324 32.5226 57.2224 32.4266 57.3064C32.3306 57.3784 32.2286 57.4144 32.1206 57.4144H30.8786C30.7586 57.4144 30.6566 57.3784 30.5726 57.3064C30.4886 57.2224 30.4466 57.1324 30.4466 57.0364V55.7224ZM33.7766 55.7224C33.7766 55.6024 33.8186 55.5064 33.9026 55.4344C33.9986 55.3624 34.1006 55.3264 34.2086 55.3264H35.4686C35.5886 55.3264 35.6846 55.3624 35.7566 55.4344C35.8406 55.5064 35.8826 55.6024 35.8826 55.7224V57.0364C35.8826 57.1324 35.8406 57.2224 35.7566 57.3064C35.6846 57.3784 35.5886 57.4144 35.4686 57.4144H34.2086C34.1006 57.4144 33.9986 57.3784 33.9026 57.3064C33.8186 57.2224 33.7766 57.1324 33.7766 57.0364V55.7224ZM32.1926 53.1664C32.1926 53.0584 32.2346 52.9684 32.3186 52.8964C32.4146 52.8124 32.5106 52.7704 32.6066 52.7704H33.7946C33.9146 52.7704 34.0166 52.8124 34.1006 52.8964C34.1846 52.9684 34.2266 53.0584 34.2266 53.1664V54.2644C34.2266 54.3724 34.1786 54.4624 34.0826 54.5344C33.9986 54.6064 33.8966 54.6424 33.7766 54.6424H32.5886C32.4926 54.6424 32.4026 54.6064 32.3186 54.5344C32.2346 54.4624 32.1926 54.3724 32.1926 54.2644V53.1664ZM37.0346 63.9304C37.1426 63.9304 37.2566 63.9244 37.3766 63.9124C37.5086 63.9004 37.6226 63.8764 37.7186 63.8404C37.8266 63.7924 37.9166 63.7324 37.9886 63.6604C38.0606 63.5764 38.0966 63.4624 38.0966 63.3184V58.8364C38.0966 58.7404 38.1326 58.6624 38.2046 58.6024C38.2766 58.5304 38.3606 58.4944 38.4566 58.4944H40.0226C40.1186 58.4944 40.1966 58.5304 40.2566 58.6024C40.3286 58.6624 40.3646 58.7404 40.3646 58.8364V63.6244C40.4006 63.6844 40.4606 63.7384 40.5446 63.7864C40.6406 63.8224 40.7426 63.8524 40.8506 63.8764C40.9706 63.9004 41.0846 63.9184 41.1926 63.9304C41.3126 63.9304 41.4146 63.9304 41.4986 63.9304H41.9846V66.2344H41.8226C41.6426 66.2344 41.4386 66.2284 41.2106 66.2164C40.9826 66.2044 40.7486 66.1804 40.5086 66.1444C40.2806 66.0964 40.0586 66.0304 39.8426 65.9464C39.6266 65.8624 39.4346 65.7544 39.2666 65.6224C38.8946 65.8984 38.4266 66.0724 37.8626 66.1444C37.2986 66.2044 36.6506 66.2344 35.9186 66.2344H31.8326C30.6326 66.2344 29.6426 66.1204 28.8626 65.8924C28.0946 65.6644 27.4826 65.3404 27.0266 64.9204C26.5826 64.4884 26.2706 63.9664 26.0906 63.3544C25.9106 62.7424 25.8206 62.0464 25.8206 61.2664C25.8206 60.7024 25.8806 60.0664 26.0006 59.3584C26.0246 59.2264 26.0606 59.1364 26.1086 59.0884C26.1566 59.0284 26.2466 58.9984 26.3786 58.9984H27.7286C27.9566 58.9984 28.0586 59.1184 28.0346 59.3584C27.9986 59.8624 27.9806 60.2824 27.9806 60.6184C27.9806 61.1584 28.0346 61.6384 28.1426 62.0584C28.2506 62.4664 28.4486 62.8084 28.7366 63.0844C29.0246 63.3604 29.4266 63.5704 29.9426 63.7144C30.4706 63.8584 31.1486 63.9304 31.9766 63.9304H37.0346ZM41.2702 64.1464C41.2702 64.0864 41.3362 64.0384 41.4682 64.0024C41.6002 63.9544 41.7322 63.9304 41.8642 63.9304H43.0882C43.3762 63.9304 43.5622 63.9064 43.6462 63.8584C43.7422 63.7984 43.7902 63.6244 43.7902 63.3364V52.9144C43.7902 52.8064 43.8262 52.7164 43.8982 52.6444C43.9702 52.5724 44.0542 52.5364 44.1502 52.5364H45.7882C45.8842 52.5364 45.9622 52.5724 46.0222 52.6444C46.0942 52.7164 46.1302 52.8064 46.1302 52.9144V63.3724C46.1302 63.6964 46.1242 64.0564 46.1122 64.4524C46.1002 64.8364 46.0762 65.1904 46.0402 65.5144C46.0162 65.6344 45.9742 65.7364 45.9142 65.8204C45.8662 65.9044 45.7702 65.9764 45.6262 66.0364C45.4942 66.0724 45.3082 66.1024 45.0682 66.1264C44.8402 66.1504 44.5882 66.1744 44.3122 66.1984C44.0362 66.2104 43.7482 66.2224 43.4482 66.2344C43.1602 66.2344 42.8962 66.2344 42.6562 66.2344H41.8642C41.7322 66.2344 41.6002 66.2164 41.4682 66.1804C41.3362 66.1444 41.2702 66.0904 41.2702 66.0184V64.1464ZM48.789 52.8964C48.789 52.8004 48.825 52.7164 48.897 52.6444C48.969 52.5724 49.059 52.5364 49.167 52.5364H50.769C50.889 52.5364 50.979 52.5724 51.039 52.6444C51.099 52.7164 51.129 52.8004 51.129 52.8964V63.0124C51.129 63.4204 51.213 63.6784 51.381 63.7864C51.549 63.8824 51.801 63.9304 52.137 63.9304H52.731V66.2344H51.471C51.063 66.2344 50.691 66.2044 50.355 66.1444C50.031 66.0724 49.749 65.9464 49.509 65.7664C49.281 65.5744 49.101 65.3164 48.969 64.9924C48.849 64.6564 48.789 64.2244 48.789 63.6964V52.8964ZM52.0105 64.1464C52.0105 64.0864 52.0765 64.0384 52.2085 64.0024C52.3405 63.9544 52.4725 63.9304 52.6045 63.9304H53.4325C53.5405 63.9304 53.6545 63.9244 53.7745 63.9124C53.8945 63.9004 54.0025 63.8764 54.0985 63.8404C54.2065 63.7924 54.2965 63.7324 54.3685 63.6604C54.4405 63.5764 54.4765 63.4624 54.4765 63.3184V58.8364C54.4765 58.7404 54.5065 58.6624 54.5665 58.6024C54.6385 58.5304 54.7285 58.4944 54.8365 58.4944H56.4025C56.4985 58.4944 56.5765 58.5304 56.6365 58.6024C56.7085 58.6624 56.7445 58.7404 56.7445 58.8364V63.6244C56.7805 63.6844 56.8465 63.7384 56.9425 63.7864C57.0385 63.8224 57.1465 63.8524 57.2665 63.8764C57.3865 63.9004 57.5005 63.9184 57.6085 63.9304C57.7285 63.9304 57.8305 63.9304 57.9145 63.9304H58.3465V66.2344H58.1305C57.6745 66.2344 57.2125 66.1984 56.7445 66.1264C56.2765 66.0424 55.8865 65.8744 55.5745 65.6224C55.4065 65.7424 55.2205 65.8444 55.0165 65.9284C54.8125 66.0004 54.5965 66.0604 54.3685 66.1084C54.1525 66.1564 53.9305 66.1924 53.7025 66.2164C53.4865 66.2284 53.2825 66.2344 53.0905 66.2344H52.6045C52.4725 66.2344 52.3405 66.2164 52.2085 66.1804C52.0765 66.1444 52.0105 66.0904 52.0105 66.0184V64.1464ZM52.8385 54.8044C52.8385 54.6844 52.8805 54.5884 52.9645 54.5164C53.0485 54.4444 53.1505 54.4084 53.2705 54.4084H54.5125C54.6325 54.4084 54.7345 54.4444 54.8185 54.5164C54.9145 54.5884 54.9625 54.6844 54.9625 54.8044V56.1184C54.9625 56.2144 54.9145 56.3044 54.8185 56.3884C54.7225 56.4604 54.6205 56.4964 54.5125 56.4964H53.2705C53.1505 56.4964 53.0485 56.4604 52.9645 56.3884C52.8805 56.3044 52.8385 56.2144 52.8385 56.1184V54.8044ZM56.1685 54.8044C56.1685 54.6844 56.2105 54.5884 56.2945 54.5164C56.3905 54.4444 56.4925 54.4084 56.6005 54.4084H57.8605C57.9805 54.4084 58.0765 54.4444 58.1485 54.5164C58.2325 54.5884 58.2745 54.6844 58.2745 54.8044V56.1184C58.2745 56.2144 58.2325 56.3044 58.1485 56.3884C58.0765 56.4604 57.9805 56.4964 57.8605 56.4964H56.6005C56.4925 56.4964 56.3905 56.4604 56.2945 56.3884C56.2105 56.3044 56.1685 56.2144 56.1685 56.1184V54.8044ZM54.5845 52.2484C54.5845 52.1404 54.6265 52.0504 54.7105 51.9784C54.8065 51.8944 54.9025 51.8524 54.9985 51.8524H56.1865C56.3065 51.8524 56.4085 51.8944 56.4925 51.9784C56.5765 52.0504 56.6185 52.1404 56.6185 52.2484V53.3464C56.6185 53.4544 56.5705 53.5444 56.4745 53.6164C56.3905 53.6884 56.2885 53.7244 56.1685 53.7244H54.9805C54.8845 53.7244 54.7945 53.6884 54.7105 53.6164C54.6265 53.5444 54.5845 53.4544 54.5845 53.3464V52.2484ZM57.6179 64.1464C57.6179 64.0864 57.6839 64.0384 57.8159 64.0024C57.9479 63.9544 58.0799 63.9304 58.2119 63.9304H59.4359C59.7239 63.9304 59.9099 63.9064 59.9939 63.8584C60.0899 63.7984 60.1379 63.6244 60.1379 63.3364V52.9144C60.1379 52.8064 60.1739 52.7164 60.2459 52.6444C60.3179 52.5724 60.4019 52.5364 60.4979 52.5364H62.1359C62.2319 52.5364 62.3099 52.5724 62.3699 52.6444C62.4419 52.7164 62.4779 52.8064 62.4779 52.9144V63.3724C62.4779 63.6964 62.4719 64.0564 62.4599 64.4524C62.4479 64.8364 62.4239 65.1904 62.3879 65.5144C62.3639 65.6344 62.3219 65.7364 62.2619 65.8204C62.2139 65.9044 62.1179 65.9764 61.9739 66.0364C61.8419 66.0724 61.6559 66.1024 61.4159 66.1264C61.1879 66.1504 60.9359 66.1744 60.6599 66.1984C60.3839 66.2104 60.0959 66.2224 59.7959 66.2344C59.5079 66.2344 59.2439 66.2344 59.0039 66.2344H58.2119C58.0799 66.2344 57.9479 66.2164 57.8159 66.1804C57.6839 66.1444 57.6179 66.0904 57.6179 66.0184V64.1464ZM65.2447 52.8964C65.2447 52.8004 65.2747 52.7164 65.3347 52.6444C65.4067 52.5724 65.4967 52.5364 65.6047 52.5364H67.2247C67.3327 52.5364 67.4167 52.5724 67.4767 52.6444C67.5487 52.7164 67.5847 52.8004 67.5847 52.8964V65.8564C67.5847 65.9524 67.5487 66.0424 67.4767 66.1264C67.4167 66.1984 67.3327 66.2344 67.2247 66.2344H65.6047C65.4967 66.2344 65.4067 66.1984 65.3347 66.1264C65.2747 66.0424 65.2447 65.9524 65.2447 65.8564V52.8964Z" fill="#BB7FFF"/>
<defs>
<linearGradient id="paint0_linear_1845_5603" x1="11.1625" y1="78.9594" x2="94" y2="36.6594" gradientUnits="userSpaceOnUse">
<stop stop-color="#20113E"/>
<stop offset="1" stop-color="#592B8A"/>
</linearGradient>
</defs>
</svg>
