<svg width="80" height="81" viewBox="0 0 80 81" fill="none" xmlns="http://www.w3.org/2000/svg">
<rect y="0.234375" width="80" height="80" rx="40" fill="url(#paint0_linear_1430_2986)"/>
<path d="M38.9 42.1144C38.9 43.5344 38.74 44.7844 38.42 45.8644C38.1 46.9244 37.65 47.8344 37.07 48.5944C36.49 49.3344 35.8 49.9344 35 50.3944C34.2 50.8344 33.31 51.1444 32.33 51.3244V51.9544C32.33 52.3544 32.41 52.6144 32.57 52.7344C32.75 52.8544 32.97 52.9144 33.23 52.9144H36.14C36.36 52.9144 36.53 52.9544 36.65 53.0344C36.79 53.1144 36.86 53.2344 36.86 53.3944V55.2544C36.86 55.5544 36.64 55.7644 36.2 55.8844C35.9 55.9644 35.45 56.0344 34.85 56.0944C34.25 56.1744 33.71 56.2144 33.23 56.2144C32.51 56.2144 31.85 56.1344 31.25 55.9744C30.67 55.8344 30.16 55.5944 29.72 55.2544C29.3 54.9144 28.97 54.4744 28.73 53.9344C28.49 53.4144 28.37 52.7744 28.37 52.0144V51.3244C27.39 51.1444 26.5 50.8344 25.7 50.3944C24.9 49.9344 24.21 49.3344 23.63 48.5944C23.05 47.8344 22.6 46.9244 22.28 45.8644C21.96 44.7844 21.8 43.5344 21.8 42.1144V38.0644C21.8 36.4244 22.01 35.0144 22.43 33.8344C22.87 32.6344 23.47 31.6644 24.23 30.9244C24.99 30.1644 25.89 29.6044 26.93 29.2444C27.97 28.8844 29.11 28.7044 30.35 28.7044C31.59 28.7044 32.73 28.8844 33.77 29.2444C34.81 29.6044 35.71 30.1644 36.47 30.9244C37.23 31.6644 37.82 32.6344 38.24 33.8344C38.68 35.0144 38.9 36.4244 38.9 38.0644V42.1144ZM34.7 38.0644C34.7 36.0644 34.34 34.6144 33.62 33.7144C32.92 32.7944 31.83 32.3344 30.35 32.3344C28.87 32.3344 27.77 32.7944 27.05 33.7144C26.35 34.6144 26 36.0644 26 38.0644V42.1144C26 44.1144 26.35 45.5744 27.05 46.4944C27.77 47.3944 28.87 47.8444 30.35 47.8444C31.83 47.8444 32.92 47.3944 33.62 46.4944C34.34 45.5744 34.7 44.1144 34.7 42.1144V38.0644ZM57.0929 44.9944C57.0929 46.1144 56.8929 47.0844 56.4929 47.9044C56.1129 48.7044 55.5829 49.3744 54.9029 49.9144C54.2429 50.4344 53.4529 50.8244 52.5329 51.0844C51.6129 51.3444 50.6229 51.4744 49.5629 51.4744C48.4429 51.4744 47.4129 51.4044 46.4729 51.2644C45.5529 51.1244 44.6629 50.9444 43.8029 50.7244C43.6429 50.6844 43.5029 50.6244 43.3829 50.5444C43.2829 50.4444 43.2329 50.3144 43.2329 50.1544V48.2944C43.2329 48.1344 43.2829 48.0044 43.3829 47.9044C43.4829 47.8044 43.6129 47.7544 43.7729 47.7544H43.8329C45.0329 47.8744 46.1029 47.9744 47.0429 48.0544C48.0029 48.1344 48.8429 48.1744 49.5629 48.1744C50.7829 48.1744 51.6429 47.9144 52.1429 47.3944C52.6629 46.8544 52.9229 46.0544 52.9229 44.9944V44.3644C52.9229 43.9644 52.8829 43.5844 52.8029 43.2244C52.7429 42.8644 52.6029 42.5444 52.3829 42.2644C52.1829 41.9844 51.9029 41.7644 51.5429 41.6044C51.1829 41.4244 50.7229 41.3344 50.1629 41.3344H44.8529C44.4729 41.3344 44.2829 41.1444 44.2829 40.7644V38.8744C44.2829 38.4944 44.4729 38.3044 44.8529 38.3044H50.1629C50.7229 38.3044 51.1829 38.2244 51.5429 38.0644C51.9029 37.9044 52.1829 37.6944 52.3829 37.4344C52.6029 37.1544 52.7429 36.8444 52.8029 36.5044C52.8829 36.1444 52.9229 35.7644 52.9229 35.3644V34.8844C52.9229 34.5044 52.8729 34.1444 52.7729 33.8044C52.6929 33.4444 52.5229 33.1344 52.2629 32.8744C52.0229 32.6144 51.6829 32.4044 51.2429 32.2444C50.8029 32.0844 50.2429 32.0044 49.5629 32.0044C49.0229 32.0044 48.5429 32.0144 48.1229 32.0344C47.7229 32.0544 47.3129 32.0844 46.8929 32.1244C46.4729 32.1444 46.0229 32.1844 45.5429 32.2444C45.0629 32.3044 44.4929 32.3644 43.8329 32.4244H43.7729C43.6129 32.4244 43.4829 32.3744 43.3829 32.2744C43.2829 32.1744 43.2329 32.0444 43.2329 31.8844V30.0244C43.2329 29.8644 43.2829 29.7444 43.3829 29.6644C43.5029 29.5644 43.6429 29.4944 43.8029 29.4544C44.6629 29.2344 45.5529 29.0544 46.4729 28.9144C47.4129 28.7744 48.4429 28.7044 49.5629 28.7044C50.6429 28.7044 51.6429 28.8144 52.5629 29.0344C53.4829 29.2544 54.2729 29.6144 54.9329 30.1144C55.6129 30.5944 56.1429 31.2244 56.5229 32.0044C56.9029 32.7844 57.0929 33.7444 57.0929 34.8844V35.3644C57.0929 36.4244 56.8629 37.3244 56.4029 38.0644C55.9629 38.7844 55.3329 39.3644 54.5129 39.8044C55.3529 40.2644 55.9929 40.9044 56.4329 41.7244C56.8729 42.5244 57.0929 43.4044 57.0929 44.3644V44.9944Z" fill="#BB7FFF"/>
<defs>
<linearGradient id="paint0_linear_1430_2986" x1="9.5" y1="67.2344" x2="80" y2="31.2344" gradientUnits="userSpaceOnUse">
<stop stop-color="#20113E"/>
<stop offset="1" stop-color="#592B8A"/>
</linearGradient>
</defs>
</svg>
