<svg width="94" height="95" viewBox="0 0 94 95" fill="none" xmlns="http://www.w3.org/2000/svg">
<rect y="0.234375" width="94" height="94" rx="47" fill="url(#paint0_linear_1845_5607)"/>
<path d="M33.404 43.8804C33.656 43.8804 33.782 43.9884 33.782 44.2044V45.5184C33.782 45.7464 33.662 45.8724 33.422 45.8964C33.326 45.9084 33.242 45.9144 33.17 45.9144C33.098 45.9144 33.044 45.9144 33.008 45.9144C31.472 45.9144 30.332 45.5484 29.588 44.8164C28.856 44.0964 28.49 42.9744 28.49 41.4504C28.49 41.1264 28.502 40.7664 28.526 40.3704C28.562 39.9624 28.592 39.6324 28.616 39.3804C28.652 39.1284 28.796 39.0024 29.048 39.0024C29.204 38.9904 29.408 38.9844 29.66 38.9844C29.912 38.9844 30.164 38.9844 30.416 38.9844H30.812L29.48 35.4744C29.444 35.4144 29.42 35.3364 29.408 35.2404C29.396 35.1324 29.396 35.0484 29.408 34.9884L29.444 34.0704C29.456 33.9144 29.57 33.7464 29.786 33.5664C30.002 33.3984 30.266 33.2424 30.578 33.0984C30.89 32.9544 31.22 32.8284 31.568 32.7204C31.928 32.6124 32.294 32.5284 32.666 32.4684C33.038 32.4084 33.398 32.3784 33.746 32.3784C34.346 32.3784 34.91 32.4444 35.438 32.5764C35.966 32.6964 36.422 32.9004 36.806 33.1884C37.202 33.4644 37.514 33.8364 37.742 34.3044C37.97 34.7604 38.084 35.3184 38.084 35.9784V36.3744C38.084 36.6144 38.06 36.8604 38.012 37.1124C37.976 37.3644 37.916 37.6104 37.832 37.8504C37.76 38.0784 37.664 38.2884 37.544 38.4804C37.436 38.6724 37.31 38.8224 37.166 38.9304H39.38V41.2344H32.126C32.042 41.2344 31.94 41.2344 31.82 41.2344C31.712 41.2344 31.592 41.2344 31.46 41.2344C31.34 41.2344 31.22 41.2344 31.1 41.2344C30.98 41.2464 30.878 41.2524 30.794 41.2524C30.794 41.3124 30.788 41.4024 30.776 41.5224C30.776 41.6424 30.776 41.7324 30.776 41.7924C30.8 42.4764 31.004 42.9924 31.388 43.3404C31.772 43.7004 32.372 43.8804 33.188 43.8804H33.404ZM34.16 38.9844C34.448 38.9364 34.694 38.8344 34.898 38.6784C35.102 38.5224 35.27 38.3304 35.402 38.1024C35.546 37.8744 35.648 37.6224 35.708 37.3464C35.78 37.0704 35.816 36.7824 35.816 36.4824V36.3204C35.816 35.0484 35.126 34.4124 33.746 34.4124C33.47 34.4124 33.146 34.4424 32.774 34.5024C32.402 34.5504 32.03 34.6944 31.658 34.9344L33.242 38.9844H34.16ZM39.7788 43.2144C39.7788 43.0944 39.8208 42.9924 39.9048 42.9084C39.9888 42.8364 40.0848 42.8004 40.1928 42.8004H41.5788C41.6988 42.8004 41.8008 42.8364 41.8848 42.9084C41.9808 42.9924 42.0288 43.0944 42.0288 43.2144V44.6544C42.0288 44.7504 41.9808 44.8344 41.8848 44.9064C41.8008 44.9904 41.6988 45.0324 41.5788 45.0324H40.1928C40.0848 45.0324 39.9888 44.9904 39.9048 44.9064C39.8208 44.8344 39.7788 44.7504 39.7788 44.6544V43.2144ZM38.6628 39.1464C38.6628 39.0864 38.7288 39.0384 38.8608 39.0024C38.9928 38.9544 39.1248 38.9304 39.2568 38.9304H40.3908C40.6788 38.9304 40.8708 38.9064 40.9668 38.8584C41.0628 38.7984 41.1108 38.6244 41.1108 38.3364C41.1108 37.6524 41.1108 36.9384 41.1108 36.1944C41.1108 35.4504 41.0988 34.6464 41.0748 33.7824C41.0748 33.6864 41.1048 33.6084 41.1648 33.5484C41.2368 33.4764 41.3268 33.4404 41.4348 33.4404H42.9468C43.0788 33.4404 43.1748 33.4764 43.2348 33.5484C43.2948 33.6084 43.3308 33.6864 43.3428 33.7824C43.3548 34.1664 43.3608 34.5084 43.3608 34.8084C43.3728 35.0964 43.3788 35.3724 43.3788 35.6364C43.3788 35.9004 43.3788 36.1644 43.3788 36.4284C43.3788 36.6924 43.3788 36.9864 43.3788 37.3104C43.3788 38.0784 43.3728 38.7264 43.3608 39.2544C43.3608 39.7704 43.3428 40.1904 43.3068 40.5144C43.2828 40.6344 43.2408 40.7364 43.1808 40.8204C43.1328 40.9044 43.0368 40.9764 42.8928 41.0364C42.7608 41.0724 42.5808 41.1024 42.3528 41.1264C42.1368 41.1504 41.8908 41.1744 41.6148 41.1984C41.3508 41.2104 41.0748 41.2224 40.7868 41.2344C40.4988 41.2344 40.2348 41.2344 39.9948 41.2344H39.2568C39.1248 41.2344 38.9928 41.2164 38.8608 41.1804C38.7288 41.1444 38.6628 41.0904 38.6628 41.0184V39.1464ZM44.043 43.7904C44.043 43.6104 44.145 43.5204 44.349 43.5204H44.727C45.063 43.5204 45.345 43.5024 45.573 43.4664C45.813 43.4424 46.005 43.3764 46.149 43.2684C46.293 43.1604 46.395 42.9984 46.455 42.7824C46.527 42.5784 46.563 42.2904 46.563 41.9184V33.8364C46.563 33.7404 46.593 33.6624 46.653 33.6024C46.725 33.5304 46.815 33.4944 46.923 33.4944H48.489C48.585 33.4944 48.663 33.5304 48.723 33.6024C48.795 33.6624 48.831 33.7404 48.831 33.8364V38.9304H50.433V41.2344H48.777V42.0804C48.777 42.4884 48.747 42.8664 48.687 43.2144C48.639 43.5624 48.549 43.8624 48.417 44.1144C48.141 44.6304 47.763 44.9904 47.283 45.1944C46.803 45.4104 46.185 45.5184 45.429 45.5184C45.333 45.5184 45.159 45.5124 44.907 45.5004C44.655 45.5004 44.451 45.4884 44.295 45.4644C44.127 45.4284 44.043 45.3144 44.043 45.1224V43.7904ZM49.7195 39.1464C49.7195 39.0864 49.7855 39.0384 49.9175 39.0024C50.0495 38.9544 50.1815 38.9304 50.3135 38.9304H51.5375C51.8255 38.9304 52.0115 38.9064 52.0955 38.8584C52.1915 38.7984 52.2395 38.6244 52.2395 38.3364V27.9144C52.2395 27.8064 52.2755 27.7164 52.3475 27.6444C52.4195 27.5724 52.5035 27.5364 52.5995 27.5364H54.2375C54.3335 27.5364 54.4115 27.5724 54.4715 27.6444C54.5435 27.7164 54.5795 27.8064 54.5795 27.9144V38.3724C54.5795 38.6964 54.5735 39.0564 54.5615 39.4524C54.5495 39.8364 54.5255 40.1904 54.4895 40.5144C54.4655 40.6344 54.4235 40.7364 54.3635 40.8204C54.3155 40.9044 54.2195 40.9764 54.0755 41.0364C53.9435 41.0724 53.7575 41.1024 53.5175 41.1264C53.2895 41.1504 53.0375 41.1744 52.7615 41.1984C52.4855 41.2104 52.1975 41.2224 51.8975 41.2344C51.6095 41.2344 51.3455 41.2344 51.1055 41.2344H50.3135C50.1815 41.2344 50.0495 41.2164 49.9175 41.1804C49.7855 41.1444 49.7195 41.0904 49.7195 41.0184V39.1464ZM57.3463 27.8964C57.3463 27.8004 57.3763 27.7164 57.4363 27.6444C57.5083 27.5724 57.5983 27.5364 57.7063 27.5364H59.3263C59.4343 27.5364 59.5183 27.5724 59.5783 27.6444C59.6503 27.7164 59.6863 27.8004 59.6863 27.8964V40.8564C59.6863 40.9524 59.6503 41.0424 59.5783 41.1264C59.5183 41.1984 59.4343 41.2344 59.3263 41.2344H57.7063C57.5983 41.2344 57.5083 41.1984 57.4363 41.1264C57.3763 41.0424 57.3463 40.9524 57.3463 40.8564V27.8964ZM33.404 68.8804C33.656 68.8804 33.782 68.9884 33.782 69.2044V70.5184C33.782 70.7464 33.662 70.8724 33.422 70.8964C33.326 70.9084 33.242 70.9144 33.17 70.9144C33.098 70.9144 33.044 70.9144 33.008 70.9144C31.472 70.9144 30.332 70.5484 29.588 69.8164C28.856 69.0964 28.49 67.9744 28.49 66.4504C28.49 66.1264 28.502 65.7664 28.526 65.3704C28.562 64.9624 28.592 64.6324 28.616 64.3804C28.652 64.1284 28.796 64.0024 29.048 64.0024C29.204 63.9904 29.408 63.9844 29.66 63.9844C29.912 63.9844 30.164 63.9844 30.416 63.9844H30.812L29.48 60.4744C29.444 60.4144 29.42 60.3364 29.408 60.2404C29.396 60.1324 29.396 60.0484 29.408 59.9884L29.444 59.0704C29.456 58.9144 29.57 58.7464 29.786 58.5664C30.002 58.3984 30.266 58.2424 30.578 58.0984C30.89 57.9544 31.22 57.8284 31.568 57.7204C31.928 57.6124 32.294 57.5284 32.666 57.4684C33.038 57.4084 33.398 57.3784 33.746 57.3784C34.346 57.3784 34.91 57.4444 35.438 57.5764C35.966 57.6964 36.422 57.9004 36.806 58.1884C37.202 58.4644 37.514 58.8364 37.742 59.3044C37.97 59.7604 38.084 60.3184 38.084 60.9784V61.3744C38.084 61.6144 38.06 61.8604 38.012 62.1124C37.976 62.3644 37.916 62.6104 37.832 62.8504C37.76 63.0784 37.664 63.2884 37.544 63.4804C37.436 63.6724 37.31 63.8224 37.166 63.9304H39.38V66.2344H32.126C32.042 66.2344 31.94 66.2344 31.82 66.2344C31.712 66.2344 31.592 66.2344 31.46 66.2344C31.34 66.2344 31.22 66.2344 31.1 66.2344C30.98 66.2464 30.878 66.2524 30.794 66.2524C30.794 66.3124 30.788 66.4024 30.776 66.5224C30.776 66.6424 30.776 66.7324 30.776 66.7924C30.8 67.4764 31.004 67.9924 31.388 68.3404C31.772 68.7004 32.372 68.8804 33.188 68.8804H33.404ZM34.16 63.9844C34.448 63.9364 34.694 63.8344 34.898 63.6784C35.102 63.5224 35.27 63.3304 35.402 63.1024C35.546 62.8744 35.648 62.6224 35.708 62.3464C35.78 62.0704 35.816 61.7824 35.816 61.4824V61.3204C35.816 60.0484 35.126 59.4124 33.746 59.4124C33.47 59.4124 33.146 59.4424 32.774 59.5024C32.402 59.5504 32.03 59.6944 31.658 59.9344L33.242 63.9844H34.16ZM39.7788 68.2144C39.7788 68.0944 39.8208 67.9924 39.9048 67.9084C39.9888 67.8364 40.0848 67.8004 40.1928 67.8004H41.5788C41.6988 67.8004 41.8008 67.8364 41.8848 67.9084C41.9808 67.9924 42.0288 68.0944 42.0288 68.2144V69.6544C42.0288 69.7504 41.9808 69.8344 41.8848 69.9064C41.8008 69.9904 41.6988 70.0324 41.5788 70.0324H40.1928C40.0848 70.0324 39.9888 69.9904 39.9048 69.9064C39.8208 69.8344 39.7788 69.7504 39.7788 69.6544V68.2144ZM38.6628 64.1464C38.6628 64.0864 38.7288 64.0384 38.8608 64.0024C38.9928 63.9544 39.1248 63.9304 39.2568 63.9304H40.3908C40.6788 63.9304 40.8708 63.9064 40.9668 63.8584C41.0628 63.7984 41.1108 63.6244 41.1108 63.3364C41.1108 62.6524 41.1108 61.9384 41.1108 61.1944C41.1108 60.4504 41.0988 59.6464 41.0748 58.7824C41.0748 58.6864 41.1048 58.6084 41.1648 58.5484C41.2368 58.4764 41.3268 58.4404 41.4348 58.4404H42.9468C43.0788 58.4404 43.1748 58.4764 43.2348 58.5484C43.2948 58.6084 43.3308 58.6864 43.3428 58.7824C43.3548 59.1664 43.3608 59.5084 43.3608 59.8084C43.3728 60.0964 43.3788 60.3724 43.3788 60.6364C43.3788 60.9004 43.3788 61.1644 43.3788 61.4284C43.3788 61.6924 43.3788 61.9864 43.3788 62.3104C43.3788 63.0784 43.3728 63.7264 43.3608 64.2544C43.3608 64.7704 43.3428 65.1904 43.3068 65.5144C43.2828 65.6344 43.2408 65.7364 43.1808 65.8204C43.1328 65.9044 43.0368 65.9764 42.8928 66.0364C42.7608 66.0724 42.5808 66.1024 42.3528 66.1264C42.1368 66.1504 41.8908 66.1744 41.6148 66.1984C41.3508 66.2104 41.0748 66.2224 40.7868 66.2344C40.4988 66.2344 40.2348 66.2344 39.9948 66.2344H39.2568C39.1248 66.2344 38.9928 66.2164 38.8608 66.1804C38.7288 66.1444 38.6628 66.0904 38.6628 66.0184V64.1464ZM46.149 52.8964C46.149 52.8004 46.179 52.7164 46.239 52.6444C46.311 52.5724 46.401 52.5364 46.509 52.5364H48.129C48.237 52.5364 48.321 52.5724 48.381 52.6444C48.453 52.7164 48.489 52.8004 48.489 52.8964V65.8564C48.489 65.9524 48.453 66.0424 48.381 66.1264C48.321 66.1984 48.237 66.2344 48.129 66.2344H46.509C46.401 66.2344 46.311 66.1984 46.239 66.1264C46.179 66.0424 46.149 65.9524 46.149 65.8564V52.8964ZM49.7033 68.8084C49.7033 68.6164 49.8173 68.5204 50.0453 68.5204H50.4053C50.6573 68.5204 50.8793 68.5024 51.0713 68.4664C51.2633 68.4424 51.4193 68.3764 51.5393 68.2684C51.6713 68.1604 51.7673 67.9984 51.8273 67.7824C51.8993 67.5784 51.9353 67.2904 51.9353 66.9184V58.8364C51.9353 58.7404 51.9713 58.6624 52.0433 58.6024C52.1153 58.5304 52.1993 58.4944 52.2953 58.4944H53.8613C53.9573 58.4944 54.0353 58.5304 54.0953 58.6024C54.1673 58.6624 54.2033 58.7404 54.2033 58.8364V63.9304H55.7873V66.2344H54.1493V67.0984C54.1493 67.5184 54.1193 67.8964 54.0593 68.2324C54.0113 68.5804 53.9213 68.8804 53.7893 69.1324C53.5373 69.6364 53.1833 69.9904 52.7273 70.1944C52.2833 70.4104 51.7013 70.5184 50.9813 70.5184C50.8973 70.5184 50.7473 70.5124 50.5313 70.5004C50.3153 70.5004 50.1413 70.4884 50.0093 70.4644C49.8053 70.4284 49.7033 70.3144 49.7033 70.1224V68.8084ZM55.0632 64.1464C55.0632 64.0864 55.1292 64.0384 55.2612 64.0024C55.3932 63.9544 55.5252 63.9304 55.6572 63.9304H56.8812C57.1692 63.9304 57.3552 63.9064 57.4392 63.8584C57.5352 63.7984 57.5832 63.6244 57.5832 63.3364V52.9144C57.5832 52.8064 57.6192 52.7164 57.6912 52.6444C57.7632 52.5724 57.8472 52.5364 57.9432 52.5364H59.5812C59.6772 52.5364 59.7552 52.5724 59.8152 52.6444C59.8872 52.7164 59.9232 52.8064 59.9232 52.9144V63.3724C59.9232 63.6964 59.9172 64.0564 59.9052 64.4524C59.8932 64.8364 59.8692 65.1904 59.8332 65.5144C59.8092 65.6344 59.7672 65.7364 59.7072 65.8204C59.6592 65.9044 59.5632 65.9764 59.4192 66.0364C59.2872 66.0724 59.1012 66.1024 58.8612 66.1264C58.6332 66.1504 58.3812 66.1744 58.1052 66.1984C57.8292 66.2104 57.5412 66.2224 57.2412 66.2344C56.9532 66.2344 56.6892 66.2344 56.4492 66.2344H55.6572C55.5252 66.2344 55.3932 66.2164 55.2612 66.1804C55.1292 66.1444 55.0632 66.0904 55.0632 66.0184V64.1464ZM62.69 52.8964C62.69 52.8004 62.72 52.7164 62.78 52.6444C62.852 52.5724 62.942 52.5364 63.05 52.5364H64.67C64.778 52.5364 64.862 52.5724 64.922 52.6444C64.994 52.7164 65.03 52.8004 65.03 52.8964V65.8564C65.03 65.9524 64.994 66.0424 64.922 66.1264C64.862 66.1984 64.778 66.2344 64.67 66.2344H63.05C62.942 66.2344 62.852 66.1984 62.78 66.1264C62.72 66.0424 62.69 65.9524 62.69 65.8564V52.8964Z" fill="#BB7FFF"/>
<defs>
<linearGradient id="paint0_linear_1845_5607" x1="11.1625" y1="78.9594" x2="94" y2="36.6594" gradientUnits="userSpaceOnUse">
<stop stop-color="#20113E"/>
<stop offset="1" stop-color="#592B8A"/>
</linearGradient>
</defs>
</svg>
