<svg width="65" height="65" viewBox="0 0 65 65" fill="none" xmlns="http://www.w3.org/2000/svg">
<g clip-path="url(#clip0_1324_539)">
<mask id="mask0_1324_539" style="mask-type:luminance" maskUnits="userSpaceOnUse" x="0" y="0" width="65" height="65">
<path d="M64.682 0.166016H0.533203V64.166H64.682V0.166016Z" fill="white"/>
</mask>
<g mask="url(#mask0_1324_539)">
<path d="M24.8043 53.5675C23.8581 53.7801 24.0176 55.4492 24.0814 56.2359C24.3365 59.3403 26.9624 61.7961 30.0349 62.0406C38.6462 61.626 47.7996 62.604 56.3472 62.0406C58.9305 61.8705 61.2694 60.2864 62.1305 57.82C62.492 56.7888 63.1405 53.7163 61.599 53.5356L24.7937 53.5675H24.8043ZM26.1864 47.0718C23.3053 47.3908 23.3266 51.1117 26.282 51.4094H60.3551C63.2362 51.1223 63.3638 47.327 60.2276 47.0399C59.4834 46.9655 58.2183 46.9761 57.4634 47.0399C55.5923 47.1888 54.5292 48.9535 53.0089 49.8466C49.9684 51.6326 48.5013 47.3482 45.9286 47.0612L26.1864 47.0825V47.0718ZM25.0488 42.8193C23.7518 43.0532 23.7624 44.733 24.9 44.903C32.2674 45.02 39.688 44.7011 47.0342 45.0732C48.8202 45.6366 49.9684 47.327 51.5737 48.1562C52.0734 48.1562 54.7312 45.509 55.8262 45.1582C57.6548 44.5629 59.9086 45.1901 61.7159 44.903C63.1192 44.6904 62.5133 42.5854 61.0993 42.7768L25.0382 42.8087L25.0488 42.8193ZM34.5744 27.9569C29.7266 28.4778 25.5166 32.0499 24.3897 36.7914C24.1771 37.6632 23.603 40.2678 24.698 40.608L61.482 40.6718C63.1405 40.608 62.4495 38.014 62.205 36.9403C61.0993 32.1031 56.698 28.2758 51.7119 27.9143C46.1837 27.521 40.1558 28.1908 34.585 27.9569M32.48 22.5456H4.91327L7.82623 60.329C7.84749 60.9349 8.95314 62.0512 9.4847 62.0512H24.7086C23.3266 60.5522 22.1359 58.7024 21.9551 56.608C21.8169 55.0771 21.7638 53.1423 23.0714 52.111C21.5299 50.5589 21.5405 47.9117 23.0714 46.3595C21.7106 45.2114 21.5405 43.2021 22.6781 41.8413C21.6681 40.4379 21.8594 38.7901 22.1359 37.1741C22.997 32.018 27.1219 27.5423 32.2143 26.2878L32.48 22.5562V22.5456ZM34.7339 17.2937H2.65945V20.4193H34.7339V17.2937ZM31.8528 15.0399C31.3744 13.8705 31.2149 13.0094 29.7903 12.9137C22.5292 12.4034 14.6834 13.307 7.35845 12.9137C6.2528 12.9668 5.88071 14.1682 5.54051 15.0399H31.8528ZM19.8289 10.7874V4.97215C19.8289 4.68511 19.3186 4.11103 18.989 4.05787L12.9717 2.30372C12.3232 2.2293 12.1425 3.5901 12.0787 4.0685L12.2382 4.29176C13.5352 4.96152 15.7678 5.04657 16.9797 5.68445C17.2987 5.85455 17.7026 6.36485 17.7026 6.71568V10.7768H19.8289V10.7874ZM0.533203 16.6665C0.969083 15.9861 1.17108 15.4545 2.01094 15.1994C2.27672 15.1143 3.03154 15.0825 3.13785 15.0187C3.28669 14.923 4.31792 12.3821 4.83885 11.8399C5.24284 11.4147 6.41227 10.7981 6.98636 10.7981H15.4488V7.41734C12.1106 6.57747 8.62357 6.31169 10.4309 1.84657C10.803 0.911026 11.5791 0.219996 12.6315 0.16684C13.4289 0.124315 19.1485 1.74026 20.0415 2.14425C20.9239 2.54823 21.9551 3.86651 21.9551 4.85521V10.7981H30.5345C30.981 10.7981 32.1398 11.404 32.48 11.7336C33.0648 12.2971 34.0854 14.923 34.2555 15.0293C34.3618 15.0931 35.1166 15.1356 35.3824 15.21C36.0309 15.412 36.6581 15.9967 36.807 16.6665C36.9452 17.315 36.9664 20.3236 36.8389 20.9615C36.6262 22.014 35.6163 22.4818 34.6701 22.6732L34.4893 25.8094H51.8501C57.8462 26.2878 62.8641 30.5828 64.2993 36.3768L64.682 38.3011V40.2997L63.9379 41.7349L64.682 43.2977V44.5522C64.3737 45.222 64.1611 45.8599 63.5764 46.3595C64.1398 46.9974 64.395 47.7735 64.682 48.5496V49.921C64.395 50.6971 64.1292 51.4731 63.5764 52.111C64.1079 52.6532 64.395 53.2379 64.682 53.9183V56.6718C64.3312 58.3516 63.7996 59.7974 62.6834 61.1157C61.2269 62.8273 59.3664 63.7735 57.1658 64.1775H9.17639C7.40098 63.6991 6.12523 62.5296 5.69998 60.7117L2.78702 22.5456C1.63885 22.6413 0.93719 21.9183 0.533203 20.919V16.6665Z" fill="#592B8A"/>
<path d="M43.9719 33.3263C44.5141 33.2094 45.9919 33.1775 46.3214 33.6772C47.4802 35.4738 43.8444 36.1011 43.3553 34.634C43.1852 34.1237 43.4191 33.4433 43.9719 33.3157" fill="#592B8A"/>
<path d="M36.5727 34.5792C37.0511 35.015 36.9554 36.0569 36.3282 36.3227C35.7541 36.5672 34.1169 36.5672 33.8192 35.8868C33.0432 34.1008 35.8179 33.8988 36.5621 34.5792" fill="#592B8A"/>
<path d="M37.7104 30.072C38.529 29.8912 39.9961 29.9444 40.1024 31.0181C40.2194 32.2301 38.6672 32.3045 37.8167 32.1663C36.626 31.9856 36.5835 30.3271 37.7104 30.072Z" fill="#592B8A"/>
</g>
</g>
<defs>
<clipPath id="clip0_1324_539">
<rect width="64.1488" height="64" fill="white" transform="translate(0.533203 0.166016)"/>
</clipPath>
</defs>
</svg>
