<svg width="61" height="65" viewBox="0 0 61 65" fill="none" xmlns="http://www.w3.org/2000/svg">
<g clip-path="url(#clip0_1324_653)">
<mask id="mask0_1324_653" style="mask-type:luminance" maskUnits="userSpaceOnUse" x="0" y="0" width="61" height="65">
<path d="M60.8185 0.166016H0.161133V64.166H60.8185V0.166016Z" fill="white"/>
</mask>
<g mask="url(#mask0_1324_653)">
<path d="M14.6013 61.6661V49.9803C14.6013 49.7901 14.0034 49.5636 13.786 49.5365C12.4363 49.3734 9.15701 49.4096 7.77102 49.5365C7.45397 49.5636 6.83797 49.7176 6.83797 50.1072V61.6661H14.6013ZM34.5034 61.6661V39.7349C34.5034 39.3816 33.9236 39.0736 33.5703 39.0374C31.6408 38.8471 29.4033 39.1823 27.4375 39.0555C27.1658 39.0193 26.6132 39.5356 26.6132 39.7349V61.6661H34.4943H34.5034ZM54.2786 61.6661V21.4815C54.2786 21.4815 53.9797 21.1826 53.8981 21.1101C51.8327 21.1464 49.3597 20.8384 47.3215 21.0377C47.086 21.0648 46.5152 21.246 46.5152 21.4815V61.6661H54.2786ZM44.015 21.1101C44.1872 20.0774 45.4916 18.8183 46.5062 18.6009C47.7925 18.3382 52.2585 18.4287 53.7169 18.5374C54.8493 18.619 55.9545 19.2893 56.4527 20.3039C56.507 20.4217 56.7788 21.0648 56.7788 21.1011V61.657H59.8497C59.9584 61.657 60.5563 62.0737 60.6469 62.2368C61.0545 62.9434 60.7375 63.8946 59.9131 64.1029L1.39367 64.1663C0.415325 64.0939 -0.146317 63.1064 0.342855 62.2368C0.433442 62.0737 1.03132 61.657 1.14002 61.657H4.3287V49.7176C4.3287 48.6306 5.91398 47.2718 6.95574 47.0906C8.26019 46.8551 12.7714 46.8822 14.1574 47.0362C15.8242 47.2174 17.2193 48.8027 17.2193 50.4786V61.6661H24.1039V39.6081C24.1039 38.0319 25.7979 36.673 27.2926 36.5372C28.6333 36.4194 33.5522 36.365 34.6483 36.7002C35.6085 36.9901 36.9945 38.3308 36.9945 39.3544V61.6661H44.006V21.1011L44.015 21.1101Z" fill="#592B8A"/>
<path d="M54.2786 4.54139L41.1344 17.6041C40.4278 18.1476 40.0564 18.1929 39.3136 17.6675L34.8114 13.1562L34.4943 13.0928L12.5994 34.8519C11.2496 35.2777 10.4434 33.937 11.2134 32.8409L33.7606 10.3571C34.1229 10.0219 34.5578 9.94946 35.0379 10.0582C35.8894 10.2575 39.839 15.0314 40.1923 15.0314L52.5212 2.65717H47.5752C47.4574 2.65717 46.9229 2.168 46.8324 2.02306C46.3251 1.22589 46.8324 0.510248 47.6023 0.184133L55.5922 0.166016C56.2263 0.274721 56.6973 0.546483 56.7788 1.22589C57.0597 3.63551 56.5886 6.60678 56.7517 9.07982C56.4527 9.95851 55.257 10.194 54.65 9.48746C54.5413 9.36064 54.2786 8.72652 54.2786 8.60876V4.55045V4.54139Z" fill="#592B8A"/>
<path d="M8.79405 39.0001C7.69794 40.1234 5.87714 38.3116 7.00042 37.2155C8.21429 36.0288 9.93545 37.8406 8.79405 39.0001Z" fill="#592B8A"/>
</g>
</g>
<defs>
<clipPath id="clip0_1324_653">
<rect width="60.6573" height="64" fill="white" transform="translate(0.161133 0.166016)"/>
</clipPath>
</defs>
</svg>
