<svg width="60" height="65" viewBox="0 0 60 65" fill="none" xmlns="http://www.w3.org/2000/svg">
<g clip-path="url(#clip0_1324_623)">
<mask id="mask0_1324_623" style="mask-type:luminance" maskUnits="userSpaceOnUse" x="0" y="0" width="60" height="65">
<path d="M59.8179 0.166016H0.0664062V64.166H59.8179V0.166016Z" fill="white"/>
</mask>
<g mask="url(#mask0_1324_623)">
<path d="M35.8937 47.9226V64.165H33.9099V35.177H35.8937V44.9876C35.8937 45.205 36.3738 45.7938 36.5731 45.9207C37.5424 46.5548 38.6657 45.9207 38.8559 44.8517C38.5751 40.3948 39.2726 35.3853 38.874 30.9828C38.7382 29.5243 37.633 28.3829 36.2017 28.1746C32.2159 28.4101 27.8767 27.8575 23.9271 28.1746C22.4143 28.2923 21.3454 29.2616 21.0283 30.7563C21.3182 35.2042 20.6026 40.2408 21.0102 44.6253C21.1189 45.7848 22.1426 46.6001 23.2387 45.9841C23.4651 45.8572 23.9905 45.2322 23.9905 44.9967V35.186H25.9744V64.174H23.9905V47.9317C21.6171 48.747 19.2528 47.4697 19.0263 44.8698C18.6459 40.4039 19.3253 35.3944 19.0263 30.865C19.2709 28.2471 21.1914 26.3628 23.8003 26.1817C27.8858 25.8918 32.3155 26.3991 36.4282 26.1998C38.8288 26.5259 40.6586 28.4101 40.8489 30.865C41.2112 35.4578 40.5952 40.5579 40.8126 45.205C40.414 47.5784 38.1041 48.7107 35.8847 47.9226" fill="#592B8A"/>
<path d="M54.7267 44.9246V61.1669H52.7429V32.179H54.7267V41.9896C54.7267 42.207 55.2068 42.7958 55.4061 42.9226C56.3754 43.5567 57.4987 42.9226 57.6889 41.8537V27.867C57.4987 26.4357 56.3664 25.3124 54.917 25.1766C50.9855 24.8142 46.5105 25.4574 42.5155 25.1766C41.9177 25.2671 41.356 25.5117 40.9031 25.9103L39.5986 24.3703C40.3958 23.7181 41.3651 23.3014 42.3887 23.1836C46.4923 23.4282 50.9674 22.8575 55.0347 23.1836C57.4534 23.3739 59.4554 25.2943 59.6728 27.7492C60.0804 32.342 59.401 37.5508 59.6456 42.207C59.247 44.5804 56.9371 45.7127 54.7177 44.9246" fill="#592B8A"/>
<path d="M5.15696 32.179H7.14082V61.1669H5.15696V44.9246C2.93756 45.7127 0.636644 44.5804 0.229001 42.207C0.473587 37.5508 -0.205819 32.342 0.201825 27.7492C0.419234 25.2853 2.42122 23.3739 4.8399 23.1836C8.89822 22.8575 13.3823 23.4282 17.4859 23.1836C18.5095 23.3014 19.4788 23.7181 20.276 24.3703L18.9715 25.9103C18.5186 25.5117 17.957 25.2671 17.3591 25.1766C13.3642 25.4574 8.89822 24.8142 4.95766 25.1766C3.50827 25.3124 2.37592 26.4357 2.17663 27.867V41.8537C2.37592 42.9226 3.49921 43.5567 4.46849 42.9317C4.66778 42.8049 5.1479 42.216 5.1479 41.9986V32.188L5.15696 32.179Z" fill="#592B8A"/>
<path d="M21.4896 2.22224C16.5164 2.81106 16.8969 11.5256 22.323 11.1813C27.5681 10.8552 27.1966 1.54284 21.4896 2.22224ZM21.2451 0.220262C29.5338 -0.785259 30.4125 12.513 22.5676 13.1833C14.5506 13.8627 13.681 1.13519 21.236 0.220262" fill="#592B8A"/>
<path d="M37.3515 2.22224C32.3783 2.81106 32.7588 11.5256 38.1849 11.1813C43.4299 10.8552 43.0585 1.54284 37.3515 2.22224ZM37.1069 0.220262C45.3957 -0.785259 46.2744 12.513 38.4295 13.1833C30.4125 13.8627 29.5429 1.14425 37.1069 0.220262Z" fill="#592B8A"/>
<path d="M10.583 11.2183C5.60973 11.8072 5.99019 20.5217 11.4164 20.1774C16.6614 19.8513 16.29 10.5389 10.583 11.2183ZM10.3384 9.21636C18.6271 8.21084 19.5058 21.5091 11.661 22.1794C3.64398 22.8588 2.77434 10.1403 10.3384 9.21636Z" fill="#592B8A"/>
<path d="M48.2588 11.2183C43.2855 11.8072 43.666 20.5217 49.0922 20.1774C54.3372 19.8513 53.9658 10.5389 48.2588 11.2183ZM48.0142 9.21636C56.3029 8.21084 57.1816 21.5091 49.3367 22.1794C41.3198 22.8588 40.4501 10.1403 48.0142 9.21636Z" fill="#592B8A"/>
<path d="M29.416 14.2164C24.4427 14.8052 24.8232 23.5197 30.2494 23.1755C35.4944 22.8494 35.123 13.537 29.416 14.2164ZM29.1714 12.2144C37.4601 11.2089 38.3388 24.5071 30.494 25.1775C22.477 25.8569 21.6073 13.1384 29.1714 12.2144Z" fill="#592B8A"/>
</g>
<path d="M17.0512 32.1797H15.0674V61.1677H17.0512V32.1797Z" fill="#592B8A"/>
<path d="M44.8169 32.1797H42.833V61.1677H44.8169V32.1797Z" fill="#592B8A"/>
<path d="M12.0962 47.1719H10.1123V61.1676H12.0962V47.1719Z" fill="#592B8A"/>
<path d="M49.7719 47.1719H47.7881V61.1676H49.7719V47.1719Z" fill="#592B8A"/>
<path d="M30.9389 50.1699H28.9551V64.1657H30.9389V50.1699Z" fill="#592B8A"/>
</g>
<defs>
<clipPath id="clip0_1324_623">
<rect width="59.7514" height="64" fill="white" transform="translate(0.0664062 0.166016)"/>
</clipPath>
</defs>
</svg>
