<svg width="49" height="65" viewBox="0 0 49 65" fill="none" xmlns="http://www.w3.org/2000/svg">
<g clip-path="url(#clip0_1324_643)">
<mask id="mask0_1324_643" style="mask-type:luminance" maskUnits="userSpaceOnUse" x="0" y="0" width="49" height="65">
<path d="M48.6819 0.166016H0.480469V64.166H48.6819V0.166016Z" fill="white"/>
</mask>
<g mask="url(#mask0_1324_643)">
<path d="M6.77605 56.2844L10.8726 46.0514C13.861 46.7314 16.2535 45.3883 19.0405 47.1343C19.3595 47.3358 21.584 49.0147 21.6512 49.1658C21.8946 49.7115 17.6722 59.0126 17.4455 60.4061C17.2189 60.6328 13.7939 55.9402 13.0636 55.7136C12.753 55.6212 12.434 55.6464 12.115 55.6632C11.3846 55.6884 6.98591 56.4607 6.78444 56.2844M31.7498 60.4061L27.5022 49.2498C28.6103 48.3599 30.1045 46.8573 31.4728 46.446C33.7225 45.7576 36.0562 46.6642 38.3144 46.0514L42.4109 56.2844C42.2094 56.4607 37.8107 55.6968 37.0803 55.6632C36.434 55.638 36.0562 55.6464 35.5525 56.0829C34.5956 56.9056 33.3784 58.7692 32.4382 59.7933C32.3542 59.8856 31.7918 60.4649 31.7498 60.4145M37.9786 7.08397C38.6501 7.69677 39.3889 11.4239 40.0017 12.6328C41.3532 15.277 43.4854 15.722 45.4161 17.4848C45.7435 17.7786 46.1716 18.1396 46.1716 18.6097C46.1716 19.6254 45.0048 21.8835 44.7278 23.0504C44.3416 24.637 44.3332 25.7366 44.7026 27.3232C44.946 28.3977 46.3311 31.4114 46.1465 32.2004C45.9702 32.9476 42.5788 34.8867 41.7813 35.6086C39.4644 37.6821 39.5567 39.7555 38.5242 42.3578C38.0961 43.4323 37.9114 43.7178 36.669 43.7597C33.6302 43.8605 31.8673 43.1553 28.9964 44.8678C28.0058 45.4638 25.5462 47.7555 24.648 47.7891C23.6659 47.8227 21.1559 45.4218 20.115 44.8258C17.3112 43.1973 15.5567 43.8521 12.6103 43.7765C11.2755 43.7429 11.116 43.4995 10.6627 42.3662C9.63019 39.7723 9.74771 37.7576 7.4644 35.6842C6.59136 34.8867 3.36786 33.0819 3.08245 32.3012C2.78024 31.4785 4.19892 28.5236 4.45915 27.4323C4.8453 25.8038 4.85369 24.6873 4.45915 23.0588C4.20731 22.0347 2.87258 19.2057 3.04047 18.3998C3.21676 17.5352 6.28077 15.8563 7.09504 15.1763C9.80648 12.9098 9.52106 11.0378 10.6711 8.1165C10.9565 7.39457 11.158 6.89929 11.9891 6.80695C15.3721 6.45438 17.2189 7.53727 20.4424 5.48061C21.3658 4.89299 23.6407 2.76078 24.5473 2.7188C25.4539 2.66844 28.1653 5.1952 29.1895 5.78281C32.136 7.46172 34.1842 6.47117 37.1979 6.80695C37.4245 6.83213 37.8023 6.94965 37.9702 7.10076M25.1181 0.200442C22.1632 -0.219286 20.1569 3.32321 17.5295 4.07033C15.2797 4.71671 11.754 3.61702 9.9156 4.85941C7.78339 6.30328 7.94289 9.9633 6.57458 12.0284C5.1559 14.1606 0.866286 15.2519 0.513715 17.9885C0.211512 20.3306 2.26818 22.9329 2.26818 25.2246C2.26818 27.5163 0.303852 29.9675 0.505321 32.3515C0.740368 35.1133 4.91246 36.2886 6.44866 38.3033C7.65747 39.8815 7.7666 42.4502 8.64803 44.2382L3.50217 57.8458C3.63649 58.9287 4.2241 59.0714 5.20627 59.0462C7.44761 58.9706 9.82327 58.2991 12.073 58.3159C12.2493 58.3662 12.4675 58.6433 12.6019 58.786C14.0121 60.2298 15.2461 62.2277 16.6732 63.6044C17.6134 64.511 18.5872 64.276 19.0405 63.084L24.1528 50.3075L25.1433 50.4166L30.2556 63.4449C30.7173 64.2256 31.498 64.4019 32.2367 63.8563L37.0887 58.3159C37.2902 58.2571 37.4833 58.2823 37.6848 58.2907C39.6155 58.3578 41.7645 58.9622 43.7036 59.0462C44.988 59.1049 45.945 58.8363 45.5672 57.3169L40.5137 44.2382C41.3867 42.4754 41.5043 39.957 42.6627 38.3788C44.157 36.3473 48.3458 35.1301 48.648 32.4691C48.9167 30.085 46.9355 27.617 46.902 25.3505C46.8684 22.9077 49.0678 20.2802 48.6061 17.787C48.1276 15.2015 43.9219 14.1102 42.5368 11.9612C41.2776 10.0053 41.2692 6.14378 39.2377 4.86781C37.1391 3.54986 33.5882 4.89299 31.1538 3.92762C29.1475 3.12174 27.3091 0.51104 25.1181 0.200442Z" fill="#592B8A"/>
<path d="M24.9836 11.3316C36.5177 11.6086 42.7129 25.191 35.3677 34.0976C29.4243 41.3001 18.1085 40.7041 12.9374 32.9475C6.66672 23.5456 13.7433 11.0545 24.9836 11.3232M25.7391 8.8216C12.8619 7.8982 3.92171 21.6065 10.0078 32.9895C15.8252 43.8604 31.4558 44.6999 38.3058 34.3914C45.3152 23.8478 38.3477 9.71981 25.7307 8.8216" fill="#592B8A"/>
<path d="M24.4631 20.0367C24.7569 19.9695 24.6646 20.0786 24.7401 20.1962C25.2018 20.9013 25.7979 22.7733 26.3435 23.2182C27.0151 23.7638 29.1892 23.7387 30.1043 23.9149C30.163 24.1332 29.9196 24.2927 29.9196 24.2927C29.9196 24.2927 27.737 25.9548 27.5271 26.9118C27.3424 27.768 28.0056 29.598 28.1064 30.5382C27.9552 30.6558 25.2942 28.9349 24.6562 28.9097C23.9091 28.8761 21.2396 30.6642 21.0801 30.5382C21.2144 29.5393 21.6426 28.3053 21.6929 27.3315C21.7601 25.98 19.9888 25.2497 19.2585 24.2927C19.1662 24.1668 19.0151 24.1332 19.0738 23.9149C19.9888 23.7387 22.1546 23.7722 22.8346 23.2182C23.4054 22.7481 24.0686 20.767 24.4715 20.0367M30.7003 33.7449C30.9857 33.4344 31.0109 32.8803 30.9857 32.4774C30.9017 30.9748 30.2554 29.1615 30.1294 27.6253C30.2637 27.0629 33.4201 24.746 33.9573 23.8058C34.503 22.8488 34.0581 22.0597 33.0256 21.8163C31.4642 21.4469 29.5922 21.405 27.9972 21.1363L25.4705 16.1248C25.0088 15.7135 24.396 15.6967 23.8671 16.0073C23.0528 16.4858 21.6845 20.8006 21.0717 21.0944C19.5019 21.4637 17.6971 21.4469 16.1525 21.8163C15.0948 22.0681 14.6247 22.9664 15.2459 23.9065C15.758 24.6788 18.9479 27.1804 19.0319 27.6169C18.9311 29.1951 18.226 31.0671 18.1756 32.6033C18.1504 33.3504 18.5618 34.1227 19.3844 34.1563C20.3582 34.1983 23.3802 31.9737 24.5219 31.6631L29.4663 34.1143C29.7937 34.2402 30.4652 33.9884 30.6835 33.7533" fill="#592B8A"/>
</g>
</g>
<defs>
<clipPath id="clip0_1324_643">
<rect width="48.2015" height="64" fill="white" transform="translate(0.480469 0.166016)"/>
</clipPath>
</defs>
</svg>
