<svg width="63" height="65" viewBox="0 0 63 65" fill="none" xmlns="http://www.w3.org/2000/svg">
<g clip-path="url(#clip0_1324_550)">
<mask id="mask0_1324_550" style="mask-type:luminance" maskUnits="userSpaceOnUse" x="0" y="0" width="63" height="65">
<path d="M62.818 0.166016H0.610352V64.166H62.818V0.166016Z" fill="white"/>
</mask>
<g mask="url(#mask0_1324_550)">
<path d="M17.9762 0.166016C17.5683 0.466535 17.1927 0.59533 17.2463 1.21784V56.6316C17.1605 57.5868 18.4484 57.9839 19.0065 57.3077C19.0602 57.2433 19.3178 56.6637 19.3178 56.6208V2.29112H44.0785V56.6316C44.0785 56.6316 44.3361 57.2541 44.3897 57.3185C44.9478 57.9946 46.2465 57.5975 46.1499 56.6423V1.21784C46.2036 0.59533 45.8279 0.466535 45.4201 0.166016H17.9869H17.9762Z" fill="#592B8A"/>
<path d="M57.5907 40.629C58.4064 40.6505 59.0933 42.2496 59.3402 42.9365C60.1344 45.1475 60.9823 50.4495 60.6818 52.7249C60.1773 56.5351 54.8002 56.3955 54.5211 52.5103C54.3494 50.2027 55.2188 42.5072 56.8931 40.9617C57.0433 40.8222 57.4083 40.6183 57.6015 40.6183M62.7854 50.8145C62.6566 47.8522 61.7658 39.7811 58.5352 38.6541C56.8716 38.0746 55.6051 39.0942 54.725 40.468C53.1259 42.9902 52.1492 50.1383 52.4819 53.1113C52.718 55.2364 54.5855 57.1146 56.5818 57.5762C56.7643 57.8767 56.4638 62.3415 56.6033 63.2324C56.7643 64.2735 58.4064 64.3915 58.6318 63.0821C58.7928 62.1698 58.4923 57.8874 58.7177 57.5547C60.7032 57.1361 62.5386 55.1398 62.7962 53.0684C62.8713 52.4781 62.8284 51.4477 62.7962 50.8252" fill="#592B8A"/>
<path d="M62.7746 13.6474C62.4633 13.1644 62.0555 12.9605 61.4974 12.8961C57.6872 13.1859 53.3404 12.5097 49.6054 12.8961C48.7467 12.982 48.0598 13.4328 48.3496 14.4309C48.3818 14.549 48.8326 15.0212 48.8755 15.0212H60.5314L60.7139 15.2037V35.5424C60.7139 35.5424 60.9715 36.0469 61.0466 36.1113C61.6584 36.6694 62.4848 36.3045 62.7746 35.6068V13.6474Z" fill="#592B8A"/>
<path d="M8.29507 57.7263C9.94793 58.016 9.62595 60.1734 10.9998 60.1304C11.3539 60.1197 11.6437 59.787 12.0838 59.8084C13.2322 59.8514 13.4898 61.7511 11.9657 61.9443C9.38982 61.7511 6.48122 62.1911 3.94827 61.9443C2.05929 61.7618 2.553 59.744 3.83021 59.8084C4.34538 59.8299 4.62444 60.3236 5.25768 60.0338C5.82652 59.7762 5.90165 58.9927 6.22363 58.5312C6.69588 57.8551 7.51158 57.5867 8.29507 57.7263ZM2.68179 57.8229V15.2027L2.86425 15.0095H14.5201C14.5201 15.0095 15.0031 14.5373 15.046 14.4192C15.3358 13.421 14.6489 12.9703 13.7903 12.8844C10.0445 12.498 5.69772 13.1742 1.89829 12.8844C1.40458 12.9488 0.771344 13.1527 0.653283 13.7216L0.610352 60.8817C0.610352 62.3951 1.8017 63.8118 3.26137 64.0264C6.00898 64.4343 9.50789 63.7903 12.3306 64.0586C15.9369 63.6615 15.8939 58.2736 12.6633 57.7263C12.2877 57.6619 11.7725 57.7799 11.4935 57.6726C11.3003 57.6082 11.0427 57.0179 10.8495 56.8354C8.86391 54.8177 5.72992 55.2362 4.24879 57.6297L2.67106 57.8121L2.68179 57.8229Z" fill="#592B8A"/>
<path d="M27.5709 46.9613H35.8245V56.7604C35.8245 57.1468 36.3826 57.6297 36.769 57.6727C37.091 57.7049 37.8959 57.2434 37.8959 57.018V47.1652L38.0784 46.9827H41.4807C41.5451 46.9827 41.9315 46.4998 41.9744 46.371C42.3286 45.2118 41.4271 44.9328 40.5148 44.8576C34.7512 44.4283 28.4832 45.1904 22.666 44.8576C21.8074 44.922 21.142 45.3835 21.4425 46.3602C21.4854 46.4998 21.8718 46.972 21.9362 46.972H25.3385L25.521 47.1545V57.0072C25.521 57.2326 26.3259 57.7049 26.6479 57.6619C27.0236 57.6297 27.5924 57.136 27.5924 56.7496V46.9505L27.5709 46.9613Z" fill="#592B8A"/>
<path d="M46.1391 61.9327C45.9459 62.9631 46.5255 64.6374 47.7598 63.9183C48.554 63.4568 48.7472 59.8398 47.2875 59.8184H18.1478C16.8277 59.9794 16.935 61.8898 18.2659 61.9435H46.1284L46.1391 61.9327Z" fill="#592B8A"/>
<path d="M10.9355 51.3298H9.05724C8.88551 51.2225 8.88551 51.083 8.86405 50.9005C8.77818 50.1599 8.77818 48.1314 8.86405 47.3909C8.88551 47.2084 8.87478 47.0689 9.05724 46.9615H10.9355V51.3298ZM11.9336 44.8686C11.1179 44.7398 8.91771 44.7398 8.08055 44.8364C7.33998 44.9223 6.89994 45.2121 6.80334 46.017C6.64235 47.3694 6.67455 50.761 6.80334 52.1455C6.8892 53.0149 7.23265 53.3476 8.08055 53.4549C8.92844 53.5515 10.9999 53.5515 11.8478 53.4549C12.3308 53.4013 12.6527 53.2295 12.9318 52.8324L12.9962 45.6629C12.8352 45.1477 12.4059 44.9545 11.9336 44.8794" fill="#592B8A"/>
<path d="M35.825 34.2326H37.8857V38.4721H35.825V34.2326ZM34.0433 40.3074C34.1828 40.4576 34.4619 40.5757 34.6658 40.5972C35.621 40.7152 37.9393 40.6938 38.9268 40.5972C39.5493 40.5435 39.882 40.3288 39.9571 39.6527C40.1181 38.2037 40.0966 34.6297 39.9571 33.1486C39.8927 32.4831 39.5815 32.1719 38.916 32.0967C38.2935 32.0216 34.8161 32.0216 34.3868 32.1933C34.0218 32.3436 33.7857 32.7729 33.7428 33.1593C33.5818 34.5653 33.614 37.9676 33.7428 39.4058C33.7643 39.6956 33.8394 40.082 34.0326 40.2966" fill="#592B8A"/>
<path d="M25.4997 34.2326H27.5604V38.4721H25.4997V34.2326ZM23.7181 32.3973C23.5141 32.5905 23.4497 32.891 23.4283 33.1593C23.2887 34.6404 23.2673 38.2038 23.4283 39.6634C23.5034 40.3396 23.8361 40.5435 24.4586 40.6079C25.446 40.7045 27.7643 40.726 28.7196 40.6079C29.385 40.522 29.5782 40.0391 29.6319 39.4273C29.7607 37.9891 29.7929 34.5868 29.6319 33.1808C29.5889 32.7944 29.3528 32.3651 28.9879 32.2148C28.5693 32.0431 25.0919 32.0431 24.4586 32.1182C24.2332 32.1397 23.8683 32.2578 23.7073 32.408" fill="#592B8A"/>
<path d="M52.4504 21.5022H54.5111V25.7416H52.4504V21.5022ZM50.6687 27.577C50.8297 27.7272 51.1946 27.8453 51.42 27.8667C52.1069 27.9419 55.4126 27.9526 55.9278 27.7487C56.4537 27.534 56.5396 27.0832 56.5932 26.5573C56.7328 25.0655 56.722 22.1891 56.5932 20.6865C56.5396 20.0318 56.4 19.4629 55.6809 19.3771C55.1443 19.3127 51.1839 19.3234 50.8834 19.4414C50.8082 19.4736 50.4862 19.8064 50.454 19.8815L50.3896 26.933C50.4111 27.1369 50.5292 27.4374 50.6794 27.577" fill="#592B8A"/>
<path d="M35.8245 21.5036H37.8852V25.7431H35.8245V21.5036ZM39.6668 27.5784C39.8707 27.3852 39.9351 27.0847 39.9566 26.8164C40.0961 25.3353 40.1176 21.772 39.9566 20.3123C39.9137 19.9581 39.7741 19.6254 39.4414 19.4751C39.0336 19.2927 35.4488 19.3141 34.7941 19.3785C34.0321 19.4537 33.8281 19.8078 33.7637 20.5591C33.6242 22.0295 33.635 25.0884 33.7637 26.5588C33.8496 27.4926 34.1394 27.7823 35.041 27.8682C35.964 27.9541 38.0247 27.9755 38.937 27.8682C39.1624 27.8467 39.5273 27.7287 39.6883 27.5784" fill="#592B8A"/>
<path d="M25.4997 21.5024H27.5604V25.7418H25.4997V21.5024ZM23.7181 27.5772C23.8791 27.7274 24.244 27.8455 24.4694 27.867C25.3817 27.9743 27.4316 27.9528 28.3654 27.867C29.267 27.7811 29.5567 27.4913 29.6426 26.5575C29.7714 25.0871 29.7821 22.0175 29.6426 20.5579C29.5675 19.7958 29.3743 19.4417 28.6123 19.3773C27.9575 19.3129 24.3728 19.3021 23.9649 19.4739C23.6322 19.6241 23.482 19.9568 23.4498 20.311C23.2888 21.76 23.3102 25.334 23.4498 26.8151C23.4712 27.0835 23.5356 27.384 23.7395 27.5772" fill="#592B8A"/>
<path d="M8.87499 21.5025H10.9357V25.742H8.87499V21.5025ZM7.09334 19.6672C6.92161 19.8818 6.83575 20.397 6.80355 20.6868C6.68549 22.1894 6.67476 25.0765 6.80355 26.5577C6.84648 27.0836 6.94308 27.5343 7.46899 27.749C7.97343 27.9529 11.2899 27.9422 11.9768 27.8671C12.5242 27.8027 12.9427 27.5343 13.0071 26.9333L12.9427 19.8818C12.9105 19.8067 12.5886 19.474 12.5134 19.4418C12.2129 19.313 8.24175 19.3022 7.71584 19.3666C7.52265 19.3881 7.2114 19.5169 7.09334 19.6564" fill="#592B8A"/>
<path d="M8.87448 34.2314H10.9352V38.4709H8.87448V34.2314ZM12.1802 32.1385C11.547 32.0097 8.38077 32.0097 7.72607 32.1171C7.06063 32.2244 6.85671 32.7932 6.80304 33.4157C6.67425 34.8217 6.65278 38.0309 6.80304 39.4154C6.84597 39.791 7.0499 40.3814 7.41481 40.5316C7.72607 40.6604 11.547 40.6604 12.0836 40.596C12.7383 40.5209 12.9422 40.1774 12.9959 39.5335C13.1247 38.0309 13.1569 34.4998 12.9959 33.0401C12.9422 32.5356 12.6632 32.2351 12.1802 32.1385Z" fill="#592B8A"/>
<path d="M35.825 8.65647H37.8857V12.8959H35.825V8.65647ZM39.0126 6.56356C38.2613 6.42403 35.7176 6.4455 34.9127 6.53136C34.0755 6.62796 33.8287 7.00361 33.7535 7.84077C33.6247 9.24677 33.5925 12.5954 33.7535 13.9585C33.8394 14.6669 34.1077 14.9566 34.7839 15.021C35.782 15.1176 38.0681 15.1391 39.0448 15.021C39.6995 14.9459 39.9035 14.6025 39.9571 13.9585C40.1396 11.8656 39.8069 9.47216 39.9571 7.34706C39.882 6.94994 39.3776 6.62796 39.0234 6.56356" fill="#592B8A"/>
<path d="M25.5002 8.65524H27.5609V12.8947H25.5002V8.65524ZM28.6878 6.56233C27.958 6.4228 25.2318 6.43354 24.4805 6.54087C24.0512 6.60526 23.7614 6.80919 23.5038 7.15264L23.4395 14.0753C23.4824 14.6442 23.8151 14.9447 24.3517 15.0091C24.9313 15.0842 28.7951 15.0735 29.1171 14.9125C29.4177 14.773 29.6001 14.2685 29.6323 13.9465C29.7826 12.6264 29.7718 9.03089 29.6323 7.70001C29.5679 7.07751 29.3318 6.65893 28.6878 6.54087" fill="#592B8A"/>
<path d="M52.4504 34.2328H54.5111C54.5111 34.9627 54.2964 36.0789 55.2087 36.3257C56.0029 36.5404 56.4859 35.9286 56.5718 35.1666C56.6576 34.3724 56.765 32.4512 55.8527 32.1614C55.4019 32.0219 51.8708 32.0219 51.302 32.1077C50.9907 32.1614 50.5399 32.3975 50.4326 32.7195L50.4004 39.8783C50.658 41.0697 52.4396 40.6189 52.4396 39.6529V34.2221L52.4504 34.2328Z" fill="#592B8A"/>
<path d="M32.0899 51.3516C30.4048 50.8364 30.2009 53.4875 31.7357 53.4123C32.9378 53.3479 32.9485 51.6092 32.0899 51.3516Z" fill="#592B8A"/>
</g>
</g>
<defs>
<clipPath id="clip0_1324_550">
<rect width="62.2076" height="64" fill="white" transform="translate(0.610352 0.166016)"/>
</clipPath>
</defs>
</svg>
