<svg width="68" height="65" viewBox="0 0 68 65" fill="none" xmlns="http://www.w3.org/2000/svg">
<g clip-path="url(#clip0_1324_575)">
<mask id="mask0_1324_575" style="mask-type:luminance" maskUnits="userSpaceOnUse" x="0" y="0" width="68" height="65">
<path d="M67.6815 0.166016H0.00683594V64.166H67.6815V0.166016Z" fill="white"/>
</mask>
<g mask="url(#mask0_1324_575)">
<path d="M39.2468 51.9828H28.5619C29.8414 55.2747 29.7977 58.7306 28.5619 62.0225H39.3889C38.6452 58.7306 38.1094 55.2528 39.2577 51.9828M65.5051 42.2057H2.17225V46.963C2.17225 48.177 4.32673 49.9705 5.61723 49.8502H61.907C63.2413 50.0471 65.4833 48.2207 65.4833 46.963V42.2057H65.5051ZM65.5051 40.0621V5.19677C65.5051 5.14209 65.1442 4.28905 65.0786 4.14688C64.499 3.06417 63.1538 2.3533 61.9289 2.30956H5.61723C4.43609 2.40798 3.16746 3.09698 2.59877 4.14688C2.52222 4.27811 2.17225 5.14209 2.17225 5.19677V40.0731H65.4833L65.5051 40.0621ZM41.5653 62.0115C41.7512 62.1865 45.8961 61.7928 46.6617 62.1209C47.6569 62.5365 47.296 64.0895 46.2133 64.1551L21.2563 64.1004C20.2174 63.9035 20.1627 62.3724 21.1141 62.0772C21.9016 61.8366 26.0465 62.1756 26.2433 62.0006C27.6869 58.7634 27.7744 55.22 26.2433 51.9938L6.04375 51.9719C2.70813 51.7532 0.400548 49.9158 0.00683594 46.5693V5.59049C0.280247 2.49548 2.67533 0.395681 5.7594 0.166016H61.907C64.5427 0.362871 66.73 1.89397 67.4518 4.4531C67.9221 18.4517 67.5174 32.5379 67.6596 46.5693C67.2003 50.0143 64.9146 51.775 61.5024 51.9938L41.5434 52.0484C40.1107 55.1981 40.8325 58.7744 41.5434 62.0225" fill="#592B8A"/>
<path d="M38.3941 31.5325C36.7318 31.8497 36.6224 34.4526 38.4269 34.7916C41.1063 35.2947 41.0298 31.0295 38.3941 31.5325ZM27.7092 31.5325C26.0359 31.8497 25.9047 34.4526 27.742 34.7916C30.3449 35.2837 30.334 31.0295 27.7092 31.5325ZM28.1467 24.8066H42.6921C42.7796 24.8066 43.2061 24.2926 43.2061 24.1067L45.5356 15.3029C45.5028 15.2482 45.2841 15.0295 45.2622 15.0295H28.1467V24.8066ZM31.526 31.4997C32.565 34.4526 30.6511 37.2304 27.403 36.8586C24.7673 36.5633 23.2909 33.0636 25.0189 31.0295C23.0284 29.6843 22.8753 26.8299 24.9314 25.441C25.3032 25.1894 25.9047 25.1457 25.9813 24.741L25.9484 14.0671C25.4016 12.875 25.2704 9.81279 24.5048 8.93788C23.6409 7.9536 21.1692 8.78477 19.999 8.44574C19.2554 8.22701 19.0257 6.87089 19.8787 6.49905C20.6443 6.16002 23.6409 6.29126 24.5158 6.52092C27.2936 7.27554 27.0968 10.8189 27.9061 13.0062L45.5465 13.0281C47.2198 13.3562 47.8322 14.5264 47.6135 16.145C47.351 18.0589 45.9402 22.8928 45.2512 24.7848C44.781 26.0643 43.8405 26.8408 42.4406 26.9611C37.5301 27.3767 31.701 26.4143 26.878 26.9611C25.1282 27.158 25.3251 29.1703 26.4843 29.3671H41.9047C43.5999 29.2796 43.9389 31.3794 42.2328 31.5216C44.3654 38.6631 33.2102 38.685 35.3319 31.5216H31.5479L31.526 31.4997Z" fill="#592B8A"/>
<path d="M37.5843 46.7225C37.453 46.8756 37.0921 47.0068 36.8843 47.0396C35.6923 47.1818 31.9739 47.1818 30.7818 47.0396C29.5241 46.8865 29.371 45.1148 31.0771 44.907C32.3238 44.7539 35.2001 44.7648 36.4687 44.8961C37.4749 44.9945 38.3826 45.7819 37.5843 46.7334" fill="#592B8A"/>
</g>
</g>
<defs>
<clipPath id="clip0_1324_575">
<rect width="67.6746" height="64" fill="white" transform="translate(0.00683594 0.166016)"/>
</clipPath>
</defs>
</svg>
