<svg width="92" height="16" viewBox="0 0 92 16" fill="none" xmlns="http://www.w3.org/2000/svg">
<mask id="mask0_1520_2341" style="mask-type:luminance" maskUnits="userSpaceOnUse" x="0" y="0" width="92" height="16">
<path d="M91.9964 0.503906H0.488281V15.034H91.9964V0.503906Z" fill="white"/>
</mask>
<g mask="url(#mask0_1520_2341)">
<path d="M0.488281 1.05316H2.90165L9.24297 11.7718L7.99468 13.7358L2.90165 5.13091V14.7677H0.488281V1.05316ZM12.7881 1.05316L9.0266 7.61085L10.225 9.72463L12.7881 5.24742V14.7511H15.2015V1.05316H12.7881ZM40.1507 1.0698H41.1493L52.0677 13.4029V14.7677H50.4033L41.116 4.26543V14.7677H38.9024V1.0698H40.1507ZM49.6877 1.0698V7.8938L51.9013 10.174V1.0698H49.6877ZM83.9242 0.570482C88.3847 0.570482 91.9964 3.76611 91.9964 7.71072C91.9964 11.2892 89.0338 14.2518 85.1558 14.7677V12.4376C87.5858 11.9383 89.4166 10.0242 89.4166 7.71072C89.4166 5.03105 86.9533 2.86734 83.9408 2.86734C80.9283 2.86734 78.465 5.03105 78.465 7.71072C78.465 10.0242 80.2791 11.9383 82.7258 12.4376V14.7677C78.8478 14.2518 75.8685 11.2892 75.8685 7.71072C75.8519 3.76611 79.4636 0.570482 83.9242 0.570482ZM64.817 0.503906C67.3635 0.503906 69.6437 1.56912 71.125 3.23351L69.2942 4.93118C68.2955 3.66625 66.6644 2.83405 64.817 2.83405C61.9875 2.83405 59.674 4.7481 59.3744 7.2114H56.778C57.0942 3.44988 60.5728 0.503906 64.8336 0.503906M59.674 9.3751H56.9277C57.7433 12.6207 60.9556 15.034 64.8003 15.034C67.7296 15.034 70.2928 13.6359 71.7075 11.5222V6.9451H64.6838V9.40839H69.4273V10.5901C68.3788 11.9716 67.2803 12.6872 64.8003 12.6872C62.8197 12.6872 60.5395 11.3058 59.674 9.35846M25.9867 1.03651H28.4001L34.9245 14.7677H32.5111L30.5139 10.5568H23.5567L21.5595 14.7677H19.1461L24.7052 3.08371L25.8869 5.66352L24.6386 8.3099H29.4653L25.9867 1.03651Z" fill="#4A4A34"/>
</g>
</svg>
