<svg width="111" height="22" viewBox="0 0 111 22" fill="none" xmlns="http://www.w3.org/2000/svg">
<mask id="mask0_1520_2385" style="mask-type:luminance" maskUnits="userSpaceOnUse" x="0" y="0" width="111" height="22">
<path d="M110.435 0.269531H0.890625V21.453H110.435V0.269531Z" fill="white"/>
</mask>
<g mask="url(#mask0_1520_2385)">
<path d="M110.435 9.17477H109.052V10.6002H110.435V9.17477ZM106.497 1.48324H107.697V0.424773H104.112V1.49735H105.213V7.66469C105.213 7.97518 105.227 8.39856 105.256 8.72316C105.143 8.4409 105.002 8.03163 104.874 7.76348L101.106 0.41066H98.1567V1.48324H99.3563V9.54171H98.1567V10.6002H101.812V9.54171H100.612V2.83808C100.612 2.54171 100.598 2.17477 100.57 1.8784C100.669 2.13243 100.81 2.51348 100.937 2.79574L104.917 10.6002H106.512V1.48324H106.497ZM91.2273 3.04977C91.2273 2.17477 91.7213 1.35622 93.3443 1.35622C94.1346 1.35622 94.6709 1.49735 95.3059 1.6526V3.03566H96.6043V0.721144C95.5318 0.467112 94.5156 0.269531 93.3443 0.269531C90.9451 0.269531 89.8584 1.62437 89.8584 3.14856C89.8584 5.09614 91.1003 5.68889 93.1467 5.95703C94.6285 6.16873 95.6164 6.47921 95.6164 7.80582C95.6164 8.77961 94.9531 9.66873 93.3301 9.66873C92.5398 9.66873 91.8624 9.51348 91.2273 9.34413V7.91873H89.9148V10.2615C90.9874 10.5296 92.1588 10.7413 93.3019 10.7413C95.7576 10.7413 96.9995 9.37235 96.9995 7.67881C96.9995 5.64655 95.4612 4.96913 93.3866 4.72921C92.06 4.54574 91.1991 4.24937 91.1991 3.03566M82.4914 3.04977C82.4914 2.17477 82.9854 1.35622 84.6084 1.35622C85.3987 1.35622 85.935 1.49735 86.5701 1.6526V3.03566H87.8684V0.721144C86.7959 0.467112 85.7797 0.269531 84.6225 0.269531C82.2233 0.269531 81.1366 1.62437 81.1366 3.14856C81.1366 5.09614 82.3785 5.68889 84.4249 5.95703C85.9068 6.16873 86.8947 6.47921 86.8947 7.80582C86.8947 8.77961 86.2314 9.66873 84.6225 9.66873C83.8322 9.66873 83.1547 9.51348 82.5197 9.34413V7.91873H81.193V10.2615C82.2797 10.5296 83.437 10.7413 84.5801 10.7413C87.0217 10.7413 88.2777 9.37235 88.2777 7.67881C88.2777 5.64655 86.7394 4.96913 84.6648 4.72921C83.3382 4.54574 82.4773 4.24937 82.4773 3.03566M76.5922 10.6002H80.1487V9.54171H79.189L76.4511 1.48324H77.5943V0.41066H72.8241V1.48324H73.9672L71.2011 9.54171H70.2273V10.6002H73.7838V9.54171H72.5559L73.2616 7.453H77.0721L77.7636 9.54171H76.5922V10.6002ZM76.7475 6.40864H73.558L74.7999 2.6405C74.9269 2.24534 75.0539 1.77961 75.1527 1.31389C75.2656 1.7655 75.3926 2.23122 75.4914 2.62639L76.7334 6.40864H76.7475ZM66.3463 5.51953C66.3463 2.59816 64.7233 0.269531 61.9007 0.269531C59.0781 0.269531 57.441 2.59816 57.441 5.51953C57.441 8.4409 59.1063 10.7554 61.9007 10.7554C64.6951 10.7554 66.3463 8.42679 66.3463 5.51953ZM64.9491 5.51953C64.9491 7.87639 63.9471 9.56993 61.9007 9.56993C59.8543 9.56993 58.8523 7.87639 58.8523 5.51953C58.8523 3.16268 59.8543 1.46913 61.9007 1.46913C63.9471 1.46913 64.9491 3.16268 64.9491 5.51953ZM49.0015 10.6002H56.566V7.86227H55.2676V9.54171H51.4995V1.48324H52.7838V0.41066H49.0015V1.48324H50.2011V9.54171H49.0015V10.6002ZM47.9007 5.51953C47.9007 2.59816 46.2636 0.269531 43.4551 0.269531C40.6467 0.269531 38.9955 2.59816 38.9955 5.51953C38.9955 8.4409 40.6608 10.7554 43.4551 10.7554C46.2495 10.7554 47.9007 8.42679 47.9007 5.51953ZM46.5035 5.51953C46.5035 7.87639 45.4874 9.56993 43.4551 9.56993C41.4229 9.56993 40.4068 7.87639 40.4068 5.51953C40.4068 3.16268 41.4088 1.46913 43.4551 1.46913C45.5015 1.46913 46.5035 3.16268 46.5035 5.51953ZM37.9793 3.44493C37.9793 1.77961 37.0761 0.41066 35.1426 0.41066H29.7092V1.48324H30.9088V9.54171H29.7092V10.6002H33.5338V9.54171H32.2072V6.578H35.0721C37.1043 6.578 37.9793 5.16671 37.9793 3.43082M36.6386 3.48727C36.6386 4.70098 36.1305 5.5901 34.8463 5.5901H32.2072V1.48324H34.8463C36.1729 1.48324 36.6386 2.34413 36.6386 3.47316M23.81 10.6002H25.193V9.17477H23.81V10.6002ZM16.3584 3.04977C16.3584 2.17477 16.8523 1.35622 18.4753 1.35622C19.2515 1.35622 19.8019 1.49735 20.437 1.6526V3.03566H21.7354V0.721144C20.6487 0.467112 19.6467 0.269531 18.4894 0.269531C16.0902 0.269531 15.0035 1.62437 15.0035 3.14856C15.0035 5.09614 16.2455 5.68889 18.2918 5.95703C19.7596 6.16873 20.7616 6.47921 20.7616 7.80582C20.7616 8.77961 20.0983 9.66873 18.4894 9.66873C17.6991 9.66873 17.0217 9.51348 16.3866 9.34413V7.91873H15.0741V10.2615C16.1608 10.5296 17.318 10.7413 18.4612 10.7413C20.9027 10.7413 22.1447 9.37235 22.1447 7.67881C22.1447 5.64655 20.6063 4.96913 18.5318 4.72921C17.2051 4.54574 16.3443 4.24937 16.3443 3.03566M11.7717 10.6002H13.1547V9.17477H11.7717V10.6002ZM9.33014 1.48324H10.5297V0.41066H6.81804V1.48324H8.03175V7.52356C8.03175 8.92074 7.22732 9.61227 5.70312 9.61227C4.17893 9.61227 3.38861 8.93485 3.38861 7.52356V1.48324H4.58821V0.41066H0.890625V1.48324H2.09022V7.79171C2.09022 9.7534 3.69909 10.7554 5.68901 10.7554C7.67893 10.7554 9.34425 9.73929 9.34425 7.79171V1.48324H9.33014Z" fill="#B01F37"/>
<path d="M78.654 18.3347C78.654 16.373 77.8778 15.2157 76.6358 15.2157C75.3939 15.2157 74.6177 16.373 74.6177 18.3347C74.6177 20.2964 75.408 21.4536 76.6358 21.4536C77.8637 21.4536 78.654 20.2964 78.654 18.3347ZM78.0895 18.3347C78.0895 19.8448 77.6378 20.9597 76.6358 20.9597C75.6338 20.9597 75.1822 19.8448 75.1822 18.3347C75.1822 16.8246 75.6338 15.7097 76.6358 15.7097C77.6378 15.7097 78.0895 16.8246 78.0895 18.3347ZM73.7145 18.2077C73.7145 16.3306 72.9806 15.2157 71.6681 15.2157C70.3838 15.2157 69.7205 16.1613 69.7205 17.2762C69.7205 18.2641 70.2145 19.2238 71.5411 19.2238C72.275 19.2238 72.8112 18.8569 73.1641 18.3911C73.1641 19.9435 72.656 21.0161 71.5975 21.0161C71.2024 21.0161 70.8072 20.9456 70.4544 20.8044V19.9577H69.9181V21.129C70.4544 21.3266 71.0471 21.4536 71.5834 21.4536C72.9806 21.4536 73.7145 20.127 73.7145 18.2077ZM73.1499 17.9536C72.8254 18.4194 72.275 18.7863 71.6399 18.7863C70.5955 18.7863 70.2709 18.0524 70.2709 17.248C70.2709 16.3448 70.7084 15.6815 71.654 15.6815C72.5995 15.6815 73.1217 16.5847 73.1641 17.9536M67.3213 18.1935C68.1963 18.0665 68.6056 17.4738 68.6056 16.7681C68.6056 15.8931 67.9705 15.2157 66.785 15.2157C65.5995 15.2157 64.9645 15.879 64.9645 16.7681C64.9645 17.4879 65.4161 18.0665 66.2629 18.2077C65.4161 18.2923 64.8092 18.871 64.8092 19.7883C64.8092 20.8044 65.529 21.4677 66.785 21.4677C68.0411 21.4677 68.7608 20.8044 68.7608 19.7883C68.7608 18.871 68.1822 18.2782 67.3213 18.1935ZM66.7991 17.996C66.0512 17.996 65.5008 17.6008 65.5008 16.8105C65.5008 16.1472 65.9524 15.6532 66.7991 15.6532C67.6459 15.6532 68.0975 16.1472 68.0975 16.8105C68.0975 17.6008 67.5471 17.996 66.7991 17.996ZM68.2387 19.7177C68.2387 20.4657 67.7447 20.9879 66.785 20.9879C65.8254 20.9879 65.3314 20.4657 65.3314 19.7177C65.3314 18.7722 66.037 18.4194 66.785 18.4194C67.533 18.4194 68.2387 18.7581 68.2387 19.7177ZM61.0411 21.369H63.7366V20.9173H62.7629V15.3145H62.1983L60.5189 16.5141L60.7306 16.9234L62.1983 15.8508V20.9315H61.0411V21.3831V21.369ZM52.4604 21.369H57.033V20.0423H56.4685V20.9032H53.7588V18.4335H56.158V17.9819H53.7588V15.7379H56.4544V16.5847H57.0048V15.2863H52.4604V15.7379H53.2084V20.9032H52.4604V21.3548V21.369ZM49.8072 21.4536C50.4282 21.4536 51.1338 21.3266 51.7407 21.1573V19.873H51.1903V20.7339C50.7528 20.8609 50.287 20.9315 49.8072 20.9315C48.41 20.9315 47.6903 19.8306 47.6903 18.3206C47.6903 16.8105 48.41 15.7097 49.7931 15.7097C50.2729 15.7097 50.7387 15.7944 51.1762 15.9073V16.7681H51.7266V15.4839C51.1197 15.3004 50.4282 15.2016 49.8072 15.1875C48.029 15.1875 47.0834 16.5988 47.0834 18.3065C47.0834 20.0141 48.0713 21.4395 49.7931 21.4395M45.6439 15.752H46.406V15.3004H44.402V15.752H45.1076V19.9435C45.1076 20.1411 45.1076 20.3669 45.1358 20.5645C45.0653 20.3952 44.9806 20.1835 44.8959 20.0282L42.3274 15.3145H40.8032V15.7661H41.5512V20.9315H40.8032V21.3831H42.8495V20.9315H42.0875V16.4718C42.0875 16.3024 42.0875 16.0907 42.0733 15.9073C42.1439 16.0625 42.2286 16.2742 42.3133 16.4294L44.9806 21.3831H45.6439V15.7661V15.752ZM38.1641 21.369H40.2245V20.9173H39.4624V15.752H40.2245V15.3004H38.1641V15.752H38.912V20.9173H38.1641V21.369ZM33.9302 16.8105C33.9302 16.2319 34.283 15.6673 35.3415 15.6673C35.8778 15.6673 36.2306 15.7661 36.654 15.8931V16.7399H37.2185V15.498C36.5975 15.3427 36.033 15.2157 35.3556 15.2157C33.9584 15.2157 33.3516 15.9919 33.3516 16.8528C33.3516 18.0101 34.1278 18.3065 35.2427 18.4758C36.1459 18.6169 36.8516 18.8145 36.8516 19.7177C36.8516 20.381 36.3999 20.9879 35.3415 20.9879C34.8193 20.9879 34.3677 20.8891 33.9443 20.7621V19.8871H33.3798V21.1714C34.0008 21.3266 34.6499 21.4677 35.3274 21.4677C36.7387 21.4677 37.4302 20.6492 37.4302 19.6895C37.4302 18.4617 36.4987 18.123 35.3415 17.9536C34.5229 17.8407 33.9302 17.6573 33.9302 16.8246" fill="#1B2947"/>
</g>
</svg>
