<svg width="75" height="42" viewBox="0 0 75 42" fill="none" xmlns="http://www.w3.org/2000/svg">
<path d="M74.5312 0.0273438H0.976562V41.6972H74.5312V0.0273438Z" fill="#E1251B"/>
<mask id="mask0_1520_2399" style="mask-type:luminance" maskUnits="userSpaceOnUse" x="0" y="0" width="75" height="42">
<path d="M74.5312 0.0273438H0.976562V41.6972H74.5312V0.0273438Z" fill="white"/>
</mask>
<g mask="url(#mask0_1520_2399)">
<path d="M62.2144 15.4395H58.5671L56.6846 18.4789L54.8805 15.4395H51.1939L54.9982 21.3223V26.2638H58.3317V21.3223L62.2144 15.4395ZM52.096 20.832C52.096 18.1063 50.8214 15.4395 47.2132 15.4395H41.7422V26.2638H46.5661C50.3507 26.2638 52.096 24.1656 52.096 20.832ZM48.7624 20.7928C48.7624 21.8125 48.4682 23.4989 46.3896 23.4989H45.0954V18.224H46.1543C48.5663 18.224 48.782 20.1261 48.782 20.7928M40.2519 20.832C40.2519 18.1063 38.9773 15.4395 35.3692 15.4395H29.8982V26.2638H34.7221C38.5067 26.2638 40.2519 24.1656 40.2519 20.832ZM36.9183 20.7928C36.9183 21.8125 36.6242 23.4989 34.5456 23.4989H33.2318V18.224H34.2907C36.7026 18.224 36.9183 20.1261 36.9183 20.7928ZM24.7017 26.2638H28.0353V15.4591H24.7017V26.2638ZM13.2891 26.2638H22.9565V23.4989H17.6423L22.7212 17.8906V15.4591H13.5832V18.224H18.3287L13.3087 23.6558V26.2638H13.2891ZM59.5867 25.048C59.5867 25.7736 60.1554 26.2834 60.8417 26.2834C61.5281 26.2834 62.1164 25.7736 62.1164 25.048C62.1164 24.3225 61.5477 23.8126 60.8417 23.8126C60.1358 23.8126 59.5867 24.3225 59.5867 25.048ZM59.8809 25.048C59.8809 24.4205 60.2927 24.0676 60.8417 24.0676C61.3908 24.0676 61.8222 24.4205 61.8222 25.048C61.8222 25.6755 61.4104 26.0089 60.8417 26.0089C60.2731 26.0089 59.8809 25.6363 59.8809 25.048ZM60.9006 24.4205H60.3711V25.6559H60.7437V25.3422H60.881L61.0378 25.6559H61.43L61.2143 25.2833C61.3516 25.1853 61.43 25.048 61.43 24.8912C61.43 24.6558 61.2339 24.4401 60.9006 24.4401M60.7437 24.7539H60.9006C60.9006 24.7539 61.0378 24.7931 61.0378 24.9108C61.0378 25.048 60.9398 25.0676 60.9006 25.0676H60.7437V24.7539Z" fill="white"/>
</g>
</svg>
