<svg width="65" height="12" viewBox="0 0 65 12" fill="none" xmlns="http://www.w3.org/2000/svg">
<path d="M64.0312 5.86238C64.0312 4.25428 63.1529 2.7813 61.6934 1.68671C60.3421 0.673195 58.4502 0.119141 56.5718 0.119141H56.0583C54.1799 0.119141 52.3015 0.673195 50.9502 1.68671C49.4907 2.7813 48.6123 4.25428 48.6123 5.86238C48.6123 7.45698 49.5042 8.94347 50.9637 10.0381C52.315 11.0516 54.2069 11.6056 56.0853 11.6056H56.5853C58.4637 11.6056 60.3421 11.0516 61.7069 10.0381C63.1664 8.94347 64.0583 7.47049 64.0583 5.86238M61.2339 5.86238C61.2339 7.64617 59.1934 9.22725 56.5718 9.22725H56.0718C53.4502 9.22725 51.4096 7.64617 51.4096 5.86238C51.4096 4.0786 53.4502 2.49752 56.0583 2.49752H56.5718C59.1934 2.49752 61.2339 4.0786 61.2339 5.86238ZM47.1123 5.8759C47.1123 4.29482 46.3015 2.82184 44.8556 1.74076C43.5177 0.740762 41.6664 0.34887 39.815 0.34887H32.9907V11.4029H39.788C41.6529 11.4029 43.5177 11.011 44.8556 10.011C46.3015 8.92995 47.1123 7.45698 47.1123 5.8759ZM44.3556 5.8759C44.3556 7.64617 42.5312 8.99752 39.9367 8.99752H35.761V2.75428H39.9367C42.5312 2.75428 44.3556 4.10563 44.3556 5.8759ZM31.0718 8.97049H21.788V0.362384H19.0853V11.4029H31.0853V8.97049H31.0718ZM14.3961 11.4029H17.6664L9.0853 0.119141L0.53125 11.4029H3.65287L4.92314 9.72725H13.1394L14.3961 11.4029ZM11.5312 7.47049H6.51774L9.01774 4.09211L11.5177 7.47049H11.5312Z" fill="#231E21"/>
</svg>
