<svg width="46" height="15" viewBox="0 0 46 15" fill="none" xmlns="http://www.w3.org/2000/svg">
<g clip-path="url(#clip0_1520_2407)">
<mask id="mask0_1520_2407" style="mask-type:luminance" maskUnits="userSpaceOnUse" x="0" y="0" width="46" height="15">
<path d="M45.6397 0.916016H0.0585938V14.8079H45.6397V0.916016Z" fill="white"/>
</mask>
<g mask="url(#mask0_1520_2407)">
<path d="M5.04651 2.5373C3.88435 2.94271 2.87084 3.76703 2.2357 4.82109C1.74922 5.64541 1.49246 6.59136 1.49246 7.55082C1.49246 8.72649 1.89786 9.88866 2.62759 10.8076C3.42489 11.8211 4.61408 12.5238 5.88435 12.74C5.88435 11.9292 5.88435 11.1184 5.88435 10.3076C6.41138 10.3076 6.95192 10.3076 7.49246 10.3076C7.49246 11.1184 7.49246 11.9292 7.49246 12.74C8.70868 12.5373 9.85732 11.9022 10.6411 10.9427C11.2762 10.1995 11.6952 9.28055 11.8303 8.30757C12.0195 7.06433 11.7492 5.76703 11.0735 4.69947C10.4519 3.69947 9.47895 2.9292 8.37084 2.5373C7.30327 2.15893 6.10057 2.15893 5.033 2.5373M1.7357 3.1319C2.84381 1.86163 4.46543 1.05082 6.15462 0.915683C6.70868 0.915683 7.26273 0.888656 7.81678 0.983251C9.42489 1.24001 10.9249 2.1319 11.9384 3.4292C12.8438 4.57785 13.3573 6.0373 13.3573 7.49676C13.3708 8.98325 12.8573 10.4562 11.9384 11.6184C10.8708 12.9968 9.2357 13.9022 7.50597 14.1049C7.50597 14.3346 7.50597 14.5643 7.50597 14.7941C6.97895 14.7941 6.43841 14.7941 5.89786 14.7941C5.89786 14.5643 5.89786 14.3346 5.89786 14.1049C4.3303 13.9157 2.8303 13.1589 1.77624 11.9832C0.762729 10.8887 0.141107 9.4292 0.0600262 7.9292C0.0600262 7.49676 0.0329991 7.06433 0.100567 6.6319C0.276242 5.3346 0.84381 4.09136 1.72219 3.11839" fill="#211E21"/>
<path d="M16.5877 1.25391H18.1958V9.59174C18.2229 10.0647 18.1958 10.5377 18.2904 10.9971C18.385 11.4431 18.5877 11.862 18.8985 12.1863C19.2364 12.5512 19.6958 12.7809 20.1553 12.9566C21.0877 13.3215 22.1553 13.4161 23.1148 13.1323C23.8175 12.9296 24.4796 12.5377 24.9121 11.9431C25.1823 11.5647 25.385 11.1323 25.4256 10.6728C25.5202 9.92958 25.4931 9.17283 25.4931 8.42958V1.25391H27.1012V8.30796C27.1012 9.48364 27.1148 10.6999 26.7094 11.8215C26.385 12.7134 25.6553 13.389 24.8445 13.862C23.8039 14.4701 22.5607 14.6188 21.385 14.5377C20.1688 14.4566 18.9391 14.0917 17.9796 13.3215C17.4661 12.9161 17.0607 12.362 16.8445 11.7404C16.5877 10.9161 16.6012 10.0242 16.5742 9.17283V1.25391" fill="#211E21"/>
<path d="M31.0039 1.25391H32.612V14.2269H31.0039V1.25391Z" fill="#211E21"/>
<path d="M36.2909 1.25391C39.3719 1.25391 42.453 1.25391 45.5341 1.25391C43.3179 5.1458 41.1152 9.0512 38.899 12.9431C41.1422 12.9431 43.3855 12.9431 45.6287 12.9431V14.2269C42.5611 14.2269 39.48 14.2269 36.4125 14.2269C38.6422 10.3215 40.8719 6.41607 43.1017 2.51066C40.8314 2.51066 38.5611 2.51066 36.2773 2.51066V1.25391" fill="#211E21"/>
</g>
</g>
<defs>
<clipPath id="clip0_1520_2407">
<rect width="45.5811" height="13.8919" fill="white" transform="translate(0.0585938 0.916016)"/>
</clipPath>
</defs>
</svg>
