<svg width="68" height="25" viewBox="0 0 68 25" fill="none" xmlns="http://www.w3.org/2000/svg">
<path d="M67.8863 6.92889C67.8863 5.23971 66.9539 3.67214 65.4133 2.50998C63.9809 1.44241 61.9809 0.861328 59.9944 0.861328H59.4539C57.4674 0.861328 55.4674 1.44241 54.0349 2.52349C52.4944 3.67214 51.5485 5.23971 51.562 6.94241C51.562 8.6316 52.4944 10.1992 54.0485 11.3613C55.4809 12.4289 57.4809 13.0235 59.4674 13.0235H59.9944C61.9809 13.0235 63.9809 12.4289 65.4133 11.3613C66.9539 10.2127 67.8998 8.64511 67.8998 6.94241M64.9268 6.92889C64.9268 8.82079 62.7647 10.4965 59.9944 10.4965H59.4539C56.6836 10.4965 54.5214 8.82079 54.5214 6.92889C54.5214 5.037 56.6836 3.36133 59.4539 3.36133H59.9944C62.7647 3.36133 64.9268 5.037 64.9268 6.92889ZM51.0079 17.8073L51.1295 17.2262L51.0485 16.564L50.7241 16.4965L49.8322 16.564L49.7106 17.1181L49.7917 17.8073L50.116 17.8748L51.0079 17.8073ZM49.9944 6.95592C49.9944 5.28025 49.1295 3.71268 47.6025 2.57754C46.1971 1.52349 44.2241 1.10457 42.2647 1.10457H35.0485V12.8073H42.2512C44.2241 12.8073 46.1971 12.3884 47.616 11.3343C49.1431 10.1857 50.0079 8.6316 49.9944 6.95592ZM47.0755 6.95592C47.0755 8.8343 45.1431 10.2667 42.3998 10.2667H37.9809V3.64511H42.3998C45.1431 3.64511 47.0755 5.07754 47.0755 6.95592ZM36.5349 18.8748C35.1836 19.2127 34.5485 19.6992 34.5485 20.4829C34.5485 21.1586 34.9944 21.5235 35.4944 21.8208L36.4268 22.3613C37.0079 22.7127 37.2512 22.8884 37.2512 23.3478C37.2512 23.7532 36.9539 24.0911 36.3863 24.0911C35.9809 24.0911 35.6566 23.9019 35.3728 23.6451L34.8728 22.564H34.4539L34.562 24.0505C34.9674 24.2667 35.6971 24.51 36.3322 24.51C37.6836 24.2127 38.3998 23.6992 38.3998 22.7938C38.3998 22.1721 38.116 21.7802 37.4404 21.4019L36.5079 20.8613C35.9674 20.5505 35.6971 20.3343 35.6971 19.9559C35.6971 19.5505 36.0214 19.2938 36.4809 19.2938C36.8728 19.2938 37.1566 19.4289 37.3728 19.6451L37.8458 20.6857H38.2241V19.3073C37.8458 19.0911 37.3187 18.8884 36.5485 18.8884M31.2647 19.9559C31.2647 19.5505 31.589 19.2938 32.0485 19.2938C32.4403 19.2938 32.7241 19.4289 32.9404 19.6451L33.4133 20.6857H33.7917V19.3073C33.4133 19.0911 32.8863 18.8884 32.116 18.8884C30.7647 19.2262 30.1295 19.7127 30.1295 20.4965C30.1295 21.1721 30.5755 21.537 31.0755 21.8343L32.0079 22.3748C32.589 22.7262 32.8187 22.9019 32.8187 23.3613C32.8187 23.7667 32.5214 24.1046 31.9539 24.1046C31.5485 24.1046 31.2241 23.9154 30.9403 23.6586L30.4539 22.5775H30.0349L30.1431 24.064C30.5485 24.2802 31.2782 24.5235 31.9133 24.5235C33.2647 24.2262 33.9809 23.7127 33.9809 22.8073C33.9809 22.1856 33.6971 21.7938 33.0214 21.4154L32.089 20.8748C31.5349 20.564 31.2782 20.3478 31.2782 19.9694M33.0079 10.2262H23.1836V1.11808H20.3187V12.8073H33.0214V10.2262H33.0079ZM19.8593 21.8748C19.8593 23.5235 20.9404 24.51 22.4268 24.51C23.1836 24.2127 23.7512 23.8613 24.3187 23.3613L24.1836 23.0775C23.7917 23.3478 23.3863 23.5235 22.9133 23.5235C21.8322 23.5235 21.116 22.564 21.116 21.2802C21.116 19.9965 21.7241 19.3208 22.3863 19.3208C22.562 19.3208 22.6836 19.3613 22.8187 19.4289L23.1701 20.6316H24.1971V19.4424C23.8187 19.1316 23.1431 18.8613 22.6025 18.8613C21.1566 19.1856 19.8593 20.0911 19.8593 21.8613M16.1566 21.2938C16.1566 19.9829 16.7647 19.3343 17.4268 19.3343C17.6025 19.3343 17.7241 19.3748 17.8593 19.4424L18.2106 20.6451H19.2376V19.4559C18.8593 19.1451 18.1836 18.8748 17.6295 18.8748C16.1836 19.1992 14.8863 20.1046 14.8863 21.8748C14.8863 23.5235 15.9674 24.51 17.4539 24.51C18.2106 24.2127 18.7782 23.8613 19.3458 23.3613L19.2106 23.0775C18.8187 23.3478 18.4133 23.5235 17.9404 23.5235C16.8593 23.5235 16.1431 22.564 16.1431 21.2802M15.3593 12.8073H18.8187L9.73765 0.861328L0.683594 12.8073H3.98089L5.31873 11.0235H14.0214L15.3458 12.8073H15.3593ZM12.3322 8.64511H7.03495L9.68359 5.06403L12.3322 8.64511ZM7.87278 23.9424L7.10251 24.0505L7.14305 24.3478L8.18359 24.3208L9.33224 24.3478L9.35927 24.0505L8.42684 23.9289L9.22413 21.6586H11.9268L12.6971 23.9289L11.8052 24.0505L11.8322 24.3478L13.3728 24.3208L15.0485 24.3478L15.0755 24.0505L14.2917 23.9424L11.5755 16.3613L10.5485 16.7127L7.89981 23.9424H7.87278ZM9.33224 21.2667L10.6025 17.564L10.8322 18.4965L11.7647 21.2802H9.31873L9.33224 21.2667ZM24.7782 21.8748C24.7782 23.537 25.9944 24.51 27.3998 24.51C28.1971 24.2127 28.7917 23.8748 29.4133 23.3478L29.2647 23.064C28.8593 23.3073 28.3728 23.51 27.8863 23.51C26.8052 23.51 26.0755 22.7262 26.0214 21.4019H29.3863V20.9559C29.3863 19.7262 28.7241 18.8748 27.3728 18.8748C25.7782 19.2397 24.7782 20.2397 24.7782 21.8748ZM26.0214 21.01C26.062 19.9829 26.4403 19.3343 27.1025 19.3343C27.8593 19.3343 28.0485 19.9559 28.0485 20.9019V21.0235L26.0349 21.0775V20.9965L26.0214 21.01ZM38.9403 21.8343C38.9403 23.3884 39.9809 24.51 41.4133 24.51C43.089 24.1721 44.2647 23.3343 44.2647 21.564C44.2647 19.9965 43.2241 18.8748 41.7647 18.8748C40.116 19.2397 38.9403 20.0505 38.9403 21.8343ZM40.3052 21.4424C40.3052 20.0911 40.7106 19.3073 41.4539 19.3073C42.2512 19.3073 42.8728 20.2397 42.8728 21.9289C42.8728 23.2667 42.4674 24.0505 41.7241 24.0505C40.8998 24.0505 40.3052 23.0235 40.3052 21.4289M46.2106 18.9965L44.616 19.3748L44.6566 19.6721L45.3593 19.5775V23.9289L44.6701 24.037L44.6971 24.3343L46.0079 24.3073L47.6836 24.3343L47.7106 24.01L46.6295 23.9154V21.0775L46.7917 20.8478C46.9403 20.6857 47.2917 20.2938 47.4403 20.2397H48.6025V18.9019H47.7241L46.5755 20.6451L46.5214 18.9424L46.1971 18.9694L46.2106 18.9965ZM50.6566 18.9965L49.0214 19.3748L49.062 19.6721L49.7512 19.564V23.9289L49.0755 24.037L49.1025 24.3343L50.4133 24.3073L51.7376 24.3343L51.7647 24.037L51.0485 23.9289V18.9694L50.6701 18.9965H50.6566ZM52.0349 21.8748C52.0349 23.537 53.2376 24.51 54.6566 24.51C55.4539 24.2127 56.0485 23.8748 56.6701 23.3478L56.5214 23.064C56.116 23.3073 55.6431 23.51 55.1431 23.51C54.062 23.51 53.3322 22.7262 53.2782 21.4019H56.6431V20.9559C56.6431 19.7262 55.9809 18.8748 54.6295 18.8748C53.0349 19.2397 52.0349 20.2397 52.0349 21.8748ZM53.2782 21.01C53.3187 19.9829 53.6971 19.3343 54.3593 19.3343C55.116 19.3343 55.3052 19.9559 55.3052 20.9019V21.0235L53.2917 21.0775V20.9965L53.2782 21.01ZM57.6971 22.564H57.2647L57.3728 24.0505C57.7782 24.2667 58.5079 24.51 59.1431 24.51C60.4944 24.2127 61.2106 23.6992 61.2106 22.7938C61.2106 22.1721 60.9268 21.7802 60.2512 21.4019L59.3187 20.8613C58.7647 20.5505 58.4944 20.3343 58.4944 19.9559C58.4944 19.5505 58.8187 19.2938 59.2782 19.2938C59.6701 19.2938 59.9539 19.4289 60.1701 19.6451L60.6431 20.6857H61.0214V19.3073C60.6431 19.0911 60.116 18.8884 59.3458 18.8884C57.9944 19.2262 57.3593 19.7127 57.3593 20.4965C57.3593 21.1721 57.8052 21.537 58.3052 21.8343L59.2377 22.3748C59.8187 22.7262 60.062 22.9019 60.062 23.3613C60.062 23.7667 59.7647 24.1046 59.1971 24.1046C58.7917 24.1046 58.4674 23.9154 58.1701 23.6586L57.6836 22.5775L57.6971 22.564Z" fill="#231E21"/>
</svg>
