<svg width="61" height="31" viewBox="0 0 61 31" fill="none" xmlns="http://www.w3.org/2000/svg">
<mask id="mask0_1520_2423" style="mask-type:luminance" maskUnits="userSpaceOnUse" x="0" y="0" width="61" height="31">
<path d="M60.9004 0.185547H0.210938V30.5659H60.9004V0.185547Z" fill="white"/>
</mask>
<g mask="url(#mask0_1520_2423)">
<path d="M37.4342 12.1061C37.167 11.9279 36.8997 11.625 36.3651 11.2686C35.991 11.0191 35.5633 10.7875 35.1357 10.5915C31.0196 8.82747 26.957 9.09474 23.4112 11.8566C23.0726 12.1239 22.7163 12.4446 22.4133 12.7653C22.2352 12.9613 22.1282 13.0504 21.9679 13.2642C15.6602 21.1043 22.1995 32.223 32.6411 30.1561C34.4942 29.7997 35.7237 29.1226 37.0601 27.911V29.5681H41.0514V0.185547H37.4342V12.1061ZM23.4112 20.1421C23.4112 18.8414 23.5537 18.1109 24.0883 17.0239C24.6228 15.9548 25.4603 15.0461 26.4403 14.4046C28.1687 13.2999 31.1622 12.9613 33.0331 13.7988C33.2469 13.8879 33.3895 13.9413 33.5855 14.0483C34.2804 14.4046 34.9397 14.9214 35.4742 15.4737C37.5412 17.6298 37.6659 21.4963 35.9019 23.8484C35.1891 24.8106 34.1913 25.5768 33.0866 26.0222C32.2669 26.3608 31.18 26.628 30.2891 26.5924C30.0218 26.5924 29.0596 26.4855 28.8101 26.4142C27.2243 26.0579 26.6007 25.6124 25.5316 24.7037C25.2108 24.4364 24.997 24.1869 24.7297 23.8484C23.9814 22.9218 23.4112 21.4429 23.4112 20.1421Z" fill="black"/>
<path d="M0.870218 15.6885L4.79026 16.2943C5.12881 16.2943 4.75463 16.027 5.37827 14.8332C6.46519 12.7485 10.1536 12.0179 12.274 12.7841C14.5547 13.6037 14.3409 14.851 14.5904 16.8823C13.3787 17.5238 10.9911 17.702 9.4765 17.898C9.31614 17.9158 9.03104 17.9336 8.81722 17.9514L7.58775 18.094C5.895 18.3612 4.84372 18.7354 3.43607 19.466C3.11534 19.6264 2.8837 19.8045 2.5986 20.0005C1.61859 20.6776 0.460395 22.014 0.317848 23.2257L0.210938 24.473C0.210938 25.4352 0.478213 26.5399 0.834581 27.1279C1.26222 27.8228 1.74332 28.4108 2.34914 28.8919C2.66988 29.1414 2.91933 29.3374 3.31134 29.5512C6.42956 31.2439 11.4365 30.7628 14.2162 28.4999L14.8577 28.001C14.9467 28.1792 15.0002 28.4286 15.0715 28.6425L15.5169 29.9967C15.5704 30.1392 15.5882 30.1392 15.7842 30.157C16.7286 30.1927 18.8133 30.157 19.8824 30.157C19.7755 29.6759 19.0272 29.1057 18.7242 27.5555C17.8333 23.0831 19.6508 14.2452 17.0671 11.3408C16.586 10.8062 16.8711 11.0913 16.3722 10.6459C14.3587 8.84622 9.01322 8.81059 6.48301 9.66587C4.73681 10.2539 2.95497 11.323 1.93932 12.8554C1.36913 13.7106 0.870218 14.5837 0.870218 15.6885ZM9.10232 27.413C7.42739 27.413 5.75246 27.2348 4.84372 25.7202C4.09535 24.473 4.73681 22.8871 5.84155 22.1566C6.42956 21.7646 7.0532 21.6933 7.85503 21.5507C10.2605 21.1587 12.1136 20.8558 14.4657 20.1787C14.4657 22.7089 14.5013 23.8671 13.3787 25.3639C12.4165 26.6468 10.706 27.3952 9.10232 27.3952" fill="black"/>
<path d="M42.3711 29.6037H60.9022V24.5255H47.3602V0.328094C47.3602 0.221184 47.3246 0.185547 47.2177 0.185547H42.3711V29.6037Z" fill="black"/>
</g>
</svg>
