<svg width="83" height="11" viewBox="0 0 83 11" fill="none" xmlns="http://www.w3.org/2000/svg">
<mask id="mask0_1520_2431" style="mask-type:luminance" maskUnits="userSpaceOnUse" x="0" y="0" width="83" height="11">
<path d="M82.0471 0.382812H0.898438V10.3693H82.0471V0.382812Z" fill="white"/>
</mask>
<g mask="url(#mask0_1520_2431)">
<path d="M75.3174 6.11254C74.5876 4.85579 74.912 3.53146 75.3984 2.82876C75.8714 2.12606 76.6822 1.8693 77.493 1.8693C78.3038 1.8693 81.7498 1.90984 81.7498 1.90984V0.734164H77.4119C77.4119 0.734164 74.9119 0.653083 74.1011 2.65308C73.2903 4.63957 73.9525 6.11254 74.1011 6.49092C74.2498 6.85579 75.6147 8.26119 77.3038 8.47741H80.3579C80.3579 8.47741 80.8309 8.40984 80.8309 8.73416C80.8309 8.73416 80.9119 8.95038 80.3579 8.95038H74.0336V10.099H80.8714C80.8714 10.099 81.3174 10.1666 81.7903 9.50444C82.2633 8.84227 82.0065 8.18011 81.7903 7.88281C81.5741 7.58552 81.0201 7.26119 80.6822 7.26119H77.3444C77.3444 7.26119 76.0606 7.3693 75.3309 6.11254M67.6011 10.1261H68.8174V0.734164H67.6011V10.1261ZM62.412 5.38281C62.412 2.61254 59.966 0.382812 56.939 0.382812C53.912 0.382812 51.466 2.61254 51.466 5.3693C51.466 8.12606 53.912 10.3558 56.939 10.3558C59.966 10.3558 62.412 8.12606 62.412 5.3693M61.1282 5.38281C61.1282 7.58552 59.2498 9.35579 56.939 9.35579C54.6282 9.35579 52.7498 7.572 52.7498 5.38281C52.7498 3.19362 54.6282 1.39633 56.939 1.39633C59.2498 1.39633 61.1282 3.18011 61.1282 5.38281ZM41.2498 1.76119H48.6011L48.5606 0.734164H40.1417V10.1261H41.3174V8.01795H44.1417V6.99092H41.2363V1.76119H41.2498ZM31.8038 8.09903C31.8038 8.09903 33.3038 7.13957 33.5336 5.55849C33.7498 3.97741 33.3444 2.76119 32.939 2.23416C32.5336 1.72065 31.8309 0.95038 30.5876 0.761191H26.3309V10.1531H27.466V8.63957C27.466 8.63957 31.0336 8.38281 32.5741 10.072H34.1552C34.1552 10.072 33.3849 8.92335 31.8038 8.08552M30.1552 7.3693H27.3579V1.84227H29.8579C30.4795 1.84227 31.1147 2.03146 31.912 2.72065C32.7228 3.42335 32.8984 4.78822 32.2092 6.03146C31.5065 7.28822 30.1552 7.35579 30.1552 7.35579M20.5201 10.1261H21.993L16.9525 0.517948L12.0876 10.099H13.6147L14.3849 8.47741H19.7903L20.5201 10.1396V10.1261ZM19.1282 7.11254H15.0065L17.0336 2.58552L19.1282 7.11254ZM8.72276 6.58552C9.70925 4.62606 8.83087 2.68011 8.0606 1.97741C7.29033 1.2747 5.96601 0.95038 5.62817 0.95038C5.29033 0.95038 0.898438 0.990921 0.898438 0.990921V10.1261H2.11465V8.54498H5.8579C5.8579 8.54498 7.73628 8.54498 8.72276 6.58552ZM7.47952 6.40984C6.81736 7.55849 5.45249 7.55849 5.45249 7.55849H2.03357V1.99092H5.38492C6.2633 1.99092 6.96601 2.39633 7.52006 3.09903C8.07411 3.80173 8.14168 5.2747 7.47952 6.40984Z" fill="#231E21"/>
</g>
</svg>
