<svg width="58" height="17" viewBox="0 0 58 17" fill="none" xmlns="http://www.w3.org/2000/svg">
<g clip-path="url(#clip0_1520_2438)">
<mask id="mask0_1520_2438" style="mask-type:luminance" maskUnits="userSpaceOnUse" x="0" y="0" width="58" height="17">
<path d="M57.0739 0.707031H0.046875V16.0449H57.0739V0.707031Z" fill="white"/>
</mask>
<g mask="url(#mask0_1520_2438)">
<path d="M57.0739 14.5043C57.0739 14.3557 57.0469 14.2341 56.9928 14.1124C56.9388 13.9908 56.8712 13.8827 56.7766 13.7881C56.682 13.6935 56.5739 13.6259 56.4523 13.5719C56.3307 13.5178 56.1955 13.4908 56.0604 13.4908C55.9253 13.4908 55.7901 13.5178 55.6685 13.5719C55.5469 13.6259 55.4388 13.6935 55.3442 13.7881C55.2496 13.8827 55.182 13.9773 55.128 14.1124C55.0739 14.2341 55.0469 14.3692 55.0469 14.5043C55.0469 14.6395 55.0739 14.7881 55.128 14.9097C55.182 15.0314 55.2496 15.1395 55.3442 15.2341C55.4388 15.3287 55.5469 15.3962 55.6685 15.4503C55.7901 15.5043 55.9253 15.5314 56.0604 15.5314C56.1955 15.5314 56.3307 15.5043 56.4523 15.4503C56.5739 15.3962 56.682 15.3287 56.7766 15.2341C56.8712 15.1395 56.9388 15.0314 56.9928 14.9097C57.0469 14.7881 57.0739 14.653 57.0739 14.5043ZM56.8982 14.5043C56.8982 14.6259 56.8712 14.7476 56.8307 14.8422C56.7901 14.9503 56.7361 15.0449 56.655 15.1124C56.5739 15.1935 56.4928 15.2476 56.3847 15.2881C56.2766 15.3287 56.1685 15.3557 56.0604 15.3557C55.9523 15.3557 55.8307 15.3287 55.7361 15.2881C55.628 15.2476 55.5469 15.18 55.4658 15.1124C55.3847 15.0314 55.3307 14.9503 55.2901 14.8422C55.2496 14.7341 55.2226 14.6259 55.2226 14.5043C55.2226 14.3827 55.2361 14.2746 55.2901 14.1665C55.3307 14.0584 55.3847 13.9773 55.4658 13.8962C55.5469 13.8151 55.628 13.7611 55.7361 13.7205C55.8307 13.68 55.9523 13.653 56.0604 13.653C56.1685 13.653 56.2901 13.6665 56.3847 13.7205C56.4793 13.7611 56.5739 13.8287 56.655 13.8962C56.7361 13.9773 56.7901 14.0584 56.8307 14.1665C56.8712 14.2746 56.8982 14.3827 56.8982 14.5043ZM56.5604 15.0989L56.2226 14.5719C56.3171 14.5719 56.3847 14.5314 56.4523 14.4773C56.5063 14.4232 56.5469 14.3557 56.5469 14.2476C56.5469 14.1395 56.5063 14.0449 56.4388 13.9908C56.3712 13.9368 56.2631 13.9097 56.128 13.9097H55.6685V15.0854H55.8577V14.5719H56.0469L56.3712 15.0854H56.5739L56.5604 15.0989ZM56.155 14.4368C56.155 14.4368 56.0739 14.4368 56.0334 14.4368H55.8442V14.0584H56.0874C56.0874 14.0584 56.155 14.0584 56.182 14.0584C56.209 14.0584 56.2361 14.0584 56.2631 14.0854C56.2901 14.0854 56.3036 14.1124 56.3171 14.1395C56.3307 14.1665 56.3442 14.1935 56.3442 14.2341C56.3442 14.2746 56.3442 14.3151 56.3171 14.3422C56.3036 14.3692 56.2766 14.3827 56.2496 14.3962C56.2226 14.4097 56.182 14.4232 56.155 14.4232M55.0334 12.1124C54.9388 10.7476 52.6955 10.6259 51.7766 10.3827C51.5469 10.3287 51.4117 10.2611 51.4117 10.1395C51.4117 10.0449 51.4928 9.96379 51.6144 9.89622C52.0334 9.69352 53.3171 9.43676 53.5469 9.38271C54.0874 9.24757 54.3171 8.65298 54.4117 8.16649C54.4523 7.95027 54.3442 7.7746 54.1009 7.7746C53.8982 7.7746 53.3577 7.84217 52.8847 7.9773C51.8442 8.2746 49.155 9.03135 49.155 10.6665C49.155 12.3016 52.7631 11.8151 52.7631 12.6259C52.7631 13.0854 52.182 13.3557 51.628 13.5178C51.155 13.6665 50.5874 13.68 50.3171 13.707C49.8712 13.7611 49.6415 13.9638 49.4928 14.2746C49.3847 14.4908 49.2766 14.7611 49.2361 15.0719C49.1955 15.3962 49.3307 15.5449 49.5469 15.5719C50.5739 15.6665 51.9523 15.3151 53.1415 14.68C54.2766 14.0719 55.128 13.2476 55.0469 12.1259M46.0469 11.0449C46.5739 10.5989 47.2361 10.207 47.8712 9.7746C48.2496 9.53135 48.3442 9.2746 48.4928 8.88271C48.6685 8.40973 48.8577 7.73406 48.8712 7.39622C48.8712 7.15298 48.8712 6.96379 48.5469 6.9773C48.2496 6.9773 47.209 7.66649 46.9523 7.82865C45.5198 8.80163 44.3171 9.99081 43.2631 11.3557C43.7361 9.43676 44.2766 6.59892 44.5063 5.15298C44.5874 4.69352 44.709 4.05838 44.4523 3.62595C44.2496 3.30163 43.6955 2.65298 43.2631 2.39622C42.8442 2.16649 42.628 2.43676 42.5469 2.82865C42.2631 4.22054 42.1144 4.9773 41.8847 6.11244C41.5604 7.72054 41.2631 9.00433 40.5334 10.8151C40.128 11.8287 39.1955 13.6259 38.155 13.6259C37.1415 13.6259 37.5063 11.1665 37.5063 10.5043C37.5063 10.2746 37.4658 9.69352 36.9117 9.55838C35.0334 9.13946 34.7631 8.53136 34.3847 8.59892C34.155 8.63946 34.0198 8.85568 33.9253 9.16649C33.5604 10.4097 33.3442 11.5178 32.6144 12.6259C32.2766 13.1395 31.6415 13.7476 31.1685 13.7476C30.682 13.7476 30.5198 13.3151 30.5198 12.8827C30.5198 11.68 30.8577 10.4368 31.0063 9.74757C31.1144 9.23406 30.8442 9.13946 30.5739 9.05838C30.2361 8.96379 29.8036 8.93676 29.655 8.95027C28.1955 8.95027 26.8577 9.42325 25.7361 10.3422C25.2631 10.7341 24.8982 11.1935 24.5063 11.6665C24.0739 12.18 22.8171 13.7341 22.0739 13.7341C21.5469 13.7341 21.4928 13.153 21.4928 12.7476C21.4928 10.9503 22.3577 8.23406 22.9928 6.59892C23.4117 5.51784 23.8712 4.53136 24.0063 3.95027C24.1144 3.4773 23.9928 3.04487 23.7226 2.69352C23.3712 2.22054 22.9793 1.88271 22.628 1.72054C22.3847 1.61244 22.1415 1.68 21.9658 1.90973C21.6955 2.30163 21.3307 3.09892 21.182 3.40973C20.0604 5.84217 19.2226 8.66649 19.2226 11.3557C19.2226 12.8016 19.3847 15.4368 21.3577 15.4232C22.4388 15.4232 23.3982 14.7611 24.0874 13.9638C24.2226 14.8962 24.9658 15.4232 25.9928 15.4232C27.128 15.4232 28.155 14.7746 28.8442 13.9097C29.0739 14.8557 29.8171 15.4232 30.7901 15.4232C33.1144 15.4232 34.5063 12.8557 35.128 10.9368C35.209 10.9773 35.3307 11.0178 35.3307 11.0178C35.3171 11.2341 35.3036 11.5719 35.3036 11.8422C35.3036 13.3557 35.6685 15.4368 37.628 15.4232C39.3036 15.4232 40.3847 13.8692 41.155 12.5719H41.1955C41.0604 13.4503 40.8847 14.153 40.8171 15.0449C40.7901 15.4232 41.3442 15.3962 41.5874 15.3962C42.7901 15.3962 42.7361 15.1124 43.0604 14.0854C43.2766 13.4097 43.7766 12.9232 44.2766 12.4503C44.5334 12.9908 45.0874 13.9097 45.9253 14.5989C46.4388 15.0314 47.155 15.3962 47.7766 15.3962C48.0469 15.3962 48.182 15.3557 48.3847 15.207C48.8171 14.8692 49.155 14.153 49.1955 13.8962C49.2361 13.653 49.0334 13.4908 48.8171 13.4368C47.209 12.9773 46.3712 11.9503 46.0469 11.0314M29.0063 10.6124C28.7631 11.5854 28.5604 12.5314 27.6415 13.3287C27.4253 13.5178 27.1144 13.6395 26.8442 13.6395C26.4928 13.6395 26.209 13.4503 26.1955 12.9503C26.1955 11.707 27.8712 10.5989 29.0063 10.6124ZM19.1955 15.1935C19.2901 15.0043 19.1685 14.707 19.0198 14.4232C18.8577 14.0989 18.655 13.7476 18.4253 13.4503C18.1415 13.0719 17.8577 12.8151 17.4253 12.707C16.8577 12.5584 16.2226 12.4908 15.5469 12.4908C13.0334 12.4908 10.0604 13.1124 7.6685 13.5449C6.14147 13.8151 4.93877 14.0584 3.8712 14.0584C3.14147 14.0584 2.54688 13.8016 2.53336 13.0043C2.49282 11.7476 4.60093 9.30163 6.91174 7.53136C10.9658 4.43676 13.1144 4.24757 14.6009 4.05838C15.4658 3.95027 15.7361 3.68 16.3442 2.62595C16.9793 1.49081 17.1144 0.707031 16.2361 0.707031C15.3577 0.707031 13.8442 1.15298 12.628 1.63946C10.8171 2.36919 8.01985 3.81514 5.46579 5.85568C2.84417 7.95027 0.046875 11.0584 0.046875 13.5854C0.046875 15.7341 1.89823 16.0854 3.65498 16.0314C4.89823 15.9908 6.26309 15.8151 7.8712 15.5719C9.92525 15.2611 11.7361 15.0449 14.0739 15.0449C15.209 15.0449 16.3712 15.1395 17.628 15.3016C17.9928 15.3422 18.3307 15.3962 18.6955 15.3962C19.0198 15.3962 19.155 15.3151 19.2226 15.1935" fill="#1C1C19"/>
</g>
</g>
<defs>
<clipPath id="clip0_1520_2438">
<rect width="57.027" height="15.3378" fill="white" transform="translate(0.046875 0.707031)"/>
</clipPath>
</defs>
</svg>
