<svg width="81" height="13" viewBox="0 0 81 13" fill="none" xmlns="http://www.w3.org/2000/svg">
<mask id="mask0_1520_2445" style="mask-type:luminance" maskUnits="userSpaceOnUse" x="0" y="0" width="81" height="13">
<path d="M80.2229 0.605469H0.0742188V12.146H80.2229V0.605469Z" fill="white"/>
</mask>
<g mask="url(#mask0_1520_2445)">
<path d="M80.2229 11.6595V0.781144H78.5067V7.71358C77.3445 6.29466 75.9121 5.49736 74.8039 4.55141C73.7094 3.61898 72.885 2.65952 72.5202 0.781144H70.7904V11.6595H72.858C72.858 10.7406 72.4931 10.5244 72.4931 9.78114V4.61898C72.4931 4.61898 72.4931 4.61898 72.5067 4.6325C73.6688 6.01087 75.0877 6.79466 76.1958 7.75412C77.2769 8.70006 78.1148 9.70006 78.4796 11.6595H80.2094H80.2229ZM68.7499 6.34871C68.7499 2.92979 66.6688 0.632496 63.5742 0.632496C60.4796 0.632496 58.4121 2.92979 58.4121 6.34871C58.4121 9.76763 60.4796 12.0649 63.5742 12.0649C66.6688 12.0649 68.7364 9.76763 68.7364 6.34871M66.8985 6.34871C66.8985 8.3352 66.0877 10.4838 63.5742 10.4838C61.0607 10.4838 60.2499 8.3352 60.2499 6.34871C60.2499 4.36223 61.0607 2.2406 63.5742 2.2406C66.0877 2.2406 66.8985 4.36223 66.8985 6.34871ZM56.7094 6.34871C56.7094 2.92979 54.6418 0.632496 51.5472 0.632496C48.4526 0.632496 46.385 2.92979 46.385 6.34871C46.385 9.76763 48.4526 12.0649 51.5472 12.0649C54.6418 12.0649 56.7094 9.76763 56.7094 6.34871ZM54.8715 6.34871C54.8715 8.3352 54.0607 10.4838 51.5472 10.4838C49.0337 10.4838 48.2229 8.3352 48.2229 6.34871C48.2229 4.36223 49.0337 2.2406 51.5472 2.2406C54.0607 2.2406 54.8715 4.36223 54.8715 6.34871ZM39.5742 3.72709C39.5742 2.87574 40.2499 2.37574 41.3175 2.37574C42.2769 2.37574 42.8715 3.02439 43.2364 3.47033L44.5337 2.34871C43.885 1.45682 42.7364 0.646009 41.3985 0.646009C39.7634 0.646009 37.858 1.25412 37.858 3.79466C37.858 6.99736 43.1148 6.87574 43.1148 9.1325C43.1148 9.8352 42.5607 10.4163 41.304 10.4163C40.4391 10.4163 39.804 10.092 39.0472 9.14601L37.7634 10.2676C38.6012 11.4974 39.7904 12.146 41.3175 12.146C42.8445 12.146 44.831 11.4028 44.831 9.06493C44.831 5.49736 39.5877 5.5379 39.5877 3.72709M33.6418 11.6595H35.3715V0.781144H33.6553V7.71358C32.4931 6.29466 31.0607 5.49736 29.9526 4.55141C28.858 3.61898 28.0337 2.65952 27.6688 0.781144H25.9391V11.6595H28.0067C28.0067 10.7406 27.6418 10.5244 27.6418 9.78114V4.61898C27.6418 4.61898 27.6418 4.61898 27.6553 4.6325C28.8175 6.01087 30.2364 6.79466 31.3445 7.75412C32.4256 8.70006 33.2634 9.70006 33.6283 11.6595M23.7634 6.32169C23.7634 2.90277 21.6958 0.605469 18.6012 0.605469C15.5067 0.605469 13.4391 2.90277 13.4391 6.32169C13.4391 9.7406 15.5202 12.0379 18.6012 12.0379C21.6823 12.0379 23.7634 9.7406 23.7634 6.32169ZM21.9256 6.32169C21.9256 8.30817 21.1148 10.4568 18.6012 10.4568C16.0877 10.4568 15.2769 8.30817 15.2769 6.32169C15.2769 4.3352 16.0877 2.22709 18.6012 2.22709C21.1148 2.22709 21.9256 4.3352 21.9256 6.32169ZM9.61476 11.6595H11.331V0.781144H9.60125C9.46611 1.51087 9.20935 2.0379 8.858 2.5379C8.49314 3.06493 8.00665 3.5379 7.46611 4.09196C6.858 4.71358 6.20935 5.45682 5.69584 6.45682C5.18233 5.45682 4.53368 4.70006 3.92557 4.09196C3.38503 3.5379 2.89854 3.05141 2.53368 2.5379C2.18233 2.0379 1.92557 1.51087 1.79043 0.781144H0.0742188V11.6595H2.14179C2.14179 10.7406 1.77692 10.5244 1.77692 9.78114V4.26763C2.358 4.92979 2.96611 5.47033 3.4526 6.07844C4.11476 6.90277 4.64179 7.82169 4.84449 9.42979H6.52016C6.73638 7.82169 7.26341 6.88925 7.91206 6.07844C8.41206 5.45682 9.00665 4.91628 9.58773 4.26763V11.6595H9.61476Z" fill="#DF4F57"/>
</g>
</svg>
