<svg width="56" height="35" viewBox="0 0 56 35" fill="none" xmlns="http://www.w3.org/2000/svg">
<g clip-path="url(#clip0_1520_2452)">
<mask id="mask0_1520_2452" style="mask-type:luminance" maskUnits="userSpaceOnUse" x="0" y="0" width="56" height="35">
<path d="M55.7224 0.640625H0.871094V34.4785H55.7224V0.640625Z" fill="white"/>
</mask>
<g mask="url(#mask0_1520_2452)">
<path d="M24.0214 6.34269C23.7917 6.43729 23.562 6.59945 23.4944 6.84269C23.4268 7.08594 23.5485 7.34269 23.7647 7.47783C24.1431 7.73459 24.6295 7.7481 25.062 7.62648C25.4809 7.51837 25.7917 7.19405 26.0349 6.84269C25.6566 6.61296 25.2647 6.39675 24.8187 6.28864C24.562 6.23459 24.2782 6.22107 24.0214 6.32918M29.3322 0.639992H29.6295C29.8593 0.667019 30.0755 0.802154 30.1566 1.01837C30.2917 1.41026 30.1566 1.85621 29.8863 2.15351C29.6295 2.38323 29.3052 2.55891 28.9539 2.55891C29.2512 2.46432 29.5349 2.28864 29.6971 1.99134C29.8728 1.68053 29.8593 1.23459 29.6025 0.964316C29.4674 0.815667 29.2376 0.856208 29.0755 0.950802C28.7512 1.13999 28.5485 1.47783 28.3728 1.78864C28.1836 2.11296 28.1295 2.49134 28.062 2.85621C27.8728 3.7481 27.7241 4.63999 27.4539 5.50486C27.2647 6.00486 27.062 6.51837 26.6971 6.92378C27.0079 7.05891 27.3322 7.18053 27.6701 7.2481C28.1971 7.35621 28.7647 7.30215 29.2512 7.0454C28.8187 6.46432 28.3863 5.81567 28.3593 5.07242C28.3322 4.72107 28.4674 4.32918 28.7782 4.12648C29.0755 3.89675 29.5079 3.88323 29.8322 4.05891C30.3052 4.30215 30.6431 4.77513 30.8593 5.26161C31.089 4.7481 31.4539 4.2481 31.9944 4.01837C32.3187 3.88323 32.7241 3.93729 32.9944 4.16702C33.2782 4.38323 33.3863 4.76161 33.3593 5.09945C33.3187 5.7481 32.9809 6.35621 32.562 6.84269C31.9268 7.59945 31.0755 8.11296 30.3052 8.70756C29.616 9.22107 28.9539 9.81567 28.5349 10.5724C28.3593 10.8832 28.2376 11.2211 28.1295 11.5589C28.2241 11.167 28.3322 10.7751 28.4809 10.3967C28.7106 9.85621 29.0755 9.39675 29.4944 8.99134C30.1566 8.35621 30.9133 7.85621 31.6295 7.28864C32.1836 6.86972 32.6971 6.36972 33.0214 5.7481C33.1836 5.4508 33.2241 5.05891 33.0349 4.7481C32.8052 4.38323 32.3052 4.23459 31.9133 4.39675C31.4403 4.58594 31.1295 5.01837 30.9268 5.47783C31.0079 5.81567 31.0349 6.16702 30.9809 6.50486C30.9674 6.61296 30.9268 6.72107 30.8458 6.78864C30.7376 6.7481 30.7106 6.61296 30.6971 6.50486C30.6566 6.16702 30.6701 5.81567 30.7647 5.47783C30.616 5.13999 30.3998 4.80215 30.089 4.58594C29.8458 4.42378 29.5485 4.31567 29.2512 4.38323C28.9809 4.4508 28.7241 4.61296 28.6025 4.85621C28.4674 5.12648 28.5214 5.46432 28.6566 5.73459C28.8728 6.15351 29.1971 6.50486 29.5349 6.82918C29.7241 6.63999 29.8728 6.36972 29.7647 6.09945C29.6431 6.00486 29.4539 5.96432 29.4133 5.78864C29.3458 5.59945 29.4404 5.38323 29.6431 5.34269C29.8728 5.2481 30.116 5.46432 30.116 5.69405C30.116 6.13999 29.9133 6.57242 29.6701 6.92378C29.9403 7.18053 30.3187 7.36972 30.4809 7.73459C30.5349 7.86972 30.3593 7.88323 30.2647 7.84269C29.9268 7.72107 29.6701 7.4508 29.4268 7.19405C29.089 7.51837 28.6431 7.7481 28.1701 7.73459C27.5485 7.73459 26.9944 7.39675 26.4809 7.08594C25.9268 7.63999 25.1295 7.9508 24.3458 7.82918C24.0079 7.76161 23.6971 7.58594 23.4809 7.31567C23.2512 7.01837 23.2782 6.55891 23.5349 6.30215C23.8322 5.97783 24.3052 5.88323 24.7376 5.9508C25.2782 6.0454 25.7512 6.32918 26.2106 6.59945C26.6295 5.7481 26.8863 4.84269 27.1431 3.9508C27.3322 3.2481 27.562 2.55891 27.8593 1.89675C28.1566 1.28864 28.6836 0.734586 29.3728 0.585938" fill="#040407"/>
<path d="M37.5458 16.5856C37.9917 16.491 38.4647 16.4775 38.9241 16.5045C39.5187 16.545 40.0998 16.7072 40.6944 16.8153C40.9377 17.4775 40.9917 18.2072 41.0187 18.9099C40.9106 19.0721 40.6404 19.0721 40.5187 18.9504C40.3566 18.4234 40.0998 17.8829 39.6539 17.5315C39.3025 17.2477 38.8566 17.1126 38.4106 17.1261C37.9647 17.1261 37.5052 17.2477 37.1809 17.5585C36.8431 17.8829 36.6944 18.3558 36.7079 18.8153C36.735 19.2748 36.9917 19.6937 37.316 20.0045C37.6944 20.3829 38.1809 20.6126 38.6404 20.8558C39.2079 21.1531 39.789 21.4504 40.2485 21.8964C40.762 22.3829 41.1404 23.045 41.2214 23.7612C41.3296 24.5721 41.1133 25.4369 40.5728 26.0585C39.9917 26.7342 39.0998 27.0585 38.235 27.1396C37.2214 27.2342 36.1404 27.0991 35.2485 26.5856C35.0323 26.4775 34.9782 26.2072 34.8971 26.0045C34.735 25.4099 34.6539 24.7883 34.6809 24.1666C34.7755 24.0045 35.0187 24.018 35.1674 24.0991C35.4106 24.8018 35.789 25.4639 36.3431 25.9639C36.735 26.3153 37.235 26.545 37.762 26.545C38.3025 26.545 38.8971 26.3829 39.2485 25.9369C39.6268 25.4775 39.6674 24.8153 39.5052 24.2612C39.316 23.6261 38.8025 23.1531 38.2485 22.8153C37.6133 22.4369 36.9241 22.1261 36.3566 21.6261C35.8296 21.1802 35.3971 20.6126 35.2485 19.9369C35.0728 19.1396 35.2485 18.2612 35.762 17.6261C36.2079 17.0721 36.8701 16.7342 37.5593 16.5991" fill="#040407"/>
<path d="M45.5086 16.5985C45.941 16.5849 46.3869 16.6255 46.8194 16.6255C47.7518 16.6525 48.6842 16.6255 49.6167 16.5985C49.7248 16.7201 49.7248 16.9093 49.6437 17.0444C49.3869 17.1255 49.1167 17.0985 48.8734 17.2201C48.7653 17.3012 48.8194 17.4498 48.8464 17.5444C48.9815 17.9633 49.1977 18.3687 49.3734 18.7741C49.8734 19.8417 50.3599 20.9228 50.9275 21.9498C51.4815 20.9633 51.995 19.9498 52.5356 18.9498C52.7518 18.5174 52.995 18.0849 53.1572 17.639C53.1977 17.5174 53.2653 17.3282 53.1167 17.2471C52.8734 17.1525 52.6031 17.139 52.3599 17.0579C52.2383 16.9228 52.2923 16.7336 52.3734 16.5985C53.4545 16.6525 54.5356 16.666 55.6167 16.5985C55.6437 16.6525 55.6842 16.6931 55.7113 16.7471V16.9228C55.7113 16.9228 55.6707 17.0714 55.5761 17.0849C55.2248 17.1795 54.8329 17.1931 54.5356 17.4363C54.1977 17.7066 53.995 18.0849 53.7788 18.4363C53.2113 19.3822 52.6572 20.3417 52.1302 21.3147C51.914 21.7336 51.6437 22.1255 51.495 22.5849C51.3464 23.0174 51.3464 23.4633 51.3464 23.9093C51.3464 24.5309 51.3329 25.139 51.3734 25.7606C51.4004 25.9904 51.414 26.2201 51.5491 26.4228C51.6572 26.5714 51.8464 26.6255 52.0221 26.6525C52.3194 26.6931 52.6167 26.7201 52.9004 26.7471C52.9545 26.8958 52.9545 27.0714 52.8869 27.2201C52.5491 27.2201 52.2248 27.2066 51.8869 27.1931C50.6167 27.1525 49.3599 27.1795 48.0896 27.2201C48.0356 27.0714 47.968 26.8822 48.0896 26.7606C48.4275 26.6795 48.8058 26.7066 49.1302 26.5714C49.4004 26.4363 49.4275 26.0849 49.4545 25.8282C49.5086 25.0849 49.468 24.3417 49.4815 23.5985C49.4815 23.0039 49.2383 22.4633 48.968 21.9633C48.3869 20.8147 47.8058 19.666 47.2248 18.5039C47.0356 18.166 46.9004 17.7741 46.6167 17.5039C46.2923 17.2201 45.8464 17.2201 45.468 17.0849C45.4004 16.9498 45.414 16.7606 45.5086 16.639" fill="#040407"/>
<path d="M22.2758 16.7883C23.2758 16.6531 24.2893 16.6396 25.2893 16.6396C26.1947 16.6126 27.1136 16.6396 27.992 16.8423C28.5731 16.9775 29.1407 17.2072 29.5866 17.6261C30.1272 18.1261 30.4515 18.8693 30.438 19.6126C30.4515 20.3288 30.2217 21.0585 29.7353 21.5856C29.0866 22.2883 28.1272 22.6261 27.1812 22.7072C26.9515 22.7072 26.7217 22.7342 26.492 22.6937C26.3974 22.5856 26.3974 22.4369 26.438 22.3018C27.0326 22.1802 27.6001 21.8964 27.9515 21.3964C28.3839 20.7883 28.4785 19.991 28.3974 19.2748C28.3028 18.5585 27.8974 17.8693 27.2488 17.5315C26.7893 17.2748 26.2488 17.2477 25.7353 17.2883C25.6136 17.2883 25.465 17.3423 25.4244 17.4775C25.3839 17.6126 25.3839 17.7612 25.3839 17.8964V22.4369C25.3839 23.518 25.3569 24.5856 25.4109 25.6531C25.438 25.9504 25.4515 26.3423 25.7488 26.5045C26.1001 26.6531 26.5055 26.5991 26.8839 26.6937C26.965 26.8423 26.938 27.018 26.8569 27.1531C25.3839 27.0856 23.9109 27.0856 22.438 27.1531C22.2893 27.045 22.3299 26.8288 22.3839 26.6937C22.6542 26.6531 22.9244 26.6531 23.1812 26.5315C23.3434 26.4639 23.4244 26.2883 23.465 26.1261C23.5326 25.8693 23.5326 25.5856 23.5461 25.3288C23.5461 23.2207 23.5461 21.0991 23.5461 18.991C23.5461 18.5721 23.5731 18.1396 23.4785 17.7207C23.438 17.5585 23.3299 17.3964 23.1542 17.3558C22.8839 17.2748 22.5866 17.2748 22.3028 17.2342C22.2353 17.0991 22.1947 16.9099 22.3163 16.7883" fill="#040407"/>
<path d="M0.965688 16.6666C1.15488 16.6125 1.34407 16.6666 1.53326 16.6666C2.81704 16.7071 4.10082 16.6936 5.38461 16.6531C5.4792 16.7882 5.49272 16.9639 5.42515 17.1125C5.14136 17.1666 4.85758 17.1936 4.58731 17.2882C4.41163 17.3423 4.29001 17.518 4.24947 17.6936C4.14136 18.1261 4.16839 18.572 4.15488 19.018C4.15488 20.8288 4.15488 22.6396 4.15488 24.4639C4.16839 24.8828 4.15488 25.3153 4.23596 25.7342C4.29001 25.9504 4.38461 26.1801 4.5738 26.2882C4.7765 26.4098 5.03326 26.4369 5.26299 26.4639C5.83055 26.5044 6.39812 26.5044 6.9792 26.4639C7.35758 26.4369 7.74947 26.3693 8.03326 26.1125C8.43866 25.7477 8.61434 25.2342 8.85758 24.7612C9.01974 24.6936 9.20893 24.7477 9.35758 24.8423C9.18191 25.6261 8.9792 26.4098 8.68191 27.1666C7.46569 27.1125 6.24947 27.1125 5.03326 27.1125C3.66839 27.1125 2.30353 27.099 0.952175 27.1531C0.925148 27.099 0.898121 27.0315 0.871094 26.9774V26.7747C0.871094 26.7747 0.952175 26.6936 1.01974 26.6801C1.31704 26.6125 1.64136 26.6125 1.93866 26.4909C2.14136 26.3963 2.22245 26.1801 2.26299 25.9639C2.31704 25.5585 2.31704 25.1531 2.33055 24.7612V19.1261C2.33055 18.7071 2.33055 18.2747 2.2765 17.8558C2.24947 17.6396 2.1819 17.3963 1.96569 17.2882C1.65488 17.1396 1.30353 17.1666 0.992715 17.0855C0.884607 16.9774 0.911634 16.7747 0.992715 16.6531" fill="#040407"/>
<path d="M13.6157 17.1001C13.5347 16.9649 13.5482 16.7758 13.6428 16.6406C15.0752 16.6947 16.4941 16.7082 17.9266 16.6406C18.0347 16.7758 18.0617 16.9649 17.9536 17.1001C17.6698 17.1677 17.359 17.1406 17.0752 17.2758C16.9265 17.3433 16.8455 17.492 16.8049 17.6406C16.7103 18.0055 16.7238 18.3839 16.7103 18.7622C16.7103 20.2893 16.7103 21.8163 16.7103 23.3568C16.7103 24.1812 16.6833 25.0055 16.7509 25.8298C16.7779 26.1001 16.8184 26.4244 17.1022 26.5595C17.3725 26.6677 17.6833 26.6677 17.9806 26.7217C18.0482 26.8704 18.0752 27.0866 17.9266 27.1812C16.5076 27.1271 15.0752 27.1136 13.6563 27.1812C13.5347 27.046 13.5482 26.8704 13.6157 26.7082C13.913 26.6541 14.2103 26.6541 14.4941 26.546C14.6968 26.4649 14.7779 26.2487 14.8049 26.0595C14.886 25.5866 14.8725 25.1136 14.8725 24.6271C14.8725 22.5595 14.8725 20.492 14.8725 18.4244C14.8455 18.0595 14.8725 17.6541 14.6428 17.3568C14.359 17.1136 13.9671 17.1812 13.6293 17.0866" fill="#040407"/>
<path d="M20.1026 31.2343C19.6702 31.3424 19.3999 31.7749 19.3323 32.1938C19.2648 32.6938 19.2783 33.2343 19.5621 33.6668C19.8188 34.0451 20.3188 34.1532 20.7513 34.0857C21.0756 34.0451 21.3594 33.8289 21.508 33.5451C21.6972 33.1532 21.7107 32.7073 21.6702 32.2884C21.6296 31.937 21.4945 31.5722 21.1972 31.3695C20.8864 31.1532 20.4675 31.1397 20.1161 31.2343M19.3459 31.2208C19.6567 30.8965 20.1296 30.7884 20.5621 30.8019C20.9945 30.8019 21.454 30.9641 21.7378 31.3154C22.0891 31.7208 22.1702 32.3019 22.1432 32.8154C22.1161 33.2749 21.9675 33.7478 21.6296 34.0722C21.3864 34.3154 21.0486 34.4235 20.7242 34.4641H20.3053C19.9405 34.437 19.5621 34.2884 19.3188 34.0181C18.954 33.6397 18.8594 33.0857 18.8594 32.5722C18.8594 32.0857 18.981 31.5586 19.3459 31.2073" fill="#040407"/>
<path d="M24.0469 30.8555H24.5198C25.1685 31.8555 25.8307 32.842 26.4658 33.8555C26.4117 32.8555 26.4388 31.8555 26.4388 30.8555H26.8442C26.8442 32.0447 26.8442 33.2338 26.8442 34.423C26.682 34.423 26.5198 34.423 26.3442 34.423C25.6955 33.423 25.0469 32.423 24.3982 31.4366C24.4793 32.4366 24.4253 33.4365 24.4388 34.4365H24.0469V30.8555Z" fill="#040407"/>
<path d="M29.1689 31.2338V34.0582C29.5473 34.0582 29.9392 34.0987 30.3041 33.9636C30.6149 33.869 30.8851 33.6393 31.0068 33.3284C31.1689 32.9366 31.1689 32.4906 31.0743 32.0717C30.9932 31.7338 30.7365 31.4366 30.3987 31.3149C30.0068 31.1663 29.5743 31.2338 29.1689 31.2203M28.75 30.8555C29.2635 30.869 29.7635 30.8284 30.2635 30.896C30.7365 30.9636 31.1824 31.2474 31.3986 31.6798C31.6284 32.1528 31.6419 32.7068 31.5338 33.2068C31.4392 33.6663 31.1284 34.0717 30.6959 34.2609C30.0878 34.5311 29.3986 34.4095 28.75 34.4366C28.75 33.2474 28.75 32.0582 28.75 30.8555Z" fill="#040407"/>
<path d="M34.7373 31.2481C34.2914 31.3698 34.0346 31.8157 33.9806 32.2616C33.9265 32.7481 33.94 33.2887 34.2238 33.6941C34.5076 34.0995 35.0752 34.1941 35.5211 34.0725C35.8049 34.0049 36.0482 33.8022 36.1698 33.5319C36.3319 33.1806 36.359 32.7887 36.3319 32.4103C36.3049 32.0454 36.1833 31.6535 35.8995 31.4238C35.5752 31.1806 35.1292 31.1535 34.7509 31.2616M34.0481 31.1671C34.359 30.8968 34.7779 30.8022 35.1833 30.8157C35.5887 30.8157 36.0076 30.9373 36.3049 31.2346C36.6292 31.5589 36.7644 32.0319 36.7914 32.4914C36.8184 33.0049 36.7238 33.5725 36.386 33.9644C36.1427 34.2752 35.7509 34.4373 35.359 34.4779H34.9265C34.5211 34.4373 34.1292 34.2616 33.8725 33.9373C33.5211 33.4914 33.4671 32.8968 33.5076 32.3562C33.5481 31.9103 33.6968 31.4644 34.0481 31.1671Z" fill="#040407"/>
<path d="M38.6836 30.8553C38.8458 30.8553 39.0079 30.8553 39.1701 30.8553C39.8322 31.8553 40.4674 32.8553 41.1295 33.8418C41.0485 32.8418 41.1025 31.8418 41.089 30.8553H41.4944V34.4229C41.3322 34.4229 41.1701 34.4229 41.0079 34.4229C40.3593 33.4229 39.7106 32.4229 39.062 31.4364C39.1295 32.4364 39.089 33.4229 39.1025 34.4229C38.9674 34.4229 38.8322 34.4229 38.6971 34.4229C38.6971 33.2337 38.6971 32.0445 38.6971 30.8418" fill="#040407"/>
<path d="M14.9531 34.4367C14.9531 33.2475 14.9531 32.0583 14.9531 30.8691C15.1018 30.8691 15.2369 30.8691 15.3856 30.8691V34.0583H16.9531C16.9531 34.1799 16.9531 34.3151 16.9531 34.4367C16.291 34.4367 15.6153 34.4367 14.9531 34.4367Z" fill="#040407"/>
</g>
</g>
<defs>
<clipPath id="clip0_1520_2452">
<rect width="54.8514" height="33.8378" fill="white" transform="translate(0.871094 0.640625)"/>
</clipPath>
</defs>
</svg>
