<svg width="68" height="13" viewBox="0 0 68 13" fill="none" xmlns="http://www.w3.org/2000/svg">
<mask id="mask0_1520_2470" style="mask-type:luminance" maskUnits="userSpaceOnUse" x="0" y="0" width="68" height="13">
<path d="M67.5472 0.693359H0.574219V12.0582H67.5472V0.693359Z" fill="white"/>
</mask>
<g mask="url(#mask0_1520_2470)">
<path d="M67.5472 1.54559C67.5472 1.09965 67.1958 0.748296 66.7364 0.748296C66.3039 0.748296 65.9526 1.09965 65.9391 1.53208C65.9391 1.96451 66.2904 2.34289 66.7364 2.34289C67.1823 2.34289 67.5337 1.97803 67.5337 1.54559M67.385 1.54559C67.385 1.91046 67.1148 2.18073 66.7499 2.18073C66.385 2.18073 66.1012 1.91046 66.1012 1.53208C66.1012 1.16722 66.3715 0.910459 66.7364 0.910459C67.1012 0.910459 67.3715 1.18073 67.3715 1.54559M66.9931 1.66722C66.9931 1.66722 66.9391 1.61316 66.9256 1.59965C66.9661 1.59965 67.0202 1.57262 67.0607 1.51857L67.0877 1.49154C67.1012 1.451 67.1148 1.41046 67.1148 1.36992C67.1148 1.32938 67.1148 1.27532 67.0742 1.23478C67.0472 1.19424 67.0202 1.16722 66.9796 1.1537C66.9391 1.14019 66.8715 1.12667 66.7769 1.12667H66.4256V1.96451H66.6012V1.61316H66.6283C66.6283 1.61316 66.6958 1.61316 66.7094 1.61316C66.7229 1.61316 66.7499 1.62667 66.7634 1.6537C66.7769 1.68073 66.8039 1.70776 66.858 1.77532L66.9796 1.96451H67.1823C67.1418 1.89694 67.1012 1.82938 67.0742 1.80235C67.0337 1.72127 67.0067 1.69424 66.9796 1.66722M66.885 1.47803C66.885 1.47803 66.8175 1.47803 66.7364 1.47803H66.6148V1.26181H66.7499C66.7499 1.26181 66.858 1.26181 66.8715 1.26181C66.8985 1.26181 66.9256 1.27532 66.9391 1.28884C66.9526 1.30235 66.9661 1.32938 66.9661 1.3564C66.9661 1.38343 66.9661 1.39695 66.9526 1.42397C66.9526 1.43749 66.9256 1.451 66.9121 1.46451M66.0877 6.41046C66.1012 3.31586 63.5742 0.694242 60.4256 0.694242C57.3175 0.667215 54.7364 3.2483 54.7364 6.32938C54.7364 9.451 57.2364 11.9915 60.3175 12.0456C63.5067 12.0861 66.0742 9.47803 66.0877 6.39694M64.5877 6.39694C64.5877 8.73478 62.7094 10.5321 60.4121 10.5456C58.0877 10.5456 56.2364 8.70776 56.2364 6.36992C56.2364 3.99154 58.1148 2.18073 60.4391 2.19424C62.7634 2.19424 64.6012 4.03208 64.5877 6.39694ZM45.9256 2.38343C46.2364 1.88343 46.5472 1.39695 46.8715 0.869918C46.7769 0.869918 46.7229 0.856404 46.6688 0.856404C46.2229 0.856404 45.7634 0.856404 45.3175 0.856404C45.1688 0.856404 45.0877 0.910459 45.0067 1.03208C44.4391 1.951 43.8715 2.8564 43.2904 3.77532C43.0472 4.16722 42.8039 4.55911 42.5472 4.96451C42.4931 4.86992 42.4391 4.81586 42.4121 4.7483C41.6418 3.51857 40.8715 2.27532 40.1012 1.04559C40.0202 0.910459 39.9391 0.856405 39.7769 0.869918C39.4796 0.869918 39.1823 0.869918 38.8715 0.869918H38.2229C38.2904 0.978026 38.3175 1.04559 38.358 1.09965C39.4256 2.80235 40.4796 4.50505 41.5607 6.20776C41.6418 6.34289 41.6418 6.42397 41.5607 6.55911C40.7769 7.78884 40.0067 9.01857 39.2364 10.2618C38.8985 10.7888 38.5742 11.3294 38.2229 11.8969C38.7634 11.8969 39.2634 11.8969 39.7634 11.8969C39.9256 11.8969 40.0202 11.8564 40.1012 11.7213C40.5067 11.0591 40.9121 10.4105 41.3175 9.76181C41.7229 9.11316 42.1283 8.47803 42.5337 7.81586C42.5877 7.89694 42.6283 7.96451 42.6688 8.03208C43.4391 9.26181 44.2094 10.5051 44.9931 11.7348C45.0337 11.8024 45.1148 11.8969 45.1823 11.8969C45.7364 11.8969 46.2904 11.8969 46.858 11.8969C46.8175 11.8159 46.7904 11.7753 46.7634 11.7213C45.6823 10.0051 44.6148 8.27532 43.5337 6.55911C43.4526 6.42397 43.4526 6.34289 43.5337 6.20776C44.331 4.93749 45.1283 3.66722 45.9121 2.39694M27.0472 2.93749C27.4661 2.2483 27.8985 1.57262 28.331 0.869918C28.2499 0.869918 28.1823 0.856404 28.1283 0.856404C27.6688 0.856404 27.2094 0.856404 26.7634 0.856404C26.6283 0.856404 26.5472 0.910459 26.4796 1.01857C25.7499 2.20776 25.0067 3.38343 24.2634 4.55911C24.1823 4.68073 24.1148 4.80235 24.0202 4.93749C23.9661 4.84289 23.9121 4.77532 23.8715 4.70776C23.1012 3.47803 22.331 2.23478 21.5472 1.00505C21.5067 0.937486 21.4121 0.856404 21.331 0.842891C20.8175 0.829377 20.3039 0.842891 19.7904 0.842891C19.7634 0.842891 19.7499 0.856405 19.7094 0.883432C19.7499 0.964513 19.7904 1.01857 19.831 1.08613C20.8985 2.78884 21.9526 4.49154 23.0202 6.19424C23.0877 6.30235 23.1012 6.38343 23.0202 6.50505C22.3715 7.51857 21.7364 8.54559 21.1012 9.55911C20.6283 10.3159 20.1688 11.0591 19.6688 11.8564C20.2229 11.8564 20.7364 11.8564 21.2499 11.8564C21.385 11.8564 21.4661 11.8159 21.5337 11.6942C21.8715 11.1402 22.2094 10.5996 22.5607 10.0591C23.0337 9.30235 23.5067 8.54559 23.9931 7.76181C24.0472 7.84289 24.0877 7.89694 24.1283 7.96451C24.8985 9.19424 25.6688 10.4375 26.4391 11.6672C26.4796 11.7348 26.5607 11.8429 26.6283 11.8429C27.1823 11.8429 27.7364 11.8429 28.3039 11.8429C28.2499 11.7483 28.2094 11.6672 28.1688 11.5996C27.1012 9.89694 26.0472 8.19424 24.9661 6.49154C24.885 6.36992 24.885 6.28884 24.9661 6.18073C25.6553 5.09965 26.331 4.00505 27.0202 2.91046M10.4121 10.2348C11.6958 8.84289 12.1823 7.19424 11.8445 5.32938C11.3175 2.31586 8.41206 0.288837 5.358 0.76181C3.14179 1.09965 1.24989 2.8564 0.749894 5.05911C0.668813 5.39695 0.628273 5.7483 0.574219 6.09965V6.64019C0.601246 6.88343 0.628273 7.12667 0.682327 7.36992C0.979624 8.88343 1.74989 10.0996 3.00665 11.0051C4.23638 11.8834 5.61476 12.1942 7.10125 11.978C8.39854 11.7888 9.52017 11.2078 10.4121 10.2213M10.4526 6.36992C10.4661 8.62667 8.66881 10.5591 6.27692 10.5591C3.88503 10.5591 2.18233 8.70776 2.08773 6.55911C1.99314 4.08613 3.96611 2.16722 6.29044 2.19424C8.57422 2.20776 10.4526 4.04559 10.4526 6.36992Z" fill="#090707"/>
</g>
</svg>
