<svg width="40" height="25" viewBox="0 0 40 25" fill="none" xmlns="http://www.w3.org/2000/svg">
<g clip-path="url(#clip0_1520_2476)">
<mask id="mask0_1520_2476" style="mask-type:luminance" maskUnits="userSpaceOnUse" x="0" y="0" width="40" height="25">
<path d="M39.8982 0.619141H0.546875V24.1327H39.8982V0.619141Z" fill="white"/>
</mask>
<g mask="url(#mask0_1520_2476)">
<path d="M39.7901 3.88941L38.5874 4.32184C38.1144 2.80833 36.7631 1.83536 34.9523 1.83536C32.9658 1.83536 31.6685 2.82184 31.6685 4.49752C31.6685 8.09211 39.8847 6.18671 39.8847 11.2543C39.8847 13.6732 37.9388 15.3624 35.0469 15.3624C32.3577 15.3624 30.7496 14.0786 29.6415 12.0381L30.7631 11.3624C31.5063 12.93 32.8712 14.1462 34.9388 14.1462C37.3307 14.1462 38.5739 13.0516 38.5739 11.2272C38.5739 7.60563 30.3577 9.38941 30.3577 4.47049C30.3712 1.56509 32.9928 0.619141 34.9388 0.619141C37.1144 0.619141 39.0874 1.60563 39.7901 3.88941ZM19.5739 3.91644C19.5739 4.71374 20.1144 5.40292 21.2901 6.67319C22.6685 5.86238 23.4388 5.02455 23.4388 3.91644C23.4388 2.80833 22.7226 1.99752 21.4793 1.99752C20.3307 1.99752 19.5874 2.90292 19.5874 3.91644M20.9523 8.20022C19.0739 9.22725 18.2496 10.0651 18.2496 11.3354C18.2496 12.8083 19.5739 14.0245 21.2631 14.0245C22.7901 14.0245 23.5739 13.3218 24.4253 11.957L20.9523 8.20022ZM27.655 15.43L25.2496 12.8624C24.3847 14.2272 23.1955 15.2137 21.2631 15.2137C18.7631 15.2137 16.9253 13.484 16.9253 11.3489C16.9253 9.5786 18.0198 8.47049 20.128 7.2813C18.9253 6.0786 18.2631 5.09211 18.2631 3.91644C18.2631 2.20022 19.709 0.835357 21.4658 0.835357C23.3307 0.835357 24.709 2.20022 24.709 3.91644C24.709 5.63265 23.3982 6.68671 22.1144 7.53806L25.0874 10.7813L26.8442 7.92995L27.8982 8.59211L25.9523 11.7543L28.6144 14.5786L27.655 15.43ZM13.6144 0.80833V15.2272H12.2901V3.44346L7.54688 12.6597H6.61444L1.8712 3.47049V15.2272H0.546875V0.80833H1.92525L7.08742 10.7678L12.2631 0.80833H13.628H13.6144Z" fill="#1B1C1C"/>
</g>
<path d="M9.62891 21.0508V24.0778H11.6019V23.6994H10.0208V22.74H11.4262V22.3616H10.0208V21.4292H11.5208V21.0508H9.62891Z" fill="#1B1C1C"/>
<mask id="mask1_1520_2476" style="mask-type:luminance" maskUnits="userSpaceOnUse" x="0" y="0" width="40" height="25">
<path d="M39.8982 0.619141H0.546875V24.1327H39.8982V0.619141Z" fill="white"/>
</mask>
<g mask="url(#mask1_1520_2476)">
<path d="M13.6303 22.3478H13.6168C13.1843 22.2261 12.9546 22.1315 12.9546 21.8478C12.9546 21.564 13.1978 21.3883 13.5627 21.3883C13.86 21.3883 14.0897 21.5099 14.1978 21.7397L14.2384 21.8342L14.5627 21.6451L14.5357 21.5775C14.3195 21.064 13.7519 21.0234 13.5897 21.0234C13.2114 21.0234 12.5897 21.1991 12.5897 21.8613C12.5897 22.4424 13.1033 22.591 13.5627 22.7261C14.0087 22.8613 14.2654 22.9559 14.2654 23.2397C14.2654 23.5505 13.9951 23.7532 13.5897 23.7532C13.2114 23.7532 12.9276 23.591 12.7789 23.2667L12.7384 23.1721L12.4141 23.3613L12.4546 23.4424C12.6708 23.8748 13.0762 24.118 13.5897 24.118C14.2249 24.118 14.6708 23.7397 14.6708 23.2126C14.6708 22.618 14.1168 22.4559 13.6708 22.3342" fill="#1B1C1C"/>
</g>
<path d="M15.3047 21.0508V21.4292H16.2236V24.0778H16.6155V21.4292H17.5344V21.0508H15.3047Z" fill="#1B1C1C"/>
<mask id="mask2_1520_2476" style="mask-type:luminance" maskUnits="userSpaceOnUse" x="0" y="0" width="40" height="25">
<path d="M39.8982 0.619141H0.546875V24.1327H39.8982V0.619141Z" fill="white"/>
</mask>
<g mask="url(#mask2_1520_2476)">
<path d="M18.5614 23.6055C18.4263 23.6055 18.3047 23.7271 18.3047 23.8622C18.3047 23.9974 18.4263 24.119 18.5614 24.119C18.6966 24.119 18.8182 24.0109 18.8182 23.8622C18.8182 23.7271 18.6966 23.6055 18.5614 23.6055Z" fill="#1B1C1C"/>
</g>
<path d="M20.8164 21.1738V21.5657H21.2624V24.0792H21.6542V21.1738H20.8164Z" fill="#1B1C1C"/>
<path d="M30.1683 21.7144V23.0252H29.2223L30.1683 21.7144ZM30.344 21.1738H30.1007L28.6953 23.1333V23.4036H30.1683V24.0792H30.5467V23.4036H30.925V23.0792L30.5467 23.0387V21.1873H30.344V21.1738Z" fill="#1B1C1C"/>
<mask id="mask3_1520_2476" style="mask-type:luminance" maskUnits="userSpaceOnUse" x="0" y="0" width="40" height="25">
<path d="M39.8982 0.619141H0.546875V24.1327H39.8982V0.619141Z" fill="white"/>
</mask>
<g mask="url(#mask3_1520_2476)">
<path d="M23.8455 23.7815C23.4807 23.7815 23.1969 23.6058 23.1969 23.2274C23.1969 22.8761 23.5077 22.7004 23.8455 22.7004C24.1834 22.7004 24.4942 22.8761 24.4942 23.2274C24.4942 23.6058 24.2104 23.7815 23.8455 23.7815ZM23.278 21.9301C23.278 21.6193 23.4807 21.4436 23.8455 21.4436C24.2104 21.4436 24.4131 21.6193 24.4131 21.9301C24.4131 22.2409 24.1293 22.4031 23.8455 22.4031C23.5347 22.4031 23.278 22.2274 23.278 21.9301ZM24.3861 22.5517C24.6293 22.4166 24.7915 22.2139 24.7915 21.9166C24.7915 21.3896 24.3726 21.1328 23.8591 21.1328C23.3455 21.1328 22.9266 21.4031 22.9266 21.9166C22.9266 22.2139 23.0753 22.4166 23.3185 22.5517C23.0482 22.6734 22.832 22.8896 22.832 23.2274C22.832 23.7409 23.2104 24.0923 23.8591 24.0923C24.5077 24.0923 24.8861 23.7274 24.8861 23.2274C24.8861 22.8896 24.6564 22.6734 24.3861 22.5517Z" fill="#1B1C1C"/>
<path d="M26.7245 23.7815C26.3596 23.7815 26.0758 23.6058 26.0758 23.2274C26.0758 22.8761 26.3866 22.7004 26.7245 22.7004C27.0623 22.7004 27.3731 22.8761 27.3731 23.2274C27.3731 23.6058 27.0893 23.7815 26.7245 23.7815ZM26.1569 21.9301C26.1569 21.6193 26.3596 21.4436 26.7245 21.4436C27.0893 21.4436 27.292 21.6193 27.292 21.9301C27.292 22.2409 27.0082 22.4031 26.7245 22.4031C26.4136 22.4031 26.1569 22.2274 26.1569 21.9301ZM27.265 22.5517C27.5217 22.4166 27.6704 22.2139 27.6704 21.9166C27.6704 21.3896 27.2515 21.1328 26.738 21.1328C26.2244 21.1328 25.8055 21.4031 25.8055 21.9166C25.8055 22.2139 25.9542 22.4166 26.1974 22.5517C25.9272 22.6734 25.7109 22.8896 25.7109 23.2274C25.7109 23.7409 26.0893 24.0923 26.738 24.0923C27.3866 24.0923 27.765 23.7274 27.765 23.2274C27.765 22.8896 27.5353 22.6734 27.265 22.5517Z" fill="#1B1C1C"/>
</g>
</g>
<defs>
<clipPath id="clip0_1520_2476">
<rect width="39.3514" height="23.5135" fill="white" transform="translate(0.546875 0.619141)"/>
</clipPath>
</defs>
</svg>
