<svg width="63" height="13" viewBox="0 0 63 13" fill="none" xmlns="http://www.w3.org/2000/svg">
<mask id="mask0_1520_2503" style="mask-type:luminance" maskUnits="userSpaceOnUse" x="0" y="0" width="63" height="13">
<path d="M62.993 0.1875H0.898438V12.5659H62.993V0.1875Z" fill="white"/>
</mask>
<g mask="url(#mask0_1520_2503)">
<path d="M62.993 12.3632V11.4443H58.6957V0.376689H57.5201V12.3632H62.993ZM55.2903 6.37669C55.2903 2.79561 52.439 0.1875 49.2092 0.1875C45.9795 0.1875 43.1282 2.80912 43.1282 6.37669C43.1282 9.94426 45.993 12.5659 49.2092 12.5659C52.4255 12.5659 55.2903 9.95777 55.2903 6.37669ZM54.0336 6.37669C54.0336 9.6875 51.6687 11.6064 49.2228 11.6064C46.7768 11.6064 44.3444 9.6875 44.3444 6.37669C44.3444 3.06588 46.7633 1.14696 49.1957 1.14696C51.6282 1.14696 54.0201 3.06588 54.0201 6.37669M38.9525 6.90372L42.9525 0.376689H41.5876C40.5336 2.07939 38.1282 6.13345 38.1282 6.13345L34.8174 0.376689H33.4525L37.2903 6.91723C37.4119 7.11993 37.4795 7.37669 37.4795 7.60642C37.493 9.02534 37.4795 10.5389 37.4795 11.9578V12.3632H38.7228V11.9307C38.7228 10.5389 38.7228 9.05237 38.7228 7.66047C38.7228 7.40372 38.8038 7.11993 38.939 6.90372M33.3849 12.3632C31.5065 10.1334 29.6957 8.1875 27.8579 6.01182L32.6957 0.376689H31.4525C31.1687 0.376689 31.2363 0.376689 31.0606 0.376689C31.0606 0.376689 26.5201 5.75507 26.3444 5.94426V0.376689H25.1417V12.3632H26.3849V6.03885C26.4795 6.14696 26.5336 6.20101 26.5876 6.25507C28.3038 8.29561 30.1957 10.3226 31.9119 12.3632H33.3984H33.3849ZM16.0876 6.52534H21.5741V5.60642H16.0876V1.29561H21.5741V0.376689H14.8984V12.3632H21.5741V11.4307H16.0876V6.52534ZM12.5876 3.52534C12.5471 1.84966 11.6282 0.673986 9.966 0.498311C8.57411 0.349662 7.14168 0.403716 5.73627 0.363176C5.70925 0.363176 5.69573 0.390203 5.65519 0.403716V12.3632H6.84438V7.02534C7.52006 7.02534 8.14168 7.03885 8.7633 7.02534C9.52006 6.99831 10.2768 6.97128 10.966 6.60642C12.1957 5.95777 12.6147 4.86318 12.5876 3.53885M11.0336 4.93074C10.8174 5.37669 10.439 5.70101 9.966 5.86318C8.95249 6.20101 7.91195 6.09291 6.8579 6.10642V1.30912C7.88492 1.29561 8.89844 1.22804 9.89844 1.47128C10.3714 1.57939 10.7633 1.87669 10.9795 2.30912C11.412 3.16047 11.4525 4.05237 11.0336 4.91723M0.898438 12.3632H2.08763V0.376689H0.898438V12.3632Z" fill="#1C1C19"/>
</g>
</svg>
