<svg width="109" height="26" viewBox="0 0 109 26" fill="none" xmlns="http://www.w3.org/2000/svg">
<mask id="mask0_1520_2509" style="mask-type:luminance" maskUnits="userSpaceOnUse" x="0" y="0" width="109" height="26">
<path d="M108.226 0.765625H0.515625V25.0872H108.226V0.765625Z" fill="white"/>
</mask>
<g mask="url(#mask0_1520_2509)">
<path d="M7.27865 5.75771C8.29903 4.74036 9.53299 4.21986 10.9805 4.21986V0.765625C8.56006 0.765625 6.51929 1.61735 4.81074 3.29716C3.10218 5.00061 2.24791 7.0353 2.24791 9.44854H0.515625V12.9264H2.24791V25.0872H5.7362V9.44854C5.7362 8.00533 6.23453 6.77505 7.25492 5.75771M12.1907 11.4596C12.1907 10.1347 11.1229 9.06999 9.79402 9.06999C8.46514 9.06999 7.3973 10.1347 7.3973 11.4596C7.3973 12.7845 8.46514 13.8491 9.79402 13.8491C11.1229 13.8491 12.1907 12.7845 12.1907 11.4596ZM14.3976 25.0872H17.8859V0.765625H14.3976V25.0872ZM34.2595 16.4043C34.2595 17.8475 33.7375 19.0542 32.7171 20.0952C31.6967 21.1125 30.4628 21.633 29.0152 21.633C27.5677 21.633 26.3575 21.1125 25.3134 20.0952C24.293 19.0778 23.7709 17.8475 23.7709 16.4043C23.7709 14.9611 24.293 13.7545 25.3134 12.7135C26.3338 11.6962 27.5677 11.1757 29.0152 11.1757C30.4628 11.1757 31.673 11.6962 32.7171 12.7135C33.7375 13.7308 34.2595 14.9611 34.2595 16.4043ZM35.185 22.5321C36.8936 20.8286 37.7478 18.7939 37.7478 16.3807C37.7478 13.9674 36.8936 11.9327 35.185 10.2529C33.4765 8.54949 31.4357 7.69776 29.039 7.69776C26.6422 7.69776 24.5777 8.54949 22.8929 10.2529C21.1844 11.9564 20.3301 13.9911 20.3301 16.3807C20.3301 18.7702 21.1844 20.8286 22.8929 22.5321C24.6015 24.2355 26.6422 25.0872 29.039 25.0872C31.4357 25.0872 33.5002 24.2355 35.185 22.5321ZM45.0329 12.5242C46.0533 11.5069 47.4534 11.1757 48.9009 11.1757V7.69776C48.9009 7.69776 48.7348 7.69776 48.4737 7.69776C47.8568 7.72142 47.2635 7.81605 46.694 7.93435C44.5583 8.38387 41.5209 9.63781 40.453 13.0684C40.3344 13.3523 40.2395 13.6835 40.192 14.0148V25.0399H43.6803V16.357C43.6803 14.9138 44.0363 13.4943 45.0566 12.4769M72.9867 25.0872H76.475V14.6772C76.475 12.7608 75.7869 11.1283 74.4343 9.75611C73.0817 8.40753 71.4443 7.72142 69.4984 7.72142C67.5526 7.72142 65.939 8.40753 64.5626 9.75611C64.4677 9.8744 64.3491 9.96904 64.2779 10.0637C64.1829 9.96904 64.088 9.85074 63.9694 9.75611C62.6168 8.40753 60.9557 7.72142 59.0336 7.72142C57.7521 7.72142 56.5894 8.02899 55.5453 8.62047V7.72142H52.057V25.0872H55.5453V14.6772C55.5453 13.7072 55.8775 12.9028 56.5656 12.2167C57.2301 11.5305 58.0606 11.1993 59.0336 11.1993C60.0065 11.1993 60.8133 11.5305 61.5015 12.2167C62.1896 12.9028 62.5219 13.7072 62.5219 14.6772V25.0872H66.0101V14.6772C66.0101 13.7072 66.3424 12.9028 67.0305 12.2167C67.7187 11.5305 68.5255 11.1993 69.4984 11.1993C70.4714 11.1993 71.2782 11.5305 71.9664 12.2167C72.6545 12.9028 72.9867 13.7072 72.9867 14.6772V25.0872ZM92.8487 16.4043C92.8487 17.8475 92.3266 19.0542 91.3062 20.0952C90.2858 21.1125 89.0519 21.633 87.6044 21.633C86.1568 21.633 84.9466 21.1125 83.9025 20.0952C82.8821 19.0778 82.3601 17.8475 82.3601 16.4043C82.3601 14.9611 82.8821 13.7545 83.9025 12.7135C84.9229 11.6962 86.1568 11.1757 87.6044 11.1757C89.0519 11.1757 90.2858 11.6962 91.3062 12.7135C92.3266 13.7308 92.8487 14.9611 92.8487 16.4043ZM92.8487 25.0872H96.337V7.72142H92.8487V9.44854C91.3537 8.3129 89.5977 7.72142 87.6281 7.72142C85.2314 7.72142 83.1669 8.57315 81.482 10.2766C79.7735 11.9801 78.9192 14.0148 78.9192 16.4043C78.9192 18.7939 79.7735 20.8523 81.482 22.5557C83.1906 24.2592 85.2314 25.1109 87.6281 25.1109C89.6214 25.1109 91.3537 24.5431 92.8487 23.3838V25.1109V25.0872ZM108.226 11.1757V7.69776C108.226 7.69776 108.06 7.69776 107.798 7.69776C107.182 7.72142 106.588 7.81605 106.019 7.93435C103.883 8.38387 100.846 9.63781 99.7778 13.0684C99.6591 13.3523 99.588 13.6835 99.5168 14.0148V25.0399H103.005V16.357C103.005 14.9138 103.337 13.4943 104.358 12.4769C105.378 11.4596 106.778 11.1283 108.226 11.1283" fill="#E03488"/>
</g>
</svg>
