<svg width="104" height="30" viewBox="0 0 104 30" fill="none" xmlns="http://www.w3.org/2000/svg">
<g clip-path="url(#clip0_1520_2515)">
<mask id="mask0_1520_2515" style="mask-type:luminance" maskUnits="userSpaceOnUse" x="0" y="0" width="104" height="30">
<path d="M103.645 0.328125H0.226562V29.5278H103.645V0.328125Z" fill="white"/>
</mask>
<g mask="url(#mask0_1520_2515)">
<path d="M23.2329 26.4952C22.109 26.2831 21.176 25.4773 20.7307 23.5901C20.2642 21.724 20.5186 19.5823 20.8155 17.801C20.8155 17.801 21.0912 16.253 21.7485 14.5142C22.0242 13.7932 22.4695 12.8814 22.3635 12.4149C22.1726 11.4606 20.5186 11.2486 19.7764 11.397C19.2039 11.5243 18.2921 12.4149 17.8468 13.0298C17.253 13.8568 16.7653 14.6626 16.3624 15.5108L15.9595 16.3378C15.9595 16.3378 14.8356 18.5644 14.6024 20.7698C14.5812 21.0242 14.5599 21.2363 14.6024 21.4483C9.08899 27.1101 4.06334 29.6336 2.43054 27.7675C0.479652 25.5621 4.89035 16.4015 4.89035 16.4015C8.41042 8.8736 13.012 5.35352 13.012 5.35352C13.5845 4.90821 13.7754 4.42049 13.7754 3.78433C13.7754 2.68166 12.8847 1.79104 11.7821 1.79104C11.2519 1.79104 10.7854 1.98188 10.4249 2.32117C10.4249 2.32117 10.128 2.51202 9.70394 3.10576C9.70394 3.10576 5.61133 8.68275 2.74862 15.9349C2.74862 15.9349 -1.36521 25.2441 1.03099 28.3188C4.16937 32.3478 11.9305 25.2441 14.8356 22.3389C15.2173 23.1447 16.0231 23.1659 16.0231 23.1659C16.0231 23.1659 17.0834 23.378 18.0376 22.657C18.0376 22.657 18.0588 24.1414 19.0131 25.8378C20.1157 27.7887 23.4874 27.8735 23.8479 27.1101C23.8479 27.1101 24.0599 26.6436 23.2753 26.474M18.2073 17.1224C18.1224 17.5678 17.974 18.0979 17.8044 18.734C17.4863 19.9003 16.5744 21.724 16.2776 21.6816C16.0231 21.6392 16.6169 19.3914 16.6169 19.3914C16.6169 19.3914 16.8289 18.522 17.147 17.7798C17.8044 16.2106 18.1648 15.9349 18.2709 15.9774C18.3769 15.9986 18.3133 16.5499 18.2073 17.1437M66.4492 14.5142C67.0642 12.5633 68.4849 10.4852 68.4849 10.4852C68.4849 10.4852 69.2483 9.14927 68.2941 8.55552C66.8521 7.6649 64.4983 10.9941 64.4983 10.9941C64.4983 10.9941 63.226 12.7542 59.8968 16.868C56.5676 20.9818 57.543 17.8434 57.9459 16.8256C58.37 15.7865 59.1334 14.0689 59.1334 14.0689C59.5999 12.945 58.7941 12.5421 58.7941 12.5421C57.3946 11.6727 55.9526 14.2385 55.2953 15.1504C54.6379 16.0622 53.514 17.6526 53.514 17.6526C51.9024 19.8579 49.9303 22.3177 48.8701 21.7664C48.0007 21.3211 48.5944 19.0521 48.5944 19.0521C48.7004 18.5644 48.8064 18.0979 48.9337 17.6738C49.2306 17.5678 49.5486 17.4617 49.8879 17.3557C53.5988 16.0622 54.8712 13.7084 55.2953 12.2876C55.7194 10.8669 55.8466 9.57337 54.7439 8.83119C53.2808 7.87695 50.9694 9.2977 49.1457 11.7787C49.1457 11.7787 47.5341 13.8992 46.6011 17.0376C44.735 17.5253 44.523 17.5466 43.6536 17.7374C43.1022 17.8646 41.5755 18.2039 40.5152 18.4372C40.1123 17.4617 39.5185 16.4651 38.8188 15.4472C38.8188 15.4472 37.8009 14.0265 36.3378 11.9696C34.8534 9.91265 34.6413 7.64369 36.4862 5.79883C37.1224 5.18388 38.013 4.50531 39.0944 3.95397C39.9426 3.52987 40.0911 3.42384 41.0453 3.14817C41.9784 2.87251 42.975 3.08456 42.975 3.08456C43.4203 3.16938 43.4415 3.27541 43.7596 3.29661C44.4382 3.36023 44.9895 2.74527 44.9895 2.06671C44.9895 1.70622 44.8411 1.36693 44.5866 1.15488C44.5866 1.15488 43.5051 -0.138642 40.4516 0.561132C39.4973 0.773185 34.4293 2.51202 32.6268 6.68945C31.2061 9.99748 32.8601 11.5879 35.0442 14.6626C36.1257 16.1894 37.4404 17.9495 37.4404 17.9495C37.6949 18.3099 37.9069 18.6492 38.0766 18.9885C33.263 20.1124 29.9126 21.618 29.2976 23.3144C28.4282 25.7318 31.0152 27.0889 31.0152 27.0889C31.0152 27.0889 33.6659 28.5733 36.9527 27.3222C36.9527 27.3222 40.2819 26.2407 40.9393 23.993C41.3634 22.551 41.3634 21.2151 41.0453 19.8791C41.8511 19.6671 42.9538 19.3914 43.8232 19.1794C44.6926 18.9673 45.6257 18.7128 46.2618 18.5432C46.1982 18.8401 46.1558 19.1581 46.1134 19.4762C45.6469 23.0175 47.8522 23.5476 47.8522 23.5476C47.8522 23.5476 50.2484 24.3534 52.1145 22.2753C53.8533 20.3669 55.5497 18.1191 55.5497 18.1191C55.5497 18.1191 54.1926 22.0209 55.9314 21.9572C58.0944 21.8936 60.7874 18.7128 60.7874 18.7128L63.5229 15.3836C63.5229 15.3836 63.3321 16.4227 63.4381 17.8646C63.4381 17.8646 63.5865 20.8546 64.3711 22.0421C65.1769 23.2296 66.4068 22.8267 66.4068 22.8267C66.4068 22.8267 67.5307 22.3177 66.8309 21.1302C65.7919 19.4338 65.8767 16.4863 66.4916 14.5142M52.7718 11.4394C52.7718 11.4394 53.1747 11.291 53.1959 11.8211C53.1959 13.0722 51.8388 14.5566 51.8388 14.5566C51.2239 15.1504 50.3756 15.6593 49.4426 16.0834C50.927 11.9059 52.793 11.4394 52.793 11.4394M31.5878 25.7954C30.888 25.3501 30.061 23.4416 33.2842 22.0845C34.7474 21.4695 36.7407 20.897 38.6491 20.4305C40.0911 25.4561 33.4326 26.9829 31.609 25.7954M81.1445 16.2954C81.1657 16.6771 80.9748 17.1649 80.6144 17.3345C80.4659 17.3981 80.3175 17.4617 80.1478 17.4829C77.9001 17.7162 76.5429 18.0767 76.5429 18.0767C74.6769 18.522 73.3622 18.9461 72.005 19.3914C67.4035 20.8758 67.149 19.2642 67.149 19.2642C66.9794 18.5856 67.1702 18.0767 68.2305 17.2921C68.2305 17.2921 70.7115 15.426 73.5742 13.4115C75.7371 11.8847 76.4157 11.4394 77.1791 10.8457C78.8119 9.55216 79.0452 8.8948 79.0452 8.8948C76.7974 9.12806 72.7896 10.358 72.7896 10.358C71.8778 10.6548 71.3689 10.4216 71.0932 10.0611C70.7327 9.57337 70.9023 8.91601 71.5809 8.66154C75.7584 7.09235 79.5541 6.56222 79.5541 6.56222C80.5931 6.43499 81.6322 6.71066 81.9503 7.49525C82.2896 8.32226 81.7806 9.25529 80.9748 10.1459C80.169 11.0365 78.1757 12.3725 75.5251 14.1749C75.5251 14.1749 73.553 15.5745 71.4749 17.2285C71.4749 17.2285 73.2985 16.7832 75.9704 16.2742C78.2818 15.8289 80.1902 15.7229 80.1902 15.7229C80.678 15.7229 81.0809 15.7441 81.1233 16.3378M102.435 20.9818C102.435 20.9818 98.8933 20.1124 96.3487 18.1615C93.9949 16.3591 93.9949 14.3446 93.9949 14.0477C93.9949 14.0477 93.9949 12.0968 97.727 8.59793C97.727 8.59793 98.0875 8.30105 98.554 7.81333C98.8933 7.45284 98.6388 6.98633 98.6388 6.98633C97.621 5.14147 95.0551 5.6504 95.0551 5.6504C94.631 5.71401 91.3654 6.35017 87.6969 9.21288C87.6969 9.21288 84.7918 11.4394 83.1802 13.4327C83.1802 13.4327 81.4202 15.3412 82.2896 16.1894C83.2438 17.1224 85.9369 15.9349 87.6757 15.0019C89.4145 14.0901 91.4502 12.7966 91.4502 12.7966C91.4502 12.7966 90.1143 16.5075 95.0339 20.1548C96.9 21.5543 100.229 22.4238 100.229 22.4238C100.229 22.4238 103.219 23.272 103.601 22.2117C103.898 21.3635 102.413 20.9606 102.413 20.9606M90.4324 11.1001C87.7605 13.1146 85.9157 13.7508 85.7884 13.5812C85.64 13.3691 87.3152 11.6939 89.669 10.0187C92.7862 7.81333 94.1645 7.34682 94.2917 7.49525C94.3978 7.64369 92.7438 9.34011 90.4324 11.0789" fill="#E20A7D"/>
</g>
</g>
<defs>
<clipPath id="clip0_1520_2515">
<rect width="103.418" height="29.1997" fill="white" transform="translate(0.226562 0.328125)"/>
</clipPath>
</defs>
</svg>
