<svg width="60" height="28" viewBox="0 0 60 28" fill="none" xmlns="http://www.w3.org/2000/svg">
<g clip-path="url(#clip0_1520_2522)">
<mask id="mask0_1520_2522" style="mask-type:luminance" maskUnits="userSpaceOnUse" x="0" y="0" width="60" height="28">
<path d="M59.58 0.5H0.644531V27.3569H59.58V0.5Z" fill="white"/>
</mask>
<g mask="url(#mask0_1520_2522)">
<path d="M7.08002 25.7199C4.51147 25.7199 2.42276 23.8005 2.42276 21.4578C2.42276 19.115 4.51147 17.1675 7.08002 17.1675C9.64856 17.1675 11.7373 19.0868 11.7373 21.4578C11.7373 23.8288 9.64856 25.7199 7.08002 25.7199ZM7.08002 15.5586C3.53768 15.5586 0.644531 18.2118 0.644531 21.4578C0.644531 24.7038 3.53768 27.357 7.08002 27.357C10.6224 27.357 13.5155 24.7038 13.5155 21.4578C13.4873 18.1836 10.6082 15.5586 7.08002 15.5586Z" fill="#78CCD6"/>
<path d="M23.7344 19.7218C23.1557 20.3428 21.815 20.7803 20.3755 20.7944H20.2626C18.2303 20.7944 16.5932 20.0464 16.5791 19.0726C16.5932 18.7904 16.7061 18.5364 16.9178 18.2964C17.4965 17.6755 18.809 17.238 20.2767 17.238H20.3896C22.4219 17.238 24.0307 18.0001 24.059 18.9597C24.059 19.2138 23.9461 19.4537 23.7344 19.7077M24.0449 23.871C24.0872 24.1109 23.9743 24.3509 23.7485 24.6049C23.1699 25.2259 21.8291 25.6634 20.3896 25.6775H20.2767C18.2445 25.6775 16.6074 24.9295 16.5932 23.9557C16.5932 23.7017 16.7061 23.4618 16.9178 23.2077C17.4965 22.5868 18.809 22.1493 20.2767 22.1493H20.3896C22.4078 22.1493 24.0307 22.8972 24.0449 23.871ZM25.5691 18.9174C25.5267 17.0263 23.3957 15.6855 20.4037 15.6855H20.2767C18.8936 15.7138 17.6658 16.0243 16.7485 16.5464C16.6215 16.1795 16.2969 15.8972 15.8876 15.8972C15.3936 15.8972 14.9844 16.3065 14.9844 16.8287V26.2843C14.9844 26.7783 15.3654 27.2158 15.8876 27.2158C16.3251 27.2158 16.7061 26.8771 16.7767 26.4396C17.6799 26.9335 18.8936 27.244 20.2908 27.244H20.4178C22.309 27.2158 23.9743 26.6372 24.8493 25.6916C25.4703 25.0001 25.5973 24.3085 25.5832 23.8428C25.5549 22.8549 24.9763 22.0081 24.0166 21.4577C24.3553 21.2601 24.6235 21.0484 24.8493 20.7944C25.4703 20.1029 25.5973 19.4114 25.5832 18.9456" fill="#78CCD6"/>
<path d="M41.5999 13.8512C41.5717 13.2867 41.1483 12.8633 40.6261 12.8633C40.104 12.8633 39.6523 13.3008 39.6523 13.8512C39.6523 14.4016 40.0616 14.8391 40.6261 14.8391C41.1483 14.8391 41.5999 14.4016 41.5999 13.8512Z" fill="#78CCD6"/>
<path d="M58.4931 15.9258C57.9991 15.9258 57.5898 16.3351 57.5898 16.8572V26.2988C57.5898 26.7927 57.985 27.2302 58.4931 27.2302C59.0011 27.2302 59.3963 26.8209 59.3963 26.2988V16.8572C59.3963 16.3351 58.987 15.9258 58.4931 15.9258Z" fill="#78CCD6"/>
<path d="M54.0078 19.7218C53.4292 20.3428 52.0885 20.7803 50.6489 20.7944H50.5643C48.532 20.7944 46.8949 20.0464 46.8808 19.0726C46.8808 18.7904 46.9937 18.5364 47.2054 18.2964C47.784 17.6755 49.0965 17.238 50.5643 17.238H50.6772C52.7094 17.238 54.3183 18.0001 54.3465 18.9597C54.3465 19.2138 54.2336 19.4537 54.0219 19.7077M54.3324 23.871C54.3606 24.1109 54.2195 24.3509 54.036 24.6049C53.4574 25.2259 52.1167 25.6634 50.6772 25.6775H50.5643C48.532 25.6775 46.8949 24.9295 46.8808 23.9557C46.8808 23.7017 46.9937 23.4618 47.2054 23.2077C47.784 22.5868 49.0965 22.1493 50.5643 22.1493H50.6772C52.7094 22.1493 54.3183 22.8972 54.3465 23.871M55.8425 18.9174C55.8002 17.0263 53.6691 15.6855 50.6772 15.6855H50.5502C49.1671 15.7138 47.9393 16.0243 47.0219 16.5464C46.8949 16.1795 46.5703 15.8972 46.161 15.8972C45.6671 15.8972 45.2578 16.3065 45.2578 16.8287V26.2843C45.2578 26.7783 45.6389 27.2158 46.161 27.2158C46.5985 27.2158 46.9796 26.8771 47.0502 26.4396C47.9534 26.9335 49.1671 27.244 50.5643 27.244H50.6913C52.5683 27.2158 54.2477 26.6372 55.1368 25.6916C55.7578 25.0001 55.8848 24.3085 55.8707 23.8428C55.8425 22.8549 55.2639 22.0081 54.3042 21.4577C54.6429 21.2601 54.911 21.0484 55.151 20.7944C55.7719 20.1029 55.8989 19.4114 55.8848 18.9456" fill="#78CCD6"/>
<path d="M58.466 12.8633C57.9438 12.8633 57.4922 13.3008 57.4922 13.8512C57.4922 14.4016 57.9015 14.8391 58.466 14.8391C58.9882 14.8391 59.4115 14.4016 59.4115 13.8512C59.4115 13.3008 58.974 12.8633 58.466 12.8633Z" fill="#78CCD6"/>
<path d="M43.7316 12.8633C43.2094 12.8633 42.7578 13.3008 42.7578 13.8512C42.7578 14.4016 43.1671 14.8391 43.7316 14.8391C44.2538 14.8391 44.7054 14.4016 44.7054 13.8512C44.7054 13.3008 44.282 12.8633 43.7316 12.8633Z" fill="#78CCD6"/>
<path d="M42.1767 15.9258C41.6827 15.9258 41.2734 16.3351 41.2734 16.8572V26.2988C41.2734 26.7927 41.6545 27.2302 42.1767 27.2302C42.6988 27.2302 43.0799 26.8209 43.0799 26.2988V16.8572C43.0658 16.3351 42.6706 15.9258 42.1767 15.9258Z" fill="#78CCD6"/>
<path d="M32.9224 25.5793C30.4667 25.5793 28.4486 23.7446 28.4486 21.4584C28.4486 19.1721 30.4526 17.3515 32.9224 17.3515C35.3921 17.3515 37.4103 19.1862 37.4103 21.4584C37.4103 23.7305 35.4062 25.5793 32.9224 25.5793ZM38.1583 15.8979C37.6643 15.8979 37.255 16.3071 37.255 16.8293V17.3233C36.1401 16.3354 34.6018 15.7285 32.9224 15.7285C29.4788 15.7285 26.6562 18.2971 26.6562 21.4725C26.6562 24.6479 29.4788 27.2305 32.9224 27.2305C34.6018 27.2305 36.1119 26.6237 37.255 25.6358V26.2991C37.255 26.793 37.6361 27.2305 38.1583 27.2305C38.6804 27.2305 39.0615 26.8213 39.0615 26.2991V16.8434C39.0474 16.2789 38.624 15.8979 38.1583 15.8979Z" fill="#78CCD6"/>
<path d="M22.5483 10.901L17.3971 7.45747L22.4354 4.79013C22.8164 4.55021 22.9575 4.05626 22.7176 3.67521C22.5624 3.42118 22.3083 3.26594 22.0261 3.26594C21.8708 3.26594 21.7438 3.30828 21.6168 3.37884L15.6471 6.58247V3.91513C15.6471 3.46352 15.2801 3.06836 14.8567 3.06836C14.4333 3.06836 14.0664 3.43529 14.0664 3.91513V11.6208C14.0664 12.0724 14.4333 12.4534 14.8567 12.4534C15.2801 12.4534 15.6471 12.0865 15.6471 11.6208V9.32037C15.6471 9.024 15.9011 8.75586 16.1833 8.75586C16.2539 8.75586 16.3386 8.78408 16.395 8.82642L21.7015 12.3546C21.8285 12.4252 21.9555 12.4676 22.1108 12.4676C22.393 12.4676 22.6753 12.2982 22.8023 12.0583C22.9152 11.8607 22.9575 11.649 22.8729 11.4373C22.8587 11.1974 22.7176 11.0563 22.5483 10.9151" fill="#1A4788"/>
<path d="M9.84652 9.57504C9.84652 10.2807 9.28201 10.8452 8.6187 10.8452H3.59451C2.90297 10.8452 2.36668 10.2807 2.36668 9.57504V6.01859C2.36668 5.31294 2.9312 4.74842 3.59451 4.74842H8.6187C9.31023 4.74842 9.84652 5.31294 9.84652 6.01859V9.57504ZM8.81628 3.11133H3.38281C1.9433 3.11133 0.757812 4.31092 0.757812 5.82101V9.75851C0.757812 11.2404 1.9433 12.4682 3.38281 12.4682H8.81628C10.2558 12.4682 11.4413 11.2545 11.4413 9.75851V5.82101C11.4413 4.31092 10.284 3.11133 8.81628 3.11133Z" fill="#1A4788"/>
<path d="M45.7784 6.10282C45.7784 5.43952 46.3005 4.90323 46.9638 4.90323H53.1029V7.58468L54.7259 7.89516V1.31855C54.7118 0.866935 54.3449 0.5 53.9215 0.5C53.4981 0.5 53.1312 0.866935 53.1312 1.34677V3.26613H46.7804C45.3691 3.26613 44.2259 4.4375 44.1836 5.83468L45.7925 6.14516V6.10282H45.7784Z" fill="#1A4788"/>
<path d="M53.1014 7.58594V9.6182C53.1014 10.2674 52.5651 10.8319 51.916 10.8319H46.9623C46.3131 10.8319 45.7768 10.2956 45.7768 9.6182V6.14642L44.168 5.83594C44.168 5.83594 44.168 5.89239 44.168 5.92061V9.80166C44.168 11.2694 45.3252 12.469 46.7789 12.469H52.1418C53.5813 12.469 54.7244 11.2694 54.7244 9.80166V7.91053L53.1155 7.60005L53.1014 7.58594Z" fill="#1A4788"/>
<path d="M33.4986 3.25195H31.043L35.3897 4.09873C34.9099 3.57655 34.2466 3.25195 33.4986 3.25195Z" fill="#1A4788"/>
<path d="M34.4747 9.61687C34.4747 10.2802 33.9525 10.8165 33.2892 10.8165H28.2932C27.644 10.8165 27.1924 10.3366 27.1924 9.70155V9.44752C27.1924 8.78421 27.644 8.3326 28.2932 8.3326H34.4747V9.63098V9.61687ZM31.0452 3.25195H27.4747C27.1924 3.25195 26.9525 3.4072 26.8114 3.64711C26.7408 3.77413 26.6844 3.92937 26.6844 4.08461C26.6844 4.53623 27.0513 4.90316 27.4888 4.90316H33.3033C33.9525 4.90316 34.4888 5.43945 34.4888 6.10276V6.66728H28.1803C27.8981 6.66728 27.6017 6.73784 27.3194 6.82252C26.2468 7.20357 25.5977 8.16324 25.5977 9.26405V9.88502C25.5977 11.3245 26.7408 12.4677 28.2085 12.4677H33.5432C34.9827 12.4677 36.1541 11.254 36.1541 9.80034V5.91929C36.14 5.22776 35.8577 4.59268 35.4202 4.12695L31.0735 3.28018L31.0452 3.25195Z" fill="#1A4788"/>
<path d="M38.6076 2.17944C39.0592 2.17944 39.4262 1.79839 39.4262 1.34677C39.4262 0.895161 39.0592 0.5 38.6076 0.5C38.156 0.5 37.7891 0.895161 37.7891 1.34677C37.7891 1.79839 38.156 2.17944 38.6076 2.17944Z" fill="#1A4788"/>
<path d="M41.2756 2.17944C41.7272 2.17944 42.0941 1.79839 42.0941 1.34677C42.0659 0.866935 41.7272 0.5 41.2756 0.5C40.824 0.5 40.457 0.895161 40.457 1.34677C40.457 1.79839 40.824 2.17944 41.2756 2.17944Z" fill="#1A4788"/>
<path d="M40.7543 3.90102C40.7261 3.44941 40.3591 3.06836 39.9357 3.06836C39.4841 3.06836 39.1172 3.44941 39.1172 3.90102V4.83247L40.7543 5.15707V3.90102Z" fill="#1A4788"/>
<path d="M39.1172 4.84614V11.6627C39.1172 12.1143 39.4841 12.5095 39.9357 12.5095C40.3873 12.5095 40.7543 12.1284 40.7543 11.6627V5.15663L39.1172 4.83203V4.84614Z" fill="#1A4788"/>
<path d="M58.76 2.17944C59.2116 2.17944 59.5785 1.79839 59.5785 1.34677C59.5785 0.895161 59.2257 0.5 58.76 0.5C58.2942 0.5 57.9414 0.895161 57.9414 1.34677C57.9414 1.79839 58.2801 2.17944 58.76 2.17944Z" fill="#1A4788"/>
<path d="M59.5785 3.90102C59.5503 3.44941 59.1833 3.06836 58.76 3.06836C58.3083 3.06836 57.9414 3.44941 57.9414 3.90102V8.53005L59.5785 8.85465V3.90102Z" fill="#1A4788"/>
<path d="M57.9414 8.53125V11.6643C57.9414 12.1159 58.3083 12.5111 58.76 12.5111C59.2116 12.5111 59.5785 12.13 59.5785 11.6643V8.85585L57.9414 8.53125Z" fill="#1A4788"/>
</g>
</g>
<defs>
<clipPath id="clip0_1520_2522">
<rect width="58.9355" height="26.8569" fill="white" transform="translate(0.644531 0.498047)"/>
</clipPath>
</defs>
</svg>
