<svg width="126" height="20" viewBox="0 0 126 20" fill="none" xmlns="http://www.w3.org/2000/svg">
<mask id="mask0_1520_2560" style="mask-type:luminance" maskUnits="userSpaceOnUse" x="0" y="0" width="126" height="20">
<path d="M125.645 0.140625H0.257812V19.7131H125.645V0.140625Z" fill="white"/>
</mask>
<g mask="url(#mask0_1520_2560)">
<path d="M125.645 11.337C125.645 9.21648 123.821 7.18077 121.531 7.18077H121.51C120.131 7.18077 118.668 7.94416 117.523 9.15286C116.42 10.3404 115.699 12.0368 115.699 13.924C115.699 16.9988 117.65 19.6919 121.022 19.6919C121.934 19.6919 123.842 19.183 125.517 16.9988L125.114 16.4051C124.139 17.2957 123.1 17.741 122.018 17.741C120.11 17.741 118.095 16.2142 118.032 12.6729C121.17 12.5669 124.542 12.2912 125.008 12.2064C125.517 12.1216 125.666 11.8883 125.666 11.3158M123.142 10.9341C123.142 11.337 122.973 11.4642 122.527 11.4642C121.043 11.5279 119.601 11.5491 118.159 11.5491C118.541 9.38612 119.686 8.21983 120.873 8.21983C122.315 8.21983 123.185 9.51335 123.164 10.9341M109.338 9.87384C109.338 8.83479 110.037 8.0926 111.055 8.0926C112.391 8.0926 113.303 9.17407 113.854 10.8069L114.575 10.616C114.491 9.95866 114.194 8.28345 113.982 7.6897C113.409 7.45644 112.688 7.20198 111.522 7.20198C108.977 7.20198 107.323 8.83478 107.323 10.7857C107.323 12.9062 109.168 13.8392 110.737 14.5814C112.179 15.2388 112.879 15.8749 112.879 16.9988C112.879 18.1227 112.01 18.8437 111.013 18.8437C109.38 18.8437 108.171 17.2109 107.662 15.4296L106.92 15.5357C106.92 16.5959 107.196 18.462 107.387 18.8437C107.853 19.2254 109.147 19.7343 110.525 19.7343C112.752 19.7343 115.084 18.4832 115.084 15.9598C115.084 14.0301 113.706 13.0546 111.607 12.1852C110.356 11.6763 109.359 11.0189 109.359 9.87384M106.199 13.2667C106.199 9.93746 103.697 7.18077 100.304 7.18077C97.696 7.18077 94.2396 9.23769 94.2396 13.712C94.2396 16.7231 96.4237 19.7131 100.262 19.7131C103.019 19.7131 106.199 17.635 106.199 13.2667ZM103.443 13.8816C103.443 17.6562 102.107 18.7801 100.58 18.7801C98.417 18.7801 97.0174 16.2354 97.0174 12.8214C97.0174 9.72541 98.3958 8.11381 99.9438 8.11381C102.213 8.11381 103.443 10.616 103.443 13.8816ZM91.7797 14.7511C90.9739 13.5211 89.8501 11.7187 89.4048 10.8705C91.3769 10.0011 92.84 8.60153 92.84 6.22654C92.84 4.59373 92.0978 3.38503 91.0164 2.66405C89.9773 1.98548 88.6626 1.75223 86.6057 1.75223H79.7352V2.53682C81.8133 2.70646 82.0465 2.83369 82.0465 5.10266V15.9173C82.0465 18.2287 81.8133 18.4196 79.6291 18.568V19.3526H86.9237V18.568C84.782 18.3984 84.5275 18.2075 84.5275 15.9173V11.6551H85.3121C86.6481 11.6551 87.0722 11.9732 87.5599 12.779C88.3445 14.0937 89.2775 15.7477 90.1894 17.0624C91.3768 18.8013 92.5007 19.4162 94.7909 19.5646C95.0878 19.5859 95.4058 19.5859 95.7027 19.5859L95.8088 18.8649C95.215 18.674 94.6213 18.3772 93.9003 17.6138C93.2429 16.914 92.7128 16.2142 91.7373 14.7511M88.6414 10.0435C87.9628 10.5948 87.0722 10.8069 85.7363 10.8069H84.5488V4.10601C84.5488 3.40624 84.6336 3.10936 84.8244 2.93972C85.0365 2.77008 85.503 2.66405 86.2664 2.66405C88.2173 2.66405 90.0833 3.74552 90.0833 6.67185C90.0833 8.13501 89.638 9.21648 88.6414 10.0435ZM70.2776 19.395H76.0242V18.674C74.4975 18.4832 74.349 18.3984 74.349 16.5959V11.3794C74.349 8.74996 73.0131 7.20198 70.8502 7.20198C70.0656 7.20198 69.387 7.49885 68.6236 8.00778C67.945 8.43188 67.3725 8.8772 66.8424 9.25889V7.11716C65.57 7.64729 64.2129 7.98657 62.8558 8.21983V8.8772C64.2977 9.15286 64.4462 9.23769 64.4462 10.9765V16.5535C64.4462 18.3347 64.3189 18.4832 62.4953 18.674V19.395H68.4964V18.674C67.012 18.5044 66.8424 18.3984 66.8424 16.5959V10.1919C67.6269 9.51335 68.6024 8.91961 69.6414 8.91961C71.2743 8.91961 71.974 10.0435 71.974 11.9095V16.4475C71.974 18.3347 71.8044 18.5256 70.2988 18.6952V19.4162L70.2776 19.395ZM62.4317 11.337C62.4317 9.21648 60.608 7.18077 58.3178 7.18077H58.2966C56.9183 7.18077 55.4551 7.94416 54.31 9.15286C53.2074 10.3404 52.4864 12.0368 52.4864 13.924C52.4864 16.9988 54.4373 19.6919 57.8089 19.6919C58.7419 19.6919 60.6292 19.183 62.3044 16.9988L61.9015 16.4051C60.9261 17.2957 59.887 17.741 58.8056 17.741C56.8971 17.741 54.8826 16.2142 54.819 12.6729C57.9573 12.5669 61.329 12.2912 61.7955 12.2064C62.3044 12.1216 62.4529 11.8883 62.4529 11.3158M59.9506 10.9341C59.9506 11.337 59.781 11.4642 59.3357 11.4642C57.8513 11.5279 56.4094 11.5491 54.9674 11.5491C55.3491 9.38612 56.4942 8.21983 57.6817 8.21983C59.1236 8.21983 59.993 9.51335 59.9506 10.9341ZM48.3938 11.337C48.3938 9.21648 46.5701 7.18077 44.2799 7.18077H44.2587C42.8804 7.18077 41.4172 7.94416 40.2722 9.15286C39.1695 10.3404 38.4485 12.0368 38.4485 13.924C38.4485 16.9988 40.3994 19.6919 43.771 19.6919C44.6828 19.6919 46.5913 19.183 48.2665 16.9988L47.8636 16.4051C46.8882 17.2957 45.8491 17.741 44.7677 17.741C42.8592 17.741 40.8447 16.2142 40.7811 12.6729C43.9195 12.5669 47.2911 12.2912 47.7576 12.2064C48.2665 12.1216 48.415 11.8883 48.415 11.3158M45.8915 10.9341C45.8915 11.337 45.7219 11.4642 45.2766 11.4642C43.7922 11.5279 42.3503 11.5491 40.9083 11.5491C41.29 9.38612 42.4351 8.21983 43.6226 8.21983C45.0645 8.21983 45.934 9.51335 45.8915 10.9341ZM32.2566 19.395H38.4061V18.674C36.6673 18.5044 36.4976 18.3559 36.4976 16.5111V7.15957C35.2465 7.64729 34.2923 7.96537 32.8715 8.21983L32.4474 8.8772C33.9954 9.11045 34.1014 9.25889 34.1014 10.9341V16.4899C34.1014 18.3559 34.3347 18.5044 32.6383 18.6528L32.2142 19.3738L32.2566 19.395ZM35.0132 2.55803V1.77343H28.8637V2.55803C31.0691 2.83369 31.1963 3.06695 30.645 4.69976C29.7968 7.32921 27.9307 12.2276 26.5311 15.7265H26.4675C24.7923 11.443 22.7778 6.16292 22.078 4.16963C21.6539 3.00334 21.7175 2.77008 23.6472 2.53682V1.75223H16.7555V2.53682C18.3883 2.70646 18.8124 2.93972 19.597 4.97543C21.0814 8.70755 23.3716 14.7086 25.174 19.6707H26.1282C28.1852 14.0513 30.9842 7.30801 31.7476 5.46315C32.7867 3.00334 33.1472 2.74887 34.992 2.53682M17.1796 17.5714C16.9039 17.741 16.5435 17.847 16.2254 17.847C15.7377 17.847 15.2711 17.4653 15.2711 16.2566V11.3158C15.2711 9.87384 14.9955 8.72876 14.02 7.92296C13.4051 7.43524 12.5781 7.18077 11.7087 7.18077C10.1819 7.49885 8.37943 8.51671 7.59484 9.06804C7.02229 9.47094 6.70421 9.81023 6.70421 10.2131C6.70421 10.8705 7.4464 11.4006 7.97653 11.4006C8.42184 11.4006 8.71871 11.2098 8.84595 10.7221C9.058 9.87384 9.31246 9.2801 9.63054 8.8984C9.90621 8.58032 10.3091 8.38947 10.7968 8.38947C12.0904 8.38947 12.9598 9.47094 12.9598 11.4006V11.9095C12.3448 12.4185 10.3515 13.1395 8.71871 13.6908C7.25555 14.1997 6.55578 15.0267 6.55578 16.3414C6.55578 18.0167 7.91291 19.6707 9.885 19.6707C10.6484 19.6707 11.9419 18.6952 13.0022 17.9743C13.1294 18.4196 13.3203 18.7801 13.6807 19.1405C13.9776 19.4374 14.5502 19.6707 15.0167 19.6707L17.4341 18.2711L17.1584 17.5289L17.1796 17.5714ZM12.981 17.1473C12.4933 17.6138 11.645 18.0167 11.0089 18.0167C10.2031 18.0167 9.14282 17.3593 9.14282 15.9598C9.14282 14.9631 9.71536 14.4754 10.712 13.9877C11.2846 13.712 12.4296 13.2031 12.981 12.9062V17.1685V17.1473ZM0.257812 19.395H6.47096V18.674C4.75333 18.5044 4.54128 18.3559 4.54128 16.5535V0.140625C3.50222 0.501115 1.78459 0.904015 0.321428 1.05245V1.73102C1.99664 1.90066 2.16629 1.94307 2.16629 3.76673V16.5323C2.16629 18.3135 1.95423 18.462 0.279018 18.6528V19.3738L0.257812 19.395Z" fill="#1B1C1C"/>
</g>
</svg>
