<svg width="205" height="16" viewBox="0 0 205 16" fill="none" xmlns="http://www.w3.org/2000/svg">
<mask id="mask0_1520_2566" style="mask-type:luminance" maskUnits="userSpaceOnUse" x="0" y="0" width="205" height="16">
<path d="M204.479 0.398438H0.640625V15.4547H204.479V0.398438Z" fill="white"/>
</mask>
<g mask="url(#mask0_1520_2566)">
<path d="M10.6423 2.01006V4.48845C9.531 3.47644 8.38204 2.96011 7.21423 2.96011C5.91458 2.96011 4.80328 3.47644 3.91801 4.5091C3.0139 5.52111 2.56185 6.78096 2.56185 8.268C2.56185 9.75504 3.0139 10.9529 3.91801 11.9649C4.82212 12.9769 5.91458 13.4726 7.21423 13.4726C7.89231 13.4726 8.45738 13.3487 8.92827 13.1215C9.19196 12.9976 9.45566 12.8324 9.7382 12.6258C10.0207 12.4193 10.3221 12.1715 10.6235 11.8823V14.4227C9.531 15.1042 8.38204 15.4553 7.17656 15.4553C5.36835 15.4553 3.805 14.7531 2.54302 13.3694C1.28103 11.9649 0.640625 10.2714 0.640625 8.28865C0.640625 6.51247 1.16802 4.94282 2.24165 3.55905C3.56014 1.84483 5.25533 0.998047 7.34608 0.998047C8.47621 0.998047 9.58751 1.3285 10.6423 2.01006Z" fill="black"/>
</g>
<path d="M24.8445 1.26562V6.71809H19.3633V1.26562H17.4609V15.1859H19.3633V8.68015H24.8445V15.1859H26.7469V1.26562H24.8445Z" fill="black"/>
<path d="M38.6323 5.10739L40.5159 9.83699H36.6546L38.6323 5.10739ZM38.6511 0.398438L32.3789 15.1862H34.432L35.8446 11.799H41.2693L42.6066 15.1862H44.6974L38.6511 0.398438Z" fill="black"/>
<mask id="mask1_1520_2566" style="mask-type:luminance" maskUnits="userSpaceOnUse" x="0" y="0" width="205" height="16">
<path d="M204.479 0.398438H0.640625V15.4547H204.479V0.398438Z" fill="white"/>
</mask>
<g mask="url(#mask1_1520_2566)">
<path d="M52.2507 7.66814H52.8535C54.6617 7.66814 55.5658 6.90397 55.5658 5.39628C55.5658 3.9712 54.6805 3.26899 52.9288 3.26899H52.2507V7.68879V7.66814ZM54.6429 9.25844L58.5795 15.1859H56.2439L52.6275 9.48563H52.2884V15.1859H50.3672V1.26562H52.6086C54.285 1.26562 55.4905 1.61673 56.2439 2.29829C57.0726 3.06246 57.4682 4.07447 57.4682 5.33432C57.4682 6.32568 57.2045 7.17246 56.6959 7.87467C56.1874 8.57688 55.5093 9.03126 54.6617 9.23779" fill="black"/>
</g>
<path d="M64.5117 1.26562V15.1859H70.1624V13.2032H66.4329V1.26562H64.5117Z" fill="black"/>
<path d="M76 1.26562V15.1859H83.0068V13.2032H77.9212V8.55623H82.8561V6.59417H77.9212V3.24834H83.0068V1.26562H76Z" fill="black"/>
<mask id="mask2_1520_2566" style="mask-type:luminance" maskUnits="userSpaceOnUse" x="0" y="0" width="205" height="16">
<path d="M204.479 0.398438H0.640625V15.4547H204.479V0.398438Z" fill="white"/>
</mask>
<g mask="url(#mask2_1520_2566)">
<path d="M96.7393 3.33187L95.1948 4.34388C94.9123 3.78624 94.6297 3.43513 94.366 3.26991C94.1023 3.08403 93.7445 2.98076 93.3113 2.98076C92.7839 2.98076 92.3318 3.14599 91.9928 3.47644C91.6537 3.80689 91.4654 4.19931 91.4654 4.69498C91.4654 5.37654 91.9174 5.91353 92.8404 6.32659L94.1023 6.90488C95.1383 7.35926 95.8917 7.9169 96.3626 8.5778C96.8335 9.23871 97.0784 10.0442 97.0784 10.9942C97.0784 12.2747 96.6828 13.3281 95.9106 14.1748C95.1195 15.0216 94.1588 15.4347 92.991 15.4347C91.8986 15.4347 90.9756 15.0836 90.2599 14.3607C89.563 13.6379 89.1109 12.6258 88.9414 11.3453L90.8815 10.8703C90.9756 11.6758 91.1263 12.2541 91.3524 12.5639C91.7479 13.1628 92.313 13.4726 93.0852 13.4726C93.688 13.4726 94.1777 13.2454 94.5732 12.8117C94.9688 12.378 95.1571 11.8204 95.1571 11.1388C95.1571 10.8703 95.1195 10.6225 95.063 10.3953C94.9876 10.1681 94.8934 9.96157 94.7428 9.77569C94.5921 9.58981 94.4037 9.40393 94.1777 9.23871C93.9517 9.07348 93.6691 8.92891 93.3489 8.76368L92.1246 8.20604C90.3917 7.40056 89.5253 6.22333 89.5253 4.67433C89.5253 3.62101 89.8832 2.75358 90.6178 2.05136C91.3524 1.34915 92.2565 0.998047 93.3301 0.998047C94.7993 0.998047 95.9294 1.78287 96.7582 3.33187" fill="black"/>
<path d="M118.87 5.97574L119.021 5.85182C119.284 5.62463 119.51 5.43875 119.68 5.27352C119.849 5.1083 119.981 4.96373 120.056 4.86046C120.226 4.63327 120.301 4.36478 120.301 4.03433C120.301 3.66257 120.188 3.37342 119.962 3.14624C119.736 2.91905 119.435 2.79513 119.058 2.79513C118.719 2.79513 118.418 2.91905 118.192 3.14624C117.966 3.37342 117.834 3.66257 117.834 3.99302C117.834 4.40609 117.985 4.7985 118.286 5.21156L118.757 5.85182C118.757 5.85182 118.813 5.93443 118.851 5.99639M118.474 8.61936L118.361 8.70197C117.57 9.30091 117.043 9.77594 116.76 10.127C116.478 10.4782 116.346 10.8706 116.346 11.263C116.346 11.8413 116.553 12.3783 116.986 12.8533C117.42 13.3283 117.909 13.5555 118.437 13.5555C119.171 13.5555 120.019 13.0185 120.998 11.9652L118.493 8.61936H118.474ZM119.981 7.44212L122.26 10.4782L122.336 10.3955C122.58 10.1064 122.806 9.81725 123.033 9.5281C123.259 9.23895 123.466 8.94981 123.673 8.68132L124.916 10.0857C124.765 10.3336 124.558 10.6021 124.313 10.9325C124.068 11.2423 123.767 11.6141 123.428 12.0271L125.782 15.2078H123.39L122.128 13.5142C120.961 14.836 119.755 15.4969 118.512 15.4969C117.382 15.4969 116.44 15.1045 115.649 14.3197C114.877 13.5348 114.5 12.5435 114.5 11.3869C114.5 10.0031 115.103 8.84654 116.327 7.9378L117.156 7.3182C117.156 7.3182 117.175 7.29755 117.212 7.27689C117.231 7.25624 117.288 7.21493 117.325 7.17363C116.497 6.20292 116.063 5.23222 116.063 4.28217C116.063 3.33212 116.346 2.5886 116.892 1.98965C117.457 1.41136 118.192 1.10156 119.096 1.10156C120 1.10156 120.697 1.39071 121.262 1.94835C121.827 2.52664 122.128 3.22885 122.128 4.11694C122.128 4.71589 121.978 5.25287 121.658 5.74855C121.356 6.24423 120.791 6.82252 120 7.50408" fill="black"/>
</g>
<path d="M152.133 1.26562L147.199 6.82136V1.26562H145.277V15.1859H147.199V9.42367L147.594 8.98995L152.171 15.1859H154.714L148.95 7.56487L154.695 1.26562H152.133Z" fill="black"/>
<path d="M160.48 1.26562V15.1859H167.468V13.2032H162.383V8.55623H167.337V6.59417H162.383V3.24834H167.468V1.26562H160.48Z" fill="black"/>
<path d="M175.945 1.26562H174.023V15.1859H175.945V1.26562Z" fill="black"/>
<path d="M181.707 1.26562V3.24834H184.608V15.1859H186.529V3.24834H189.43V1.26562H181.707Z" fill="black"/>
<path d="M202.578 1.26562V6.71809H197.097V1.26562H195.176V15.1859H197.097V8.68015H202.578V15.1859H204.481V1.26562H202.578Z" fill="black"/>
</svg>
