<svg width="68" height="29" viewBox="0 0 68 29" fill="none" xmlns="http://www.w3.org/2000/svg">
<path d="M63.7536 27.9124L53.7747 0.722656H53.603L51.5429 6.28078L47.8303 16.4313C46.5213 15.294 44.6972 14.6287 42.3795 14.3068H41.6284L42.2936 14.221C46.0921 13.5772 48.6458 11.1951 48.6458 8.31948C48.6458 4.39231 44.9332 1.68835 39.5682 1.68835H28.5164V1.86003H31.7354V22.1611L23.9883 0.722656H23.8166L21.7565 6.28078L13.8378 27.8051H4.78166L19.9538 1.79565L20.0397 1.62397H1.47683V9.73583H1.64851C1.64851 5.80866 3.94472 1.88149 9.07365 1.88149H15.2541L-0.00390625 28.1485H20.6191V20.38H20.4474C20.4474 23.8136 18.4731 27.0969 14.1811 27.8266H14.0094L17.2284 18.9851H26.306L29.6108 27.9124H26.3918V28.0841H39.0961V27.9124H35.8771V14.3926H39.5897C43.3881 14.3926 45.5985 16.1094 45.5985 19.0709V22.4187L43.6242 27.9124H40.9846V28.0841H46.4354V27.9124H43.7958L45.5985 22.9122V22.9981L45.6843 23.4917L45.7702 23.8136C46.0921 25.702 46.7573 27.0111 47.9162 27.8266L48.0878 27.9124C48.9033 28.4918 49.9763 28.8137 51.1351 28.8137C52.7017 28.8137 53.7747 28.406 54.676 27.5047L54.5902 27.4188C53.7747 28.1485 53.1095 28.4918 52.2725 28.4918C50.7918 28.4918 50.0407 26.775 50.0407 25.0582V21.7105C50.0407 20.895 49.869 20.0795 49.6329 19.2641V19.1782H56.307L59.6118 28.1055H56.3928V28.2558H67.3589V28.1055L63.7321 27.9339L63.7536 27.9124ZM17.3143 18.8134L21.7779 6.60268L26.2201 18.8134H17.3143ZM35.8771 14.2424V1.79565H38.7742C42.5726 1.79565 44.6328 4.09187 44.6328 8.27656C44.6328 12.7831 43.4739 14.178 39.6755 14.178H35.8771V14.2639V14.2424ZM49.4827 18.8134C49.1608 18.0838 48.7316 17.4185 48.1522 16.8605L47.9805 16.6889L51.6931 6.62414L56.0709 18.749L49.4827 18.8349V18.8134Z" fill="#282421"/>
</svg>
