<svg width="129" height="19" viewBox="0 0 129 19" fill="none" xmlns="http://www.w3.org/2000/svg">
<path d="M128.129 16.0449C128.129 16.0449 128.11 16.0074 128.091 15.9887C127.81 15.9325 127.211 16.1573 126.874 16.2135C125.769 16.4008 124.963 15.5579 124.663 14.8836C124.457 14.3966 124.326 13.8722 124.214 13.2728C124.176 12.9731 124.158 12.6734 124.12 12.3737C124.008 11.7182 124.158 11.0439 123.54 10.9128C122.603 10.7255 122.809 12.2801 122.697 12.9918C122.472 14.3404 122.21 15.0896 121.086 15.5392C120.487 15.7639 119.85 15.8014 119.381 15.4268C118.576 14.79 118.614 13.535 118.614 12.1115C118.614 11.456 118.614 10.8004 118.614 10.1261C118.614 9.5642 118.501 8.45911 118.726 8.10324C119.026 7.65371 120.018 7.91593 120.543 7.67244C120.693 7.61625 120.899 7.4664 120.842 7.20418C120.674 6.45497 119.325 6.99815 118.82 6.60481C118.201 6.11782 119.007 4.20733 118.164 3.85145C117.883 3.73907 117.621 3.90765 117.508 4.05749C117.246 4.41336 117.321 5.16258 117.321 5.78068C117.321 6.02417 117.321 6.26766 117.246 6.43624C117.19 6.56735 117.059 6.67973 116.928 6.73592C116.703 6.82957 116.441 6.77338 116.16 6.81084C115.71 6.81084 115.28 6.82957 114.83 6.8483C114.549 6.8483 114.212 6.88577 113.968 6.8483C112.845 6.56735 114.156 3.83272 112.77 3.83272C112.507 3.94511 112.358 4.0013 112.264 4.26352C112.039 4.88162 112.358 5.94925 112.114 6.54862C111.852 7.16672 110.747 6.73592 110.335 7.33529C110.279 7.41021 110.204 7.56006 110.241 7.7099C110.41 8.59022 111.702 8.00958 112.039 8.57149C112.264 8.92737 112.152 9.995 112.152 10.5569C112.152 12.2988 112.114 13.535 111.459 14.6214C111.309 14.8462 111.159 15.1084 110.953 15.2582C110.784 15.3893 110.597 15.5392 110.372 15.6141C110.11 15.7265 109.698 15.7639 109.417 15.6516C108.349 15.2769 108.424 13.8722 108.218 12.636C108.106 11.9617 108.368 10.9877 107.694 10.8753C106.926 10.7442 106.87 12.1677 106.72 12.7671C106.42 14.0969 106.064 15.4081 104.716 15.689C103.891 15.8576 103.442 15.2395 103.292 14.6401C103.217 14.3404 103.255 14.0407 103.198 13.7036C103.124 13.2728 103.161 12.6922 103.236 12.2614C103.33 11.6433 103.105 10.7255 102.487 10.8379C101.962 10.9315 101.944 11.7182 101.85 12.2614C101.513 13.9471 101.681 15.9138 102.693 16.7192C102.899 16.8878 103.124 17.0376 103.386 17.1312C104.528 17.5433 105.315 16.869 105.952 16.382C106.27 16.1385 106.701 15.7639 107.319 15.9138C108.181 16.1385 108.443 16.9814 109.379 17.1687C109.866 17.2624 110.26 17.0563 110.541 16.869C111.046 16.5506 111.44 16.176 112.17 16.0636C112.545 16.0074 112.882 16.176 113.107 16.3071C113.65 16.6068 114.081 17.0001 114.793 17.1312C115.186 17.2062 115.523 17.0376 115.748 16.9065C116.272 16.6068 116.666 16.1573 117.359 16.0449C117.714 15.9887 118.014 16.1573 118.22 16.2697C118.707 16.5693 119.044 16.9814 119.681 17.1312C120.805 17.3935 121.91 16.382 122.659 16.0636C122.978 15.9325 123.427 15.9138 123.708 16.1011C123.989 16.2697 124.233 16.5131 124.495 16.7005C124.982 17.0563 125.9 17.2998 126.742 17.0938C127.005 17.0189 127.229 16.9252 127.435 16.8128C127.623 16.7005 128.241 16.3258 128.166 16.0074M117.246 9.41436C117.246 9.77024 117.246 10.1448 117.246 10.5007C117.246 10.7629 117.246 11.0439 117.227 11.3061C117.115 12.0366 117.227 12.8045 117.059 13.4414C116.909 14.0595 116.609 14.509 116.272 14.9398C116.01 15.2769 115.523 15.7265 114.867 15.5579C113.126 15.1271 113.406 12.8233 113.406 10.6693C113.406 10.0699 113.313 8.72134 113.556 8.38419C113.875 7.95339 115.298 8.08451 115.973 7.97212C116.122 7.97212 116.291 7.97212 116.441 7.93466C117.359 7.93466 117.246 8.5153 117.246 9.35817M123.427 6.24893C123.071 6.39878 122.828 6.45497 122.715 6.86704C122.566 7.39148 123.053 7.97212 123.558 7.8972C124.626 7.72863 124.588 6.2302 123.427 6.24893ZM99.6397 11.4185C99.7708 10.8941 99.9394 9.88262 99.827 9.18959C99.827 9.02102 99.827 8.85245 99.8083 8.70261C99.7334 8.23435 99.7146 7.78482 99.6023 7.35402C99.3962 6.52989 99.134 5.78068 98.7594 5.12512C97.1673 2.42795 94.3203 0.835873 89.9749 0.892064C89.7688 0.892064 89.5441 0.910795 89.3193 0.929525C88.926 0.985716 88.5139 1.04191 88.1206 1.07937C86.6971 1.36032 85.2736 1.58509 84.0374 2.05334C83.6253 2.22192 83.1945 2.3343 82.8386 2.54033C82.7262 2.61525 82.4827 2.72764 82.5202 2.93367C82.5764 3.28955 83.1383 3.12097 83.4005 3.06478C84.1497 2.87748 85.0675 2.46541 85.2361 3.47685C85.2923 5.2375 85.3672 6.97942 85.4234 8.74007C85.4234 9.26452 85.4421 9.78897 85.4609 10.3134C85.4609 11.0064 85.4796 11.6807 85.4983 12.3737V12.9918C85.6107 13.7411 85.4609 14.9398 86.0415 15.1833C86.3787 15.3144 86.566 15.0147 86.6596 14.8087C86.8656 14.3404 86.8656 13.6849 86.9593 13.0855C86.9593 12.8982 86.9593 12.7296 86.9593 12.5423C86.9593 11.943 86.978 11.3623 86.9968 10.7629C87.0155 9.52674 87.0342 8.30927 87.0529 7.07307C87.0529 6.45497 87.0529 5.83687 87.0717 5.21877V4.73178C87.0717 4.35717 87.0717 3.98257 87.0717 3.60796C87.0717 3.36447 87.0529 3.10224 87.0904 2.87748C87.1466 2.67144 87.2402 2.50287 87.4088 2.40922C87.7834 2.18446 89.4692 2.10953 90.106 2.20319C90.6117 2.29684 91.1174 2.31557 91.5857 2.42795C93.2714 2.85875 94.7136 3.64542 95.6502 4.82543C96.1559 5.48099 96.6054 6.21147 96.8864 7.0918C97.0362 7.59752 97.1111 8.12197 97.2048 8.70261C97.4108 9.93881 97.1299 11.5309 96.7927 12.4112C95.7251 15.1833 93.646 16.4944 90.4993 17.1687C90.0123 17.2811 89.4692 17.2624 88.9447 17.356C88.7199 17.356 88.4952 17.356 88.2517 17.3747H87.5212C87.2215 17.3747 86.9218 17.356 86.6221 17.3373C86.2663 17.3186 85.9104 17.2811 85.5545 17.2436C85.0675 17.1687 84.5993 17.1125 84.1123 17.0376C83.8688 16.9814 83.5129 16.8878 83.232 16.9627C83.232 16.9814 83.232 17.0189 83.2132 17.0376C83.3069 17.2624 83.6815 17.3373 83.925 17.4309C84.5805 17.6932 85.311 17.8243 86.079 17.9928C89.8812 18.8357 94.0206 17.6932 96.2495 16.1198C97.8416 14.996 99.0216 13.5538 99.5648 11.3998M49.2177 5.89306C48.8993 6.0429 48.6745 6.11782 48.5621 6.4737C48.4123 7.01688 48.8993 7.57879 49.4425 7.48514C50.3977 7.31656 50.3603 5.87433 49.2177 5.89306ZM47.8317 10.8753C47.1948 11.381 46.5018 11.7556 45.7713 12.1864C45.5653 12.3176 45.1532 12.5985 44.7973 12.5423C44.3853 12.4674 44.1605 12.1677 43.8983 11.943C43.3738 11.5309 42.9056 11.0814 42.4373 10.6318C42.1751 10.3696 41.9129 9.90135 41.4072 9.90135C41.3135 9.93881 41.2199 9.93881 41.1262 9.995C40.8078 10.201 40.6579 10.6506 40.4519 10.9877C40.1335 11.4934 39.1221 12.5985 38.4665 12.7109C38.0357 12.7858 37.6986 12.355 37.5113 12.149C36.8744 11.5122 36.3312 10.8941 35.4697 10.4633C35.17 10.2947 34.5331 10.0325 34.1211 10.276C33.7839 10.482 33.7839 11.456 33.6341 11.868C33.222 13.0293 32.5852 14.303 31.7049 14.996C31.3864 15.2395 30.9182 15.6703 30.2814 15.5017C29.1763 15.2395 28.9328 13.816 28.6705 12.6922C28.5582 12.1864 28.502 11.1001 28.0337 10.9877C27.6591 10.8941 27.5842 11.2874 27.528 11.5683C27.4718 11.8868 27.5467 12.2614 27.4905 12.6172C27.4905 12.8233 27.4905 13.0106 27.4905 13.1979C27.4343 13.5912 27.4156 13.9471 27.2845 14.2468C26.8912 15.1646 25.5239 16.0824 24.0629 15.8576C23.7257 15.8014 23.4448 15.8014 23.1826 15.7077C22.3772 15.3893 21.9089 14.7712 21.7403 13.7973C21.6841 13.4788 21.7778 13.1604 21.8527 12.9544C22.2273 11.9055 23.1451 11.662 24.3813 11.4747C24.7934 11.3998 26.0483 11.5871 26.1981 11.3061C26.3105 11.0439 25.8235 10.8379 25.6737 10.7629C25.0369 10.4445 23.9318 10.2385 23.014 10.4445C21.7591 10.7442 20.7476 11.456 20.2794 12.5236C19.68 13.8909 20.5229 15.5392 21.3283 16.176C22.321 16.9627 23.9505 17.3935 25.6175 16.9065C26.4416 16.663 27.0785 16.1947 27.9588 16.0449C28.1836 16.0074 28.4271 16.0636 28.5956 16.1198C29.401 16.3633 30.169 17.3373 31.2928 17.0001C31.6487 16.8878 31.9671 16.7005 32.248 16.5131C32.9785 15.9887 33.5966 15.2395 33.9712 14.3779C34.2147 13.8347 34.402 13.1417 34.7204 12.6547C34.9077 12.3737 35.3011 12.1864 35.6944 12.4112C35.863 12.5049 36.0128 12.6172 36.1439 12.7484C36.2751 12.8607 36.4249 12.9918 36.4811 13.1604C36.5747 13.3852 36.5185 13.6287 36.4062 13.7785C36.2751 13.9471 36.0503 14.0407 35.8817 14.1719C35.5633 14.3966 35.2449 14.6963 35.0201 14.996C34.4769 15.7265 34.5706 16.4195 35.3198 16.8503C36.4811 17.5433 39.2532 17.6557 39.6091 16.1947C39.7402 15.6516 39.4779 15.1084 39.3094 14.7525C39.2344 14.5652 39.0471 14.3217 39.1408 14.022C39.2344 13.7223 39.5154 13.5538 39.7402 13.3852C40.2272 12.9918 40.6954 12.5798 41.1824 12.1864C41.3697 12.0741 41.6694 11.9804 41.9316 12.0928C42.1564 12.1864 42.3062 12.3363 42.4748 12.4674C42.6621 12.6172 43.1491 12.9731 43.0742 13.3665C43.018 13.6287 42.7932 13.7598 42.6059 13.8909C42.1002 14.2655 40.7141 15.3706 41.4821 16.2509C41.6132 16.4195 41.8192 16.5506 42.0065 16.663C42.3624 16.869 42.7745 17.0001 43.224 17.0938C44.5726 17.3935 46.071 17.0376 46.3332 15.9887C46.5955 14.9585 45.2843 14.1719 46.277 13.5163C46.4456 13.4226 46.6329 13.329 46.8015 13.2353C47.0263 13.1417 47.3072 12.9357 47.6818 13.0106C48.3186 13.123 48.3748 13.8534 48.5996 14.3966C48.9367 15.2582 49.5174 16.7379 50.3977 17.0001C50.8472 17.1313 51.2406 16.869 51.4841 16.6817C52.1771 16.1573 52.6454 15.3331 53.1698 14.6401C53.3384 14.3966 53.713 13.816 54.1812 13.9096C54.9492 14.0407 55.0054 15.5766 55.2301 16.3071C55.3238 16.6068 55.4362 16.9627 55.7359 17.0376C56.1666 17.15 56.4663 16.5131 56.5787 16.2509C56.9159 15.483 57.3654 13.7598 58.1521 13.535C58.5079 13.4414 58.7702 13.6661 58.9013 13.8722C59.3133 14.4903 59.201 15.7077 59.4632 16.457C59.5568 16.7379 59.7816 17.1687 60.2311 17.0751C60.7368 16.9627 60.868 16.2509 61.0178 15.7827C61.28 14.9773 61.5423 13.9846 62.3664 13.7411C62.9658 13.5538 63.1905 14.1157 63.3404 14.4903C63.6962 15.3893 63.8461 16.663 64.7264 17.0189C65.1572 17.2062 65.7191 17.0189 66.0563 16.869C66.8242 16.4757 67.255 15.7639 68.2477 15.5954C68.5287 15.5579 68.7909 15.6703 68.9595 15.7639C69.4464 16.0074 69.8211 16.3633 70.2893 16.6443C71.6004 17.4122 73.3985 17.0563 74.4662 16.3446C75.2716 15.8014 75.9646 15.0147 76.2643 14.0033C76.77 12.355 75.6462 11.0626 74.5598 10.6318C73.7357 10.3134 72.3496 10.2947 71.5255 10.6318C71.3569 10.7067 70.795 10.9502 70.9449 11.1937C71.0011 11.3249 71.2633 11.2874 71.4131 11.2499C71.8252 11.1563 72.3684 11.0252 72.8928 11.1188C74.0916 11.3436 75.1592 12.1864 74.6909 13.7036C74.616 13.9284 74.5036 14.1531 74.3913 14.3404C73.9043 15.0709 72.3684 15.9512 71.0198 15.5392C70.1957 15.2957 69.5776 14.7712 69.3153 13.9658C69.128 13.3665 69.1468 12.3737 69.2404 11.6807C69.2966 11.381 69.203 10.9502 68.8658 11.0252C68.435 11.1188 68.229 12.3363 68.0604 12.7671C67.6296 13.8534 67.0115 15.0147 65.7004 15.2395C65.101 15.3331 64.8013 14.7525 64.6515 14.3779C64.2956 13.535 64.202 12.4674 63.9585 11.4934C63.8461 10.9877 63.8086 10.4445 63.2842 10.3509C62.8908 10.2572 62.5724 10.5382 62.4226 10.7442C61.9731 11.3249 61.6921 12.1115 61.2613 12.7109C61.0927 12.9357 60.793 13.3103 60.3248 13.2166C59.5194 13.0668 59.3695 11.943 59.1073 11.2499C58.9949 10.9502 58.8076 10.3509 58.3581 10.4258C57.5714 10.5756 57.3092 12.1864 56.9533 12.8607C56.8035 13.1604 56.4851 13.6287 55.9793 13.4226C55.0428 13.048 55.586 10.7255 54.5558 10.482C53.9377 10.3321 53.5631 11.1563 53.3571 11.5122C52.8701 12.3363 52.5517 13.3103 52.046 14.0782C51.8212 14.4154 51.5403 14.79 51.0907 14.8649C50.5288 14.9585 50.3041 14.4341 50.173 14.0969C49.8733 13.3852 49.7609 12.5423 49.611 11.6807C49.5174 11.1563 49.5548 10.6506 49.1802 10.4258C48.6371 10.0887 48.225 10.7067 47.9253 10.9502M37.53 16.382C36.8932 16.5693 35.8817 16.1947 36.0503 15.5204C36.1814 15.0147 36.6684 14.9023 37.1366 14.715C37.9982 14.715 38.4852 16.1198 37.5487 16.382M44.7224 15.8201C44.61 16.0636 44.3291 16.1947 44.0107 16.2509C43.3738 16.3633 42.4561 15.9138 42.737 15.2769C42.9056 14.8462 43.3551 14.7712 43.7859 14.5839C43.9358 14.5839 44.0669 14.5839 44.1605 14.6214C44.4977 14.7525 44.9659 15.3331 44.7224 15.8389M17.8632 16.4757C17.8444 16.0449 17.807 15.5954 17.7882 15.1646C17.7882 14.8462 17.7508 14.509 17.732 14.1719C17.526 10.7817 17.32 8.10324 17.1139 4.73178C16.9641 3.81399 17.1514 2.16573 16.7019 1.60382C16.4584 1.2854 15.9714 1.22921 15.3908 1.22921C15.2596 1.22921 15.1285 1.22921 14.9974 1.22921C14.679 1.2854 14.398 1.2854 14.192 1.43524C13.7238 1.77239 13.3491 3.30828 13.1057 3.94511C12.319 6.15528 11.5136 8.34673 10.7269 10.5569C10.3898 11.4185 10.1275 12.2801 9.79039 13.123C9.64055 13.4976 9.47197 13.9658 9.02245 14.0407C8.62911 14.1157 8.46054 13.7598 8.34815 13.5163C8.04847 12.7858 8.02974 11.8118 7.86117 10.969C7.50529 8.81499 7.14941 6.661 6.79354 4.50702C6.6437 3.73907 6.62497 2.42795 6.11925 2.03461C5.7821 1.75366 4.71447 1.62255 4.1151 1.80985C3.25351 2.07207 3.15986 3.73907 2.93509 4.67559C2.27953 7.57879 1.62397 11.6807 0.94968 14.5839C0.762377 15.3893 0.575073 16.2135 0.38777 17.0189C0.312849 17.4122 0.38777 17.843 0.593804 18.0116C0.874758 18.2363 1.38048 18.1801 1.6427 17.9741C2.03604 17.6744 2.11096 16.6443 2.24207 16.0636C2.71033 13.8534 3.15986 10.482 3.62811 8.27181C3.75923 7.7099 3.89034 6.30513 4.5459 6.36132C5.29511 6.41751 5.37003 8.23435 5.53861 8.96483C5.85702 10.5944 6.15671 12.2239 6.47512 13.8722C6.66243 14.715 6.69989 15.7077 7.09322 16.3446C7.39291 16.8316 8.23577 17.4122 9.07864 17.0751C9.99642 16.7005 10.2774 15.4643 10.6333 14.5465C11.4948 12.2801 12.3752 10.0137 13.2368 7.74736C13.5365 6.96069 13.8361 6.17401 14.1171 5.38734C14.2295 5.12512 14.398 4.71305 14.7914 4.75051C15.8028 4.88162 15.3346 7.07307 15.5031 8.10324C15.5968 11.0064 15.7092 13.1979 15.8028 16.1011C15.9901 17.2811 15.4844 18.6484 16.8892 18.6484C17.0203 18.6484 17.1327 18.6484 17.2451 18.6109C17.9568 18.3862 17.9568 17.2998 17.8257 16.4195" fill="#1B1C1C"/>
</svg>
