<svg width="107" height="18" viewBox="0 0 107 18" fill="none" xmlns="http://www.w3.org/2000/svg">
<mask id="mask0_1520_2350" style="mask-type:luminance" maskUnits="userSpaceOnUse" x="0" y="0" width="107" height="18">
<path d="M106.41 0.490234H0.171875V17.0478H106.41V0.490234Z" fill="white"/>
</mask>
<g mask="url(#mask0_1520_2350)">
<path d="M48.664 14.3502C48.0085 14.4814 47.278 14.3877 46.6973 14.0318C46.023 13.6198 45.5735 12.8893 45.4986 12.1026C45.4986 11.934 45.4986 11.7842 45.4986 11.6343C45.5923 10.7353 46.2665 9.91116 47.1656 9.70512C48.252 10.9039 49.357 12.1026 50.4434 13.3013C49.9939 13.8445 49.357 14.2191 48.664 14.3502ZM53.5901 12.8144C53.6276 12.3274 53.665 11.8216 53.8149 11.3534C54.0022 10.754 54.3206 10.1359 54.9199 9.85497C55.0323 9.8175 55.1634 9.79877 55.2946 9.78004C55.2946 9.66766 55.2946 9.55528 55.3133 9.4429C55.2758 9.29306 55.3133 9.12448 55.3133 8.97464C55.2946 8.73115 55.2946 8.50638 55.3133 8.26289C55.3133 7.9632 55.2946 7.66352 55.3133 7.36383C55.3133 7.28891 55.2946 7.21399 55.2946 7.13907C54.5641 7.13907 53.8336 7.3451 53.2155 7.70098C52.2602 8.26289 51.5485 9.1994 51.305 10.2858C49.9002 8.76861 48.5142 7.21399 47.0907 5.6781C46.791 5.34096 46.6599 4.8727 46.7161 4.42317C46.8097 3.93618 47.1094 3.50539 47.5589 3.28062C47.8586 3.11205 48.1958 3.09332 48.5329 3.13078C49.0386 3.22443 49.4694 3.58031 49.6942 4.04857C50.4809 3.6365 51.2863 3.26189 52.0542 2.84983C51.9231 2.5876 51.7733 2.34411 51.6047 2.11934C50.7993 1.10791 49.5256 0.452346 48.2332 0.489807C46.7348 0.471076 45.2738 1.3514 44.5621 2.66252C44.1126 3.46793 43.944 4.4419 44.0938 5.34096C44.2249 6.20255 44.637 6.98923 45.2364 7.60733C44.5246 8.01939 43.9253 8.61876 43.5132 9.31179C43.0262 10.1172 42.7827 11.0537 42.8202 11.9902C42.8576 12.908 43.1198 13.8258 43.6068 14.5937C44.3373 15.7737 45.5735 16.6353 46.9408 16.9163C47.6339 17.0661 48.3643 17.0474 49.0574 16.935C50.2561 16.7103 51.3612 16.1109 52.2041 15.2306C52.5599 15.6426 52.9345 16.0172 53.2904 16.4293C54.4892 16.4293 55.6879 16.4293 56.8866 16.4293C55.7815 15.2306 54.6765 14.0131 53.5714 12.7956" fill="#0E0E0E"/>
<path d="M6.07192 9.04958C5.6224 9.51784 4.98557 9.79879 4.34874 9.87372C3.88048 9.87372 3.41222 9.87372 2.94396 9.87372V3.46795C3.48714 3.46795 4.04905 3.41176 4.5735 3.5616C5.21033 3.71144 5.82843 4.04859 6.2405 4.57304C7.27066 5.8467 7.19574 7.86957 6.05319 9.06831M9.57449 5.28479C9.27481 3.9924 8.54433 2.79366 7.4767 1.98825C6.44653 1.22031 5.15414 0.845703 3.88048 0.845703H0.171875V16.4668H2.96269C2.96269 15.1557 2.96269 13.8633 2.96269 12.5522C3.63698 12.5522 4.29254 12.5896 4.96684 12.496C6.05319 12.3461 7.08336 11.8591 7.87003 11.0912C8.93766 10.0985 9.57449 8.67497 9.70561 7.23274C9.74307 6.57718 9.72434 5.92162 9.57449 5.28479Z" fill="#0E0E0E"/>
<path d="M20.7003 0.845703H23.5098C23.5098 0.845703 23.5098 1.01428 23.5098 1.10793C23.5098 1.2765 23.5098 1.44507 23.5098 1.63238C23.5098 1.80095 23.5098 1.96952 23.5098 2.15683C23.5098 2.40032 23.5098 2.66254 23.5098 2.90604C23.5098 2.98096 23.5098 3.05588 23.5098 3.14953C23.5098 3.52414 23.5098 3.89874 23.5098 4.29208C23.5098 4.81653 23.5098 5.32225 23.5098 5.8467C23.5098 6.6521 23.5098 7.4575 23.5098 8.26291C23.5098 8.39402 23.5098 8.54386 23.5098 8.69371C23.5098 8.86228 23.5098 9.03085 23.5098 9.21815C23.5098 9.34927 23.5098 9.46165 23.5098 9.59276C23.4911 10.1359 23.5286 10.6978 23.4724 11.241C23.3975 12.1963 23.1352 13.1328 22.667 13.9569C22.18 14.8185 21.4682 15.5303 20.6066 16.0173C19.6514 16.5604 18.5463 16.8039 17.4599 16.8039C16.2425 16.8039 15.0063 16.523 13.9761 15.8674C12.9834 15.2493 12.2155 14.2753 11.8034 13.189C11.4475 12.3087 11.3164 11.3534 11.3164 10.3982V0.845703H14.1447V10.548C14.1821 11.4471 14.3694 12.421 14.9688 13.1141C15.4745 13.6947 16.2238 14.0131 16.973 14.0693C17.7596 14.1442 18.6025 14.0318 19.2955 13.601C19.8387 13.2639 20.2133 12.702 20.4193 12.0839C20.5692 11.6344 20.6254 11.1848 20.6628 10.7166C20.6816 9.57403 20.6628 8.45021 20.6628 7.30766V0.845703" fill="#0E0E0E"/>
<path d="M34.168 0.845703C35.1045 0.845703 36.041 0.845703 36.9775 0.845703V13.7696C38.5883 13.7696 40.1804 13.7696 41.7912 13.7696C41.7912 14.6687 41.7912 15.5677 41.7912 16.4481C39.2439 16.4481 36.7153 16.4481 34.168 16.4481V0.845703Z" fill="#0E0E0E"/>
<path d="M65.1854 12.2907C65.1105 12.6653 64.9045 13.0025 64.6048 13.246C64.2489 13.5269 63.7994 13.6768 63.3686 13.7517C62.5257 13.9015 61.6641 13.8266 60.8025 13.8453C60.8025 12.4968 60.8025 11.1294 60.8025 9.78087C61.4394 9.78087 62.0762 9.78087 62.713 9.78087C63.3311 9.81833 63.968 9.91198 64.4924 10.2679C64.867 10.5113 65.1105 10.9047 65.1854 11.3355C65.2416 11.6539 65.2229 11.9723 65.1854 12.2907ZM60.8213 3.39383C61.4394 3.39383 62.0762 3.35637 62.6943 3.46875C63.1438 3.54367 63.5934 3.73097 63.893 4.08685C64.174 4.42399 64.2676 4.89225 64.2676 5.32305C64.2676 5.81004 64.1178 6.33449 63.7432 6.67163C63.3499 7.02751 62.8067 7.15862 62.301 7.19608C61.814 7.19608 61.3083 7.19608 60.8213 7.19608V3.39383ZM67.6578 9.85579C67.2832 9.06911 66.5902 8.43228 65.8035 8.03895C65.8035 8.03895 65.8035 8.00148 65.8035 7.98275C66.3842 7.47704 66.7962 6.80274 66.9648 6.05353C67.0959 5.51035 67.0585 4.94844 66.9648 4.40526C66.8524 3.88082 66.6464 3.35637 66.3467 2.90684C65.9159 2.25128 65.2791 1.72683 64.5673 1.37095C63.9867 1.10873 63.3686 0.996347 62.7505 0.921425C62.3759 0.902695 62.0013 0.865234 61.6267 0.865234C60.4279 0.865234 59.2105 0.865234 58.0117 0.865234V16.4863C59.7911 16.4863 61.5518 16.4863 63.3311 16.4863C64.5861 16.3739 65.841 15.9057 66.7588 15.0066C67.4705 14.3323 67.9388 13.4145 68.0512 12.4406C68.1448 11.579 68.0512 10.6799 67.6578 9.89325" fill="#0E0E0E"/>
<path d="M69.5664 0.845703H79.1563C79.1563 1.72603 79.1563 2.60635 79.1563 3.48668C76.89 3.48668 74.6236 3.48668 72.376 3.48668C72.376 4.72288 72.376 5.94035 72.376 7.17655C74.5299 7.17655 76.6652 7.17655 78.8192 7.17655C78.8192 8.03814 78.8192 8.89974 78.8192 9.76133C76.6652 9.76133 74.5299 9.76133 72.376 9.76133C72.376 11.1099 72.376 12.4585 72.376 13.8258C74.6423 13.8258 76.9087 13.8258 79.1751 13.8258C79.1751 14.7061 79.1751 15.5677 79.1751 16.4481H69.5851V0.845703H69.5664Z" fill="#0E0E0E"/>
<path d="M85.5261 9.74295C86.163 8.16961 86.7811 6.61499 87.3992 5.04165C88.0173 6.61499 88.6354 8.18834 89.2722 9.74295C88.0173 9.74295 86.7811 9.74295 85.5261 9.74295ZM88.523 0.883515C88.523 0.883515 88.4106 0.827324 88.3544 0.808594C87.7176 0.808594 87.0808 0.808594 86.4627 0.808594C86.4065 0.808594 86.3128 0.808594 86.2941 0.864785C84.1776 6.07181 82.0423 11.2601 79.9258 16.4671C80.9372 16.4671 81.9486 16.4671 82.9414 16.4671C83.4658 15.1186 83.9903 13.77 84.5147 12.4027H90.3024C90.8268 13.7512 91.3513 15.1186 91.8757 16.4671C92.9433 16.4671 94.0297 16.4671 95.0973 16.4671C92.9059 11.2788 90.7144 6.07181 88.5417 0.883515" fill="#0E0E0E"/>
<path d="M102.589 6.67069C102.439 7.17641 102.102 7.62594 101.652 7.9069C100.997 8.30023 100.191 8.39388 99.4422 8.39388H98.5619V3.46781C99.3673 3.46781 100.173 3.43035 100.959 3.63638C101.296 3.73004 101.634 3.86115 101.915 4.06718C102.27 4.32941 102.533 4.72274 102.645 5.15354C102.757 5.64053 102.739 6.18371 102.608 6.67069M104.93 13.9006C104.275 12.6644 103.638 11.3907 103.057 10.1171C103.507 9.85485 103.919 9.55516 104.275 9.18056C104.724 8.7123 105.061 8.15039 105.267 7.53229C105.717 6.16498 105.661 4.5729 104.949 3.29924C104.612 2.7186 104.143 2.23161 103.6 1.87573C102.757 1.31382 101.783 1.0516 100.791 0.901758C100.435 0.883027 100.098 0.826836 99.7419 0.845567C98.3933 0.845567 97.0634 0.845567 95.7148 0.845567C95.7148 6.05259 95.7148 11.2596 95.7148 16.4667C96.6514 16.4667 97.5879 16.4667 98.5244 16.4667V11.2222C98.5244 11.2222 98.7117 11.2222 98.7866 11.2222C99.0114 11.1847 99.2549 11.2222 99.4796 11.166C99.7231 11.166 99.9479 11.091 100.191 11.091C100.285 11.3533 100.416 11.5968 100.529 11.859C101.259 13.4323 102.046 14.9682 102.889 16.4667C104.05 16.4667 105.211 16.4667 106.372 16.4667C105.848 15.6425 105.361 14.7809 104.893 13.9193" fill="#0E0E0E"/>
<path d="M25.4023 0.845703H28.2119V13.7696H33.0069C33.0069 14.6687 33.0069 15.5677 33.0069 16.4668H25.4023V0.845703Z" fill="#0E0E0E"/>
</g>
</svg>
