<svg width="79" height="16" viewBox="0 0 79 16" fill="none" xmlns="http://www.w3.org/2000/svg">
<path d="M71.0795 15.4123C75.7982 15.4123 78.9908 12.1193 78.9908 7.8624C78.9908 3.60554 75.8183 0.3125 71.0795 0.3125C66.3407 0.3125 63.1682 3.60554 63.1682 7.8624C63.1682 12.1193 66.3407 15.4123 71.0795 15.4123ZM71.0795 15.0308C67.6861 15.0308 65.2564 12.7618 65.2564 7.8624C65.2564 2.963 67.6861 0.694011 71.0795 0.694011C74.4729 0.694011 76.9026 2.94292 76.9026 7.8624C76.9026 12.7819 74.4729 15.0308 71.0795 15.0308ZM56.7427 10.7338C56.7427 12.0389 56.7427 13.2236 56.6222 13.7658C56.4817 14.4284 55.9395 14.4887 55.1363 14.5489V14.8099C55.1363 14.8099 56.2608 14.7296 57.6061 14.7296C58.8511 14.7296 60.0759 14.8099 60.0759 14.8099V14.5489C59.2727 14.4887 58.7306 14.4686 58.59 13.7658C58.4695 13.2036 58.4695 10.7338 58.4695 10.7338V4.93079C58.4695 4.93079 58.4695 2.46101 58.59 1.89878C58.7306 1.21608 59.2727 1.17592 60.0759 1.11568V0.854647C60.0759 0.854647 58.8511 0.934966 57.6061 0.934966C56.2608 0.934966 55.1363 0.854647 55.1363 0.854647V1.11568C55.9395 1.17592 56.4817 1.23616 56.6222 1.89878C56.7427 2.44093 56.7427 3.62562 56.7427 4.93079V10.7338ZM46.9238 10.7338C46.9238 12.0389 46.9238 13.2236 46.8033 13.7658C46.6628 14.4284 46.1206 14.4887 45.3175 14.5489V14.8099C45.3175 14.8099 46.4419 14.7296 47.7872 14.7296C49.0322 14.7296 50.257 14.8099 50.257 14.8099V14.5489C49.4538 14.4887 48.9117 14.4686 48.7711 13.7658C48.6507 13.2036 48.6507 10.7338 48.6507 10.7338V4.93079C48.6507 4.93079 48.6507 2.46101 48.7711 1.89878C48.9117 1.21608 49.4538 1.17592 50.257 1.11568V0.854647C50.257 0.854647 49.0322 0.934966 47.7872 0.934966C46.4419 0.934966 45.3175 0.854647 45.3175 0.854647V1.11568C46.1206 1.17592 46.6628 1.23616 46.8033 1.89878C46.9238 2.44093 46.9238 3.62562 46.9238 4.93079V10.7338ZM8.27071 15.4123C12.9894 15.4123 16.182 12.1193 16.182 7.8624C16.182 3.60554 12.9894 0.3125 8.27071 0.3125C3.55202 0.3125 0.359375 3.60554 0.359375 7.8624C0.359375 12.1193 3.53194 15.4123 8.27071 15.4123ZM8.27071 15.0308C4.87727 15.0308 2.44765 12.7618 2.44765 7.8624C2.44765 2.963 4.87727 0.694011 8.27071 0.694011C11.6642 0.694011 14.0938 2.94292 14.0938 7.8624C14.0938 12.7819 11.6642 15.0308 8.27071 15.0308ZM27.3463 5.93477C28.531 4.02721 29.3341 2.82244 30.1172 2.0795C30.7196 1.51727 31.2819 1.31648 32.0248 1.196V0.934966C31.5429 0.975125 30.9204 0.995204 29.7759 0.995204C28.8121 0.995204 27.8483 0.975125 27.8483 0.975125V1.23616C28.792 1.25624 29.1936 1.43695 29.1936 1.99918C29.1936 2.42085 28.7719 3.00316 27.0852 5.71389C26.5832 6.47692 25.3584 8.62543 25.3383 9.34829V9.85028C25.3383 9.85028 25.5793 9.91052 25.5993 9.91052C25.6997 8.98686 26.1013 8.04312 27.3864 5.95485M21.965 5.59342C23.5111 8.14352 23.8123 9.00694 23.8323 10.1314L25.4387 9.9306V9.12742C25.4387 9.12742 25.2982 7.90256 23.4508 4.87055C22.8284 3.86658 22.3465 3.18387 22.0252 2.68189C21.7842 2.30037 21.5433 1.95902 21.5433 1.69799C21.5433 1.37672 21.8445 1.27632 22.5473 1.196V0.934966C22.5473 0.934966 21.6236 0.955045 20.6196 0.955045C18.5715 0.955045 17.3266 0.874727 17.3266 0.874727V1.13576C18.7723 1.33656 19.5755 1.85862 21.965 5.59342ZM23.8323 10.7338C23.8323 12.0389 23.8323 13.2839 23.7119 13.826C23.5713 14.4686 23.0292 14.4686 22.226 14.5288V14.7898C22.226 14.7898 23.3504 14.7095 24.6958 14.7095C25.9407 14.7095 27.1656 14.7898 27.1656 14.7898V14.5288C26.3624 14.4686 25.8202 14.4887 25.6797 13.826C25.5592 13.2638 25.5592 12.2397 25.5592 10.7338V9.87036L24.8564 9.26797L23.8524 10.1314V10.7338H23.8323ZM33.7316 11.1354C33.7316 11.1354 33.6312 11.8582 33.6312 13.0429C33.6312 13.9063 33.6914 14.1473 33.6914 14.1473C33.8721 14.2879 35.0568 15.332 37.2656 15.332C40.1369 15.332 41.7835 13.7658 41.7835 11.3562C41.7835 9.6294 40.9 8.40455 38.9322 7.19978L37.4262 6.21588C36.2415 5.43278 35.2375 4.60952 35.2375 3.18387C35.2375 1.75823 36.3419 0.774329 38.0286 0.774329C40.2775 0.774329 40.8799 2.50117 41.0807 3.88666H41.2815C41.2815 3.88666 41.3216 3.16379 41.3216 2.66181C41.3216 1.73815 41.2614 1.2964 41.2614 1.2964C40.9602 1.11568 39.896 0.432977 38.1491 0.432977C35.4785 0.432977 34.0127 2.05942 34.0127 4.04729C34.0127 5.53318 34.6753 6.93875 36.6632 8.20376L38.1892 9.18765C39.4141 9.95068 40.5586 10.8743 40.5586 12.3401C40.5586 14.2477 39.3137 14.9906 37.5266 14.9906C35.097 14.9906 34.2536 13.5851 33.9524 11.1354H33.7516H33.7316ZM48.3695 7.82225H57.0439V7.44073H48.3695V7.82225Z" fill="#1B1C1C"/>
</svg>
