<svg width="89" height="20" viewBox="0 0 89 20" fill="none" xmlns="http://www.w3.org/2000/svg">
<path d="M88.1614 19.2592C87.9405 18.456 87.8401 17.4721 87.8401 16.3075V9.38002C87.8401 7.99453 87.3382 6.93032 86.3342 6.18737C85.4908 5.56491 84.4065 5.26372 83.0813 5.26372C80.7119 5.26372 79.0052 6.22753 77.9209 8.17525L79.5875 9.03867C80.1497 7.61302 81.3143 6.89016 83.1014 6.89016C84.9889 6.89016 85.9326 7.7335 85.9326 9.4001V10.143C82.8604 10.6852 80.6918 11.388 79.4268 12.2313C78.1618 13.0747 77.5193 14.2593 77.5193 15.7452C77.5193 16.95 77.9008 17.8937 78.6839 18.5764C79.4067 19.219 80.3304 19.5202 81.4348 19.5202C83.1616 19.5202 84.6877 18.7973 85.9928 17.3516L86.1936 19.2592H88.1413H88.1614ZM85.9326 15.6248C85.3704 16.2874 84.6877 16.8295 83.9046 17.2512C83.1014 17.6929 82.3785 17.8937 81.7159 17.8937C81.1537 17.8937 80.6316 17.6929 80.1698 17.2914C79.6879 16.8898 79.4469 16.3878 79.4469 15.7854C79.4469 13.918 81.6155 12.6128 85.9527 11.8498V15.6248H85.9326ZM75.7724 19.2592L71.1942 10.5848L75.2302 5.50467H72.9211L67.3389 12.4522V0.183594H65.4314V19.2592H67.3389V15.1428L69.869 12.2313L73.5234 19.2592H75.7724ZM58.9658 19.2592H60.8733V9.27962C60.8733 7.91421 60.4717 6.87008 59.6485 6.16729C58.9457 5.56491 58.022 5.26372 56.8976 5.26372C55.4318 5.26372 54.0865 5.9665 52.8214 7.37207H52.7612V0.183594H50.8536V19.2592H52.7612V8.97843C54.0664 7.59294 55.3715 6.89016 56.6968 6.89016C58.2028 6.89016 58.9457 7.69334 58.9457 9.31978V19.2592H58.9658ZM39.7497 8.93827C39.7497 7.59294 40.5729 6.91024 42.2395 6.91024C43.5447 6.91024 44.7294 7.55278 45.7735 8.83787L47.0988 7.67326C46.6369 6.99056 45.9743 6.40825 45.0707 5.9665C44.1872 5.52475 43.2837 5.2838 42.4002 5.26372C41.0548 5.26372 39.9705 5.56491 39.1473 6.20745C38.324 6.85 37.8823 7.77366 37.8421 8.95835C37.7819 10.384 38.4646 11.4482 39.8501 12.1309C41.1352 12.5727 42.4202 13.0144 43.7053 13.4562C45.1109 13.9782 45.8137 14.681 45.8137 15.6248C45.8137 16.2673 45.5727 16.7894 45.1109 17.191C44.5888 17.6729 43.8258 17.9138 42.862 17.9138C41.2155 17.9138 39.9103 17.211 38.9264 15.8055L37.4204 16.9299C38.7256 18.6768 40.5528 19.5403 42.9222 19.5403C44.2676 19.5403 45.3719 19.1989 46.2554 18.5363C47.2393 17.7933 47.7413 16.7894 47.7413 15.5244C47.7413 14.0586 47.0586 12.9542 45.6731 12.1912C45.5125 12.1108 44.2274 11.649 41.8179 10.8458C40.4524 10.3639 39.7497 9.74145 39.7497 8.93827ZM33.4447 8.39612C34.1676 7.6331 35.1113 7.23151 36.2357 7.21143V5.30387C35.1715 5.30387 34.268 5.56491 33.5451 6.0669C32.9226 6.50865 32.3403 7.23151 31.7781 8.23549H31.7179V5.50467H29.8103V19.2391H31.7179V11.6289C32.1998 10.143 32.762 9.05875 33.4447 8.37604M18.887 16.448C18.1039 15.4842 17.7023 14.2593 17.7023 12.7534H26.6377V11.4884C26.6377 9.42018 26.1357 7.81382 25.1117 6.72952C24.1679 5.74562 22.9431 5.24364 21.4171 5.24364C19.7103 5.24364 18.3449 5.88618 17.3409 7.15119C16.3369 8.43628 15.8149 10.1631 15.8149 12.3719C15.8149 14.7413 16.4373 16.5484 17.6622 17.8134C18.7264 18.9379 20.1119 19.5001 21.7785 19.5001C23.164 19.5001 24.3286 19.1588 25.2723 18.4961C25.9149 18.0142 26.5173 17.2914 27.0795 16.3075L25.5936 15.5444C24.7302 17.0906 23.4652 17.8737 21.7986 17.8737C20.654 17.8737 19.6902 17.3918 18.9071 16.4279M17.7626 11.1269C17.8429 9.82177 18.2043 8.79771 18.8268 8.03469C19.4493 7.27167 20.3328 6.89016 21.4572 6.89016C22.4813 6.89016 23.2844 7.27167 23.8668 8.03469C24.4491 8.79771 24.7302 9.82177 24.7302 11.1069H17.7626V11.1269ZM9.16854 9.31978V9.25954C11.297 8.5166 12.3612 7.05079 12.3612 4.86212C12.3612 3.5168 11.8793 2.41242 10.9155 1.50884C9.93156 0.625344 8.64647 0.183594 7.02002 0.183594H-0.0078125V19.2592H5.91565C10.5339 19.2592 12.8431 17.5524 12.8431 14.1389C12.8431 12.9542 12.5017 11.9301 11.819 11.0466C11.1363 10.1631 10.2528 9.6009 9.16854 9.31978ZM5.81525 8.37604H2.12062V1.99075H6.65859C9.04806 1.99075 10.2528 3.03489 10.2528 5.14324C10.2528 6.04682 9.91148 6.78976 9.22877 7.37207C8.44567 8.05477 7.30114 8.39612 5.81525 8.39612M9.36933 11.2073C10.2729 11.89 10.7147 12.8337 10.7147 14.0385C10.7147 16.3275 9.16853 17.4721 6.05621 17.4721H2.10054V10.1832H5.75501C7.26098 10.1832 8.48583 10.5246 9.36933 11.2073Z" fill="#191917"/>
</svg>
