<svg width="95" height="34" viewBox="0 0 95 34" fill="none" xmlns="http://www.w3.org/2000/svg">
<path d="M94.8914 11.5306V11.3037C94.8914 10.0561 94.6418 8.80843 94.2108 7.65151C93.3034 5.31499 91.5113 3.40948 89.3109 2.22987C86.7249 0.823424 83.7759 0.210938 80.8042 0.210938H80.532C79.375 0.210938 78.2181 0.301676 77.0612 0.460469C73.9307 0.959532 70.8229 2.32061 68.6906 4.72519C67.1026 6.51728 66.354 8.89917 66.3087 11.2584C66.1726 14.0259 67.4202 16.7481 69.3711 18.6309C71.5035 20.6498 74.3617 21.7841 77.2427 22.2378C81.0083 22.8276 84.9555 22.4419 88.4489 20.922C90.5813 19.9693 92.4868 18.404 93.621 16.3397C94.4604 14.8652 94.8687 13.1866 94.8914 11.5079M90.3317 14.3662C89.6966 16.3851 88.0633 17.9504 86.2031 18.8577C83.8212 20.06 81.0764 20.2415 78.4903 19.9239C75.9723 19.5837 73.4543 18.4267 71.8664 16.3851C71.2312 15.5231 70.8002 14.5023 70.5734 13.4588C70.3239 11.4625 70.3919 9.35286 71.2312 7.49272C71.7303 6.38117 72.547 5.40573 73.5678 4.74787C76.4034 2.84236 80.0329 2.36598 83.3449 2.97847C85.6133 3.43216 87.8591 4.49834 89.2656 6.40385C90.9215 8.67232 91.1938 11.7574 90.3544 14.3889M67.1934 28.4987C66.8531 28.3626 66.4902 28.2946 66.1045 28.2946C65.7189 28.2946 65.3559 28.3626 65.0156 28.4987C64.6754 28.6348 64.3578 28.8163 64.0856 29.0658C63.8134 29.3154 63.6092 29.5876 63.4504 29.9052C63.3143 30.2228 63.2462 30.5403 63.2462 30.9033C63.2462 31.2663 63.3143 31.5838 63.4504 31.9014C63.5865 32.219 63.7907 32.4912 64.0856 32.7408C64.3578 32.9903 64.6527 33.1718 65.0156 33.3079C65.3559 33.444 65.7189 33.512 66.1045 33.512C66.4902 33.512 66.8531 33.444 67.1934 33.3079C67.5336 33.1718 67.8512 32.9903 68.1234 32.7408C68.3957 32.4912 68.5998 32.219 68.7359 31.9014C68.872 31.6065 68.9401 31.2663 68.9401 30.9033C68.9401 30.5403 68.872 30.2228 68.7359 29.9052C68.5998 29.5876 68.3957 29.3154 68.1234 29.0658C67.8512 28.8163 67.5563 28.6348 67.1934 28.4987ZM67.1026 29.8371C67.3749 30.1093 67.511 30.4496 67.511 30.8579C67.511 31.2663 67.3749 31.6292 67.1026 31.9014C66.8304 32.1736 66.5128 32.3098 66.1045 32.3098C65.6962 32.3098 65.3559 32.1736 65.1064 31.9014C64.8568 31.6292 64.7207 31.2889 64.7207 30.8579C64.7207 30.4269 64.8568 30.1093 65.1064 29.8371C65.3786 29.5649 65.6962 29.4288 66.1045 29.4288C66.5128 29.4288 66.8304 29.5649 67.1026 29.8371ZM64.2897 22.1243C59.9343 17.8596 55.5561 13.6176 51.2234 9.33018C55.3973 6.42654 59.5713 3.50022 63.768 0.619262C61.9532 0.551208 60.1158 0.619262 58.301 0.596577C53.4011 4.18076 48.4558 7.6742 43.5333 11.2584C43.5333 7.71957 43.5333 4.15807 43.5333 0.596577C42.1949 0.596577 40.8565 0.596577 39.5181 0.596577C39.5181 7.78762 39.5181 14.9787 39.5181 22.1697C40.8565 22.1697 42.1949 22.1697 43.5106 22.1697C43.5106 19.6971 43.5106 17.2018 43.5106 14.7291C45.1212 13.5722 46.7545 12.438 48.3651 11.3037C51.9039 14.9333 55.42 18.5628 58.9815 22.1924C60.7509 22.1924 62.4977 22.2151 64.2671 22.1697M35.9112 33.3306H37.3857V28.4307H35.9112V33.3306ZM32.8034 22.1697C32.8034 14.9787 32.8034 7.78762 32.8034 0.596577C31.465 0.596577 30.1266 0.596577 28.7882 0.596577C28.7882 7.78762 28.7882 14.9787 28.7882 22.1697C30.1266 22.1697 31.465 22.1697 32.7807 22.1697M29.378 30.9487L28.5841 28.408H27.1322L26.3156 33.3079H27.6767L27.9943 31.1755C28.0169 30.994 28.0396 30.8126 28.0623 30.6311C28.0623 30.4496 28.1077 30.2681 28.1077 30.0867C28.1304 30.2908 28.1984 30.5403 28.3118 30.8579C28.3118 30.926 28.3345 30.9714 28.3572 30.994L29.0831 33.2852H30.0586L30.7845 30.994C30.7845 30.994 30.8072 30.926 30.8298 30.8579C30.9206 30.5403 30.9886 30.2908 31.034 30.0867C31.034 30.3135 31.0794 30.495 31.0794 30.6765C31.0794 30.8579 31.1247 31.0167 31.1474 31.1755L31.465 33.3079H32.8261L32.0094 28.408H30.5576L29.741 30.926C29.6956 31.0848 29.6502 31.1982 29.6276 31.3116C29.6049 31.4251 29.5822 31.5158 29.5822 31.6065C29.5595 31.4477 29.5141 31.2436 29.4461 31.0394C29.4461 30.994 29.4234 30.9714 29.4234 30.9487M24.9091 22.147C20.5537 17.8823 16.1755 13.6176 11.8428 9.33018C16.0167 6.42654 20.1907 3.50022 24.3874 0.619262C22.5726 0.573892 20.7352 0.619262 18.9204 0.596577C13.9978 4.15807 9.07523 7.69688 4.15266 11.2357C4.15266 7.69688 4.15266 4.15807 4.15266 0.596577C2.81426 0.596577 1.49855 0.596577 0.160156 0.596577C0.160156 7.78762 0.160156 14.956 0.160156 22.147C1.49855 22.147 2.81426 22.147 4.15266 22.147C4.15266 19.6744 4.15266 17.1791 4.15266 14.7064C5.76327 13.5495 7.39657 12.438 9.00718 11.2811C12.5687 14.8879 16.0848 18.5402 19.6236 22.1697C21.393 22.1697 23.1397 22.1924 24.9091 22.1697M42.3083 28.408H40.8565V33.3079H44.1231V32.151H42.3083V28.3853V28.408ZM48.3424 28.408L46.505 33.3079H47.9568L48.229 32.4232H50.2933L50.5655 33.3079H52.0173L50.1799 28.408H48.3651H48.3424ZM48.5466 31.4931L49.091 29.8825C49.091 29.8825 49.1591 29.6783 49.1817 29.5649C49.2044 29.4515 49.2498 29.3381 49.2725 29.2246C49.3178 29.4061 49.3632 29.5422 49.3859 29.6556C49.4086 29.7691 49.4313 29.8371 49.454 29.9052L49.9984 31.5158H48.5466V31.4931ZM56.214 28.408H54.8075V33.3079H56.214V30.8806C56.214 30.7445 56.214 30.6084 56.214 30.4496C56.214 30.2908 56.1913 30.1093 56.1459 29.9052C56.2594 30.1093 56.3501 30.2908 56.4408 30.4496C56.5316 30.6084 56.5996 30.6991 56.645 30.7672L58.6639 33.3079H60.0704V28.408H58.6639V30.8353C58.6639 30.9714 58.6639 31.1075 58.6639 31.2663C58.6639 31.4251 58.7093 31.6065 58.732 31.8107C58.6186 31.6065 58.5278 31.4024 58.4371 31.2663C58.3464 31.1075 58.2783 31.0167 58.2329 30.9487L56.214 28.4307V28.408Z" fill="#191917"/>
</svg>
