<svg width="60" height="60" viewBox="0 0 60 60" fill="none" xmlns="http://www.w3.org/2000/svg">
<mask id="mask0_1197_776" style="mask-type:luminance" maskUnits="userSpaceOnUse" x="0" y="0" width="60" height="60">
<path d="M59.9995 0.136719H0.835938V59.1367H59.9995V0.136719Z" fill="white"/>
</mask>
<g mask="url(#mask0_1197_776)">
<path d="M41.5131 42.107C40.4125 42.4193 39.4756 43.1332 38.4196 43.5497C30.1355 46.8514 16.8691 46.5093 8.48086 43.6389C7.27617 43.2225 6.10122 42.7465 4.98577 42.1219L4.55446 42.3747V49.8111C4.55446 50.5993 7.06795 52.3245 7.78184 52.6964C15.1587 56.4889 31.831 56.5335 39.0294 52.3543C39.5351 52.0568 41.4983 50.7034 41.4983 50.1829V42.0921L41.5131 42.107ZM41.5131 36.9908V29.9263L41.1413 29.7329C38.7468 31.1607 35.7871 32.0679 33.0654 32.5736C25.2573 34.046 15.352 33.8229 7.8562 31.0863C6.84486 30.7145 5.893 30.2386 4.95603 29.718L4.58421 29.9114V36.6041C4.58421 37.2139 6.69613 38.835 7.23155 39.1473C14.5043 43.2373 31.1469 43.0886 38.5832 39.4002C39.2673 39.0581 41.3347 37.6452 41.528 36.9759M20.9739 18.7271C17.1219 18.9056 7.73722 20.0062 5.20886 23.1294C4.19752 24.3936 4.6437 24.9439 5.77402 25.9255C11.8123 31.1161 34.1363 30.9227 40.3977 26.0147C42.5988 24.2895 41.3049 23.0699 39.4756 21.9545C35.0138 19.2179 26.1496 18.504 20.9739 18.742M43.8333 53.1872C38.8063 59.2106 23.6659 59.6419 16.4824 58.8388C11.7528 58.3182 1.55018 55.8345 1.0445 50.0193C0.345488 41.8393 1.65429 32.6926 0.970141 24.4085C1.13374 22.3114 1.93687 20.8539 3.57286 19.6343C11.6785 13.596 32.5895 13.7448 41.2008 18.7122C43.5804 20.0805 44.9933 21.4488 45.2164 24.3341C45.856 32.5885 44.7256 41.6757 45.2164 50.0044C45.0528 51.2537 44.6513 52.2204 43.8481 53.1872" fill="#20113E"/>
<path d="M49.0987 43.0295V39.3114C50.7793 38.9842 56.4904 36.7681 56.4904 34.7603V27.5024L56.0591 27.2496L49.0987 29.8226V26.1044C50.7793 25.8813 56.4904 23.4868 56.4904 21.5534V15.2325C56.4904 15.2325 56.2822 14.7863 56.2227 14.7863C53.1143 16.4372 49.7233 17.4634 46.2431 17.9542L41.7218 14.9648L47.1206 14.1765C49.1879 13.7898 55.137 12.0943 56.1037 10.2055C57.234 8.01921 53.2779 6.47245 51.746 5.90729C44.7261 3.36406 33.7203 3.27482 26.5368 5.16365C24.5885 5.66932 21.019 6.78478 19.8292 8.45052C18.8773 9.77419 19.9035 10.1163 20.4836 11.2466L15.873 11.6184V8.36128C15.873 8.06383 16.5869 6.69554 16.8249 6.35347C20.7513 0.672097 35.8471 -0.264883 42.168 0.255662C47.1801 0.672097 59.3162 2.53118 60.0003 8.8967L59.9557 35.6378C59.3013 39.8617 52.7127 42.2859 49.0987 43.0295Z" fill="#20113E"/>
</g>
</svg>
