<svg width="80" height="27" viewBox="0 0 80 27" fill="none" xmlns="http://www.w3.org/2000/svg">
<g clip-path="url(#clip0_1593_1802)">
<mask id="mask0_1593_1802" style="mask-type:luminance" maskUnits="userSpaceOnUse" x="0" y="0" width="80" height="27">
<path d="M79.4891 0.457031H0.464844V26.7876H79.4891V0.457031Z" fill="white"/>
</mask>
<g mask="url(#mask0_1593_1802)">
<path d="M79.4891 13.606C79.4891 13.3945 79.4891 13.1829 79.4565 12.9551C79.1148 7.94285 74.8837 3.97211 69.6761 3.92329H48.9925C45.8354 3.93957 42.1902 2.70278 39.977 0.457031C37.7638 2.70278 34.1185 3.93957 30.9614 3.93957H10.2778C5.07025 3.97211 0.822861 7.94285 0.497391 12.9551C0.497391 13.1667 0.464844 13.3782 0.464844 13.606V13.6386C0.464844 13.8664 0.464844 14.0617 0.497391 14.2895C0.839135 19.3018 5.07025 23.2725 10.2778 23.3213H30.9614C34.1185 23.3213 37.7638 24.5581 39.977 26.8039C42.1902 24.5581 45.8354 23.3213 48.9925 23.3213H69.6761C74.8837 23.2725 79.1148 19.318 79.4565 14.2895C79.4565 14.078 79.4891 13.8664 79.4891 13.6386V13.606Z" fill="#112046"/>
<path d="M73.8586 17.4459C73.8586 17.4459 73.9563 17.4133 73.9563 17.3645C73.9563 17.3157 73.9074 17.2831 73.8586 17.2831H73.7284V17.4459H73.8586ZM73.5982 17.1692H73.8586C73.8586 17.1692 73.9888 17.2018 74.0214 17.218C74.0539 17.2506 74.0702 17.2994 74.0702 17.3645C74.0702 17.4621 74.0214 17.511 73.9563 17.5435L74.0865 17.7551H73.94L73.8098 17.5598H73.7122V17.7551H73.582V17.1855L73.5982 17.1692ZM73.8261 16.8438C73.4843 16.8438 73.1914 17.1367 73.1914 17.4784C73.1914 17.8202 73.4681 18.0968 73.8098 18.0968C74.1515 18.0968 74.4445 17.8039 74.4445 17.4621C74.4445 17.1204 74.1678 16.8438 73.8261 16.8438ZM73.8261 17.9829C73.5332 17.9829 73.3216 17.7713 73.3216 17.4621C73.3216 17.1529 73.5332 16.9414 73.8423 16.9414C74.1515 16.9414 74.3468 17.1692 74.3468 17.4621C74.3468 17.7551 74.119 17.9829 73.8261 17.9829Z" fill="white"/>
<path d="M72.3099 16.7963V9.50581C72.3099 9.42444 72.3099 9.31052 72.2448 9.24543C72.2122 9.19661 72.1308 9.18034 72.0332 9.18034H70.8127L70.9754 9.31052C70.9754 9.31052 71.6426 9.86382 71.6426 11.54V15.8525C71.6426 15.8525 66.2236 10.5473 65.8167 10.1405L65.0193 9.35934C65.0193 9.35934 64.824 9.18034 64.6776 9.16406H63.6523L63.7988 9.29425C63.7988 9.29425 64.2545 9.70109 64.2545 10.4985V17.789C64.2545 17.8704 64.2545 17.9843 64.3196 18.0494C64.3521 18.0982 64.4335 18.1145 64.5311 18.1145H65.7516L65.5889 17.9843C65.5889 17.9843 64.9379 17.431 64.9379 15.7548V11.4424C64.9379 11.4424 70.357 16.7475 70.7639 17.1381L71.5613 17.9192C71.5613 17.9192 71.7728 18.0982 71.903 18.1145H72.7818L72.6679 17.9843C72.6679 17.9843 72.3099 17.5775 72.3099 16.7801" fill="white"/>
<path d="M58.5255 9.47295C56.1821 9.66823 54.4409 11.556 54.4571 13.8831C54.4571 14.9897 54.7663 15.8684 55.3522 16.6008C56.1821 17.6097 57.4677 18.1956 58.8673 18.1956C60.1041 18.1956 61.2757 17.7074 62.0894 16.8937C62.9194 16.0475 63.4076 14.8432 63.3913 13.6227C63.3913 12.4673 62.9519 11.4258 62.1871 10.6772C61.2269 9.7496 60.039 9.35903 58.5255 9.48922M61.9104 13.818C61.9104 15.9986 60.5597 17.7724 58.8998 17.7724C57.2399 17.7724 55.8892 15.9986 55.8892 13.818C55.8892 11.6373 57.2399 9.86351 58.8998 9.86351C60.5597 9.86351 61.9104 11.6373 61.9104 13.818Z" fill="white"/>
<path d="M52.4119 16.096C52.2817 17.0073 51.5494 17.6745 50.6056 17.7071H50.394C49.9872 17.7071 49.6942 17.6583 49.206 17.5443C49.1247 17.5443 48.848 17.4304 48.848 17.105V10.0423H49.499C50.5567 10.0423 51.2077 10.4165 51.289 11.6533C51.3379 12.3205 51.0287 13.2481 49.9546 13.4109C49.9058 13.4109 49.857 13.4109 49.8082 13.4109C49.3525 13.4597 49.2549 13.7038 49.2549 13.7038L49.2223 13.7689H49.3037C49.3037 13.7689 49.4339 13.7689 49.6129 13.7689H49.8082C50.215 13.7689 51.1589 13.7689 51.94 14.5337C52.3143 14.9569 52.477 15.5427 52.3956 16.096M53.3232 14.3385C52.835 13.834 52.1353 13.5085 51.2728 13.3946C52.6723 12.8576 52.7537 11.6859 52.6072 11.1326C52.2329 9.71678 50.6381 9.61914 49.499 9.61914H46.9766L47.0579 9.70051C47.0579 9.70051 47.4485 10.1073 47.4485 10.742V17.1212C47.4485 17.6257 47.4973 17.7071 47.9692 17.8535C48.6527 18.0814 49.3525 18.2116 50.036 18.2116C50.4591 18.2116 50.8822 18.1627 51.3053 18.0651C52.2817 17.8535 52.9489 17.4955 53.4534 16.8934C54.0881 16.1123 54.0393 15.022 53.3232 14.3222" fill="white"/>
<path d="M40.6779 14.4517L42.0449 11.6364L43.2003 14.4354H40.6779V14.4517ZM45.8692 16.5184C44.7951 14.3378 42.9888 10.2857 42.6959 9.68356C42.647 9.58591 42.5657 9.43945 42.3867 9.43945C42.2239 9.43945 42.1588 9.56964 42.11 9.66728L38.3346 17.3809C38.1881 17.6901 37.944 17.9668 37.7812 18.0156H38.3508C38.8879 18.0156 39.0669 17.7715 39.197 17.5111L40.4013 15.005H43.1027C43.3142 15.005 43.4119 15.0538 43.5095 15.2491C43.5095 15.2491 44.0791 16.4045 44.4859 17.1368C44.8114 17.7227 45.4949 18.3085 46.9432 17.9831C46.3899 17.8529 46.1947 17.2182 45.8529 16.5347" fill="white"/>
<path d="M36.9493 16.7639V9.92899C36.9493 9.84762 36.9493 9.74998 36.9004 9.68488C36.8679 9.65234 36.7865 9.61979 36.7052 9.61979H35.566L35.7125 9.7337C35.7125 9.7337 36.3309 10.2545 36.3309 11.833V15.8688C36.3309 15.8688 31.2535 10.9054 30.863 10.5148L30.1144 9.78252C30.1144 9.78252 29.9191 9.61979 29.7889 9.60352H28.8125L28.9427 9.71743C28.9427 9.71743 29.3821 10.108 29.3821 10.8403V17.6752C29.3821 17.7566 29.3821 17.8542 29.4309 17.903C29.4634 17.9518 29.5448 17.9681 29.6262 17.9681H30.7653L30.6189 17.8379C30.6189 17.8379 30.0005 17.3172 30.0005 15.7386V11.7191C30.0005 11.7191 35.0778 16.6825 35.4684 17.0731L36.217 17.8054C36.217 17.8054 36.4122 17.9681 36.5424 17.9844H37.3561L37.2585 17.8705C37.2585 17.8705 36.9493 17.4799 36.9493 16.7313" fill="white"/>
<path d="M27.7735 16.7639V9.92899C27.7735 9.84762 27.7735 9.74998 27.7247 9.68488C27.6921 9.65234 27.6107 9.61979 27.5294 9.61979H26.3902L26.5367 9.7337C26.5367 9.7337 27.1551 10.2545 27.1551 11.833V15.8688C27.1551 15.8688 22.0777 10.9054 21.6872 10.5148L20.9386 9.78252C20.9386 9.78252 20.7433 9.61979 20.6131 9.60352H19.6367L19.7669 9.71743C19.7669 9.71743 20.2063 10.108 20.2063 10.8403V17.6752C20.2063 17.7566 20.2063 17.8542 20.2551 17.903C20.2877 17.9518 20.369 17.9681 20.4504 17.9681H21.5895L21.4431 17.8379C21.4431 17.8379 20.8247 17.3172 20.8247 15.7386V11.7191C20.8247 11.7191 25.902 16.6825 26.2926 17.0731L27.0412 17.8054C27.0412 17.8054 27.2365 17.9681 27.3666 17.9844H28.1803L28.0827 17.8705C28.0827 17.8705 27.7735 17.4799 27.7735 16.7313" fill="white"/>
<path d="M17.095 10.563V18.0163H18.5108V9.61914H16.5742C16.8183 9.73306 17.095 9.96088 17.095 10.563Z" fill="white"/>
<path d="M15.8259 16.9092C15.8259 16.9092 15.6957 16.958 15.6632 17.0068L15.6306 17.0394C14.524 18.0646 13.1733 18.5365 11.6111 18.4552C9.93489 18.3575 8.77947 17.5276 8.16108 15.9816C7.54269 14.4193 7.54269 12.8083 8.16108 11.1972C8.79575 9.50473 10.2115 8.49577 11.9203 8.49577C12.3271 8.49577 12.7502 8.54459 13.1571 8.67478C13.8243 8.87006 14.3125 9.29317 14.524 9.86274C14.7193 10.3998 14.6217 11.0182 14.2474 11.5552C14.0195 11.8969 13.5964 12.1248 13.1733 12.1248C12.7828 12.1248 12.4247 11.962 12.1969 11.6528C12.1969 11.6528 12.0993 11.5389 12.0016 11.5389C11.9528 11.5389 11.9365 11.5389 11.904 11.5877L11.8552 11.6203V11.6691C12.0342 12.4502 12.7828 13.0198 13.6453 13.0198C13.7754 13.0198 13.8731 13.0198 14.0033 12.9873C14.5891 12.8733 15.0773 12.5479 15.354 12.0759C15.6632 11.5715 15.7283 10.9368 15.5655 10.3021C15.3214 9.45591 14.7193 8.85378 13.7429 8.51204C12.4085 8.05638 10.9927 8.08893 9.59315 8.59341C7.94952 9.17926 6.89175 10.3672 6.41981 12.0759C6.09434 13.3127 6.28962 14.7448 6.37099 15.0052C6.37099 15.054 6.37099 15.0703 6.40354 15.1191C6.43609 15.2493 6.46863 15.3632 6.50118 15.4771C6.98939 16.9255 7.98207 17.9507 9.43041 18.4877C10.1464 18.7481 10.895 18.8783 11.6599 18.8783C12.262 18.8783 12.8967 18.7969 13.5313 18.6342C14.5078 18.3901 15.3214 17.9019 15.9561 17.1858L15.9886 17.137L15.9561 17.0882C15.9073 16.9905 15.8422 16.958 15.7771 16.958" fill="white"/>
<path d="M30.9584 21.4176C34.1642 21.4176 37.5166 22.5079 39.9739 24.3143C42.4312 22.5079 45.7835 21.4176 48.9894 21.4176H69.6405C73.8228 21.385 77.3054 18.1792 77.582 14.1433C77.582 13.9318 77.582 13.769 77.582 13.6226V13.59C77.582 13.4436 77.582 13.2808 77.582 13.0693C77.3054 9.03344 73.8391 5.84383 69.6568 5.79501H48.9894C45.7835 5.79501 42.4312 4.70469 39.9739 2.89832C37.5166 4.70469 34.148 5.79501 30.9584 5.79501H10.291C6.1087 5.84383 2.62616 9.03344 2.34951 13.0693C2.34951 13.2808 2.34951 13.4436 2.34951 13.59V13.6389C2.34951 13.7853 2.34951 13.948 2.34951 14.1596C2.62616 18.1954 6.09242 21.385 10.2747 21.4339H30.9584V21.4176ZM39.9739 25.0791L39.7949 24.9489C37.419 23.1263 34.1154 22.036 30.9584 22.036H10.2747C5.78322 21.9872 2.04031 18.5535 1.74739 14.2084C1.74739 13.9969 1.71484 13.8179 1.71484 13.6389V13.6063C1.71484 13.4436 1.71484 13.2646 1.74739 13.053C2.04031 8.70797 5.78322 5.25799 10.291 5.22544H30.9584C34.1154 5.22544 37.419 4.13511 39.7949 2.31248L39.9739 2.16602L40.1529 2.31248C42.5288 4.13511 45.8324 5.22544 48.9894 5.22544H69.6731C74.1483 5.25799 77.8912 8.70797 78.2004 13.053C78.2004 13.2646 78.2329 13.4436 78.2329 13.6063V13.6551C78.2329 13.8179 78.2329 13.9969 78.2004 14.2247C77.9075 18.5697 74.1646 22.0197 69.6568 22.0523H48.9894C45.8324 22.0523 42.5288 23.1263 40.1529 24.9652L39.9739 25.0954V25.0791Z" fill="#69C7C4"/>
</g>
</g>
<defs>
<clipPath id="clip0_1593_1802">
<rect width="79.0242" height="26.3306" fill="white" transform="translate(0.464844 0.457031)"/>
</clipPath>
</defs>
</svg>
