<svg width="92" height="18" viewBox="0 0 92 18" fill="none" xmlns="http://www.w3.org/2000/svg">
<mask id="mask0_1593_1830" style="mask-type:luminance" maskUnits="userSpaceOnUse" x="0" y="0" width="92" height="18">
<path d="M91.1526 0.078125H0.0859375V17.1653H91.1526V0.078125Z" fill="white"/>
</mask>
<g mask="url(#mask0_1593_1830)">
<path d="M16.4907 0.158589C17.0278 0.0284008 17.6462 0.0284007 18.1344 0.337598C18.5087 0.565427 18.769 0.907171 19.0131 1.26519C19.3874 0.597974 20.0709 0.0121272 20.8846 0.0772213C22.2027 -0.0204198 23.2442 1.52556 22.7398 2.74608C22.2678 3.83641 21.3077 4.60126 20.3476 5.23593C19.9407 5.4963 19.5502 5.82178 19.0945 6.01706C18.7853 6.01706 18.5412 5.78923 18.2971 5.65904C17.4997 5.10574 16.6209 4.63381 16.0188 3.85268C15.5469 3.33193 15.1075 2.69726 15.2051 1.96495C15.1238 1.135 15.791 0.467786 16.507 0.174862" fill="#F4BC5F"/>
<path d="M72.7466 3.81954C73.2511 3.73817 73.8695 3.67308 74.26 4.06364C74.9761 4.71458 74.6669 6.13038 73.723 6.40703C72.9093 6.69995 71.7864 6.01646 71.9166 5.10514C71.8841 4.55185 72.2096 3.99855 72.7466 3.81954Z" fill="#F4BC5F"/>
<path d="M57.677 5.3166C58.1327 4.77957 58.7674 4.34018 59.4834 4.34018C60.3134 4.32391 61.2735 4.19372 61.9407 4.82839C62.4615 5.21895 62.6567 5.93499 62.3964 6.53711C62.0546 7.07414 61.2735 7.26942 60.7527 6.84631C60.3784 6.61848 60.4273 6.13027 60.3784 5.75598C60.0855 5.82107 59.6787 5.8048 59.5973 6.17909C59.5485 6.42319 59.4183 6.79749 59.6787 6.96022C60.0204 7.05786 60.3784 7.04159 60.7202 7.13923C61.1921 7.35079 61.1108 8.00173 60.9806 8.40856C60.59 8.75031 59.9879 8.65267 59.516 8.8154C59.5322 10.1336 59.516 11.4517 59.516 12.7699C59.9553 12.8675 60.6551 12.6397 60.8341 13.2093C60.9806 13.6812 60.9155 14.3647 60.411 14.5762C59.516 14.7552 58.6046 14.3972 57.7096 14.5437C57.1563 14.5762 56.4565 14.8041 56.0334 14.3159C55.7405 13.8765 55.9032 13.3232 56.0334 12.8512C56.4077 12.835 56.7983 12.8512 57.1726 12.7699C57.319 11.4517 57.2051 10.1173 57.2214 8.79913C56.782 8.68521 56.1148 8.78286 55.9032 8.2621C55.8381 7.92036 55.8219 7.48097 56.0985 7.2206C56.424 7.04159 56.8146 7.02532 57.1726 6.92767C57.2377 6.39065 57.2865 5.8048 57.6445 5.36542" fill="#F4BC5F"/>
<path d="M51.3285 5.36705C51.9469 4.52083 53.0697 4.293 54.0624 4.3581C54.8273 4.3581 55.7386 4.6022 56.1129 5.35078C56.2593 5.85526 56.2919 6.53875 55.7874 6.84794C55.348 7.22224 54.632 7.12459 54.274 6.66894C54.095 6.40856 54.1601 6.08309 54.1275 5.79017C53.8346 5.82271 53.4277 5.79017 53.3138 6.13191C53.265 6.42483 53.2813 6.71776 53.265 7.01068C53.7695 7.14087 54.5832 6.92931 54.7459 7.59653C54.7947 7.922 54.7947 8.37766 54.4692 8.55666C54.095 8.68685 53.6881 8.7194 53.2813 8.75195C53.2162 10.0864 53.2813 11.4371 53.265 12.7878C53.6718 12.8854 54.3065 12.6413 54.5018 13.1295C54.7134 13.6177 54.632 14.3338 54.1112 14.5941C53.3627 14.7243 52.6141 14.529 51.8655 14.4965C51.2145 14.4965 50.4985 14.7731 49.8801 14.4965C49.4245 14.0734 49.4896 13.2923 49.8476 12.8203C50.1568 12.8203 50.4822 12.8203 50.8077 12.8203C51.0355 11.909 50.9379 10.9651 50.9704 10.0376C50.9704 9.64699 50.9867 9.24015 50.8565 8.86586C50.4822 8.67058 49.9778 8.76822 49.6686 8.44275C49.5384 8.10101 49.5709 7.72671 49.636 7.38497C49.8801 6.94559 50.5311 7.17342 50.8891 6.86422C51.003 6.35974 50.9704 5.80644 51.3122 5.38333" fill="#F4BC5F"/>
<path d="M43.8129 11.8758C43.3735 12.0222 43.4711 12.7545 43.8942 12.8685C44.3499 13.0149 44.8869 12.9498 45.2449 12.6244C45.5541 12.3152 45.5704 11.8595 45.5541 11.4527C44.9683 11.5829 44.3662 11.6317 43.8291 11.8758M42.7551 7.12391C43.7152 6.78216 44.773 6.76589 45.782 6.8798C46.4166 6.9449 47.0513 7.14018 47.5232 7.57957C47.8162 7.97013 47.9626 8.45834 48.0114 8.94654C48.0603 10.2484 47.9463 11.5503 48.0765 12.8359C48.402 12.8847 48.7438 12.8685 49.0367 13.0149C49.4761 13.4055 49.3784 14.2029 48.8902 14.5284C48.3695 14.8701 47.6697 14.9189 47.0839 14.7074C46.7258 14.5609 46.4655 14.2517 46.1563 14.0402C45.782 14.1541 45.489 14.447 45.131 14.5772C44.0733 14.984 42.7714 14.9677 41.8438 14.2517C41.0464 13.617 40.9162 12.4291 41.2905 11.534C41.6973 10.7692 42.5598 10.4274 43.3572 10.2647C43.9593 10.1182 44.594 10.1182 45.1636 9.84159C45.6192 9.61376 45.7331 8.89772 45.3426 8.55598C45.0659 8.21423 44.594 8.32815 44.2197 8.32815C44.1872 8.68617 44.1872 9.06046 44.0082 9.38593C43.52 10.0369 42.4134 10.0531 41.8763 9.45102C41.502 9.1581 41.5346 8.62107 41.6159 8.19796C41.7787 7.67721 42.2669 7.33546 42.7551 7.15645" fill="#F4BC5F"/>
<path d="M64.9531 11.9408C64.6602 12.1523 64.8229 12.5266 64.8555 12.8196C65.3762 12.9497 66.0435 13.0962 66.4666 12.6405C66.8571 12.3476 66.792 11.8269 66.8083 11.4038C66.1899 11.599 65.5227 11.6316 64.9531 11.9408ZM62.8701 8.05141C63.2119 7.3191 64.0744 7.02618 64.8067 6.89599C65.9621 6.73326 67.1826 6.74953 68.2567 7.22146C68.8425 7.44929 69.1192 8.10023 69.2005 8.66981C69.3144 10.0368 69.1029 11.4363 69.3144 12.8033C69.705 12.8684 70.242 12.8033 70.4373 13.2264C70.6977 13.6983 70.4861 14.333 70.0305 14.5771C69.168 15.049 67.9637 14.8375 67.3779 14.0238C66.6619 14.4306 65.9295 14.8212 65.0833 14.8212C64.3022 14.8375 63.4885 14.6259 62.9027 14.1214C62.2029 13.3403 62.1541 12.071 62.7399 11.2085C63.277 10.4762 64.2371 10.3297 65.0671 10.1507C65.5878 10.0205 66.1899 10.0205 66.613 9.62994C66.8897 9.40212 66.7758 8.99528 66.8083 8.68608C66.4503 8.34434 65.9946 8.21415 65.5064 8.26297C65.3925 8.76745 65.4088 9.41839 64.8718 9.66249C64.3185 9.93914 63.5048 9.92287 63.1142 9.38584C62.7399 9.0441 62.7399 8.4908 62.8701 8.05141Z" fill="#F4BC5F"/>
<path d="M80.6868 7.00968C81.4842 6.79812 82.4769 6.83067 83.0465 7.51416C83.7951 8.21392 83.6812 9.67853 82.6885 10.0691C82.2816 10.1342 81.7283 10.1993 81.4517 9.80872C81.1913 9.49953 81.3052 9.06014 81.2727 8.68585C80.5241 8.62076 80.101 9.38561 79.922 10.0203C79.7104 10.9153 79.8406 11.8429 79.8081 12.7542C80.1661 12.7868 80.5404 12.7542 80.8821 12.8681C81.2727 13.2424 81.2401 13.9259 80.9635 14.3653C80.7682 14.6745 80.3614 14.6257 80.0522 14.6257C79.3687 14.642 78.7015 14.4141 78.0343 14.528C77.5298 14.5769 76.9927 14.7071 76.4883 14.5443C76.0814 14.2188 76.1302 13.6167 76.2116 13.1611C76.3744 12.6566 76.9765 12.8031 77.367 12.7868C77.481 12.4125 77.5298 12.0382 77.5298 11.6476C77.5135 10.7038 77.5786 9.7599 77.4484 8.83231C77.0253 8.86486 76.6022 8.83231 76.1953 8.7184C76.1791 8.1651 75.9838 7.41651 76.5859 7.09104C77.0416 7.00968 77.5135 7.13987 77.9854 7.10732C78.376 7.10732 78.7666 6.9934 79.1571 7.10732C79.3524 7.56298 79.2873 8.05118 79.3036 8.53939C79.5965 7.90472 80.0033 7.23751 80.7194 7.02595" fill="#F4BC5F"/>
<path d="M86.3197 9.43382C86.4987 9.59656 86.7428 9.56401 86.9706 9.58029C87.5565 9.58029 88.1423 9.58028 88.7282 9.56401C88.6794 9.31991 88.7282 9.02699 88.5492 8.8317C87.8982 8.14822 86.5475 8.52251 86.3197 9.41755M85.6525 7.33454C86.8079 6.66732 88.2888 6.65105 89.4768 7.22062C90.6647 7.70883 91.1855 9.09208 91.1367 10.2963C91.1367 10.6218 91.1367 11.1263 90.7298 11.1751C89.2652 11.289 87.768 11.0774 86.3034 11.289C86.0919 12.2329 87.0032 13.0954 87.9145 12.9489C88.7933 12.9489 89.0699 11.7447 89.9487 11.826C90.3718 11.7609 90.8112 11.9888 90.9577 12.3956C91.039 12.7862 91.0228 13.2418 90.7624 13.5673C90.1603 14.3159 89.2001 14.6739 88.2725 14.7715C86.7916 14.9994 85.0992 14.3972 84.3669 13.0303C83.7648 12.1027 83.8299 10.9635 83.9112 9.90576C84.1065 8.86425 84.7086 7.87156 85.6525 7.31826" fill="#F4BC5F"/>
<path d="M71.3964 7.09023C71.9985 6.96005 72.6169 7.2367 73.219 7.13905C73.6421 7.07396 74.0815 7.05769 74.5209 7.07396C74.7487 8.96169 74.5534 10.8657 74.6348 12.7534C74.9765 12.786 75.3183 12.8022 75.66 12.786C75.9367 13.2416 76.0018 13.8275 75.7739 14.3157C75.3183 14.7713 74.6185 14.5598 74.0489 14.5272C73.2353 14.3645 72.4053 14.6086 71.5916 14.5761C71.1848 14.5761 70.8105 14.218 70.8268 13.8112C70.8268 13.502 70.7454 13.0789 71.0383 12.8673C71.3475 12.7209 71.7056 12.8022 72.0473 12.8022C72.2751 12.1676 72.1938 11.4841 72.1938 10.8331C72.1938 10.1822 72.2751 9.49872 72.0473 8.86405C71.6567 8.8315 71.0872 9.02678 70.8756 8.5874C70.7942 8.22938 70.8431 7.83882 70.8431 7.4808C71.0221 7.35061 71.1848 7.18788 71.3964 7.10651" fill="#F4BC5F"/>
<path d="M17.9028 9.54806C18.6188 9.54806 19.3349 9.5806 20.0509 9.54806C20.3438 9.59688 20.3275 9.23886 20.2136 9.07612C19.9532 8.60419 19.3674 8.31127 18.8466 8.52282C18.3747 8.63674 17.8702 9.01103 17.9028 9.54806ZM16.4544 7.88816C17.561 6.78156 19.3511 6.50491 20.7832 7.09075C21.8573 7.48132 22.6384 8.58792 22.6221 9.72706C22.6221 10.199 22.6709 10.7035 22.4919 11.1591C21.0924 11.2242 19.6929 11.1591 18.2933 11.1917C18.1143 11.1917 17.9516 11.2568 17.8051 11.3544C17.675 12.2332 18.5049 13.0469 19.3837 12.9329C20.1485 12.9818 20.4577 12.1193 21.0761 11.8426C21.4992 11.7938 22.02 11.7124 22.3129 12.0867C22.7848 12.5424 22.5407 13.3072 22.1502 13.7141C21.3528 14.5766 20.0997 14.8207 18.9768 14.7393C17.7238 14.7719 16.487 14.0721 15.8849 12.9655C15.0386 11.3707 15.2177 9.22258 16.4544 7.87188" fill="#1B191B"/>
<path d="M0.68676 8.42623C1.80963 6.76633 4.23439 6.39204 5.95938 7.28708C6.72424 7.67765 7.29381 8.60524 7.03343 9.46773C6.74051 10.3953 5.40608 10.6882 4.73887 10.0048C4.44594 9.69556 4.54358 9.23991 4.54358 8.84934C4.1042 8.71915 3.61599 8.67033 3.22543 8.94698C2.54194 9.41891 2.41175 10.3465 2.47685 11.1114C2.55822 11.6972 2.76977 12.3644 3.32307 12.6411C3.72991 12.8689 4.33203 12.9177 4.70632 12.5923C5.03179 12.218 5.12943 11.6809 5.48745 11.3392C5.97565 11.03 6.69169 11.1602 7.04971 11.6158C7.34263 11.9413 7.24499 12.4132 7.19617 12.8201C6.83815 13.829 5.86174 14.5288 4.83651 14.7241C3.84382 14.9845 2.78604 14.7892 1.891 14.3335C0.930863 13.8453 0.36129 12.8201 0.166007 11.7948C0.0683663 10.6557 0.0358193 9.41891 0.719307 8.42623" fill="#1B191B"/>
<path d="M11.8195 7.2044C12.324 6.87893 12.9424 6.87893 13.5283 6.92775C14.6511 7.05794 15.4485 8.42492 14.8952 9.45015C14.6349 10.1662 13.5445 10.3452 13.0401 9.82444C12.682 9.51524 12.8122 9.04331 12.8122 8.63647C12.5518 8.70157 12.2427 8.70156 12.0311 8.91312C11.4941 9.45015 11.4127 10.2475 11.3151 10.9473C11.2825 11.5657 11.25 12.2004 11.3964 12.8188C11.7056 12.8188 12.0311 12.7862 12.3403 12.7699C12.8285 13.2256 12.8285 14.2671 12.1776 14.5763C11.6243 14.6251 11.0872 14.5763 10.5339 14.4949C9.70398 14.3159 8.85776 14.7228 8.02781 14.5438C7.6047 14.2183 7.49078 13.5348 7.75116 13.0629C7.96271 12.5909 8.54856 12.835 8.93913 12.8025C9.03677 11.4681 9.02049 10.1336 8.93913 8.79921C8.56483 8.78293 8.07663 8.99449 7.79998 8.63647C7.32805 8.05062 7.73489 6.76502 8.62993 7.04167C9.32969 7.30204 10.0457 6.91148 10.7455 7.10676C10.7455 7.49732 10.7618 7.88789 10.7943 8.27845C11.1361 7.92044 11.3639 7.43223 11.8195 7.18813" fill="#1B191B"/>
<path d="M27.7488 8.86494C27.1304 9.23923 26.9677 10.0204 26.9352 10.6876C26.9352 11.3222 27.0328 12.0383 27.521 12.4777C27.7977 12.8031 28.2533 12.7055 28.6276 12.6729C29.246 12.38 29.5389 11.6314 29.5227 10.9642C29.5715 10.2807 29.4576 9.51588 28.9043 9.04395C28.5951 8.75102 28.1231 8.78357 27.7488 8.86494ZM26.5446 7.95362C27.0653 7.33523 27.7814 6.81447 28.6113 6.7982C29.7017 6.70056 30.8083 7.25386 31.3453 8.214C32.1101 9.64607 32.1264 11.4362 31.5243 12.9333C31.1825 13.7795 30.4828 14.4956 29.5877 14.7071C29.1321 14.7722 28.6602 14.7885 28.2208 14.7071C27.7651 14.5607 27.3745 14.2352 26.9514 14.0074C26.9189 14.463 26.9514 14.935 27.0979 15.3743C27.4722 15.2442 28.0092 15.114 28.2533 15.5534C28.351 15.9927 28.4323 16.5623 28.0418 16.8878C27.8302 17.0668 27.5536 17.1644 27.2769 17.1156C26.2354 16.9366 25.1776 16.9366 24.1361 17.1156C23.3062 17.1482 23.0295 16.009 23.4689 15.4394C23.7781 15.1302 24.2175 15.293 24.5918 15.2767C24.7057 13.9748 24.6243 12.6567 24.6406 11.3548C24.6243 10.5086 24.6894 9.64607 24.5755 8.79984C24.2012 8.78357 23.713 8.99512 23.4526 8.63711C23.0295 8.08381 23.3387 6.92839 24.1361 7.0423C24.8847 7.13994 25.6333 7.0423 26.3819 7.0423C26.4632 7.33523 26.5283 7.62815 26.5446 7.93735" fill="#1B191B"/>
<path d="M35.3164 9.51617C36.1301 9.59754 36.96 9.54872 37.7737 9.54872C37.9202 8.81641 37.0088 8.26311 36.3742 8.50721C35.8697 8.62113 35.4629 9.01169 35.3001 9.4999M33.9331 7.97019C34.6817 7.14024 35.8371 6.76594 36.9275 6.81477C38.0341 6.84731 39.222 7.35179 39.7753 8.37702C40.1985 9.22325 40.3937 10.2322 40.0683 11.1435C38.4897 11.3225 36.8949 11.0459 35.3327 11.3063C35.1862 12.2176 36.0162 13.0475 36.9275 12.9499C37.6435 12.9824 37.9853 12.2338 38.5223 11.8921C38.9942 11.7945 39.6289 11.7131 39.9381 12.2013C40.3124 12.6895 40.0357 13.3404 39.694 13.7636C39.1895 14.3006 38.4735 14.5935 37.7574 14.7237C36.7647 14.8051 35.6907 14.8702 34.7794 14.3494C33.5751 13.7147 32.9079 12.3152 32.9242 10.9808C32.8916 9.90673 33.2008 8.78386 33.9331 7.97019Z" fill="#1B191B"/>
</g>
</svg>
