<svg width="41" height="39" viewBox="0 0 41 39" fill="none" xmlns="http://www.w3.org/2000/svg">
<g clip-path="url(#clip0_1593_1850)">
<mask id="mask0_1593_1850" style="mask-type:luminance" maskUnits="userSpaceOnUse" x="0" y="0" width="41" height="39">
<path d="M40.2881 0.369141H0.417969V38.8723H40.2881V0.369141Z" fill="white"/>
</mask>
<g mask="url(#mask0_1593_1850)">
<path d="M13.4541 3.03868C10.3459 4.24292 7.59563 6.27711 5.56144 8.88087C3.38079 11.6474 2.07891 15.0648 1.88363 18.5636C3.07159 18.5962 4.25956 18.6124 5.44753 18.6287C5.44753 19.1006 5.43125 19.5563 5.41498 20.0282C4.22701 20.012 3.03905 19.9794 1.85108 19.9631C1.91617 23.6084 3.16923 27.2049 5.39871 30.1341C7.38408 32.7704 10.1018 34.8534 13.1937 36.0902C16.5461 37.4572 20.3053 37.8152 23.8692 37.1643C26.5868 36.6598 29.1906 35.5532 31.4038 33.9421C33.259 32.6077 34.8701 30.9152 36.0906 28.9949C37.6854 26.5051 38.6292 23.6247 38.792 20.6954C37.604 20.6629 36.416 20.6466 35.2281 20.6304C35.2281 20.1584 35.2444 19.7028 35.2606 19.2308C36.4486 19.2471 37.6366 19.2797 38.8245 19.2959C38.792 17.4733 38.4665 15.6344 37.8481 13.9094C36.8229 10.9802 35.0002 8.34385 32.6243 6.29338C30.1182 4.129 26.9774 2.64811 23.6901 2.06227C20.2727 1.46014 16.6763 1.78562 13.4378 3.05495M19.4753 0.386092C21.5095 0.304725 23.5437 0.51628 25.5128 1.02076C29.0767 1.93208 32.3802 3.85235 34.9189 6.47239C37.425 9.05988 39.1825 12.3309 39.8986 15.8297C40.5332 18.9054 40.3868 22.1275 39.4592 25.1218C38.2387 29.1089 35.6349 32.6565 32.1849 35.1138C30.3297 36.4319 28.263 37.4409 26.0661 38.0593C22.6975 39.0357 19.0847 39.1171 15.6836 38.3197C12.0709 37.4897 8.71851 35.6345 6.09847 33.0633C3.54353 30.5572 1.72089 27.335 0.907215 23.8851C0.0772654 20.3863 0.288821 16.6596 1.52561 13.2584C2.77867 9.74337 5.13833 6.61885 8.16521 4.37311C11.3874 1.96462 15.4069 0.548827 19.4753 0.386092Z" fill="#FBF178"/>
<path d="M18.9368 3.52734C19.2786 3.52734 19.6366 3.52734 19.9783 3.54362C19.9783 3.99928 19.9621 4.47121 19.9458 4.92687C20.4177 4.92687 20.9059 4.94314 21.3779 4.95941C21.3779 4.50375 21.3941 4.03182 21.4104 3.57616C21.7522 3.57616 22.1102 3.57616 22.4519 3.59244C22.4194 4.8455 22.4031 6.11483 22.3705 7.3679C22.0288 7.3679 21.6708 7.36789 21.329 7.35162C21.329 6.86342 21.3453 6.37521 21.3616 5.87073C20.8897 5.87073 20.4015 5.85446 19.9295 5.83818C19.9295 6.32639 19.9132 6.8146 19.897 7.31907C19.5552 7.31907 19.1972 7.31907 18.8555 7.3028C18.888 6.04974 18.9043 4.7804 18.9368 3.52734Z" fill="#FBF178"/>
<path d="M28.2498 5.33398C28.559 5.54554 28.8682 5.7571 29.1774 5.95238C28.9008 6.83115 28.6241 7.70992 28.3637 8.58869C29.0961 8.01912 29.8446 7.44954 30.5769 6.87997C30.8861 7.07525 31.1791 7.28681 31.4883 7.49836C30.3491 8.27949 29.2262 9.04435 28.0871 9.82548C27.7942 9.63019 27.485 9.41864 27.1758 9.22336C27.5338 7.92147 27.8755 6.63587 28.2336 5.33398" fill="#FBF178"/>
<path d="M12.2531 6.60335C12.367 7.07528 12.4809 7.54721 12.5949 8.00287C12.839 7.85641 13.0993 7.70995 13.3434 7.56349C12.9854 7.23802 12.6111 6.91255 12.2368 6.60335M11.293 6.11514C11.6347 5.91986 11.9765 5.72458 12.3182 5.5293C13.3923 6.37552 14.45 7.23802 15.5241 8.08424C15.1986 8.26325 14.8731 8.45853 14.5639 8.63754C14.3524 8.45853 14.1408 8.27952 13.9293 8.10051C13.555 8.31207 13.1807 8.52363 12.8064 8.75145C12.8715 9.01183 12.9366 9.28848 13.0017 9.54886C12.6925 9.72787 12.3833 9.90687 12.0741 10.0859C11.8137 8.76773 11.5533 7.44957 11.293 6.13142" fill="#FBF178"/>
<path d="M18.5474 9.79292C19.3773 9.66273 20.2561 9.56509 21.0698 9.79292C21.8184 9.9882 22.5018 10.4601 22.9738 11.0623C23.5108 11.7457 23.82 12.5757 23.9827 13.4056C24.2106 14.5773 24.2106 15.7978 24.0153 16.9695C23.5596 16.8231 23.0877 16.7092 22.6158 16.6115C22.7622 15.5863 22.7948 14.5285 22.5995 13.487C22.4368 12.6571 22.0462 11.7783 21.2976 11.3064C21.2651 13.0151 21.2325 14.7075 21.2 16.4162C20.7118 16.3837 20.2073 16.3837 19.7191 16.3837C19.7516 14.675 19.7842 12.9825 19.8167 11.2738C19.1658 11.6481 18.7589 12.3316 18.5311 13.0313C18.2056 14.0566 18.1568 15.1469 18.2382 16.2047C18.3684 17.8158 18.8728 19.4106 19.7842 20.7613C19.4587 21.1193 19.1332 21.461 18.7589 21.7702C17.7174 20.3382 17.0828 18.6294 16.8712 16.8882C16.7247 15.6839 16.7736 14.4634 17.0665 13.2917C17.2455 12.6082 17.5221 11.941 17.929 11.3552C16.5457 11.7946 15.2439 12.4943 14.1861 13.4707C12.3634 15.1469 11.3382 17.6042 11.4521 20.0452C10.8988 20.745 10.5245 21.5587 10.3781 22.4374C9.64576 19.9476 9.95496 17.1974 11.2243 14.9354C11.9729 13.5846 13.0469 12.413 14.3163 11.5342C15.5856 10.6717 17.0339 10.0696 18.5637 9.80919" fill="#FBF178"/>
<path d="M22.8959 9.9069C24.3117 10.2486 25.6462 10.8833 26.7853 11.7621C28.0221 12.7059 29.0311 13.9102 29.7308 15.2934C30.8862 17.588 31.0652 20.3382 30.2516 22.7793C30.0563 23.3488 29.8285 23.8859 29.5193 24.4066C29.1124 25.0738 28.494 25.6271 27.7617 25.9038C26.8179 26.2781 25.7601 26.2455 24.7999 25.9851C23.4167 25.6108 22.1148 24.9274 20.9919 24.0486C21.3499 23.7394 21.6917 23.3976 22.0172 23.0559C22.7007 23.5767 23.4492 24.0486 24.2629 24.3903C24.8488 24.6344 25.4834 24.8297 26.1344 24.8623C26.59 24.8785 27.0457 24.8134 27.4525 24.6019C25.9391 23.7231 24.4419 22.8443 22.9285 21.9656C23.2051 21.575 23.4492 21.1519 23.6933 20.7451C25.2068 21.6238 26.7039 22.5026 28.2174 23.3814C28.2174 22.7793 27.9407 22.226 27.5664 21.754C27.062 21.1194 26.3947 20.6149 25.695 20.1755C23.9049 19.1014 21.8219 18.4993 19.7226 18.597C19.5599 18.1576 19.4297 17.7019 19.332 17.23C21.3011 17.0672 23.319 17.4578 25.0929 18.2878C26.2646 18.8411 27.3712 19.5571 28.2336 20.5172C28.5754 20.8915 28.852 21.2984 29.0799 21.754C29.4379 20.1592 29.4053 18.4505 28.852 16.9045C28.1523 14.854 26.6063 13.0802 24.6535 12.0713C24.5884 12.0387 24.507 12.0062 24.4907 11.9248C24.1327 11.1437 23.5957 10.4439 22.9285 9.89062" fill="#FBF178"/>
<path d="M5.61313 12.0539C5.79214 11.6959 5.97115 11.3541 6.15016 10.9961C6.41053 11.5819 6.67091 12.1841 6.91501 12.7699C7.85888 12.6885 8.80274 12.5909 9.73033 12.4933C9.55132 12.8513 9.35604 13.2256 9.17703 13.5836C8.55864 13.6324 7.95652 13.6812 7.33812 13.73C7.41949 13.8928 7.48459 14.0555 7.56595 14.2345C7.9077 14.3973 8.24944 14.56 8.59119 14.7227C8.42845 15.0157 8.28199 15.3249 8.13553 15.6178C6.96383 15.0645 5.79214 14.4949 4.63672 13.9416C4.78318 13.6487 4.94592 13.3395 5.09238 13.0466C5.53176 13.2581 5.97115 13.4697 6.39426 13.6812C6.13388 13.1442 5.87351 12.5909 5.59686 12.0539" fill="#FBF178"/>
<path d="M31.3555 13.2087C32.5272 12.6717 33.7151 12.1347 34.8868 11.5977C35.2937 12.4113 35.6842 13.2413 36.0911 14.055C35.8144 14.1851 35.554 14.2991 35.2774 14.4292C35.017 13.9085 34.7729 13.3877 34.5125 12.8833C34.3335 12.9646 34.1545 13.046 33.9755 13.1274C34.1871 13.5505 34.3823 13.9736 34.5939 14.3967C34.3335 14.5106 34.0894 14.6245 33.829 14.7384C33.6175 14.3153 33.4222 13.8922 33.2106 13.4691C33.0154 13.5668 32.8201 13.6481 32.6085 13.7458C32.8689 14.2991 33.1456 14.8524 33.4222 15.4057C33.1456 15.5358 32.8852 15.6498 32.6085 15.78C32.1854 14.9175 31.7786 14.0712 31.3555 13.2087Z" fill="#FBF178"/>
<path d="M13.5835 19.2797C14.3646 18.7427 15.1946 18.3196 16.0896 17.9941C16.1873 18.4498 16.3175 18.9055 16.4639 19.3448C15.634 19.6703 14.8366 20.0609 14.1205 20.5816C13.6161 20.9396 13.1441 21.3628 12.8024 21.8835C12.5583 22.2578 12.3955 22.6809 12.363 23.1203C13.909 22.3066 15.455 21.4767 17.001 20.663C17.2125 21.0861 17.4566 21.5092 17.717 21.9161C16.2036 22.7297 14.6901 23.5271 13.1767 24.3245C13.1441 24.3245 13.1279 24.3571 13.0953 24.3734C13.6486 24.6826 14.3321 24.7151 14.9505 24.6337C15.7804 24.5198 16.5778 24.1944 17.3264 23.8038C19.1165 22.8599 20.6625 21.4279 21.6064 19.654C22.0946 19.7354 22.5665 19.8493 23.0222 20.0121C22.3712 21.3628 21.3948 22.567 20.2394 23.5271C19.2304 24.3734 18.075 25.0406 16.8219 25.4962C15.9595 25.8054 15.0156 25.9844 14.088 25.9031C15.3085 26.9771 16.8057 27.7745 18.4168 28.1163C20.6788 28.6045 23.1361 28.1814 25.1052 26.9771C26.0165 27.091 26.9441 26.9934 27.7903 26.6842C26.7488 27.7257 25.4632 28.5394 24.0799 29.0601C22.3712 29.6948 20.4998 29.8901 18.6934 29.6134C15.7967 29.174 13.0953 27.4979 11.5331 25.0568C11.1425 24.4059 10.9309 23.6573 10.996 22.8925C11.0611 22.1276 11.4029 21.4116 11.8748 20.8095C12.3467 20.2236 12.9326 19.7354 13.551 19.296" fill="#FBF178"/>
<path d="M5.5929 25.3818C5.72309 25.6585 5.82073 25.9514 6.06484 26.163C6.32521 26.4071 6.73205 26.4396 7.05752 26.3257C7.38299 26.2118 7.70846 25.9677 7.77356 25.6097C7.85492 25.2354 7.64337 24.8936 7.48063 24.5682C6.84597 24.8448 6.2113 25.1215 5.5929 25.3981M4.33984 24.8448C5.52781 24.3241 6.71578 23.8033 7.90374 23.2988C8.1153 23.7708 8.34313 24.2264 8.55469 24.6984C8.76624 25.2028 8.86388 25.8049 8.63605 26.3094C8.40822 26.8139 7.90375 27.1394 7.38299 27.3184C6.92733 27.4811 6.39031 27.4811 5.95092 27.2533C5.51154 27.0417 5.18607 26.6349 4.97451 26.1955C4.76296 25.7399 4.5514 25.2842 4.33984 24.8285" fill="#FBF178"/>
<path d="M32.5273 23.8691C33.7315 24.3411 34.952 24.813 36.1563 25.2849C36.0261 25.5941 35.8959 25.9033 35.7657 26.2125C34.5615 25.7406 33.341 25.2687 32.1367 24.813C32.2669 24.5038 32.3971 24.1946 32.5273 23.8854" fill="#FBF178"/>
<path d="M30.1197 27.6607C30.4452 27.2213 30.9334 26.8795 31.503 26.8145C31.5681 27.0748 31.6169 27.3515 31.682 27.6281C31.3565 27.7095 31.0148 27.8397 30.8195 28.1163C30.7381 28.2302 30.6568 28.4093 30.7707 28.5394C30.8683 28.6534 31.0311 28.6696 31.1612 28.6045C31.5844 28.4093 31.9586 28.0675 32.4306 27.9861C33.0164 27.8722 33.6674 28.2953 33.7487 28.8812C33.8464 29.4345 33.5534 29.9878 33.1466 30.3621C32.8049 30.7364 32.3167 30.9967 31.8122 31.0618C31.7471 30.7526 31.682 30.4435 31.6332 30.1343C31.9586 30.0854 32.3004 29.9715 32.5282 29.7274C32.6421 29.6135 32.756 29.467 32.756 29.288C32.756 29.1253 32.5608 29.0114 32.398 29.0602C32.0563 29.1578 31.7796 29.3857 31.4704 29.5321C31.1775 29.6786 30.8195 29.7437 30.494 29.6298C30.0709 29.467 29.778 29.0439 29.7617 28.6045C29.7617 28.2628 29.8919 27.9373 30.1035 27.6607" fill="#FBF178"/>
<path d="M11.6165 27.5632C11.9257 27.4493 12.3 27.7585 12.2024 28.0839C12.1373 28.3931 11.6816 28.5233 11.4538 28.2955C11.2097 28.0839 11.3073 27.6445 11.6165 27.5632Z" fill="#FBF178"/>
<path d="M8.88047 29.5967C9.4175 29.0109 9.95453 28.4413 10.4916 27.8555L11.2564 28.5227C10.7357 29.076 10.2312 29.6293 9.71042 30.1826C9.54769 30.3616 9.4175 30.6057 9.49887 30.8335C9.59651 31.0288 9.77552 31.1915 9.98707 31.2729C10.2312 31.338 10.4753 31.1753 10.6543 31.0125C11.175 30.4592 11.6795 29.9059 12.2003 29.3526C12.4606 29.5805 12.721 29.8083 12.9814 30.0361C12.4606 30.6057 11.9236 31.1753 11.4029 31.7286C11.1588 32.0052 10.8333 32.2168 10.459 32.2656C10.0033 32.347 9.54769 32.2005 9.18967 31.9238C8.79911 31.6309 8.47364 31.1915 8.44109 30.7033C8.39227 30.2802 8.58755 29.8734 8.8642 29.5805" fill="#FBF178"/>
<path d="M12.5426 28.3598C12.8518 28.2296 13.2098 28.5225 13.1447 28.848C13.0959 29.1734 12.624 29.3199 12.3962 29.0921C12.1521 28.8968 12.2497 28.4574 12.5426 28.376" fill="#FBF178"/>
<path d="M26.6854 31.55C26.7668 32.0219 26.8481 32.4938 26.9458 32.9658C27.2062 32.8356 27.4665 32.7054 27.7269 32.5752C27.3852 32.2335 27.0434 31.8917 26.6854 31.55ZM25.7578 31.0129C26.1158 30.8339 26.4576 30.6549 26.8156 30.4922C27.8245 31.4035 28.8335 32.3148 29.8425 33.2424C29.517 33.4051 29.1753 33.5679 28.8498 33.7469C28.6545 33.5516 28.4592 33.3563 28.2477 33.161C27.8571 33.3563 27.4828 33.5516 27.0922 33.7469C27.1411 34.0073 27.1899 34.2839 27.2387 34.5606C26.9132 34.7233 26.604 34.886 26.2786 35.0325C26.0996 33.6981 25.9368 32.3799 25.7578 31.0455" fill="#FBF178"/>
<path d="M14.755 31.0293C15.0479 31.1269 15.3571 31.2246 15.6501 31.3059C15.9104 32.1196 16.1545 32.9333 16.4149 33.747C16.6428 33.0798 16.8543 32.4125 17.0821 31.7453C17.4076 31.843 17.7331 31.9406 18.0585 32.0545C17.668 33.2588 17.2611 34.4467 16.8543 35.651C16.5777 35.5696 16.2847 35.472 16.0081 35.3906C15.7477 34.5444 15.4711 33.7144 15.2107 32.8682C14.9829 33.5517 14.755 34.2352 14.5272 34.9349C14.2017 34.8373 13.8763 34.7397 13.5508 34.6257C13.9413 33.4215 14.3482 32.2335 14.755 31.0293Z" fill="#FBF178"/>
<path d="M22.4065 32.0065C22.7971 31.9739 23.1713 31.9414 23.5619 31.8926C23.1876 32.6574 22.8133 33.4386 22.439 34.2034C22.4065 34.2522 22.4065 34.3011 22.4065 34.3662C22.4553 34.8381 22.5041 35.31 22.553 35.7982C22.2112 35.8308 21.8695 35.8633 21.5277 35.8959C21.4626 35.3914 21.4301 34.8869 21.365 34.3987C20.8442 33.6827 20.2909 32.9829 19.7539 32.2669C20.1445 32.2343 20.5513 32.1855 20.9419 32.153C21.2348 32.5761 21.5277 32.9992 21.8369 33.4223C22.0322 32.9504 22.2275 32.4784 22.4065 32.0228" fill="#FBF178"/>
<path d="M22.4044 32.0065C22.2091 32.4784 22.0301 32.9504 21.8348 33.406C21.5419 32.9829 21.249 32.5598 20.9398 32.1367C20.5492 32.1693 20.1424 32.2181 19.7518 32.2506C20.2888 32.9667 20.8258 33.6664 21.3629 34.3825C21.428 34.8869 21.4605 35.3751 21.5256 35.8796C21.8673 35.8471 22.2091 35.8145 22.5671 35.782C22.5183 35.31 22.4695 34.8381 22.4206 34.3499C22.4206 34.3011 22.4206 34.2523 22.4532 34.2034C22.8275 33.4386 23.2018 32.6737 23.5761 31.8926C23.1855 31.9251 22.8112 31.9577 22.4206 32.0065M14.7558 31.0301C14.3653 32.2343 13.9584 33.4223 13.5516 34.6266C13.877 34.7242 14.2025 34.8218 14.528 34.9357C14.7558 34.2523 14.9836 33.5688 15.2115 32.8853C15.4719 33.7315 15.7322 34.5615 16.0089 35.4077C16.2855 35.4891 16.5785 35.5867 16.8551 35.6681C17.2619 34.4638 17.6525 33.2759 18.0593 32.0716C17.7339 31.974 17.4084 31.8601 17.0829 31.7624C16.8551 32.4296 16.6435 33.0968 16.4157 33.7641C16.1553 32.9504 15.9112 32.1367 15.6509 31.323C15.3417 31.2254 15.0487 31.1277 14.7558 31.0464M25.7567 31.0138C25.9357 32.3483 26.0985 33.6827 26.2775 35.0008C26.6029 34.8381 26.9121 34.6916 27.2376 34.5289C27.1888 34.2685 27.14 33.9919 27.0911 33.7152C27.4817 33.52 27.8723 33.3247 28.2466 33.1294C28.4419 33.3247 28.6371 33.52 28.8487 33.7152C29.1742 33.5525 29.5159 33.3898 29.8414 33.2108C28.8324 32.2994 27.8235 31.3881 26.8145 30.4605C26.4565 30.6395 26.1147 30.8185 25.7567 30.9976M12.5426 28.3612C12.2334 28.4589 12.1521 28.882 12.3962 29.0773C12.6403 29.3214 13.0959 29.1749 13.1447 28.8332C13.2261 28.5077 12.8518 28.2148 12.5426 28.345M8.88108 29.598C8.60443 29.9072 8.40914 30.3141 8.45796 30.7209C8.49051 31.2091 8.81598 31.6485 9.20655 31.9414C9.56456 32.2018 10.0202 32.3645 10.4759 32.2832C10.8502 32.2181 11.1756 32.0065 11.4197 31.7461C11.9405 31.1766 12.4775 30.607 12.9983 30.0537C12.7379 29.8259 12.4775 29.598 12.2171 29.3702C11.6964 29.9235 11.1919 30.4768 10.6712 31.0301C10.5084 31.1928 10.2643 31.3556 10.0039 31.2905C9.79239 31.2254 9.59711 31.0627 9.51574 30.8511C9.43438 30.6233 9.56456 30.3629 9.7273 30.2002C10.2318 29.6469 10.7525 29.0936 11.2733 28.5403C11.0129 28.3124 10.7525 28.0846 10.5084 27.873C9.9714 28.4589 9.43438 29.0285 8.89735 29.6143M11.615 27.5638C11.3058 27.6452 11.2082 28.0846 11.4523 28.2962C11.6801 28.524 12.1358 28.3938 12.2009 28.0846C12.2985 27.7591 11.9405 27.4499 11.615 27.5638ZM30.118 27.6615C29.9065 27.9219 29.76 28.2636 29.7763 28.6054C29.7763 29.0447 30.0855 29.4678 30.5086 29.6306C30.8341 29.7445 31.1758 29.6631 31.485 29.5329C31.8105 29.3865 32.0708 29.1424 32.4126 29.061C32.5591 29.0122 32.7543 29.1261 32.7706 29.2888C32.7706 29.4678 32.6567 29.598 32.5428 29.7282C32.2987 29.9723 31.9732 30.0862 31.6477 30.1188C31.7128 30.428 31.7616 30.7372 31.8267 31.0464C32.3475 30.9813 32.8194 30.7209 33.1612 30.3466C33.5517 29.9561 33.8447 29.419 33.747 28.8657C33.6657 28.2799 33.0147 27.8568 32.4289 27.9707C31.9569 28.0683 31.5826 28.3938 31.1595 28.5891C31.0293 28.6542 30.8666 28.6379 30.769 28.524C30.655 28.3938 30.7364 28.2148 30.8178 28.1009C31.0131 27.8242 31.3548 27.694 31.6803 27.6127C31.6152 27.336 31.5664 27.0756 31.5013 26.799C30.9317 26.8641 30.4435 27.2221 30.118 27.6452M32.5265 23.8698C32.3963 24.179 32.2661 24.4881 32.1359 24.7973C33.3402 25.2693 34.5607 25.7412 35.7649 26.1969C35.8951 25.8877 36.0253 25.5785 36.1555 25.2693C34.9513 24.7973 33.7307 24.3254 32.5265 23.8698ZM4.34076 24.8299C4.55232 25.2856 4.76387 25.7412 4.97543 26.1969C5.18699 26.6363 5.51246 27.0268 5.95184 27.2546C6.39123 27.4662 6.92825 27.4825 7.38391 27.3035C7.90466 27.1245 8.39287 26.799 8.63697 26.2945C8.88108 25.7738 8.78343 25.1879 8.55561 24.6834C8.34405 24.2115 8.11622 23.7558 7.90466 23.2839C6.7167 23.8047 5.52873 24.3254 4.34076 24.8299ZM31.3548 13.2106C31.7779 14.0568 32.1848 14.9193 32.6079 15.7818C32.8845 15.6516 33.1449 15.5377 33.4215 15.4075C33.1449 14.8542 32.8845 14.3009 32.6079 13.7476C32.8032 13.65 33.0147 13.5686 33.21 13.471C33.4215 13.8941 33.6331 14.3172 33.8284 14.7403C34.0888 14.6264 34.3329 14.5125 34.5932 14.3986C34.3817 13.9755 34.1864 13.5523 33.9748 13.1292C34.1539 13.0479 34.3329 12.9665 34.5119 12.8851C34.7723 13.4059 35.0164 13.9266 35.2767 14.4311C35.5534 14.3009 35.8138 14.187 36.0904 14.0568C35.6836 13.2269 35.293 12.4132 34.8862 11.5995C33.6982 12.1365 32.5265 12.6736 31.3548 13.2106ZM5.6101 12.0552C5.87047 12.5922 6.13085 13.1455 6.4075 13.6825C5.96811 13.471 5.545 13.2594 5.10562 13.0479C4.95916 13.3408 4.79642 13.65 4.64996 13.9429C5.82165 14.4962 6.97707 15.0658 8.14877 15.6191C8.3115 15.3099 8.45796 15.017 8.60443 14.724C8.26268 14.5613 7.92094 14.3986 7.57919 14.2358C7.49783 14.0731 7.43273 13.8941 7.35137 13.7313C7.96976 13.6825 8.57188 13.6337 9.19027 13.5849C9.38555 13.2269 9.56456 12.8526 9.74357 12.4946C8.79971 12.5922 7.87212 12.6736 6.92825 12.7712C6.66788 12.1854 6.4075 11.5832 6.1634 10.9974C5.98439 11.3391 5.80538 11.6972 5.62637 12.0552M20.1424 8.73538C18.2221 8.76793 16.3018 9.27241 14.6419 10.2163C12.3473 11.5019 10.5247 13.6012 9.64593 16.0585C9.04381 17.7184 8.8648 19.5084 9.12518 21.2497C9.35301 22.8282 9.95513 24.3417 10.8502 25.6598C12.3148 27.8405 14.5931 29.4678 17.148 30.1839C19.1171 30.7372 21.2327 30.7697 23.2018 30.2815C25.8218 29.6306 28.1815 28.0358 29.7112 25.8551C30.6388 24.5532 31.2572 23.0561 31.5338 21.4938C31.8593 19.6224 31.6803 17.6533 30.9968 15.8632C30.0692 13.4222 28.214 11.3554 25.8869 10.0861C24.1456 9.14222 22.144 8.65401 20.1424 8.70283M11.2896 6.11534C11.5499 7.4335 11.8103 8.75165 12.0707 10.0698C12.3799 9.8908 12.6891 9.71179 12.9983 9.53278C12.9332 9.27241 12.8681 8.99575 12.803 8.73538C13.1773 8.52382 13.5516 8.29599 13.9259 8.08444C14.1374 8.26345 14.349 8.44246 14.5605 8.63774C14.886 8.45873 15.2115 8.26345 15.5207 8.08444C14.4629 7.23821 13.3888 6.37572 12.3148 5.52949C11.973 5.72478 11.6313 5.92006 11.2896 6.11534ZM28.2466 5.33421C27.8886 6.63609 27.5468 7.9217 27.1888 9.22358C27.4817 9.41887 27.7909 9.63042 28.1001 9.8257C29.2393 9.04458 30.3621 8.27972 31.5013 7.49859C31.1921 7.28704 30.8992 7.09175 30.59 6.8802C29.8576 7.44977 29.1091 8.01934 28.3768 8.58892C28.6534 7.71015 28.9301 6.83138 29.1904 5.95261C28.8812 5.74105 28.572 5.52949 28.2628 5.33421M18.9381 3.52785C18.9056 4.78091 18.8893 6.05025 18.8567 7.30331C19.1985 7.30331 19.5565 7.30331 19.8983 7.31958C19.8983 6.83138 19.9145 6.34317 19.9308 5.83869C20.4027 5.83869 20.8909 5.85497 21.3629 5.87124C21.3629 6.35944 21.3466 6.84765 21.3303 7.35213C21.6721 7.35213 22.0301 7.35213 22.3718 7.3684C22.4044 6.11534 22.4206 4.84601 22.4532 3.59295C22.1114 3.59295 21.7534 3.59295 21.4117 3.57667C21.4117 4.03233 21.3954 4.50426 21.3791 4.95992C20.9072 4.95992 20.419 4.94365 19.9471 4.92737C19.9471 4.47172 19.9633 3.99978 19.9796 3.54413C19.6379 3.54413 19.2799 3.54413 18.9381 3.52785ZM13.4539 3.03965C16.6924 1.78658 20.2888 1.44484 23.7063 2.04696C27.0098 2.63281 30.1343 4.1137 32.6404 6.27808C35.0164 8.31227 36.839 10.9649 37.8642 13.8778C38.4663 15.6028 38.7918 17.4417 38.8406 19.2643C37.6527 19.2481 36.4647 19.2155 35.2767 19.1993C35.2767 19.6549 35.2605 20.1268 35.2442 20.5988C36.4321 20.6151 37.6201 20.6476 38.8081 20.6639C38.6291 23.5931 37.7015 26.4735 36.1067 28.9634C34.8862 30.8836 33.2751 32.5761 31.4199 33.9105C29.1904 35.5216 26.6029 36.6282 23.8853 37.1327C20.3214 37.7999 16.5622 37.4256 13.2098 36.0586C10.1179 34.8056 7.40019 32.7226 5.41482 30.1025C3.20162 27.1733 1.93228 23.5768 1.86719 19.9316C3.05515 19.9478 4.24312 19.9804 5.43109 19.9967C5.43109 19.5247 5.44736 19.0691 5.46364 18.5971C4.27567 18.5646 3.0877 18.5483 1.89973 18.532C2.09502 15.0495 3.3969 11.6321 5.57755 8.84929C7.59547 6.24553 10.362 4.21134 13.4702 3.0071" fill="#6E1236"/>
<path d="M12.25 6.60352C12.6243 6.92899 12.9823 7.25446 13.3403 7.57993C13.0962 7.72639 12.8358 7.87285 12.5917 8.01931C12.4778 7.54738 12.3639 7.07545 12.25 6.61979" fill="#6E1236"/>
<path d="M5.59375 25.3827C6.22842 25.106 6.86308 24.8294 7.48148 24.5527C7.62794 24.8782 7.8395 25.2199 7.7744 25.5942C7.70931 25.9523 7.38384 26.1964 7.05837 26.3103C6.7329 26.4405 6.32606 26.3916 6.06568 26.1475C5.83785 25.936 5.72394 25.6431 5.59375 25.3664" fill="#6E1236"/>
<path d="M26.6836 31.5508C27.0253 31.8925 27.3671 32.2343 27.7251 32.576C27.4647 32.7062 27.2043 32.8364 26.944 32.9666C26.8626 32.4946 26.7812 32.0227 26.6836 31.5508Z" fill="#6E1236"/>
<path d="M13.5868 19.2803C12.9684 19.7034 12.3826 20.1916 11.9106 20.7937C11.4387 21.3958 11.097 22.1119 11.0319 22.8767C10.9505 23.6253 11.1621 24.3902 11.5689 25.0411C13.1312 27.4821 15.8326 29.1583 18.7292 29.5977C20.5356 29.8743 22.4071 29.679 24.1158 29.0444C25.5153 28.5236 26.7846 27.7099 27.8261 26.6684C26.9799 26.9776 26.0361 27.059 25.141 26.9614C23.1719 28.1656 20.7146 28.5887 18.4363 28.1005C16.8252 27.7588 15.3281 26.9614 14.1076 25.8873C15.0352 25.9687 15.9627 25.7734 16.8415 25.4805C18.0946 25.0411 19.25 24.3576 20.259 23.5114C21.4307 22.5512 22.3908 21.347 23.0417 19.9963C22.5861 19.8498 22.0979 19.7359 21.6259 19.6383C20.6821 21.4121 19.1361 22.8442 17.3297 23.788C16.5811 24.1786 15.8 24.4878 14.9538 24.618C14.3354 24.6993 13.6519 24.6668 13.0986 24.3576C13.1149 24.3413 13.1474 24.3088 13.18 24.3088C14.6934 23.5114 16.2069 22.6977 17.7203 21.9003C17.4599 21.4935 17.2158 21.0866 17.0043 20.6472C15.4583 21.4609 13.9123 22.2909 12.3663 23.1045C12.3988 22.6652 12.5616 22.242 12.8057 21.8678C13.1474 21.347 13.6194 20.9402 14.1238 20.5659C14.8399 20.0614 15.6373 19.6546 16.4672 19.3291C16.3208 18.8897 16.1906 18.434 16.0929 17.9784C15.2142 18.3039 14.3679 18.7432 13.5868 19.264M22.8953 9.90672C23.5788 10.4437 24.1158 11.1435 24.4575 11.9409C24.4738 12.0223 24.5552 12.0548 24.6203 12.0874C26.5731 13.1126 28.1191 14.8701 28.8188 16.9206C29.3721 18.4666 29.4047 20.1753 29.0467 21.7701C28.8351 21.3307 28.5422 20.9076 28.2004 20.5333C27.3379 19.5732 26.2313 18.8572 25.0596 18.3039C23.2696 17.4739 21.2679 17.0833 19.2825 17.2461C19.3802 17.7017 19.5104 18.1574 19.6731 18.6131C21.7724 18.5154 23.8717 19.1175 25.6455 20.1916C26.3453 20.6147 27.0125 21.1192 27.5332 21.7701C27.9075 22.242 28.1679 22.7953 28.1842 23.3975C26.6707 22.5187 25.1736 21.6399 23.6601 20.7612C23.4323 21.1843 23.1719 21.5911 22.8953 21.9817C24.4087 22.8604 25.9059 23.7392 27.4193 24.618C27.0125 24.8133 26.5568 24.8946 26.1012 24.8784C25.4502 24.8458 24.8318 24.6668 24.2297 24.4064C23.4323 24.0647 22.6837 23.609 21.984 23.072C21.6585 23.4137 21.3167 23.7555 20.9587 24.0647C22.0816 24.9435 23.3672 25.6269 24.7667 26.0012C25.7269 26.2453 26.7846 26.2779 27.7285 25.9199C28.4608 25.6269 29.0955 25.0899 29.5023 24.4227C29.8115 23.9182 30.0393 23.3649 30.2346 22.7953C31.0646 20.3543 30.8856 17.6204 29.7139 15.3095C29.0304 13.9263 28.0052 12.722 26.7684 11.7782C25.6292 10.8994 24.2785 10.2647 22.879 9.92299M18.5502 9.7928C17.0368 10.0532 15.5722 10.6553 14.3028 11.5178C13.0172 12.3966 11.9595 13.5683 11.2109 14.919C9.94154 17.181 9.61607 19.9475 10.3647 22.4211C10.5111 21.5586 10.9017 20.7286 11.4387 20.0288C11.3248 17.5878 12.35 15.1305 14.1727 13.4543C15.2304 12.4779 16.5323 11.7782 17.9156 11.3388C17.4925 11.9246 17.2158 12.5756 17.0531 13.2753C16.7602 14.447 16.7276 15.6838 16.8578 16.8881C17.0693 18.6293 17.704 20.338 18.7455 21.7701C19.1198 21.4609 19.4453 21.1192 19.7708 20.7612C18.8594 19.3942 18.355 17.8156 18.2248 16.2046C18.1434 15.1468 18.1922 14.0565 18.5177 13.0312C18.7455 12.3315 19.1524 11.648 19.8033 11.2737C19.7708 12.9824 19.7382 14.6749 19.6894 16.3836C20.1776 16.3836 20.6821 16.3836 21.1703 16.4161C21.2028 14.7074 21.2354 13.015 21.2679 11.3062C22.0328 11.7944 22.4071 12.6569 22.5698 13.4869C22.7814 14.5121 22.7488 15.5699 22.5861 16.6114C23.058 16.709 23.5299 16.823 23.9856 16.9694C24.1809 15.7977 24.1809 14.5772 23.9693 13.4055C23.8066 12.5593 23.5137 11.7456 22.9604 11.0621C22.4884 10.46 21.8212 10.0044 21.0564 9.7928C20.2264 9.56497 19.3639 9.66261 18.534 9.7928M20.145 8.73502C22.1304 8.70248 24.1321 9.17441 25.8896 10.1183C28.2167 11.3713 30.0719 13.4543 30.9995 15.8791C31.683 17.6692 31.862 19.622 31.5365 21.5097C31.2761 23.072 30.6415 24.5692 29.7139 25.8548C28.1842 28.0354 25.8245 29.6302 23.2045 30.2812C21.2191 30.7694 19.1035 30.7368 17.1507 30.1835C14.5958 29.4675 12.3175 27.8239 10.8529 25.6432C9.95782 24.3251 9.3557 22.7953 9.12787 21.2331C8.86749 19.4918 9.0465 17.7017 9.64862 16.0418C10.5274 13.5845 12.35 11.4852 14.6446 10.1996C16.3045 9.25578 18.2248 8.7513 20.145 8.71875" fill="#0A6752"/>
</g>
</g>
<defs>
<clipPath id="clip0_1593_1850">
<rect width="39.8701" height="38.5032" fill="white" transform="translate(0.417969 0.369141)"/>
</clipPath>
</defs>
</svg>
