<svg width="56" height="44" viewBox="0 0 56 44" fill="none" xmlns="http://www.w3.org/2000/svg">
<mask id="mask0_1593_1880" style="mask-type:luminance" maskUnits="userSpaceOnUse" x="0" y="0" width="56" height="44">
<path d="M55.7167 0.0761719H0.289062V43.1685H55.7167V0.0761719Z" fill="white"/>
</mask>
<g mask="url(#mask0_1593_1880)">
<path d="M45.7886 15.2594C46.1304 15.7313 46.7488 15.8778 47.2695 16.0405C47.9042 16.2358 48.5551 15.9917 49.1735 15.8127C49.4664 15.7313 49.7756 15.6174 49.9709 15.357C49.4827 15.2594 48.9782 15.3245 48.49 15.2756C47.595 15.1943 46.6999 15.2431 45.8049 15.2431M8.27814 15.2919C7.57838 15.3407 6.84607 15.2919 6.14631 15.4221C6.47178 15.715 6.86235 15.894 7.28546 15.9754C8.26187 16.3171 9.35219 16.0405 10.1659 15.4384C10.1659 15.3896 10.1659 15.2919 10.1659 15.2431C9.5312 15.1943 8.89654 15.2105 8.26187 15.2919M12.3465 12.6231C12.2163 13.3391 11.8746 13.9738 11.6468 14.6572C13.4857 14.5759 15.3083 14.6247 17.1472 14.6084C17.9772 14.6084 18.8234 14.6084 19.6533 14.6572C19.8486 14.3481 19.9951 14.0063 20.2066 13.7134C20.646 13.1601 21.5248 13.2252 22.0293 13.632C22.3873 14.0551 22.4687 14.6247 22.5012 15.1617C22.7616 14.7874 23.0708 14.4294 23.5102 14.283C24.4866 13.9412 25.5606 13.9412 26.5533 14.1853C26.1465 13.5832 25.4142 13.3879 24.7795 13.1438C24.1286 12.9485 23.4613 12.5417 22.7616 12.7207C21.476 13.0462 20.1741 13.2252 18.8559 13.2577C17.7331 13.2252 16.5939 13.2089 15.4873 13.0624C14.4295 13.0136 13.4043 12.7532 12.3465 12.6556M32.3467 12.7044C31.354 13.0624 30.2637 13.3228 29.4663 14.0714C30.0033 14.0226 30.5566 13.8761 31.1099 13.9412C31.7283 14.0226 32.3792 14.0714 32.9163 14.4131C33.1766 14.6084 33.3394 14.8851 33.5184 15.1455C33.5997 14.6898 33.6486 14.2179 33.8601 13.7948C34.2832 13.1764 35.2434 13.0462 35.7967 13.5669C36.057 13.8436 36.1872 14.2179 36.35 14.5596C37.4566 14.5759 38.5632 14.5108 39.6698 14.5271C41.2646 14.4945 42.8431 14.5922 44.4216 14.5596C44.1287 13.9087 43.8683 13.2415 43.6893 12.558C42.062 12.916 40.4021 13.0299 38.7584 13.1601C36.9521 13.274 35.1295 13.0787 33.3719 12.6556C33.0464 12.5417 32.6884 12.5905 32.363 12.7044M50.1662 12.1186C50.0035 12.4115 49.8244 12.6882 49.678 12.9973C50.0197 13.1113 50.3452 13.2577 50.7032 13.3065C50.5893 12.916 50.5242 12.5091 50.394 12.1186C50.3127 12.1186 50.2313 12.1186 50.1499 12.1186M5.64183 12.1186C5.49537 12.5254 5.36518 12.9323 5.36518 13.3716C5.69065 13.2903 6.01612 13.1438 6.32532 13.0136C6.17886 12.7044 6.04867 12.3952 5.86966 12.1186C5.78829 12.1186 5.7232 12.1186 5.64183 12.1186ZM24.6005 12.1186C24.6005 12.1186 24.6005 12.2325 24.6005 12.265C25.7559 12.737 26.7974 13.5506 27.5297 14.5922C27.6111 14.5922 27.6925 14.5922 27.7575 14.5922C27.5785 13.3879 26.9601 12.1999 26 11.4514C25.4793 11.5165 25.0561 11.8907 24.5842 12.1023M29.629 11.7117C28.913 12.5417 28.2783 13.5669 28.262 14.7061C28.7665 14.2504 29.1408 13.6483 29.6941 13.2577C30.2474 12.8021 30.8983 12.4766 31.533 12.1511C31.0773 11.9558 30.638 11.728 30.2311 11.4514C29.987 11.2886 29.7592 11.549 29.6127 11.7117M28.3271 9.57991C28.2458 10.4587 28.1969 11.3537 28.2458 12.2488C28.6689 11.8257 28.9618 11.2886 29.3849 10.8492C29.0594 10.3936 28.7177 9.9542 28.3271 9.57991ZM27.6274 9.53109C27.3507 10.0193 26.9601 10.4261 26.6347 10.8655C27.0252 11.2724 27.3507 11.728 27.6599 12.1999C27.6925 12.1999 27.7738 12.1674 27.8064 12.1674C27.7738 11.3049 27.725 10.4424 27.7575 9.57991C27.725 9.57991 27.6762 9.56364 27.6436 9.56364M19.7184 8.65232C19.0187 8.89642 18.3515 9.22189 17.6029 9.30326C18.3677 9.72637 19.2302 9.98675 20.0764 10.182C20.5484 10.2959 21.1668 10.2634 21.4434 9.79146C21.6062 9.53109 21.5085 9.20562 21.4434 8.94524C21.3946 8.68487 21.2156 8.32685 20.9064 8.3594C20.4996 8.40822 20.109 8.55468 19.7184 8.65232ZM34.6738 8.78251C34.5762 9.07543 34.4948 9.46599 34.7063 9.72637C34.983 10.003 35.3573 10.2146 35.7641 10.1007C36.6592 9.9542 37.5379 9.67755 38.3842 9.33581C37.9936 9.12425 37.5705 9.04288 37.1636 8.88015C36.5452 8.63605 35.9269 8.3594 35.2759 8.26175C34.9342 8.13157 34.7389 8.52213 34.6901 8.78251M27.4321 1.1665C27.546 0.792207 27.4321 0.238907 27.904 0.0761719C28.1318 0.531831 28.3597 1.00376 28.4736 1.52452C28.7665 2.40329 29.1571 3.24951 29.2873 4.1771C29.2873 4.56766 29.3361 5.08842 28.9292 5.2837C28.7665 5.38134 28.6038 5.44643 28.441 5.5278C28.441 5.85327 28.441 6.17874 28.441 6.52049C28.8316 6.48794 29.2384 6.34148 29.6127 6.52049C30.1172 6.71577 30.2637 7.52945 29.808 7.87119C29.5314 8.00138 29.1896 7.90374 28.913 7.87119C28.913 7.77355 28.8967 7.57827 28.8804 7.48063C29.1571 7.56199 29.4663 7.65963 29.7592 7.56199C29.6778 7.28534 29.5476 6.97615 29.2873 6.82968C28.9943 6.68322 28.7665 6.92733 28.5875 7.12261C28.3922 7.31789 28.4573 7.62709 28.441 7.87119C28.441 8.89642 28.9943 9.82401 29.6778 10.5563C30.1172 10.2959 30.5566 10.003 30.817 9.57991C31.2401 8.88015 30.9146 8.00138 31.2889 7.28534C31.5656 6.74832 32.1189 6.42285 32.7047 6.37403C33.1115 6.40657 33.3882 6.86223 33.3556 7.2528C33.2905 7.61081 33.0139 8.00138 32.6071 7.88746C32.249 7.78982 32.1189 7.39926 31.9398 7.12261C31.8097 7.23652 31.6795 7.36671 31.6469 7.54572C31.533 8.27803 31.712 9.04288 31.5005 9.75892C31.2889 10.3285 30.8495 10.7353 30.4264 11.1422C31.0448 11.4514 31.6632 11.8419 32.3792 11.8745C32.9163 11.7606 33.4207 11.5165 33.8764 11.2235C33.7788 10.7679 33.5509 10.361 33.4533 9.90538C33.4533 9.54736 33.8438 9.38463 34.0554 9.1568C34.0066 8.63605 34.1368 7.95256 34.6901 7.75727C35.8943 7.52945 37.066 8.11529 38.075 8.73369C38.7584 9.07543 39.5233 8.91269 40.2231 8.68487C39.6047 9.49854 38.6283 9.90538 37.6844 10.1658C36.9521 10.3448 36.2361 10.7028 35.4712 10.6702C35.0969 10.6865 34.6738 10.6377 34.4134 10.3448C34.2344 10.1169 34.2344 9.79147 34.1693 9.51482C34.0066 9.62873 33.7788 9.72637 33.7137 9.93793C33.8601 10.3773 34.2344 10.7353 34.2344 11.2235C34.153 11.6304 33.8276 11.9233 33.6486 12.2813C36.3174 12.6231 39.0351 12.5905 41.704 12.3952C42.4363 12.3301 43.1686 12.265 43.8846 12.1349C44.2752 12.8997 44.5355 13.7134 45.0238 14.4294C45.1702 14.6898 45.512 14.5759 45.7398 14.6247C47.3021 14.6735 48.8643 14.7223 50.4266 14.641C50.8009 14.5433 50.7195 14.0551 50.8009 13.7785C50.4428 13.7297 50.1011 13.5832 49.7431 13.5344C49.5803 13.4856 49.2549 13.5018 49.2223 13.2577C49.1735 12.8346 49.32 12.4115 49.5966 12.086C49.7593 11.8907 49.9221 11.6304 50.1825 11.549C50.4754 11.3863 50.6707 11.6629 50.8009 11.8745C51.2402 12.6556 51.5983 13.5669 51.3704 14.462C51.3542 14.5596 51.3216 14.6735 51.4193 14.7386C51.6471 14.9176 51.9075 15.0641 52.119 15.2756C52.5096 15.6174 52.835 16.073 53.307 16.3334C53.7626 16.6101 54.3159 16.6589 54.8367 16.5938C55.2273 16.4311 55.4063 16.008 55.4551 15.6011C55.2923 15.5197 55.1459 15.4221 54.9832 15.3407C55.0157 15.6174 55.0645 15.894 54.9832 16.1544C54.8855 16.1544 54.7879 16.187 54.6902 16.187C54.6414 15.7801 54.6414 15.3733 54.7879 14.999C55.0645 15.0641 55.4876 14.9014 55.6341 15.2594C55.8619 15.7313 55.7968 16.366 55.4225 16.724C55.0482 17.082 54.4949 17.2936 53.9742 17.1634C53.1931 17.0657 52.477 16.6589 51.9725 16.0568C51.7122 15.7964 51.4518 15.4547 51.045 15.4872C50.7846 15.6174 50.6381 15.9103 50.4103 16.0893C50.1174 16.3985 49.7105 16.4962 49.3362 16.6263C48.6853 16.8704 47.9855 16.8704 47.302 16.8216C46.3094 16.724 45.4957 16.0405 44.8936 15.2594C43.3964 15.2594 41.8992 15.1455 40.4021 15.0804C39.1165 15.0804 37.8309 14.9664 36.5615 15.0478C36.2686 15.1129 36.057 15.3407 35.7804 15.4547C35.7153 14.9664 35.699 14.3969 35.3247 14.0226C34.9993 13.811 34.4785 13.8436 34.2507 14.2016C33.8927 14.7712 33.974 15.4709 33.8438 16.1056C33.795 16.3171 33.6486 16.4962 33.4533 16.5775C33.2743 16.5287 33.1115 16.4148 32.9325 16.4473C32.6071 16.4962 32.2653 16.4799 31.9724 16.3334C32.0375 15.9754 32.2979 15.6499 32.6722 15.6011C32.6722 15.7964 32.6722 16.008 32.6722 16.2032C32.8837 16.1056 33.1766 15.9754 33.079 15.6499C33.1278 15.3407 32.8674 15.1292 32.6722 14.9339C32.1026 14.5108 31.354 14.5596 30.6868 14.5759C30.0196 14.5759 29.3524 14.8525 28.8479 15.2919C28.555 15.5197 28.4573 15.894 28.2132 16.1707C28.1481 16.2521 28.0017 16.3009 27.9366 16.187C27.6762 15.8615 27.4809 15.4384 27.1392 15.1943C26.2767 14.5759 25.1701 14.462 24.1448 14.6084C23.7705 14.7386 23.3149 14.8851 23.1684 15.2919C23.0545 15.536 23.087 15.8127 23.087 16.0893C23.2335 16.1056 23.38 16.1219 23.5427 16.1544C23.5427 15.9754 23.5427 15.7964 23.5427 15.6174C23.7543 15.715 23.9495 15.8452 24.1448 15.9754C24.1123 16.1707 24.0635 16.366 24.0146 16.545C23.5427 16.545 23.0545 16.4799 22.5988 16.5938C22.0618 16.0568 22.2408 15.2431 22.0618 14.5759C21.9642 14.3155 21.8014 14.0226 21.5411 13.9249C21.2644 13.8924 20.8738 13.8761 20.7111 14.1528C20.4507 14.5433 20.467 15.0478 20.3856 15.5035C20.1415 15.3407 19.9137 15.1129 19.6045 15.0641C18.8559 14.9827 18.1073 15.0641 17.3588 15.0804C15.3734 15.1292 13.3718 15.2105 11.3864 15.2594C11.2399 15.2594 11.1586 15.3896 11.0609 15.4872C10.768 15.8289 10.4425 16.1544 10.0682 16.3985C8.7338 17.1959 6.97626 16.9844 5.70693 16.1381C5.44655 15.9591 5.28381 15.6988 5.08853 15.4547C4.32368 15.6174 3.98193 16.4473 3.29844 16.7891C2.66378 17.1634 1.8501 17.4075 1.15034 17.082C0.434304 16.8054 0.0111928 15.6825 0.662134 15.1292C0.906237 14.999 1.34562 14.9827 1.44326 15.3245C1.49208 15.6337 1.44326 15.9591 1.44326 16.2683C1.32935 16.2032 1.18289 16.1544 1.10152 16.0568C1.00388 15.8615 1.06897 15.6174 1.0527 15.4058C0.857416 15.4872 0.662134 15.6662 0.710954 15.9103C0.808595 16.2846 1.10152 16.6589 1.52463 16.6914C2.17557 16.8379 2.82651 16.5124 3.29844 16.0893C3.60764 15.8452 3.80292 15.4709 4.11212 15.2431C4.32368 15.0966 4.56778 14.9502 4.77934 14.8037C4.6166 13.9412 4.68169 12.9973 5.1699 12.2488C5.33263 12.0047 5.4791 11.6792 5.78829 11.5816C6.06494 11.6141 6.2765 11.8257 6.43923 12.0372C6.78098 12.4278 6.89489 12.9485 6.97626 13.453C6.68334 13.5181 6.37414 13.5506 6.06494 13.632C5.80457 13.7297 5.54419 13.8598 5.28381 13.9575C5.38146 14.2341 5.44655 14.4945 5.52792 14.7712C6.55315 14.8037 7.57838 14.7874 8.60361 14.7874C9.38474 14.7874 10.1496 14.6247 10.9307 14.7223C11.4515 13.9738 11.8095 13.1275 12.135 12.2813C12.3465 12.2813 12.5744 12.2976 12.7859 12.3139C15.7965 12.6231 18.8397 12.7532 21.8503 12.444C22.0781 12.4115 22.3059 12.3627 22.5175 12.2976C22.2083 11.9884 21.834 11.6304 21.8177 11.1747C21.9479 10.7842 22.2246 10.475 22.3222 10.0681C22.3547 9.84029 22.1432 9.7101 21.9804 9.59618C21.9154 10.0681 21.6387 10.5889 21.1505 10.7191C20.5972 10.8004 20.0114 10.7842 19.4906 10.5726C18.6606 10.2634 17.7656 10.1495 16.9845 9.69382C16.5939 9.46599 16.2033 9.20562 15.8942 8.86387C16.6265 8.97779 17.4401 9.17307 18.1236 8.76623C19.0838 8.16411 20.1904 7.67591 21.3295 7.8061C21.9316 8.01765 22.0944 8.70114 22.0455 9.28699C22.2896 9.48227 22.5663 9.67755 22.6639 9.98675C22.5663 10.4099 22.2571 10.7679 22.2571 11.2073C22.3547 11.4839 22.6639 11.6141 22.9243 11.728C23.2335 11.8257 23.5264 11.9721 23.8519 12.0047C24.4703 11.8582 25.0399 11.5653 25.6094 11.2724C25.2677 10.8655 24.8446 10.5075 24.6493 9.98675C24.275 9.12425 24.7469 8.11529 24.275 7.26907C24.2425 7.26907 24.1611 7.28534 24.1123 7.30162C23.9821 7.52945 23.8844 7.83864 23.6241 7.95256C23.3474 8.09902 22.9406 7.9851 22.8267 7.65963C22.7128 7.28534 22.7128 6.71577 23.1359 6.55303C23.6403 6.3903 24.1936 6.66695 24.5517 7.02497C25.0887 7.61081 24.8771 8.47331 25.0887 9.18935C25.2189 9.88911 25.7885 10.3773 26.3906 10.6702C27.1392 9.97047 27.6436 8.96152 27.6599 7.92001C27.6111 7.62709 27.5948 7.22025 27.2856 7.07379C27.1066 6.92733 26.8788 6.9436 26.6835 7.00869C26.4557 7.15516 26.4557 7.4969 26.358 7.72473C26.6347 7.8061 26.8951 7.67591 27.1554 7.57827C27.188 7.67591 27.2042 7.77355 27.2368 7.88746C26.9764 8.0502 26.6021 8.21293 26.3418 7.9851C25.9512 7.87119 26.0163 7.39926 26.0814 7.07379C26.1302 6.81341 26.4068 6.6995 26.6021 6.58558C26.9276 6.43912 27.2693 6.58558 27.5948 6.66695C27.5785 6.29266 27.6274 5.88582 27.5134 5.5278C27.3182 5.34879 26.9764 5.39761 26.83 5.13724C26.5696 4.84431 26.6347 4.40493 26.6347 4.03064C26.651 3.03795 27.2531 2.19173 27.4484 1.24787" fill="#258AB5"/>
<path d="M4.76387 21.1021C5.82165 19.6375 7.93721 19.2957 9.49947 20.0443C9.87376 20.2721 10.2481 20.5162 10.5084 20.8743C10.8339 21.2323 10.9315 21.7205 11.1594 22.1273C11.3058 22.2901 11.4686 22.4202 11.5662 22.6318C10.7688 22.7945 9.93885 22.7457 9.12518 22.7132C9.174 22.5179 9.22282 22.3063 9.28791 22.1111C8.96244 21.7205 8.58815 21.2974 8.05112 21.2323C7.2049 21.0695 6.3424 21.5903 6.03321 22.3877C5.74028 23.1526 5.64264 24.0151 5.88675 24.8125C6.00066 25.4471 6.4075 26.0981 7.02589 26.2933C7.64429 26.5537 8.45796 26.5212 8.94617 26.0004C9.14145 25.7563 9.35301 25.4959 9.38555 25.1705C9.33673 25.0566 9.23909 24.9752 9.15772 24.8938C9.14145 24.7636 9.12518 24.6172 9.1089 24.487C9.87376 24.4382 10.6549 24.4056 11.436 24.487C11.436 24.5684 11.4686 24.7474 11.4848 24.8287C11.1594 25.1542 11.0943 25.6424 10.9153 26.0492C10.6223 26.8141 9.98767 27.4162 9.27164 27.7417C7.93721 28.2136 6.32613 28.0834 5.21953 27.1233C4.1943 26.212 3.78746 24.7311 3.90138 23.3804C4.04784 22.583 4.24312 21.753 4.76387 21.1021Z" fill="#258AB5"/>
<path d="M15.502 22.1764C15.3392 22.3717 15.2253 22.6158 15.1602 22.8761C14.9649 23.5108 14.7208 24.1292 14.493 24.7639C15.1114 24.7639 15.7461 24.7639 16.3645 24.715C16.0227 23.8851 15.7786 23.0226 15.502 22.1926M14.0699 19.8981C15.03 19.8493 16.0064 19.7516 16.9503 19.9469C16.8689 20.191 16.6248 20.4188 16.6899 20.6955C17.4873 22.7459 18.2034 24.8452 18.9682 26.912C19.0333 27.3188 19.5866 27.3351 19.5703 27.7907C18.8543 27.9047 18.122 27.8558 17.3897 27.8558C17.1944 27.8721 17.0154 27.7582 16.8852 27.6443C16.9991 27.449 17.1619 27.2537 17.0968 27.0096C17.0479 26.7167 16.934 26.4238 16.8527 26.1308C15.9739 26.082 15.0951 26.0495 14.2326 26.1146C13.9885 26.1471 13.9397 26.4563 13.8583 26.6516C13.8095 26.8306 13.6956 27.0096 13.7119 27.2049C13.7607 27.4002 13.8421 27.6117 13.8909 27.807C13.0447 27.8884 12.1822 27.8884 11.3359 27.8558C11.3359 27.6768 11.3522 27.5466 11.3685 27.3676C11.6126 27.3676 11.8567 27.2863 11.9381 27.0096C12.6541 25.0893 13.3864 23.1691 14.1024 21.2488C14.1838 21.0372 14.2977 20.8257 14.314 20.5978C14.2814 20.3537 14.1513 20.1422 14.1024 19.9144" fill="#258AB5"/>
<path d="M22.4528 24.307C22.3388 24.9742 22.3877 25.6577 22.4039 26.3412C23.1037 26.3412 23.7872 26.39 24.487 26.3412C24.8938 26.3249 25.382 26.032 25.382 25.5764C25.3657 25.2834 25.4308 24.9091 25.203 24.6976C24.4219 24.0955 23.3641 24.4209 22.469 24.3233M22.3877 21.2964C22.3877 21.8985 22.3877 22.5007 22.4528 23.0865C23.1525 23.0377 23.8686 23.1191 24.552 22.9563C25.203 22.7936 25.3006 21.6544 24.6497 21.4103C23.9174 21.1337 23.1362 21.2476 22.3714 21.2801M20.1256 19.9457C20.9556 19.783 21.8181 19.8644 22.6643 19.8481C23.5919 19.8806 24.5195 19.7667 25.4308 19.962C25.9678 20.141 26.5537 20.4827 26.749 21.0523C26.8629 21.5243 26.9768 22.045 26.7652 22.5169C26.6351 22.9238 26.3096 23.2167 26.0167 23.5096C26.3584 23.77 26.7815 23.9653 26.9768 24.3721C27.2372 24.8278 27.2209 25.3811 27.1884 25.8856C27.0907 26.8131 26.277 27.5129 25.4308 27.7082C24.3079 28.0011 23.1362 27.8221 21.9971 27.8221C21.4113 27.8221 20.8091 27.8872 20.2233 27.8221C20.2233 27.6431 20.2233 27.4966 20.2233 27.3339C20.4186 27.2363 20.7115 27.1549 20.5976 26.8457C20.5976 24.7301 20.5976 22.6146 20.5976 20.4827C20.3698 20.3688 20.1745 20.1898 20.1094 19.9457" fill="#258AB5"/>
<path d="M31.4831 22.1101C31.2227 22.9726 30.9135 23.8026 30.6206 24.6488C31.2227 24.7302 31.8248 24.6976 32.4107 24.6814C32.1991 23.8189 31.8411 22.9889 31.597 22.1427C31.5645 22.1427 31.4994 22.1101 31.4668 22.1101M30.0673 19.9295C31.0112 19.8318 31.955 19.8481 32.8989 19.8807C32.8989 20.2061 32.6873 20.5316 32.8175 20.8408C33.5986 22.9726 34.4123 25.0882 35.1772 27.22C35.3074 27.22 35.4213 27.22 35.5515 27.22C35.5677 27.4153 35.6003 27.5943 35.6166 27.7896C35.3236 27.8384 35.0307 27.8221 34.7378 27.8384C34.1682 27.8384 33.5987 27.871 33.0291 27.8059C33.0291 27.4967 33.1755 27.2038 33.2081 26.8946C33.1593 26.5854 32.9965 26.2924 32.8663 25.9995C32.0038 26.0646 31.1251 25.9995 30.2626 26.0646C29.9859 26.1785 29.9371 26.5365 29.8395 26.7806C29.7093 27.1224 29.8883 27.4641 29.9046 27.8059C29.0746 27.8059 28.2284 27.871 27.3984 27.7896C27.3984 27.6269 27.3984 27.4641 27.3984 27.3014C27.61 27.22 27.8866 27.1875 27.9517 26.9271C28.7491 24.7627 29.5628 22.6146 30.3602 20.4665C30.2138 20.3038 30.1161 20.0922 30.0347 19.8969" fill="#258AB5"/>
<path d="M36.1693 19.9453C36.8853 19.7988 37.6339 19.8477 38.3662 19.8477C39.245 21.2309 40.0912 22.6304 40.9049 24.0299C41.0513 24.3066 41.2303 24.5507 41.4256 24.7623C41.5233 23.3302 41.4582 21.8981 41.4582 20.466C41.3605 20.401 41.2791 20.3359 41.1815 20.287C41.1815 20.1406 41.1815 19.9941 41.2141 19.8477C41.9789 19.8477 42.7438 19.7988 43.5249 19.8639C43.5249 19.9778 43.5249 20.1731 43.5249 20.287C43.4435 20.287 43.2808 20.3359 43.1994 20.3521C43.1832 22.5491 43.2157 24.7623 43.1669 26.9592C43.1506 27.1707 43.3784 27.2521 43.5086 27.3497C43.5086 27.4799 43.5086 27.6264 43.5086 27.7566C42.8414 27.7729 42.1905 27.8054 41.5233 27.7566C41.3442 27.7566 41.2629 27.5613 41.1815 27.4311C40.4004 26.1618 39.6355 24.9087 38.8707 23.6394C38.6917 23.3465 38.5289 23.0373 38.2685 22.8094C38.1872 23.2325 38.2523 23.6719 38.236 24.095C38.2523 25.1365 38.236 26.1618 38.236 27.2033C38.3499 27.2521 38.4476 27.2847 38.5615 27.3335C38.5615 27.4311 38.5615 27.6427 38.5777 27.7566C38.3336 27.8054 38.0895 27.8054 37.8617 27.8054C37.3084 27.8054 36.7551 27.838 36.2018 27.7566C36.2018 27.4799 36.3645 27.2847 36.5761 27.1545C36.6086 25.1854 36.5761 23.2325 36.5924 21.2635C36.5598 21.0031 36.6249 20.7102 36.511 20.466C36.3645 20.3033 36.2018 20.1243 36.1367 19.8965" fill="#258AB5"/>
<path d="M47.7091 23.3952C47.5626 23.8346 47.3836 24.2577 47.2534 24.7134C47.8555 24.7134 48.4576 24.7134 49.0598 24.6645C48.8157 23.8183 48.5227 22.9884 48.2461 22.1584C47.9694 22.5164 47.8555 22.9721 47.6928 23.3952M46.8628 19.8638C47.7904 19.8638 48.7343 19.7337 49.6456 19.9452C49.5805 20.1405 49.4503 20.3032 49.4341 20.4985C49.5317 21.0355 49.7921 21.5237 49.9711 22.0282C50.5732 23.7044 51.2241 25.348 51.7612 27.0405C51.8914 27.2032 52.1029 27.252 52.2819 27.3497C52.2819 27.4961 52.2819 27.6426 52.2657 27.7891C51.4194 27.8867 50.5569 27.8541 49.6944 27.8216C49.6944 27.4473 49.9385 27.073 49.7921 26.6987C49.7107 26.5034 49.6944 26.2593 49.548 26.0803C48.6204 26.0315 47.6928 26.0803 46.7815 26.0641C46.6676 26.3244 46.5862 26.6011 46.4886 26.8777C46.3746 27.1869 46.5374 27.4961 46.5699 27.7891C45.7237 27.8867 44.8775 27.8541 44.0312 27.8541C44.0312 27.6263 44.0313 27.4148 44.0638 27.2032C44.2103 27.2195 44.3567 27.2358 44.5195 27.252C45.3494 25.1853 46.0817 23.1023 46.8954 21.0355C47.0581 20.6613 46.9442 20.2544 46.8628 19.8964" fill="#258AB5"/>
<path d="M16.7085 31.6633C16.6109 31.6795 16.6434 31.8585 16.7411 31.8097C16.8387 31.7935 16.8062 31.6307 16.7085 31.6633ZM14.3001 31.2402C14.3326 31.3541 14.3814 31.468 14.4302 31.5982C14.593 31.5982 14.7394 31.5982 14.9022 31.5982C14.951 31.468 14.9835 31.3541 15.0324 31.2239C14.7883 31.1588 14.5442 31.1751 14.3163 31.2239M16.4482 30.7519C16.6597 30.7519 16.8713 30.7194 17.0991 30.7031C17.2293 31.3866 17.4408 32.0864 17.7989 32.6885C17.5873 32.6885 17.3758 32.7048 17.1479 32.721C17.1317 32.5909 17.0991 32.4607 17.0828 32.3305C16.9201 32.3305 16.7411 32.3305 16.5784 32.3305C16.497 32.4607 16.4319 32.5909 16.3668 32.721C15.9274 32.721 15.4718 32.721 15.0324 32.721C14.9998 32.5095 14.9673 32.3142 14.9185 32.1026C14.7394 32.0538 14.5604 32.0538 14.3814 32.0376C14.3977 32.2491 14.4302 32.4769 14.4628 32.6885C14.2512 32.6885 14.0397 32.7048 13.8281 32.721C13.8769 32.0538 13.8607 31.4029 13.8281 30.7357C14.235 30.7357 14.6418 30.7194 15.0324 30.7357C15.2439 30.7357 15.4067 30.931 15.488 31.1262C15.6345 31.3378 15.4229 31.5493 15.4067 31.7609C15.4067 32.005 15.4392 32.2491 15.4718 32.4932C15.6182 32.4932 15.7484 32.4932 15.8949 32.5258C16.0739 31.9236 16.318 31.3541 16.4644 30.7519" fill="#258AB5"/>
<path d="M18.0423 30.9472C18.2213 30.6869 18.5793 30.7357 18.856 30.7031C19.2303 30.7031 19.4093 31.0774 19.6045 31.3378C19.1814 31.4354 18.8071 31.2402 18.4166 31.1262C18.4166 31.1751 18.4166 31.2727 18.4166 31.3215C18.7421 31.4517 19.1001 31.5168 19.393 31.7284C19.5232 31.8911 19.5232 32.1189 19.5232 32.3305C19.214 32.8675 18.3027 32.9326 17.9772 32.3793C17.8796 32.2491 17.8796 32.0864 17.8633 31.9399C18.2701 32.0213 18.5956 32.3305 19.0187 32.3142C19.0187 32.2328 19.0187 32.1352 19.0187 32.0538C18.6932 31.9399 18.3352 31.9074 18.0748 31.6633C17.8958 31.4843 18.0097 31.1588 18.0423 30.9472Z" fill="#258AB5"/>
<path d="M19.75 30.7526C19.9941 30.7526 20.2382 30.7363 20.4823 30.7363C20.4172 31.3873 20.287 32.0708 20.4823 32.7054C20.2382 32.7054 19.9941 32.7217 19.75 32.738C19.9616 32.1033 20.0266 31.371 19.75 30.7526Z" fill="#258AB5"/>
<path d="M20.8079 30.7526C21.0032 30.6875 21.231 30.7038 21.4263 30.6875C21.3287 31.2408 21.3612 31.7941 21.3775 32.3311C21.6867 32.3311 21.9959 32.2986 22.3051 32.2823C22.2725 32.4288 22.24 32.5915 22.1912 32.738C21.7518 32.738 21.2961 32.738 20.8567 32.7217C20.8405 32.0707 20.7754 31.4198 20.7917 30.7689" fill="#258AB5"/>
<path d="M24.2731 31.6633C24.2731 31.6633 24.2406 31.7935 24.2406 31.8585C24.3057 31.8585 24.3708 31.8748 24.4359 31.8911C24.4359 31.8423 24.4359 31.7609 24.4359 31.7284C24.3871 31.7121 24.3382 31.6795 24.2731 31.6633ZM22.4342 30.7519C22.6621 30.7519 22.8899 30.7194 23.134 30.7031C23.0689 31.2402 23.0364 31.7935 23.0526 32.3305C23.0526 32.5258 23.2479 32.5746 23.3618 32.6722C23.6059 32.0538 23.8989 31.4354 23.9802 30.7682C24.2081 30.7519 24.4359 30.7194 24.6637 30.7031C24.7125 31.3052 24.9729 31.8585 25.2007 32.4118C25.2658 32.5583 25.4611 32.542 25.575 32.6071C25.5425 31.9887 25.575 31.3541 25.4611 30.7519C25.6727 30.7519 25.868 30.7519 26.0795 30.7519C26.2585 31.0774 26.405 31.4517 26.7142 31.6795C26.7142 31.3703 26.6816 31.0449 26.6491 30.7357C26.8606 30.7194 27.0722 30.7031 27.2838 30.7031C27.3 31.3541 27.2512 32.0213 27.2838 32.6722C27.0885 32.6885 26.8932 32.721 26.6979 32.7373C26.5189 32.4281 26.3399 32.1026 26.1772 31.7772C26.1446 31.7772 26.0795 31.7772 26.047 31.7772C26.0144 32.0864 26.0144 32.3956 26.047 32.6885C25.5913 32.6885 25.1519 32.7048 24.6963 32.6885C24.6637 32.5909 24.6149 32.3956 24.5986 32.2979H24.0941C23.9965 32.4118 23.9477 32.542 23.8826 32.6722C23.3944 32.6722 22.9224 32.6722 22.4342 32.6722C22.5482 32.0213 22.6295 31.3215 22.418 30.7031" fill="#258AB5"/>
<path d="M31.2245 31.5491C31.2245 31.6304 31.2082 31.8094 31.1919 31.8908C31.2896 31.8745 31.3709 31.842 31.4686 31.8257C31.4686 31.7769 31.4686 31.6792 31.4686 31.6467C31.3872 31.6141 31.3058 31.5816 31.2245 31.5491ZM31.0455 30.7191C31.2082 30.7679 31.5662 30.6052 31.6313 30.8656C31.8266 31.5002 32.0707 32.1186 32.3311 32.7207C32.1846 32.7207 31.8917 32.7207 31.7452 32.7045C31.7289 32.6068 31.6639 32.4441 31.6476 32.3465C31.5174 32.3465 31.2733 32.3465 31.1594 32.3465C31.0617 32.4604 31.0129 32.5906 30.9478 32.7207C30.7363 32.7207 30.5084 32.7207 30.2969 32.7207C30.6061 32.0861 30.899 31.4189 31.0455 30.7191Z" fill="#258AB5"/>
<path d="M38.9056 30.8333C39.2148 30.6543 39.6217 30.6706 39.9471 30.817C40.2075 30.9798 40.3377 31.3052 40.3214 31.5982C40.0936 31.5494 39.8495 31.4843 39.6867 31.3052C39.524 31.0937 39.2311 31.2239 39.0358 31.3052C39.0358 31.6307 39.0358 31.9725 39.1009 32.3142C39.2799 32.3142 39.4589 32.3142 39.6379 32.2817C39.6868 32.1515 39.7356 32.0376 39.7681 31.9074C39.9634 31.9074 40.1424 31.8748 40.3377 31.8748C40.2726 32.184 40.175 32.5909 39.8332 32.6885C39.3776 32.9489 38.629 32.7048 38.5476 32.1352C38.3849 31.6795 38.5476 31.1751 38.9056 30.8496" fill="#258AB5"/>
<path d="M40.6133 30.7526C40.7923 30.7363 40.9876 30.72 41.1829 30.7038C41.1991 31.2083 41.1829 31.6965 41.2317 32.2009C41.313 32.4288 41.6222 32.3474 41.8012 32.266C41.9314 31.7616 41.8501 31.2408 41.8338 30.72C41.9803 30.72 42.2569 30.7038 42.4034 30.6875C42.3545 31.2571 42.4359 31.8592 42.2732 32.4125C42.1267 32.6891 41.785 32.7217 41.5246 32.7542C41.2642 32.7542 40.9225 32.7054 40.8086 32.445C40.6621 31.8917 40.7109 31.3059 40.6133 30.7526Z" fill="#258AB5"/>
<path d="M12.3118 31.9718C12.3769 32.2647 12.6372 32.4112 12.9302 32.3787C12.979 32.2159 13.0115 32.0532 13.0604 31.8904C12.8163 31.8904 12.5559 31.8904 12.3118 31.9718ZM12.3769 31.2232C12.3769 31.3046 12.3769 31.386 12.3769 31.4836C12.5559 31.5162 12.7349 31.5324 12.9139 31.565C12.9139 31.4348 12.9953 31.2558 12.8488 31.1744C12.6861 31.1744 12.5233 31.207 12.3606 31.2395M11.8561 30.7676C12.3443 30.8164 12.9139 30.6048 13.3533 30.8652C13.4346 31.2232 13.4509 31.5975 13.516 31.9555C13.5486 32.1508 13.5974 32.4437 13.4021 32.5902C12.8976 32.7855 12.3606 32.6878 11.8398 32.7041C11.9538 32.0695 11.9049 31.4022 11.8398 30.7513" fill="#258AB5"/>
<path d="M28.9778 31.9718C29.0266 32.0857 29.0754 32.2159 29.1568 32.2973C29.3521 32.3135 29.5311 32.2973 29.7264 32.2647C29.7101 32.1833 29.6775 32.0043 29.645 31.923C29.4334 31.8091 29.1893 31.923 28.9615 31.9555M29.1568 31.1581C28.9941 31.2232 28.9941 31.451 29.1568 31.5324C29.3358 31.5324 29.5148 31.4836 29.6938 31.451C29.6938 31.3859 29.6938 31.272 29.6938 31.2232C29.5148 31.1907 29.3358 31.1581 29.1568 31.1581ZM28.457 30.735C29.0103 30.7675 29.6125 30.6374 30.1332 30.8977C30.1007 31.3046 30.1007 31.6951 30.1983 32.0857C30.2634 32.3298 30.1332 32.6065 29.8891 32.6716C29.4172 32.7366 28.9452 32.7041 28.4733 32.7041C28.636 32.0694 28.6523 31.3697 28.4733 30.735" fill="#258AB5"/>
<path d="M33.2577 31.1756C33.1763 31.1756 33.1275 31.1918 33.1112 31.2569C32.8997 31.7614 33.8761 31.7451 33.7622 31.3383C33.6645 31.1756 33.4367 31.1105 33.2414 31.1756M32.5742 30.7362C33.0299 30.7362 33.5018 30.7199 33.9737 30.785C34.2992 30.8826 34.2667 31.2895 34.2341 31.5499C34.1853 31.9404 34.2341 32.3473 34.4131 32.7053C34.169 32.7053 33.9249 32.7216 33.6971 32.7378C33.7296 32.5425 33.7622 32.3473 33.811 32.152C33.5832 32.1032 33.3716 32.0869 33.1438 32.0543C33.1438 32.2822 33.1438 32.51 33.1601 32.7378H32.5742C32.7044 32.0869 32.6881 31.4034 32.5742 30.7525" fill="#258AB5"/>
<path d="M35.1126 31.9406C35.1126 32.2986 35.4543 32.38 35.731 32.38C35.7798 32.2335 35.8123 32.0708 35.8449 31.9243C35.6008 31.9243 35.3567 31.9243 35.1126 31.9243M35.3078 31.1594C35.2265 31.2571 35.1777 31.371 35.1288 31.4849C35.3078 31.5012 35.4868 31.5175 35.6659 31.5175C35.7472 31.4198 35.796 31.2896 35.8449 31.1757C35.6659 31.1594 35.4868 31.1432 35.3078 31.1757M34.6732 30.7526C35.1451 30.8177 35.7147 30.6224 36.1541 30.8828C36.2354 31.2245 36.1378 31.5988 36.3005 31.908C36.4307 32.1359 36.3331 32.3962 36.1866 32.5915C35.6984 32.8031 35.1451 32.7054 34.6406 32.738C34.7708 32.087 34.6406 31.4035 34.6732 30.7363" fill="#258AB5"/>
<path d="M36.6935 30.752C37.1817 30.752 37.6699 30.752 38.1581 30.752C38.1419 30.8984 38.1581 31.0774 38.1419 31.2239C37.8164 31.2239 37.4909 31.2239 37.1654 31.2402C37.1654 31.3215 37.1329 31.4192 37.1166 31.5005C37.4095 31.5494 37.7513 31.468 38.0279 31.6144C38.0442 31.6795 38.0768 31.8097 38.093 31.8911C37.7513 31.9236 37.4095 31.9562 37.0841 32.0376C37.0841 32.0864 37.0841 32.2003 37.0841 32.2491C37.4746 32.3142 37.8652 32.3305 38.2558 32.363C38.1744 32.4607 38.1744 32.6885 38.0117 32.7048C37.5723 32.7536 37.1329 32.7373 36.6935 32.7373C36.661 32.0864 36.6284 31.4192 36.6772 30.752" fill="#258AB5"/>
<path d="M42.7467 30.752C43.2512 30.752 43.7394 30.752 44.2439 30.752C44.2439 30.931 44.2439 31.11 44.2276 31.289C43.9022 31.2402 43.5767 31.2076 43.2512 31.2564C43.2512 31.3378 43.2187 31.4354 43.2024 31.5168C43.5116 31.5168 43.8371 31.5331 44.1463 31.5494C44.1463 31.6795 44.1463 31.7935 44.1463 31.9236C43.8371 31.9399 43.5441 31.9562 43.2349 31.9887C43.2187 32.0864 43.1861 32.184 43.1699 32.2817C43.5279 32.2979 43.8859 32.3305 44.2276 32.2817C44.2276 32.4119 44.2276 32.5583 44.2114 32.7048C43.7232 32.7048 43.2349 32.7048 42.7467 32.7048C42.7305 32.0538 42.7305 31.4029 42.7305 30.752" fill="#258AB5"/>
<path d="M39.7999 36.5454C40.581 35.9271 41.6551 35.5853 42.6315 35.8457C43.0546 35.9596 43.4126 36.2688 43.8357 36.3827C44.3728 36.22 44.861 35.9108 45.4305 35.862C45.9513 35.7969 46.4883 35.862 46.944 36.1223C47.1067 36.2688 47.2532 36.5292 47.1393 36.7407C47.0091 37.0011 46.8301 37.2127 46.651 37.4242C46.5534 37.3754 46.4558 37.3103 46.3581 37.2615C46.4558 37.0011 46.6022 36.7733 46.7487 36.5292C46.0164 36.2851 45.2027 36.4478 44.5518 36.8546C44.2751 37.0337 43.9496 37.1964 43.6242 37.0825C43.1685 36.936 42.778 36.6431 42.3223 36.5129C41.5249 36.3176 40.6461 36.5129 39.9789 36.9848C39.5721 37.294 39.214 37.766 38.6607 37.7822C37.8145 37.8311 36.9683 37.8311 36.1058 37.8473C33.974 38.0589 31.8096 37.9938 29.6615 38.0589C29.2058 38.1728 28.6525 38.4657 28.62 39.019C28.5874 39.3119 28.5712 39.7351 28.8478 39.9303C29.1407 40.028 29.4337 40.0931 29.7429 40.1582C29.8405 39.7676 29.808 39.377 29.6615 39.019C29.7266 38.9865 29.7917 38.9702 29.8405 38.9377C30.0521 39.2469 30.1822 39.6374 30.1497 40.0117C30.1822 40.2558 30.0358 40.565 29.7591 40.5813C29.2384 40.7766 28.7827 40.4023 28.262 40.3697C28.262 40.4511 28.262 40.5325 28.262 40.6138C28.441 40.6627 28.6688 40.6464 28.8153 40.7928C28.978 41.102 28.9129 41.4926 28.7664 41.8018C28.5712 42.2737 28.4898 42.8758 28.0504 43.185C27.9039 42.9247 27.8063 42.648 27.7249 42.3551C27.5622 41.8994 27.1879 41.4601 27.3344 40.9393C27.4808 40.744 27.7249 40.6789 27.9202 40.5813C27.9202 40.4999 27.9039 40.4348 27.8877 40.3697C27.3669 40.4836 26.8299 40.744 26.2766 40.6301C25.8209 40.4348 25.8047 39.8002 25.9837 39.4096C25.9999 39.1655 26.2115 39.0516 26.4068 38.9539C26.4068 39.1818 26.358 39.3933 26.2929 39.6049C26.2115 39.8164 26.2929 40.028 26.3091 40.2233C26.6183 40.1582 26.9764 40.1419 27.2367 39.9303C27.4971 39.6374 27.5297 39.1818 27.3832 38.84C27.2367 38.3681 26.716 38.2216 26.3091 38.0914C24.275 37.9612 22.2245 38.1403 20.1903 37.945C19.1651 37.8148 18.1398 37.8962 17.1146 37.7822C16.838 37.7497 16.6427 37.5219 16.4474 37.3429C15.7965 36.7245 14.8851 36.3339 13.9901 36.5129C13.2415 36.6105 12.6394 37.2778 11.8583 37.115C11.5328 36.9686 11.2399 36.757 10.8981 36.6268C10.3936 36.4153 9.80779 36.4153 9.27077 36.5454C9.46605 36.8384 9.66133 37.115 9.72643 37.473C9.14058 37.4893 8.84766 36.8546 8.84766 36.3339C9.20567 36.1386 9.57996 35.8945 10.0031 35.8945C10.7354 35.7969 11.4026 36.1223 12.0861 36.3502C12.558 36.399 12.9323 36.0084 13.388 35.8945C14.1203 35.7643 14.934 35.7643 15.6012 36.1712C16.2358 36.4315 16.6101 37.0987 17.2285 37.3754C19.0837 37.473 20.9226 37.2615 22.7778 37.2615C23.982 37.1313 25.1863 37.1476 26.3905 37.1964C26.9764 37.2615 27.432 37.652 27.9039 37.9938C27.9365 37.652 27.8063 37.3429 27.7738 37.0011C27.7087 36.578 27.8063 36.1386 27.969 35.748C28.1643 35.8131 28.3759 35.9596 28.3922 36.1874C28.4573 36.6919 28.3922 37.2127 28.3596 37.7334C28.6037 37.6195 28.8153 37.4568 29.0594 37.3591C30.0195 36.9848 31.0773 37.1313 32.0862 37.1313C32.8836 37.1801 33.6973 37.1313 34.4947 37.2289C35.8129 37.3754 37.131 37.3429 38.4492 37.3917C39.0676 37.473 39.3768 36.8546 39.8162 36.5292" fill="#258AB5"/>
</g>
</svg>
