<svg width="60" height="31" viewBox="0 0 60 31" fill="none" xmlns="http://www.w3.org/2000/svg">
<g clip-path="url(#clip0_864_6486)">
<mask id="mask0_864_6486" style="mask-type:luminance" maskUnits="userSpaceOnUse" x="0" y="0" width="60" height="31">
<path d="M59.19 0.927734H0.798828V30.1576H59.19V0.927734Z" fill="white"/>
</mask>
<g mask="url(#mask0_864_6486)">
<path d="M36.6103 12.3968C36.3531 12.2254 36.096 11.9339 35.5816 11.5911C35.2216 11.3511 34.8102 11.1282 34.3987 10.9396C30.4386 9.24239 26.5298 9.49955 23.1182 12.1568C22.7925 12.414 22.4496 12.7225 22.1582 13.0311C21.9867 13.2197 21.8839 13.3054 21.7296 13.5112C15.6608 21.0543 21.9525 31.752 31.9986 29.7633C33.7816 29.4204 34.9645 28.769 36.2502 27.6032V29.1976H40.0904V0.927734H36.6103V12.3968ZM23.1182 20.1286C23.1182 18.8771 23.2554 18.1742 23.7697 17.1285C24.284 16.0998 25.0897 15.2255 26.0326 14.6083C27.6956 13.5454 30.5757 13.2197 32.3758 14.0255C32.5815 14.1112 32.7187 14.1626 32.9072 14.2655C33.5758 14.6083 34.2102 15.1055 34.7245 15.637C36.7131 17.7113 36.8331 21.4315 35.1359 23.6945C34.4502 24.6202 33.4901 25.3574 32.4272 25.786C31.6386 26.1117 30.5928 26.3689 29.7357 26.3346C29.4785 26.3346 28.5528 26.2317 28.3127 26.1632C26.787 25.8203 26.1869 25.3917 25.1583 24.5174C24.8497 24.2602 24.644 24.0202 24.3869 23.6945C23.6668 22.803 23.1182 21.3801 23.1182 20.1286Z" fill="black"/>
<path d="M1.43314 15.8422L5.20474 16.4251C5.53047 16.4251 5.17045 16.1679 5.77048 15.0193C6.81624 13.0135 10.365 12.3106 12.4051 13.0478C14.5994 13.8364 14.3937 15.0365 14.6337 16.9908C13.468 17.608 11.1707 17.7794 9.71351 17.968C9.55922 17.9852 9.28492 18.0023 9.0792 18.0194L7.89629 18.1566C6.26764 18.4137 5.25617 18.7738 3.90182 19.4767C3.59324 19.6309 3.37037 19.8024 3.09607 19.991C2.15317 20.6424 1.03884 21.9282 0.90169 23.094L0.798828 24.294C0.798828 25.2198 1.05598 26.2827 1.39886 26.8484C1.8103 27.517 2.27318 28.0828 2.85606 28.5456C3.16465 28.7856 3.40466 28.9742 3.78182 29.1799C6.78195 30.8086 11.5993 30.3457 14.2737 28.1685L14.8909 27.6884C14.9766 27.8599 15.028 28.0999 15.0966 28.3056L15.5252 29.6085C15.5766 29.7457 15.5938 29.7457 15.7824 29.7628C16.691 29.7971 18.6968 29.7628 19.7254 29.7628C19.6225 29.3 18.9025 28.7514 18.6111 27.2599C17.7539 22.9568 19.5025 14.4536 17.0167 11.6592C16.5538 11.1449 16.8281 11.4191 16.3481 10.9906C14.4109 9.25905 9.26778 9.22476 6.83338 10.0477C5.15331 10.6134 3.43895 11.642 2.46176 13.1164C1.91316 13.9393 1.43314 14.7793 1.43314 15.8422ZM9.3535 27.1227C7.742 27.1227 6.1305 26.9513 5.25617 25.4941C4.53614 24.294 5.15331 22.7682 6.21621 22.0653C6.78195 21.6882 7.38198 21.6196 8.15344 21.4825C10.4678 21.1053 12.2508 20.8139 14.5137 20.1624C14.5137 22.5968 14.548 23.7111 13.468 25.1512C12.5422 26.3855 10.8964 27.1056 9.3535 27.1056" fill="black"/>
<path d="M41.3594 29.2319H59.1887V24.3459H46.1596V1.06488C46.1596 0.962022 46.1253 0.927734 46.0224 0.927734H41.3594V29.2319Z" fill="black"/>
</g>
</g>
<defs>
<clipPath id="clip0_864_6486">
<rect width="58.3912" height="29.2299" fill="white" transform="translate(0.798828 0.927734)"/>
</clipPath>
</defs>
</svg>
