<svg width="103" height="15" viewBox="0 0 103 15" fill="none" xmlns="http://www.w3.org/2000/svg">
<g clip-path="url(#clip0_864_8014)">
<mask id="mask0_864_8014" style="mask-type:luminance" maskUnits="userSpaceOnUse" x="0" y="0" width="103" height="15">
<path d="M102.237 0.359375H0.558594V15H102.237V0.359375Z" fill="white"/>
</mask>
<g mask="url(#mask0_864_8014)">
<path d="M102.237 14.3829V0.582242H100.06V9.37692C98.5859 7.57684 96.7686 6.56537 95.3628 5.36531C93.9742 4.1824 92.9285 2.96521 92.4656 0.582242H90.2712V14.3829H92.8942C92.8942 13.2171 92.4313 12.9428 92.4313 11.9999V5.45103C92.4313 5.45103 92.4313 5.45103 92.4484 5.46818C93.9228 7.21683 95.7229 8.21116 97.1286 9.42835C98.5001 10.6284 99.563 11.897 100.026 14.3829H102.22H102.237ZM87.6825 7.64542C87.6825 3.30808 85.0424 0.393662 81.1165 0.393662C77.1906 0.393662 74.5676 3.30808 74.5676 7.64542C74.5676 11.9828 77.1906 14.8972 81.1165 14.8972C85.0424 14.8972 87.6654 11.9828 87.6654 7.64542M85.3338 7.64542C85.3338 10.1655 84.3052 12.8914 81.1165 12.8914C77.9278 12.8914 76.8992 10.1655 76.8992 7.64542C76.8992 5.1253 77.9278 2.43375 81.1165 2.43375C84.3052 2.43375 85.3338 5.1253 85.3338 7.64542ZM72.4075 7.64542C72.4075 3.30808 69.7846 0.393662 65.8587 0.393662C61.9328 0.393662 59.3098 3.30808 59.3098 7.64542C59.3098 11.9828 61.9328 14.8972 65.8587 14.8972C69.7846 14.8972 72.4075 11.9828 72.4075 7.64542ZM70.076 7.64542C70.076 10.1655 69.0474 12.8914 65.8587 12.8914C62.67 12.8914 61.6413 10.1655 61.6413 7.64542C61.6413 5.1253 62.67 2.43375 65.8587 2.43375C69.0474 2.43375 70.076 5.1253 70.076 7.64542ZM50.6694 4.31955C50.6694 3.2395 51.5266 2.60519 52.8809 2.60519C54.0981 2.60519 54.8525 3.42808 55.3153 3.99382L56.9611 2.5709C56.1382 1.43942 54.681 0.410806 52.9838 0.410806C50.9094 0.410806 48.4922 1.18227 48.4922 4.40527C48.4922 8.46831 55.161 8.31402 55.161 11.177C55.161 12.0685 54.4582 12.8056 52.8638 12.8056C51.7666 12.8056 50.9609 12.3942 50.0008 11.1941L48.3722 12.6171C49.4351 14.1771 50.9437 15 52.8809 15C54.8182 15 57.3383 14.0571 57.3383 11.0913C57.3383 6.56537 50.6866 6.6168 50.6866 4.31955M43.1434 14.3829H45.3377V0.582242H43.1605V9.37692C41.6862 7.57684 39.8689 6.56537 38.4632 5.36531C37.0745 4.1824 36.0288 2.96521 35.5659 0.582242H33.3715V14.3829H35.9945C35.9945 13.2171 35.5316 12.9428 35.5316 11.9999V5.45103C35.5316 5.45103 35.5316 5.45103 35.5487 5.46818C37.0231 7.21683 38.8232 8.21116 40.2289 9.42835C41.6004 10.6284 42.6633 11.897 43.1262 14.3829M30.6114 7.61113C30.6114 3.27379 27.9884 0.359375 24.0625 0.359375C20.1366 0.359375 17.5136 3.27379 17.5136 7.61113C17.5136 11.9485 20.1538 14.8629 24.0625 14.8629C27.9713 14.8629 30.6114 11.9485 30.6114 7.61113ZM28.2798 7.61113C28.2798 10.1312 27.2512 12.8571 24.0625 12.8571C20.8738 12.8571 19.8452 10.1312 19.8452 7.61113C19.8452 5.09102 20.8738 2.41661 24.0625 2.41661C27.2512 2.41661 28.2798 5.09102 28.2798 7.61113ZM12.662 14.3829H14.8392V0.582242H12.6449C12.4734 1.508 12.1477 2.1766 11.702 2.81091C11.2391 3.47951 10.6219 4.07954 9.93616 4.78243C9.16469 5.57104 8.3418 6.51394 7.69034 7.78257C7.03888 6.51394 6.21599 5.55389 5.44453 4.78243C4.75878 4.07954 4.14161 3.46237 3.67873 2.81091C3.233 2.1766 2.90727 1.508 2.73583 0.582242H0.558594V14.3829H3.18157C3.18157 13.2171 2.71869 12.9428 2.71869 11.9999V5.0053C3.45587 5.84534 4.22733 6.53108 4.8445 7.30254C5.68454 8.34831 6.35314 9.51407 6.61029 11.5542H8.7361C9.0104 9.51407 9.679 8.33116 10.5019 7.30254C11.1362 6.51394 11.8905 5.82819 12.6277 5.0053V14.3829H12.662Z" fill="#DF4F57"/>
</g>
</g>
<defs>
<clipPath id="clip0_864_8014">
<rect width="101.679" height="14.6407" fill="white" transform="translate(0.558594 0.359375)"/>
</clipPath>
</defs>
</svg>
