<svg width="186" height="13" viewBox="0 0 186 13" fill="none" xmlns="http://www.w3.org/2000/svg">
<g clip-path="url(#clip0_864_8028)">
<mask id="mask0_864_8028" style="mask-type:luminance" maskUnits="userSpaceOnUse" x="0" y="0" width="186" height="13">
<path d="M185.767 0.431641H0.238281V12.9293H185.767V0.431641Z" fill="white"/>
</mask>
<g mask="url(#mask0_864_8028)">
<path d="M9.34155 1.76777V3.82501C8.33007 2.98497 7.28431 2.55638 6.22141 2.55638C5.0385 2.55638 4.02702 2.98497 3.22127 3.84215C2.39838 4.68219 1.98693 5.72795 1.98693 6.96229C1.98693 8.19663 2.39838 9.19096 3.22127 10.031C4.04417 10.871 5.0385 11.2825 6.22141 11.2825C6.83858 11.2825 7.35289 11.1796 7.78148 10.991C8.02149 10.8882 8.2615 10.751 8.51865 10.5796C8.77581 10.4082 9.05011 10.2024 9.3244 9.96242V12.0711C8.33007 12.6368 7.28431 12.9283 6.18712 12.9283C4.54133 12.9283 3.11841 12.3454 1.96979 11.1968C0.821164 10.031 0.238281 8.62522 0.238281 6.97943C0.238281 5.50508 0.718303 4.20217 1.69549 3.05354C2.89554 1.63062 4.43847 0.927734 6.34141 0.927734C7.37003 0.927734 8.3815 1.20203 9.34155 1.76777Z" fill="black"/>
</g>
<path d="M22.2672 1.15234V5.67826H17.2784V1.15234H15.5469V12.7071H17.2784V7.30691H22.2672V12.7071H23.9987V1.15234H22.2672Z" fill="black"/>
<path d="M34.8167 4.34039L36.531 8.26628H33.0166L34.8167 4.34039ZM34.8338 0.431641L29.125 12.7065H30.9937L32.2794 9.89492H37.2168L38.434 12.7065H40.3369L34.8338 0.431641Z" fill="black"/>
<mask id="mask1_864_8028" style="mask-type:luminance" maskUnits="userSpaceOnUse" x="0" y="0" width="186" height="13">
<path d="M185.767 0.431641H0.238281V12.9293H185.767V0.431641Z" fill="white"/>
</mask>
<g mask="url(#mask1_864_8028)">
<path d="M47.2124 6.46687H47.761C49.4068 6.46687 50.2297 5.83255 50.2297 4.58107C50.2297 3.39816 49.4239 2.81528 47.8296 2.81528H47.2124V6.48401V6.46687ZM49.3897 7.78693L52.9727 12.7071H50.8469L47.5553 7.97551H47.2467V12.7071H45.498V1.15234H47.5381C49.0639 1.15234 50.1611 1.44379 50.8469 2.00953C51.6012 2.64384 51.9612 3.48388 51.9612 4.52964C51.9612 5.35253 51.7212 6.05542 51.2583 6.6383C50.7954 7.22119 50.1783 7.59835 49.4068 7.76978" fill="black"/>
</g>
<path d="M58.373 1.15234V12.7071H63.5161V11.0614H60.1217V1.15234H58.373Z" fill="black"/>
<path d="M68.8301 1.15234V12.7071H75.2075V11.0614H70.5787V7.20404H75.0704V5.5754H70.5787V2.79813H75.2075V1.15234H68.8301Z" fill="black"/>
<mask id="mask2_864_8028" style="mask-type:luminance" maskUnits="userSpaceOnUse" x="0" y="0" width="186" height="13">
<path d="M185.767 0.431641H0.238281V12.9293H185.767V0.431641Z" fill="white"/>
</mask>
<g mask="url(#mask2_864_8028)">
<path d="M87.7068 2.86496L86.3011 3.705C86.0439 3.24212 85.7867 2.95068 85.5467 2.81353C85.3067 2.65924 84.981 2.57352 84.5867 2.57352C84.1067 2.57352 83.6952 2.71067 83.3866 2.98497C83.0781 3.25927 82.9066 3.585 82.9066 3.99644C82.9066 4.56218 83.3181 5.00792 84.1581 5.35079L85.3067 5.83081C86.2496 6.20797 86.9354 6.67085 87.364 7.21944C87.7926 7.76804 88.0154 8.43664 88.0154 9.22525C88.0154 10.2882 87.6554 11.1625 86.9525 11.8654C86.2325 12.5683 85.3582 12.9111 84.2953 12.9111C83.3009 12.9111 82.4609 12.6197 81.8094 12.0197C81.1751 11.4196 80.7637 10.5796 80.6094 9.51669L82.3752 9.12239C82.4609 9.79099 82.598 10.271 82.8038 10.5282C83.1638 11.0253 83.6781 11.2825 84.381 11.2825C84.9296 11.2825 85.3753 11.0939 85.7353 10.7339C86.0953 10.3739 86.2668 9.91099 86.2668 9.34525C86.2668 9.12239 86.2325 8.91666 86.1811 8.72808C86.1125 8.5395 86.0268 8.36807 85.8896 8.21378C85.7525 8.05948 85.581 7.90519 85.3753 7.76804C85.1696 7.63089 84.9124 7.51089 84.621 7.37374L83.5066 6.91086C81.9294 6.24226 81.1408 5.26507 81.1408 3.9793C81.1408 3.10497 81.4666 2.38494 82.1352 1.80206C82.8038 1.21918 83.6266 0.927734 84.6038 0.927734C85.941 0.927734 86.9697 1.57919 87.724 2.86496" fill="black"/>
<path d="M107.85 5.06152L107.988 4.95866C108.228 4.77008 108.433 4.61579 108.588 4.47864C108.742 4.34149 108.862 4.22148 108.93 4.13576C109.085 3.94719 109.153 3.72432 109.153 3.45002C109.153 3.14143 109.05 2.90142 108.845 2.71284C108.639 2.52426 108.365 2.4214 108.022 2.4214C107.713 2.4214 107.439 2.52426 107.233 2.71284C107.027 2.90142 106.907 3.14143 106.907 3.41573C106.907 3.75861 107.045 4.08433 107.319 4.42721L107.748 4.95866C107.748 4.95866 107.799 5.02723 107.833 5.07866M107.49 7.2559L107.387 7.32448C106.667 7.82164 106.187 8.21595 105.93 8.50739C105.673 8.79883 105.553 9.12456 105.553 9.45029C105.553 9.93031 105.742 10.376 106.136 10.7703C106.53 11.1647 106.976 11.3532 107.456 11.3532C108.125 11.3532 108.896 10.9075 109.788 10.0332L107.507 7.2559H107.49ZM108.862 6.27872L110.936 8.79883L111.005 8.73026C111.228 8.49025 111.433 8.25023 111.639 8.01022C111.845 7.77021 112.033 7.5302 112.222 7.30734L113.353 8.4731C113.216 8.67883 113.028 8.90169 112.805 9.17599C112.582 9.43314 112.308 9.74173 111.999 10.0846L114.142 12.7247H111.965L110.816 11.3189C109.753 12.4161 108.656 12.9647 107.525 12.9647C106.496 12.9647 105.639 12.639 104.919 11.9875C104.216 11.3361 103.873 10.5132 103.873 9.55315C103.873 8.40453 104.422 7.44448 105.536 6.69017L106.29 6.17586C106.29 6.17586 106.307 6.15871 106.342 6.14157C106.359 6.12443 106.41 6.09014 106.445 6.05585C105.69 5.2501 105.296 4.44435 105.296 3.65574C105.296 2.86714 105.553 2.24997 106.05 1.7528C106.565 1.27278 107.233 1.01562 108.056 1.01562C108.879 1.01562 109.513 1.25564 110.028 1.71851C110.542 2.19854 110.816 2.78142 110.816 3.51859C110.816 4.01576 110.679 4.46149 110.388 4.87294C110.113 5.28439 109.599 5.76441 108.879 6.33015" fill="black"/>
</g>
<path d="M138.123 1.15234L133.631 5.76398V1.15234H131.883V12.7071H133.631V7.92408L133.991 7.56406L138.157 12.7071H140.472L135.226 6.38115L140.455 1.15234H138.123Z" fill="black"/>
<path d="M145.717 1.15234V12.7071H152.077V11.0614H147.448V7.20404H151.957V5.5754H147.448V2.79813H152.077V1.15234H145.717Z" fill="black"/>
<path d="M159.796 1.15234H158.047V12.7071H159.796V1.15234Z" fill="black"/>
<path d="M165.041 1.15234V2.79813H167.681V12.7071H169.43V2.79813H172.07V1.15234H165.041Z" fill="black"/>
<path d="M184.034 1.15234V5.67826H179.046V1.15234H177.297V12.7071H179.046V7.30691H184.034V12.7071H185.766V1.15234H184.034Z" fill="black"/>
</g>
<defs>
<clipPath id="clip0_864_8028">
<rect width="185.528" height="12.4977" fill="white" transform="translate(0.238281 0.431641)"/>
</clipPath>
</defs>
</svg>
