<svg width="142" height="18" viewBox="0 0 142 18" fill="none" xmlns="http://www.w3.org/2000/svg">
<g clip-path="url(#clip0_875_8317)">
<path d="M11.5592 1.04688V13.6646L2.09588 1.04688H0.484375V17.3505H2.38732V4.80133L11.7306 17.3505H13.4621V1.04688H11.5592Z" fill="black"/>
<path d="M23.6976 1.04492H21.709V17.3485H23.6976V1.04492Z" fill="black"/>
<path d="M42.9342 1.04492V13.6626L33.4709 1.04492H31.8594V17.3485H33.7623V4.79938L43.1056 17.3485H44.8371V1.04492H42.9342Z" fill="black"/>
<path d="M53.0293 1.04492V17.3485H61.1382V15.2227H55.018V10.1825H60.7439V8.07381H55.018V3.15359H60.9497V1.04492H53.0293Z" fill="black"/>
<path d="M92.6661 1.04492L88.8602 12.2911L84.9686 1.04492H83.0657L79.1912 12.2911L75.3339 1.04492H73.3281L78.9855 17.4857H79.3627L83.9915 4.16506L88.6031 17.4857H88.9803L94.6548 1.04492H92.6661Z" fill="black"/>
<path d="M101.34 1.04492V17.3485H109.432V15.2227H103.329V10.1825H109.054V8.07381H103.329V3.15359H109.26V1.04492H101.34Z" fill="black"/>
<mask id="mask0_875_8317" style="mask-type:luminance" maskUnits="userSpaceOnUse" x="0" y="0" width="142" height="18">
<path d="M141.714 0.857422H0.484375V17.5725H141.714V0.857422Z" fill="white"/>
</mask>
<g mask="url(#mask0_875_8317)">
<path d="M123.337 2.00604V4.66331C122.308 3.53183 121.228 2.96609 120.08 2.96609C119.651 2.96609 119.274 3.05181 118.948 3.2061C118.605 3.36039 118.348 3.6004 118.159 3.89184C117.971 4.18329 117.885 4.52616 117.885 4.90332C117.885 5.58906 118.091 6.10337 118.502 6.48053C118.914 6.85769 119.651 7.40629 120.714 8.12632C121.777 8.84635 122.565 9.56638 123.114 10.3036C123.645 11.0236 123.92 11.9836 123.92 13.1494C123.92 13.9723 123.748 14.7266 123.405 15.4124C123.063 16.081 122.6 16.6124 122 16.9896C121.4 17.3667 120.731 17.5553 119.994 17.5553C118.537 17.5553 117.234 17.041 116.102 16.0467V13.0808C117.165 14.658 118.382 15.4466 119.788 15.4466C120.508 15.4466 121.057 15.2409 121.468 14.8123C121.862 14.3837 122.068 13.9037 122.068 13.3894C122.068 12.6522 121.828 12.0351 121.365 11.555C120.885 11.075 120.148 10.475 119.137 9.75496C118.125 9.03493 117.354 8.34919 116.839 7.68058C116.308 7.01198 116.051 6.18909 116.051 5.19476C116.051 4.5433 116.154 3.94327 116.342 3.39468C116.548 2.86323 116.822 2.40035 117.199 2.02319C117.577 1.64603 118.022 1.35459 118.537 1.14886C119.034 0.960284 119.6 0.857422 120.234 0.857422C121.331 0.857422 122.36 1.23458 123.337 2.00604Z" fill="black"/>
</g>
<path d="M130.057 1.04492V3.15359H134.891V17.3485H136.88V3.15359H141.714V1.04492H130.057Z" fill="black"/>
</g>
<defs>
<clipPath id="clip0_875_8317">
<rect width="141.229" height="16.715" fill="white" transform="translate(0.484375 0.857422)"/>
</clipPath>
</defs>
</svg>
