<svg width="65" height="37" viewBox="0 0 65 37" fill="none" xmlns="http://www.w3.org/2000/svg">
<g clip-path="url(#clip0_864_8154)">
<path d="M64.8409 0H0.535156V36.4302H64.8409V0Z" fill="#E1251B"/>
<mask id="mask0_864_8154" style="mask-type:luminance" maskUnits="userSpaceOnUse" x="0" y="0" width="65" height="37">
<path d="M64.8409 0H0.535156V36.4302H64.8409V0Z" fill="white"/>
</mask>
<g mask="url(#mask0_864_8154)">
<path d="M54.0741 13.4746H50.8854L49.2396 16.1319L47.6624 13.4746H44.4394L47.7653 18.6177V22.9379H50.6797V18.6177L54.0741 13.4746ZM45.228 18.1891C45.228 15.8061 44.1137 13.4746 40.9593 13.4746H36.1762V22.9379H40.3935C43.7022 22.9379 45.228 21.1035 45.228 18.1891ZM42.3136 18.1548C42.3136 19.0463 42.0564 20.5206 40.2392 20.5206H39.1077V15.909H40.0335C42.1422 15.909 42.3307 17.5719 42.3307 18.1548M34.8733 18.1891C34.8733 15.8061 33.7589 13.4746 30.6045 13.4746H25.8214V22.9379H30.0388C33.3475 22.9379 34.8733 21.1035 34.8733 18.1891ZM31.9588 18.1548C31.9588 19.0463 31.7017 20.5206 29.8845 20.5206H28.7358V15.909H29.6616C31.7703 15.909 31.9588 17.5719 31.9588 18.1548ZM21.2784 22.9379H24.1928V13.4918H21.2784V22.9379ZM11.3008 22.9379H19.7526V20.5206H15.1067L19.5469 15.6176V13.4918H11.5579V15.909H15.7067L11.3179 20.6578V22.9379H11.3008ZM51.7769 21.875C51.7769 22.5093 52.274 22.955 52.8741 22.955C53.4741 22.955 53.9884 22.5093 53.9884 21.875C53.9884 21.2407 53.4912 20.7949 52.8741 20.7949C52.2569 20.7949 51.7769 21.2407 51.7769 21.875ZM52.034 21.875C52.034 21.3264 52.3941 21.0178 52.8741 21.0178C53.3541 21.0178 53.7313 21.3264 53.7313 21.875C53.7313 22.4236 53.3712 22.715 52.8741 22.715C52.3769 22.715 52.034 22.3893 52.034 21.875ZM52.9255 21.3264H52.4626V22.4064H52.7884V22.1321H52.9084L53.0455 22.4064H53.3884L53.1998 22.0807C53.3198 21.995 53.3884 21.875 53.3884 21.7378C53.3884 21.5321 53.2169 21.3435 52.9255 21.3435M52.7884 21.6178H52.9255C52.9255 21.6178 53.0455 21.6521 53.0455 21.755C53.0455 21.875 52.9598 21.8921 52.9255 21.8921H52.7884V21.6178Z" fill="white"/>
</g>
</g>
<defs>
<clipPath id="clip0_864_8154">
<rect width="64.3057" height="36.4302" fill="white" transform="translate(0.535156)"/>
</clipPath>
</defs>
</svg>
