<svg width="160" height="18" viewBox="0 0 160 18" fill="none" xmlns="http://www.w3.org/2000/svg">
<g clip-path="url(#clip0_864_8233)">
<mask id="mask0_864_8233" style="mask-type:luminance" maskUnits="userSpaceOnUse" x="0" y="0" width="160" height="18">
<path d="M159.317 0.699219H0.292969V17.4657H159.317V0.699219Z" fill="white"/>
</mask>
<g mask="url(#mask0_864_8233)">
<path d="M159.266 3.63078H156.266V0.75065H154.088V12.2026C154.088 13.8998 154.568 15.2027 155.546 16.0942C156.489 17.0028 157.74 17.3457 159.3 17.14V15.0999C157.243 15.2542 156.249 14.277 156.249 12.2026V5.75659H159.249V3.63078H159.266ZM113.081 5.31085C111.795 3.93936 110.252 3.27076 108.452 3.27076C106.652 3.27076 105.058 3.97365 103.738 5.34514C102.452 6.75092 101.8 8.39671 101.8 10.3854C101.8 12.374 102.452 14.037 103.755 15.3913C105.075 16.7285 106.669 17.4314 108.555 17.4314C110.098 17.4314 111.418 17.02 112.498 16.2313C113.578 15.477 114.35 14.3627 114.812 12.9055H112.498C111.744 14.5684 110.441 15.3913 108.555 15.3913C107.406 15.3913 106.412 15.0141 105.555 14.2255C104.646 13.3855 104.132 12.3055 103.995 10.934L104.132 8.9453C104.389 7.83097 104.955 6.9395 105.829 6.23661C106.618 5.58515 107.509 5.27657 108.452 5.27657C109.395 5.27657 110.304 5.61944 111.109 6.28804C111.915 6.95664 112.464 7.86525 112.738 8.9453H104.149L104.012 10.934H115.104C115.138 8.65386 114.452 6.78521 113.081 5.29371M123.641 3.27076C121.807 3.27076 120.247 3.97365 118.961 5.36228C117.641 6.73377 117.024 8.43099 117.024 10.3854C116.99 12.3397 117.641 14.0027 118.961 15.3742C120.247 16.7799 121.807 17.4485 123.641 17.4485C125.099 17.4485 126.384 17.0371 127.499 16.2142C128.613 15.3913 129.35 14.3113 129.813 12.9398H127.464C127.104 13.6769 126.573 14.277 125.921 14.7227C125.236 15.2027 124.464 15.3913 123.641 15.3913C122.407 15.3913 121.344 14.8941 120.487 13.9341C119.613 12.9741 119.167 11.7397 119.167 10.3854C119.167 9.03102 119.595 7.81382 120.487 6.80235C121.344 5.80802 122.407 5.31085 123.641 5.31085C124.464 5.31085 125.236 5.53372 125.921 6.01374C126.556 6.44233 127.07 7.02522 127.464 7.81382L129.813 7.77954C129.367 6.40805 128.596 5.31085 127.499 4.52225C126.384 3.68221 125.099 3.27076 123.641 3.27076ZM137.888 3.35648C136.122 3.1679 134.63 3.52792 133.43 4.55653C132.213 5.6023 131.579 7.11093 131.579 9.0996V17.14H133.722V9.04816C133.722 7.76239 134.099 6.80235 134.87 6.18518C135.59 5.56801 136.619 5.31085 137.888 5.41372V3.33934V3.35648ZM149.563 5.34514C148.277 3.97365 146.751 3.30505 144.951 3.30505C143.134 3.28791 141.556 3.97365 140.236 5.37943C138.951 6.78521 138.299 8.44814 138.299 10.4197C138.299 12.3912 138.951 14.0712 140.236 15.4084C141.556 16.7799 143.185 17.4485 145.071 17.4828C146.614 17.4828 147.917 17.0714 149.014 16.2999C150.06 15.5285 150.865 14.4313 151.328 13.0083L149.014 12.9741C148.208 14.637 146.922 15.477 145.071 15.477C143.922 15.477 142.928 15.0656 142.071 14.2941C141.162 13.4541 140.648 12.374 140.511 11.0025L140.648 9.03102C140.905 7.91669 141.471 7.02522 142.328 6.30518C143.134 5.67087 144.025 5.34514 144.951 5.34514C145.877 5.34514 146.802 5.68801 147.608 6.35662C148.414 7.02522 148.928 7.93383 149.202 9.01388H140.648L140.511 10.9854L151.654 11.0197C151.654 8.72243 150.968 6.81949 149.597 5.36228M66.3474 5.27657C65.0616 3.90508 63.5358 3.21933 61.7186 3.21933C59.9014 3.21933 58.3241 3.92222 57.0041 5.29371C55.7183 6.69949 55.0669 8.37956 55.0669 10.3339C55.0669 12.2883 55.7183 13.9855 57.0212 15.357C58.3413 16.6942 59.9356 17.3971 61.8214 17.3971C63.3644 17.3971 64.6844 16.9857 65.7645 16.2313C66.8445 15.4427 67.616 14.3113 68.0789 12.8712H65.7645C64.993 14.5341 63.673 15.3913 61.8214 15.3913C60.6728 15.3742 59.6785 14.9799 58.8556 14.1913C57.9127 13.3512 57.3984 12.2712 57.2612 10.8997L57.3984 8.92816C57.6555 7.81382 58.2213 6.92235 59.0785 6.20232C59.8671 5.56801 60.7585 5.24228 61.7014 5.24228C62.6443 5.24228 63.5529 5.58515 64.3587 6.25375C65.1816 6.92235 65.713 7.83097 65.9873 8.91102H57.3812L57.2441 10.8825L68.3703 10.9168C68.3703 8.60243 67.6846 6.71663 66.3131 5.25942M80.2165 4.7794C79.1879 3.75078 77.9193 3.21933 76.3249 3.21933C74.7306 3.21933 73.3762 3.7165 72.3476 4.7794C71.3019 5.82516 70.7876 7.19665 70.7876 8.85958L70.7533 17.0714H72.9305V8.79101C72.9305 7.74525 73.222 6.92235 73.8391 6.28804C74.4734 5.61944 75.2963 5.29371 76.2907 5.29371C77.285 5.29371 78.125 5.63658 78.7079 6.28804C79.3422 6.92235 79.6337 7.76239 79.6337 8.79101V17.0714L81.7595 17.1057V8.87673C81.7595 7.2138 81.2794 5.82516 80.2165 4.7794ZM84.1767 5.70516H86.354V0.699219H84.1767V5.70516ZM97.9431 4.36795C96.983 3.64792 95.7144 3.27076 94.2057 3.27076C92.5428 3.27076 91.2399 3.68221 90.2627 4.52225C89.4398 5.29371 89.0112 6.18518 89.0112 7.26523C89.0112 8.44814 89.4741 9.33961 90.3827 9.95678C91.1542 10.4539 92.4057 10.8311 94.1543 11.0711C95.6458 11.2768 96.6744 11.5683 97.1716 11.9454C97.5659 12.2369 97.7716 12.6483 97.7716 13.2141C97.7716 13.8312 97.463 14.3113 96.8973 14.757C96.2801 15.237 95.4401 15.4256 94.4458 15.4084C93.5029 15.4084 92.68 15.1856 91.9942 14.7398C91.3085 14.2598 90.9142 13.6598 90.777 12.8712H88.5826C88.7541 14.277 89.3884 15.4084 90.4342 16.2656C91.5142 17.0714 92.8514 17.5 94.4629 17.5C96.0744 17.5 97.3773 17.1228 98.3888 16.3342C99.3831 15.5113 99.8974 14.4313 99.8974 13.0941C99.8974 11.7569 99.3831 10.694 98.3202 10.0596C97.6002 9.6139 96.3658 9.27103 94.5658 8.97959C93.2457 8.77387 92.3714 8.53386 91.9428 8.31099C91.4628 8.08812 91.2228 7.72811 91.2228 7.26523C91.2228 6.71663 91.4971 6.2709 92.0799 5.92802C92.6457 5.55086 93.3657 5.37943 94.24 5.37943C95.0629 5.37943 95.7487 5.55086 96.3316 5.92802C96.8973 6.30518 97.2745 6.87092 97.4116 7.53953H99.6403C99.5031 6.21947 98.9202 5.20799 97.9945 4.43653M18.3966 3.52792H16.0994L13.2707 13.7112L10.4934 3.52792H8.19618L5.36748 13.6769L2.57307 3.52792H0.292969L4.25315 17.0371H6.5161L9.3448 6.71663L12.1392 17.0714H14.4536L18.3966 3.52792ZM30.6886 5.31085C29.4028 3.90508 27.8085 3.21933 25.957 3.21933V5.25942C27.1742 5.25942 28.2371 5.75659 29.0943 6.75092C29.9686 7.76239 30.4143 8.96245 30.4143 10.3682C30.4143 11.774 29.9686 12.9055 29.0943 13.8998C28.2028 14.8599 27.157 15.357 25.9227 15.357C24.6883 15.357 23.6769 14.8599 22.7854 13.8827C21.9282 12.9055 21.4996 11.7569 21.4996 10.3854C21.4996 9.01388 21.9282 7.79668 22.8197 6.76806C23.6769 5.77373 24.7398 5.27657 25.9741 5.27657V3.23648C24.0883 3.23648 22.5111 3.92222 21.2253 5.31085C19.9396 6.71663 19.2881 8.39671 19.2881 10.3854C19.2881 12.374 19.9396 13.9684 21.2082 15.3742C22.5111 16.7114 24.0883 17.4143 25.9398 17.4143C27.7913 17.4143 29.4028 16.7457 30.7058 15.3742C31.9572 14.0027 32.5916 12.3397 32.6258 10.3854C32.6258 8.39671 31.9744 6.71663 30.7058 5.34514M39.8433 5.24228C40.7348 5.24228 41.4034 5.53372 41.9348 6.1166C42.4663 6.69949 42.7234 7.41952 42.7234 8.32813V17.0714H44.9007V8.32813C44.9007 7.41952 45.1578 6.69949 45.6893 6.1166C46.2036 5.53372 46.9236 5.24228 47.7808 5.24228C48.638 5.24228 49.358 5.53372 49.8723 6.1166C50.3866 6.69949 50.6438 7.41952 50.6438 8.32813V17.0714H52.8382V8.41385C52.8382 6.92235 52.3753 5.67087 51.4495 4.71083C50.4724 3.7165 49.2723 3.21933 47.798 3.20219C45.9979 3.20219 44.695 3.95651 43.8378 5.448C43.0149 3.95651 41.6605 3.20219 39.8776 3.20219C38.3861 3.20219 37.1861 3.69935 36.2431 4.67654C35.3003 5.67087 34.8202 6.92235 34.8202 8.37956V17.0542H36.9975L37.0318 8.32813C37.0318 7.41952 37.2546 6.69949 37.8032 6.1166C38.3347 5.53372 39.0204 5.24228 39.8947 5.24228" fill="#1B1C1C"/>
</g>
</g>
<defs>
<clipPath id="clip0_864_8233">
<rect width="159.024" height="16.7665" fill="white" transform="translate(0.292969 0.699219)"/>
</clipPath>
</defs>
</svg>
