<svg width="82" height="16" viewBox="0 0 82 16" fill="none" xmlns="http://www.w3.org/2000/svg">
<g clip-path="url(#clip0_864_8140)">
<mask id="mask0_864_8140" style="mask-type:luminance" maskUnits="userSpaceOnUse" x="0" y="0" width="82" height="16">
<path d="M81.0325 0.804688H0.474609V15.3596H81.0325V0.804688Z" fill="white"/>
</mask>
<g mask="url(#mask0_864_8140)">
<path d="M81.0325 8.09073C81.0325 6.05064 79.9182 4.18198 78.0667 2.79335C76.3523 1.50758 73.9522 0.804688 71.5692 0.804688H70.9178C68.5348 0.804688 66.1518 1.50758 64.4375 2.79335C62.586 4.18198 61.4716 6.05064 61.4716 8.09073C61.4716 10.1137 62.6031 11.9995 64.4546 13.3881C66.169 14.6739 68.5691 15.3768 70.952 15.3768H71.5864C73.9693 15.3768 76.3523 14.6739 78.0838 13.3881C79.9353 11.9995 81.0668 10.1308 81.0668 8.09073M77.4838 8.09073C77.4838 10.3537 74.8951 12.3595 71.5692 12.3595H70.9349C67.609 12.3595 65.0204 10.3537 65.0204 8.09073C65.0204 5.82777 67.609 3.82197 70.9178 3.82197H71.5692C74.8951 3.82197 77.4838 5.82777 77.4838 8.09073ZM59.5687 8.10787C59.5687 6.10207 58.5401 4.23341 56.7057 2.86192C55.0085 1.59329 52.6598 1.09613 50.3111 1.09613H41.6536V15.1196H50.2768C52.6427 15.1196 55.0085 14.6224 56.7057 13.3538C58.5401 11.9823 59.5687 10.1137 59.5687 8.10787ZM56.0714 8.10787C56.0714 10.3537 53.757 12.068 50.4654 12.068H45.168V4.14769H50.4654C53.757 4.14769 56.0714 5.86206 56.0714 8.10787ZM39.2192 12.0338H27.4415V1.11327H24.0128V15.1196H39.2363V12.0338H39.2192ZM18.064 15.1196H22.2127L11.3265 0.804688L0.474609 15.1196H4.43479L6.04629 12.9938H16.4696L18.064 15.1196ZM14.4295 10.1308H8.06923L11.2408 5.84491L14.4124 10.1308H14.4295Z" fill="#231E21"/>
</g>
</g>
<defs>
<clipPath id="clip0_864_8140">
<rect width="80.5579" height="14.5549" fill="white" transform="translate(0.474609 0.804688)"/>
</clipPath>
</defs>
</svg>
