<svg width="86" height="31" viewBox="0 0 86 31" fill="none" xmlns="http://www.w3.org/2000/svg">
<g clip-path="url(#clip0_864_8147)">
<mask id="mask0_864_8147" style="mask-type:luminance" maskUnits="userSpaceOnUse" x="0" y="0" width="86" height="31">
<path d="M85.9877 0.734375H0.732422V30.7357H85.9877V0.734375Z" fill="white"/>
</mask>
<g mask="url(#mask0_864_8147)">
<path d="M85.9877 8.43186C85.9877 6.28891 84.8048 4.30025 82.8504 2.8259C81.0332 1.47155 78.4959 0.734375 75.9758 0.734375H75.29C72.7699 0.734375 70.2327 1.47155 68.4155 2.84304C66.4611 4.30025 65.261 6.28891 65.2782 8.44901C65.2782 10.592 66.4611 12.5806 68.4326 14.055C70.2498 15.4093 72.7871 16.1636 75.3072 16.1636H75.9758C78.4959 16.1636 81.0332 15.4093 82.8504 14.055C84.8048 12.5978 86.0048 10.6091 86.0048 8.44901M82.2332 8.43186C82.2332 10.832 79.4902 12.9578 75.9758 12.9578H75.29C71.7756 12.9578 69.0326 10.832 69.0326 8.43186C69.0326 6.03175 71.7756 3.90595 75.29 3.90595H75.9758C79.4902 3.90595 82.2332 6.03175 82.2332 8.43186ZM64.5753 22.2325L64.7296 21.4953L64.6267 20.6553L64.2153 20.5695L63.0838 20.6553L62.9295 21.3582L63.0324 22.2325L63.4438 22.3182L64.5753 22.2325ZM63.2895 8.46615C63.2895 6.34034 62.1923 4.35168 60.2551 2.91162C58.4722 1.57441 55.9692 1.04296 53.4834 1.04296H44.3287V15.8893H53.4662C55.9692 15.8893 58.4721 15.3579 60.2722 14.0207C62.2095 12.5635 63.3067 10.592 63.2895 8.46615ZM59.5865 8.46615C59.5865 10.8491 57.1349 12.6663 53.6548 12.6663H48.0488V4.26596H53.6548C57.1349 4.26596 59.5865 6.08319 59.5865 8.46615ZM46.2145 23.5868C44.5001 24.0154 43.6943 24.6326 43.6943 25.6269C43.6943 26.4841 44.2601 26.947 44.8944 27.3241L46.0773 28.0099C46.8145 28.4556 47.1231 28.6785 47.1231 29.2614C47.1231 29.7757 46.7459 30.2043 46.0259 30.2043C45.5116 30.2043 45.1001 29.9643 44.7401 29.6385L44.1058 28.267H43.5743L43.7115 30.1528C44.2258 30.4271 45.1516 30.7357 45.9573 30.7357C47.6717 30.3586 48.5803 29.7071 48.5803 28.5585C48.5803 27.7699 48.2203 27.2727 47.3631 26.7927L46.1802 26.1069C45.4944 25.7126 45.1516 25.4383 45.1516 24.9583C45.1516 24.444 45.563 24.1183 46.1459 24.1183C46.6431 24.1183 47.0031 24.2897 47.2774 24.564L47.8774 25.8841H48.3574V24.1354C47.8774 23.8611 47.2088 23.604 46.2316 23.604M39.5284 24.9583C39.5284 24.444 39.9399 24.1183 40.5228 24.1183C41.0199 24.1183 41.38 24.2897 41.6543 24.564L42.2543 25.8841H42.7343V24.1354C42.2543 23.8611 41.5857 23.604 40.6085 23.604C38.8941 24.0326 38.0884 24.6497 38.0884 25.6441C38.0884 26.5012 38.6541 26.9641 39.2884 27.3413L40.4713 28.027C41.2085 28.4728 41.5 28.6956 41.5 29.2785C41.5 29.7928 41.1228 30.2214 40.4028 30.2214C39.8885 30.2214 39.477 29.9814 39.117 29.6557L38.4998 28.2842H37.9684L38.1055 30.17C38.6198 30.4443 39.5456 30.7529 40.3513 30.7529C42.0657 30.3757 42.9743 29.7242 42.9743 28.5756C42.9743 27.787 42.6143 27.2899 41.7571 26.8098L40.5742 26.1241C39.8713 25.7298 39.5456 25.4555 39.5456 24.9755M41.74 12.6149H29.2766V1.0601H25.6421V15.8893H41.7571V12.6149H41.74ZM25.0592 27.3927C25.0592 29.4842 26.4307 30.7357 28.3165 30.7357C29.2766 30.3586 29.9966 29.9128 30.7166 29.2785L30.5452 28.9185C30.048 29.2614 29.5337 29.4842 28.9337 29.4842C27.5622 29.4842 26.6536 28.267 26.6536 26.6384C26.6536 25.0097 27.425 24.1526 28.2651 24.1526C28.4879 24.1526 28.6422 24.204 28.8137 24.2897L29.2594 25.8155H30.5623V24.3069C30.0823 23.9126 29.2251 23.5697 28.5394 23.5697C26.705 23.9811 25.0592 25.1298 25.0592 27.3756M20.3619 26.6555C20.3619 24.9926 21.1333 24.1697 21.9734 24.1697C22.1962 24.1697 22.3505 24.2211 22.522 24.3069L22.9677 25.8326H24.2706V24.324C23.7906 23.9297 22.9334 23.5868 22.2305 23.5868C20.3962 23.9983 18.7504 25.1469 18.7504 27.3927C18.7504 29.4842 20.1219 30.7357 22.0077 30.7357C22.9677 30.3586 23.6877 29.9128 24.4078 29.2785L24.2363 28.9185C23.7392 29.2614 23.2249 29.4842 22.6248 29.4842C21.2533 29.4842 20.3447 28.267 20.3447 26.6384M19.3504 15.8893H23.7392L12.2186 0.734375L0.732422 15.8893H4.91547L6.61269 13.6264H17.6532L19.3333 15.8893H19.3504ZM15.5102 10.6091H8.78993L12.1501 6.06604L15.5102 10.6091ZM9.85283 30.0157L8.87564 30.1528L8.92708 30.53L10.2471 30.4957L11.7043 30.53L11.7386 30.1528L10.5557 29.9985L11.5672 27.1184H14.9959L15.9731 29.9985L14.8416 30.1528L14.8759 30.53L16.8303 30.4957L18.9561 30.53L18.9904 30.1528L17.9961 30.0157L14.5502 20.3981L13.2473 20.8438L9.88712 30.0157H9.85283ZM11.7043 26.6213L13.3158 21.9239L13.6073 23.1068L14.7902 26.6384H11.6872L11.7043 26.6213ZM31.2995 27.3927C31.2995 29.5014 32.8424 30.7357 34.6254 30.7357C35.6368 30.3586 36.3912 29.93 37.1798 29.2614L36.9912 28.9014C36.4769 29.2099 35.8597 29.4671 35.2425 29.4671C33.871 29.4671 32.9453 28.4728 32.8767 26.7927H37.1455V26.2269C37.1455 24.6669 36.3054 23.5868 34.5911 23.5868C32.5681 24.0497 31.2995 25.3183 31.2995 27.3927ZM32.8767 26.2955C32.9282 24.9926 33.4082 24.1697 34.2482 24.1697C35.2083 24.1697 35.4483 24.9583 35.4483 26.1584V26.3127L32.8939 26.3812V26.2784L32.8767 26.2955ZM49.266 27.3413C49.266 29.3128 50.5861 30.7357 52.4033 30.7357C54.5291 30.3071 56.0206 29.2442 56.0206 26.9984C56.0206 25.0097 54.7006 23.5868 52.849 23.5868C50.7575 24.0497 49.266 25.0783 49.266 27.3413ZM50.9975 26.8441C50.9975 25.1298 51.5118 24.1354 52.4547 24.1354C53.4662 24.1354 54.2548 25.3183 54.2548 27.4613C54.2548 29.1585 53.7405 30.1528 52.7976 30.1528C51.7519 30.1528 50.9975 28.8499 50.9975 26.827M58.4893 23.7411L56.4663 24.2211L56.5178 24.5983L57.4092 24.4783V29.9985L56.5349 30.1357L56.5692 30.5129L58.2321 30.4786L60.3579 30.5129L60.3922 30.1014L59.0207 29.9814V26.3812L59.2265 26.0898C59.415 25.8841 59.8608 25.3869 60.0494 25.3183H61.5237V23.6211H60.4094L58.9522 25.8326L58.8836 23.6725L58.4722 23.7068L58.4893 23.7411ZM64.1295 23.7411L62.0552 24.2211L62.1066 24.5983L62.9809 24.4612V29.9985L62.1237 30.1357L62.158 30.5129L63.821 30.4786L65.501 30.5129L65.5353 30.1357L64.6267 29.9985V23.7068L64.1467 23.7411H64.1295ZM65.8782 27.3927C65.8782 29.5014 67.404 30.7357 69.2041 30.7357C70.2155 30.3586 70.9699 29.93 71.7585 29.2614L71.5699 28.9014C71.0556 29.2099 70.4555 29.4671 69.8212 29.4671C68.4497 29.4671 67.524 28.4728 67.4554 26.7927H71.7242V26.2269C71.7242 24.6669 70.8841 23.5868 69.1698 23.5868C67.1468 24.0497 65.8782 25.3183 65.8782 27.3927ZM67.4554 26.2955C67.5068 24.9926 67.9869 24.1697 68.8269 24.1697C69.7869 24.1697 70.027 24.9583 70.027 26.1584V26.3127L67.4726 26.3812V26.2784L67.4554 26.2955ZM73.0614 28.267H72.5128L72.6499 30.1528C73.1642 30.4271 74.09 30.7357 74.8957 30.7357C76.6101 30.3586 77.5187 29.7071 77.5187 28.5585C77.5187 27.7699 77.1587 27.2727 76.3015 26.7927L75.1186 26.1069C74.4157 25.7126 74.0728 25.4383 74.0728 24.9583C74.0728 24.444 74.4843 24.1183 75.0672 24.1183C75.5643 24.1183 75.9244 24.2897 76.1987 24.564L76.7987 25.8841H77.2787V24.1354C76.7987 23.8611 76.1301 23.604 75.1529 23.604C73.4385 24.0326 72.6328 24.6497 72.6328 25.6441C72.6328 26.5012 73.1985 26.9641 73.8328 27.3413L75.0158 28.027C75.7529 28.4728 76.0615 28.6956 76.0615 29.2785C76.0615 29.7928 75.6843 30.2214 74.9643 30.2214C74.45 30.2214 74.0386 29.9814 73.6614 29.6557L73.0442 28.2842L73.0614 28.267Z" fill="#231E21"/>
</g>
</g>
<defs>
<clipPath id="clip0_864_8147">
<rect width="85.2552" height="30.0013" fill="white" transform="translate(0.732422 0.734375)"/>
</clipPath>
</defs>
</svg>
