<svg width="146" height="15" viewBox="0 0 146 15" fill="none" xmlns="http://www.w3.org/2000/svg">
<g clip-path="url(#clip0_875_8309)">
<mask id="mask0_875_8309" style="mask-type:luminance" maskUnits="userSpaceOnUse" x="0" y="0" width="146" height="15">
<path d="M145.644 0.542969H0.986328V14.9265H145.644V0.542969Z" fill="white"/>
</mask>
<g mask="url(#mask0_875_8309)">
<path d="M143.587 7.26327C144.204 6.57752 144.513 5.72034 144.513 4.67458C144.513 3.85169 144.307 3.11451 143.913 2.4802C143.501 1.84588 142.97 1.40015 142.301 1.143C141.633 0.885841 140.553 0.765836 139.061 0.765836H133.147V14.6693H135.958V8.87477H136.524C137.175 8.87477 137.638 8.9262 137.93 9.02906C138.221 9.13192 138.512 9.32051 138.77 9.61195C139.027 9.88624 139.524 10.572 140.244 11.652L142.267 14.6693H145.627L143.93 11.9606C143.261 10.8806 142.73 10.1263 142.336 9.69767C141.941 9.26907 141.444 8.89191 140.827 8.5319C142.044 8.36046 142.97 7.93187 143.57 7.24613M141.615 4.86316C141.615 5.29175 141.513 5.63463 141.324 5.90892C141.135 6.18322 140.878 6.38895 140.535 6.49181C140.193 6.59467 139.353 6.66324 138.015 6.66324H135.941V3.13166H138.135C139.267 3.13166 139.953 3.13166 140.193 3.18309C140.638 3.25166 140.998 3.44024 141.255 3.73168C141.513 4.02312 141.633 4.40028 141.633 4.86316M120.186 14.6865H130.764V12.3378H122.998V8.54904H129.975V6.20037H122.998V3.11451H130.506V0.78298H120.203V14.6865H120.186ZM117.374 12.4921C117.666 11.892 117.82 11.2749 117.82 10.6577C117.82 9.85196 117.597 9.14907 117.134 8.56618C116.689 7.96616 116.02 7.55471 115.18 7.3147C115.78 7.0404 116.26 6.62896 116.603 6.0975C116.946 5.54891 117.134 4.94888 117.134 4.29742C117.134 3.6974 116.997 3.1488 116.706 2.66878C116.414 2.18876 116.071 1.79445 115.643 1.50301C115.214 1.21157 114.734 1.02299 114.186 0.937272C113.637 0.851554 112.831 0.800123 111.734 0.800123H106.18V14.7036H110.911C112.694 14.7036 113.826 14.6522 114.306 14.6179C115.043 14.5322 115.677 14.3093 116.191 13.9493C116.706 13.5893 117.1 13.1092 117.392 12.5092M114.391 4.67458C114.391 5.12032 114.254 5.48033 113.98 5.75463C113.706 6.02893 113.329 6.20037 112.848 6.2518C112.591 6.28608 111.906 6.30323 110.808 6.30323H108.974V3.08023H110.586C111.906 3.08023 112.711 3.08023 112.986 3.13166C113.449 3.18309 113.809 3.35452 114.049 3.62882C114.289 3.90312 114.409 4.24599 114.409 4.67458M114.906 10.5206C114.906 11.0177 114.769 11.412 114.511 11.7035C114.254 11.9949 113.911 12.1835 113.483 12.2521C113.209 12.3035 112.574 12.3378 111.563 12.3378H108.957V8.61762H111.22C112.506 8.61762 113.329 8.68619 113.706 8.82334C114.083 8.96049 114.374 9.16621 114.58 9.45765C114.786 9.74909 114.889 10.1091 114.889 10.5206M93.2019 14.6865H103.78V12.3378H96.0135V8.54904H102.991V6.20037H96.0135V3.11451H103.522V0.78298H93.219V14.6865H93.2019ZM88.3845 14.6865L91.7618 0.78298H88.9331L86.8073 10.4863L84.3729 0.78298H81.0299L78.4927 10.332L76.4011 0.78298H73.521L76.8469 14.6865H79.8984L82.6586 4.29742L85.4358 14.6865H88.4188H88.3845ZM63.3206 8.85763L68.4294 0.78298H65.1892L61.9834 6.28608L58.7089 0.78298H55.4173L60.509 8.84048V14.6865H63.3034V8.85763H63.3206ZM54.0116 7.26327C54.6287 6.57752 54.9373 5.72034 54.9373 4.67458C54.9373 3.85169 54.7316 3.11451 54.3373 2.4802C53.9258 1.84588 53.3944 1.40015 52.7258 1.143C52.0572 0.885841 50.9771 0.765836 49.4856 0.765836H43.5711V14.6693H46.3826V8.87477H46.9484C47.5998 8.87477 48.0627 8.9262 48.3542 9.02906C48.6456 9.13192 48.9371 9.32051 49.1942 9.61195C49.4514 9.88624 49.9485 10.572 50.6686 11.652L52.6915 14.6693H56.0517L54.3544 11.9606C53.6858 10.8806 53.1544 10.1263 52.7601 9.69767C52.3658 9.26907 51.8686 8.89191 51.2514 8.5319C52.4686 8.36046 53.3944 7.93187 53.9944 7.24613M52.04 4.86316C52.04 5.29175 51.9372 5.63463 51.7486 5.90892C51.56 6.18322 51.3029 6.38895 50.96 6.49181C50.6171 6.61181 49.7771 6.66324 48.4399 6.66324H46.3655V3.13166H48.5599C49.6914 3.13166 50.3771 3.13166 50.6 3.18309C51.0629 3.25166 51.4057 3.44024 51.6629 3.73168C51.92 4.02312 52.04 4.40028 52.04 4.86316ZM38.7537 9.71481C38.3594 9.28622 37.8623 8.90906 37.2451 8.54904C38.4623 8.37761 39.3881 7.94901 39.9881 7.26327C40.6052 6.57752 40.8967 5.72034 40.8967 4.67458C40.8967 3.85169 40.691 3.11451 40.2967 2.4802C39.8852 1.84588 39.3538 1.40015 38.6852 1.143C38.0166 0.885841 36.9365 0.765836 35.445 0.765836H29.5305V14.6693H32.342V8.87477H32.9078C33.5592 8.87477 34.0221 8.9262 34.3135 9.02906C34.605 9.13192 34.8964 9.32051 35.1536 9.61195C35.4107 9.88624 35.9079 10.572 36.6279 11.652L38.6509 14.6693H42.011L40.3138 11.9606C39.6452 10.8806 39.1138 10.1263 38.7194 9.69767M36.9537 6.49181C36.6108 6.61181 35.7707 6.66324 34.4335 6.66324H32.3592V3.13166H34.5535C35.685 3.13166 36.3708 3.13166 36.5936 3.18309C37.0394 3.25166 37.3994 3.44024 37.6565 3.73168C37.9137 4.02312 38.0337 4.40028 38.0337 4.86316C38.0337 5.29175 37.9308 5.63463 37.7423 5.90892C37.5537 6.18322 37.2965 6.38895 36.9537 6.49181ZM16.5699 14.6865H27.1475V12.3378H19.3814V8.54904H26.3589V6.20037H19.3814V3.11451H26.8903V0.78298H16.587V14.6865H16.5699ZM11.4268 14.275C12.5411 13.8464 13.3983 13.3493 13.9812 12.7664V7.22898H7.9295V9.57766H11.1525V11.3435C10.7239 11.6692 10.2267 11.9606 9.62672 12.1835C9.02669 12.4064 8.44381 12.5264 7.86092 12.5264C6.67801 12.5264 5.71797 12.1149 4.98079 11.292C4.24362 10.4691 3.8836 9.23479 3.8836 7.57186C3.8836 6.04607 4.24362 4.88031 4.96365 4.10884C5.68368 3.33738 6.66087 2.94308 7.89521 2.94308C8.70096 2.94308 9.36956 3.1488 9.91816 3.5431C10.4668 3.93741 10.8268 4.486 11.0325 5.1546L13.8098 4.6403C13.5355 3.35452 12.9011 2.36019 11.9411 1.64016C10.9639 0.902985 9.60957 0.542969 7.89521 0.542969C6.55801 0.542969 5.46081 0.782979 4.56935 1.24586C3.40358 1.84588 2.51211 2.70307 1.89494 3.83454C1.29491 4.94888 0.986328 6.23465 0.986328 7.69186C0.986328 9.01192 1.26063 10.2463 1.80922 11.3949C2.35782 12.5264 3.16357 13.4007 4.24362 14.0179C5.32367 14.6179 6.59229 14.9265 8.0495 14.9265C9.19812 14.9265 10.3296 14.7036 11.4439 14.275" fill="#231F20"/>
</g>
</g>
<defs>
<clipPath id="clip0_875_8309">
<rect width="144.658" height="14.3835" fill="white" transform="translate(0.986328 0.542969)"/>
</clipPath>
</defs>
</svg>
