<svg width="104" height="14" viewBox="0 0 104 14" fill="none" xmlns="http://www.w3.org/2000/svg">
<g clip-path="url(#clip0_864_8162)">
<mask id="mask0_864_8162" style="mask-type:luminance" maskUnits="userSpaceOnUse" x="0" y="0" width="104" height="14">
<path d="M103.592 0.400391H0.644531V13.0695H103.592V0.400391Z" fill="white"/>
</mask>
<g mask="url(#mask0_864_8162)">
<path d="M95.0545 7.66929C94.1287 6.07493 94.5402 4.39486 95.1573 3.50339C95.7574 2.61192 96.786 2.28619 97.8146 2.28619C98.8432 2.28619 103.215 2.33762 103.215 2.33762V0.846125H97.7117C97.7117 0.846125 94.5402 0.743263 93.5115 3.28052C92.4829 5.80063 93.323 7.66929 93.5115 8.14931C93.7001 8.61219 95.4316 10.3951 97.5746 10.6694H101.449C101.449 10.6694 102.049 10.5837 102.049 10.9952C102.049 10.9952 102.152 11.2694 101.449 11.2694H93.4258V12.7267H102.101C102.101 12.7267 102.666 12.8124 103.266 11.9723C103.866 11.1323 103.541 10.2923 103.266 9.9151C102.992 9.53794 102.289 9.1265 101.86 9.1265H97.626C97.626 9.1265 95.9974 9.26364 95.0716 7.66929M85.2655 12.7609H86.8084V0.846125H85.2655V12.7609ZM78.6823 6.74353C78.6823 3.22909 75.5793 0.400391 71.7391 0.400391C67.899 0.400391 64.796 3.22909 64.796 6.72639C64.796 10.2237 67.899 13.0524 71.7391 13.0524C75.5793 13.0524 78.6823 10.2237 78.6823 6.72639M77.0537 6.74353C77.0537 9.53794 74.6707 11.7838 71.7391 11.7838C68.8076 11.7838 66.4246 9.5208 66.4246 6.74353C66.4246 3.96626 68.8076 1.68616 71.7391 1.68616C74.6707 1.68616 77.0537 3.94912 77.0537 6.74353ZM51.8354 2.14904H61.1615L61.1101 0.846125H50.4296V12.7609H51.9211V10.0865H55.5041V8.78362H51.8183V2.14904H51.8354ZM39.852 10.1894C39.852 10.1894 41.7549 8.9722 42.0464 6.9664C42.3207 4.96059 41.8064 3.41767 41.2921 2.74907C40.7778 2.09761 39.8863 1.12042 38.3091 0.880412H32.9088V12.7952H34.3489V10.8751C34.3489 10.8751 38.8748 10.5494 40.8292 12.6924H42.835C42.835 12.6924 41.8578 11.2352 39.852 10.1723M37.7605 9.26365H34.2118V2.2519H37.3833C38.1719 2.2519 38.9777 2.49191 39.9892 3.36624C41.0178 4.25771 41.2406 5.98921 40.3663 7.56643C39.4748 9.16078 37.7605 9.2465 37.7605 9.2465M25.5371 12.7609H27.4057L21.0112 0.571827L14.8395 12.7267H16.7767L17.7539 10.6694H24.6113L25.5371 12.7781V12.7609ZM23.7713 8.93792H18.5425L21.114 3.1948L23.7713 8.93792ZM10.5707 8.26931C11.8222 5.78349 10.7078 3.31481 9.73065 2.42334C8.75347 1.53187 7.07339 1.12042 6.6448 1.12042C6.21621 1.12042 0.644531 1.17185 0.644531 1.17185V12.7609H2.18746V10.7551H6.93624C6.93624 10.7551 9.31921 10.7551 10.5707 8.26931ZM8.99348 8.04645C8.15344 9.50366 6.42193 9.50366 6.42193 9.50366H2.0846V2.44048H6.33621C7.45055 2.44048 8.34202 2.95479 9.04491 3.84626C9.7478 4.73773 9.83351 6.60638 8.99348 8.04645Z" fill="#231E21"/>
</g>
</g>
<defs>
<clipPath id="clip0_864_8162">
<rect width="102.947" height="12.6691" fill="white" transform="translate(0.644531 0.400391)"/>
</clipPath>
</defs>
</svg>
