<svg width="143" height="40" viewBox="0 0 143 40" fill="none" xmlns="http://www.w3.org/2000/svg">
<g clip-path="url(#clip0_864_8218)">
<mask id="mask0_864_8218" style="mask-type:luminance" maskUnits="userSpaceOnUse" x="0" y="0" width="143" height="40">
<path d="M142.865 0.736328H0.984375V39.5495H142.865V0.736328Z" fill="white"/>
</mask>
<g mask="url(#mask0_864_8218)">
<path d="M137.533 32.1092V28.5433H141.836V27.0518H137.533V23.7945H142.728V22.303H135.733V33.5664H142.865V32.0749H137.533V32.1092ZM130.453 23.8116H134.465V22.3202H118.332V23.8116H122.344V33.6007H124.11V23.8116H128.67V33.6007H130.436V23.8116H130.453ZM115.264 33.6007H117.064V22.3373H115.264V33.6007ZM112.075 33.4121C112.281 33.3606 112.589 33.2749 113.001 33.1549V28.5604H111.201V32.1263C110.086 32.3149 109.589 32.3663 109.023 32.3663C106.126 32.3663 103.898 30.4291 103.898 27.8575C103.898 25.4231 105.903 23.6059 108.629 23.6059C109.504 23.6059 110.584 23.8459 111.321 24.1545C111.492 24.2231 111.749 24.3602 112.109 24.5831L112.864 23.0916C112.075 22.6973 111.749 22.543 111.184 22.4059C110.549 22.2687 109.486 22.1487 108.578 22.1487C104.789 22.1487 102.012 24.6174 102.012 27.9433C102.012 31.2691 104.875 33.8407 108.749 33.8407C109.692 33.8407 111.098 33.6521 112.075 33.4121ZM98.4116 33.6007H100.212V22.3373H98.4116V33.6007ZM96.8172 33.6007L93.6971 28.869C95.2743 28.6119 96.3372 27.2918 96.3372 25.5432C96.3372 23.4688 94.8457 22.3373 92.137 22.3373H88.3311V33.6007H90.1312V29.0062H91.7599L94.7429 33.6007H96.8172ZM91.9142 27.5147H90.1484V23.8116H91.9142C93.2171 23.8116 93.3542 23.8288 93.7314 24.1202C94.1771 24.446 94.4171 24.9431 94.4171 25.6117C94.4171 26.2289 94.2286 26.6746 93.8 27.0518C93.3028 27.4804 93.0628 27.5318 91.9142 27.5318M80.4108 26.9146C82.8795 26.4689 84.5938 24.206 84.5938 21.4287C84.5938 17.5028 82.0223 15.497 76.8278 15.497H67.9645V39.5324H78.1478C82.588 39.5324 85.7082 36.8065 85.7082 33.0006C85.7082 29.7776 83.6338 27.4118 80.4108 26.9146ZM79.4679 24.8574C78.5593 25.5603 78.2507 25.6117 75.8849 25.6117H71.8047V18.6686H76.2449C79.5193 18.6686 80.7365 19.5772 80.7365 21.9944C80.7365 23.1945 80.2908 24.206 79.485 24.8574M81.6794 32.6063C81.6794 33.9607 81.028 35.1779 79.9651 35.8293C78.9536 36.3779 78.7479 36.3779 76.2277 36.3779H71.7875V28.7833H78.1307C78.885 28.8347 79.6393 29.0919 80.2393 29.5376C81.148 30.1891 81.6451 31.3548 81.6451 32.6063M71.0675 12.5826L75.4563 3.20501L70.5018 8.60525L71.0675 12.5654V12.5826ZM66.6102 12.8054L69.2846 8.6224L66.6102 0.736328L63.9358 8.6224L66.593 12.8054H66.6102ZM62.17 12.5826L62.7186 8.6224L57.7641 3.22215L62.1528 12.5997L62.17 12.5826ZM65.273 15.5141H56.4097C51.2152 15.5141 48.6437 17.5199 48.6437 21.4458C48.6437 24.206 50.358 26.4689 52.8267 26.9318C49.6037 27.429 47.5293 29.7948 47.5293 33.0178C47.5293 36.8408 50.6495 39.5495 55.0897 39.5495H65.273V15.5141ZM61.4328 25.6117H57.3526C54.9868 25.6117 54.6782 25.5603 53.7696 24.8574C52.9638 24.206 52.5181 23.1945 52.5181 21.9944C52.5181 19.5772 53.7353 18.6686 56.9926 18.6686H61.4328V25.6117ZM61.4328 36.3779H56.9926C54.4725 36.3779 54.2668 36.3779 53.2724 35.8293C52.2095 35.1779 51.5581 33.9607 51.5581 32.6063C51.5581 31.3548 52.0552 30.1891 52.9638 29.5376C53.5639 29.0919 54.3182 28.8347 55.0725 28.7833H61.4157V36.3779H61.4328ZM44.5635 29.0405V22.3716H42.7977V29.349C42.7977 31.4063 41.7348 32.4692 39.6947 32.4692C37.6546 32.4692 36.6088 31.4063 36.6088 29.349V22.3716H34.843V29.0405C34.843 31.2863 35.2888 32.4177 36.4717 33.1206C37.346 33.6178 38.6146 33.9607 39.7118 33.9607C40.809 33.9607 42.0776 33.6007 42.9348 33.1206C44.1349 32.4177 44.5806 31.2863 44.5806 29.0405M32.9572 27.9947C32.9572 24.6345 30.3171 22.1487 26.6998 22.1487C23.0825 22.1487 20.4424 24.6345 20.4424 27.9947C20.4424 31.3548 23.0654 33.8407 26.6998 33.8407C30.3343 33.8407 32.9572 31.3891 32.9572 27.9947ZM31.0543 27.9947C31.0543 30.4805 29.1856 32.3663 26.717 32.3663C24.2483 32.3663 22.3453 30.4805 22.3453 27.9947C22.3453 25.5089 24.2311 23.6574 26.717 23.6574C29.2028 23.6574 31.0543 25.526 31.0543 27.9947ZM17.1851 36.0179C17.6308 35.3493 18.008 34.9721 18.1794 33.7378V22.3716H16.3793V32.1606C16.3793 33.6007 16.1908 34.475 15.7107 35.2293C15.4022 35.7093 15.1622 35.9836 14.3907 36.8579H16.5336C16.5336 36.8579 16.8079 36.5837 17.1851 36.0351M11.3906 33.6349H13.1906V22.3716H11.3906V33.6349ZM6.81321 27.7204C7.96183 27.5147 8.76758 26.4518 8.76758 25.1489C8.76758 23.3145 7.56753 22.3716 5.13313 22.3716H0.984375V33.6349H5.7503C7.82468 33.6349 9.29903 32.3663 9.29903 30.5662C9.29903 29.0576 8.33899 27.9433 6.81321 27.7204ZM6.36747 26.7432C5.93888 27.0689 5.80173 27.1032 4.6874 27.1032H2.76731V23.8459H4.84169C6.36747 23.8459 6.93321 24.2745 6.93321 25.406C6.93321 25.9717 6.72749 26.4518 6.35033 26.7432M7.41323 30.3777C7.41323 31.012 7.10465 31.5777 6.60748 31.8863C6.12746 32.1435 6.04174 32.1435 4.85883 32.1435H2.78446V28.5776H5.76745C6.12746 28.5947 6.47034 28.7147 6.76178 28.9205C7.19037 29.229 7.41323 29.7776 7.41323 30.3605" fill="#DB2850"/>
</g>
</g>
<defs>
<clipPath id="clip0_864_8218">
<rect width="141.881" height="38.8132" fill="white" transform="translate(0.984375 0.736328)"/>
</clipPath>
</defs>
</svg>
