<svg width="130" height="30" viewBox="0 0 130 30" fill="none" xmlns="http://www.w3.org/2000/svg">
<g clip-path="url(#clip0_875_8282)">
<mask id="mask0_875_8282" style="mask-type:luminance" maskUnits="userSpaceOnUse" x="0" y="0" width="130" height="30">
<path d="M129.34 0.398438H0.865234V29.8855H129.34V0.398438Z" fill="white"/>
</mask>
<g mask="url(#mask0_875_8282)">
<path d="M2.61388 2.07888C3.59107 0.947398 5.09971 0.467377 6.55692 0.398802C8.06556 0.330228 9.60848 0.690244 10.8428 1.58171C11.4771 2.02745 12.0086 2.62747 12.5229 3.19321C11.82 3.72467 11.1 4.25612 10.3971 4.78757C9.86564 4.05039 9.21418 3.34751 8.357 3.03892C7.36267 2.64462 6.17976 2.61033 5.21972 3.14178C4.63683 3.45037 4.24253 4.1704 4.44825 4.82186C4.5854 5.33617 5.11685 5.57618 5.57973 5.73047C7.19123 6.22763 8.9056 6.39907 10.4485 7.1191C11.3057 7.51341 12.06 8.2163 12.4029 9.12491C12.9001 10.4793 12.6943 12.1079 11.7514 13.2222C10.86 14.3023 9.47133 14.8509 8.09984 15.0223C6.60835 15.1937 5.06542 15.0395 3.67679 14.4566C2.6996 14.0451 1.82528 13.3594 1.19096 12.5022C1.0881 12.3308 0.882378 12.1936 0.865234 11.9707L0.968096 12.0736C1.67098 11.5593 2.39102 11.0621 3.11105 10.5307C3.50535 11.0964 3.96823 11.645 4.5854 12.005C5.42544 12.5022 6.41977 12.7079 7.39696 12.7079C8.09984 12.7079 8.85416 12.5193 9.38562 12.0222C9.91707 11.525 10.0714 10.6164 9.64277 9.99923C9.19704 9.41635 8.42557 9.22777 7.73983 9.05633C6.24833 8.67917 4.67112 8.54202 3.33392 7.73627C2.56245 7.2734 1.94528 6.51908 1.77385 5.61046C1.51669 4.37612 1.77385 2.98749 2.63103 2.04459" fill="black"/>
<path d="M63.5587 1.97738C65.9588 -0.199864 70.0561 -0.114146 72.3019 2.25167C72.9191 2.8517 73.2963 3.62316 73.6048 4.41177C72.7991 4.75464 72.0105 5.08037 71.2047 5.42324C70.879 4.53178 70.3647 3.64031 69.5247 3.16029C68.5989 2.64598 67.4503 2.5774 66.4731 2.93742C65.4788 3.29744 64.7416 4.17176 64.3644 5.14895C63.8844 6.38329 63.833 7.75478 64.0387 9.04055C64.2101 10.052 64.6387 11.0635 65.4102 11.7664C66.5588 12.8293 68.4103 12.9664 69.7475 12.195C70.7247 11.6292 71.2047 10.4806 71.3076 9.40057C70.159 9.40057 69.0104 9.40057 67.8789 9.40057C67.8789 8.64625 67.8789 7.89193 67.8789 7.13761C69.8161 7.13761 71.7362 7.13761 73.6734 7.13761C73.6734 9.65772 73.6734 12.1778 73.6734 14.6979C72.9362 14.6979 72.1991 14.6979 71.4619 14.6979C71.4619 14.3036 71.4619 13.9265 71.4619 13.5322C70.2961 14.6808 68.616 15.2637 66.9874 15.0922C65.4788 14.9722 64.0216 14.2522 63.0101 13.1207C61.7243 11.6807 61.1414 9.7263 61.1586 7.80621C61.1414 5.66326 61.8958 3.41744 63.5415 1.97738" fill="black"/>
<path d="M17.6818 3.03922C17.6818 4.63358 17.6818 6.22793 17.6818 7.82229C18.779 7.77086 19.8933 7.92515 20.9562 7.668C21.6763 7.49656 22.3277 6.94796 22.4991 6.21079C22.6877 5.43933 22.6877 4.51357 22.1906 3.84497C21.6934 3.2278 20.8705 3.07351 20.1333 3.05636C19.3104 3.05636 18.4875 3.05636 17.6646 3.05636M15.1445 0.810547C16.8418 0.810547 18.5561 0.810547 20.2533 0.810547C21.5734 0.82769 22.9792 1.13628 23.9735 2.06203C25.4136 3.3478 25.6536 5.59362 24.9507 7.32512C24.3335 8.78233 22.8934 9.86238 21.3334 9.99953C20.1162 10.1024 18.9161 10.0338 17.6989 10.051C17.6989 11.5939 17.6989 13.1368 17.6989 14.6797C16.8417 14.6797 16.0017 14.6797 15.1445 14.6797C15.1445 10.051 15.1445 5.43933 15.1445 0.810547Z" fill="black"/>
<path d="M30.0954 3.03922C30.0954 4.46214 30.0954 5.9022 30.0954 7.32512C30.9183 7.32512 31.7412 7.32512 32.547 7.32512C33.1641 7.32512 33.8156 7.22226 34.347 6.87939C35.4271 6.22793 35.5642 4.445 34.6042 3.6221C34.0727 3.17637 33.3527 3.03922 32.6841 3.03922C31.8269 3.03922 30.9526 3.03922 30.0954 3.03922ZM27.541 0.810547C29.324 0.810547 31.124 0.810547 32.907 0.810547C34.0384 0.810547 35.2556 0.96484 36.1985 1.65058C37.8615 2.86778 38.4444 5.35361 37.4843 7.17083C37.0043 8.07944 36.13 8.71376 35.2042 9.12521C36.1985 10.9767 37.21 12.8282 38.2215 14.6797C37.2615 14.6797 36.3014 14.6797 35.3585 14.6797C34.4499 12.9654 33.5413 11.251 32.6327 9.5538C31.7926 9.5538 30.9526 9.5538 30.1126 9.5538C30.1126 11.2682 30.1126 12.9825 30.1126 14.6797C29.2554 14.6797 28.3982 14.6797 27.541 14.6797C27.541 10.0681 27.541 5.43933 27.541 0.810547Z" fill="black"/>
<path d="M41.2891 0.810547C42.1291 0.810547 42.9863 0.810547 43.8435 0.810547C43.8435 5.43933 43.8435 10.0681 43.8435 14.6797C42.9863 14.6797 42.1462 14.6797 41.2891 14.6797C41.2891 10.051 41.2891 5.43933 41.2891 0.810547Z" fill="black"/>
<path d="M47.668 0.810547C48.4737 0.810547 49.2966 0.810547 50.1024 0.810547C52.0053 3.93069 53.9082 7.03368 55.8112 10.1538C55.8112 7.03368 55.8112 3.93069 55.8112 0.810547C56.6169 0.810547 57.4398 0.810547 58.2456 0.810547C58.2456 5.43933 58.2456 10.051 58.2456 14.6797C57.4741 14.6797 56.7027 14.6797 55.9312 14.6797C53.9768 11.5253 52.0396 8.37089 50.0852 5.21646C50.0852 8.37089 50.0852 11.5253 50.0852 14.6797C49.2795 14.6797 48.4737 14.6797 47.668 14.6797C47.668 10.051 47.668 5.43933 47.668 0.810547Z" fill="black"/>
<path d="M77.0156 0.810547C80.1358 0.810547 83.2559 0.810547 86.3932 0.810547C86.3932 1.58201 86.3932 2.35347 86.3932 3.12494C84.1302 3.12494 81.8501 3.12494 79.5872 3.12494C79.5872 4.2907 79.5872 5.43933 79.5872 6.60509C81.5415 6.60509 83.4959 6.60509 85.4674 6.60509C85.4674 7.34227 85.4674 8.07944 85.4674 8.81662C83.5131 8.81662 81.5587 8.81662 79.5872 8.81662V14.6969C78.73 14.6969 77.8728 14.6969 77.0156 14.6969C77.0156 10.0681 77.0156 5.43933 77.0156 0.810547Z" fill="black"/>
<path d="M88.7598 0.810547C89.6169 0.810547 90.4741 0.810547 91.3142 0.810547C91.3142 5.43933 91.3142 10.051 91.3142 14.6797C90.457 14.6797 89.5998 14.6797 88.7598 14.6797C88.7598 10.051 88.7598 5.43933 88.7598 0.810547Z" fill="black"/>
<path d="M94.8457 0.810547C98.103 0.810547 101.36 0.810547 104.635 0.810547C104.635 1.58201 104.635 2.35347 104.635 3.12494C102.217 3.12494 99.8174 3.12494 97.4172 3.12494C97.4172 4.22213 97.4172 5.30218 97.4172 6.39937C99.6288 6.39937 101.84 6.39937 104.069 6.39937C104.069 7.13654 104.069 7.87372 104.069 8.6109C101.857 8.6109 99.6288 8.6109 97.4172 8.6109C97.4172 9.86238 97.4172 11.131 97.4172 12.3825C100.023 12.3825 102.612 12.3825 105.218 12.3825C105.218 13.154 105.218 13.9254 105.218 14.6969C101.755 14.6969 98.3087 14.6969 94.8457 14.6969C94.8457 10.0681 94.8457 5.43933 94.8457 0.810547Z" fill="black"/>
<path d="M107.771 0.810547C108.629 0.810547 109.486 0.810547 110.326 0.810547C110.326 4.66786 110.326 8.52518 110.326 12.3825C112.212 12.3825 114.097 12.3825 116 12.3825C116 13.154 116 13.9083 116 14.6797C113.257 14.6797 110.514 14.6797 107.771 14.6797V0.810547Z" fill="black"/>
<path d="M120.595 3.12623C120.595 6.21209 120.595 9.29794 120.595 12.3838C122.001 12.3495 123.476 12.5381 124.813 11.9895C125.807 11.578 126.236 10.4637 126.424 9.46937C126.613 8.23503 126.63 6.94926 126.339 5.73206C126.133 4.8406 125.567 4.00056 124.71 3.60625C123.424 2.98908 121.967 3.14338 120.595 3.12623ZM118.041 0.811843C119.961 0.846131 121.898 0.743269 123.836 0.880418C125.43 0.98328 127.007 1.77189 127.967 3.0748C129.202 4.70345 129.459 6.86354 129.287 8.8522C129.133 10.6523 128.379 12.5038 126.87 13.5667C125.413 14.5782 123.561 14.6982 121.847 14.681H118.058C118.058 10.0523 118.058 5.44062 118.058 0.811843" fill="black"/>
<path d="M72.592 22.5664C72.4034 21.7435 73.5178 21.2806 74.1006 21.7607C74.5807 22.1721 74.7178 22.8578 74.6664 23.475C74.5464 24.9837 73.7235 26.3551 72.6263 27.3666C71.9063 28.0352 71.0834 28.601 70.1405 28.8924C69.489 29.0638 68.7175 29.1324 68.1347 28.6867C67.7575 28.4295 67.6718 27.9324 67.6032 27.5209C66.3689 28.3952 65.1688 29.4239 63.6773 29.7839C63.3516 29.8524 62.8887 29.9382 62.683 29.5953C62.5458 29.3896 62.7344 29.1496 62.8373 28.961C63.4373 28.0181 64.1402 27.1438 64.8602 26.2694C65.4945 25.5323 66.0946 24.7436 66.7632 24.0579C67.0203 24.2122 67.3975 24.3151 67.466 24.6408C66.5917 25.7894 65.4774 26.7495 64.5516 27.8638C64.2259 28.2581 63.9002 28.6352 63.7116 29.1153C65.2202 28.7553 66.4717 27.7266 67.5346 26.6294C67.9632 26.1837 68.3404 25.6865 68.8204 25.3094C68.9233 25.5494 69.1118 25.7894 69.0261 26.0637C68.8204 26.7495 68.2889 27.4181 68.5632 28.1552C68.7004 28.601 69.2661 28.6352 69.6261 28.481C71.4948 27.8466 73.1234 26.4066 73.8778 24.5551C74.1521 23.8179 74.3064 22.8407 73.7063 22.2407C73.312 21.9492 72.9177 22.4464 72.5577 22.5835" fill="black"/>
<path d="M35.0149 22.8753C35.2035 22.601 35.6664 22.6181 35.8035 22.9267C36.0092 23.2181 35.8035 23.5782 35.6149 23.8182C35.3064 24.2296 35.0149 24.6582 34.8092 25.1382C34.2949 26.3211 33.8663 27.5212 33.5234 28.7727C33.4377 29.0641 33.4034 29.3556 33.3863 29.6641C33.1291 29.8184 32.7691 30.007 32.4948 29.7841C32.3405 29.6127 32.3748 29.3556 32.4091 29.1498C32.7005 27.7269 33.3348 26.3897 33.9006 25.0696C33.5577 25.0696 33.3177 25.3268 33.0605 25.5154C32.1348 26.2354 31.1919 26.9212 30.3347 27.7269C30.1118 27.9326 29.7004 27.9841 29.4775 27.7441C29.0489 26.8697 28.8261 25.8925 28.3118 25.0696C28.1746 25.1725 28.0375 25.2925 27.9517 25.4468C27.3689 26.3726 27.0088 27.4012 26.5117 28.3612C26.0831 28.8584 25.6202 29.407 24.9688 29.5956C25.003 29.3213 25.0716 29.047 25.1916 28.807C25.7745 27.4869 26.426 26.184 27.1631 24.9325C27.3346 24.6068 27.5917 24.3325 27.6946 23.9725C27.7289 23.6124 27.6603 23.2353 27.6603 22.8753C27.866 22.7724 28.0889 22.6695 28.3118 22.7724C28.6203 22.8581 28.7232 23.201 28.7746 23.4924C28.8775 24.2125 29.2204 24.8468 29.4604 25.5154C29.649 25.944 29.769 26.424 30.0433 26.8183C30.2147 26.9897 30.3861 26.7497 30.5233 26.6811C31.7062 25.7382 32.872 24.7953 34.0549 23.8524C34.4149 23.5782 34.672 23.2181 34.9463 22.8753" fill="black"/>
<path d="M53.6338 26.9889C53.3081 27.2632 52.9823 27.7089 53.2052 28.1546C53.4281 28.7547 54.1652 28.8918 54.7138 28.7547C55.5196 28.5489 56.2396 28.0689 56.8739 27.5546C56.4968 27.1432 56.0853 26.766 55.691 26.3546C55.5539 26.2345 55.3996 26.0288 55.1767 26.0803C54.611 26.2688 54.0795 26.5946 53.6166 26.9717M55.1596 24.2802C55.091 24.6916 55.3824 25.0173 55.6225 25.3259C56.051 25.1202 56.4968 24.8973 56.7539 24.4859C56.9425 24.1602 56.7025 23.7144 56.3425 23.6287C55.8625 23.423 55.2967 23.8002 55.1596 24.2802ZM54.3367 24.023C54.9024 22.9087 56.5825 22.823 57.4054 23.6801C57.6797 23.9544 57.6797 24.4173 57.4568 24.7088C57.1139 25.1888 56.5482 25.4459 56.051 25.7202C56.5653 26.1831 56.9768 26.7489 57.5425 27.126C58.2797 26.766 58.8283 26.1317 59.5141 25.7202C59.4112 26.5603 58.6912 27.0574 58.1254 27.606C58.434 28.1718 59.034 28.6004 59.6512 28.7718C59.6169 28.9432 59.5998 29.0975 59.5655 29.269C58.6397 29.269 58.0054 28.5489 57.3368 28.0003C56.3939 28.6004 55.4167 29.269 54.251 29.269C53.5652 29.269 52.7766 29.149 52.2794 28.5832C52.0051 28.2918 51.9537 27.8289 52.1766 27.5203C52.8109 26.5774 53.9081 26.1317 54.851 25.5659C54.5424 25.1202 54.0795 24.6059 54.3367 24.0059" fill="black"/>
<path d="M39.4041 25.3268C38.4441 25.584 37.6383 26.2526 36.9869 26.9898C36.644 27.4012 36.2668 27.9841 36.5411 28.5327C36.6783 28.8413 37.0726 28.8413 37.3469 28.7384C38.1012 28.4641 38.7698 28.0184 39.4384 27.5898C39.9184 27.2812 40.0727 26.7155 40.3127 26.2354C40.4156 25.9954 40.6384 25.7211 40.4327 25.464C40.1584 25.1897 39.7298 25.2754 39.4041 25.344M36.9697 25.9097C37.8612 25.2068 39.0098 24.6925 40.1756 24.8811C40.827 24.9668 40.9642 25.7211 41.5471 25.9611C41.3585 26.6297 40.7927 27.144 40.6556 27.8298C40.5699 28.1212 40.6556 28.4127 40.707 28.7041C40.5184 28.9613 40.2441 29.1498 39.9013 29.1498C39.867 28.807 39.8841 28.4641 39.7813 28.1384C38.8727 28.4812 38.1183 29.1498 37.1411 29.3041C36.644 29.3899 36.1297 29.1841 35.7354 28.8927C35.3754 28.6184 35.3582 28.0869 35.4954 27.6926C35.7868 26.9555 36.3868 26.424 37.004 25.9268" fill="black"/>
<path d="M77.7363 25.637C77.0505 25.9456 76.3819 26.3056 75.8333 26.8199C75.5247 27.1114 75.2333 27.5057 75.3362 27.9685C75.439 28.3628 75.919 28.4314 76.2619 28.3971C77.1191 28.3285 77.942 27.9685 78.6792 27.5399C79.0049 27.3514 79.2621 27.0428 79.2792 26.6485C79.4849 26.4942 79.7592 26.3913 79.8449 26.1513C79.9135 25.8084 79.6563 25.4656 79.3135 25.397C78.782 25.2598 78.2163 25.4484 77.7191 25.6541M77.7191 24.9684C78.4906 24.8312 79.3478 24.8827 79.9821 25.3627C80.3421 25.6199 80.4621 26.0827 80.7021 26.4427C80.9078 26.8199 80.5478 27.1628 80.3078 27.4199C79.4678 28.2257 78.302 28.6028 77.1877 28.8086C76.3819 28.9286 75.4904 28.86 74.7876 28.38C74.359 28.0714 74.1875 27.4371 74.4275 26.9571C74.7018 26.3913 75.2504 26.0313 75.7819 25.7227C76.3819 25.3798 77.0334 25.1055 77.7191 24.9684Z" fill="black"/>
<path d="M84.2326 25.2583C84.884 25.104 85.5526 24.7611 86.2384 24.9497C86.5127 25.0011 86.7698 25.1897 86.8555 25.4812C86.9755 25.9612 86.8212 26.4241 86.6669 26.8698C87.6613 26.5269 88.6042 26.064 89.4614 25.4469C89.6842 25.2926 89.9242 25.104 90.2157 25.0869C90.5585 25.1211 90.9186 25.2926 91.09 25.6183C91.0557 25.8412 90.9529 26.0469 90.85 26.2355C90.37 27.0927 89.8728 27.9327 89.4099 28.807C89.2385 29.047 89.4099 29.3213 89.4442 29.5785C89.1699 29.7328 88.8442 29.6814 88.5699 29.5785C88.4327 29.4242 88.5699 29.2013 88.5699 29.0128C88.827 27.9156 89.5471 27.0069 90.0442 26.0126C90.0442 25.944 90.0442 25.8069 90.0442 25.7383C89.6499 25.8755 89.2899 26.0983 88.947 26.3383C87.987 26.9555 86.9755 27.5555 86.2041 28.4127C85.9298 28.7213 85.5012 28.7727 85.1069 28.8242C85.1069 28.567 85.1926 28.327 85.364 28.1556C85.9298 27.487 86.3241 26.6298 86.2898 25.7555C86.2898 25.584 86.1869 25.3783 85.9812 25.4297C85.5012 25.4297 85.124 25.7555 84.7811 26.0812C83.7182 27.0412 82.7582 28.1213 81.5067 28.8413C81.4039 28.8413 81.181 28.8756 81.0781 28.8756C81.1981 28.207 81.781 27.7613 82.261 27.3155C83.0154 26.7326 83.4954 25.8755 84.2326 25.2926" fill="black"/>
<path d="M44.1524 25.1215C44.3924 24.9844 44.8725 25.0015 44.8553 25.3787C44.8039 25.6872 44.6496 25.9787 44.5125 26.253C45.2839 25.8587 46.1068 25.5501 46.964 25.4129C47.3412 25.3444 47.7869 25.3615 48.0955 25.6358C48.4383 25.9273 48.4898 26.4416 48.3183 26.8359C48.044 27.4873 47.6326 28.0702 47.204 28.6017C47.3583 28.7217 47.5126 28.8245 47.6669 28.9274C47.3926 29.2017 46.964 29.2188 46.6211 29.116C46.3983 29.0474 46.3125 28.7902 46.4154 28.6017C46.6726 27.9502 47.2554 27.5045 47.5126 26.8702C47.6154 26.6473 47.5469 26.3216 47.3069 26.2016C47.0326 26.0473 46.6897 26.1158 46.3983 26.1501C45.6439 26.2873 44.8725 26.5273 44.3239 27.0759C43.7753 27.6245 43.261 28.1902 42.6952 28.7217C42.4381 28.9274 42.1123 29.2017 41.7523 29.0817C41.5123 28.876 41.6666 28.5331 41.8038 28.3102C42.3181 27.5388 43.0552 26.9559 43.5696 26.1673C43.7924 25.8244 43.8781 25.4129 44.1524 25.1044" fill="black"/>
<path d="M96.251 25.6856C95.2738 25.8741 94.3652 26.2856 93.5594 26.8513C93.148 27.1599 92.7194 27.4856 92.5137 27.9485C92.3594 28.2743 92.4965 28.72 92.8565 28.8229C93.3194 28.9257 93.7651 28.7543 94.1937 28.6171C94.9138 28.36 95.6166 28.0514 96.2852 27.6914C96.7138 27.4685 96.9538 27.0228 97.2624 26.6628C97.451 26.457 97.6567 26.1142 97.4339 25.857C97.1424 25.5313 96.6453 25.617 96.2681 25.6684M93.1308 26.1999C94.3994 25.5484 95.8567 25.1198 97.2967 25.3084C97.7253 25.3427 97.9653 25.7199 98.171 26.0627C98.2911 26.2856 98.5139 26.4913 98.4453 26.7828C98.3425 27.2285 97.8453 27.3999 97.6567 27.8114C97.4853 28.1371 97.5196 28.4971 97.5882 28.84C97.3139 29.1143 96.9538 29.2857 96.5595 29.2172C96.5595 28.8914 96.5767 28.5657 96.5595 28.24C95.4966 28.5486 94.5023 29.1314 93.388 29.3029C92.6851 29.4229 91.9651 29.2514 91.365 28.8743C90.9536 28.6171 91.005 28.0171 91.2622 27.6571C91.725 27.0056 92.4108 26.5942 93.0965 26.1999" fill="black"/>
<path d="M100.827 26.3029C101.05 25.96 101.136 25.5143 101.444 25.2228C101.65 25.1714 101.924 25.1371 102.079 25.3429C102.147 25.7372 101.89 26.0629 101.753 26.4058C102.473 26.0629 103.193 25.6343 103.999 25.5314C104.444 25.4629 104.976 25.6857 105.147 26.1315C105.284 26.4915 105.199 26.8858 105.027 27.2115C104.736 27.7772 104.359 28.2744 103.964 28.7544C104.136 28.8744 104.307 28.9944 104.462 29.1316C104.067 29.3373 103.536 29.4402 103.159 29.1487C103.021 28.9773 103.107 28.7373 103.21 28.5659C103.57 27.9144 104.204 27.4172 104.393 26.6629C104.393 26.2858 103.982 26.0972 103.656 26.08C102.919 26.08 102.233 26.4572 101.736 26.9715C101.136 27.6058 100.553 28.2573 99.9185 28.8573C99.6613 29.063 99.2842 29.3545 98.9413 29.1487C98.787 28.9087 98.9413 28.6173 99.0785 28.4116C99.5928 27.6401 100.33 27.0572 100.827 26.2858" fill="black"/>
</g>
</g>
<defs>
<clipPath id="clip0_875_8282">
<rect width="128.474" height="29.487" fill="white" transform="translate(0.865234 0.398438)"/>
</clipPath>
</defs>
</svg>
