<svg width="111" height="21" viewBox="0 0 111 21" fill="none" xmlns="http://www.w3.org/2000/svg">
<g clip-path="url(#clip0_875_8272)">
<mask id="mask0_875_8272" style="mask-type:luminance" maskUnits="userSpaceOnUse" x="0" y="0" width="111" height="21">
<path d="M110.276 0.398438H0.933594V20.3022H110.276V0.398438Z" fill="white"/>
</mask>
<g mask="url(#mask0_875_8272)">
<path d="M19.9796 19.6156V16.7697C19.9796 16.684 19.9967 16.564 20.031 16.4783C20.0653 16.4097 20.151 16.2897 20.2368 16.2897C20.8539 16.2897 21.4711 16.2897 22.0883 16.2897C22.6026 16.2897 23.134 16.2554 23.6312 16.204C23.7512 16.1869 23.8883 16.084 23.9569 15.964C24.3169 15.4497 24.4541 14.8497 24.4712 14.2325C24.4884 13.1182 24.4369 12.0038 24.4369 10.9066C24.4369 9.89515 24.4712 8.88368 24.4884 7.87221C24.5055 6.89502 24.5055 5.91783 24.2141 4.95779C24.0941 4.51206 23.8712 4.28919 23.374 4.28919C22.3454 4.28919 21.3339 4.27204 20.3053 4.27204C20.2025 4.27204 20.0653 4.2549 19.9453 4.2549V0.980469H34.4317V4.30633C34.0374 4.30633 33.6259 4.27204 33.2488 4.30633C32.3059 4.40919 32.1516 4.46062 32.0487 5.52353C31.9458 6.51786 32.0316 7.56362 32.0316 8.62653C32.203 8.54081 32.323 8.47223 32.443 8.40366C34.346 7.30647 36.2146 6.20927 38.1176 5.12923C38.3404 5.00922 38.3233 4.87207 38.2033 4.68349C37.9633 4.34062 37.569 4.30633 37.2089 4.28919C36.8661 4.27204 36.5403 4.28919 36.146 4.28919V0.980469H50.2724V4.23776C50.2724 4.23776 50.1867 4.2549 50.1352 4.2549C48.0266 4.15204 46.1236 4.76921 44.3235 5.81497C43.4492 6.32928 42.5749 6.8093 41.6834 7.32361C42.0949 7.88935 42.5406 8.45509 42.9521 9.03797C44.375 10.9581 45.7808 12.8781 47.2208 14.7982C47.7351 15.4668 48.318 16.084 49.1923 16.2383C49.7752 16.3412 50.3752 16.324 51.0267 16.3583C51.2839 17.3526 51.0438 18.467 51.1124 19.5642H36.1118V16.2726C36.6432 16.2726 37.1404 16.2897 37.6375 16.2726C37.7918 16.2726 37.9461 16.204 38.0833 16.1526C38.5461 15.9469 38.7347 15.5697 38.5804 15.0554C38.4604 14.6782 38.3233 14.2668 38.0833 13.9239C37.3804 12.8781 36.6089 11.8838 35.8717 10.8552C35.7517 10.7009 35.5974 10.6495 35.4431 10.7523C35.1688 10.9066 34.8946 11.0266 34.6374 11.1981C33.7802 11.7467 32.923 12.2953 32.0659 12.8439C32.0144 12.8781 31.963 12.9467 31.963 12.9981C31.9801 13.7525 31.9801 14.4896 32.0144 15.2268C32.0144 15.3983 32.0659 15.5525 32.1344 15.724C32.3059 16.1697 32.4773 16.2726 32.9573 16.2726C33.3516 16.2726 33.7631 16.2726 34.1574 16.324C34.2945 16.324 34.3974 16.4097 34.3974 16.5812V19.4442C34.3974 19.4442 34.3802 19.5299 34.3802 19.5984H19.9453V19.6499L19.9796 19.6156Z" fill="black"/>
<path d="M53.0523 19.6C53.0866 18.5542 53.1037 17.5599 53.138 16.5313C53.138 16.3427 53.2066 16.2741 53.4295 16.2741C54.0466 16.2741 54.6638 16.3084 55.281 16.3084C55.7781 16.3084 56.2582 16.2741 56.7553 16.2227C56.8925 16.2055 57.0468 16.0684 57.1153 15.9655C57.4239 15.5026 57.5954 14.9883 57.5954 14.4397C57.6125 13.2568 57.5782 12.0739 57.5782 10.891C57.5782 10.0338 57.5954 9.17664 57.6125 8.3366C57.6297 7.32513 57.6639 6.3308 57.4411 5.33647C57.2353 4.41071 57.2011 4.35928 56.2582 4.29071C55.3153 4.23928 54.3895 4.29071 53.4295 4.29071C53.3266 4.29071 53.2066 4.27356 53.0866 4.27356V0.964844H67.5558V4.23928C67.2987 4.20499 67.0586 4.15356 66.8015 4.15356C65.8757 4.11927 65.31 4.54786 65.19 5.49076C65.1043 6.21079 65.1214 6.93083 65.1043 7.63371V8.64519C65.6186 8.37089 66.0643 8.13088 66.51 7.87372C68.0873 6.94797 69.6645 6.02221 71.2417 5.07931C71.4303 4.97645 71.4303 4.85645 71.3274 4.7193C71.1731 4.46214 70.9502 4.34214 70.6759 4.32499C70.1959 4.29071 69.733 4.27356 69.2359 4.23928V0.964844H83.3794V4.23928H83.1051C81.2364 4.1707 79.5049 4.63358 77.8763 5.57648C76.8477 6.15936 75.819 6.74225 74.7561 7.34227C75.0819 7.80515 75.4247 8.28517 75.8019 8.74805C76.7105 9.93096 77.6534 11.0967 78.5449 12.3139C79.1278 13.1025 79.6078 13.9426 80.2078 14.6969C81.1507 15.9141 82.4193 16.497 83.9794 16.2912C84.1337 16.2912 84.168 16.3598 84.1851 16.4798C84.2194 16.9941 84.2537 17.5084 84.2708 18.0056C84.288 18.5199 84.2708 19.0514 84.2708 19.5657H69.253V16.2912H69.5959C70.0759 16.2912 70.5388 16.2912 71.0188 16.2055C71.8589 16.0341 72.1846 15.2626 71.7731 14.5083C71.636 14.2854 71.4988 14.0797 71.3274 13.9083C70.7617 13.3083 70.2645 12.6397 69.8873 11.9025C69.6988 11.5767 69.493 11.2682 69.253 10.9767C69.013 10.6681 68.893 10.651 68.533 10.8224C68.2587 10.9767 67.9844 11.131 67.7101 11.3025C66.8872 11.8168 66.0815 12.3139 65.2929 12.8454C65.2414 12.8797 65.1728 12.9825 65.1728 13.0511C65.1728 13.7711 65.19 14.5255 65.2243 15.2626C65.2243 15.4169 65.2757 15.5369 65.3271 15.6741C65.4986 16.1712 65.6872 16.2912 66.2015 16.2912C66.5958 16.2912 66.9901 16.3084 67.3844 16.3427C67.4529 16.3427 67.5901 16.4627 67.5901 16.5484C67.6072 17.5427 67.5901 18.5542 67.5901 19.5828H53.0352L53.0523 19.6Z" fill="black"/>
<path d="M109.968 0.964576V7.11914C109.059 7.17057 108.15 7.222 107.259 7.29057C106.693 7.32486 106.248 7.11914 105.87 6.72483C105.579 6.41625 105.27 6.10766 105.013 5.76479C104.379 4.89047 103.505 4.35901 102.51 3.96471C101.104 3.39897 99.6644 3.10753 98.1729 3.03895C97.0585 2.98752 95.9442 3.00467 94.8642 3.3304C94.2298 3.51898 93.647 3.79327 93.2526 4.35901C92.7726 5.04476 92.7212 6.12481 93.7498 6.69055C94.3841 7.05056 95.1042 7.25629 95.8242 7.30772C97.23 7.42772 98.6529 7.51344 100.076 7.58202C102.082 7.68488 104.087 7.78774 106.025 8.33634C106.933 8.59349 107.773 8.95351 108.528 9.55353C109.471 10.3079 110.002 11.3022 110.191 12.4851C110.448 14.1137 110.191 15.6395 109.162 16.9767C108.442 17.8853 107.516 18.5368 106.47 19.034C105.065 19.6854 103.59 20.0454 102.064 20.2169C99.853 20.4569 97.6928 20.3369 95.5499 19.7026C94.727 19.4454 93.9213 19.0854 93.1155 18.7768C92.7555 18.6568 92.3612 18.5368 91.984 18.4511C91.1954 18.2796 90.6125 18.6397 90.3554 19.3768C90.2868 19.5997 90.1668 19.6511 89.9611 19.6511C89.0182 19.634 88.0581 19.6511 87.1152 19.6511V13.548C87.1152 13.548 87.2867 13.5309 87.3552 13.5309H90.1668C90.3039 13.5309 90.4582 13.5994 90.5268 13.7023C92.3097 15.8795 94.6413 17.0967 97.4185 17.4739C98.9786 17.6968 100.539 17.6282 102.03 17.0282C102.527 16.8224 102.99 16.5824 103.35 16.1538C103.899 15.4681 103.762 14.6966 103.042 14.2166C102.459 13.8394 101.79 13.6166 101.104 13.5309C99.973 13.3937 98.8415 13.2737 97.6928 13.2051C95.6699 13.0508 93.6298 12.9994 91.624 12.5537C90.544 12.2965 89.4982 11.9879 88.6582 11.2508C87.1324 9.87926 86.3095 8.1649 86.4295 6.10766C86.5152 4.65046 87.2867 3.51898 88.4181 2.64465C89.6353 1.70175 91.0411 1.1703 92.5155 0.861714C95.6699 0.193113 98.79 0.330262 101.842 1.32459C102.596 1.5646 103.282 1.92462 104.019 2.19892C104.293 2.30178 104.585 2.40464 104.876 2.43893C105.767 2.55893 106.265 2.21606 106.419 1.32459C106.47 1.06744 106.556 1.01601 106.796 1.01601C107.756 1.03315 108.75 1.01601 109.711 1.01601H109.985L109.968 0.964576Z" fill="black"/>
<path d="M17.1515 0.966169V4.27489C16.7057 4.27489 16.2943 4.27489 15.8485 4.27489C15.0428 4.29203 14.2713 4.32632 13.4656 4.34346C13.277 4.34346 13.2084 4.44633 13.157 4.58347C12.797 5.33779 12.7113 6.1264 12.7113 6.94929C12.7284 8.62937 12.7456 10.2923 12.7627 11.9895C12.7798 13.0524 12.8141 14.081 12.8141 15.1439C12.8141 16.0183 13.037 16.1897 13.9285 16.2754C14.7342 16.3611 15.5571 16.2926 16.38 16.2926H17.1172V19.6184H1.25932C1.00217 19.6356 0.933594 19.5841 0.933594 19.3098C0.950737 18.3327 0.933594 17.3383 0.933594 16.3097H2.42509C3.11083 16.2926 3.83087 16.2754 4.51661 16.2583C4.77377 16.2583 4.9452 16.1554 5.03092 15.8983C5.15093 15.4525 5.32236 15.0239 5.33951 14.5611C5.37379 13.4124 5.33951 12.2638 5.35665 11.1152C5.37379 10.1723 5.40808 9.2294 5.42522 8.2865C5.44237 7.37789 5.45951 6.46927 5.39094 5.56066C5.32236 4.56633 4.65376 4.06917 3.65943 4.17203C3.12798 4.22346 2.57938 4.29203 2.04793 4.34346C1.7222 4.36061 1.41362 4.32632 1.08789 4.30918C1.03646 4.30918 0.933594 4.20631 0.933594 4.13774C0.933594 3.36628 0.933594 2.59481 0.933594 1.84049C0.933594 1.60048 0.985025 1.36047 1.03646 1.12046C1.0536 1.05189 1.13932 1.00046 1.22504 0.949026C1.27647 0.931882 1.34504 0.949026 1.41362 0.949026H17.1515V0.966169Z" fill="black"/>
</g>
</g>
<defs>
<clipPath id="clip0_875_8272">
<rect width="109.342" height="19.9037" fill="white" transform="translate(0.933594 0.398438)"/>
</clipPath>
</defs>
</svg>
