<svg width="120" height="23" viewBox="0 0 120 23" fill="none" xmlns="http://www.w3.org/2000/svg">
<g clip-path="url(#clip0_864_8021)">
<mask id="mask0_864_8021" style="mask-type:luminance" maskUnits="userSpaceOnUse" x="0" y="0" width="120" height="23">
<path d="M119.389 0.548828H0.275391V22.1498H119.389V0.548828Z" fill="white"/>
</mask>
<g mask="url(#mask0_864_8021)">
<path d="M119.391 0.874123C119.408 0.736974 119.374 0.651255 119.322 0.616968C119.254 0.548394 119.117 0.548394 118.997 0.582681C118.894 0.616968 118.808 0.651255 118.722 0.685543C118.071 0.942697 117.917 0.994128 116.785 0.976984C115.328 0.976984 112.345 0.736973 112.311 0.736973H112.276V0.771261C112.345 2.22847 112.396 4.2857 112.396 6.41151C112.396 8.26303 112.362 10.3545 112.276 12.0346L118.997 12.0518L119.391 9.87453L119.117 9.78881C119.014 10.2174 118.414 10.6974 117.591 11.0403C116.596 11.4689 115.345 11.6918 114.076 11.6575C114.025 9.92596 113.973 8.14302 113.973 6.49723C115.431 6.49723 116.802 6.70295 117.934 7.08011H117.951L118.242 5.31432V5.28003H118.208C116.922 5.67434 115.362 5.91435 113.956 5.91435C113.956 4.37142 113.991 2.91421 114.042 1.21699H114.162C114.694 1.337 115.345 1.45701 115.791 1.6113L115.894 1.64559C116.836 1.98846 117.591 2.2799 118.414 1.95417C118.928 1.76559 119.254 1.37129 119.374 0.822692M108.333 12.0689L108.83 9.85738L108.556 9.80595C108.368 10.3031 107.665 10.7831 106.636 11.1089C105.419 11.5032 103.842 11.6917 102.042 11.6746L108.539 0.976984L108.436 0.754117H108.419C107.236 0.856979 105.676 0.891266 104.716 0.891266C103.842 0.891266 102.299 0.839835 101.27 0.754117H101.253L100.687 2.99993L100.979 3.05136C101.253 2.17704 103.55 1.28557 106.55 1.28557H106.687L100.259 11.846L100.361 12.0861H108.333V12.0689ZM96.7956 12.0518C96.7098 10.4917 96.6756 8.09159 96.6756 6.42866C96.6756 4.76573 96.7098 2.36562 96.7956 0.805548V0.771261H94.9783V0.805548C95.0641 2.36562 95.0983 4.74858 95.0983 6.42866C95.0983 8.10873 95.0641 10.4917 94.9783 12.0518L96.7956 12.0689V12.0518ZM92.6811 11.4003C92.6811 11.4003 92.5611 11.3146 92.3725 11.3317C91.9439 11.366 90.8296 11.4346 89.9553 9.06878C89.9038 8.94877 89.8524 8.79448 89.801 8.65733C89.4067 7.74872 88.6523 7.04583 87.7094 6.73724C87.5894 6.68581 87.4523 6.63438 87.3666 6.61724C88.2752 6.36008 90.4867 5.17717 90.4867 3.29137C90.4867 1.67987 88.9438 0.685543 86.458 0.685543C85.5836 0.685543 84.2293 0.805548 83.2864 0.976984H83.2692V0.994128C83.3378 2.6742 83.3721 4.90287 83.3721 6.36008C83.3721 7.98873 83.3378 10.4746 83.2521 12.0518L85.0522 12.0689C84.9836 10.7831 84.9493 8.26302 84.9493 6.92582C85.3093 6.87439 85.8579 6.82296 86.2522 6.82296C86.7151 6.82296 87.0751 6.92582 87.3666 7.13155C87.7266 7.40584 87.8123 7.54299 87.9666 7.95444C88.018 8.09159 88.0695 8.22874 88.138 8.36589C88.3095 8.79448 88.4809 9.20592 88.6523 9.65166C88.6523 9.65166 88.7895 10.046 89.2695 11.0574C89.5952 11.726 90.0238 12.1375 90.5553 12.2746C90.641 12.2918 90.761 12.3089 90.8982 12.3089C91.2753 12.3089 91.8582 12.1889 92.5611 11.6403C92.6982 11.5375 92.7497 11.4689 92.7154 11.4175M86.7837 6.36008C86.0979 6.29151 85.3951 6.29151 84.9322 6.29151C84.9322 4.73144 84.9836 2.31419 85.035 1.07985C85.395 1.02842 85.8922 1.01127 86.1151 1.01127C87.3666 1.01127 88.7038 1.71416 88.7038 3.68568C88.7038 4.35428 88.5152 5.93149 86.8008 6.36008M80.3034 6.20579C80.3034 4.50857 79.7719 3.08565 78.7605 2.05703C77.7661 1.0627 76.3946 0.53125 74.7831 0.53125C71.3201 0.53125 68.8857 3.03422 68.8857 6.61724C68.8857 8.31446 69.4172 9.73738 70.4287 10.7489C71.423 11.7432 72.7945 12.2746 74.406 12.2746C77.869 12.2746 80.3034 9.77166 80.3034 6.18865M78.4519 6.54866C78.4519 8.02301 78.0747 9.3945 77.389 10.406C76.7032 11.4175 75.7603 11.9832 74.7317 11.9832C73.7031 11.9832 72.6745 11.4003 71.9202 10.3545C71.1487 9.29164 70.7372 7.85158 70.7372 6.29151C70.7372 4.73144 71.1144 3.44567 71.8002 2.45134C72.4859 1.43986 73.4288 0.891266 74.4574 0.891266C75.486 0.891266 76.5146 1.45701 77.269 2.50277C78.0404 3.56567 78.4519 5.00574 78.4519 6.54866ZM68.5429 19.0464C67.6857 19.0464 67.0342 19.715 67.0342 20.5893C67.0342 21.4636 67.6857 22.1322 68.5429 22.1322C69.4 22.1322 70.0515 21.4636 70.0515 20.5893C70.0515 19.715 69.4 19.0464 68.5429 19.0464ZM69.6229 20.6064C69.6229 21.2579 69.16 21.7551 68.5429 21.7551C67.9257 21.7551 67.4628 21.2579 67.4628 20.6064C67.4628 19.955 67.9257 19.4578 68.5429 19.4578C69.16 19.4578 69.6229 19.955 69.6229 20.6064ZM60.7597 3.03422C60.7597 1.8856 61.5826 0.942697 62.6112 0.942697C63.8798 0.942697 65.0627 2.48562 65.0627 3.41138V3.44567L65.3199 3.39424L65.8685 1.16556L65.8513 1.13128C64.857 0.771261 63.6226 0.599824 62.8855 0.599824C60.8111 0.599824 59.3196 1.90274 59.3196 3.70282C59.3196 5.5029 60.7768 6.27436 62.1997 6.96011C63.4855 7.57728 64.7027 8.17731 64.7027 9.60023C64.7027 10.8517 63.7084 11.8803 62.5083 11.8803C60.9311 11.8803 59.7139 10.1317 59.6968 9.24021V9.20592L59.4396 9.25736L58.891 11.5032C59.9368 12.0175 61.3254 12.2061 62.1826 12.2061C63.4169 12.2061 64.4627 11.846 65.1827 11.1603C65.8342 10.5603 66.177 9.73738 66.177 8.86305C66.177 7.13155 64.737 6.42866 63.3483 5.76006C62.0111 5.1086 60.7425 4.49143 60.7425 3.01708M57.1766 22.1151H57.4852V19.0978H57.0566V21.3093L55.2394 19.0978H54.948V22.1151H55.3766V19.9035L57.1938 22.1151H57.1766ZM50.5763 3.03422C50.5763 1.8856 51.3992 0.942697 52.4279 0.942697C53.6965 0.942697 54.8794 2.48562 54.8794 3.41138V3.44567L55.1365 3.39424L55.6851 1.16556L55.668 1.13128C54.6737 0.771261 53.4222 0.599824 52.7022 0.599824C50.6278 0.599824 49.1363 1.90274 49.1363 3.70282C49.1363 5.5029 50.5935 6.27436 52.0164 6.96011C53.3022 7.57728 54.5194 8.17731 54.5194 9.60023C54.5194 10.8517 53.525 11.8803 52.325 11.8803C50.7478 11.8803 49.5306 10.1317 49.5134 9.24021V9.20592L49.2563 9.25736L48.7077 11.5032H48.7248C49.7706 12.0175 51.1592 12.2061 52.0164 12.2061C53.2508 12.2061 54.2965 11.846 55.0165 11.1603C55.668 10.5603 56.0109 9.73738 56.0109 8.86305C56.0109 7.13155 54.5708 6.42866 53.1822 5.76006C51.845 5.1086 50.5763 4.49143 50.5763 3.01708M48.3991 20.6064C48.3991 21.4808 49.0506 22.1494 49.9077 22.1494C50.7649 22.1494 51.4164 21.4808 51.4164 20.6064C51.4164 19.7321 50.7649 19.0635 49.9077 19.0635C49.0506 19.0635 48.3991 19.7321 48.3991 20.6064ZM48.8277 20.6064C48.8277 19.955 49.2906 19.4578 49.9077 19.4578C50.5249 19.4578 50.9878 19.955 50.9878 20.6064C50.9878 21.2579 50.5249 21.7551 49.9077 21.7551C49.2906 21.7551 48.8277 21.2579 48.8277 20.6064ZM45.6047 0.874123C45.6218 0.736974 45.5875 0.651255 45.5361 0.616968C45.4675 0.548394 45.3304 0.548394 45.2104 0.582681C45.1075 0.616968 45.0218 0.651255 44.9361 0.685543C44.2846 0.942697 44.1303 0.994128 42.9989 0.976984C41.5417 0.976984 38.5587 0.736973 38.5244 0.736973H38.4901V0.771261C38.5587 2.22847 38.6101 4.2857 38.6101 6.41151C38.6101 8.26303 38.5758 10.3545 38.4901 12.0346L45.2104 12.0518L45.6047 9.87453L45.3304 9.78881C45.2275 10.2174 44.6275 10.6974 43.8046 11.0403C42.8103 11.4689 41.5588 11.6918 40.2902 11.6575C40.2216 9.92596 40.1873 8.14302 40.1873 6.49723C41.6445 6.49723 43.016 6.70295 44.1475 7.08011H44.1818L44.4732 5.31432V5.28003H44.4389C43.1532 5.67434 41.5931 5.91435 40.1873 5.91435C40.1873 4.37142 40.2216 2.91421 40.2902 1.21699H40.4102C40.9416 1.337 41.5931 1.45701 42.0388 1.6113L42.1417 1.64559C43.0846 1.98846 43.8389 2.2799 44.6618 1.95417C45.1761 1.76559 45.5018 1.37129 45.6218 0.822692M35.3699 10.1488L35.1814 9.9431H35.1642C34.4613 10.766 33.227 11.2632 31.9412 11.2632C29.3868 11.2632 27.6039 9.17164 27.6039 6.18865C27.6039 4.74858 28.0325 3.41138 28.8039 2.43419C29.524 1.52558 30.484 0.994128 31.4269 0.994128C32.2155 0.994128 33.0041 1.35414 33.6213 1.97131C34.0842 2.45134 34.3756 3.01708 34.3756 3.44567V3.47995L34.6328 3.42852L35.1814 1.18271H35.1642C33.6727 0.685543 32.3184 0.651255 31.9241 0.651255C30.2269 0.651255 28.6668 1.26843 27.5353 2.39991C26.4038 3.53138 25.8038 5.09145 25.8038 6.80582C25.8038 10.0631 27.9639 12.3432 31.0498 12.3432C32.8155 12.3432 34.2213 11.6403 35.3528 10.1831M23.5923 10.1488L23.4037 9.9431C22.7008 10.766 21.4665 11.2632 20.1807 11.2632C17.6263 11.2632 15.8434 9.17164 15.8434 6.18865C15.8434 4.74858 16.2719 3.41138 17.0434 2.43419C17.7634 1.52558 18.7235 0.994128 19.6835 0.994128C20.455 0.994128 21.2607 1.35414 21.8779 1.97131C22.3408 2.45134 22.6322 3.01708 22.6322 3.44567V3.47995L22.8894 3.42852L23.4551 1.18271H23.438C21.9465 0.685543 20.5921 0.651255 20.1978 0.651255C18.5006 0.651255 16.9405 1.26843 15.8091 2.39991C14.6947 3.53138 14.0776 5.09145 14.0776 6.80582C14.0776 10.0631 16.2377 12.3432 19.3235 12.3432C21.0722 12.3432 22.4951 11.6403 23.6266 10.1831M9.84309 12.0689H11.6775L7.39155 0.634112V0.599824L6.1915 1.13128C6.15721 1.19985 3.44852 8.48589 3.25994 8.91448C2.29989 11.126 1.57986 11.2289 0.894115 11.3489C0.756966 11.366 0.619817 11.3489 0.516955 11.3489C0.379806 11.3489 0.311232 11.3489 0.294088 11.3832C0.276944 11.4175 0.294088 11.486 0.499811 11.6403C0.739822 11.846 1.30556 12.2746 1.95702 12.2746C2.04274 12.2746 2.1456 12.2746 2.23132 12.2575C2.76277 12.1546 3.22565 11.7432 3.58566 11.0231C3.89425 10.406 4.40856 8.79448 4.47713 8.62304C5.12859 8.57161 6.0372 8.52018 6.43151 8.52018C6.82581 8.52018 7.87157 8.55447 8.54017 8.57161L9.84309 12.0346V12.0689ZM8.38588 7.85158C7.75157 7.92015 6.79152 7.9373 6.41436 7.9373C6.08863 7.9373 5.21431 7.9373 4.57999 7.90301L6.32864 2.12561L8.38588 7.85158ZM43.976 19.0978H43.5475V22.1151H45.3133V21.7036H43.976V19.0978ZM62.0969 19.0978H61.1882V22.1151H62.0969C62.5769 22.1151 62.8855 22.0122 63.1426 21.8236C63.5198 21.5493 63.7426 21.1036 63.7426 20.6064C63.7426 20.1093 63.5198 19.6635 63.1426 19.3892C62.9026 19.2178 62.594 19.0978 62.114 19.0978M62.0797 19.4921C62.5083 19.4921 62.7483 19.5778 62.9369 19.7493C63.1598 19.955 63.2969 20.2636 63.2969 20.5893C63.2969 20.915 63.1598 21.2236 62.9369 21.4293C62.7483 21.6008 62.4912 21.6865 62.0797 21.6865H61.634V19.4921H62.0797ZM73.8745 19.0978H73.5659V22.1151H73.9945V19.9035L75.8118 22.1151H76.1203V19.0978H75.6918V21.3093L73.8745 19.0978Z" fill="#1C1C19"/>
</g>
</g>
<defs>
<clipPath id="clip0_864_8021">
<rect width="119.114" height="21.601" fill="white" transform="translate(0.275391 0.548828)"/>
</clipPath>
</defs>
</svg>
