<svg width="113" height="27" viewBox="0 0 113 27" fill="none" xmlns="http://www.w3.org/2000/svg">
<g clip-path="url(#clip0_875_8260)">
<mask id="mask0_875_8260" style="mask-type:luminance" maskUnits="userSpaceOnUse" x="0" y="0" width="113" height="27">
<path d="M112.485 0.150391H0.46875V26.0544H112.485V0.150391Z" fill="white"/>
</mask>
<g mask="url(#mask0_875_8260)">
<path d="M2.92029 10.6937H6.16043V2.58479H2.92029V10.6937ZM0.46875 26.0544V0.150391H6.24615C7.80622 0.150391 8.57768 0.956141 8.57768 2.58479V10.6937C8.57768 12.3052 7.77193 13.1281 6.14329 13.1281H2.92029V26.0716H0.46875V26.0544Z" fill="black"/>
<path d="M32.1159 13.1297H28.8758V17.1413H32.1159V13.1297ZM32.1159 23.6387V21.2386H34.5503V23.6387C34.5503 25.2502 33.7274 26.0731 32.1159 26.0731H28.8758C27.2472 26.0731 26.4414 25.2502 26.4414 23.6387V13.1297C26.4414 11.5182 27.2129 10.6953 28.7729 10.6953H32.2017C33.7617 10.6953 34.5503 11.5011 34.5503 13.1297V17.1927C34.5503 18.77 33.7274 19.5757 32.1159 19.5757H28.8758V23.6387H32.1159Z" fill="black"/>
<path d="M58.089 13.1299H54.8489V23.6389H58.089V13.1299ZM60.5406 0.992188V26.0733H54.7632C53.2031 26.0733 52.4316 25.2504 52.4316 23.6389V13.1299C52.4316 11.5184 53.2374 10.6955 54.866 10.6955H58.1062V0.992188H60.5406Z" fill="black"/>
<path d="M78.3848 26.0556V13.1121C78.3848 11.4835 79.1562 10.6777 80.7334 10.6777H84.1793C85.7222 10.6777 86.5108 11.4835 86.5108 13.1121V15.4951H84.0764V13.1121H80.8363V26.0556H78.4019H78.3848Z" fill="black"/>
<path d="M110.05 13.1297H106.809V23.6387H110.05V13.1297ZM104.375 13.1297C104.375 11.5182 105.146 10.6953 106.707 10.6953H110.152C111.712 10.6953 112.484 11.5011 112.484 13.1297V23.6387C112.484 25.2502 111.678 26.0731 110.05 26.0731H106.809C105.181 26.0731 104.375 25.2502 104.375 23.6387V13.1297Z" fill="black"/>
</g>
</g>
<defs>
<clipPath id="clip0_875_8260">
<rect width="112.016" height="25.904" fill="white" transform="translate(0.46875 0.150391)"/>
</clipPath>
</defs>
</svg>
