<svg width="102" height="17" viewBox="0 0 102 17" fill="none" xmlns="http://www.w3.org/2000/svg">
<g clip-path="url(#clip0_864_8109)">
<mask id="mask0_864_8109" style="mask-type:luminance" maskUnits="userSpaceOnUse" x="0" y="0" width="102" height="17">
<path d="M101.855 0.191406H0.484375V16.015H101.855V0.191406Z" fill="white"/>
</mask>
<g mask="url(#mask0_864_8109)">
<path d="M101.855 9.24324C101.855 7.52888 100.38 5.88309 98.5288 5.88309H98.5116C97.3973 5.88309 96.2144 6.50026 95.2886 7.47745C94.3971 8.43749 93.8143 9.80898 93.8143 11.3348C93.8143 13.8206 95.3915 15.9978 98.1173 15.9978C98.8545 15.9978 100.397 15.5864 101.752 13.8206L101.426 13.3406C100.637 14.0606 99.7974 14.4206 98.9231 14.4206C97.3801 14.4206 95.7515 13.1863 95.7001 10.3233C98.2373 10.2376 100.963 10.0147 101.34 9.94613C101.752 9.87755 101.872 9.68898 101.872 9.2261M99.8317 8.91751C99.8317 9.24324 99.6945 9.3461 99.3345 9.3461C98.1345 9.39753 96.9687 9.41468 95.8029 9.41468C96.1115 7.66603 97.0373 6.72313 97.9973 6.72313C99.1631 6.72313 99.866 7.76889 99.8488 8.91751M88.6712 8.06033C88.6712 7.22029 89.2369 6.62027 90.0598 6.62027C91.1399 6.62027 91.877 7.49459 92.3228 8.81465L92.9057 8.66036C92.8371 8.12891 92.5971 6.77456 92.4256 6.29454C91.9628 6.10596 91.3799 5.90023 90.437 5.90023C88.3797 5.90023 87.0425 7.22029 87.0425 8.79751C87.0425 10.5119 88.534 11.2662 89.8027 11.8662C90.9684 12.3977 91.5342 12.912 91.5342 13.8206C91.5342 14.7292 90.8313 15.3121 90.0255 15.3121C88.7055 15.3121 87.7283 13.992 87.3168 12.552L86.7168 12.6377C86.7168 13.4949 86.9397 15.0035 87.094 15.3121C87.4711 15.6207 88.5169 16.0321 89.6312 16.0321C91.4313 16.0321 93.3171 15.0206 93.3171 12.9806C93.3171 11.4205 92.2028 10.6319 90.5055 9.92899C89.4941 9.51754 88.6883 8.98609 88.6883 8.06033M86.1339 10.8033C86.1339 8.11176 84.111 5.88309 81.368 5.88309C79.2593 5.88309 76.4649 7.54602 76.4649 11.1633C76.4649 13.5977 78.2307 16.015 81.3337 16.015C83.5624 16.015 86.1339 14.3349 86.1339 10.8033ZM83.9053 11.3005C83.9053 14.352 82.8252 15.2607 81.5909 15.2607C79.8422 15.2607 78.7107 13.2034 78.7107 10.4433C78.7107 7.94033 79.8251 6.63741 81.0766 6.63741C82.9109 6.63741 83.9053 8.66036 83.9053 11.3005ZM74.4763 12.0034C73.8248 11.009 72.9162 9.55183 72.5562 8.86608C74.1505 8.16319 75.3334 7.03171 75.3334 5.11163C75.3334 3.79157 74.7334 2.81438 73.8591 2.2315C73.0191 1.6829 71.9561 1.49432 70.2932 1.49432H64.7387V2.12864C66.4188 2.26578 66.6073 2.36865 66.6073 4.20301V12.9463C66.6073 14.8149 66.4188 14.9692 64.653 15.0892V15.7235H70.5504V15.0892C68.8189 14.9521 68.6131 14.7978 68.6131 12.9463V9.50039H69.2475C70.3275 9.50039 70.6704 9.75755 71.0647 10.409C71.699 11.4719 72.4533 12.8091 73.1905 13.872C74.1505 15.2778 75.0592 15.775 76.9107 15.895C77.1507 15.9121 77.4078 15.9121 77.6478 15.9121L77.7336 15.3292C77.2535 15.1749 76.7735 14.9349 76.1906 14.3178C75.6592 13.752 75.2306 13.1863 74.442 12.0034M71.939 8.19748C71.3904 8.64321 70.6704 8.81465 69.5903 8.81465H68.6303V3.39726C68.6303 2.83152 68.6989 2.59151 68.8532 2.45437C69.0246 2.31722 69.4017 2.2315 70.0189 2.2315C71.5961 2.2315 73.1048 3.10582 73.1048 5.47164C73.1048 6.65455 72.7448 7.52888 71.939 8.19748ZM57.0926 15.7578H61.7385V15.1749C60.5042 15.0206 60.3842 14.9521 60.3842 13.4949V9.27753C60.3842 7.15172 59.3042 5.90023 57.5555 5.90023C56.9212 5.90023 56.3726 6.14024 55.7554 6.55169C55.2068 6.89456 54.7439 7.25458 54.3154 7.56317V5.83166C53.2867 6.26025 52.1895 6.53455 51.0924 6.72313V7.25458C52.2581 7.47745 52.3781 7.54602 52.3781 8.9518V13.4606C52.3781 14.9006 52.2753 15.0206 50.8009 15.1749V15.7578H55.6526V15.1749C54.4525 15.0378 54.3154 14.9521 54.3154 13.4949V8.31748C54.9497 7.76889 55.7383 7.28887 56.5783 7.28887C57.8984 7.28887 58.4641 8.19748 58.4641 9.70612V13.3749C58.4641 14.9006 58.327 15.0549 57.1098 15.1921V15.775L57.0926 15.7578ZM50.7495 9.24324C50.7495 7.52888 49.2751 5.88309 47.4236 5.88309H47.4065C46.2921 5.88309 45.1092 6.50026 44.1835 7.47745C43.292 8.43749 42.7091 9.80898 42.7091 11.3348C42.7091 13.8206 44.2863 15.9978 47.0122 15.9978C47.7665 15.9978 49.2923 15.5864 50.6466 13.8206L50.3209 13.3406C49.5323 14.0606 48.6922 14.4206 47.8179 14.4206C46.275 14.4206 44.6464 13.1863 44.5949 10.3233C47.1322 10.2376 49.858 10.0147 50.2352 9.94613C50.6466 9.87755 50.7666 9.68898 50.7666 9.2261M48.7437 8.91751C48.7437 9.24324 48.6065 9.3461 48.2465 9.3461C47.0465 9.39753 45.8807 9.41468 44.7149 9.41468C45.0235 7.66603 45.9493 6.72313 46.9093 6.72313C48.0751 6.72313 48.778 7.76889 48.7437 8.91751ZM39.4004 9.24324C39.4004 7.52888 37.9261 5.88309 36.0745 5.88309H36.0574C34.9431 5.88309 33.7602 6.50026 32.8344 7.47745C31.9429 8.43749 31.36 9.80898 31.36 11.3348C31.36 13.8206 32.9373 15.9978 35.6631 15.9978C36.4003 15.9978 37.9432 15.5864 39.2975 13.8206L38.9718 13.3406C38.1832 14.0606 37.3432 14.4206 36.4688 14.4206C34.9259 14.4206 33.2973 13.1863 33.2458 10.3233C35.7831 10.2376 38.5089 10.0147 38.8861 9.94613C39.2975 9.87755 39.4175 9.68898 39.4175 9.2261M37.3775 8.91751C37.3775 9.24324 37.2403 9.3461 36.8803 9.3461C35.6802 9.39753 34.5145 9.41468 33.3487 9.41468C33.6573 7.66603 34.583 6.72313 35.5431 6.72313C36.7089 6.72313 37.4117 7.76889 37.3775 8.91751ZM26.3541 15.7578H31.3258V15.1749C29.92 15.0378 29.7828 14.9178 29.7828 13.4263V5.86595C28.7714 6.26025 27.9999 6.5174 26.8513 6.72313L26.5084 7.25458C27.7599 7.44316 27.8456 7.56317 27.8456 8.91751V13.4091C27.8456 14.9178 28.0342 15.0378 26.6627 15.1578L26.3198 15.7407L26.3541 15.7578ZM28.5828 2.14578V1.51147H23.6111V2.14578C25.3941 2.36865 25.4969 2.55723 25.0512 3.87729C24.3654 6.0031 22.8568 9.96327 21.7253 12.792H21.6739C20.3195 9.32896 18.6909 5.0602 18.1252 3.4487C17.7823 2.5058 17.8337 2.31722 19.3938 2.12864V1.49432H13.8221V2.12864C15.1422 2.26578 15.485 2.45437 16.1194 4.10015C17.3194 7.11743 19.1709 11.9691 20.6281 15.9807H21.3996C23.0625 11.4376 25.3255 5.98595 25.9427 4.49446C26.7827 2.5058 27.0741 2.30007 28.5656 2.12864M14.165 14.2835C13.9421 14.4206 13.6507 14.5063 13.3935 14.5063C12.9992 14.5063 12.6221 14.1977 12.6221 13.2206V9.2261C12.6221 8.06033 12.3992 7.13457 11.6106 6.48312C11.1134 6.08881 10.4448 5.88309 9.74193 5.88309C8.50759 6.14024 7.05038 6.96314 6.41607 7.40887C5.95319 7.7346 5.69604 8.0089 5.69604 8.33463C5.69604 8.86608 6.29606 9.29467 6.72465 9.29467C7.08467 9.29467 7.32468 9.14038 7.42754 8.74608C7.59898 8.06033 7.8047 7.58031 8.06186 7.27172C8.28472 7.01457 8.61045 6.86028 9.00476 6.86028C10.0505 6.86028 10.7534 7.7346 10.7534 9.29467V9.70612C10.2562 10.1176 8.64474 10.7004 7.32468 11.1462C6.14177 11.5576 5.57603 12.2262 5.57603 13.2891C5.57603 14.6435 6.67322 15.9807 8.26758 15.9807C8.88475 15.9807 9.93051 15.1921 10.7877 14.6092C10.8906 14.9692 11.0448 15.2607 11.3363 15.5521C11.5763 15.7921 12.0392 15.9807 12.4163 15.9807L14.3707 14.8492L14.1478 14.2492L14.165 14.2835ZM10.7705 13.9406C10.3762 14.3178 9.6905 14.6435 9.17619 14.6435C8.52474 14.6435 7.66755 14.112 7.66755 12.9806C7.66755 12.1748 8.13043 11.7805 8.93618 11.3862C9.39906 11.1633 10.3248 10.7519 10.7705 10.5119V13.9577V13.9406ZM0.484375 15.7578H5.50746V15.1749C4.11882 15.0378 3.94739 14.9178 3.94739 13.4606V0.191406C3.10735 0.482848 1.71872 0.808577 0.535806 0.928582V1.47718C1.89015 1.61433 2.0273 1.64861 2.0273 3.12297V13.4434C2.0273 14.8835 1.85587 15.0035 0.501519 15.1578V15.7407L0.484375 15.7578Z" fill="#1B1C1C"/>
</g>
</g>
<defs>
<clipPath id="clip0_864_8109">
<rect width="101.37" height="15.8236" fill="white" transform="translate(0.484375 0.191406)"/>
</clipPath>
</defs>
</svg>
