<svg width="79" height="19" viewBox="0 0 79 19" fill="none" xmlns="http://www.w3.org/2000/svg">
<g clip-path="url(#clip0_864_8116)">
<mask id="mask0_864_8116" style="mask-type:luminance" maskUnits="userSpaceOnUse" x="0" y="0" width="79" height="19">
<path d="M78.5259 0.730469H0.710938V18.3541H78.5259V0.730469Z" fill="white"/>
</mask>
<g mask="url(#mask0_864_8116)">
<path d="M5.59687 4.34777C6.33405 3.6106 7.22552 3.23344 8.27128 3.23344V0.730469C6.52263 0.730469 5.04827 1.34764 3.81393 2.56484C2.57959 3.79918 1.96242 5.27353 1.96242 7.02218H0.710938V9.54229H1.96242V18.3541H4.48254V7.02218C4.48254 5.97642 4.84255 5.08495 5.57973 4.34777M9.1456 8.47939C9.1456 7.51934 8.37414 6.74788 7.4141 6.74788C6.45405 6.74788 5.68259 7.51934 5.68259 8.47939C5.68259 9.43943 6.45405 10.2109 7.4141 10.2109C8.37414 10.2109 9.1456 9.43943 9.1456 8.47939ZM10.74 18.3541H13.2601V0.730469H10.74V18.3541ZM25.0892 12.0624C25.0892 13.1082 24.712 13.9825 23.9748 14.7368C23.2377 15.474 22.3462 15.8511 21.3004 15.8511C20.2547 15.8511 19.3803 15.474 18.626 14.7368C17.8889 13.9996 17.5117 13.1082 17.5117 12.0624C17.5117 11.0166 17.8889 10.1423 18.626 9.388C19.3632 8.65082 20.2547 8.27366 21.3004 8.27366C22.3462 8.27366 23.2205 8.65082 23.9748 9.388C24.712 10.1252 25.0892 11.0166 25.0892 12.0624ZM25.7578 16.5026C26.9921 15.2683 27.6093 13.7939 27.6093 12.0453C27.6093 10.2966 26.9921 8.82226 25.7578 7.60506C24.5234 6.37072 23.0491 5.75355 21.3176 5.75355C19.5861 5.75355 18.0946 6.37072 16.8774 7.60506C15.643 8.8394 15.0259 10.3138 15.0259 12.0453C15.0259 13.7768 15.643 15.2683 16.8774 16.5026C18.1117 17.7369 19.5861 18.3541 21.3176 18.3541C23.0491 18.3541 24.5406 17.7369 25.7578 16.5026ZM32.8724 9.25085C33.6096 8.51367 34.621 8.27366 35.6668 8.27366V5.75355C35.6668 5.75355 35.5468 5.75355 35.3582 5.75355C34.9125 5.77069 34.4839 5.83927 34.0724 5.92499C32.5295 6.25072 30.3351 7.15933 29.5637 9.64515C29.4779 9.85088 29.4094 10.0909 29.3751 10.3309V18.3198H31.8952V12.0281C31.8952 10.9824 32.1523 9.95374 32.8895 9.21656M53.0676 18.3541H55.5877V10.8109C55.5877 9.42229 55.0905 8.23938 54.1133 7.24505C53.1361 6.26786 51.9532 5.77069 50.5475 5.77069C49.1417 5.77069 47.9759 6.26786 46.9816 7.24505C46.913 7.33076 46.8273 7.39934 46.7759 7.46791C46.7073 7.39934 46.6387 7.31362 46.553 7.24505C45.5758 6.26786 44.3758 5.77069 42.9871 5.77069C42.0614 5.77069 41.2213 5.99356 40.467 6.42215V5.77069H37.9469V18.3541H40.467V10.8109C40.467 10.108 40.707 9.52515 41.2042 9.02798C41.6842 8.53082 42.2842 8.29081 42.9871 8.29081C43.69 8.29081 44.2729 8.53082 44.7701 9.02798C45.2672 9.52515 45.5072 10.108 45.5072 10.8109V18.3541H48.0273V10.8109C48.0273 10.108 48.2674 9.52515 48.7645 9.02798C49.2617 8.53082 49.8446 8.29081 50.5475 8.29081C51.2503 8.29081 51.8332 8.53082 52.3304 9.02798C52.8276 9.52515 53.0676 10.108 53.0676 10.8109V18.3541ZM67.4168 12.0624C67.4168 13.1082 67.0396 13.9825 66.3025 14.7368C65.5653 15.474 64.6738 15.8511 63.628 15.8511C62.5823 15.8511 61.708 15.474 60.9536 14.7368C60.2165 13.9996 59.8393 13.1082 59.8393 12.0624C59.8393 11.0166 60.2165 10.1423 60.9536 9.388C61.6908 8.65082 62.5823 8.27366 63.628 8.27366C64.6738 8.27366 65.5653 8.65082 66.3025 9.388C67.0396 10.1252 67.4168 11.0166 67.4168 12.0624ZM67.4168 18.3541H69.9369V5.77069H67.4168V7.02218C66.3367 6.19929 65.0681 5.77069 63.6452 5.77069C61.9137 5.77069 60.4222 6.38787 59.205 7.62221C57.9706 8.85655 57.3535 10.3309 57.3535 12.0624C57.3535 13.7939 57.9706 15.2854 59.205 16.5197C60.4393 17.7541 61.9137 18.3713 63.6452 18.3713C65.0853 18.3713 66.3367 17.9598 67.4168 17.1198V18.3713V18.3541ZM78.5259 8.27366V5.75355C78.5259 5.75355 78.4059 5.75355 78.2173 5.75355C77.7715 5.77069 77.3429 5.83927 76.9315 5.92499C75.3886 6.25072 73.1942 7.15933 72.4227 9.64515C72.337 9.85088 72.2856 10.0909 72.2341 10.3309V18.3198H74.7543V12.0281C74.7543 10.9824 74.9943 9.95374 75.7314 9.21656C76.4686 8.47939 77.4801 8.23938 78.5259 8.23938" fill="#E03488"/>
</g>
</g>
<defs>
<clipPath id="clip0_864_8116">
<rect width="77.8149" height="17.6236" fill="white" transform="translate(0.710938 0.730469)"/>
</clipPath>
</defs>
</svg>
