<svg width="85" height="25" viewBox="0 0 85 25" fill="none" xmlns="http://www.w3.org/2000/svg">
<g clip-path="url(#clip0_864_8123)">
<mask id="mask0_864_8123" style="mask-type:luminance" maskUnits="userSpaceOnUse" x="0" y="0" width="85" height="25">
<path d="M84.2618 0.798828H0.652344V24.4056H84.2618V0.798828Z" fill="white"/>
</mask>
<g mask="url(#mask0_864_8123)">
<path d="M19.2547 21.9548C18.3461 21.7834 17.5918 21.1319 17.2318 19.6061C16.8546 18.0975 17.0603 16.366 17.3004 14.9259C17.3004 14.9259 17.5232 13.6744 18.0547 12.2687C18.2775 11.6858 18.6376 10.9486 18.5518 10.5714C18.3975 9.79999 17.0603 9.62855 16.4603 9.74856C15.9974 9.85142 15.2603 10.5714 14.9002 11.0686C14.4202 11.7372 14.0259 12.3887 13.7002 13.0744L13.3745 13.743C13.3745 13.743 12.4659 15.5431 12.2773 17.326C12.2601 17.5318 12.243 17.7032 12.2773 17.8746C7.81993 22.452 3.75689 24.4921 2.43683 22.9834C0.859619 21.2005 4.42549 13.7945 4.42549 13.7945C7.27133 7.70846 10.9915 4.86262 10.9915 4.86262C11.4544 4.50261 11.6087 4.1083 11.6087 3.59399C11.6087 2.70253 10.8886 1.98249 9.99717 1.98249C9.56858 1.98249 9.19142 2.13679 8.89998 2.41108C8.89998 2.41108 8.65997 2.56538 8.3171 3.0454C8.3171 3.0454 5.00838 7.55417 2.69399 13.4173C2.69399 13.4173 -0.631876 20.9433 1.30535 23.4292C3.84261 26.6865 10.1172 20.9433 12.4659 18.5947C12.7744 19.2461 13.4259 19.2633 13.4259 19.2633C13.4259 19.2633 14.2831 19.4347 15.0545 18.8518C15.0545 18.8518 15.0717 20.0519 15.8431 21.4234C16.7346 23.0006 19.4605 23.0692 19.7519 22.452C19.7519 22.452 19.9233 22.0748 19.289 21.9377M15.1917 14.3773C15.1231 14.7374 15.0031 15.1659 14.866 15.6803C14.6088 16.6232 13.8716 18.0975 13.6316 18.0632C13.4259 18.0289 13.9059 16.2117 13.9059 16.2117C13.9059 16.2117 14.0774 15.5088 14.3345 14.9088C14.866 13.6402 15.1574 13.4173 15.2431 13.4516C15.3288 13.4687 15.2774 13.9145 15.1917 14.3945M54.1934 12.2687C54.6906 10.6915 55.8392 9.01138 55.8392 9.01138C55.8392 9.01138 56.4564 7.93133 55.6849 7.45131C54.5192 6.73128 52.6162 9.42283 52.6162 9.42283C52.6162 9.42283 51.5876 10.8457 48.8961 14.1716C46.2045 17.4975 46.9931 14.9602 47.3188 14.1373C47.6617 13.2973 48.2789 11.9087 48.2789 11.9087C48.656 11 48.0046 10.6743 48.0046 10.6743C46.8731 9.97142 45.7073 12.0458 45.1759 12.783C44.6444 13.5202 43.7358 14.8059 43.7358 14.8059C42.4329 16.5889 40.8386 18.5775 39.9814 18.1318C39.2785 17.7718 39.7585 15.9374 39.7585 15.9374C39.8442 15.5431 39.9299 15.1659 40.0328 14.8231C40.2728 14.7374 40.53 14.6516 40.8043 14.5659C43.8044 13.5202 44.833 11.6172 45.1759 10.4686C45.5188 9.31996 45.6216 8.2742 44.7302 7.67418C43.5472 6.90271 41.6786 8.05134 40.2042 10.0571C40.2042 10.0571 38.9013 11.7715 38.147 14.3088C36.6384 14.7031 36.4669 14.7202 35.764 14.8745C35.3183 14.9774 34.084 15.2517 33.2268 15.4402C32.9011 14.6516 32.421 13.8459 31.8553 13.023C31.8553 13.023 31.0324 11.8744 29.8495 10.2114C28.6494 8.5485 28.478 6.71413 29.9695 5.22264C30.4838 4.72547 31.2038 4.17688 32.0782 3.73114C32.7639 3.38827 32.8839 3.30255 33.6554 3.07968C34.4097 2.85682 35.2154 3.02825 35.2154 3.02825C35.5755 3.09683 35.5926 3.18255 35.8498 3.19969C36.3984 3.25112 36.8441 2.75396 36.8441 2.20536C36.8441 1.91392 36.7241 1.63962 36.5184 1.46818C36.5184 1.46818 35.644 0.422423 33.1754 0.988162C32.4039 1.1596 28.3066 2.56538 26.8494 5.94267C25.7007 8.61708 27.0379 9.90285 28.8037 12.3887C29.6781 13.623 30.741 15.0459 30.741 15.0459C30.9467 15.3374 31.1181 15.6117 31.2553 15.886C27.3637 16.7946 24.655 18.0118 24.1578 19.3833C23.4549 21.3376 25.5464 22.4348 25.5464 22.4348C25.5464 22.4348 27.6894 23.6349 30.3467 22.6234C30.3467 22.6234 33.0382 21.7491 33.5697 19.9319C33.9125 18.7661 33.9125 17.6861 33.6554 16.606C34.3068 16.4346 35.1983 16.2117 35.9012 16.0403C36.6041 15.8688 37.3584 15.6631 37.8727 15.526C37.8213 15.766 37.787 16.0231 37.7527 16.2803C37.3755 19.1433 39.1585 19.5719 39.1585 19.5719C39.1585 19.5719 41.0957 20.2233 42.6043 18.5432C44.0101 17.0003 45.3816 15.1831 45.3816 15.1831C45.3816 15.1831 44.2844 18.3375 45.6902 18.2861C47.4388 18.2346 49.6161 15.6631 49.6161 15.6631L51.8276 12.9716C51.8276 12.9716 51.6733 13.8116 51.759 14.9774C51.759 14.9774 51.879 17.3946 52.5134 18.3547C53.1648 19.3147 54.1591 18.989 54.1591 18.989C54.1591 18.989 55.0678 18.5775 54.502 17.6175C53.662 16.246 53.7306 13.863 54.2277 12.2687M43.1358 9.78284C43.1358 9.78284 43.4615 9.66284 43.4787 10.0914C43.4787 11.1029 42.3815 12.303 42.3815 12.303C41.8843 12.783 41.1986 13.1944 40.4442 13.5373C41.6443 10.16 43.1529 9.78284 43.1529 9.78284M26.0093 21.3891C25.4436 21.0291 24.775 19.4861 27.3808 18.3889C28.5637 17.8918 30.1752 17.4289 31.7181 17.0517C32.8839 21.1148 27.5008 22.3491 26.0265 21.3891M66.074 13.7087C66.0911 14.0173 65.9368 14.4116 65.6454 14.5488C65.5254 14.6002 65.4054 14.6516 65.2682 14.6688C63.451 14.8574 62.3538 15.1488 62.3538 15.1488C60.8452 15.5088 59.7823 15.8517 58.6851 16.2117C54.9649 17.4118 54.7592 16.1088 54.7592 16.1088C54.622 15.5602 54.7763 15.1488 55.6335 14.5145C55.6335 14.5145 57.6393 13.0058 59.9537 11.3772C61.7023 10.1429 62.2509 9.78284 62.8681 9.30282C64.1882 8.25706 64.3768 7.72561 64.3768 7.72561C62.5595 7.91419 59.3194 8.90852 59.3194 8.90852C58.5822 9.14853 58.1708 8.95995 57.9479 8.66851C57.6564 8.2742 57.7936 7.74275 58.3422 7.53703C61.7195 6.2684 64.7882 5.83981 64.7882 5.83981C65.6282 5.73695 66.4683 5.95981 66.7254 6.59413C66.9997 7.26273 66.5883 8.01705 65.9368 8.73708C65.2854 9.45711 63.6739 10.5372 61.5309 11.9944C61.5309 11.9944 59.9366 13.1258 58.2565 14.4631C58.2565 14.4631 59.7308 14.103 61.8909 13.6916C63.7596 13.3316 65.3025 13.2459 65.3025 13.2459C65.6968 13.2459 66.0225 13.263 66.0568 13.743M83.2862 17.4975C83.2862 17.4975 80.4232 16.7946 78.366 15.2174C76.463 13.7602 76.463 12.1315 76.463 11.8915C76.463 11.8915 76.463 10.3143 79.4803 7.4856C79.4803 7.4856 79.7717 7.24559 80.1489 6.85128C80.4232 6.55984 80.2175 6.18268 80.2175 6.18268C79.3946 4.69119 77.3202 5.10263 77.3202 5.10263C76.9773 5.15406 74.3372 5.66837 71.3714 7.98276C71.3714 7.98276 69.0227 9.78284 67.7198 11.3943C67.7198 11.3943 66.2968 12.9373 66.9997 13.623C67.7712 14.3773 69.9484 13.4173 71.3542 12.663C72.76 11.9258 74.4058 10.88 74.4058 10.88C74.4058 10.88 73.3257 13.8802 77.303 16.8289C78.8117 17.9604 81.5032 18.6632 81.5032 18.6632C81.5032 18.6632 83.9205 19.349 84.2291 18.4918C84.4691 17.8061 83.269 17.4803 83.269 17.4803M73.5829 9.50854C71.4228 11.1372 69.9313 11.6515 69.8284 11.5143C69.7084 11.3429 71.0628 9.98857 72.9657 8.63422C75.4858 6.85128 76.6002 6.47412 76.703 6.59413C76.7887 6.71413 75.4515 8.08562 73.5829 9.4914" fill="#E20A7D"/>
</g>
</g>
<defs>
<clipPath id="clip0_864_8123">
<rect width="83.6095" height="23.6068" fill="white" transform="translate(0.652344 0.798828)"/>
</clipPath>
</defs>
</svg>
