<svg width="70" height="44" viewBox="0 0 70 44" fill="none" xmlns="http://www.w3.org/2000/svg">
<g clip-path="url(#clip0_864_8084)">
<mask id="mask0_864_8084" style="mask-type:luminance" maskUnits="userSpaceOnUse" x="0" y="0" width="70" height="44">
<path d="M69.8477 0.136719H0.261719V43.0644H69.8477V0.136719Z" fill="white"/>
</mask>
<g mask="url(#mask0_864_8084)">
<path d="M29.6267 7.3735C29.3352 7.4935 29.0438 7.69923 28.9581 8.00781C28.8724 8.3164 29.0267 8.64213 29.301 8.81356C29.781 9.13929 30.3982 9.15643 30.9467 9.00214C31.4782 8.86499 31.8725 8.45355 32.1811 8.00781C31.7011 7.71637 31.2039 7.44207 30.6382 7.30492C30.3124 7.23635 29.9524 7.2192 29.6267 7.35635M36.3641 0.138887H36.7413C37.0327 0.173174 37.307 0.34461 37.4099 0.618908C37.5813 1.11607 37.4099 1.68181 37.067 2.05897C36.7413 2.35041 36.3298 2.57328 35.8841 2.57328C36.2613 2.45328 36.6213 2.23041 36.827 1.85325C37.0499 1.45895 37.0327 0.893207 36.707 0.550334C36.5356 0.361754 36.2441 0.413185 36.0384 0.53319C35.627 0.773201 35.3698 1.20179 35.1469 1.5961C34.9069 2.00754 34.8384 2.48756 34.7526 2.95044C34.5126 4.08192 34.324 5.2134 33.9812 6.31059C33.7412 6.94491 33.484 7.59636 33.0211 8.11067C33.4154 8.28211 33.8269 8.4364 34.2555 8.52212C34.9241 8.65927 35.6441 8.59069 36.2613 8.26497C35.7127 7.52779 35.1641 6.7049 35.1298 5.762C35.0955 5.31626 35.2669 4.8191 35.6612 4.56194C36.0384 4.2705 36.587 4.25336 36.9984 4.47622C37.5985 4.78481 38.0271 5.38484 38.3014 6.00201C38.5928 5.35055 39.0557 4.71623 39.7414 4.42479C40.1529 4.25336 40.6672 4.32193 41.0101 4.61337C41.3701 4.88767 41.5072 5.36769 41.4729 5.79628C41.4215 6.61918 40.9929 7.39064 40.4615 8.00781C39.6557 8.96785 38.5757 9.61931 37.5985 10.3736C36.7242 11.0251 35.8841 11.7794 35.3527 12.7395C35.1298 13.1338 34.9755 13.5623 34.8384 13.9909C34.9584 13.4938 35.0955 12.9966 35.2841 12.5166C35.5755 11.8308 36.0384 11.248 36.5699 10.7336C37.4099 9.9279 38.3699 9.29358 39.2786 8.57355C39.9814 8.0421 40.6329 7.40778 41.0443 6.61918C41.2501 6.24202 41.3015 5.74485 41.0615 5.35055C40.77 4.88767 40.1357 4.69909 39.6386 4.90481C39.0385 5.14483 38.6442 5.69342 38.3871 6.2763C38.4899 6.7049 38.5242 7.15063 38.4557 7.57922C38.4385 7.71637 38.3871 7.85352 38.2842 7.93924C38.1471 7.88781 38.1128 7.71637 38.0956 7.57922C38.0442 7.15063 38.0614 6.7049 38.1814 6.2763C37.9928 5.84771 37.7185 5.41912 37.3242 5.14483C37.0156 4.9391 36.6384 4.80195 36.2613 4.88767C35.9184 4.97339 35.5927 5.17911 35.4384 5.4877C35.2669 5.83057 35.3355 6.25916 35.507 6.60203C35.7812 7.13349 36.1927 7.57922 36.6213 7.99067C36.8613 7.75066 37.0499 7.40778 36.9127 7.06491C36.7584 6.94491 36.5184 6.89348 36.467 6.67061C36.3813 6.4306 36.5013 6.1563 36.7584 6.10487C37.0499 5.98486 37.3585 6.25916 37.3585 6.5506C37.3585 7.11634 37.1013 7.66494 36.7927 8.11067C37.1356 8.4364 37.6156 8.67641 37.8213 9.13929C37.8899 9.31073 37.6671 9.32787 37.547 9.27644C37.1185 9.12215 36.7927 8.77927 36.4841 8.45354C36.0555 8.86499 35.4898 9.15643 34.8898 9.13929C34.1012 9.13929 33.3983 8.7107 32.7468 8.3164C32.0439 9.01928 31.0325 9.41359 30.0381 9.2593C29.6095 9.17358 29.2152 8.95071 28.9409 8.60784C28.6495 8.23068 28.6838 7.64779 29.0095 7.32207C29.3867 6.91062 29.9867 6.79061 30.5353 6.87633C31.221 6.99634 31.8211 7.35635 32.404 7.69923C32.9354 6.61918 33.2611 5.47055 33.5869 4.33908C33.8269 3.44761 34.1183 2.57328 34.4955 1.73324C34.8726 0.961781 35.5412 0.258892 36.4156 0.0703125" fill="#040407"/>
<path d="M46.7874 20.3704C47.3532 20.2504 47.9532 20.2333 48.5361 20.2676C49.2904 20.319 50.0276 20.5247 50.7819 20.6619C51.0905 21.5019 51.1591 22.4277 51.1933 23.3191C51.0562 23.5248 50.7133 23.5248 50.559 23.3705C50.3533 22.7019 50.0276 22.0162 49.4618 21.5705C49.0161 21.2105 48.4504 21.039 47.8846 21.0562C47.3189 21.0562 46.736 21.2105 46.3246 21.6048C45.896 22.0162 45.7074 22.6162 45.7245 23.1991C45.7588 23.782 46.0845 24.3134 46.496 24.7078C46.976 25.1878 47.5932 25.4792 48.1761 25.7878C48.8961 26.165 49.6333 26.5421 50.2162 27.1079C50.8676 27.725 51.3476 28.5651 51.4505 29.4737C51.5876 30.5023 51.3133 31.5995 50.6276 32.3881C49.8904 33.2453 48.7589 33.6567 47.6618 33.7596C46.376 33.8796 45.0045 33.7082 43.873 33.0567C43.5987 32.9196 43.5301 32.5767 43.4273 32.3195C43.2216 31.5652 43.1187 30.7766 43.153 29.988C43.273 29.7823 43.5816 29.7994 43.7702 29.9023C44.0787 30.7937 44.5588 31.6338 45.2616 32.2681C45.7588 32.7138 46.3931 33.0053 47.0617 33.0053C47.7475 33.0053 48.5018 32.7995 48.9475 32.2338C49.4275 31.6509 49.479 30.8109 49.2733 30.108C49.0332 29.3022 48.3818 28.7022 47.6789 28.2736C46.8731 27.7936 45.9988 27.3993 45.2788 26.765C44.6102 26.1992 44.0616 25.4792 43.873 24.622C43.6501 23.6106 43.873 22.4962 44.5245 21.6905C45.0902 20.9876 45.9302 20.559 46.8046 20.3876" fill="#040407"/>
<path d="M56.8863 20.3844C57.4348 20.3672 58.0006 20.4186 58.5492 20.4186C59.7321 20.4529 60.915 20.4186 62.0979 20.3844C62.2351 20.5387 62.2351 20.7787 62.1322 20.9501C61.8065 21.053 61.4636 21.0187 61.155 21.173C61.0179 21.2758 61.0864 21.4644 61.1207 21.5844C61.2922 22.1159 61.5665 22.6302 61.7893 23.1445C62.4236 24.4988 63.0408 25.8703 63.7609 27.1732C64.4637 25.9217 65.1152 24.636 65.8009 23.3673C66.0752 22.8188 66.3838 22.2702 66.5895 21.7044C66.641 21.5501 66.7267 21.3101 66.5381 21.2073C66.2295 21.0872 65.8867 21.0701 65.5781 20.9672C65.4238 20.7958 65.4924 20.5558 65.5952 20.3844C66.9667 20.4529 68.3382 20.4701 69.7097 20.3844C69.744 20.4529 69.7954 20.5044 69.8297 20.5729V20.7958C69.8297 20.7958 69.7783 20.9844 69.6583 21.0015C69.2125 21.1215 68.7154 21.1387 68.3382 21.4473C67.9096 21.7901 67.6525 22.2702 67.3782 22.7159C66.6581 23.9159 65.9552 25.1331 65.2866 26.3675C65.0123 26.8989 64.6695 27.3961 64.4809 27.979C64.2923 28.5276 64.2923 29.0933 64.2923 29.6591C64.2923 30.4477 64.2752 31.2191 64.3266 32.0077C64.3609 32.2992 64.378 32.5906 64.5495 32.8478C64.6866 33.0364 64.9266 33.1049 65.1495 33.1392C65.5266 33.1906 65.9038 33.2249 66.2638 33.2592C66.3324 33.4478 66.3324 33.6707 66.2467 33.8592C65.8181 33.8592 65.4066 33.8421 64.978 33.825C63.3665 33.7735 61.7722 33.8078 60.1607 33.8592C60.0921 33.6707 60.0064 33.4307 60.1607 33.2764C60.5893 33.1735 61.0693 33.2078 61.4807 33.0364C61.8236 32.8649 61.8579 32.4192 61.8922 32.0935C61.9608 31.1506 61.9093 30.2077 61.9265 29.2648C61.9265 28.5104 61.6179 27.8247 61.275 27.1904C60.5378 25.7332 59.8007 24.276 59.0635 22.8016C58.8235 22.373 58.652 21.8759 58.292 21.533C57.8806 21.173 57.3148 21.173 56.8348 21.0015C56.7491 20.8301 56.7662 20.5901 56.8863 20.4358" fill="#040407"/>
<path d="M27.4167 20.6255C28.6854 20.454 29.9711 20.4369 31.2398 20.4369C32.3884 20.4026 33.5542 20.4369 34.6685 20.694C35.4057 20.8655 36.1257 21.1569 36.6914 21.6884C37.3772 22.3227 37.7886 23.2656 37.7715 24.2085C37.7886 25.1171 37.4972 26.0429 36.88 26.7115C36.0571 27.6029 34.8399 28.0315 33.6399 28.1344C33.3484 28.1344 33.057 28.1687 32.7655 28.1172C32.6455 27.9801 32.6455 27.7915 32.697 27.6201C33.4513 27.4658 34.1713 27.1058 34.6171 26.4714C35.1657 25.7 35.2857 24.6885 35.1828 23.7799C35.0628 22.8713 34.5485 21.997 33.7256 21.5684C33.1427 21.2426 32.457 21.2084 31.8055 21.2598C31.6512 21.2598 31.4626 21.3284 31.4112 21.4998C31.3598 21.6712 31.3598 21.8598 31.3598 22.0313V27.7915C31.3598 29.163 31.3255 30.5173 31.3941 31.8717C31.4283 32.2489 31.4455 32.746 31.8226 32.9517C32.2684 33.1403 32.7827 33.0717 33.2627 33.1918C33.3656 33.3803 33.3313 33.6032 33.2284 33.7746C31.3598 33.6889 29.4911 33.6889 27.6225 33.7746C27.4339 33.6375 27.4853 33.3632 27.5539 33.1918C27.8968 33.1403 28.2396 33.1403 28.5654 32.986C28.7711 32.9003 28.8739 32.6774 28.9254 32.4717C29.0111 32.146 29.0111 31.786 29.0282 31.4602C29.0282 28.7858 29.0282 26.0943 29.0282 23.4199C29.0282 22.8884 29.0625 22.3398 28.9425 21.8084C28.8911 21.6027 28.7539 21.3969 28.5311 21.3455C28.1882 21.2426 27.811 21.2426 27.451 21.1912C27.3653 21.0198 27.3139 20.7798 27.4682 20.6255" fill="#040407"/>
<path d="M0.381724 20.4719C0.621735 20.4033 0.861746 20.4719 1.10176 20.4719C2.7304 20.5233 4.35905 20.5062 5.98769 20.4547C6.10769 20.6262 6.12484 20.849 6.03912 21.0376C5.6791 21.1062 5.31909 21.1405 4.97622 21.2605C4.75335 21.3291 4.59906 21.5519 4.54763 21.7748C4.41048 22.3234 4.44476 22.8891 4.42762 23.4549C4.42762 25.7521 4.42762 28.0494 4.42762 30.3638C4.44476 30.8952 4.42762 31.4438 4.53048 31.9753C4.59906 32.2496 4.71906 32.541 4.95907 32.6781C5.21623 32.8324 5.54196 32.8667 5.8334 32.901C6.55343 32.9524 7.27346 32.9524 8.01064 32.901C8.49066 32.8667 8.98782 32.781 9.34784 32.4553C9.86215 31.9924 10.085 31.3409 10.3936 30.7409C10.5993 30.6552 10.8393 30.7238 11.0279 30.8438C10.805 31.8381 10.5479 32.8324 10.1707 33.7925C8.62781 33.7239 7.08488 33.7239 5.54195 33.7239C3.81045 33.7239 2.07894 33.7068 0.36458 33.7753C0.330293 33.7068 0.296006 33.621 0.261719 33.5525V33.2953C0.261719 33.2953 0.36458 33.1925 0.450299 33.1753C0.827458 33.0896 1.23891 33.0896 1.61607 32.9353C1.87322 32.8153 1.97608 32.541 2.02751 32.2667C2.09609 31.7524 2.09609 31.2381 2.11323 30.7409V23.592C2.11323 23.0606 2.11323 22.512 2.04466 21.9805C2.01037 21.7062 1.92465 21.3976 1.65035 21.2605C1.25605 21.0719 0.810315 21.1062 0.416011 21.0033C0.278862 20.8662 0.31315 20.609 0.416011 20.4547" fill="#040407"/>
<path d="M16.4269 21.0223C16.3241 20.8509 16.3412 20.6109 16.4612 20.4395C18.2784 20.508 20.0785 20.5252 21.8957 20.4395C22.0329 20.6109 22.0672 20.8509 21.93 21.0223C21.57 21.1081 21.1757 21.0738 20.8157 21.2452C20.6271 21.3309 20.5242 21.5195 20.4728 21.7081C20.3528 22.171 20.37 22.651 20.3528 23.131C20.3528 25.0682 20.3528 27.0055 20.3528 28.9598C20.3528 30.0056 20.3185 31.0514 20.4042 32.0971C20.4385 32.44 20.49 32.8514 20.85 33.0229C21.1928 33.16 21.5871 33.16 21.9643 33.2286C22.05 33.4172 22.0843 33.6915 21.8957 33.8115C20.0957 33.7429 18.2784 33.7258 16.4783 33.8115C16.3241 33.64 16.3412 33.4172 16.4269 33.2115C16.8041 33.1429 17.1812 33.1429 17.5413 33.0057C17.7984 32.9029 17.9013 32.6286 17.9356 32.3886C18.0384 31.7885 18.0213 31.1885 18.0213 30.5713C18.0213 27.9484 18.0213 25.3254 18.0213 22.7024C17.987 22.2395 18.0213 21.7252 17.7298 21.3481C17.3698 21.0395 16.8726 21.1252 16.4441 21.0052" fill="#040407"/>
<path d="M24.6573 38.9523C24.1087 39.0895 23.7658 39.6381 23.6801 40.1695C23.5944 40.8039 23.6115 41.4896 23.9715 42.0382C24.2973 42.5182 24.9316 42.6554 25.4802 42.5697C25.8916 42.5182 26.2516 42.2439 26.4402 41.8839C26.6802 41.3867 26.6974 40.821 26.646 40.2896C26.5945 39.8438 26.4231 39.3809 26.0459 39.1238C25.6516 38.8495 25.1202 38.8323 24.6744 38.9523M23.6972 38.9352C24.0916 38.5238 24.6916 38.3866 25.2402 38.4038C25.7888 38.4038 26.3717 38.6095 26.7317 39.0552C27.1774 39.5695 27.2803 40.3067 27.246 40.9582C27.2117 41.541 27.0231 42.1411 26.5945 42.5525C26.2859 42.8611 25.8573 42.9982 25.4459 43.0497H24.9144C24.4516 43.0154 23.9715 42.8268 23.663 42.4839C23.2001 42.0039 23.0801 41.301 23.0801 40.6496C23.0801 40.0324 23.2344 39.3638 23.6972 38.9181" fill="#040407"/>
<path d="M29.6641 38.4727H30.2641C31.087 39.7413 31.927 40.9928 32.7328 42.2785C32.6642 41.0099 32.6985 39.7413 32.6985 38.4727H33.2128C33.2128 39.9813 33.2128 41.4899 33.2128 42.9986C33.0071 42.9986 32.8013 42.9986 32.5785 42.9986C31.7556 41.7299 30.9327 40.4613 30.1098 39.2098C30.2127 40.4785 30.1441 41.7471 30.1612 43.0157H29.6641V38.4727Z" fill="#040407"/>
<path d="M36.1623 38.9527V42.5357C36.6423 42.5357 37.1395 42.5871 37.6024 42.4157C37.9967 42.2957 38.3396 42.0042 38.4938 41.6099C38.6996 41.1128 38.6996 40.547 38.5796 40.0156C38.4767 39.587 38.151 39.2098 37.7224 39.0555C37.2252 38.867 36.6766 38.9527 36.1623 38.9355M35.6309 38.4727C36.2823 38.4898 36.9166 38.4384 37.5509 38.5241C38.151 38.6098 38.7167 38.9698 38.991 39.5184C39.2825 40.1184 39.2996 40.8213 39.1624 41.4556C39.0424 42.0385 38.6481 42.5528 38.0995 42.7928C37.3281 43.1357 36.4538 42.9814 35.6309 43.0157C35.6309 41.5071 35.6309 39.9984 35.6309 38.4727Z" fill="#040407"/>
<path d="M43.2212 38.9701C42.6554 39.1244 42.3297 39.6901 42.2611 40.2559C42.1925 40.873 42.2097 41.5588 42.5697 42.0731C42.9297 42.5874 43.6498 42.7074 44.2155 42.5531C44.5755 42.4674 44.8841 42.2103 45.0384 41.8674C45.2441 41.4216 45.2784 40.9245 45.2441 40.4445C45.2098 39.9816 45.0555 39.4844 44.6955 39.193C44.2841 38.8844 43.7183 38.8501 43.2383 38.9872M42.3468 38.8672C42.7411 38.5244 43.2726 38.4044 43.7869 38.4215C44.3012 38.4215 44.8327 38.5758 45.2098 38.953C45.6213 39.3644 45.7927 39.9644 45.827 40.5473C45.8613 41.1988 45.7413 41.9188 45.3127 42.416C45.0041 42.8103 44.5069 43.016 44.0098 43.0674H43.4612C42.9469 43.016 42.4497 42.7931 42.124 42.3817C41.6782 41.8159 41.6097 41.0616 41.6611 40.3759C41.7125 39.8101 41.9011 39.2444 42.3468 38.8672Z" fill="#040407"/>
<path d="M48.2305 38.4742C48.4362 38.4742 48.6419 38.4742 48.8476 38.4742C49.6877 39.7428 50.4934 41.0114 51.3335 42.2629C51.2306 40.9943 51.2992 39.7257 51.282 38.4742H51.7963V43.0001C51.5906 43.0001 51.3849 43.0001 51.1792 43.0001C50.3563 41.7315 49.5334 40.4628 48.7105 39.2114C48.7962 40.48 48.7448 41.7315 48.7619 43.0001C48.5905 43.0001 48.419 43.0001 48.2476 43.0001C48.2476 41.4915 48.2476 39.9828 48.2476 38.457" fill="#040407"/>
<path d="M18.125 43.0162C18.125 41.5075 18.125 39.9989 18.125 38.4902C18.3136 38.4902 18.485 38.4902 18.6736 38.4902V42.5361H20.6623C20.6623 42.6904 20.6623 42.8619 20.6623 43.0162C19.8222 43.0162 18.965 43.0162 18.125 43.0162Z" fill="#040407"/>
</g>
</g>
<defs>
<clipPath id="clip0_864_8084">
<rect width="69.586" height="42.9276" fill="white" transform="translate(0.261719 0.136719)"/>
</clipPath>
</defs>
</svg>
