<svg width="59" height="19" viewBox="0 0 59 19" fill="none" xmlns="http://www.w3.org/2000/svg">
<g clip-path="url(#clip0_864_8130)">
<mask id="mask0_864_8130" style="mask-type:luminance" maskUnits="userSpaceOnUse" x="0" y="0" width="59" height="19">
<path d="M58.6731 0.789062H0.847656V18.4127H58.6731V0.789062Z" fill="white"/>
</mask>
<g mask="url(#mask0_864_8130)">
<path d="M7.17457 2.84693C5.70022 3.36123 4.41444 4.407 3.60869 5.7442C2.99152 6.78996 2.66579 7.99001 2.66579 9.20721C2.66579 10.6987 3.1801 12.1731 4.10586 13.3388C5.11733 14.6246 6.62597 15.5161 8.23747 15.7904C8.23747 14.7617 8.23747 13.7331 8.23747 12.7045C8.90607 12.7045 9.59182 12.7045 10.2776 12.7045C10.2776 13.7331 10.2776 14.7617 10.2776 15.7904C11.8205 15.5332 13.2777 14.7275 14.272 13.5103C15.0778 12.5674 15.6092 11.4016 15.7807 10.1673C16.0207 8.59004 15.6778 6.94425 14.8206 5.58991C14.032 4.32128 12.7977 3.34409 11.3919 2.84693C10.0376 2.3669 8.51177 2.3669 7.15742 2.84693M2.97438 3.60124C4.38016 1.98974 6.43739 0.961126 8.58035 0.78969C9.28323 0.78969 9.98612 0.755403 10.689 0.875408C12.7291 1.20114 14.632 2.33262 15.9178 3.9784C17.0664 5.43561 17.7179 7.28712 17.7179 9.13864C17.735 11.0244 17.0836 12.8931 15.9178 14.3674C14.5635 16.1161 12.4891 17.2647 10.2947 17.5219C10.2947 17.8133 10.2947 18.1048 10.2947 18.3962C9.62611 18.3962 8.94036 18.3962 8.25462 18.3962C8.25462 18.1048 8.25462 17.8133 8.25462 17.5219C6.26596 17.2819 4.36301 16.3218 3.02581 14.8303C1.74004 13.4417 0.951431 11.5902 0.84857 9.68723C0.84857 9.13864 0.814282 8.59004 0.900001 8.04144C1.12287 6.39566 1.8429 4.81844 2.95724 3.5841" fill="#211E21"/>
<path d="M21.816 1.2168H23.8561V11.7944C23.8904 12.3944 23.8561 12.9945 23.9761 13.5774C24.0961 14.1431 24.3532 14.6745 24.7475 15.086C25.1761 15.5489 25.759 15.8403 26.3419 16.0632C27.5248 16.5261 28.8791 16.6461 30.0963 16.286C30.9878 16.0289 31.8278 15.5317 32.3764 14.7774C32.7193 14.2974 32.9765 13.7488 33.0279 13.1659C33.1479 12.223 33.1136 11.263 33.1136 10.3201V1.2168H35.1537V10.1658C35.1537 11.6573 35.1709 13.2002 34.6565 14.6231C34.2451 15.7546 33.3193 16.6118 32.2907 17.2118C30.9707 17.9833 29.3935 18.1718 27.902 18.069C26.359 17.9661 24.799 17.5032 23.5818 16.5261C22.9303 16.0117 22.416 15.3089 22.1417 14.5203C21.816 13.4745 21.8331 12.343 21.7988 11.263V1.2168" fill="#211E21"/>
<path d="M40.1074 1.2168H42.1475V17.6747H40.1074V1.2168Z" fill="#211E21"/>
<path d="M46.8101 1.2168C50.7189 1.2168 54.6276 1.2168 58.5364 1.2168C55.7248 6.15416 52.9304 11.1087 50.1188 16.046C52.9647 16.046 55.8105 16.046 58.6564 16.046V17.6747C54.7648 17.6747 50.856 17.6747 46.9644 17.6747C49.7931 12.7202 52.6218 7.76566 55.4505 2.81115C52.5704 2.81115 49.6902 2.81115 46.793 2.81115V1.2168" fill="#211E21"/>
</g>
</g>
<defs>
<clipPath id="clip0_864_8130">
<rect width="57.8254" height="17.6236" fill="white" transform="translate(0.847656 0.789062)"/>
</clipPath>
</defs>
</svg>
