<svg width="100" height="70" viewBox="0 0 100 70" fill="none" xmlns="http://www.w3.org/2000/svg">
<g clip-path="url(#clip0_864_8188)">
<mask id="mask0_864_8188" style="mask-type:luminance" maskUnits="userSpaceOnUse" x="0" y="0" width="100" height="70">
<path d="M99.5001 0.0644531H0.015625V69.359H99.5001V0.0644531Z" fill="white"/>
</mask>
<g mask="url(#mask0_864_8188)">
<path d="M27.7363 3.01367C31.2336 3.01367 34.7309 3.01367 38.2454 3.01367C34.1823 4.57374 30.445 7.12814 27.7535 10.5569C27.7535 8.03675 27.7363 5.51664 27.7363 3.01367Z" fill="black"/>
<path d="M25.217 0.424469V48.7866H73.5449V0.424469C57.4299 0.424469 41.3149 0.424469 25.217 0.424469ZM24.8398 49.1638C24.8398 32.7916 24.8398 16.4366 24.8398 0.0644531H73.8878V49.0438C73.922 49.2495 73.6306 49.1295 73.5277 49.1638H24.8398Z" fill="black"/>
<path d="M40.2672 3.15234C40.4387 3.08376 40.6101 2.99805 40.7987 2.99805H70.9886V5.75817C69.6343 5.43244 68.1771 5.58673 66.8741 6.06676C65.8284 6.42677 64.8512 6.95822 63.8911 7.50682C62.4682 6.28962 60.6681 5.58673 58.7995 5.34672C56.2622 5.00385 53.6907 5.36387 51.2392 5.98104C49.7819 6.3582 48.359 6.78679 46.9532 7.35253C45.2903 8.07256 43.6274 8.98117 42.3759 10.3355C41.4844 11.2784 40.8673 12.5299 40.9015 13.85C40.8844 14.69 41.2787 15.4958 41.8616 16.0786C42.4445 16.6787 43.2331 17.0387 44.0045 17.3301C44.416 17.5016 44.8446 17.6558 45.2217 17.9301C45.3589 18.1702 45.0503 18.2902 44.896 18.4102C44.1931 18.7873 43.3702 18.8216 42.6159 19.0102C40.4215 19.4731 38.2957 20.1931 36.2556 21.0846C34.8327 21.7017 33.4612 22.4389 32.1754 23.2961C30.5639 22.3189 29.0553 21.1531 27.7695 19.7817C27.7695 17.2615 27.7695 14.7414 27.7695 12.2385C28.4381 11.1241 29.3125 10.1469 30.2211 9.20404C32.1926 7.23252 34.5241 5.63817 37.0614 4.48954C38.1071 4.04381 39.2043 3.61522 40.2672 3.15234Z" fill="black"/>
<path d="M56.1969 6.13403C58.5799 6.03117 61.1171 6.44262 63.0201 7.95126C60.1228 9.66562 57.6541 12.0314 55.5797 14.6887C53.0082 17.9803 51.0367 21.6833 49.2366 25.4378C44.3849 25.9864 39.379 25.9178 34.6816 24.4606C35.676 23.3291 36.876 22.3862 38.1789 21.6662C40.1676 20.5347 42.3791 19.8661 44.5564 19.2146C45.0707 19.0603 45.6021 18.9232 45.9621 18.5117C46.1679 18.2889 46.185 17.9288 46.0136 17.6888C45.7564 17.2945 45.3107 17.0545 45.0021 16.7116C44.1792 15.8373 43.9735 14.5173 44.2135 13.3858C44.4707 12.2543 45.0707 11.2257 45.8421 10.3857C47.0422 9.04845 48.6537 8.15698 50.2995 7.50552C52.1853 6.76835 54.1397 6.25404 56.1626 6.16832" fill="black"/>
<path d="M68.2823 6.68303C69.1738 6.46016 70.0996 6.46016 70.991 6.66589V13.9519C68.8309 16.4035 66.328 18.5464 63.5507 20.2779C60.242 22.3523 56.5904 23.8438 52.8359 24.8381C54.6189 21.4265 56.539 18.0835 58.8534 14.9805C60.3963 12.9062 62.1106 10.9689 64.0136 9.20314C64.8022 10.2146 65.0593 11.6033 64.6993 12.8376C64.3736 14.0034 63.6879 15.1863 62.5392 15.7177C62.1106 15.9406 61.5278 15.752 61.1506 16.112C60.8077 16.4035 60.9449 17.0549 61.4249 17.1406C62.0764 17.2778 62.7278 16.9692 63.2593 16.6263C64.425 15.7863 65.1279 14.4662 65.5394 13.1119C66.0022 11.5347 65.5394 9.87174 64.7679 8.48311C65.8308 7.71165 66.9966 7.0259 68.2823 6.71732" fill="black"/>
<path d="M63.0885 21.9907C65.9857 20.3964 68.6259 18.3734 70.9745 16.0762V37.0428C67.9401 39.1515 64.3742 40.6258 60.6541 40.7801C57.8425 40.9173 55.0824 40.2315 52.3908 39.4258C53.8481 38.1229 55.2881 36.7342 56.3339 35.0542C57.1568 33.7341 57.7054 32.2083 57.6882 30.6483C57.6025 29.7739 57.4997 28.831 56.9682 28.0939C56.7282 27.8024 56.4196 27.4253 55.991 27.4938C55.5967 27.4938 55.2881 27.9738 55.4596 28.3167C55.6653 28.7625 56.0939 29.0025 56.3167 29.4139C56.7968 30.3054 56.711 31.3511 56.471 32.294C56.0767 33.9227 55.0824 35.3456 53.9681 36.5628C53.1623 37.4543 52.2708 38.2772 51.3794 39.0829C49.0307 38.0714 46.7849 36.8371 44.6934 35.3799C47.8306 32.8084 50.1793 29.4482 52.1508 25.9338C55.9739 25.1452 59.6769 23.8594 63.0713 21.9736" fill="black"/>
<path d="M27.7539 21.0645C28.8854 22.0759 30.0683 23.0703 31.3712 23.8589C30.034 24.9903 28.7997 26.259 27.7711 27.6819C27.7711 25.4704 27.7711 23.2588 27.7711 21.0645" fill="black"/>
<path d="M30.9089 30.6672C31.5604 28.6442 32.7261 26.8099 34.0462 25.1641C38.7778 26.7927 43.8866 26.8956 48.8068 26.3813C47.4696 29.3814 45.9781 32.3815 43.7152 34.7988C42.3094 33.9245 40.9379 32.9473 39.3264 32.5015C38.4007 32.2444 37.4235 32.1929 36.4634 32.4158C35.7434 32.6215 35.0748 33.0673 34.6805 33.7016C34.2176 34.4731 34.2348 35.536 34.7834 36.256C35.6577 37.2675 37.012 37.6446 38.2978 37.7132C40.3036 37.8846 42.2751 37.1646 43.9038 36.0503C45.9267 37.4389 47.9668 38.7761 50.0926 39.9762C46.6467 41.8105 42.7037 42.9077 38.7778 42.4448C36.6177 42.2391 34.5433 41.3305 32.9318 39.8904C31.9032 38.9647 31.0632 37.7989 30.6689 36.4446C30.1889 34.5588 30.2746 32.5187 30.8746 30.6672" fill="black"/>
<path d="M36.4453 33.3398C37.2339 33.014 38.1253 33.1169 38.9482 33.3055C40.4397 33.6826 41.7255 34.5741 43.0456 35.3456C41.9141 36.1856 40.5426 36.6828 39.1368 36.7685C38.1082 36.8199 37.0282 36.6485 36.1195 36.1342C35.5538 35.8256 35.2281 35.1227 35.3652 34.4884C35.4509 33.9398 35.931 33.5283 36.4453 33.3398Z" fill="black"/>
<path d="M27.7535 38.1211C30.0507 40.5726 32.9994 42.4584 36.291 43.2127C40.1655 44.1214 44.2628 43.5385 47.8801 41.9956C48.943 41.567 49.9716 41.0355 50.9831 40.4698C52.8689 41.447 54.8575 42.287 56.9319 42.767C58.9549 43.2299 61.0807 43.367 63.1208 42.9385C66.0866 42.3041 68.761 40.7269 70.9897 38.7211V46.1957H27.7363V38.1211H27.7535Z" fill="black"/>
<path d="M24.3746 56.9805H29.7062V57.4605H24.3574C24.3574 57.2891 24.3574 57.1348 24.3574 56.9805" fill="black"/>
<path d="M8.72544 59.4509C9.51405 58.748 10.6455 58.508 11.657 58.7309C12.5485 58.9195 13.3028 59.6395 13.5942 60.4967C13.4057 60.5824 13.2171 60.6852 13.0285 60.771C12.7713 60.1709 12.3085 59.6052 11.6741 59.3823C10.9884 59.1766 10.1827 59.2966 9.6512 59.7766C9.17118 60.1881 9.03403 60.9081 9.2569 61.4738C9.39405 61.7824 9.63406 62.0224 9.89121 62.2453C10.9198 63.1711 12.2913 63.6339 13.2342 64.6454C13.92 65.3483 14.1085 66.4626 13.7657 67.3541C13.4914 68.0056 12.9942 68.5199 12.377 68.8456C11.3484 69.3771 10.0455 69.4113 8.99974 68.8799C8.29685 68.537 7.79969 67.8684 7.52539 67.1484C7.74826 67.0798 7.97112 67.0284 8.19399 66.9427C8.45115 67.5427 8.86259 68.1084 9.47976 68.3827C10.4227 68.7427 11.5884 68.6056 12.2913 67.8684C12.7028 67.4741 12.7885 66.8227 12.6685 66.2912C12.5828 65.8798 12.2913 65.554 12.017 65.2626C10.937 64.1654 9.27404 63.8225 8.34828 62.571C7.61111 61.6624 7.86826 60.2052 8.72544 59.4338" fill="black"/>
<path d="M0.015625 58.9019H5.21014V59.5534H1.35283C1.35283 60.7877 1.33568 62.022 1.33568 63.2564C2.46716 63.2564 3.59864 63.2564 4.73012 63.2735V63.9078H1.35283V68.3995H5.22729V69.0509H0.015625C0.015625 65.6736 0.015625 62.2792 0.015625 58.8848" fill="black"/>
<path d="M15.34 58.9019H22.4374C22.4374 59.1248 22.4374 59.3476 22.4374 59.5534C21.4774 59.5534 20.5173 59.5534 19.5573 59.5534V69.0852H18.2029V59.5705C17.26 59.5534 16.3171 59.5705 15.3742 59.5362C15.2885 59.3476 15.3571 59.0905 15.34 58.8848" fill="black"/>
<path d="M24.6855 58.9023H29.9315V59.5538H26.057C26.0399 60.7881 26.057 62.0225 26.0399 63.274C27.1714 63.274 28.2857 63.274 29.4172 63.2911V63.9254H26.057V68.4171H29.9315V69.0857H24.6855C24.6855 65.6912 24.6855 62.2968 24.6855 58.9023Z" fill="black"/>
<path d="M33.1035 58.9023H38.3495V59.5538H34.475V63.274C35.5893 63.274 36.7208 63.274 37.818 63.2911V63.9254H34.475V68.4171H38.3152V69.0685H33.1207C33.1207 65.6741 33.1207 62.2796 33.1207 58.9023" fill="black"/>
<path d="M45.6875 58.9023H47.0418V68.3999C48.3276 68.3999 49.6134 68.3999 50.8992 68.4171V69.0685C49.1677 69.0685 47.4362 69.0685 45.7046 69.0685C45.7046 65.6741 45.7046 62.2796 45.7046 58.9023" fill="black"/>
<path d="M56.5552 60.8739C56.0923 61.8853 55.6295 62.8968 55.1666 63.9083C56.0752 63.9083 56.9838 63.9083 57.8753 63.9083C57.4295 62.8968 57.0181 61.8853 56.5552 60.8739ZM56.6581 58.9023H57.1895C58.6639 62.2796 60.1554 65.6569 61.6297 69.0514H60.0182C59.3668 67.577 58.7839 66.0855 58.1496 64.6112H54.8923C54.2408 66.1027 53.5722 67.5599 52.9208 69.0514C52.6293 69.0514 52.3379 69.0514 52.0293 69.0685C53.5722 65.6741 55.1152 62.2796 56.6581 58.9023Z" fill="black"/>
<path d="M63.3262 58.9023H64.6634C64.6634 61.1482 64.6634 63.4111 64.6805 65.6569C64.6462 66.4798 64.9377 67.337 65.5034 67.937C66.4806 68.9999 68.3493 68.9485 69.3264 67.9027C70.0122 67.217 70.2179 66.2055 70.2351 65.2626C70.2008 63.1368 70.2351 61.0282 70.2179 58.9023H70.9551C70.9551 61.2167 70.9551 63.5483 70.9379 65.8627C70.9722 66.8913 70.4236 67.8685 69.6693 68.5371C69.035 69.0685 68.195 69.3085 67.3892 69.36C66.3263 69.4285 65.1948 69.1199 64.4405 68.3313C63.7205 67.6113 63.3776 66.5827 63.3605 65.5712C63.3262 63.3597 63.3433 61.131 63.3433 58.9195" fill="black"/>
<path d="M75.5154 59.8947C75.5154 62.7405 75.5154 65.5863 75.5154 68.4493C76.544 68.4836 77.6069 68.5179 78.5669 68.1065C79.5441 67.695 80.1784 66.735 80.5042 65.7578C80.9156 64.4549 80.847 62.9977 80.367 61.729C80.0413 60.889 79.3555 60.2033 78.5155 59.8947C77.6069 59.5518 76.6126 59.4832 75.6354 59.5518C75.4468 59.5347 75.5668 59.7747 75.5325 59.8947M74.2125 58.9003C75.9097 59.0032 77.6926 58.6089 79.3041 59.2946C80.7613 59.8775 81.8242 61.249 82.1328 62.7748C82.3728 64.0263 82.2185 65.3806 81.5671 66.5121C80.8299 67.8493 79.4413 68.8265 77.9155 69.0151C76.6811 69.1694 75.4468 69.0151 74.1953 69.0836C74.1953 65.6892 74.1953 62.2948 74.1953 58.9175" fill="black"/>
<path d="M84.9102 58.9023H90.139V59.5538H86.2816V63.274C87.396 63.274 88.5103 63.274 89.6247 63.2911V63.9254H86.2816V68.4171H90.139V69.0685H84.9102V58.9023Z" fill="black"/>
<path d="M94.5458 59.5521V63.6151C95.4715 63.6494 96.5516 63.7008 97.3059 63.0665C98.2659 62.2951 98.2145 60.5978 97.1687 59.9292C96.3801 59.4492 95.4201 59.5349 94.5458 59.5349M93.2257 58.9006C94.3915 58.9349 95.5572 58.7978 96.723 58.9692C97.5287 59.0892 98.3516 59.4835 98.8145 60.1693C99.2603 60.8893 99.2945 61.8493 98.9174 62.6036C98.5574 63.3065 97.8202 63.718 97.083 63.9237C97.8716 65.6381 98.6945 67.3524 99.4831 69.0668C99.0374 69.0668 98.5917 69.0668 98.1459 69.0839C97.3745 67.4553 96.603 65.8266 95.8315 64.1809C95.3858 64.1809 94.9572 64.1809 94.5115 64.1809V69.0839H93.1914C93.1914 65.6895 93.1914 62.2951 93.1914 58.9178" fill="black"/>
<path d="M27.735 38.1246V46.1993H70.9883V38.7246C68.7425 40.7304 66.0681 42.3248 63.1023 42.942C61.0622 43.3534 58.9364 43.2334 56.9134 42.7705C54.839 42.2905 52.8504 41.4676 50.9646 40.4733C49.9531 41.039 48.9416 41.5533 47.8787 41.9991C44.2443 43.542 40.1469 44.1249 36.2896 43.2163C32.998 42.462 30.0493 40.5762 27.7521 38.1418M36.4439 33.3415C35.9296 33.5301 35.4496 33.9416 35.3639 34.5073C35.2439 35.1416 35.5524 35.8274 36.1182 36.1531C37.0268 36.6674 38.0897 36.856 39.1355 36.7874C40.5412 36.7017 41.9127 36.2045 43.0442 35.3645C41.7413 34.593 40.4555 33.6844 38.9469 33.3244C38.124 33.1358 37.2497 33.033 36.4439 33.3415ZM30.9065 30.6671C30.3065 32.5187 30.2036 34.5416 30.7179 36.4274C31.0951 37.7646 31.9351 38.9475 32.9809 39.8733C34.5924 41.3133 36.6668 42.2219 38.8269 42.4277C42.7356 42.8905 46.6958 41.7762 50.1417 39.9418C47.9987 38.7418 45.9586 37.4046 43.9528 36.0159C42.307 37.1131 40.3527 37.8675 38.3469 37.696C37.0611 37.6274 35.7067 37.2331 34.8324 36.2388C34.2838 35.5188 34.2495 34.4559 34.7296 33.7016C35.1239 33.0672 35.7925 32.6215 36.5125 32.4158C37.4554 32.1929 38.4326 32.2444 39.3583 32.5015C40.9698 32.9472 42.3585 33.9244 43.7471 34.7988C46.0101 32.3644 47.5016 29.3814 48.8388 26.3812C43.9185 26.8955 38.8097 26.7927 34.0781 25.164C32.7238 26.8098 31.558 28.627 30.9237 30.6671M27.735 21.0667C27.735 23.2782 27.735 25.4898 27.7521 27.6841C28.7807 26.2441 30.0151 24.9926 31.3523 23.8611C30.0322 23.0725 28.8664 22.0782 27.735 21.0667ZM63.0851 21.9925C59.6907 23.8783 55.9705 25.164 52.1646 25.9698C50.2102 29.4842 47.8444 32.8444 44.7243 35.4159C46.8158 36.8731 49.0616 38.1075 51.4103 39.1189C52.3018 38.3132 53.1932 37.4903 53.999 36.5988C55.0962 35.3645 56.0905 33.9587 56.502 32.3129C56.742 31.37 56.8277 30.3071 56.3477 29.4328C56.1419 29.0213 55.6962 28.7471 55.4905 28.3356C55.319 27.9756 55.6276 27.4956 56.0219 27.5127C56.4505 27.4613 56.7591 27.8213 56.9991 28.1127C57.5134 28.8499 57.6334 29.7928 57.7192 30.6671C57.7192 32.2272 57.1877 33.7701 56.3648 35.073C55.319 36.7531 53.879 38.1246 52.4218 39.4447C55.0962 40.2333 57.8563 40.9362 60.685 40.799C64.4052 40.6447 67.971 39.1704 71.0055 37.0617V16.0951C68.6396 18.3923 65.9995 20.4152 63.1023 22.0096M68.2796 6.6832C66.9939 7.00893 65.8281 7.67753 64.7652 8.449C65.5366 9.83763 66.0167 11.5177 65.5367 13.0778C65.1252 14.415 64.4052 15.7522 63.2565 16.5922C62.7251 16.9351 62.0565 17.2437 61.4222 17.1065C60.9593 17.0208 60.8222 16.3865 61.1479 16.0779C61.525 15.735 62.1079 15.9236 62.5365 15.6836C63.6851 15.1693 64.3709 13.9864 64.6966 12.8035C65.0395 11.5863 64.7995 10.1805 64.0109 9.16903C62.1079 10.9348 60.3936 12.8721 58.8678 14.9464C56.5534 18.0323 54.6333 21.3924 52.8504 24.804C56.6048 23.7925 60.2564 22.3182 63.5651 20.2438C66.3253 18.5123 68.8282 16.3694 71.0055 13.9178V6.66606C70.114 6.46034 69.1711 6.47748 68.2968 6.70035M56.1934 6.13461C54.1704 6.22033 52.1989 6.73464 50.3303 7.47181C48.6845 8.12327 47.073 9.01474 45.8729 10.3519C45.1014 11.2091 44.5014 12.2377 44.2443 13.3521C44.0043 14.5007 44.21 15.8036 45.0329 16.6779C45.3243 17.0551 45.7701 17.2608 46.0443 17.6551C46.2158 17.9123 46.1986 18.2552 45.9929 18.478C45.6158 18.8723 45.0843 19.0266 44.5871 19.1809C42.4099 19.8324 40.1984 20.5181 38.2097 21.6324C36.8897 22.3696 35.7067 23.3125 34.7124 24.4269C39.4098 25.8841 44.4157 25.9355 49.2673 25.404C51.0674 21.6496 53.0389 17.9466 55.6105 14.655C57.6849 12.0149 60.1535 9.64905 63.0508 7.91755C61.1307 6.40891 58.5935 5.99746 56.2105 6.10032M40.2669 3.15162C39.1869 3.6145 38.1069 4.02594 37.0439 4.48882C34.5067 5.63744 32.1752 7.2318 30.2036 9.18617C29.295 10.1119 28.4207 11.1063 27.7521 12.2206C27.7521 14.7407 27.7521 17.2608 27.7521 19.7638C29.055 21.1353 30.5465 22.301 32.158 23.2782C33.4438 22.4039 34.8153 21.6839 36.2382 21.0667C38.2783 20.1752 40.4041 19.4552 42.5985 18.9923C43.3699 18.8209 44.1757 18.7695 44.8957 18.3923C45.0672 18.2894 45.3586 18.1523 45.2215 17.9123C44.8614 17.638 44.4328 17.5008 44.0043 17.3123C43.2328 17.0208 42.4442 16.6608 41.8613 16.0608C41.2784 15.4779 40.8841 14.6721 40.9013 13.8321C40.8841 12.5292 41.5013 11.2606 42.3756 10.3177C43.6442 8.98045 45.29 8.07184 46.953 7.35181C48.3416 6.78607 49.7817 6.35748 51.2217 5.98032C53.6904 5.38029 56.2619 5.00313 58.7821 5.36314C60.6336 5.6203 62.4508 6.30604 63.8737 7.52324C64.8338 6.97465 65.811 6.44319 66.8567 6.08318C68.1596 5.6203 69.6168 5.44886 70.9712 5.77459V3.01447H40.7813C40.6098 2.99732 40.4384 3.10019 40.2498 3.15162M27.735 3.01447C27.735 5.53458 27.735 8.03755 27.735 10.5748C30.4265 7.12894 34.1638 4.57454 38.2269 3.03161C34.7296 3.01447 31.2151 3.03161 27.7178 3.03161M25.2148 0.425781H73.5427V48.7879H25.2148V0.425781Z" fill="white"/>
</g>
</g>
<defs>
<clipPath id="clip0_864_8188">
<rect width="99.4845" height="69.2945" fill="white" transform="translate(0.015625 0.0644531)"/>
</clipPath>
</defs>
</svg>
