<svg width="86" height="15" viewBox="0 0 86 15" fill="none" xmlns="http://www.w3.org/2000/svg">
<g clip-path="url(#clip0_864_8066)">
<mask id="mask0_864_8066" style="mask-type:luminance" maskUnits="userSpaceOnUse" x="0" y="0" width="86" height="15">
<path d="M85.4638 0.503906H0.5V14.9217H85.4638V0.503906Z" fill="white"/>
</mask>
<g mask="url(#mask0_864_8066)">
<path d="M85.4638 1.58507C85.4638 1.01934 85.0181 0.573601 84.4352 0.573601C83.8866 0.573601 83.4409 1.01934 83.4237 1.56793C83.4237 2.11653 83.8695 2.59655 84.4352 2.59655C85.0009 2.59655 85.4467 2.13367 85.4467 1.58507M85.2581 1.58507C85.2581 2.04795 84.9152 2.39083 84.4523 2.39083C83.9895 2.39083 83.6294 2.04795 83.6294 1.56793C83.6294 1.10505 83.9723 0.779324 84.4352 0.779324C84.8981 0.779324 85.2409 1.1222 85.2409 1.58507M84.7609 1.73937C84.7609 1.73937 84.6923 1.67079 84.6752 1.65365C84.7266 1.65365 84.7952 1.61936 84.8466 1.55079L84.8809 1.5165C84.8981 1.46507 84.9152 1.41364 84.9152 1.36221C84.9152 1.31078 84.9152 1.2422 84.8638 1.19077C84.8295 1.13934 84.7952 1.10505 84.7438 1.08791C84.6923 1.07077 84.6066 1.05362 84.4866 1.05362H84.0409V2.11653H84.2638V1.67079H84.298C84.298 1.67079 84.3838 1.67079 84.4009 1.67079C84.418 1.67079 84.4523 1.68794 84.4695 1.72222C84.4866 1.75651 84.5209 1.7908 84.5895 1.87652L84.7438 2.11653H85.0009C84.9495 2.03081 84.8981 1.94509 84.8638 1.9108C84.8124 1.80794 84.7781 1.77365 84.7438 1.73937M84.6238 1.49936C84.6238 1.49936 84.5381 1.49936 84.4352 1.49936H84.2809V1.22506H84.4523C84.4523 1.22506 84.5895 1.22506 84.6066 1.22506C84.6409 1.22506 84.6752 1.2422 84.6924 1.25935C84.7095 1.27649 84.7266 1.31078 84.7266 1.34506C84.7266 1.37935 84.7266 1.39649 84.7095 1.43078C84.7095 1.44793 84.6752 1.46507 84.6581 1.48221M83.6123 7.75678C83.6294 3.83089 80.4236 0.505026 76.4291 0.505026C72.4861 0.470739 69.2117 3.74517 69.2117 7.65392C69.2117 11.6141 72.3832 14.8371 76.292 14.9057C80.3379 14.9571 83.5952 11.6484 83.6123 7.73964M81.7094 7.73964C81.7094 10.7055 79.3264 12.9856 76.412 13.0027C73.4633 13.0027 71.1146 10.6712 71.1146 7.70535C71.1146 4.68807 73.4976 2.39083 76.4463 2.40797C79.395 2.40797 81.7265 4.7395 81.7094 7.73964ZM58.034 2.64798C58.4283 2.01367 58.8226 1.39649 59.2341 0.727894C59.1141 0.727894 59.0455 0.71075 58.9769 0.71075C58.4112 0.71075 57.8283 0.71075 57.2625 0.71075C57.074 0.71075 56.9711 0.779324 56.8682 0.933617C56.1482 2.09938 55.4282 3.24801 54.691 4.41377C54.3824 4.91094 54.0738 5.4081 53.7481 5.92241C53.6795 5.80241 53.611 5.73383 53.5767 5.64811C52.5995 4.08804 51.6223 2.51083 50.6451 0.950761C50.5422 0.779324 50.4394 0.71075 50.2337 0.727894C49.8565 0.727894 49.4793 0.727894 49.085 0.727894H48.2621C48.3479 0.865043 48.3821 0.950761 48.4336 1.01934C49.7879 3.17943 51.1251 5.33953 52.4966 7.49963C52.5995 7.67106 52.5995 7.77392 52.4966 7.94536C51.5023 9.50543 50.5251 11.0655 49.5479 12.6427C49.1193 13.3113 48.7079 13.9971 48.2621 14.7171C48.9479 14.7171 49.5822 14.7171 50.2165 14.7171C50.4222 14.7171 50.5422 14.6657 50.6451 14.4942C51.1594 13.6542 51.6737 12.8313 52.188 12.0084C52.7023 11.1855 53.2166 10.3798 53.731 9.53972C53.7995 9.64258 53.851 9.7283 53.9024 9.81401C54.8796 11.3741 55.8568 12.9513 56.8511 14.5114C56.9025 14.5971 57.0054 14.7171 57.0911 14.7171C57.794 14.7171 58.4969 14.7171 59.2169 14.7171C59.1655 14.6142 59.1312 14.5628 59.0969 14.4942C57.7254 12.317 56.3711 10.1226 54.9996 7.94536C54.8967 7.77392 54.8967 7.67106 54.9996 7.49963C56.0111 5.88812 57.0225 4.27662 58.0169 2.66512M34.0844 3.35087C34.6158 2.47654 35.1644 1.61936 35.713 0.727894C35.6101 0.727894 35.5244 0.71075 35.4559 0.71075C34.873 0.71075 34.2901 0.71075 33.7243 0.71075C33.5529 0.71075 33.4501 0.779324 33.3643 0.916473C32.4386 2.42511 31.4957 3.91661 30.5528 5.4081C30.4499 5.5624 30.3642 5.71669 30.2442 5.88812C30.1756 5.76812 30.107 5.6824 30.0556 5.59668C29.0784 4.03661 28.1012 2.4594 27.1069 0.89933C27.0555 0.813612 26.9355 0.71075 26.8326 0.693606C26.1812 0.676463 25.5297 0.693606 24.8782 0.693606C24.844 0.693606 24.8268 0.71075 24.7754 0.745037C24.8268 0.847899 24.8782 0.916473 24.9297 1.00219C26.284 3.16229 27.6212 5.32239 28.9756 7.48248C29.0613 7.61963 29.0784 7.72249 28.9756 7.87679C28.1527 9.16256 27.3469 10.4655 26.5412 11.7512C25.9411 12.7113 25.3583 13.6542 24.7239 14.6657C25.4268 14.6657 26.0783 14.6657 26.7297 14.6657C26.9012 14.6657 27.004 14.6142 27.0898 14.4599C27.5184 13.757 27.9469 13.0713 28.3927 12.3856C28.9927 11.4255 29.5927 10.4655 30.2099 9.47114C30.2785 9.574 30.3299 9.64258 30.3813 9.7283C31.3585 11.2884 32.3357 12.8656 33.3129 14.4256C33.3643 14.5114 33.4672 14.6485 33.5529 14.6485C34.2558 14.6485 34.9587 14.6485 35.6787 14.6485C35.6101 14.5285 35.5587 14.4256 35.5073 14.3399C34.1529 12.1798 32.8157 10.0197 31.4442 7.85964C31.3414 7.70535 31.3414 7.60249 31.4442 7.46534C32.3186 6.09385 33.1758 4.70521 34.0501 3.31658M12.9806 12.6084C14.6092 10.8426 15.2264 8.75111 14.7978 6.38529C14.1292 2.56226 10.4433 -0.00928235 6.56884 0.590745C3.75729 1.01934 1.35718 3.24801 0.722867 6.04242C0.620005 6.47101 0.568575 6.91674 0.5 7.36248V8.04822C0.534287 8.35681 0.568575 8.66539 0.637149 8.97398C1.01431 10.8941 1.9915 12.437 3.58585 13.5856C5.14592 14.6999 6.89457 15.0943 8.78037 14.82C10.4262 14.5799 11.8491 13.8428 12.9806 12.5913M13.032 7.70535C13.0491 10.5683 10.769 13.0199 7.73461 13.0199C4.70019 13.0199 2.54009 10.6712 2.42009 7.94536C2.30008 4.80808 4.80305 2.37368 7.75175 2.40797C10.649 2.42511 13.032 4.75664 13.032 7.70535Z" fill="#090707"/>
</g>
</g>
<defs>
<clipPath id="clip0_864_8066">
<rect width="84.9638" height="14.4178" fill="white" transform="translate(0.5 0.503906)"/>
</clipPath>
</defs>
</svg>
