<svg width="89" height="30" viewBox="0 0 89 30" fill="none" xmlns="http://www.w3.org/2000/svg">
<g clip-path="url(#clip0_864_8226)">
<mask id="mask0_864_8226" style="mask-type:luminance" maskUnits="userSpaceOnUse" x="0" y="0" width="89" height="30">
<path d="M88.3088 0.00390625H0.464844V29.4224H88.3088V0.00390625Z" fill="white"/>
</mask>
<g mask="url(#mask0_864_8226)">
<path d="M88.1888 11.5587C87.623 9.0386 85.9087 7.34138 81.9828 7.34138H71.4566V11.3873H81.8456C83.1657 11.3873 83.56 11.7987 83.6971 12.433C83.8514 13.0502 83.4571 13.6845 82.7542 14.0102L73.2224 18.4504C70.1365 19.9591 69.2965 22.4278 69.8965 25.0679C70.3423 27.0565 72.0909 29.1824 75.6568 29.1824H87.3316V25.1365H76.154C75.0739 25.1365 74.611 24.4336 74.4739 23.9193C74.3196 23.3535 74.491 22.3763 75.5025 21.8792L84.4686 17.6961C87.263 16.3932 88.7202 13.9931 88.1888 11.5587ZM63.0048 28.8738H67.5136V7.10137H63.0048V28.8738ZM63.0048 4.49554H67.5136V0.00390625H63.0048V4.49554ZM59.6104 20.9877V0.00390625H54.9816V7.39281C53.7301 6.86136 52.2729 6.55277 50.6614 6.55277H50.3356C45.244 6.55277 41.5581 9.96435 41.5581 14.6617V21.4677C41.5581 26.2165 45.1583 29.4052 50.5071 29.4052H50.8328C55.9245 29.4052 59.6104 25.9936 59.6104 20.9877ZM54.9816 20.3362C54.9816 24.9136 51.7757 25.5651 50.6099 25.5651H50.5585C49.4785 25.5651 46.1869 24.9136 46.1869 20.3362V15.656C46.1869 11.0787 49.3927 10.4272 50.5585 10.4272H50.6099C51.69 10.4272 54.9644 11.0787 54.9816 15.6217V20.3534V20.3362ZM34.4607 28.8738H39.0894V14.4903C39.0723 9.74148 35.5064 6.55277 30.0547 6.55277C24.6031 6.55277 21.0201 9.74148 21.0201 14.4903V28.8738H25.6488V15.656C25.6488 11.0787 28.9918 10.4101 30.0547 10.4101C31.1176 10.4101 34.4607 11.0615 34.4607 15.656V28.8738ZM18.5342 21.4849V7.10137H13.9054V20.3362C13.9054 24.9136 10.5624 25.5822 9.49953 25.5822C8.43663 25.5822 5.09362 24.9307 5.09362 20.3362V7.10137H0.464844V21.4849C0.481987 26.2337 4.04786 29.4224 9.49953 29.4224C14.9512 29.4224 18.5342 26.2337 18.5342 21.4849Z" fill="#1B1C1C"/>
</g>
</g>
<defs>
<clipPath id="clip0_864_8226">
<rect width="87.8439" height="29.4185" fill="white" transform="translate(0.464844 0.00390625)"/>
</clipPath>
</defs>
</svg>
