<svg width="104" height="35" viewBox="0 0 104 35" fill="none" xmlns="http://www.w3.org/2000/svg">
<g clip-path="url(#clip0_864_6249)">
<mask id="mask0_864_6249" style="mask-type:luminance" maskUnits="userSpaceOnUse" x="0" y="0" width="104" height="35">
<path d="M103.889 0.289062H0.314453V34.7997H103.889V0.289062Z" fill="white"/>
</mask>
<g mask="url(#mask0_864_6249)">
<path d="M103.889 17.5231C103.889 17.2458 103.889 16.9685 103.846 16.6699C103.398 10.1005 97.8529 4.89617 91.0275 4.83218H63.9181C59.7803 4.85351 55.0025 3.23249 52.1017 0.289062C49.201 3.23249 44.4232 4.85351 40.2854 4.85351H13.176C6.35062 4.89617 0.783695 10.1005 0.357112 16.6699C0.357112 16.9472 0.314453 17.2244 0.314453 17.5231V17.5657C0.314453 17.8643 0.314453 18.1203 0.357112 18.4189C0.805025 24.9883 6.35062 30.1926 13.176 30.2566H40.2854C44.4232 30.2566 49.201 31.8776 52.1017 34.821C55.0025 31.8776 59.7803 30.2566 63.9181 30.2566H91.0275C97.8529 30.1926 103.398 25.0096 103.846 18.4189C103.846 18.1416 103.889 17.8643 103.889 17.5657V17.5231Z" fill="#112046"/>
<path d="M96.5093 22.5587C96.5093 22.5587 96.6372 22.5161 96.6372 22.4521C96.6372 22.3881 96.5732 22.3454 96.5093 22.3454H96.3386V22.5587H96.5093ZM96.168 22.1961H96.5093C96.5093 22.1961 96.6799 22.2388 96.7226 22.2601C96.7652 22.3028 96.7865 22.3668 96.7865 22.4521C96.7865 22.58 96.7226 22.644 96.6372 22.6867L96.8079 22.964H96.6159L96.4453 22.708H96.3173V22.964H96.1467V22.2174L96.168 22.1961ZM96.4666 21.7695C96.0187 21.7695 95.6348 22.1535 95.6348 22.6014C95.6348 23.0493 95.9974 23.4119 96.4453 23.4119C96.8932 23.4119 97.2771 23.028 97.2771 22.58C97.2771 22.1321 96.9145 21.7695 96.4666 21.7695ZM96.4666 23.2626C96.0827 23.2626 95.8054 22.9853 95.8054 22.58C95.8054 22.1748 96.0827 21.8975 96.4879 21.8975C96.8932 21.8975 97.1491 22.1961 97.1491 22.58C97.1491 22.964 96.8505 23.2626 96.4666 23.2626Z" fill="white"/>
<path d="M94.4858 21.7026V12.1471C94.4858 12.0405 94.4858 11.8912 94.4005 11.8059C94.3578 11.7419 94.2512 11.7205 94.1232 11.7205H92.5235L92.7368 11.8912C92.7368 11.8912 93.6113 12.6164 93.6113 14.8133V20.4655C93.6113 20.4655 86.5087 13.5122 85.9755 12.979L84.9303 11.9552C84.9303 11.9552 84.6744 11.7205 84.4824 11.6992H83.1387L83.3306 11.8699C83.3306 11.8699 83.9278 12.4031 83.9278 13.4482V23.0037C83.9278 23.1103 83.9279 23.2596 84.0132 23.345C84.0558 23.4089 84.1625 23.4303 84.2904 23.4303H85.8901L85.6768 23.2596C85.6768 23.2596 84.8237 22.5345 84.8237 20.3375V14.6853C84.8237 14.6853 91.9263 21.6386 92.4595 22.1505L93.5047 23.1743C93.5047 23.1743 93.7819 23.4089 93.9526 23.4303H95.1043L94.955 23.2596C94.955 23.2596 94.4858 22.7264 94.4858 21.6813" fill="white"/>
<path d="M76.4164 12.1063C73.345 12.3623 71.0628 14.8365 71.0841 17.8865C71.0841 19.3369 71.4894 20.4887 72.2572 21.4485C73.345 22.7709 75.03 23.5388 76.8643 23.5388C78.4854 23.5388 80.0211 22.8989 81.0875 21.8324C82.1753 20.7233 82.8152 19.145 82.7939 17.5453C82.7939 16.0309 82.218 14.6658 81.2155 13.6847C79.9571 12.4689 78.4 11.957 76.4164 12.1277M80.8529 17.8012C80.8529 20.6593 79.0826 22.9842 76.907 22.9842C74.7314 22.9842 72.9611 20.6593 72.9611 17.8012C72.9611 14.9431 74.7314 12.6182 76.907 12.6182C79.0826 12.6182 80.8529 14.9431 80.8529 17.8012Z" fill="white"/>
<path d="M68.3974 20.7878C68.2268 21.9823 67.2669 22.8568 66.0298 22.8994H65.7526C65.2193 22.8994 64.8354 22.8355 64.1955 22.6861C64.0889 22.6861 63.7263 22.5368 63.7263 22.1103V12.8534H64.5795C65.9659 12.8534 66.819 13.344 66.9257 14.965C66.9897 15.8395 66.5844 17.0552 65.1767 17.2685C65.1127 17.2685 65.0487 17.2685 64.9847 17.2685C64.3875 17.3325 64.2595 17.6525 64.2595 17.6525L64.2169 17.7378H64.3235C64.3235 17.7378 64.4941 17.7378 64.7288 17.7378H64.9847C65.5179 17.7378 66.755 17.7378 67.7788 18.7402C68.2694 19.2948 68.4827 20.0627 68.3761 20.7878M69.5918 18.4843C68.9519 17.8231 68.0348 17.3965 66.9043 17.2472C68.7387 16.5433 68.8453 15.0076 68.6533 14.2824C68.1628 12.4268 66.0725 12.2988 64.5795 12.2988H61.2734L61.3801 12.4055C61.3801 12.4055 61.892 12.9387 61.892 13.7705V22.1316C61.892 22.7928 61.956 22.8994 62.5745 23.0914C63.4703 23.39 64.3875 23.5606 65.2833 23.5606C65.8379 23.5606 66.3924 23.4967 66.947 23.3687C68.2268 23.0914 69.1013 22.6222 69.7625 21.833C70.5943 20.8092 70.5303 19.3801 69.5918 18.463" fill="white"/>
<path d="M53.0193 18.6319L54.8109 14.9419L56.3253 18.6106H53.0193V18.6319ZM59.8233 21.3407C58.4155 18.4826 56.048 13.1716 55.6641 12.3824C55.6001 12.2545 55.4934 12.0625 55.2588 12.0625C55.0455 12.0625 54.9602 12.2331 54.8962 12.3611L49.9478 22.4711C49.7559 22.8764 49.4359 23.239 49.2227 23.303H49.9692C50.673 23.303 50.9077 22.983 51.0783 22.6418L52.6567 19.3571H56.1973C56.4746 19.3571 56.6026 19.4211 56.7305 19.677C56.7305 19.677 57.4771 21.1914 58.0103 22.1512C58.4369 22.9191 59.3327 23.6869 61.231 23.2603C60.5058 23.0897 60.2498 22.2579 59.8019 21.362" fill="white"/>
<path d="M48.1353 21.6602V12.702C48.1353 12.5953 48.1353 12.4674 48.0713 12.382C48.0287 12.3394 47.922 12.2967 47.8154 12.2967H46.3223L46.5143 12.446C46.5143 12.446 47.3248 13.1286 47.3248 15.1975V20.4871C47.3248 20.4871 40.6701 13.9817 40.1582 13.4698L39.177 12.51C39.177 12.51 38.9211 12.2967 38.7505 12.2754H37.4707L37.6413 12.4247C37.6413 12.4247 38.2172 12.9366 38.2172 13.8964V22.8547C38.2172 22.9613 38.2172 23.0893 38.2812 23.1533C38.3239 23.2173 38.4305 23.2386 38.5372 23.2386H40.0302L39.8382 23.068C39.8382 23.068 39.0277 22.3854 39.0277 20.3165V15.0482C39.0277 15.0482 45.6824 21.5536 46.1943 22.0655L47.1755 23.0253C47.1755 23.0253 47.4314 23.2386 47.6021 23.2599H48.6685L48.5406 23.1106C48.5406 23.1106 48.1353 22.5987 48.1353 21.6176" fill="white"/>
<path d="M36.106 21.6602V12.702C36.106 12.5953 36.106 12.4674 36.042 12.382C35.9994 12.3394 35.8927 12.2967 35.7861 12.2967H34.293L34.485 12.446C34.485 12.446 35.2955 13.1286 35.2955 15.1975V20.4871C35.2955 20.4871 28.6408 13.9817 28.1289 13.4698L27.1477 12.51C27.1477 12.51 26.8918 12.2967 26.7212 12.2754H25.4414L25.612 12.4247C25.612 12.4247 26.1879 12.9366 26.1879 13.8964V22.8547C26.1879 22.9613 26.1879 23.0893 26.2519 23.1533C26.2946 23.2173 26.4012 23.2386 26.5079 23.2386H28.0009L27.8089 23.068C27.8089 23.068 26.9984 22.3854 26.9984 20.3165V15.0482C26.9984 15.0482 33.6531 21.5536 34.165 22.0655L35.1462 23.0253C35.1462 23.0253 35.4021 23.2386 35.5728 23.2599H36.6392L36.5113 23.1106C36.5113 23.1106 36.106 22.5987 36.106 21.6176" fill="white"/>
<path d="M22.1142 13.5359V23.3047H23.9698V12.2988H21.4316C21.7516 12.4481 22.1142 12.7467 22.1142 13.5359Z" fill="white"/>
<path d="M20.449 21.8538C20.449 21.8538 20.2784 21.9178 20.2357 21.9818L20.1931 22.0245C18.7427 23.3682 16.9724 23.9868 14.9248 23.8801C12.7278 23.7521 11.2135 22.6644 10.403 20.6381C9.59245 18.5905 9.59245 16.4789 10.403 14.3673C11.2348 12.1491 13.0904 10.8267 15.33 10.8267C15.8632 10.8267 16.4178 10.8906 16.951 11.0613C17.8255 11.3172 18.4654 11.8718 18.7427 12.6183C18.9986 13.3222 18.8707 14.1327 18.3801 14.8365C18.0815 15.2845 17.5269 15.5831 16.9724 15.5831C16.4605 15.5831 15.9912 15.3698 15.6926 14.9645C15.6926 14.9645 15.5646 14.8152 15.4367 14.8152C15.3727 14.8152 15.3513 14.8152 15.3087 14.8792L15.2447 14.9219V14.9858C15.4793 16.0096 16.4605 16.7562 17.5909 16.7562C17.7615 16.7562 17.8895 16.7562 18.0601 16.7135C18.828 16.5642 19.4679 16.1376 19.8305 15.5191C20.2357 14.8579 20.321 14.026 20.1077 13.1942C19.7878 12.0851 18.9986 11.2959 17.7189 10.848C15.9699 10.2508 14.1142 10.2934 12.2799 10.9546C10.1257 11.7225 8.73929 13.2795 8.12074 15.5191C7.69416 17.1401 7.95011 19.0171 8.05675 19.3583C8.05675 19.4223 8.05675 19.4436 8.09941 19.5076C8.14207 19.6783 8.18473 19.8276 8.22739 19.9769C8.86726 21.8752 10.1683 23.2189 12.0666 23.9228C13.0051 24.264 13.9863 24.4347 14.9887 24.4347C15.7779 24.4347 16.6098 24.328 17.4416 24.1147C18.7214 23.7948 19.7878 23.1549 20.6197 22.2164L20.6623 22.1525L20.6197 22.0885C20.5557 21.9605 20.4703 21.9178 20.385 21.9178" fill="white"/>
<path d="M40.2876 27.7617C44.4894 27.7617 48.8832 29.1908 52.1039 31.5583C55.3246 29.1908 59.7185 27.7617 63.9203 27.7617H90.9871C96.4687 27.7191 101.033 23.5172 101.396 18.2276C101.396 17.9503 101.396 17.737 101.396 17.5451V17.5024C101.396 17.3104 101.396 17.0971 101.396 16.8199C101.033 11.5302 96.49 7.3497 91.0084 7.28571H63.9203C59.7185 7.28571 55.3246 5.85665 52.1039 3.48911C48.8832 5.85665 44.4681 7.28571 40.2876 7.28571H13.1995C7.71787 7.3497 3.15342 11.5302 2.79082 16.8199C2.79082 17.0971 2.79082 17.3104 2.79082 17.5024V17.5664C2.79082 17.7583 2.79082 17.9716 2.79082 18.2489C3.15342 23.5386 7.69654 27.7191 13.1781 27.7831H40.2876V27.7617ZM52.1039 32.5608L51.8693 32.3902C48.7552 30.0013 44.4254 28.5722 40.2876 28.5722H13.1781C7.29128 28.5083 2.38557 24.0078 2.00164 18.3129C2.00164 18.0356 1.95898 17.801 1.95898 17.5664V17.5237C1.95898 17.3104 1.95898 17.0758 2.00164 16.7985C2.38557 11.1036 7.29128 6.58184 13.1995 6.53919H40.2876C44.4254 6.53919 48.7552 5.11013 51.8693 2.72126L52.1039 2.5293L52.3385 2.72126C55.4526 5.11013 59.7824 6.53919 63.9203 6.53919H91.0297C96.8952 6.58184 101.801 11.1036 102.206 16.7985C102.206 17.0758 102.249 17.3104 102.249 17.5237V17.5877C102.249 17.801 102.249 18.0356 102.206 18.3342C101.822 24.0291 96.9166 28.5509 91.0084 28.5936H63.9203C59.7824 28.5936 55.4526 30.0013 52.3385 32.4115L52.1039 32.5821V32.5608Z" fill="#69C7C4"/>
</g>
</g>
<defs>
<clipPath id="clip0_864_6249">
<rect width="103.575" height="34.5106" fill="white" transform="translate(0.314453 0.289062)"/>
</clipPath>
</defs>
</svg>
