<svg width="97" height="19" viewBox="0 0 97 19" fill="none" xmlns="http://www.w3.org/2000/svg">
<g clip-path="url(#clip0_864_6306)">
<mask id="mask0_864_6306" style="mask-type:luminance" maskUnits="userSpaceOnUse" x="0" y="0" width="97" height="19">
<path d="M96.6057 0.544922H0.669922V18.5457H96.6057V0.544922Z" fill="white"/>
</mask>
<g mask="url(#mask0_864_6306)">
<path d="M17.9489 0.630001C18.5146 0.492852 19.1661 0.492852 19.6804 0.818581C20.0747 1.05859 20.349 1.41861 20.6061 1.79577C21.0004 1.09288 21.7205 0.475709 22.5777 0.544283C23.9663 0.441421 25.0635 2.07007 24.532 3.35584C24.0349 4.50446 23.0234 5.31021 22.0119 5.97881C21.5833 6.25311 21.1719 6.59598 20.6919 6.80171C20.3661 6.80171 20.109 6.5617 19.8518 6.42455C19.0118 5.84166 18.086 5.3445 17.4517 4.5216C16.9545 3.97301 16.4917 3.30441 16.5945 2.53294C16.5088 1.65862 17.2117 0.95573 17.966 0.647145" fill="#F4BC5F"/>
<path d="M77.2134 4.48885C77.7448 4.40313 78.3963 4.33456 78.8077 4.74601C79.5621 5.43175 79.2363 6.92325 78.242 7.21469C77.3848 7.52327 76.2019 6.80324 76.3391 5.8432C76.3048 5.26032 76.6476 4.67743 77.2134 4.48885Z" fill="#F4BC5F"/>
<path d="M61.3404 6.06333C61.8204 5.49759 62.4891 5.03471 63.2434 5.03471C64.1177 5.01757 65.1292 4.88042 65.8321 5.54902C66.3807 5.96047 66.5864 6.71479 66.3121 7.3491C65.9521 7.91484 65.1292 8.12056 64.5806 7.67483C64.1863 7.43482 64.2377 6.92051 64.1863 6.52621C63.8777 6.59478 63.4491 6.57764 63.3634 6.97194C63.3119 7.22909 63.1748 7.6234 63.4491 7.79483C63.8091 7.8977 64.1863 7.88055 64.5463 7.98341C65.0434 8.20628 64.9577 8.89203 64.8206 9.32062C64.4091 9.68063 63.7748 9.57777 63.2777 9.74921C63.2948 11.1378 63.2777 12.5265 63.2777 13.9151C63.7405 14.018 64.4777 13.778 64.6663 14.378C64.8206 14.8752 64.752 15.5952 64.2206 15.8181C63.2777 16.0066 62.3176 15.6295 61.3747 15.7838C60.7918 15.8181 60.0547 16.0581 59.6089 15.5438C59.3003 15.0809 59.4718 14.498 59.6089 14.0008C60.0032 13.9837 60.4147 14.0008 60.809 13.9151C60.9633 12.5265 60.8433 11.1207 60.8604 9.73206C60.3975 9.61206 59.6946 9.71492 59.4718 9.16632C59.4032 8.80631 59.3861 8.34343 59.6775 8.06913C60.0204 7.88055 60.4318 7.86341 60.809 7.76055C60.8776 7.19481 60.929 6.57764 61.3061 6.11476" fill="#F4BC5F"/>
<path d="M54.6555 6.11687C55.307 5.2254 56.4899 4.98539 57.5356 5.05397C58.3414 5.05397 59.3014 5.31112 59.6957 6.09973C59.85 6.63118 59.8843 7.35121 59.3529 7.67694C58.89 8.07124 58.1357 7.96838 57.7585 7.48836C57.5699 7.21406 57.6385 6.87119 57.6042 6.56261C57.2956 6.59689 56.867 6.56261 56.747 6.92262C56.6956 7.23121 56.7127 7.53979 56.6956 7.84838C57.2271 7.98553 58.0842 7.76266 58.2557 8.46555C58.3071 8.80842 58.3071 9.28844 57.9642 9.47702C57.5699 9.61417 57.1413 9.64846 56.7127 9.68274C56.6442 11.0885 56.7127 12.5114 56.6956 13.9344C57.1242 14.0372 57.7928 13.7801 57.9985 14.2944C58.2214 14.8087 58.1357 15.563 57.5871 15.8373C56.7985 15.9745 56.0099 15.7687 55.2213 15.7344C54.5355 15.7344 53.7812 16.0259 53.1297 15.7344C52.6497 15.2887 52.7183 14.4658 53.0954 13.9687C53.4212 13.9687 53.764 13.9687 54.1069 13.9687C54.3469 13.0086 54.2441 12.0143 54.2784 11.0371C54.2784 10.6256 54.2955 10.1971 54.1583 9.80275C53.764 9.59703 53.2326 9.69989 52.9069 9.35702C52.7697 8.997 52.804 8.6027 52.8726 8.24268C53.1297 7.7798 53.8155 8.01981 54.1926 7.69408C54.3126 7.16263 54.2784 6.57975 54.6384 6.13401" fill="#F4BC5F"/>
<path d="M46.7358 12.9744C46.2729 13.1287 46.3758 13.9002 46.8215 14.0202C47.3016 14.1745 47.8673 14.1059 48.2445 13.763C48.5702 13.4373 48.5873 12.9573 48.5702 12.5287C47.953 12.6658 47.3187 12.7173 46.753 12.9744M45.6215 7.96847C46.6329 7.60846 47.7473 7.59131 48.8102 7.71132C49.4788 7.77989 50.1474 7.98562 50.6446 8.4485C50.9531 8.85994 51.1074 9.37425 51.1589 9.88856C51.2103 11.26 51.0903 12.6315 51.2274 13.9859C51.5703 14.0373 51.9303 14.0202 52.2389 14.1745C52.7018 14.5859 52.5989 15.426 52.0846 15.7688C51.536 16.1288 50.7988 16.1803 50.1817 15.9574C49.8045 15.8031 49.5302 15.4774 49.2045 15.2545C48.8102 15.3745 48.5016 15.6831 48.1244 15.8203C47.0101 16.2488 45.6386 16.2317 44.6614 15.4774C43.8214 14.8088 43.6842 13.5573 44.0785 12.6144C44.5071 11.8086 45.4158 11.4486 46.2558 11.2772C46.8901 11.1229 47.5587 11.1229 48.1587 10.8315C48.6388 10.5914 48.7588 9.83713 48.3473 9.47711C48.0559 9.1171 47.5587 9.2371 47.1644 9.2371C47.1301 9.61426 47.1301 10.0086 46.9415 10.3514C46.4272 11.0372 45.2615 11.0543 44.6957 10.42C44.3014 10.1114 44.3357 9.54569 44.4214 9.09995C44.5929 8.55136 45.1072 8.19134 45.6215 8.00276" fill="#F4BC5F"/>
<path d="M69.0052 13.0397C68.6966 13.2626 68.868 13.6569 68.9023 13.9655C69.4509 14.1026 70.1538 14.2569 70.5995 13.7769C71.011 13.4683 70.9424 12.9197 70.9596 12.474C70.3081 12.6797 69.6052 12.714 69.0052 13.0397ZM66.8108 8.9424C67.1708 8.17093 68.0794 7.86235 68.8509 7.7252C70.0681 7.55376 71.3539 7.57091 72.4853 8.06807C73.1025 8.30808 73.394 8.99383 73.4797 9.59385C73.5997 11.0339 73.3768 12.5083 73.5997 13.9483C74.0111 14.0169 74.5769 13.9483 74.7826 14.3941C75.0569 14.8912 74.834 15.5598 74.354 15.817C73.4454 16.3142 72.1768 16.0913 71.5596 15.2341C70.8053 15.6627 70.0338 16.0741 69.1423 16.0741C68.3194 16.0913 67.4623 15.8684 66.8451 15.337C66.1079 14.5141 66.0565 13.1769 66.6736 12.2683C67.2394 11.4968 68.2509 11.3425 69.1252 11.1539C69.6738 11.0168 70.3081 11.0168 70.7538 10.6053C71.0453 10.3653 70.9253 9.93673 70.9596 9.611C70.5824 9.25098 70.1024 9.11383 69.5881 9.16526C69.4681 9.69672 69.4852 10.3825 68.9195 10.6396C68.3366 10.9311 67.4794 10.9139 67.068 10.3482C66.6736 9.98816 66.6737 9.40527 66.8108 8.9424Z" fill="#F4BC5F"/>
<path d="M85.5836 7.84591C86.4236 7.62304 87.4694 7.65733 88.0694 8.37736C88.858 9.11454 88.738 10.6575 87.6922 11.0689C87.2637 11.1375 86.6808 11.2061 86.3893 10.7946C86.115 10.4689 86.235 10.006 86.2007 9.6117C85.4121 9.54313 84.9664 10.3489 84.7778 11.0175C84.555 11.9604 84.6921 12.9376 84.6578 13.8976C85.035 13.9319 85.4293 13.8976 85.7893 14.0176C86.2008 14.4119 86.1665 15.132 85.875 15.5948C85.6693 15.9206 85.2407 15.8691 84.915 15.8691C84.1949 15.8863 83.4921 15.6463 82.7892 15.7663C82.2577 15.8177 81.692 15.9548 81.1605 15.7834C80.7319 15.4405 80.7834 14.8062 80.8691 14.3262C81.0405 13.7947 81.6748 13.949 82.0863 13.9319C82.2063 13.5376 82.2577 13.1433 82.2577 12.7318C82.2406 11.7375 82.3091 10.7432 82.172 9.766C81.7263 9.80028 81.2805 9.766 80.8519 9.64599C80.8348 9.06311 80.6291 8.2745 81.2634 7.93163C81.7434 7.84591 82.2406 7.98306 82.7377 7.94877C83.1492 7.94877 83.5606 7.82877 83.9721 7.94877C84.1778 8.42879 84.1092 8.9431 84.1264 9.45741C84.435 8.78881 84.8635 8.08592 85.6179 7.86306" fill="#F4BC5F"/>
<path d="M91.5138 10.4021C91.7023 10.5735 91.9595 10.5393 92.1995 10.5564C92.8167 10.5564 93.4338 10.5564 94.051 10.5393C93.9996 10.2821 94.051 9.97351 93.8624 9.76779C93.1767 9.04776 91.7538 9.44206 91.5138 10.385M90.8109 8.19058C92.0281 7.48769 93.5881 7.47054 94.8396 8.07057C96.0911 8.58488 96.6397 10.0421 96.5883 11.3107C96.5883 11.6536 96.5883 12.185 96.1597 12.2365C94.6167 12.3565 93.0395 12.1336 91.4966 12.3565C91.2737 13.3508 92.2338 14.2594 93.1938 14.1051C94.1196 14.1051 94.411 12.8365 95.3368 12.9222C95.7825 12.8536 96.2454 13.0937 96.3997 13.5222C96.4854 13.9337 96.4683 14.4137 96.194 14.7566C95.5596 15.5452 94.5482 15.9224 93.571 16.0252C92.0109 16.2652 90.228 15.6309 89.4565 14.1908C88.8222 13.2137 88.8908 12.0136 88.9765 10.8993C89.1822 9.80208 89.8165 8.75632 90.8109 8.17343" fill="#F4BC5F"/>
<path d="M75.7906 7.93393C76.425 7.79678 77.0764 8.08822 77.7107 7.98536C78.1565 7.91679 78.6193 7.89964 79.0822 7.91679C79.3222 9.90545 79.1165 11.9113 79.2022 13.8999C79.5622 13.9342 79.9223 13.9513 80.2823 13.9342C80.5737 14.4142 80.6423 15.0314 80.4023 15.5457C79.9223 16.0257 79.1851 15.8029 78.5851 15.7686C77.7279 15.5971 76.8535 15.8543 75.9964 15.82C75.5678 15.82 75.1735 15.4428 75.1906 15.0142C75.1906 14.6885 75.1049 14.2428 75.4135 14.0199C75.7392 13.8656 76.1164 13.9513 76.4764 13.9513C76.7164 13.2827 76.6307 12.5627 76.6307 11.877C76.6307 11.1912 76.7164 10.4712 76.4764 9.80259C76.0649 9.7683 75.4649 9.97402 75.2421 9.51115C75.1563 9.13399 75.2078 8.72254 75.2078 8.34538C75.3963 8.20823 75.5678 8.03679 75.7906 7.95108" fill="#F4BC5F"/>
<path d="M19.4409 10.5216C20.1952 10.5216 20.9495 10.5559 21.7039 10.5216C22.0125 10.5731 21.9953 10.1959 21.8753 10.0245C21.601 9.52731 20.9838 9.21872 20.4352 9.44159C19.9381 9.5616 19.4066 9.9559 19.4409 10.5216ZM17.9151 8.77299C19.0809 7.60722 20.9667 7.31578 22.4753 7.93295C23.6068 8.3444 24.4297 9.51016 24.4126 10.7102C24.4126 11.2074 24.464 11.7388 24.2754 12.2189C22.8011 12.2874 21.3267 12.2189 19.8524 12.2531C19.6638 12.2531 19.4923 12.3217 19.338 12.4246C19.2009 13.3503 20.0752 14.2075 21.001 14.0875C21.8067 14.1389 22.1325 13.2303 22.7839 12.9389C23.2296 12.8875 23.7782 12.8017 24.0868 13.196C24.584 13.6761 24.3268 14.4818 23.9154 14.9104C23.0754 15.819 21.7553 16.0762 20.5724 15.9905C19.2523 16.0247 17.9494 15.2876 17.3151 14.1218C16.4236 12.4417 16.6122 10.1788 17.9151 8.75585" fill="#1B191B"/>
<path d="M1.30336 9.33858C2.48627 7.58993 5.04067 7.19563 6.85789 8.13852C7.66364 8.54997 8.26367 9.52716 7.98937 10.4358C7.68079 11.413 6.27501 11.7215 5.57212 11.0015C5.26354 10.6758 5.3664 10.1958 5.3664 9.78431C4.90352 9.64716 4.38921 9.59573 3.97777 9.88717C3.25773 10.3843 3.12058 11.3615 3.18916 12.1673C3.27488 12.7844 3.49774 13.4873 4.08063 13.7788C4.50922 14.0188 5.14353 14.0702 5.53784 13.7273C5.88071 13.333 5.98357 12.7673 6.36073 12.4073C6.87504 12.0816 7.62936 12.2187 8.00652 12.6987C8.3151 13.0416 8.21224 13.5388 8.16081 13.9674C7.78365 15.0303 6.75503 15.7674 5.67498 15.9732C4.62922 16.2475 3.51489 16.0417 2.57199 15.5617C1.56051 15.0474 0.960488 13.9674 0.754764 12.8873C0.651902 11.6873 0.617615 10.3843 1.33765 9.33858" fill="#1B191B"/>
<path d="M13.0275 8.05443C13.5589 7.71156 14.2104 7.71156 14.8276 7.76299C16.0105 7.90014 16.8505 9.3402 16.2676 10.4203C15.9933 11.1746 14.8447 11.3631 14.3133 10.8146C13.9361 10.4888 14.0732 9.99166 14.0732 9.56307C13.7989 9.63164 13.4732 9.63164 13.2504 9.85451C12.6846 10.4203 12.5989 11.2603 12.496 11.9975C12.4617 12.6489 12.4275 13.3175 12.5818 13.969C12.9075 13.969 13.2504 13.9347 13.5761 13.9176C14.0904 14.3976 14.0904 15.4948 13.4046 15.8205C12.8218 15.8719 12.256 15.8205 11.6731 15.7348C10.7988 15.5462 9.90735 15.9748 9.03302 15.7862C8.58729 15.4433 8.46728 14.7233 8.74158 14.2261C8.96445 13.729 9.58162 13.9861 9.99306 13.9518C10.0959 12.5461 10.0788 11.1403 9.99306 9.73451C9.59876 9.71736 9.08445 9.94023 8.79301 9.56307C8.29584 8.9459 8.72444 7.59155 9.66733 7.88299C10.4045 8.15729 11.1588 7.74585 11.896 7.95157C11.896 8.36302 11.9131 8.77446 11.9474 9.18591C12.3075 8.80875 12.5475 8.29444 13.0275 8.03729" fill="#1B191B"/>
<path d="M29.813 9.80416C29.1615 10.1985 28.9901 11.0214 28.9558 11.7242C28.9558 12.3928 29.0587 13.1472 29.573 13.61C29.8644 13.9529 30.3444 13.8501 30.7387 13.8158C31.3902 13.5072 31.6988 12.7186 31.6816 12.0157C31.7331 11.2957 31.613 10.4899 31.0302 9.99274C30.7044 9.68415 30.2073 9.71844 29.813 9.80416ZM28.5443 8.84411C29.0929 8.19266 29.8473 7.64406 30.7216 7.62692C31.8702 7.52406 33.036 8.10694 33.6017 9.11841C34.4075 10.6271 34.4246 12.5129 33.7903 14.0901C33.4303 14.9815 32.6931 15.7359 31.7502 15.9587C31.2702 16.0273 30.773 16.0444 30.3101 15.9587C29.8301 15.8044 29.4187 15.4616 28.9729 15.2215C28.9386 15.7016 28.9729 16.1987 29.1272 16.6616C29.5215 16.5245 30.0873 16.3873 30.3444 16.8502C30.4473 17.3131 30.533 17.9131 30.1216 18.256C29.8987 18.4445 29.6072 18.5474 29.3158 18.496C28.2186 18.3074 27.1043 18.3074 26.0071 18.496C25.1328 18.5303 24.8413 17.3302 25.3042 16.7302C25.6299 16.4045 26.0928 16.5759 26.4871 16.5587C26.6071 15.1873 26.5214 13.7986 26.5385 12.4271C26.5214 11.5357 26.59 10.6271 26.47 9.73558C26.0757 9.71844 25.5614 9.94131 25.2871 9.56415C24.8413 8.98126 25.167 7.76407 26.0071 7.88407C26.7957 7.98693 27.5843 7.88407 28.3729 7.88407C28.4586 8.19266 28.5272 8.50124 28.5443 8.82697" fill="#1B191B"/>
<path d="M37.7843 10.489C38.6415 10.5747 39.5158 10.5232 40.373 10.5232C40.5273 9.75178 39.5672 9.1689 38.8986 9.42605C38.3672 9.54606 37.9386 9.95751 37.7671 10.4718M36.3271 8.86031C37.1157 7.98599 38.3329 7.59169 39.4815 7.64312C40.6473 7.6774 41.8987 8.20886 42.4816 9.2889C42.9274 10.1804 43.1331 11.2433 42.7902 12.2033C41.1273 12.3919 39.4472 12.1005 37.8014 12.3748C37.6471 13.3348 38.5214 14.2091 39.4815 14.1063C40.2358 14.1406 40.5958 13.3519 41.1616 12.9919C41.6587 12.8891 42.3273 12.8033 42.6531 13.3177C43.0474 13.832 42.7559 14.5177 42.3959 14.9634C41.8645 15.5292 41.1101 15.8378 40.3558 15.9749C39.3101 16.0606 38.1786 16.1292 37.2185 15.5806C35.9499 14.912 35.247 13.4377 35.2642 12.0319C35.2299 10.9004 35.5556 9.71749 36.3271 8.86031Z" fill="#1B191B"/>
</g>
</g>
<defs>
<clipPath id="clip0_864_6306">
<rect width="95.9357" height="18.0008" fill="white" transform="translate(0.669922 0.544922)"/>
</clipPath>
</defs>
</svg>
