<svg width="43" height="41" viewBox="0 0 43 41" fill="none" xmlns="http://www.w3.org/2000/svg">
<g clip-path="url(#clip0_864_6337)">
<mask id="mask0_864_6337" style="mask-type:luminance" maskUnits="userSpaceOnUse" x="0" y="0" width="43" height="41">
<path d="M42.3027 0.263672H0.300781V40.8255H42.3027V0.263672Z" fill="white"/>
</mask>
<g mask="url(#mask0_864_6337)">
<path d="M14.0324 3.07594C10.758 4.34457 7.86068 6.48752 5.71773 9.2305C3.42048 12.1449 2.04899 15.7451 1.84327 19.431C3.09475 19.4652 4.34624 19.4824 5.59772 19.4995C5.59772 19.9967 5.58058 20.4767 5.56344 20.9739C4.31195 20.9567 3.06047 20.9225 1.80898 20.9053C1.87756 24.7455 3.19761 28.5342 5.54629 31.6201C7.63781 34.3973 10.5008 36.5917 13.7581 37.8946C17.2897 39.3347 21.2499 39.7119 25.0043 39.0261C27.8673 38.4947 30.6103 37.3289 32.9418 35.6317C34.8962 34.2259 36.5934 32.443 37.8792 30.42C39.5592 27.797 40.5536 24.7626 40.725 21.6768C39.4735 21.6425 38.222 21.6253 36.9706 21.6082C36.9706 21.111 36.9877 20.631 37.0048 20.1338C38.2563 20.151 39.5078 20.1853 40.7593 20.2024C40.725 18.2823 40.3821 16.3451 39.7307 14.5279C38.6506 11.442 36.7305 8.66476 34.2276 6.50467C31.5875 4.22456 28.2787 2.66449 24.8157 2.04732C21.2156 1.41301 17.4268 1.75588 14.0152 3.09308M20.3755 0.28153C22.5185 0.195812 24.6614 0.418679 26.7358 0.950131C30.4903 1.91017 33.9704 3.93312 36.6448 6.69325C39.285 9.41908 41.1365 12.865 41.8908 16.5508C42.5594 19.791 42.4051 23.1854 41.4279 26.3398C40.1421 30.54 37.3992 34.2773 33.7647 36.866C31.8103 38.2547 29.6331 39.3176 27.3187 39.969C23.77 40.9976 19.9641 41.0834 16.3811 40.2433C12.5752 39.369 9.04359 37.4146 6.28347 34.7059C3.59192 32.0658 1.67183 28.6714 0.814651 25.0369C-0.0596741 21.351 0.163193 17.4252 1.46611 13.8421C2.78617 10.1391 5.27199 6.84754 8.46071 4.48172C11.8551 1.94446 16.0896 0.452966 20.3755 0.28153Z" fill="#FBF178"/>
<path d="M19.8103 3.58984C20.1703 3.58984 20.5475 3.58984 20.9075 3.60699C20.9075 4.08701 20.8904 4.58417 20.8732 5.0642C21.3704 5.0642 21.8847 5.08134 22.3819 5.09848C22.3819 4.61846 22.399 4.1213 22.4162 3.64127C22.7762 3.64127 23.1533 3.64127 23.5134 3.65842C23.4791 4.97848 23.4619 6.31568 23.4276 7.63574C23.0676 7.63574 22.6905 7.63574 22.3304 7.6186C22.3304 7.10429 22.3476 6.58998 22.3647 6.05853C21.8676 6.05853 21.3533 6.04138 20.8561 6.02424C20.8561 6.53855 20.8389 7.05286 20.8218 7.58431C20.4618 7.58431 20.0846 7.58431 19.7246 7.56717C19.7589 6.24711 19.776 4.9099 19.8103 3.58984Z" fill="#FBF178"/>
<path d="M29.6159 5.49414C29.9416 5.71701 30.2673 5.93988 30.593 6.1456C30.3016 7.07135 30.0102 7.99711 29.7359 8.92287C30.5073 8.32284 31.2959 7.72281 32.0674 7.12279C32.3931 7.32851 32.7017 7.55138 33.0274 7.77424C31.8274 8.59714 30.6445 9.40289 29.4444 10.2258C29.1358 10.0201 28.8101 9.79719 28.4844 9.59147C28.8615 8.21998 29.2216 6.86563 29.5987 5.49414" fill="#FBF178"/>
<path d="M12.7634 6.8307C12.8834 7.32786 13.0034 7.82503 13.1234 8.30505C13.3806 8.15076 13.6549 7.99646 13.9121 7.84217C13.5349 7.4993 13.1406 7.15643 12.7463 6.8307M11.752 6.31639C12.112 6.11067 12.472 5.90494 12.832 5.69922C13.9635 6.59069 15.0778 7.4993 16.2093 8.39077C15.8664 8.57935 15.5236 8.78507 15.1978 8.97365C14.975 8.78507 14.7521 8.59649 14.5292 8.40791C14.1349 8.63078 13.7406 8.85365 13.3463 9.09366C13.4149 9.36795 13.4835 9.6594 13.552 9.93369C13.2263 10.1223 12.9006 10.3109 12.5748 10.4994C12.3005 9.1108 12.0263 7.72217 11.752 6.33353" fill="#FBF178"/>
<path d="M19.3995 10.1928C20.2739 10.0557 21.1996 9.95279 22.0568 10.1928C22.8454 10.3985 23.5654 10.8957 24.0626 11.53C24.6283 12.25 24.9541 13.1244 25.1255 13.9987C25.3655 15.233 25.3655 16.5188 25.1598 17.7531C24.6798 17.5988 24.1826 17.4788 23.6855 17.376C23.8397 16.2959 23.874 15.1816 23.6683 14.0844C23.4969 13.2101 23.0854 12.2843 22.2968 11.7872C22.2625 13.5872 22.2282 15.3702 22.194 17.1703C21.6796 17.136 21.1482 17.136 20.6339 17.136C20.6682 15.3359 20.7025 13.553 20.7367 11.7529C20.051 12.1472 19.6224 12.8672 19.3824 13.6044C19.0395 14.6844 18.9881 15.8331 19.0738 16.9474C19.211 18.6446 19.7424 20.3247 20.7025 21.7476C20.3596 22.1248 20.0167 22.4848 19.6224 22.8105C18.5252 21.3019 17.8566 19.5018 17.6337 17.6674C17.4795 16.3988 17.5309 15.113 17.8395 13.8787C18.0281 13.1586 18.3195 12.4558 18.7481 11.8386C17.2909 12.3015 15.9194 13.0386 14.8051 14.0673C12.885 15.8331 11.8049 18.4217 11.9249 20.9933C11.342 21.7305 10.9477 22.5876 10.7934 23.5134C10.022 20.8904 10.3477 17.9932 11.6849 15.6102C12.4735 14.1873 13.605 12.9529 14.9422 12.0272C16.2794 11.1186 17.8052 10.4842 19.4167 10.2099" fill="#FBF178"/>
<path d="M23.9752 10.3101C25.4667 10.6701 26.8724 11.3387 28.0725 12.2645C29.3754 13.2588 30.4383 14.5274 31.1755 15.9847C32.3927 18.4019 32.5813 21.2992 31.7241 23.8707C31.5184 24.4707 31.2783 25.0365 30.9526 25.5851C30.524 26.288 29.8726 26.8709 29.1011 27.1623C28.1068 27.5566 26.9924 27.5223 25.981 27.248C24.5238 26.8537 23.1523 26.1337 21.9694 25.2079C22.3465 24.8822 22.7065 24.5222 23.0494 24.1622C23.7694 24.7108 24.558 25.2079 25.4152 25.5679C26.0324 25.8251 26.701 26.0308 27.3867 26.0651C27.8668 26.0822 28.3468 26.0137 28.7754 25.7908C27.181 24.8651 25.6038 23.9393 24.0094 23.0135C24.3009 22.6021 24.558 22.1564 24.8152 21.7278C26.4096 22.6535 27.9868 23.5793 29.5811 24.505C29.5811 23.8707 29.2897 23.2878 28.8954 22.7907C28.3639 22.1221 27.661 21.5906 26.9239 21.1277C25.0381 19.9963 22.8437 19.3619 20.6321 19.4648C20.4607 19.0019 20.3236 18.5219 20.2207 18.0247C22.2951 17.8533 24.4209 18.2648 26.2895 19.1391C27.5239 19.722 28.6897 20.4763 29.5983 21.4878C29.9583 21.8821 30.2497 22.3107 30.4897 22.7907C30.8669 21.1106 30.8326 19.3105 30.2497 17.6819C29.5125 15.5218 27.8839 13.6531 25.8267 12.5902C25.7581 12.5559 25.6724 12.5216 25.6552 12.4359C25.2781 11.613 24.7123 10.8759 24.0094 10.293" fill="#FBF178"/>
<path d="M5.76885 12.5753C5.95743 12.1981 6.14601 11.8381 6.33459 11.4609C6.60889 12.0781 6.88319 12.7124 7.14034 13.3296C8.13467 13.2439 9.129 13.141 10.1062 13.0382C9.91761 13.4153 9.71189 13.8096 9.52331 14.1868C8.87185 14.2382 8.23753 14.2896 7.58608 14.3411C7.67179 14.5125 7.74037 14.6839 7.82609 14.8725C8.1861 15.044 8.54612 15.2154 8.90614 15.3868C8.7347 15.6954 8.58041 16.0211 8.42611 16.3297C7.19177 15.7468 5.95743 15.1468 4.74023 14.5639C4.89453 14.2553 5.06596 13.9296 5.22026 13.621C5.68313 13.8439 6.14601 14.0668 6.59175 14.2896C6.31745 13.7239 6.04315 13.141 5.75171 12.5753" fill="#FBF178"/>
<path d="M32.8906 13.791C34.125 13.2252 35.3765 12.6595 36.6108 12.0938C37.0394 12.9509 37.4508 13.8253 37.8794 14.6824C37.588 14.8196 37.3137 14.9396 37.0222 15.0767C36.7479 14.5281 36.4908 13.9795 36.2165 13.4481C36.0279 13.5338 35.8393 13.6195 35.6507 13.7053C35.8736 14.151 36.0793 14.5967 36.3022 15.0425C36.0279 15.1625 35.7708 15.2825 35.4965 15.4025C35.2736 14.9567 35.0679 14.511 34.845 14.0653C34.6393 14.1681 34.4336 14.2538 34.2107 14.3567C34.485 14.9396 34.7764 15.5225 35.0679 16.1054C34.7764 16.2425 34.5021 16.3625 34.2107 16.4997C33.765 15.591 33.3364 14.6996 32.8906 13.791Z" fill="#FBF178"/>
<path d="M14.1698 20.1864C14.9926 19.6206 15.867 19.1749 16.8099 18.832C16.9127 19.3121 17.0499 19.7921 17.2042 20.255C16.3298 20.5978 15.4898 21.0093 14.7355 21.5579C14.204 21.935 13.7069 22.3808 13.3469 22.9294C13.0897 23.3237 12.9183 23.7694 12.884 24.2323C14.5126 23.3751 16.1413 22.5008 17.7699 21.6436C17.9928 22.0893 18.2499 22.5351 18.5242 22.9636C16.9299 23.8208 15.3355 24.6609 13.7412 25.5009C13.7069 25.5009 13.6897 25.5352 13.6554 25.5523C14.2383 25.8781 14.9584 25.9123 15.6098 25.8266C16.4841 25.7066 17.3242 25.3638 18.1128 24.9523C19.9986 23.958 21.6272 22.4493 22.6216 20.5807C23.1359 20.6664 23.633 20.7864 24.1131 20.9578C23.4273 22.3808 22.3987 23.6494 21.1815 24.6609C20.1186 25.5523 18.9014 26.2552 17.5813 26.7352C16.6727 27.061 15.6784 27.2496 14.7012 27.1638C15.987 28.2953 17.5642 29.1353 19.2614 29.4954C21.6444 30.0097 24.2331 29.5639 26.3074 28.2953C27.2675 28.4153 28.2447 28.3125 29.1361 27.9867C28.0389 29.0839 26.6846 29.9411 25.2274 30.4897C23.4273 31.1583 21.4558 31.364 19.5528 31.0726C16.5013 30.6097 13.6554 28.8439 12.0097 26.2724C11.5982 25.5866 11.3753 24.798 11.4439 23.9923C11.5125 23.1865 11.8725 22.4322 12.3697 21.7979C12.8668 21.1807 13.484 20.6664 14.1355 20.2035" fill="#FBF178"/>
<path d="M5.75365 26.6143C5.8908 26.9057 5.99366 27.2143 6.25082 27.4372C6.52512 27.6944 6.95371 27.7286 7.29658 27.6086C7.63945 27.4886 7.98232 27.2315 8.0509 26.8543C8.13662 26.46 7.91375 26.1 7.74231 25.7571C7.07371 26.0486 6.40511 26.34 5.75365 26.6314M4.43359 26.0486C5.68508 25.5 6.93656 24.9514 8.18805 24.4199C8.41091 24.9171 8.65093 25.3971 8.87379 25.8943C9.09666 26.4257 9.19952 27.06 8.95951 27.5915C8.7195 28.1229 8.18805 28.4658 7.63945 28.6544C7.15943 28.8258 6.59369 28.8258 6.13081 28.5858C5.66793 28.363 5.32506 27.9344 5.10219 27.4715C4.87933 26.9915 4.65646 26.5114 4.43359 26.0314" fill="#FBF178"/>
<path d="M34.1263 25.0195C35.3949 25.5167 36.6807 26.0139 37.9493 26.511C37.8122 26.8368 37.675 27.1625 37.5379 27.4882C36.2692 26.991 34.9835 26.4939 33.7148 26.0139C33.852 25.6881 33.9891 25.3624 34.1263 25.0367" fill="#FBF178"/>
<path d="M31.5861 29.0145C31.929 28.5516 32.4433 28.1916 33.0434 28.123C33.1119 28.3973 33.1634 28.6888 33.2319 28.9802C32.8891 29.0659 32.529 29.2031 32.3233 29.4945C32.2376 29.6145 32.1519 29.8031 32.2719 29.9403C32.3747 30.0603 32.5462 30.0774 32.6833 30.0088C33.1291 29.8031 33.5234 29.4431 34.0205 29.3574C34.6377 29.2374 35.3235 29.6831 35.4092 30.3003C35.512 30.8832 35.2034 31.4661 34.7749 31.8604C34.4148 32.2547 33.9005 32.529 33.3691 32.5975C33.3005 32.2718 33.2319 31.9461 33.1805 31.6203C33.5234 31.5689 33.8834 31.4489 34.1234 31.1918C34.2434 31.0718 34.3634 30.9175 34.3634 30.7289C34.3634 30.5574 34.1577 30.4374 33.9862 30.4889C33.6262 30.5917 33.3348 30.8317 33.0091 30.986C32.7005 31.1403 32.3233 31.2089 31.9804 31.0889C31.5347 30.9175 31.2261 30.4717 31.209 30.0088C31.209 29.6488 31.3461 29.306 31.569 29.0145" fill="#FBF178"/>
<path d="M12.0955 28.9121C12.4212 28.7921 12.8155 29.1178 12.7127 29.4607C12.6441 29.7864 12.1641 29.9236 11.924 29.6836C11.6669 29.4607 11.7698 28.9978 12.0955 28.9121Z" fill="#FBF178"/>
<path d="M9.21687 31.0551C9.78261 30.4379 10.3483 29.8379 10.9141 29.2207L11.7198 29.9236C11.1712 30.5065 10.6398 31.0894 10.0912 31.6722C9.91976 31.8608 9.78261 32.118 9.86832 32.358C9.97119 32.5637 10.1598 32.7351 10.3826 32.8209C10.6398 32.8894 10.8969 32.718 11.0855 32.5466C11.6341 31.9637 12.1656 31.3808 12.7142 30.7979C12.9885 31.0379 13.2628 31.2779 13.5371 31.5179C12.9885 32.118 12.4227 32.718 11.8741 33.3009C11.617 33.5923 11.2741 33.8152 10.8798 33.8666C10.3998 33.9523 9.91976 33.7981 9.5426 33.5066C9.13115 33.198 8.78828 32.7351 8.75399 32.2208C8.70256 31.7751 8.90828 31.3465 9.19972 31.0379" fill="#FBF178"/>
<path d="M13.0735 29.754C13.3992 29.6169 13.7764 29.9255 13.7078 30.2683C13.6564 30.6112 13.1592 30.7655 12.9192 30.5255C12.662 30.3198 12.7649 29.8569 13.0735 29.7712" fill="#FBF178"/>
<path d="M27.9713 33.1104C28.057 33.6076 28.1428 34.1048 28.2456 34.6019C28.5199 34.4648 28.7942 34.3276 29.0685 34.1905C28.7085 33.8305 28.3485 33.4704 27.9713 33.1104ZM26.9941 32.5447C27.3713 32.3561 27.7313 32.1675 28.1085 31.9961C29.1714 32.9561 30.2343 33.9162 31.2972 34.8934C30.9543 35.0648 30.5943 35.2362 30.2514 35.4248C30.0457 35.2191 29.84 35.0134 29.6171 34.8076C29.2057 35.0134 28.8114 35.2191 28.3999 35.4248C28.4513 35.6991 28.5028 35.9906 28.5542 36.282C28.2113 36.4534 27.8856 36.6249 27.5427 36.7792C27.3542 35.3734 27.1827 33.9848 26.9941 32.579" fill="#FBF178"/>
<path d="M15.4053 32.5625C15.7139 32.6654 16.0397 32.7682 16.3482 32.8539C16.6225 33.7111 16.8797 34.5683 17.154 35.4255C17.394 34.7226 17.6169 34.0197 17.8569 33.3168C18.1998 33.4197 18.5426 33.5225 18.8855 33.6425C18.4741 34.9112 18.0455 36.1627 17.6169 37.4313C17.3254 37.3456 17.0168 37.2427 16.7254 37.157C16.4511 36.2655 16.1597 35.3912 15.8854 34.4997C15.6454 35.2198 15.4053 35.9398 15.1653 36.677C14.8225 36.5741 14.4796 36.4712 14.1367 36.3512C14.5482 35.0826 14.9768 33.8311 15.4053 32.5625Z" fill="#FBF178"/>
<path d="M23.4604 33.5946C23.8719 33.5603 24.2662 33.526 24.6776 33.4746C24.2833 34.2804 23.889 35.1033 23.4947 35.909C23.4604 35.9604 23.4604 36.0119 23.4604 36.0804C23.5119 36.5776 23.5633 37.0748 23.6147 37.5891C23.2547 37.6234 22.8947 37.6577 22.5347 37.6919C22.4661 37.1605 22.4318 36.629 22.3632 36.1147C21.8146 35.3604 21.2318 34.6232 20.666 33.8689C21.0775 33.8346 21.5061 33.7832 21.9175 33.7489C22.2261 34.1946 22.5347 34.6404 22.8604 35.0861C23.0661 34.5889 23.2718 34.0918 23.4604 33.6118" fill="#FBF178"/>
<path d="M23.4595 33.5945C23.2537 34.0917 23.0652 34.5889 22.8594 35.0689C22.5509 34.6232 22.2423 34.1774 21.9165 33.7317C21.5051 33.766 21.0765 33.8174 20.6651 33.8517C21.2308 34.606 21.7965 35.3432 22.3623 36.0975C22.4309 36.629 22.4651 37.1433 22.5337 37.6747C22.8937 37.6404 23.2537 37.6061 23.6309 37.5719C23.5795 37.0747 23.528 36.5775 23.4766 36.0632C23.4766 36.0118 23.4766 35.9604 23.5109 35.9089C23.9052 35.1032 24.2995 34.2974 24.6938 33.4745C24.2824 33.5088 23.8881 33.5431 23.4766 33.5945M15.402 32.5659C14.9905 33.8346 14.5619 35.086 14.1333 36.3547C14.4762 36.4575 14.8191 36.5604 15.162 36.6804C15.402 35.9604 15.642 35.2403 15.882 34.5203C16.1563 35.4118 16.4306 36.2861 16.722 37.1776C17.0135 37.2633 17.3221 37.3661 17.6135 37.4519C18.0421 36.1832 18.4535 34.9317 18.8821 33.6631C18.5393 33.5603 18.1964 33.4402 17.8535 33.3374C17.6135 34.0403 17.3906 34.7432 17.1506 35.4461C16.8763 34.5889 16.6192 33.7317 16.3449 32.8745C16.0191 32.7716 15.7106 32.6688 15.402 32.5831M26.9911 32.5488C27.1796 33.9546 27.3511 35.3603 27.5397 36.749C27.8825 36.5775 28.2083 36.4232 28.5511 36.2518C28.4997 35.9775 28.4483 35.6861 28.3968 35.3946C28.8083 35.1889 29.2197 34.9832 29.614 34.7775C29.8198 34.9832 30.0255 35.1889 30.2483 35.3946C30.5912 35.2232 30.9512 35.0518 31.2941 34.8632C30.2312 33.9031 29.1683 32.9431 28.1054 31.9659C27.7282 32.1545 27.3682 32.3431 26.9911 32.5316M13.0704 29.7544C12.7447 29.8572 12.659 30.303 12.9161 30.5087C13.1733 30.7658 13.6533 30.6115 13.7048 30.2515C13.7905 29.9087 13.3962 29.6001 13.0704 29.7372M9.21312 31.0573C8.92168 31.383 8.71596 31.8116 8.76739 32.2402C8.80167 32.7545 9.14455 33.2174 9.55599 33.526C9.93315 33.8003 10.4132 33.9717 10.8932 33.886C11.2875 33.8174 11.6304 33.5945 11.8875 33.3202C12.4361 32.7202 13.0019 32.1202 13.5505 31.5373C13.2762 31.2973 13.0019 31.0573 12.7276 30.8173C12.179 31.4002 11.6475 31.983 11.0989 32.5659C10.9275 32.7374 10.6703 32.9088 10.396 32.8402C10.1732 32.7716 9.96744 32.6002 9.88172 32.3773C9.796 32.1373 9.93315 31.863 10.1046 31.6916C10.636 31.1087 11.1846 30.5258 11.7332 29.9429C11.4589 29.7029 11.1846 29.4629 10.9275 29.2401C10.3617 29.8572 9.796 30.4573 9.23027 31.0744M12.0933 28.9143C11.7675 29 11.6647 29.4629 11.9218 29.6858C12.1618 29.9258 12.6418 29.7887 12.7104 29.4629C12.8133 29.1201 12.4361 28.7943 12.0933 28.9143ZM31.5856 29.0172C31.3627 29.2915 31.2084 29.6515 31.2255 30.0115C31.2255 30.4744 31.5513 30.9201 31.997 31.0916C32.3399 31.2116 32.6999 31.1259 33.0256 30.9887C33.3685 30.8344 33.6428 30.5773 34.0028 30.4915C34.1571 30.4401 34.3628 30.5601 34.38 30.7316C34.38 30.9201 34.26 31.0573 34.14 31.1944C33.8828 31.4516 33.5399 31.5716 33.1971 31.6059C33.2656 31.9316 33.3171 32.2573 33.3856 32.5831C33.9342 32.5145 34.4314 32.2402 34.7914 31.8459C35.2029 31.4344 35.5114 30.8687 35.4086 30.2858C35.3229 29.6686 34.6371 29.2229 34.0199 29.3429C33.5228 29.4458 33.1285 29.7887 32.6827 29.9944C32.5456 30.063 32.3742 30.0458 32.2713 29.9258C32.1513 29.7887 32.237 29.6001 32.3227 29.4801C32.5285 29.1886 32.8885 29.0515 33.2313 28.9658C33.1628 28.6743 33.1113 28.4 33.0428 28.1086C32.4427 28.1772 31.9284 28.5543 31.5856 29M34.1228 25.0227C33.9857 25.3485 33.8485 25.6742 33.7114 25.9999C34.98 26.4971 36.2658 26.9942 37.5344 27.4743C37.6715 27.1485 37.8087 26.8228 37.9458 26.4971C36.6772 25.9999 35.3914 25.5027 34.1228 25.0227ZM4.43005 26.0342C4.65292 26.5142 4.87578 26.9942 5.09865 27.4743C5.32152 27.9371 5.66439 28.3486 6.12727 28.5886C6.59015 28.8115 7.15589 28.8286 7.63591 28.64C8.1845 28.4515 8.69881 28.1086 8.95597 27.5771C9.21312 27.0285 9.11026 26.4114 8.87025 25.8799C8.64738 25.3827 8.40737 24.9027 8.1845 24.4056C6.93302 24.9542 5.68153 25.5027 4.43005 26.0342ZM32.8885 13.7937C33.3342 14.6851 33.7628 15.5937 34.2085 16.5023C34.5 16.3652 34.7743 16.2452 35.0657 16.108C34.7743 15.5252 34.5 14.9423 34.2085 14.3594C34.4143 14.2565 34.6371 14.1708 34.8428 14.068C35.0657 14.5137 35.2886 14.9594 35.4943 15.4052C35.7686 15.2851 36.0258 15.1651 36.3 15.0451C36.0772 14.5994 35.8715 14.1537 35.6486 13.7079C35.8372 13.6222 36.0258 13.5365 36.2143 13.4508C36.4886 13.9994 36.7458 14.548 37.0201 15.0794C37.3115 14.9423 37.5858 14.8223 37.8773 14.6851C37.4487 13.8108 37.0372 12.9536 36.6086 12.0964C35.3572 12.6622 34.1228 13.2279 32.8885 13.7937ZM5.76725 12.5765C6.04155 13.1422 6.31585 13.7251 6.60729 14.2908C6.14441 14.068 5.69868 13.8451 5.2358 13.6222C5.08151 13.9308 4.91007 14.2565 4.75578 14.5651C5.99012 15.148 7.20732 15.748 8.44166 16.3309C8.61309 16.0052 8.76739 15.6966 8.92168 15.388C8.56166 15.2166 8.20165 15.0451 7.84163 14.8737C7.75591 14.7023 7.68734 14.5137 7.60162 14.3422C8.25308 14.2908 8.88739 14.2394 9.53885 14.188C9.74457 13.8108 9.93315 13.4165 10.1217 13.0393C9.1274 13.1422 8.15022 13.2279 7.15589 13.3308C6.88159 12.7136 6.60729 12.0793 6.35014 11.4621C6.16156 11.8221 5.97298 12.1993 5.7844 12.5765M21.0765 9.07915C19.0536 9.11344 17.0306 9.64489 15.282 10.6392C12.8647 11.9936 10.9446 14.2051 10.0189 16.7938C9.38456 18.5424 9.19598 20.4282 9.47028 22.2626C9.71029 23.9255 10.3446 25.5199 11.2875 26.9085C12.8304 29.2058 15.2305 30.9201 17.9221 31.6745C19.9965 32.2573 22.2251 32.2916 24.2995 31.7773C27.0596 31.0916 29.5455 29.4115 31.157 27.1142C32.1341 25.7428 32.7856 24.1655 33.077 22.5198C33.4199 20.5482 33.2313 18.4739 32.5113 16.5881C31.5341 14.0165 29.5797 11.8393 27.1282 10.5021C25.2938 9.50774 23.1852 8.99344 21.0765 9.04487M11.7504 6.31903C12.0247 7.70766 12.299 9.0963 12.5733 10.4849C12.899 10.2964 13.2247 10.1078 13.5505 9.91919C13.4819 9.64489 13.4133 9.35345 13.3447 9.07915C13.739 8.85629 14.1333 8.61628 14.5276 8.39341C14.7505 8.58199 14.9734 8.77057 15.1962 8.97629C15.5391 8.78771 15.882 8.58199 16.2077 8.39341C15.0934 7.50194 13.9619 6.59333 12.8304 5.70186C12.4704 5.90758 12.1104 6.11331 11.7504 6.31903ZM29.614 5.49614C29.2369 6.86763 28.8769 8.22197 28.4997 9.59346C28.8083 9.79919 29.134 10.0221 29.4597 10.2278C30.6598 9.40488 31.8427 8.59913 33.0428 7.77624C32.717 7.55337 32.4084 7.34765 32.0827 7.12478C31.3113 7.72481 30.5226 8.32484 29.7512 8.92486C30.0426 7.99911 30.3341 7.07335 30.6084 6.14759C30.2826 5.92473 29.9569 5.70186 29.6312 5.49614M19.8079 3.59319C19.7736 4.91325 19.7565 6.25046 19.7222 7.57052C20.0822 7.57052 20.4593 7.57052 20.8194 7.58766C20.8194 7.07335 20.8365 6.55904 20.8536 6.02759C21.3508 6.02759 21.8651 6.04473 22.3623 6.06188C22.3623 6.57619 22.3451 7.09049 22.328 7.62195C22.688 7.62195 23.0652 7.62195 23.4252 7.63909C23.4595 6.31903 23.4766 4.98183 23.5109 3.66177C23.1509 3.66177 22.7737 3.66177 22.4137 3.64462C22.4137 4.12465 22.3966 4.62181 22.3794 5.10183C21.8823 5.10183 21.368 5.08469 20.8708 5.06755C20.8708 4.58752 20.8879 4.09036 20.9051 3.61034C20.5451 3.61034 20.1679 3.61034 19.8079 3.59319ZM14.0305 3.07889C17.4421 1.75883 21.2308 1.39881 24.831 2.03312C28.3111 2.65029 31.6027 4.21036 34.2428 6.49047C36.7458 8.63342 38.6659 11.4278 39.7459 14.4965C40.3802 16.3138 40.7231 18.251 40.7745 20.1711C39.5231 20.1539 38.2716 20.1196 37.0201 20.1025C37.0201 20.5825 37.0029 21.0797 36.9858 21.5769C38.2373 21.594 39.4888 21.6283 40.7402 21.6454C40.5517 24.7313 39.5745 27.7657 37.8944 30.3887C36.6086 32.4116 34.9114 34.1946 32.957 35.6003C30.6084 37.2976 27.8825 38.4633 25.0195 38.9948C21.2651 39.6977 17.3049 39.3034 13.7733 37.8633C10.516 36.5432 7.65305 34.3489 5.56153 31.5887C3.23 28.5029 1.89279 24.7141 1.82422 20.874C3.0757 20.8911 4.32719 20.9254 5.57867 20.9425C5.57867 20.4454 5.59582 19.9654 5.61296 19.4682C4.36148 19.4339 3.10999 19.4168 1.85851 19.3996C2.06423 15.7309 3.43572 12.1307 5.73297 9.19916C7.85878 6.45618 10.7732 4.31323 14.0476 3.0446" fill="#6E1236"/>
<path d="M12.7637 6.83008C13.158 7.17295 13.5351 7.51582 13.9123 7.8587C13.6551 8.01299 13.3808 8.16728 13.1237 8.32157C13.0037 7.82441 12.8837 7.32724 12.7637 6.84722" fill="#6E1236"/>
<path d="M5.75195 26.6165C6.42055 26.3251 7.08916 26.0336 7.74061 25.7422C7.89491 26.0851 8.11777 26.4451 8.0492 26.8394C7.98062 27.2165 7.63775 27.4737 7.29488 27.5937C6.95201 27.7308 6.52342 27.6794 6.24912 27.4223C6.00911 27.1994 5.8891 26.8908 5.75195 26.5994" fill="#6E1236"/>
<path d="M27.9688 33.1113C28.3288 33.4713 28.6888 33.8314 29.0659 34.1914C28.7916 34.3285 28.5173 34.4657 28.243 34.6028C28.1573 34.1057 28.0716 33.6085 27.9688 33.1113Z" fill="#6E1236"/>
<path d="M14.1674 20.1868C13.5159 20.6325 12.8987 21.1468 12.4016 21.7811C11.9044 22.4154 11.5444 23.1698 11.4758 23.9755C11.3901 24.7641 11.613 25.5699 12.0416 26.2556C13.6873 28.8271 16.5332 30.5929 19.5848 31.0558C21.4877 31.3473 23.4592 31.1415 25.2593 30.4729C26.7336 29.9243 28.0709 29.0672 29.168 27.97C28.2766 28.2957 27.2822 28.3814 26.3393 28.2786C24.265 29.5472 21.6763 29.9929 19.2762 29.4786C17.579 29.1186 16.0017 28.2786 14.716 27.1471C15.6932 27.2328 16.6703 27.0271 17.5961 26.7185C18.9162 26.2556 20.1334 25.5356 21.1963 24.6441C22.4306 23.6326 23.4421 22.364 24.1278 20.9411C23.6478 20.7868 23.1335 20.6668 22.6363 20.5639C21.642 22.4326 20.0133 23.9412 18.1104 24.9355C17.3218 25.347 16.4989 25.6727 15.6074 25.8099C14.956 25.8956 14.2359 25.8613 13.6531 25.5356C13.6702 25.5184 13.7045 25.4841 13.7388 25.4841C15.3331 24.6441 16.9275 23.7869 18.5219 22.9469C18.2476 22.5183 17.9904 22.0897 17.7675 21.6268C16.1389 22.484 14.5102 23.3583 12.8816 24.2155C12.9159 23.7526 13.0873 23.3069 13.3445 22.9126C13.7045 22.364 14.2017 21.9354 14.7331 21.5411C15.4874 21.0097 16.3275 20.5811 17.2018 20.2382C17.0475 19.7753 16.9104 19.2953 16.8075 18.8153C15.8817 19.1581 14.9903 19.621 14.1674 20.1696M23.9735 10.312C24.6936 10.8778 25.2593 11.6149 25.6193 12.455C25.6365 12.5407 25.7222 12.575 25.7907 12.6093C27.848 13.6893 29.4766 15.5408 30.2138 17.7009C30.7967 19.3296 30.831 21.1297 30.4538 22.8097C30.2309 22.3469 29.9224 21.9011 29.5623 21.5068C28.6537 20.4953 27.488 19.741 26.2536 19.1581C24.3678 18.2838 22.2592 17.8724 20.1676 18.0438C20.2705 18.5238 20.4076 19.0038 20.5791 19.4839C22.7906 19.381 25.0021 20.0153 26.8708 21.1468C27.608 21.5925 28.3109 22.124 28.8595 22.8097C29.2538 23.3069 29.5281 23.8898 29.5452 24.5241C27.9508 23.5983 26.3736 22.6726 24.7793 21.7468C24.5393 22.1926 24.265 22.6212 23.9735 23.0326C25.5679 23.9584 27.1451 24.8841 28.7395 25.8099C28.3109 26.0156 27.8308 26.1013 27.3508 26.0842C26.6651 26.0499 26.0136 25.8613 25.3793 25.587C24.5393 25.227 23.7507 24.747 23.0135 24.1812C22.6706 24.5412 22.3106 24.9013 21.9334 25.227C23.1163 26.1527 24.4707 26.8728 25.945 27.2671C26.9565 27.5242 28.0709 27.5585 29.0652 27.1814C29.8366 26.8728 30.5052 26.307 30.9338 25.6041C31.2596 25.0727 31.4996 24.4898 31.7053 23.8898C32.5796 21.3182 32.391 18.4381 31.1567 16.0037C30.4367 14.5465 29.3566 13.2779 28.0537 12.2835C26.8537 11.3578 25.4307 10.6892 23.9564 10.3292M19.3962 10.192C17.8018 10.4663 16.2589 11.1006 14.9217 12.0092C13.5673 12.935 12.453 14.1693 11.6644 15.5923C10.3272 17.9752 9.98433 20.8896 10.7729 23.4955C10.9272 22.5869 11.3387 21.7125 11.9044 20.9754C11.7844 18.4038 12.8645 15.8151 14.7845 14.0493C15.8989 13.0207 17.2704 12.2835 18.7276 11.8207C18.2818 12.4378 17.9904 13.1236 17.819 13.8608C17.5104 15.0951 17.4761 16.398 17.6132 17.6666C17.8361 19.501 18.5047 21.3011 19.6019 22.8097C19.9962 22.484 20.3391 22.124 20.6819 21.7468C19.7219 20.3068 19.1905 18.6438 19.0533 16.9466C18.9676 15.8323 19.019 14.6837 19.3619 13.6036C19.6019 12.8664 20.0305 12.1464 20.7162 11.7521C20.6819 13.5522 20.6477 15.3351 20.5962 17.1352C21.1105 17.1352 21.642 17.1352 22.1563 17.1695C22.1906 15.3694 22.2249 13.5865 22.2592 11.7864C23.0649 12.3007 23.4592 13.2093 23.6307 14.0836C23.8535 15.1637 23.8192 16.278 23.6478 17.3752C24.145 17.4781 24.6421 17.5981 25.1221 17.7524C25.3279 16.518 25.3279 15.2323 25.105 13.9979C24.9336 13.1064 24.625 12.2493 24.0421 11.5292C23.5449 10.8949 22.842 10.4149 22.0363 10.192C21.162 9.95202 20.2534 10.0549 19.379 10.192M21.0763 9.07769C23.1678 9.0434 25.2764 9.54057 27.128 10.5349C29.5795 11.855 31.5339 14.0493 32.5111 16.6037C33.2311 18.4895 33.4197 20.5468 33.0768 22.5354C32.8025 24.1812 32.1339 25.7584 31.1567 27.1128C29.5452 29.41 27.0594 31.0901 24.2993 31.7758C22.2077 32.2902 19.9791 32.2559 17.9218 31.673C15.2303 30.9187 12.8302 29.1872 11.2872 26.8899C10.3443 25.5013 9.71003 23.8898 9.47002 22.244C9.19572 20.4096 9.3843 18.5238 10.0186 16.7752C10.9444 14.1865 12.8645 11.975 15.2817 10.6206C17.0304 9.62629 19.0533 9.09483 21.0763 9.06055" fill="#0A6752"/>
</g>
</g>
<defs>
<clipPath id="clip0_864_6337">
<rect width="42.0019" height="40.5618" fill="white" transform="translate(0.300781 0.263672)"/>
</clipPath>
</defs>
</svg>
