<svg width="59" height="47" viewBox="0 0 59 47" fill="none" xmlns="http://www.w3.org/2000/svg">
<g clip-path="url(#clip0_864_6278)">
<mask id="mask0_864_6278" style="mask-type:luminance" maskUnits="userSpaceOnUse" x="0" y="0" width="59" height="47">
<path d="M58.6939 0.847656H0.302734V46.244H58.6939V0.847656Z" fill="white"/>
</mask>
<g mask="url(#mask0_864_6278)">
<path d="M48.2343 16.8427C48.5943 17.3398 49.2457 17.4941 49.7943 17.6656C50.4629 17.8713 51.1487 17.6141 51.8001 17.4255C52.1087 17.3398 52.4345 17.2198 52.6402 16.9455C52.1259 16.8427 51.5944 16.9112 51.0801 16.8598C50.1372 16.7741 49.1943 16.8255 48.2514 16.8255M8.71821 16.8769C7.98103 16.9284 7.20957 16.8769 6.47239 17.0141C6.81526 17.3227 7.22671 17.5113 7.67245 17.597C8.70106 17.957 9.84969 17.6656 10.7069 17.0312C10.7069 16.9798 10.7069 16.8769 10.7069 16.8255C10.0383 16.7741 9.36967 16.7912 8.70106 16.8769M13.0041 14.0654C12.867 14.8197 12.5069 15.4883 12.2669 16.2083C14.2042 16.1226 16.1243 16.1741 18.0615 16.1569C18.9358 16.1569 19.8273 16.1569 20.7016 16.2083C20.9073 15.8826 21.0616 15.5226 21.2845 15.214C21.7474 14.6311 22.6731 14.6997 23.2046 15.1283C23.5817 15.574 23.6674 16.1741 23.7017 16.7398C23.976 16.3455 24.3018 15.9683 24.7646 15.814C25.7933 15.454 26.9247 15.454 27.9705 15.7112C27.5419 15.0769 26.7704 14.8711 26.1018 14.614C25.4161 14.4083 24.7132 13.9797 23.976 14.1683C22.6217 14.5111 21.2502 14.6997 19.8616 14.734C18.6787 14.6997 17.4786 14.6826 16.3128 14.5283C15.1985 14.4768 14.1184 14.2025 13.0041 14.0997M34.0736 14.1511C33.0279 14.5283 31.8792 14.8026 31.0392 15.5912C31.6049 15.5397 32.1878 15.3855 32.7707 15.454C33.4222 15.5397 34.1079 15.5912 34.6737 15.9512C34.948 16.1569 35.1194 16.4484 35.308 16.7227C35.3937 16.2426 35.4451 15.7455 35.668 15.2997C36.1137 14.6483 37.1252 14.5111 37.7081 15.0597C37.9824 15.3512 38.1195 15.7455 38.291 16.1055C39.4567 16.1226 40.6225 16.0541 41.7883 16.0712C43.4683 16.0369 45.1313 16.1398 46.7942 16.1055C46.4856 15.4197 46.2113 14.7169 46.0227 13.9968C44.3084 14.374 42.5597 14.494 40.8282 14.6311C38.9253 14.7511 37.0052 14.5454 35.1537 14.0997C34.8108 13.9797 34.4336 14.0311 34.0908 14.1511M52.8459 13.5339C52.6745 13.8425 52.4859 14.134 52.3316 14.4597C52.6916 14.5797 53.0345 14.734 53.4116 14.7854C53.2916 14.374 53.2231 13.9454 53.0859 13.5339C53.0002 13.5339 52.9145 13.5339 52.8288 13.5339M5.94094 13.5339C5.78665 13.9625 5.6495 14.3911 5.6495 14.854C5.99237 14.7683 6.33524 14.614 6.66097 14.4768C6.50668 14.1511 6.36953 13.8254 6.18095 13.5339C6.09523 13.5339 6.02666 13.5339 5.94094 13.5339ZM25.9133 13.5339C25.9133 13.5339 25.9133 13.6539 25.9133 13.6882C27.1305 14.1854 28.2277 15.0426 28.9991 16.1398C29.0848 16.1398 29.1706 16.1398 29.2391 16.1398C29.0505 14.8711 28.3991 13.6197 27.3876 12.8311C26.839 12.8996 26.3933 13.2939 25.8961 13.5168M31.2106 13.1053C30.4563 13.9797 29.7877 15.0597 29.7706 16.2598C30.302 15.7798 30.6963 15.1454 31.2792 14.734C31.8621 14.254 32.5478 13.9111 33.2164 13.5682C32.7364 13.3625 32.2735 13.1225 31.845 12.8311C31.5878 12.6596 31.3478 12.9339 31.1935 13.1053M29.8392 10.8595C29.7534 11.7853 29.702 12.7282 29.7534 13.6711C30.1992 13.2254 30.5078 12.6596 30.9535 12.1967C30.6106 11.7167 30.2506 11.2538 29.8392 10.8595ZM29.102 10.8081C28.8105 11.3224 28.3991 11.751 28.0562 12.2139C28.4677 12.6425 28.8105 13.1225 29.1363 13.6197C29.1706 13.6197 29.2563 13.5854 29.2906 13.5854C29.2563 12.6768 29.2048 11.7681 29.2391 10.8595C29.2048 10.8595 29.1534 10.8424 29.1191 10.8424M20.7702 9.88235C20.033 10.1395 19.3301 10.4824 18.5415 10.5681C19.3473 11.0138 20.2559 11.2881 21.1473 11.4938C21.6445 11.6139 22.296 11.5796 22.5874 11.0824C22.7588 10.8081 22.656 10.4652 22.5874 10.1909C22.536 9.91663 22.3474 9.53948 22.0217 9.57376C21.5931 9.62519 21.1816 9.77949 20.7702 9.88235ZM36.5252 10.0195C36.4223 10.3281 36.3366 10.7395 36.5595 11.0138C36.8509 11.3053 37.2452 11.5281 37.6738 11.4081C38.6167 11.2538 39.5424 10.9624 40.4339 10.6024C40.0225 10.3795 39.5767 10.2938 39.1481 10.1224C38.4967 9.8652 37.8452 9.57376 37.1595 9.4709C36.7995 9.33375 36.5937 9.7452 36.5423 10.0195M28.8963 1.99628C29.0163 1.60198 28.8963 1.01909 29.3934 0.847656C29.6334 1.32768 29.8734 1.82484 29.9934 2.37344C30.302 3.29919 30.7135 4.19066 30.8506 5.16785C30.8506 5.5793 30.9021 6.12789 30.4735 6.33362C30.302 6.43648 30.1306 6.50505 29.9592 6.59077C29.9592 6.93364 29.9592 7.27652 29.9592 7.63653C30.3706 7.60224 30.7992 7.44795 31.1935 7.63653C31.725 7.84226 31.8792 8.69944 31.3992 9.05945C31.1078 9.1966 30.7478 9.09374 30.4563 9.05945C30.4563 8.95659 30.4392 8.75087 30.422 8.64801C30.7135 8.73372 31.0392 8.83659 31.3478 8.73372C31.2621 8.44228 31.1249 8.11655 30.8506 7.96226C30.542 7.80797 30.302 8.06512 30.1135 8.27085C29.9077 8.47657 29.9763 8.8023 29.9592 9.05945C29.9592 10.1395 30.542 11.1167 31.2621 11.8882C31.725 11.6139 32.1878 11.3053 32.4621 10.8595C32.9079 10.1224 32.565 9.1966 32.9593 8.44228C33.2507 7.87654 33.8336 7.53367 34.4508 7.48224C34.8794 7.51653 35.1708 7.99655 35.1365 8.408C35.068 8.78515 34.7765 9.1966 34.3479 9.0766C33.9708 8.97374 33.8336 8.56229 33.645 8.27085C33.5079 8.39085 33.3707 8.528 33.3365 8.71658C33.2164 9.48804 33.405 10.2938 33.1822 11.0481C32.9593 11.6481 32.4964 12.0767 32.0507 12.5053C32.7021 12.8311 33.3536 13.2425 34.1079 13.2768C34.6737 13.1568 35.2051 12.8996 35.6851 12.591C35.5823 12.111 35.3423 11.6824 35.2394 11.2024C35.2394 10.8252 35.6508 10.6538 35.8737 10.4138C35.8223 9.8652 35.9594 9.14517 36.5423 8.93945C37.8109 8.69944 39.0453 9.31661 40.1082 9.96807C40.8282 10.3281 41.634 10.1566 42.3711 9.91663C41.7197 10.7738 40.6911 11.2024 39.6967 11.4767C38.9253 11.6653 38.171 12.0424 37.3652 12.0082C36.9709 12.0253 36.5252 11.9739 36.2509 11.6653C36.0623 11.4253 36.0623 11.0824 35.9937 10.791C35.8223 10.911 35.5823 11.0138 35.5137 11.2367C35.668 11.6996 36.0623 12.0767 36.0623 12.591C35.9766 13.0196 35.6337 13.3282 35.4451 13.7054C38.2567 14.0654 41.1197 14.0311 43.9312 13.8254C44.7027 13.7568 45.4741 13.6882 46.2285 13.5511C46.6399 14.3568 46.9142 15.214 47.4285 15.9683C47.5828 16.2426 47.9428 16.1226 48.1828 16.1741C49.8286 16.2255 51.4744 16.2769 53.1202 16.1912C53.5145 16.0883 53.4288 15.574 53.5145 15.2826C53.1373 15.2312 52.7773 15.0769 52.4002 15.0254C52.2287 14.974 51.8859 14.9911 51.8516 14.734C51.8001 14.2883 51.9544 13.8425 52.2459 13.4997C52.4173 13.2939 52.5887 13.0196 52.863 12.9339C53.1716 12.7625 53.3774 13.0539 53.5145 13.2768C53.9774 14.0997 54.3545 15.0597 54.1145 16.0026C54.0974 16.1055 54.0631 16.2255 54.166 16.2941C54.406 16.4826 54.6803 16.6369 54.9031 16.8598C55.3146 17.2198 55.6575 17.6998 56.1546 17.9741C56.6346 18.2656 57.2175 18.317 57.7661 18.2484C58.1776 18.077 58.3661 17.6313 58.4176 17.2027C58.2461 17.117 58.0918 17.0141 57.9204 16.9284C57.9547 17.2198 58.0061 17.5113 57.9204 17.7856C57.8175 17.7856 57.7147 17.8198 57.6118 17.8198C57.5604 17.3913 57.5604 16.9627 57.7147 16.5684C58.0061 16.6369 58.4519 16.4655 58.6062 16.8427C58.8462 17.3398 58.7776 18.0084 58.3833 18.3856C57.989 18.7627 57.4061 18.9856 56.8575 18.8485C56.0346 18.7456 55.2803 18.317 54.7488 17.6827C54.4745 17.4084 54.2002 17.0484 53.7717 17.0827C53.4974 17.2198 53.3431 17.5284 53.1031 17.717C52.7945 18.0427 52.3659 18.1456 51.9716 18.2827C51.2858 18.5399 50.5487 18.5399 49.8286 18.4884C48.7829 18.3856 47.9257 17.6656 47.2914 16.8427C45.7141 16.8427 44.1369 16.7227 42.5597 16.6541C41.2054 16.6541 39.851 16.5341 38.5138 16.6198C38.2052 16.6884 37.9824 16.9284 37.6909 17.0484C37.6224 16.5341 37.6052 15.934 37.2109 15.5397C36.868 15.3169 36.3194 15.3512 36.0794 15.7283C35.7023 16.3284 35.788 17.0655 35.6508 17.7341C35.5994 17.957 35.4451 18.1456 35.2394 18.2313C35.0508 18.1799 34.8794 18.0599 34.6908 18.0941C34.3479 18.1456 33.9879 18.1284 33.6793 17.9741C33.7479 17.597 34.0222 17.2541 34.4165 17.2027C34.4165 17.4084 34.4165 17.6313 34.4165 17.837C34.6394 17.7341 34.948 17.597 34.8451 17.2541C34.8965 16.9284 34.6222 16.7055 34.4165 16.4998C33.8165 16.0541 33.0279 16.1055 32.325 16.1226C31.6221 16.1226 30.9192 16.4141 30.3877 16.8769C30.0792 17.117 29.9763 17.5113 29.7191 17.8027C29.6506 17.8884 29.4963 17.9399 29.4277 17.8198C29.1534 17.477 28.9477 17.0312 28.5877 16.7741C27.6791 16.1226 26.5133 16.0026 25.4332 16.1569C25.0389 16.2941 24.5589 16.4484 24.4046 16.8769C24.2846 17.1341 24.3189 17.4255 24.3189 17.717C24.4732 17.7341 24.6275 17.7513 24.7989 17.7856C24.7989 17.597 24.7989 17.4084 24.7989 17.2198C25.0218 17.3227 25.2275 17.4598 25.4332 17.597C25.399 17.8027 25.3475 18.0084 25.2961 18.197C24.7989 18.197 24.2846 18.1284 23.8046 18.2484C23.2389 17.6827 23.4274 16.8255 23.2389 16.1226C23.136 15.8483 22.9646 15.5397 22.6903 15.4369C22.3988 15.4026 21.9874 15.3855 21.8159 15.6769C21.5416 16.0883 21.5588 16.6198 21.4731 17.0998C21.2159 16.9284 20.9759 16.6884 20.6502 16.6369C19.8616 16.5512 19.073 16.6369 18.2843 16.6541C16.1928 16.7055 14.0842 16.7912 11.9926 16.8427C11.8383 16.8427 11.7526 16.9798 11.6498 17.0827C11.3412 17.4427 10.9983 17.7856 10.604 18.0427C9.19823 18.8828 7.34672 18.6599 6.00951 17.7684C5.73522 17.5798 5.56378 17.3055 5.35806 17.0484C4.55231 17.2198 4.19229 18.0941 3.47226 18.4542C2.80366 18.8485 1.94648 19.1056 1.2093 18.7627C0.45498 18.4713 0.00924572 17.2884 0.694991 16.7055C0.952145 16.5684 1.41502 16.5512 1.51788 16.9112C1.56932 17.237 1.51788 17.5798 1.51788 17.9056C1.39788 17.837 1.24359 17.7856 1.15787 17.6827C1.05501 17.477 1.12358 17.2198 1.10644 16.997C0.900714 17.0827 0.694991 17.2712 0.746422 17.5284C0.849283 17.9227 1.15787 18.317 1.6036 18.3513C2.28935 18.5056 2.97509 18.1627 3.47226 17.717C3.79799 17.4598 4.00371 17.0655 4.32944 16.8255C4.55231 16.6712 4.80946 16.5169 5.03233 16.3626C4.86089 15.454 4.92947 14.4597 5.44378 13.6711C5.61521 13.4139 5.7695 13.0711 6.09523 12.9682C6.38667 13.0025 6.60954 13.2254 6.78098 13.4482C7.14099 13.8597 7.261 14.4083 7.34672 14.9397C7.03813 15.0083 6.7124 15.0426 6.38667 15.1283C6.11238 15.2312 5.83808 15.3683 5.56378 15.4712C5.66664 15.7626 5.73522 16.0369 5.82093 16.3284C6.90098 16.3626 7.98103 16.3455 9.06108 16.3455C9.88397 16.3455 10.6897 16.1741 11.5126 16.2769C12.0612 15.4883 12.4384 14.5968 12.7812 13.7054C13.0041 13.7054 13.2441 13.7225 13.467 13.7397C16.6386 14.0654 19.8444 14.2025 23.016 13.8768C23.256 13.8425 23.496 13.7911 23.7189 13.7225C23.3931 13.3968 22.9988 13.0196 22.9817 12.5396C23.1189 12.1282 23.4103 11.8024 23.5132 11.3738C23.5474 11.1338 23.3246 10.9967 23.1531 10.8767C23.0846 11.3738 22.7931 11.9224 22.2788 12.0596C21.6959 12.1453 21.0788 12.1282 20.5302 11.9053C19.6558 11.5796 18.7129 11.4596 17.89 10.9795C17.4786 10.7395 17.0672 10.4652 16.7414 10.1052C17.5129 10.2252 18.3701 10.4309 19.0901 10.0024C20.1016 9.36804 21.2673 8.85373 22.4674 8.99088C23.1017 9.21375 23.2731 9.93378 23.2217 10.5509C23.4789 10.7567 23.7703 10.9624 23.8732 11.2881C23.7703 11.7339 23.4446 12.111 23.4446 12.5739C23.5474 12.8653 23.8732 13.0025 24.1475 13.1225C24.4732 13.2254 24.7818 13.3796 25.1247 13.4139C25.7761 13.2596 26.3761 12.9511 26.9762 12.6425C26.6162 12.2139 26.1704 11.8367 25.9647 11.2881C25.5704 10.3795 26.0676 9.31661 25.5704 8.42514C25.5361 8.42514 25.4504 8.44228 25.399 8.45943C25.2618 8.69944 25.1589 9.02517 24.8846 9.14517C24.5932 9.29946 24.1646 9.17946 24.0446 8.83659C23.9246 8.44228 23.9246 7.84226 24.3703 7.67082C24.9018 7.49938 25.4847 7.79082 25.8618 8.16798C26.4276 8.78516 26.2047 9.69377 26.4276 10.4481C26.5647 11.1853 27.1648 11.6996 27.7991 12.0082C28.5877 11.271 29.1191 10.2081 29.1363 9.11088C29.0848 8.8023 29.0677 8.37371 28.742 8.21942C28.5534 8.06512 28.3134 8.08227 28.1076 8.15084C27.8676 8.30513 27.8676 8.66515 27.7648 8.90516C28.0562 8.99088 28.3305 8.85373 28.6048 8.75087C28.6391 8.85373 28.6562 8.95659 28.6905 9.0766C28.4162 9.24803 28.0219 9.41947 27.7476 9.17946C27.3362 9.05945 27.4048 8.56229 27.4733 8.21942C27.5248 7.94512 27.8162 7.82511 28.0219 7.70511C28.3648 7.55081 28.7248 7.70511 29.0677 7.79083C29.0505 7.39652 29.102 6.96793 28.982 6.59077C28.7762 6.40219 28.4162 6.45362 28.2619 6.17932C27.9876 5.87074 28.0562 5.40786 28.0562 5.01356C28.0734 3.9678 28.7077 3.07633 28.9134 2.082" fill="#258AB5"/>
<path d="M5.01411 22.9975C6.12844 21.4546 8.35711 21.0946 10.0029 21.8832C10.3972 22.1232 10.7915 22.3804 11.0658 22.7575C11.4087 23.1347 11.5115 23.649 11.7515 24.0776C11.9058 24.249 12.0773 24.3862 12.1801 24.609C11.3401 24.7805 10.4658 24.7291 9.6086 24.6948C9.66003 24.489 9.71146 24.2662 9.78003 24.0605C9.43716 23.649 9.04286 23.2033 8.47712 23.1347C7.58565 22.9633 6.67704 23.5119 6.35131 24.3519C6.04272 25.1576 5.93986 26.0663 6.19702 26.9063C6.31702 27.5749 6.74561 28.2606 7.39707 28.4664C8.04853 28.7407 8.90571 28.7064 9.42002 28.1578C9.62574 27.9006 9.84861 27.6263 9.8829 27.2835C9.83146 27.1634 9.7286 27.0777 9.64288 26.992C9.62574 26.8549 9.6086 26.7006 9.59145 26.5634C10.3972 26.512 11.2201 26.4777 12.043 26.5634C12.043 26.6491 12.0773 26.8377 12.0944 26.9234C11.7516 27.2663 11.683 27.7806 11.4944 28.2092C11.1858 29.015 10.5172 29.6493 9.76289 29.9921C8.35711 30.4893 6.65989 30.3522 5.49413 29.3407C4.41408 28.3806 3.98549 26.8206 4.10549 25.3977C4.25979 24.5576 4.46551 23.6833 5.01411 22.9975Z" fill="#258AB5"/>
<path d="M16.3302 24.13C16.1587 24.3357 16.0387 24.5928 15.9702 24.8671C15.7644 25.5357 15.5073 26.1872 15.2673 26.8558C15.9187 26.8558 16.5873 26.8558 17.2388 26.8044C16.8788 25.93 16.6216 25.0214 16.3302 24.1471M14.8215 21.7298C15.833 21.6784 16.8616 21.5756 17.856 21.7813C17.7702 22.0384 17.5131 22.2784 17.5817 22.5699C18.4217 24.73 19.176 26.9415 19.9818 29.1187C20.0503 29.5473 20.6332 29.5645 20.6161 30.0445C19.8618 30.1645 19.0903 30.1131 18.3188 30.1131C18.1131 30.1302 17.9245 30.0102 17.7874 29.8902C17.9074 29.6845 18.0788 29.4788 18.0103 29.2216C17.9588 28.913 17.8388 28.6044 17.7531 28.2959C16.8273 28.2444 15.9016 28.2101 14.993 28.2787C14.7358 28.313 14.6844 28.6387 14.5987 28.8444C14.5472 29.033 14.4272 29.2216 14.4444 29.4273C14.4958 29.6331 14.5815 29.8559 14.633 30.0616C13.7415 30.1474 12.8329 30.1474 11.9414 30.1131C11.9414 29.9245 11.9585 29.7873 11.9757 29.5988C12.2328 29.5988 12.49 29.513 12.5757 29.2216C13.33 27.1987 14.1015 25.1757 14.8558 23.1528C14.9415 22.9299 15.0615 22.707 15.0787 22.467C15.0444 22.2099 14.9073 21.987 14.8558 21.747" fill="#258AB5"/>
<path d="M23.6503 26.3758C23.5303 27.0787 23.5817 27.7988 23.5989 28.5188C24.3361 28.5188 25.0561 28.5702 25.7933 28.5188C26.2219 28.5017 26.7362 28.1931 26.7362 27.713C26.719 27.4045 26.7876 27.0102 26.5476 26.7873C25.7247 26.153 24.6104 26.4958 23.6675 26.393M23.5817 23.2043C23.5817 23.8386 23.5817 24.4729 23.6503 25.0901C24.3875 25.0386 25.1418 25.1244 25.8618 24.9529C26.5476 24.7815 26.6505 23.5814 25.9647 23.3243C25.1932 23.0328 24.3704 23.1528 23.5646 23.1871M21.1988 21.7814C22.0731 21.6099 22.9817 21.6956 23.8732 21.6785C24.8504 21.7128 25.8276 21.5928 26.7876 21.7985C27.3533 21.9871 27.9705 22.3471 28.1762 22.9471C28.2962 23.4443 28.4163 23.9929 28.1934 24.49C28.0562 24.9186 27.7134 25.2272 27.4048 25.5358C27.7648 25.8101 28.2105 26.0158 28.4162 26.4444C28.6905 26.9244 28.6734 27.5073 28.6391 28.0388C28.5363 29.016 27.6791 29.7531 26.7876 29.9589C25.6047 30.2674 24.3704 30.0789 23.1703 30.0789C22.5531 30.0789 21.9188 30.1474 21.3016 30.0789C21.3016 29.8903 21.3016 29.736 21.3016 29.5646C21.5074 29.4617 21.816 29.376 21.6959 29.0503C21.6959 26.8216 21.6959 24.5929 21.6959 22.3471C21.4559 22.2271 21.2502 22.0385 21.1816 21.7814" fill="#258AB5"/>
<path d="M33.1663 24.0608C32.892 24.9694 32.5663 25.8437 32.2577 26.7352C32.892 26.8209 33.5263 26.7866 34.1435 26.7695C33.9207 25.8608 33.5435 24.9865 33.2863 24.0951C33.252 24.0951 33.1835 24.0608 33.1492 24.0608M31.6748 21.7635C32.6692 21.6607 33.6635 21.6778 34.6578 21.7121C34.6578 22.055 34.435 22.3978 34.5721 22.7236C35.395 24.9694 36.2522 27.1981 37.0579 29.4439C37.1951 29.4439 37.3151 29.4439 37.4522 29.4439C37.4694 29.6496 37.5037 29.8382 37.5208 30.0439C37.2122 30.0953 36.9036 30.0782 36.5951 30.0953C35.995 30.0953 35.395 30.1296 34.795 30.061C34.795 29.7353 34.9493 29.4267 34.9836 29.101C34.9321 28.7753 34.7607 28.4667 34.6235 28.1581C33.7149 28.2267 32.7892 28.1581 31.8806 28.2267C31.5891 28.3467 31.5377 28.7238 31.4348 28.981C31.2977 29.341 31.4863 29.701 31.5034 30.061C30.6291 30.061 29.7376 30.1296 28.8633 30.0439C28.8633 29.8725 28.8633 29.701 28.8633 29.5296C29.0861 29.4439 29.3776 29.4096 29.4462 29.1353C30.2862 26.8552 31.1434 24.5922 31.9834 22.3293C31.8291 22.1578 31.7263 21.935 31.6406 21.7292" fill="#258AB5"/>
<path d="M38.1026 21.7796C38.857 21.6253 39.6456 21.6767 40.417 21.6767C41.3428 23.1339 42.2343 24.6083 43.0914 26.0826C43.2457 26.3741 43.4343 26.6312 43.64 26.8541C43.7429 25.3455 43.6743 23.8368 43.6743 22.3282C43.5715 22.2596 43.4857 22.191 43.3829 22.1396C43.3829 21.9853 43.3829 21.831 43.4172 21.6767C44.2229 21.6767 45.0287 21.6253 45.8516 21.6939C45.8516 21.8139 45.8516 22.0196 45.8516 22.1396C45.7658 22.1396 45.5944 22.191 45.5087 22.2082C45.4915 24.5226 45.5258 26.8541 45.4744 29.1685C45.4573 29.3914 45.6973 29.4771 45.8344 29.5799C45.8344 29.7171 45.8344 29.8714 45.8344 30.0085C45.1315 30.0257 44.4458 30.06 43.7429 30.0085C43.5543 30.0085 43.4686 29.8028 43.3829 29.6656C42.56 28.3284 41.7542 27.0084 40.9485 25.6712C40.7599 25.3626 40.5885 25.0369 40.3142 24.7969C40.2285 25.2426 40.297 25.7055 40.2799 26.1512C40.297 27.2484 40.2799 28.3284 40.2799 29.4256C40.3999 29.4771 40.5028 29.5114 40.6228 29.5628C40.6228 29.6656 40.6228 29.8885 40.6399 30.0085C40.3827 30.06 40.1256 30.06 39.8856 30.06C39.3027 30.06 38.7198 30.0942 38.1369 30.0085C38.1369 29.7171 38.3084 29.5114 38.5312 29.3742C38.5655 27.2998 38.5312 25.2426 38.5484 23.1682C38.5141 22.8939 38.5827 22.5853 38.4627 22.3282C38.3084 22.1567 38.1369 21.9682 38.0684 21.7282" fill="#258AB5"/>
<path d="M50.2573 25.4143C50.103 25.8771 49.9144 26.3229 49.7773 26.8029C50.4116 26.8029 51.0459 26.8029 51.6802 26.7515C51.423 25.86 51.1145 24.9857 50.823 24.1113C50.5316 24.4885 50.4116 24.9685 50.2401 25.4143M49.3658 21.6941C50.343 21.6941 51.3373 21.5569 52.2974 21.7798C52.2288 21.9855 52.0916 22.157 52.0745 22.3627C52.1774 22.9284 52.4517 23.4427 52.6402 23.9742C53.2746 25.74 53.9603 27.4715 54.526 29.2544C54.6632 29.4259 54.8861 29.4773 55.0746 29.5802C55.0746 29.7345 55.0746 29.8887 55.0575 30.043C54.166 30.1459 53.2574 30.1116 52.3488 30.0773C52.3488 29.683 52.606 29.2887 52.4517 28.8944C52.3659 28.6887 52.3488 28.4315 52.1945 28.243C51.2173 28.1915 50.2401 28.243 49.2801 28.2258C49.1601 28.5001 49.0744 28.7916 48.9715 29.083C48.8515 29.4087 49.0229 29.7345 49.0572 30.043C48.1658 30.1459 47.2743 30.1116 46.3828 30.1116C46.3828 29.8716 46.3828 29.6487 46.4171 29.4259C46.5714 29.443 46.7257 29.4602 46.8971 29.4773C47.7714 27.3001 48.5429 25.1057 49.4001 22.9284C49.5715 22.5341 49.4515 22.1055 49.3658 21.7284" fill="#258AB5"/>
<path d="M17.5969 34.1248C17.4941 34.1419 17.5283 34.3305 17.6312 34.279C17.7341 34.2619 17.6998 34.0905 17.5969 34.1248ZM15.0597 33.679C15.094 33.799 15.1454 33.919 15.1968 34.0562C15.3683 34.0562 15.5225 34.0562 15.694 34.0562C15.7454 33.919 15.7797 33.799 15.8311 33.6619C15.574 33.5933 15.3168 33.6104 15.0768 33.6619M17.3226 33.1647C17.5455 33.1647 17.7684 33.1304 18.0084 33.1133C18.1455 33.8333 18.3684 34.5705 18.7455 35.2048C18.5227 35.2048 18.2998 35.2219 18.0598 35.2391C18.0427 35.1019 18.0084 34.9648 17.9912 34.8276C17.8198 34.8276 17.6312 34.8276 17.4598 34.8276C17.3741 34.9648 17.3055 35.1019 17.2369 35.2391C16.774 35.2391 16.294 35.2391 15.8311 35.2391C15.7968 35.0162 15.7626 34.8105 15.7111 34.5876C15.5225 34.5362 15.334 34.5362 15.1454 34.5191C15.1625 34.7419 15.1968 34.9819 15.2311 35.2048C15.0082 35.2048 14.7854 35.2219 14.5625 35.2391C14.6139 34.5362 14.5968 33.8505 14.5625 33.1476C14.9911 33.1476 15.4197 33.1304 15.8311 33.1476C16.054 33.1476 16.2254 33.3533 16.3112 33.559C16.4654 33.7819 16.2426 34.0047 16.2254 34.2276C16.2254 34.4848 16.2597 34.7419 16.294 34.9991C16.4483 34.9991 16.5854 34.9991 16.7397 35.0334C16.9283 34.3991 17.1855 33.799 17.3398 33.1647" fill="#258AB5"/>
<path d="M19.003 33.3704C19.1916 33.0961 19.5688 33.1476 19.8602 33.1133C20.2545 33.1133 20.4431 33.5076 20.6488 33.7819C20.2031 33.8847 19.8088 33.679 19.3973 33.559C19.3973 33.6104 19.3973 33.7133 19.3973 33.7647C19.7402 33.9019 20.1174 33.9705 20.426 34.1933C20.5631 34.3648 20.5631 34.6048 20.5631 34.8276C20.2374 35.3934 19.2773 35.462 18.9345 34.8791C18.8316 34.7419 18.8316 34.5705 18.8145 34.4162C19.243 34.5019 19.5859 34.8276 20.0317 34.8105C20.0317 34.7248 20.0317 34.6219 20.0317 34.5362C19.6888 34.4162 19.3116 34.3819 19.0373 34.1248C18.8487 33.9362 18.9687 33.5933 19.003 33.3704Z" fill="#258AB5"/>
<path d="M20.8047 33.1636C21.0618 33.1636 21.319 33.1465 21.5762 33.1465C21.5076 33.8322 21.3704 34.5523 21.5762 35.2209C21.319 35.2209 21.0618 35.238 20.8047 35.2551C21.0276 34.5865 21.0961 33.8151 20.8047 33.1636Z" fill="#258AB5"/>
<path d="M21.9183 33.1662C22.124 33.0977 22.364 33.1148 22.5698 33.0977C22.4669 33.6805 22.5012 34.2634 22.5183 34.8292C22.8441 34.8292 23.1698 34.7949 23.4955 34.7777C23.4612 34.932 23.4269 35.1035 23.3755 35.2578C22.9126 35.2578 22.4326 35.2578 21.9697 35.2406C21.9526 34.5549 21.884 33.8691 21.9012 33.1834" fill="#258AB5"/>
<path d="M25.5716 34.1248C25.5716 34.1248 25.5373 34.2619 25.5373 34.3305C25.6058 34.3305 25.6744 34.3476 25.743 34.3648C25.743 34.3133 25.743 34.2276 25.743 34.1933C25.6916 34.1762 25.6401 34.1419 25.5716 34.1248ZM23.6343 33.1647C23.8743 33.1647 24.1144 33.1304 24.3715 33.1133C24.3029 33.679 24.2686 34.2619 24.2858 34.8276C24.2858 35.0334 24.4915 35.0848 24.6115 35.1877C24.8687 34.5362 25.1773 33.8847 25.263 33.1819C25.503 33.1647 25.743 33.1304 25.983 33.1133C26.0344 33.7476 26.3087 34.3305 26.5487 34.9134C26.6173 35.0677 26.823 35.0505 26.9431 35.1191C26.9088 34.4676 26.9431 33.799 26.823 33.1647C27.0459 33.1647 27.2516 33.1647 27.4745 33.1647C27.6631 33.5076 27.8174 33.9019 28.1431 34.1419C28.1431 33.8162 28.1088 33.4733 28.0745 33.1476C28.2974 33.1304 28.5203 33.1133 28.7431 33.1133C28.7603 33.799 28.7088 34.5019 28.7431 35.1877C28.5374 35.2048 28.3317 35.2391 28.126 35.2562C27.9374 34.9305 27.7488 34.5876 27.5774 34.2448C27.5431 34.2448 27.4745 34.2448 27.4402 34.2448C27.4059 34.5705 27.4059 34.8962 27.4402 35.2048C26.9602 35.2048 26.4973 35.2219 26.0173 35.2048C25.983 35.1019 25.9316 34.8962 25.9144 34.7934H25.383C25.2801 34.9134 25.2287 35.0505 25.1601 35.1877C24.6458 35.1877 24.1486 35.1877 23.6343 35.1877C23.7543 34.5019 23.8401 33.7647 23.6172 33.1133" fill="#258AB5"/>
<path d="M32.8912 34.0039C32.8912 34.0896 32.8741 34.2782 32.857 34.3639C32.9598 34.3468 33.0455 34.3125 33.1484 34.2954C33.1484 34.2439 33.1484 34.1411 33.1484 34.1068C33.0627 34.0725 32.977 34.0382 32.8912 34.0039ZM32.7027 33.1296C32.8741 33.181 33.2513 33.0096 33.3198 33.2839C33.5256 33.9525 33.7827 34.6039 34.057 35.2383C33.9027 35.2383 33.5941 35.2383 33.4398 35.2211C33.4227 35.1183 33.3541 34.9468 33.337 34.844C33.1998 34.844 32.9427 34.844 32.8227 34.844C32.7198 34.964 32.6684 35.1011 32.5998 35.2383C32.3769 35.2383 32.1369 35.2383 31.9141 35.2383C32.2398 34.5697 32.5484 33.8668 32.7027 33.1296Z" fill="#258AB5"/>
<path d="M40.9828 33.2504C41.3086 33.0619 41.7372 33.079 42.08 33.2333C42.3543 33.4047 42.4915 33.7476 42.4743 34.0562C42.2343 34.0048 41.9772 33.9362 41.8057 33.7476C41.6343 33.5247 41.3257 33.6619 41.12 33.7476C41.12 34.0905 41.12 34.4505 41.1886 34.8105C41.3771 34.8105 41.5657 34.8105 41.7543 34.7762C41.8057 34.6391 41.8572 34.5191 41.8914 34.3819C42.0972 34.3819 42.2857 34.3476 42.4915 34.3476C42.4229 34.6734 42.32 35.1019 41.96 35.2048C41.48 35.4791 40.6914 35.2219 40.6057 34.6219C40.4342 34.1419 40.6057 33.6104 40.9828 33.2676" fill="#258AB5"/>
<path d="M42.7832 33.1662C42.9718 33.1491 43.1775 33.1319 43.3832 33.1148C43.4004 33.6463 43.3832 34.1606 43.4347 34.692C43.5204 34.932 43.8461 34.8463 44.0347 34.7606C44.1718 34.2291 44.0861 33.6805 44.069 33.1319C44.2233 33.1319 44.5147 33.1148 44.669 33.0977C44.6176 33.6977 44.7033 34.332 44.5319 34.9149C44.3776 35.2063 44.0175 35.2406 43.7432 35.2749C43.4689 35.2749 43.1089 35.2235 42.9889 34.9492C42.8346 34.3663 42.8861 33.7491 42.7832 33.1662Z" fill="#258AB5"/>
<path d="M12.9698 34.4502C13.0384 34.7588 13.3127 34.9131 13.6213 34.8788C13.6727 34.7073 13.707 34.5359 13.7584 34.3645C13.5013 34.3645 13.227 34.3645 12.9698 34.4502ZM13.0384 33.6616C13.0384 33.7473 13.0384 33.833 13.0384 33.9359C13.227 33.9702 13.4156 33.9873 13.6041 34.0216C13.6041 33.8845 13.6899 33.6959 13.5356 33.6102C13.3641 33.6102 13.1927 33.6444 13.0213 33.6787M12.4898 33.1816C13.0041 33.233 13.6041 33.0101 14.067 33.2844C14.1527 33.6616 14.1699 34.0559 14.2384 34.433C14.2727 34.6388 14.3242 34.9474 14.1184 35.1016C13.587 35.3074 13.0213 35.2045 12.4727 35.2217C12.5927 34.553 12.5412 33.8502 12.4727 33.1644" fill="#258AB5"/>
<path d="M30.5232 34.4522C30.5746 34.5722 30.6261 34.7094 30.7118 34.7951C30.9175 34.8122 31.1061 34.7951 31.3118 34.7608C31.2947 34.6751 31.2604 34.4865 31.2261 34.4008C31.0032 34.2808 30.7461 34.4008 30.5061 34.4351M30.7118 33.595C30.5403 33.6636 30.5403 33.9036 30.7118 33.9893C30.9004 33.9893 31.0889 33.9379 31.2775 33.9036C31.2775 33.8351 31.2775 33.715 31.2775 33.6636C31.0889 33.6293 30.9004 33.595 30.7118 33.595ZM29.9746 33.1493C30.5575 33.1836 31.1918 33.0464 31.7404 33.3207C31.7061 33.7493 31.7061 34.1608 31.809 34.5722C31.8776 34.8294 31.7404 35.1208 31.4833 35.1894C30.9861 35.258 30.4889 35.2237 29.9918 35.2237C30.1632 34.5551 30.1803 33.8179 29.9918 33.1493" fill="#258AB5"/>
<path d="M35.0345 33.6113C34.9488 33.6113 34.8973 33.6284 34.8802 33.697C34.6573 34.2284 35.6859 34.2113 35.5659 33.7827C35.4631 33.6113 35.2231 33.5427 35.0173 33.6113M34.3145 33.1484C34.7945 33.1484 35.2916 33.1312 35.7888 33.1998C36.1317 33.3027 36.0974 33.7313 36.0631 34.0056C36.0117 34.417 36.0631 34.8456 36.2517 35.2228C35.9945 35.2228 35.7374 35.2399 35.4974 35.2571C35.5317 35.0513 35.5659 34.8456 35.6174 34.6399C35.3774 34.5885 35.1545 34.5713 34.9145 34.537C34.9145 34.777 34.9145 35.017 34.9316 35.2571H34.3145C34.4516 34.5713 34.4345 33.8513 34.3145 33.1655" fill="#258AB5"/>
<path d="M36.9874 34.4151C36.9874 34.7923 37.3474 34.878 37.6389 34.878C37.6903 34.7237 37.7246 34.5523 37.7589 34.398C37.5017 34.398 37.2446 34.398 36.9874 34.398M37.1931 33.5922C37.1074 33.6951 37.056 33.8151 37.0045 33.9351C37.1931 33.9522 37.3817 33.9694 37.5703 33.9694C37.656 33.8665 37.7074 33.7294 37.7589 33.6094C37.5703 33.5922 37.3817 33.5751 37.1931 33.6094M36.5245 33.1636C37.0217 33.2322 37.6217 33.0265 38.0846 33.3008C38.1703 33.6608 38.0674 34.0551 38.2389 34.3808C38.376 34.6208 38.2732 34.8951 38.1189 35.1009C37.6046 35.3237 37.0217 35.2209 36.4902 35.2551C36.6274 34.5694 36.4902 33.8494 36.5245 33.1465" fill="#258AB5"/>
<path d="M38.6508 33.1641C39.1651 33.1641 39.6794 33.1641 40.1937 33.1641C40.1766 33.3184 40.1937 33.5069 40.1766 33.6612C39.8337 33.6612 39.4908 33.6612 39.148 33.6784C39.148 33.7641 39.1137 33.8669 39.0965 33.9527C39.4051 34.0041 39.7651 33.9184 40.0566 34.0727C40.0737 34.1412 40.108 34.2784 40.1251 34.3641C39.7651 34.3984 39.4051 34.4327 39.0622 34.5184C39.0622 34.5698 39.0622 34.6898 39.0622 34.7413C39.4737 34.8099 39.8851 34.827 40.2966 34.8613C40.2109 34.9641 40.2109 35.2042 40.0394 35.2213C39.5765 35.2727 39.1137 35.2556 38.6508 35.2556C38.6165 34.5698 38.5822 33.867 38.6336 33.1641" fill="#258AB5"/>
<path d="M45.0308 33.1641C45.5623 33.1641 46.0766 33.1641 46.608 33.1641C46.608 33.3526 46.608 33.5412 46.5909 33.7298C46.248 33.6784 45.9051 33.6441 45.5623 33.6955C45.5623 33.7812 45.528 33.8841 45.5108 33.9698C45.8366 33.9698 46.1794 33.987 46.5052 34.0041C46.5052 34.1412 46.5052 34.2613 46.5052 34.3984C46.1794 34.4155 45.8709 34.4327 45.5451 34.467C45.528 34.5698 45.4937 34.6727 45.4766 34.7756C45.8537 34.7927 46.2309 34.827 46.5909 34.7756C46.5909 34.9127 46.5909 35.067 46.5737 35.2213C46.0594 35.2213 45.5451 35.2213 45.0308 35.2213C45.0137 34.5356 45.0137 33.8498 45.0137 33.1641" fill="#258AB5"/>
<path d="M41.9255 39.2678C42.7484 38.6163 43.8799 38.2563 44.9085 38.5306C45.3543 38.6506 45.7314 38.9763 46.1772 39.0963C46.7429 38.9249 47.2572 38.5992 47.8572 38.5477C48.4058 38.4792 48.9716 38.5477 49.4516 38.822C49.623 38.9763 49.7773 39.2506 49.6573 39.4735C49.5202 39.7478 49.3316 39.9707 49.143 40.1935C49.0401 40.1421 48.9373 40.0735 48.8344 40.0221C48.9373 39.7478 49.0916 39.5078 49.2459 39.2506C48.4744 38.9935 47.6172 39.1649 46.9315 39.5935C46.64 39.7821 46.2972 39.9535 45.9543 39.8335C45.4743 39.6792 45.0628 39.3706 44.5828 39.2335C43.7428 39.0278 42.817 39.2335 42.1141 39.7307C41.6855 40.0564 41.3084 40.5535 40.7255 40.5707C39.834 40.6221 38.9425 40.6221 38.0339 40.6393C35.7881 40.8621 33.508 40.7936 31.2451 40.8621C30.765 40.9821 30.1822 41.2907 30.1479 41.8736C30.1136 42.1822 30.0964 42.6279 30.3879 42.8336C30.6965 42.9365 31.005 43.0051 31.3308 43.0737C31.4336 42.6622 31.3993 42.2508 31.2451 41.8736C31.3136 41.8393 31.3822 41.8222 31.4336 41.7879C31.6565 42.1136 31.7937 42.5251 31.7594 42.9194C31.7937 43.1765 31.6394 43.5022 31.3479 43.5194C30.7993 43.7251 30.3193 43.3308 29.7707 43.2965C29.7707 43.3822 29.7707 43.468 29.7707 43.5537C29.9593 43.6051 30.1993 43.588 30.3536 43.7423C30.525 44.068 30.4564 44.4794 30.3022 44.8052C30.0964 45.3023 30.0107 45.9366 29.5478 46.2624C29.3935 45.9881 29.2907 45.6966 29.205 45.388C29.0335 44.908 28.6392 44.4451 28.7935 43.8966C28.9478 43.6908 29.205 43.6223 29.4107 43.5194C29.4107 43.4337 29.3935 43.3651 29.3764 43.2965C28.8278 43.4165 28.2621 43.6908 27.6792 43.5708C27.1992 43.3651 27.182 42.6965 27.3706 42.285C27.3877 42.0279 27.6106 41.9079 27.8163 41.805C27.8163 42.045 27.7649 42.2679 27.6963 42.4908C27.6106 42.7136 27.6963 42.9365 27.7135 43.1422C28.0392 43.0737 28.4164 43.0565 28.6907 42.8336C28.965 42.5251 28.9992 42.045 28.8449 41.685C28.6907 41.1879 28.1421 41.0336 27.7135 40.8964C25.5705 40.7593 23.4104 40.9478 21.2675 40.7421C20.1874 40.605 19.1074 40.6907 18.0273 40.5707C17.7359 40.5364 17.5302 40.2964 17.3244 40.1078C16.6387 39.4564 15.6786 39.0449 14.7357 39.2335C13.9471 39.3363 13.3128 40.0392 12.4899 39.8678C12.1471 39.7135 11.8385 39.4906 11.4785 39.3535C10.947 39.1306 10.3298 39.1306 9.76409 39.2678C9.96982 39.5764 10.1755 39.8678 10.2441 40.245C9.62694 40.2621 9.31836 39.5935 9.31836 39.0449C9.69552 38.8392 10.0898 38.582 10.5356 38.582C11.307 38.4792 12.0099 38.822 12.7299 39.062C13.2271 39.1135 13.6214 38.702 14.1014 38.582C14.8729 38.4449 15.7301 38.4449 16.433 38.8735C17.1016 39.1478 17.4959 39.8507 18.1473 40.1421C20.1017 40.245 22.0389 40.0221 23.9933 40.0221C25.2619 39.8849 26.5306 39.9021 27.7992 39.9535C28.4164 40.0221 28.8964 40.4335 29.3935 40.7936C29.4278 40.4335 29.2907 40.1078 29.2564 39.7478C29.1878 39.3021 29.2907 38.8392 29.4621 38.4277C29.6678 38.4963 29.8907 38.6506 29.9079 38.8906C29.9764 39.4221 29.9079 39.9707 29.8736 40.5193C30.1307 40.3993 30.3536 40.2278 30.6107 40.125C31.6222 39.7306 32.7366 39.8849 33.7995 39.8849C34.6395 39.9364 35.4967 39.8849 36.3367 39.9878C37.7253 40.1421 39.114 40.1078 40.5026 40.1592C41.1541 40.245 41.4798 39.5935 41.9427 39.2506" fill="#258AB5"/>
</g>
</g>
<defs>
<clipPath id="clip0_864_6278">
<rect width="58.3912" height="45.3963" fill="white" transform="translate(0.302734 0.847656)"/>
</clipPath>
</defs>
</svg>
